<?xml version="1.0" encoding="UTF-8"?>
<svg xmlns="http://www.w3.org/2000/svg" width="110" height="32" viewBox="0 0 110 32" fill="none">
  <g clip-path="url(#clip0_1422_15062)">
    <path d="M109.239 14.5527V12.6315H106.853V9.64491L106.773 9.66964L104.532 10.3552L104.488 10.3687V12.6316H100.951V11.371C100.951 10.784 101.083 10.3347 101.341 10.0352C101.598 9.73917 101.966 9.58869 102.434 9.58869C102.771 9.58869 103.12 9.66805 103.471 9.82455L103.559 9.86386V7.84066L103.518 7.82544C103.19 7.70772 102.745 7.64844 102.193 7.64844C101.497 7.64844 100.865 7.79987 100.313 8.09998C99.7614 8.40051 99.3274 8.82954 99.0234 9.37502C98.7205 9.91987 98.5667 10.5491 98.5667 11.2455V12.6315H96.9055V14.5527H98.5667V22.646H100.951V14.5527H104.488V19.6958C104.488 21.814 105.487 22.8875 107.458 22.8875C107.782 22.8875 108.122 22.8495 108.47 22.7752C108.825 22.6989 109.066 22.6228 109.208 22.5414L109.239 22.5228V20.5839L109.142 20.6481C109.013 20.7343 108.852 20.8048 108.663 20.8572C108.473 20.9105 108.314 20.9373 108.192 20.9373C107.73 20.9373 107.388 20.8129 107.177 20.5674C106.962 20.3197 106.854 19.8866 106.854 19.2807V14.5527H109.239ZM91.5801 20.9376C90.7145 20.9376 90.0321 20.6506 89.5512 20.0852C89.0673 19.517 88.8221 18.707 88.8221 17.6777C88.8221 16.6158 89.0673 15.7847 89.5514 15.2064C90.0326 14.632 90.7085 14.3405 91.5606 14.3405C92.3875 14.3405 93.0457 14.6189 93.5173 15.1685C93.9911 15.721 94.2316 16.5454 94.2316 17.6197C94.2316 18.7072 94.0055 19.5425 93.5595 20.1013C93.1167 20.6559 92.4507 20.9376 91.5801 20.9376ZM91.6861 12.3903C90.0347 12.3903 88.7231 12.8742 87.7879 13.8285C86.8534 14.7829 86.3795 16.1037 86.3795 17.7545C86.3795 19.3225 86.842 20.5837 87.7544 21.5025C88.6668 22.4217 89.9084 22.8873 91.4446 22.8873C93.0453 22.8873 94.3308 22.3966 95.2656 21.4291C96.2003 20.4626 96.6738 19.1543 96.6738 17.542C96.6738 15.9495 96.2294 14.6789 95.3527 13.7662C94.4755 12.8531 93.2417 12.3903 91.6861 12.3903ZM82.5346 12.3903C81.4113 12.3903 80.4822 12.6776 79.7724 13.2441C79.0582 13.814 78.696 14.5614 78.696 15.4659C78.696 15.936 78.7742 16.3536 78.928 16.7078C79.0828 17.0632 79.3224 17.3761 79.6407 17.6387C79.9565 17.8992 80.4441 18.172 81.0902 18.4496C81.6333 18.6731 82.0384 18.8622 82.2957 19.0112C82.5472 19.1572 82.7257 19.304 82.8265 19.447C82.9244 19.5869 82.9741 19.7784 82.9741 20.0147C82.9741 20.6875 82.4703 21.0148 81.4335 21.0148C81.049 21.0148 80.6103 20.9345 80.1298 20.7762C79.6528 20.6203 79.2025 20.392 78.7948 20.0993L78.6958 20.0283V22.3242L78.7321 22.3411C79.0695 22.4969 79.495 22.6283 79.9964 22.7316C80.4968 22.8351 80.9515 22.8877 81.3466 22.8877C82.5655 22.8877 83.5471 22.599 84.2633 22.0291C84.9841 21.4553 85.3494 20.6902 85.3494 19.7545C85.3494 19.0795 85.1528 18.5006 84.7652 18.0337C84.3802 17.5707 83.712 17.1455 82.7801 16.7698C82.0376 16.4718 81.562 16.2244 81.3658 16.0345C81.1766 15.8511 81.0806 15.5916 81.0806 15.2631C81.0806 14.9719 81.1991 14.7385 81.4425 14.5496C81.6878 14.3597 82.0292 14.2631 82.4574 14.2631C82.8547 14.2631 83.2612 14.3259 83.6655 14.4489C84.0695 14.5719 84.4244 14.7366 84.7206 14.9381L84.818 15.0047V12.8268L84.7806 12.8107C84.5073 12.6936 84.147 12.5933 83.7093 12.5119C83.2736 12.4311 82.8784 12.3903 82.5346 12.3903ZM72.4792 20.9376C71.6138 20.9376 70.9312 20.6506 70.4504 20.0852C69.9664 19.517 69.7216 18.7072 69.7216 17.6777C69.7216 16.6158 69.9667 15.7847 70.4509 15.2064C70.9317 14.632 71.6075 14.3405 72.46 14.3405C73.2866 14.3405 73.9448 14.6189 74.4165 15.1685C74.8904 15.721 75.1308 16.5454 75.1308 17.6197C75.1308 18.7072 74.9046 19.5425 74.4586 20.1013C74.0157 20.6559 73.3501 20.9376 72.4792 20.9376ZM72.5855 12.3903C70.9337 12.3903 69.622 12.8742 68.6873 13.8285C67.7528 14.7829 67.2786 16.1037 67.2786 17.7545C67.2786 19.3231 67.7414 20.5837 68.6538 21.5025C69.5662 22.4217 70.8077 22.8873 72.3439 22.8873C73.9444 22.8873 75.2302 22.3966 76.165 21.4291C77.0995 20.4626 77.5732 19.1543 77.5732 17.542C77.5732 15.9495 77.1287 14.6789 76.2518 13.7662C75.3744 12.8531 74.1408 12.3903 72.5855 12.3903ZM63.6587 14.3658V12.6315H61.303V22.6458H63.6587V17.5231C63.6587 16.652 63.8562 15.9364 64.2459 15.3959C64.6307 14.8619 65.1434 14.5912 65.7694 14.5912C65.9816 14.5912 66.2198 14.6262 66.4777 14.6954C66.733 14.7642 66.9179 14.8389 67.027 14.9175L67.126 14.9893V12.6144L67.0879 12.598C66.8685 12.5048 66.5581 12.4578 66.1654 12.4578C65.5735 12.4578 65.0437 12.648 64.59 13.0225C64.1917 13.3517 63.9038 13.803 63.6837 14.3658H63.6587ZM57.0845 12.3903C56.0038 12.3903 55.0398 12.622 54.2199 13.0788C53.3983 13.5367 52.7629 14.1904 52.3306 15.0216C51.9002 15.8508 51.6817 16.8194 51.6817 17.8996C51.6817 18.8458 51.8935 19.7141 52.3123 20.4794C52.7313 21.2459 53.3244 21.8456 54.0751 22.2616C54.8247 22.677 55.6911 22.8876 56.6504 22.8876C57.7699 22.8876 58.7257 22.6638 59.492 22.2224L59.523 22.2046V20.0465L59.424 20.1187C59.0768 20.3716 58.6889 20.5734 58.2715 20.7189C57.8552 20.8642 57.4756 20.9376 57.1427 20.9376C56.2184 20.9376 55.4764 20.6484 54.9378 20.0782C54.398 19.5072 54.1243 18.7055 54.1243 17.6966C54.1243 16.6814 54.4097 15.8591 54.9722 15.2523C55.533 14.6473 56.2764 14.3405 57.1816 14.3405C57.9559 14.3405 58.7104 14.6026 59.4242 15.1204L59.523 15.1922V12.9182L59.4911 12.9003C59.2225 12.7499 58.8561 12.6257 58.4013 12.5316C57.9484 12.4376 57.5054 12.3903 57.0845 12.3903ZM50.0593 12.6316H47.7036V22.6458H50.0593V12.6316ZM48.9056 8.36553C48.5178 8.36553 48.1797 8.49752 47.9019 8.75906C47.6229 9.02133 47.4814 9.35156 47.4814 9.74128C47.4814 10.1249 47.6212 10.4491 47.8975 10.7044C48.1721 10.9589 48.5113 11.088 48.9057 11.088C49.2999 11.088 49.6404 10.9589 49.9182 10.7048C50.1978 10.4491 50.3396 10.125 50.3396 9.74128C50.3396 9.36519 50.2016 9.03835 49.9297 8.76962C49.6581 8.50143 49.3133 8.36553 48.9056 8.36553ZM43.0281 11.8928V22.6458H45.4321V8.67209H42.1048L37.8756 19.0513L33.7714 8.67209H30.3086V22.6457H32.5678V11.8917H32.6453L36.9793 22.6458H38.6842L42.9505 11.8928H43.0281Z" fill="#706D6E"></path>
    <path d="M11.0817 15.0895H0V4.00781H11.0817V15.0895Z" fill="#F1511B"></path>
    <path d="M23.3158 15.0895H12.2344V4.00781H23.3158V15.0895Z" fill="#80CC28"></path>
    <path d="M11.0813 27.3237H0V16.2422H11.0813V27.3237Z" fill="#00ADEF"></path>
    <path d="M23.3158 27.3237H12.2344V16.2422H23.3158V27.3237Z" fill="#FBBC09"></path>
  </g>
  <defs>
    <clipPath id="clip0_1422_15062">
      <rect width="109.333" height="32" fill="white"></rect>
    </clipPath>
  </defs>
</svg>
