<?xml version="1.0" encoding="UTF-8"?>
<svg xmlns="http://www.w3.org/2000/svg" width="89" height="32" viewBox="0 0 89 32" fill="none">
  <g clip-path="url(#clip0_1422_15057)">
    <path d="M9.75665 4H0V27.3333L9.75665 4Z" fill="#FA0C00"></path>
    <path d="M16.6211 4H26.365V27.3333L16.6211 4Z" fill="#FA0C00"></path>
    <path d="M13.1907 12.6016L19.4007 27.3351H15.3264L13.4704 22.6442H8.92578L13.1907 12.6016Z" fill="#FA0C00"></path>
    <path d="M42.2817 18.838L43.4322 22.1368C43.4703 22.2194 43.5275 22.2576 43.6292 22.2576H45.8412C45.9619 22.2576 45.981 22.2003 45.9619 22.0796L41.3919 9.38639C41.3728 9.28469 41.3537 9.26562 41.252 9.26562H38.5062C38.4299 9.26562 38.3854 9.32283 38.3854 9.40546C38.3473 10.0729 38.2901 10.2762 38.2075 10.4733L34.1332 22.0605C34.1141 22.2003 34.1586 22.2575 34.273 22.2575H36.2498C36.3705 22.2575 36.4277 22.2194 36.4722 22.0986L37.5591 18.838H42.2817ZM38.1884 16.6832C38.7859 14.8781 39.574 12.5645 39.8918 11.2424H39.9109C40.305 12.628 41.233 15.3739 41.6525 16.6832H38.1884Z" fill="#FA0C00"></path>
    <path d="M51.8368 22.4555C53.0254 22.4555 54.2903 22.2394 55.5742 21.6865C55.6759 21.6483 55.695 21.6038 55.695 21.5085C55.6569 21.1525 55.6124 20.6377 55.6124 20.2436V8.2941C55.6124 8.21783 55.6124 8.17969 55.517 8.17969H53.3623C53.2797 8.17969 53.2415 8.21783 53.2415 8.31952V12.3684C52.9047 12.3302 52.6695 12.3112 52.3898 12.3112C48.913 12.3112 46.7773 14.6057 46.7773 17.4723C46.7773 20.7966 48.9702 22.4555 51.8368 22.4555ZM53.2415 20.2436C52.8856 20.358 52.4915 20.4025 52.0911 20.4025C50.5147 20.4025 49.2245 19.5127 49.2245 17.3516C49.2245 15.4384 50.5529 14.307 52.3135 14.307C52.6695 14.307 52.9809 14.3451 53.2415 14.4468V20.2436Z" fill="#FA0C00"></path>
    <path d="M62.5709 12.3125C59.6025 12.3125 57.7656 14.588 57.7656 17.3974C57.7656 19.9081 59.2275 22.4569 62.5264 22.4569C65.3167 22.4569 67.2744 20.4038 67.2744 17.3338C67.2744 14.6261 65.6154 12.3125 62.5709 12.3125ZM62.4501 14.3083C64.1281 14.3083 64.84 15.7512 64.84 17.3974C64.84 19.4314 63.7912 20.442 62.5709 20.442C61.0645 20.442 60.1746 19.1771 60.1746 17.3529C60.1746 15.4779 61.1217 14.3083 62.4501 14.3083Z" fill="#FA0C00"></path>
    <path d="M69.4992 8.17969C69.4166 8.17969 69.3594 8.21783 69.3594 8.31952V21.8454C69.3594 21.9026 69.4166 22.0043 69.4992 22.0233C70.4463 22.3157 71.4378 22.4555 72.4612 22.4555C75.3913 22.4555 78.2389 20.6377 78.2389 16.9766C78.2389 14.3261 76.421 12.3112 73.5735 12.3112C72.9188 12.3112 72.3086 12.4129 71.7747 12.5908L71.7493 8.33859C71.7493 8.19876 71.7111 8.17969 71.5713 8.17969H69.4992ZM75.8045 17.2181C75.8045 19.411 74.3044 20.4407 72.6836 20.4407C72.3467 20.4407 72.048 20.4216 71.7747 20.339V14.5676C72.0861 14.4468 72.4612 14.3451 73.154 14.3451C74.7176 14.3451 75.8045 15.3367 75.8045 17.2181Z" fill="#FA0C00"></path>
    <path d="M86.2815 17.9313C87.2476 17.9313 88.0421 17.9122 88.3155 17.8487C88.4172 17.8296 88.4553 17.7915 88.4744 17.7089C88.5316 17.4927 88.557 17.0415 88.557 16.4885C88.557 14.6071 87.4256 12.3125 84.5018 12.3125C81.5144 12.3125 79.8555 14.7469 79.8555 17.4927C79.8555 19.9271 81.1394 22.4569 84.737 22.4569C86.0845 22.4569 86.9553 22.2408 87.7053 21.8848C87.7815 21.8467 87.8197 21.7831 87.8197 21.6687V20.0225C87.8197 19.9271 87.7625 19.9081 87.7053 19.9462C86.9553 20.264 86.1417 20.4229 85.2518 20.4229C83.2369 20.4229 82.3216 19.3106 82.2644 17.9313H86.2815ZM82.2644 16.2279C82.4233 15.2617 83.0335 14.213 84.4001 14.213C85.9065 14.213 86.3006 15.4778 86.3006 16.0499C86.3006 16.069 86.3006 16.1516 86.3006 16.2088C86.2179 16.2279 85.9637 16.2279 85.2137 16.2279H82.2644Z" fill="#FA0C00"></path>
  </g>
  <defs>
    <clipPath id="clip0_1422_15057">
      <rect width="88.6667" height="32" fill="white"></rect>
    </clipPath>
  </defs>
</svg>
