<?xml version="1.0" encoding="UTF-8"?>
<svg xmlns="http://www.w3.org/2000/svg" width="76" height="32" viewBox="0 0 76 32" fill="none">
  <g clip-path="url(#clip0_1422_15060)">
    <path d="M20.8603 20.7248C18.738 20.7248 17.333 19.1171 16.9411 18.4944C17.444 14.5549 18.9155 13.3093 20.8603 13.3093C22.7829 13.3093 24.2767 14.8156 24.2767 17.017C24.2767 19.2185 22.7829 20.7248 20.8603 20.7248ZM20.8603 10.8906C17.3996 10.8906 15.4622 13.0993 14.9076 15.3732C14.2791 14.2145 13.8132 12.6648 13.4509 11.2237H8.66652V17.0533C8.66652 19.1679 7.68304 20.7321 5.76043 20.7321C3.83782 20.7321 2.73602 19.1679 2.73602 17.0533L2.7582 11.2237H0V17.0533C0 18.7551 0.561993 20.2976 1.58985 21.3983C2.64729 22.5352 4.08924 23.129 5.76043 23.129C9.08801 23.129 11.41 20.6307 11.41 17.0533V13.1355C11.7575 14.4246 12.5857 16.9012 14.1681 19.0737L12.6892 27.322H15.4918L16.4679 21.4779C16.7858 21.7386 17.126 21.9704 17.4883 22.1804C18.4274 22.7597 19.4997 23.0856 20.6089 23.1218C20.6089 23.1218 20.7789 23.129 20.8677 23.129C24.2988 23.129 27.0274 20.5293 27.0274 17.017C27.0274 13.5049 24.2914 10.8906 20.8603 10.8906Z" fill="#14A800"></path>
    <path d="M60.4876 12.4709V11.2253H57.7812V22.7613H60.5247V18.2425C60.5247 15.4617 60.7835 13.463 64.5917 13.7237V11.0877C62.817 10.9574 61.4342 11.3195 60.4876 12.4709Z" fill="#14A800"></path>
    <path d="M41.4388 11.2188L39.4497 19.286L37.3274 11.2188H33.8372L31.7075 19.286L29.7257 11.2188H26.9453L29.992 22.762H33.29L35.5823 14.5644L37.8524 22.762H41.1505L44.3745 11.2188H41.4388Z" fill="#14A800"></path>
    <path d="M50.4175 20.7321C48.4654 20.7321 47.0012 19.2258 47.0012 17.017C47.0012 14.8084 48.4728 13.3093 50.4175 13.3093C52.3402 13.3093 53.8339 14.8156 53.8339 17.017C53.8339 19.2185 52.3402 20.7321 50.4175 20.7321ZM50.4175 10.8906C46.9642 10.8906 44.2578 13.5121 44.2578 17.017C44.2578 20.522 46.9642 23.1218 50.4175 23.1218C53.8486 23.1218 56.5773 20.522 56.5773 17.017C56.5773 13.5121 53.8561 10.8906 50.4175 10.8906Z" fill="#14A800"></path>
    <path d="M68.5282 17.0849H69.1641L72.9945 22.7623H76.0929L71.6857 16.4693C73.8228 15.651 75.2573 13.5147 75.2573 11.2191H72.5212C72.5212 13.7102 70.5173 14.6516 68.5282 14.6516V6.66406H65.7773V22.7623H68.5208L68.5282 17.0849Z" fill="#14A800"></path>
  </g>
  <defs>
    <clipPath id="clip0_1422_15060">
      <rect width="76" height="32" fill="white"></rect>
    </clipPath>
  </defs>
</svg>
