<svg xmlns="http://www.w3.org/2000/svg" width="114" height="27" viewBox="0 0 114 27" fill="none"><g clip-path="url(#clip0_830_37)"><path d="M52.4885 25.813H68.6173V22.0697H56.954V15.3414H67.6905V11.5981H56.954V4.90585H68.521V1.16254H52.4885V25.813Z" fill="#2D2D2D"></path><path d="M81.4384 7.32516H77.7914V2.89577H73.4342V7.32516H70.8103V10.6953H73.4342V20.9744C73.4101 24.4529 75.9378 26.1621 79.2117 26.0658C80.4514 26.0297 81.306 25.789 81.7754 25.6325L81.0412 22.2262C80.8005 22.2864 80.307 22.3947 79.7653 22.3947C78.67 22.3947 77.7914 22.0095 77.7914 20.2522V10.6953H81.4384V7.32516Z" fill="#2D2D2D"></path><path d="M84.4043 25.813H88.7615V14.9442C88.7615 12.5971 90.5308 10.9361 92.9261 10.9361C93.6603 10.9361 94.5751 11.0685 94.9482 11.1888V7.18072C94.551 7.10851 93.8649 7.06036 93.3835 7.06036C91.2651 7.06036 89.4957 8.264 88.8217 10.4065H88.6291V7.32516H84.4043V25.813Z" fill="#2D2D2D"></path><path d="M104.468 26.1741C109.885 26.1741 113.327 22.3586 113.327 16.6413C113.327 10.912 109.885 7.08443 104.468 7.08443C99.0518 7.08443 95.6094 10.912 95.6094 16.6413C95.6094 22.3586 99.0518 26.1741 104.468 26.1741ZM104.492 22.6836C101.495 22.6836 100.027 20.0115 100.027 16.6293C100.027 13.2471 101.495 10.5389 104.492 10.5389C107.441 10.5389 108.91 13.2471 108.91 16.6293C108.91 20.0115 107.441 22.6836 104.492 22.6836Z" fill="#2D2D2D"></path><path d="M32.7562 13.4755C32.7562 20.4617 27.0927 26.1252 20.1065 26.1252C13.1202 26.1252 7.45679 20.4617 7.45679 13.4755C7.45679 6.48922 13.1202 0.825745 20.1065 0.825745C27.0927 0.825745 32.7562 6.48922 32.7562 13.4755Z" fill="#2D2D2D" fill-opacity="0.6"></path><path fill-rule="evenodd" clip-rule="evenodd" d="M16.4917 1.34959C11.2665 2.90469 7.45619 7.7451 7.45619 13.4755C7.45619 19.2058 11.2665 24.0462 16.4917 25.6013C15.3465 25.9422 14.1334 26.1252 12.8775 26.1252C5.89125 26.1252 0.227783 20.4617 0.227783 13.4755C0.227783 6.48922 5.89125 0.825745 12.8775 0.825745C14.1334 0.825745 15.3465 1.00876 16.4917 1.34959Z" fill="#2D2D2D" fill-opacity="0.25"></path><path d="M40.1009 13.4755C40.1009 20.4617 34.4375 26.1252 27.4512 26.1252C20.465 26.1252 14.8015 20.4617 14.8015 13.4755C14.8015 6.48922 20.465 0.825745 27.4512 0.825745C34.4375 0.825745 40.1009 6.48922 40.1009 13.4755Z" fill="#2D2D2D"></path></g><defs><clipPath id="clip0_830_37"><rect width="114" height="27" fill="white"></rect></clipPath></defs></svg>