<svg xmlns="http://www.w3.org/2000/svg" width="181" height="31" viewBox="0 0 181 31" fill="none"><g clip-path="url(#clip0_830_84)"><path opacity="0.4" d="M32.0684 11.77L19.8613 20.4732H14.4358L2.22876 11.77L17.1486 1.82349L32.0684 11.77Z" fill="#2D2D2D"></path><path fill-rule="evenodd" clip-rule="evenodd" d="M16.4586 0.788954C16.8762 0.510534 17.4203 0.510534 17.8379 0.788954L32.7577 10.7355C33.1036 10.9661 33.3114 11.3543 33.3114 11.77V27.9331C33.3114 28.5926 33.0494 29.2251 32.583 29.6914C32.1167 30.1578 31.4842 30.4198 30.8247 30.4198H3.47174C2.81225 30.4198 2.17976 30.1578 1.71343 29.6914C1.24709 29.2251 0.985107 28.5926 0.985107 27.9331V11.77C0.985107 11.3543 1.19287 10.9661 1.53876 10.7355L16.4586 0.788954ZM3.47174 12.4354V27.9331H30.8247V12.4354L17.1482 3.31774L3.47174 12.4354Z" fill="#2D2D2D"></path><path fill-rule="evenodd" clip-rule="evenodd" d="M15.4513 19.7559C15.8475 20.3167 15.714 21.0926 15.1531 21.4887L3.3294 29.8406C2.76854 30.2368 1.99272 30.1032 1.59655 29.5424C1.20038 28.9815 1.33389 28.2057 1.89475 27.8095L13.7185 19.4577C14.2793 19.0615 15.0552 19.195 15.4513 19.7559Z" fill="#2D2D2D"></path><path fill-rule="evenodd" clip-rule="evenodd" d="M18.8456 19.7558C19.2417 19.195 20.0176 19.0615 20.5784 19.4576L32.4024 27.8096C32.9632 28.2057 33.0967 28.9815 32.7006 29.5424C32.3044 30.1033 31.5286 30.2368 30.9677 29.8406L19.1438 21.4887C18.5829 21.0925 18.4494 20.3167 18.8456 19.7558Z" fill="#2D2D2D"></path><path fill-rule="evenodd" clip-rule="evenodd" d="M1.21616 11.0482C1.61479 10.4891 2.39119 10.359 2.9503 10.7577L14.8334 19.2299H19.4632L31.3464 10.7577C31.9055 10.359 32.6819 10.4891 33.0805 11.0482C33.4791 11.6074 33.349 12.3838 32.7899 12.7824L20.5829 21.4856C20.3722 21.6358 20.1199 21.7166 19.8611 21.7166H14.4356C14.1768 21.7166 13.9245 21.6358 13.7138 21.4856L1.50674 12.7824C0.947632 12.3838 0.817536 11.6074 1.21616 11.0482Z" fill="#2D2D2D"></path><path d="M46.692 25.8377C46.3586 25.8377 46.0779 25.7237 45.8499 25.4956C45.6218 25.2675 45.5078 24.9868 45.5078 24.6535V8.94357C45.5078 8.4699 45.6745 8.0664 46.0078 7.73308C46.3411 7.38222 46.7446 7.20679 47.2183 7.20679H47.5603C48.1217 7.20679 48.6042 7.46993 49.0077 7.99623L59.1389 22.6273V8.41727C59.1389 8.08395 59.2529 7.80326 59.481 7.57519C59.709 7.32959 59.9897 7.20679 60.323 7.20679C60.6564 7.20679 60.9371 7.32959 61.1651 7.57519C61.4107 7.80326 61.5335 8.08395 61.5335 8.41727V24.1272C61.5335 24.6009 61.3581 25.0044 61.0072 25.3377C60.6739 25.671 60.2704 25.8377 59.7967 25.8377H59.481C59.2003 25.8377 58.9371 25.7763 58.6915 25.6535C58.4459 25.5131 58.2442 25.3377 58.0863 25.1272L47.9024 10.4172V24.6535C47.9024 24.9868 47.7796 25.2675 47.534 25.4956C47.306 25.7237 47.0253 25.8377 46.692 25.8377Z" fill="#2D2D2D"></path><path d="M71.7189 25.9693C70.3681 25.9693 69.1839 25.6798 68.1664 25.1009C67.1489 24.5219 66.3595 23.7062 65.7981 22.6536C65.2542 21.5835 64.9823 20.3642 64.9823 18.9958C64.9823 17.6275 65.2542 16.417 65.7981 15.3644C66.3595 14.2942 67.1489 13.4697 68.1664 12.8908C69.1839 12.3119 70.3681 12.0224 71.7189 12.0224C73.0522 12.0224 74.2276 12.3119 75.2451 12.8908C76.2626 13.4697 77.052 14.2942 77.6134 15.3644C78.1748 16.417 78.4555 17.6275 78.4555 18.9958C78.4555 20.3642 78.1748 21.5835 77.6134 22.6536C77.052 23.7062 76.2626 24.5219 75.2451 25.1009C74.2276 25.6798 73.0522 25.9693 71.7189 25.9693ZM71.7189 23.7851C72.4382 23.7851 73.1224 23.6185 73.7715 23.2851C74.4381 22.9518 74.9819 22.4255 75.403 21.7063C75.8416 20.987 76.0609 20.0747 76.0609 18.9695C76.0609 17.8818 75.8416 16.9784 75.403 16.2591C74.9819 15.5398 74.4381 15.0223 73.7715 14.7065C73.1224 14.3732 72.4382 14.2065 71.7189 14.2065C70.9821 14.2065 70.2804 14.3732 69.6137 14.7065C68.9646 15.0223 68.4296 15.5398 68.0085 16.2591C67.5875 16.9784 67.377 17.8818 67.377 18.9695C67.377 20.0747 67.5875 20.987 68.0085 21.7063C68.4296 22.4255 68.9646 22.9518 69.6137 23.2851C70.2804 23.6185 70.9821 23.7851 71.7189 23.7851Z" fill="#2D2D2D"></path><path d="M85.6279 25.8377C85.2771 25.8377 84.9613 25.7324 84.6806 25.5219C84.3999 25.3114 84.2069 25.0482 84.1017 24.7325L80.365 13.7855C80.3123 13.6276 80.286 13.4785 80.286 13.3381C80.286 13.0048 80.4001 12.7241 80.6281 12.4961C80.8562 12.268 81.1369 12.154 81.4702 12.154C81.7158 12.154 81.9351 12.2241 82.1281 12.3645C82.3386 12.4873 82.4789 12.654 82.5491 12.8645L85.6279 22.9957L88.6805 13.1013C88.7682 12.8206 88.9261 12.5926 89.1541 12.4171C89.3997 12.2417 89.6717 12.154 89.9699 12.154C90.2681 12.154 90.5313 12.2417 90.7593 12.4171C91.0049 12.5926 91.1716 12.8206 91.2593 13.1013L94.3118 22.9957L97.3907 12.8645C97.4608 12.654 97.5924 12.4873 97.7854 12.3645C97.9959 12.2241 98.224 12.154 98.4696 12.154C98.8029 12.154 99.0836 12.268 99.3116 12.4961C99.5397 12.7241 99.6537 13.0048 99.6537 13.3381C99.6537 13.4785 99.6274 13.6276 99.5748 13.7855L95.8381 24.7325C95.7328 25.0482 95.5399 25.3114 95.2592 25.5219C94.9785 25.7324 94.6627 25.8377 94.3118 25.8377C93.961 25.8377 93.6452 25.7324 93.3645 25.5219C93.0838 25.3114 92.8821 25.0395 92.7593 24.7061L89.9699 15.9959L87.1805 24.7061C87.0577 25.0395 86.856 25.3114 86.5753 25.5219C86.2946 25.7324 85.9788 25.8377 85.6279 25.8377Z" fill="#2D2D2D"></path><path fill-rule="evenodd" clip-rule="evenodd" d="M49.1453 7.88984C49.1471 7.89209 49.1487 7.89437 49.1503 7.89669L58.9629 22.0675V8.41729C58.9629 8.04042 59.0934 7.71551 59.3539 7.45384C59.6145 7.17439 59.9407 7.03192 60.3219 7.03192C60.702 7.03192 61.0275 7.17359 61.2877 7.45148C61.5656 7.71169 61.7073 8.03719 61.7073 8.41729V24.1272C61.7073 24.6493 61.5119 25.0977 61.1282 25.463C60.7622 25.8282 60.3147 26.0126 59.7956 26.0126H59.4798C59.1726 26.0126 58.8826 25.9451 58.6122 25.8099C58.6093 25.8085 58.6064 25.8069 58.6036 25.8053C58.3389 25.6541 58.1185 25.4632 57.9453 25.2321L57.9414 25.2268L48.0762 10.9771V24.6535C48.0762 25.0347 47.9337 25.361 47.6543 25.6216C47.3926 25.8821 47.0677 26.0126 46.6908 26.0126C46.3129 26.0126 45.9872 25.8813 45.7251 25.6193C45.463 25.3572 45.3318 25.0315 45.3318 24.6535V8.94358C45.3318 8.42454 45.5162 7.97703 45.8814 7.61103C46.2467 7.22733 46.6951 7.03192 47.2171 7.03192H47.5592C48.1852 7.03192 48.7155 7.32919 49.1453 7.88984ZM46.0067 7.7331C46.34 7.38224 46.7435 7.20681 47.2171 7.20681H47.5592C48.1206 7.20681 48.603 7.46995 49.0065 7.99625L59.1378 22.6273V8.41729C59.1378 8.08397 59.2518 7.80327 59.4798 7.57521C59.7079 7.32961 59.9886 7.20681 60.3219 7.20681C60.6552 7.20681 60.9359 7.32961 61.164 7.57521C61.4096 7.80327 61.5324 8.08397 61.5324 8.41729V24.1272C61.5324 24.6009 61.357 25.0044 61.0061 25.3377C60.6728 25.671 60.2693 25.8377 59.7956 25.8377H59.4798C59.1992 25.8377 58.936 25.7763 58.6904 25.6535C58.4448 25.5132 58.243 25.3377 58.0852 25.1272L47.9013 10.4172V24.6535C47.9013 24.9869 47.7785 25.2675 47.5329 25.4956C47.3049 25.7237 47.0242 25.8377 46.6908 25.8377C46.3575 25.8377 46.0768 25.7237 45.8488 25.4956C45.6207 25.2675 45.5067 24.9869 45.5067 24.6535V8.94358C45.5067 8.46992 45.6733 8.06642 46.0067 7.7331ZM65.6411 22.7328C65.0832 21.6349 64.8064 20.3879 64.8064 18.9958C64.8064 17.6039 65.0832 16.3651 65.6417 15.2841L65.6422 15.2832C66.2186 14.1844 67.0313 13.3348 68.0789 12.7388C69.1266 12.1427 70.3415 11.8475 71.7179 11.8475C73.0772 11.8475 74.2832 12.1429 75.3306 12.7388C76.3779 13.3347 77.1905 14.184 77.7669 15.2824C78.3435 16.3638 78.6294 17.6032 78.6294 18.9958C78.6294 20.3887 78.3435 21.6365 77.7673 22.7349L77.7667 22.7359C77.1901 23.8171 76.3774 24.6573 75.3306 25.2529C74.2832 25.8488 73.0772 26.1442 71.7179 26.1442C70.3415 26.1442 69.1266 25.849 68.0789 25.2529C67.0321 24.6573 66.2194 23.8171 65.6427 22.7359L65.6411 22.7328ZM77.6124 15.3644C77.051 14.2943 76.2616 13.4697 75.2441 12.8908C74.2266 12.3119 73.0512 12.0224 71.7179 12.0224C70.3671 12.0224 69.1829 12.3119 68.1654 12.8908C67.1479 13.4697 66.3584 14.2943 65.797 15.3644C65.2532 16.417 64.9813 17.6275 64.9813 18.9958C64.9813 20.3642 65.2532 21.5835 65.797 22.6536C66.3584 23.7062 67.1479 24.522 68.1654 25.1009C69.1829 25.6798 70.3671 25.9693 71.7179 25.9693C73.0512 25.9693 74.2266 25.6798 75.2441 25.1009C76.2616 24.522 77.051 23.7062 77.6124 22.6536C78.1738 21.5835 78.4545 20.3642 78.4545 18.9958C78.4545 17.6275 78.1738 16.417 77.6124 15.3644ZM73.6906 23.1296L73.6922 23.1287C74.325 22.8123 74.845 22.3115 75.251 21.6179L75.2526 21.6152C75.67 20.9307 75.8849 20.0524 75.8849 18.9695C75.8849 17.9048 75.6703 17.0351 75.2526 16.3502L75.251 16.3475C74.8454 15.6545 74.3264 15.1634 73.6956 14.8646L73.6905 14.8622C73.0658 14.5414 72.409 14.3814 71.7179 14.3814C71.0085 14.3814 70.3336 14.5416 69.6909 14.863L69.6892 14.8638C69.0758 15.1622 68.5648 15.6533 68.1584 16.3475C67.7572 17.0329 67.5508 17.9037 67.5508 18.9695C67.5508 20.0535 67.7574 20.9328 68.1584 21.6179C68.5649 22.3124 69.0767 22.8131 69.6918 23.1292C70.3342 23.4502 71.0089 23.6103 71.7179 23.6103C72.409 23.6103 73.0658 23.4504 73.6906 23.1296ZM69.6127 23.2852C68.9636 22.9518 68.4285 22.4255 68.0075 21.7063C67.5865 20.987 67.3759 20.0748 67.3759 18.9695C67.3759 17.8819 67.5865 16.9784 68.0075 16.2591C68.4285 15.5398 68.9636 15.0223 69.6127 14.7065C70.2793 14.3732 70.9811 14.2066 71.7179 14.2066C72.4372 14.2066 73.1213 14.3732 73.7704 14.7065C74.4371 15.0223 74.9809 15.5398 75.402 16.2591C75.8405 16.9784 76.0598 17.8819 76.0598 18.9695C76.0598 20.0748 75.8405 20.987 75.402 21.7063C74.9809 22.4255 74.4371 22.9518 73.7704 23.2852C73.1213 23.6185 72.4372 23.7851 71.7179 23.7851C70.9811 23.7851 70.2793 23.6185 69.6127 23.2852ZM99.5738 13.7855L95.8371 24.7325C95.7318 25.0483 95.5388 25.3114 95.2581 25.5219C94.9774 25.7324 94.6617 25.8377 94.3108 25.8377C93.9599 25.8377 93.6442 25.7324 93.3635 25.5219C93.0828 25.3114 92.881 25.0395 92.7582 24.7062L89.9689 15.996L87.1795 24.7062C87.0567 25.0395 86.8549 25.3114 86.5743 25.5219C86.2936 25.7324 85.9778 25.8377 85.6269 25.8377C85.2761 25.8377 84.9603 25.7324 84.6796 25.5219C84.3989 25.3114 84.2059 25.0483 84.1007 24.7325L80.3639 13.7855C80.3113 13.6276 80.285 13.4785 80.285 13.3382C80.285 13.0048 80.399 12.7241 80.6271 12.4961C80.8552 12.268 81.1358 12.154 81.4692 12.154C81.7148 12.154 81.9341 12.2242 82.127 12.3645C82.3376 12.4873 82.4779 12.654 82.5481 12.8645L85.6269 22.9957L88.6794 13.1013C88.7672 12.8206 88.925 12.5926 89.1531 12.4171C89.3987 12.2417 89.6706 12.154 89.9689 12.154C90.2671 12.154 90.5302 12.2417 90.7583 12.4171C91.0039 12.5926 91.1706 12.8206 91.2583 13.1013L94.3108 22.9957L97.3896 12.8645C97.4598 12.654 97.5914 12.4873 97.7844 12.3645C97.9949 12.2242 98.223 12.154 98.4686 12.154C98.8019 12.154 99.0826 12.268 99.3106 12.4961C99.5387 12.7241 99.6527 13.0048 99.6527 13.3382C99.6527 13.4785 99.6264 13.6276 99.5738 13.7855ZM97.6889 12.2179C97.9268 12.0598 98.188 11.9791 98.4686 11.9791C98.8465 11.9791 99.1722 12.1104 99.4343 12.3724C99.6964 12.6345 99.8276 12.9602 99.8276 13.3382C99.8276 13.5004 99.7972 13.6683 99.7397 13.8408L99.7393 13.842L96.003 24.7878C96.0031 24.7875 96.0029 24.7881 96.003 24.7878C95.8858 25.1388 95.6703 25.4314 95.3631 25.6618C95.0521 25.8951 94.6995 26.0126 94.3108 26.0126C93.9221 26.0126 93.5695 25.8951 93.2585 25.6618C92.9505 25.4308 92.7284 25.1312 92.5941 24.7666C92.5933 24.7643 92.5924 24.7619 92.5917 24.7595L89.9689 16.5694L87.346 24.7595C87.3453 24.7619 87.3445 24.7643 87.3436 24.7666C87.2093 25.1312 86.9872 25.4308 86.6792 25.6618C86.3682 25.8951 86.0156 26.0126 85.6269 26.0126C85.2382 26.0126 84.8856 25.8951 84.5747 25.6618C84.2674 25.4314 84.0522 25.1397 83.935 24.7887C83.9351 24.789 83.9349 24.7884 83.935 24.7887L80.198 13.8408C80.1405 13.6683 80.1101 13.5004 80.1101 13.3382C80.1101 12.9602 80.2414 12.6345 80.5034 12.3724C80.7655 12.1104 81.0912 11.9791 81.4692 11.9791C81.7476 11.9791 82.0007 12.0586 82.2228 12.2179C82.4621 12.3596 82.6299 12.5569 82.714 12.8092L82.7155 12.8136L85.6282 22.3984L88.5123 13.0498C88.6105 12.7355 88.7892 12.4764 89.0465 12.2785L89.0515 12.2748C89.3263 12.0785 89.6337 11.9791 89.9689 11.9791C90.3031 11.9791 90.6032 12.078 90.8624 12.2766C91.1368 12.4733 91.3261 12.732 91.4252 13.0492L94.3096 22.3984L97.2237 12.8092C97.3068 12.5599 97.464 12.3615 97.6889 12.2179Z" fill="#2D2D2D"></path><path d="M105.082 25.8377C104.748 25.8377 104.467 25.7237 104.239 25.4956C104.011 25.2675 103.897 24.9868 103.897 24.6535V8.41727C103.897 8.08395 104.011 7.80326 104.239 7.57519C104.467 7.32959 104.748 7.20679 105.082 7.20679C105.415 7.20679 105.696 7.32959 105.924 7.57519C106.169 7.80326 106.292 8.08395 106.292 8.41727V24.6535C106.292 24.9868 106.169 25.2675 105.924 25.4956C105.696 25.7237 105.415 25.8377 105.082 25.8377Z" fill="#2D2D2D"></path><path d="M111.855 25.8377C111.521 25.8377 111.241 25.7237 111.013 25.4956C110.785 25.2675 110.671 24.9868 110.671 24.6535V13.3645C110.671 13.0311 110.785 12.7504 111.013 12.5224C111.241 12.2768 111.521 12.154 111.855 12.154C112.188 12.154 112.469 12.2768 112.697 12.5224C112.942 12.7504 113.065 13.0311 113.065 13.3645V14.4434C113.732 13.7065 114.451 13.1189 115.223 12.6803C115.995 12.2417 116.907 12.0224 117.96 12.0224C118.925 12.0224 119.758 12.2505 120.46 12.7066C121.179 13.1627 121.723 13.7855 122.091 14.5749C122.477 15.3644 122.67 16.2328 122.67 17.1801V24.6535C122.67 24.9868 122.547 25.2675 122.302 25.4956C122.074 25.7237 121.793 25.8377 121.46 25.8377C121.126 25.8377 120.846 25.7237 120.618 25.4956C120.389 25.2675 120.275 24.9868 120.275 24.6535V17.4433C120.275 15.303 119.311 14.2328 117.381 14.2328C116.504 14.2328 115.714 14.4609 115.012 14.917C114.328 15.3732 113.679 15.9872 113.065 16.7591V24.6535C113.065 24.9868 112.942 25.2675 112.697 25.4956C112.469 25.7237 112.188 25.8377 111.855 25.8377Z" fill="#2D2D2D"></path><path fill-rule="evenodd" clip-rule="evenodd" d="M105.081 26.0126C104.703 26.0126 104.378 25.8813 104.116 25.6193C103.854 25.3572 103.722 25.0315 103.722 24.6535V8.41729C103.722 8.04042 103.853 7.71552 104.113 7.45385C104.374 7.17439 104.7 7.03192 105.081 7.03192C105.461 7.03192 105.787 7.17359 106.047 7.45148C106.325 7.71169 106.467 8.03718 106.467 8.41729V24.6535C106.467 25.0347 106.324 25.361 106.045 25.6216C105.783 25.8821 105.458 26.0126 105.081 26.0126ZM105.923 25.4956C106.169 25.2675 106.292 24.9869 106.292 24.6535V8.41729C106.292 8.08397 106.169 7.80327 105.923 7.57521C105.695 7.32961 105.415 7.20681 105.081 7.20681C104.748 7.20681 104.467 7.32961 104.239 7.57521C104.011 7.80327 103.897 8.08397 103.897 8.41729V24.6535C103.897 24.9869 104.011 25.2675 104.239 25.4956C104.467 25.7237 104.748 25.8377 105.081 25.8377C105.415 25.8377 105.695 25.7237 105.923 25.4956ZM111.855 26.0126C111.477 26.0126 111.151 25.8813 110.889 25.6193C110.627 25.3572 110.495 25.0315 110.495 24.6535V13.3645C110.495 12.9876 110.626 12.6627 110.887 12.401C111.147 12.1216 111.473 11.9791 111.855 11.9791C112.235 11.9791 112.56 12.1208 112.82 12.3987C113.098 12.6589 113.24 12.9844 113.24 13.3645V14.0033C113.831 13.4028 114.463 12.9106 115.136 12.5282C115.939 12.0721 116.882 11.8475 117.96 11.8475C118.953 11.8475 119.82 12.0825 120.554 12.5594C121.301 13.0335 121.867 13.6816 122.249 14.4996C122.647 15.3144 122.845 16.2089 122.845 17.1801V24.6535C122.845 25.0347 122.702 25.361 122.423 25.6216C122.161 25.8821 121.836 26.0126 121.459 26.0126C121.081 26.0126 120.756 25.8813 120.494 25.6193C120.232 25.3572 120.1 25.0315 120.1 24.6535V17.4433C120.1 16.3959 119.864 15.643 119.422 15.1526C118.983 14.6656 118.314 14.4077 117.381 14.4077C116.536 14.4077 115.78 14.6267 115.109 15.0631C114.456 15.498 113.833 16.0827 113.24 16.8204V24.6535C113.24 25.0347 113.097 25.361 112.818 25.6216C112.556 25.8821 112.231 26.0126 111.855 26.0126ZM112.697 25.4956C112.942 25.2675 113.065 24.9869 113.065 24.6535V16.7591C113.679 15.9872 114.328 15.3732 115.012 14.917C115.714 14.4609 116.503 14.2329 117.381 14.2329C119.31 14.2329 120.275 15.303 120.275 17.4433V24.6535C120.275 24.9869 120.389 25.2675 120.617 25.4956C120.845 25.7237 121.126 25.8377 121.459 25.8377C121.793 25.8377 122.073 25.7237 122.302 25.4956C122.547 25.2675 122.67 24.9869 122.67 24.6535V17.1801C122.67 16.2328 122.477 15.3644 122.091 14.575C121.723 13.7855 121.179 13.1627 120.459 12.7066C119.758 12.2505 118.924 12.0224 117.96 12.0224C116.907 12.0224 115.995 12.2417 115.223 12.6803C114.518 13.0808 113.857 13.6056 113.24 14.2548C113.181 14.3165 113.123 14.3794 113.065 14.4434V13.3645C113.065 13.0312 112.942 12.7505 112.697 12.5224C112.469 12.2768 112.188 12.154 111.855 12.154C111.521 12.154 111.241 12.2768 111.012 12.5224C110.784 12.7505 110.67 13.0312 110.67 13.3645V24.6535C110.67 24.9869 110.784 25.2675 111.012 25.4956C111.241 25.7237 111.521 25.8377 111.855 25.8377C112.188 25.8377 112.469 25.7237 112.697 25.4956Z" fill="#2D2D2D"></path><path d="M130.803 25.8376C130.469 25.8376 130.189 25.7236 129.96 25.4955C129.732 25.2674 129.618 24.9868 129.618 24.6534V9.57503H124.25C123.934 9.57503 123.671 9.46977 123.461 9.25926C123.25 9.04874 123.145 8.78559 123.145 8.46981C123.145 8.15403 123.25 7.89088 123.461 7.68036C123.671 7.4523 123.934 7.33827 124.25 7.33827H137.355C137.671 7.33827 137.934 7.4523 138.144 7.68036C138.372 7.89088 138.486 8.15403 138.486 8.46981C138.486 8.78559 138.372 9.04874 138.144 9.25926C137.934 9.46977 137.671 9.57503 137.355 9.57503H132.013V24.6534C132.013 24.9868 131.89 25.2674 131.645 25.4955C131.417 25.7236 131.136 25.8376 130.803 25.8376Z" fill="#2D2D2D"></path><path d="M145.221 25.9692C143.081 25.9692 141.405 25.3639 140.195 24.1534C139.002 22.9254 138.405 21.2062 138.405 18.9957C138.405 17.7502 138.634 16.6011 139.09 15.5485C139.546 14.4959 140.247 13.6451 141.195 12.996C142.142 12.3469 143.309 12.0223 144.695 12.0223C145.993 12.0223 147.116 12.3293 148.063 12.9433C149.01 13.5398 149.73 14.3468 150.221 15.3643C150.712 16.3643 150.958 17.4607 150.958 18.6536C150.958 18.987 150.844 19.2677 150.616 19.4957C150.405 19.7238 150.116 19.8378 149.747 19.8378H140.826C140.967 21.0658 141.423 22.0219 142.195 22.7061C142.967 23.3903 144.046 23.7324 145.432 23.7324C146.168 23.7324 146.809 23.6622 147.352 23.5219C147.914 23.3815 148.458 23.1798 148.984 22.9167C149.124 22.8465 149.282 22.8114 149.458 22.8114C149.738 22.8114 149.984 22.9079 150.194 23.1009C150.405 23.2938 150.51 23.5394 150.51 23.8377C150.51 24.2236 150.282 24.5482 149.826 24.8113C149.142 25.1973 148.466 25.4867 147.8 25.6797C147.133 25.8727 146.274 25.9692 145.221 25.9692ZM148.589 17.8905C148.537 17.0309 148.309 16.3116 147.905 15.7327C147.519 15.1538 147.037 14.7327 146.458 14.4696C145.879 14.1889 145.291 14.0486 144.695 14.0486C144.098 14.0486 143.511 14.1889 142.932 14.4696C142.353 14.7327 141.87 15.1538 141.484 15.7327C141.098 16.3116 140.879 17.0309 140.826 17.8905H148.589Z" fill="#2D2D2D"></path><path d="M160.336 25.9692C159.073 25.9692 157.907 25.6885 156.837 25.1271C155.766 24.5657 154.907 23.7587 154.258 22.7061C153.626 21.6535 153.31 20.4167 153.31 18.9957C153.31 17.5747 153.626 16.3379 154.258 15.2853C154.907 14.2328 155.766 13.4258 156.837 12.8644C157.907 12.303 159.073 12.0223 160.336 12.0223C161.266 12.0223 162.064 12.1451 162.731 12.3907C163.415 12.6188 164.047 12.917 164.626 13.2854C164.977 13.5135 165.152 13.8205 165.152 14.2064C165.152 14.4696 165.047 14.7152 164.836 14.9433C164.643 15.1538 164.415 15.259 164.152 15.259C163.959 15.259 163.766 15.2064 163.573 15.1011C162.994 14.8029 162.494 14.5924 162.073 14.4696C161.67 14.3292 161.161 14.2591 160.547 14.2591C159.038 14.2591 157.854 14.6977 156.994 15.5748C156.135 16.4344 155.705 17.5747 155.705 18.9957C155.705 20.4167 156.135 21.5658 156.994 22.443C157.854 23.3026 159.038 23.7324 160.547 23.7324C161.161 23.7324 161.67 23.671 162.073 23.5482C162.494 23.4079 162.994 23.1886 163.573 22.8903C163.766 22.7851 163.959 22.7324 164.152 22.7324C164.415 22.7324 164.643 22.8465 164.836 23.0745C165.047 23.2851 165.152 23.5219 165.152 23.785C165.152 24.171 164.977 24.478 164.626 24.7061C164.047 25.0745 163.415 25.3815 162.731 25.6271C162.064 25.8551 161.266 25.9692 160.336 25.9692Z" fill="#2D2D2D"></path><path d="M169.341 25.8376C169.008 25.8376 168.727 25.7236 168.499 25.4955C168.271 25.2674 168.157 24.9868 168.157 24.6534V7.57511C168.157 7.24179 168.271 6.96109 168.499 6.73303C168.727 6.48743 169.008 6.36462 169.341 6.36462C169.675 6.36462 169.955 6.48743 170.183 6.73303C170.429 6.96109 170.552 7.24179 170.552 7.57511V14.4433C171.219 13.7065 171.938 13.1188 172.71 12.6802C173.482 12.2416 174.394 12.0223 175.446 12.0223C176.411 12.0223 177.245 12.2504 177.946 12.7065C178.666 13.1626 179.209 13.7854 179.578 14.5749C179.964 15.3643 180.157 16.2327 180.157 17.18V24.6534C180.157 24.9868 180.034 25.2674 179.788 25.4955C179.56 25.7236 179.28 25.8376 178.946 25.8376C178.613 25.8376 178.332 25.7236 178.104 25.4955C177.876 25.2674 177.762 24.9868 177.762 24.6534V17.4432C177.762 15.3029 176.797 14.2328 174.868 14.2328C173.99 14.2328 173.201 14.4608 172.499 14.9169C171.815 15.3731 171.166 15.9871 170.552 16.759V24.6534C170.552 24.9868 170.429 25.2674 170.183 25.4955C169.955 25.7236 169.675 25.8376 169.341 25.8376Z" fill="#2D2D2D"></path><path fill-rule="evenodd" clip-rule="evenodd" d="M140.069 24.2754C138.836 23.006 138.23 21.238 138.23 18.9958C138.23 17.7284 138.463 16.5554 138.929 15.479C139.398 14.3962 140.121 13.5195 141.096 12.8518C142.078 12.1789 143.281 11.8475 144.695 11.8475C146.021 11.8475 147.177 12.1614 148.157 12.796C149.132 13.41 149.873 14.2417 150.378 15.2879C150.882 16.3134 151.132 17.4363 151.132 18.6537C151.132 19.0305 151.002 19.3553 150.742 19.617C150.492 19.8859 150.153 20.0128 149.747 20.0128H141.025C141.186 21.1119 141.618 21.961 142.311 22.5753C143.041 23.2227 144.073 23.5576 145.431 23.5576C146.158 23.5576 146.783 23.4884 147.309 23.3526L147.31 23.3523C147.859 23.2151 148.391 23.0179 148.906 22.7603C149.073 22.6766 149.258 22.6366 149.458 22.6366C149.783 22.6366 150.07 22.7501 150.312 22.972C150.561 23.1997 150.685 23.493 150.685 23.8378C150.685 24.3082 150.401 24.6814 149.913 24.9629L149.912 24.9637C149.217 25.3555 148.53 25.6506 147.848 25.8478C147.16 26.047 146.282 26.1441 145.221 26.1441C143.046 26.1441 141.322 25.5282 140.071 24.2772L140.069 24.2754ZM140.849 20.0128C140.84 19.9551 140.833 19.8968 140.826 19.8379H149.747C150.115 19.8379 150.405 19.7239 150.615 19.4958C150.843 19.2677 150.957 18.9871 150.957 18.6537C150.957 17.4608 150.712 16.3643 150.221 15.3644C149.729 14.3469 149.01 13.5399 148.063 12.9434C147.115 12.3294 145.993 12.0224 144.695 12.0224C143.309 12.0224 142.142 12.3469 141.195 12.996C140.247 13.6451 139.546 14.496 139.089 15.5486C138.633 16.6012 138.405 17.7503 138.405 18.9958C138.405 21.2063 139.002 22.9255 140.195 24.1535C141.405 25.364 143.081 25.9693 145.221 25.9693C146.273 25.9693 147.133 25.8728 147.8 25.6798C148.466 25.4868 149.142 25.1974 149.826 24.8114C150.282 24.5483 150.51 24.2237 150.51 23.8378C150.51 23.5395 150.405 23.2939 150.194 23.1009C149.984 22.908 149.738 22.8115 149.458 22.8115C149.282 22.8115 149.124 22.8466 148.984 22.9167C148.458 23.1799 147.914 23.3816 147.352 23.522C146.808 23.6623 146.168 23.7325 145.431 23.7325C144.045 23.7325 142.967 23.3904 142.195 22.7062C141.46 22.0549 141.011 21.157 140.849 20.0128ZM147.759 15.8298C147.39 15.2754 146.932 14.8773 146.385 14.6289L146.381 14.6271C145.824 14.357 145.263 14.2235 144.695 14.2235C144.127 14.2235 143.565 14.357 143.008 14.627L143.004 14.6289C142.457 14.8773 141.999 15.2754 141.63 15.8298C141.292 16.3365 141.085 16.9629 141.015 17.7157H148.4C148.329 16.9643 148.114 16.339 147.761 15.8328L147.759 15.8298ZM148.576 17.7157C148.581 17.7733 148.586 17.8316 148.589 17.8906H140.826C140.83 17.8316 140.834 17.7733 140.839 17.7157C140.91 16.933 141.125 16.272 141.484 15.7328C141.87 15.1539 142.353 14.7328 142.931 14.4697C143.51 14.189 144.098 14.0486 144.695 14.0486C145.291 14.0486 145.879 14.189 146.458 14.4697C147.037 14.7328 147.519 15.1539 147.905 15.7328C148.281 16.272 148.504 16.933 148.576 17.7157ZM154.109 22.798L154.108 22.7962C153.457 21.7124 153.135 20.4434 153.135 18.9958C153.135 17.5482 153.457 16.2793 154.108 15.1955L154.109 15.1936C154.774 14.115 155.657 13.2859 156.755 12.7096C157.851 12.1345 159.046 11.8475 160.336 11.8475C161.279 11.8475 162.098 11.9718 162.789 12.2258C163.485 12.458 164.129 12.762 164.719 13.138L164.721 13.1389C165.116 13.396 165.327 13.7557 165.327 14.2065C165.327 14.5214 165.199 14.8078 164.965 15.062C164.742 15.3049 164.468 15.434 164.152 15.434C163.926 15.434 163.706 15.3724 163.491 15.2558C162.919 14.9609 162.43 14.756 162.024 14.6376L162.02 14.6363L162.016 14.6348C161.637 14.5031 161.149 14.434 160.547 14.434C159.074 14.434 157.939 14.8611 157.119 15.6973L157.118 15.6986C156.297 16.5198 155.88 17.6128 155.88 18.9958C155.88 20.3784 156.296 21.4807 157.118 22.3199C157.938 23.1389 159.073 23.5576 160.547 23.5576C161.149 23.5576 161.639 23.4973 162.02 23.3816C162.429 23.2452 162.919 23.0307 163.491 22.7359C163.706 22.6192 163.926 22.5576 164.152 22.5576C164.471 22.5576 164.744 22.6982 164.965 22.9561C165.2 23.1936 165.327 23.4716 165.327 23.7851C165.327 24.236 165.116 24.5957 164.721 24.8528L164.719 24.8537C164.129 25.2294 163.486 25.542 162.79 25.7918L162.787 25.7926C162.098 26.0286 161.279 26.1441 160.336 26.1441C159.046 26.1441 157.851 25.8572 156.755 25.282C155.657 24.7057 154.774 23.8767 154.109 22.798ZM164.836 23.0746C164.643 22.8466 164.415 22.7325 164.152 22.7325C163.959 22.7325 163.766 22.7852 163.573 22.8904C162.994 23.1887 162.494 23.4079 162.073 23.5483C161.67 23.6711 161.161 23.7325 160.547 23.7325C159.038 23.7325 157.854 23.3027 156.994 22.4431C156.135 21.5659 155.705 20.4168 155.705 18.9958C155.705 17.5748 156.135 16.4345 156.994 15.5749C157.854 14.6977 159.038 14.2592 160.547 14.2592C161.161 14.2592 161.67 14.3293 162.073 14.4697C162.494 14.5925 162.994 14.803 163.573 15.1012C163.766 15.2065 163.959 15.2591 164.152 15.2591C164.415 15.2591 164.643 15.1539 164.836 14.9433C165.047 14.7153 165.152 14.4697 165.152 14.2065C165.152 13.8206 164.976 13.5136 164.626 13.2855C164.047 12.9171 163.415 12.6189 162.731 12.3908C162.064 12.1452 161.266 12.0224 160.336 12.0224C159.073 12.0224 157.906 12.3031 156.836 12.8645C155.766 13.4258 154.907 14.2328 154.257 15.2854C153.626 16.338 153.31 17.5748 153.31 18.9958C153.31 20.4168 153.626 21.6536 154.257 22.7062C154.907 23.7588 155.766 24.5658 156.836 25.1272C157.906 25.6886 159.073 25.9693 160.336 25.9693C161.266 25.9693 162.064 25.8552 162.731 25.6272C163.415 25.3816 164.047 25.0746 164.626 24.7061C164.976 24.4781 165.152 24.1711 165.152 23.7851C165.152 23.522 165.047 23.2851 164.836 23.0746ZM130.802 26.0126C130.424 26.0126 130.099 25.8813 129.837 25.6193C129.575 25.3572 129.443 25.0315 129.443 24.6535V9.75H124.25C123.891 9.75 123.582 9.62846 123.337 9.383C123.091 9.13754 122.97 8.82893 122.97 8.46989C122.97 8.11206 123.091 7.80432 123.334 7.55926C123.578 7.29633 123.888 7.16347 124.25 7.16347H137.355C137.716 7.16347 138.024 7.29547 138.268 7.5567C138.529 7.80024 138.661 8.10863 138.661 8.46989C138.661 8.83233 138.528 9.14155 138.265 9.38546C138.02 9.62927 137.713 9.75 137.355 9.75H132.188V24.6535C132.188 25.0347 132.045 25.361 131.766 25.6215C131.504 25.8821 131.179 26.0126 130.802 26.0126ZM131.644 25.4956C131.89 25.2675 132.013 24.9868 132.013 24.6535V9.57511H137.355C137.671 9.57511 137.934 9.46985 138.144 9.25934C138.372 9.04882 138.486 8.78567 138.486 8.46989C138.486 8.15411 138.372 7.89096 138.144 7.68044C137.934 7.45238 137.671 7.33835 137.355 7.33835H124.25C123.934 7.33835 123.671 7.45238 123.461 7.68044C123.25 7.89096 123.145 8.15411 123.145 8.46989C123.145 8.78567 123.25 9.04882 123.461 9.25934C123.671 9.46985 123.934 9.57511 124.25 9.57511H129.618V24.6535C129.618 24.9868 129.732 25.2675 129.96 25.4956C130.188 25.7237 130.469 25.8377 130.802 25.8377C131.136 25.8377 131.416 25.7237 131.644 25.4956ZM169.341 26.0126C168.963 26.0126 168.638 25.8813 168.376 25.6193C168.113 25.3572 167.982 25.0315 167.982 24.6535V7.57519C167.982 7.1983 168.113 6.87338 168.373 6.61171C168.634 6.33228 168.96 6.18982 169.341 6.18982C169.721 6.18982 170.047 6.33148 170.307 6.60937C170.585 6.86958 170.727 7.19508 170.727 7.57519V14.0033C171.318 13.4027 171.95 12.9106 172.623 12.5282C173.426 12.0721 174.369 11.8475 175.446 11.8475C176.439 11.8475 177.307 12.0825 178.041 12.5594C178.788 13.0335 179.353 13.6815 179.735 14.4994C180.134 15.3143 180.332 16.2088 180.332 17.1801V24.6535C180.332 25.0347 180.189 25.361 179.91 25.6216C179.648 25.8821 179.323 26.0126 178.946 26.0126C178.568 26.0126 178.242 25.8813 177.98 25.6192C177.718 25.3572 177.587 25.0315 177.587 24.6535V17.4432C177.587 16.3959 177.351 15.643 176.908 15.1525C176.469 14.6656 175.8 14.4077 174.867 14.4077C174.023 14.4077 173.267 14.6267 172.595 15.0631C171.943 15.498 171.32 16.0827 170.727 16.8204V24.6535C170.727 25.0347 170.584 25.3609 170.305 25.6215C170.043 25.8821 169.718 26.0126 169.341 26.0126ZM170.183 25.4956C170.429 25.2675 170.552 24.9868 170.552 24.6535V16.7591C171.166 15.9872 171.815 15.3731 172.499 14.917C173.201 14.4609 173.99 14.2328 174.867 14.2328C176.797 14.2328 177.762 15.303 177.762 17.4432V24.6535C177.762 24.9868 177.876 25.2675 178.104 25.4956C178.332 25.7237 178.613 25.8377 178.946 25.8377C179.279 25.8377 179.56 25.7237 179.788 25.4956C180.034 25.2675 180.157 24.9868 180.157 24.6535V17.1801C180.157 16.2328 179.964 15.3644 179.578 14.5749C179.209 13.7855 178.665 13.1627 177.946 12.7066C177.244 12.2505 176.411 12.0224 175.446 12.0224C174.394 12.0224 173.481 12.2417 172.71 12.6803C172.005 13.0808 171.344 13.6056 170.727 14.2548C170.668 14.3165 170.61 14.3794 170.552 14.4434V7.57519C170.552 7.24186 170.429 6.96117 170.183 6.73311C169.955 6.48751 169.675 6.3647 169.341 6.3647C169.008 6.3647 168.727 6.48751 168.499 6.73311C168.271 6.96117 168.157 7.24186 168.157 7.57519V24.6535C168.157 24.9868 168.271 25.2675 168.499 25.4956C168.727 25.7237 169.008 25.8377 169.341 25.8377C169.675 25.8377 169.955 25.7237 170.183 25.4956Z" fill="#2D2D2D"></path></g><defs><clipPath id="clip0_830_84"><rect width="181" height="31" fill="white"></rect></clipPath></defs></svg>