<svg xmlns="http://www.w3.org/2000/svg" width="159" height="35" viewBox="0 0 159 35" fill="none"><mask id="mask0_830_66" style="mask-type:luminance" maskUnits="userSpaceOnUse" x="0" y="0" width="159" height="35"><path d="M158.032 0.924133H0.922119V34.0758H158.032V0.924133Z" fill="white"></path></mask><g mask="url(#mask0_830_66)"><path d="M52.8503 27.8985C50.824 27.8985 49.0485 27.4464 47.5238 26.5423C46.0185 25.6381 44.8317 24.39 43.9632 22.7979C43.1141 21.1862 42.6895 19.3288 42.6895 17.2256C42.6895 15.1225 43.1141 13.2749 43.9632 11.6828C44.8317 10.0711 46.0185 8.81313 47.5238 7.90898C49.0485 7.00483 50.824 6.55276 52.8503 6.55276C54.8574 6.55276 56.6233 7.00483 58.1479 7.90898C59.6725 8.81313 60.8594 10.0711 61.7085 11.6828C62.5577 13.2749 62.9823 15.1225 62.9823 17.2256C62.9823 19.3288 62.5577 21.1862 61.7085 22.7979C60.8594 24.39 59.6725 25.6381 58.1479 26.5423C56.6233 27.4464 54.8574 27.8985 52.8503 27.8985ZM52.8503 24.5079C54.7802 24.5079 56.3145 23.8593 57.4531 22.5621C58.6111 21.2648 59.19 19.486 59.19 17.2256C59.19 14.9653 58.6111 13.1864 57.4531 11.8892C56.3145 10.5919 54.7802 9.94331 52.8503 9.94331C50.9205 9.94331 49.3765 10.5919 48.2186 11.8892C47.0607 13.1864 46.4817 14.9653 46.4817 17.2256C46.4817 19.486 47.0607 21.2648 48.2186 22.5621C49.3765 23.8593 50.9205 24.5079 52.8503 24.5079Z" fill="#2D2D2D"></path><path d="M66.167 34.031V12.9211H69.4671L69.8724 15.0144C70.3356 14.3658 70.9435 13.7958 71.6962 13.3044C72.4681 12.813 73.462 12.5673 74.6778 12.5673C76.0288 12.5673 77.2349 12.9014 78.2964 13.5697C79.3578 14.238 80.1973 15.152 80.8149 16.3117C81.4325 17.4713 81.7412 18.7882 81.7412 20.2624C81.7412 21.7365 81.4325 23.0534 80.8149 24.2131C80.1973 25.3531 79.3578 26.2573 78.2964 26.9256C77.2349 27.5742 76.0288 27.8985 74.6778 27.8985C73.5971 27.8985 72.6515 27.6921 71.8409 27.2793C71.0304 26.8666 70.3742 26.2868 69.8724 25.5398V34.031H66.167ZM73.8962 24.5964C75.0735 24.5964 76.0481 24.1935 76.82 23.3876C77.592 22.5817 77.9779 21.54 77.9779 20.2624C77.9779 18.9848 77.592 17.9332 76.82 17.1077C76.0481 16.2822 75.0735 15.8694 73.8962 15.8694C72.6997 15.8694 71.7155 16.2822 70.9435 17.1077C70.1908 17.9136 69.8145 18.9553 69.8145 20.2329C69.8145 21.5105 70.1908 22.5621 70.9435 23.3876C71.7155 24.1935 72.6997 24.5964 73.8962 24.5964Z" fill="#2D2D2D"></path><path d="M90.8835 27.5447C89.3782 27.5447 88.172 27.1712 87.2649 26.4243C86.3579 25.6774 85.9044 24.3507 85.9044 22.4441V16.0758H83.4438V12.9211H85.9044L86.3386 8.99985H89.6098V12.9211H93.4888V16.0758H89.6098V22.4736C89.6098 23.1812 89.7545 23.6726 90.044 23.9478C90.3528 24.2033 90.8738 24.331 91.6072 24.331H93.402V27.5447H90.8835Z" fill="#2D2D2D"></path><path d="M98.6676 10.6509C97.9922 10.6509 97.4325 10.4445 96.9886 10.0318C96.5641 9.619 96.3518 9.09813 96.3518 8.46916C96.3518 7.84019 96.5641 7.32915 96.9886 6.93604C97.4325 6.52328 97.9922 6.31689 98.6676 6.31689C99.3431 6.31689 99.8931 6.52328 100.318 6.93604C100.762 7.32915 100.984 7.84019 100.984 8.46916C100.984 9.09813 100.762 9.619 100.318 10.0318C99.8931 10.4445 99.3431 10.6509 98.6676 10.6509ZM96.8149 27.5447V12.9211H100.52V27.5447H96.8149Z" fill="#2D2D2D"></path><path d="M104.388 27.5447V12.9211H107.659L107.978 14.8965C108.441 14.1889 109.049 13.6287 109.801 13.2159C110.573 12.7835 111.461 12.5673 112.465 12.5673C114.684 12.5673 116.257 13.442 117.183 15.1913C117.704 14.3854 118.399 13.7466 119.267 13.2749C120.155 12.8032 121.12 12.5673 122.162 12.5673C124.034 12.5673 125.472 13.1373 126.476 14.2773C127.479 15.4173 127.981 17.088 127.981 19.2894V27.5447H124.275V19.6432C124.275 18.3853 124.034 17.4222 123.552 16.7539C123.089 16.0856 122.365 15.7515 121.381 15.7515C120.377 15.7515 119.567 16.1249 118.949 16.8718C118.351 17.6187 118.052 18.6605 118.052 19.997V27.5447H114.346V19.6432C114.346 18.3853 114.105 17.4222 113.622 16.7539C113.14 16.0856 112.397 15.7515 111.393 15.7515C110.409 15.7515 109.608 16.1249 108.991 16.8718C108.393 17.6187 108.093 18.6605 108.093 19.997V27.5447H104.388Z" fill="#2D2D2D"></path><path d="M138.475 27.8985C137.028 27.8985 135.745 27.584 134.625 26.955C133.506 26.3261 132.628 25.4416 131.991 24.3016C131.354 23.1615 131.036 21.8446 131.036 20.3508C131.036 18.8374 131.344 17.491 131.962 16.3117C132.599 15.1323 133.467 14.2184 134.567 13.5697C135.687 12.9014 136.999 12.5673 138.504 12.5673C139.913 12.5673 141.158 12.8818 142.239 13.5108C143.319 14.1397 144.159 15.0046 144.757 16.1053C145.375 17.1863 145.683 18.3951 145.683 19.7317C145.683 19.9479 145.674 20.1739 145.655 20.4098C145.655 20.6457 145.645 20.8914 145.626 21.1469H134.712C134.789 22.2869 135.175 23.1812 135.87 23.8298C136.584 24.4785 137.443 24.8028 138.446 24.8028C139.199 24.8028 139.826 24.6357 140.328 24.3016C140.849 23.9478 141.235 23.4957 141.486 22.9453H145.249C144.979 23.8691 144.526 24.7143 143.889 25.4809C143.271 26.2278 142.499 26.8174 141.573 27.2499C140.666 27.6823 139.633 27.8985 138.475 27.8985ZM138.504 15.6335C137.597 15.6335 136.796 15.8989 136.102 16.4296C135.407 16.9406 134.963 17.7268 134.77 18.7882H141.92C141.862 17.8251 141.515 17.0586 140.878 16.4885C140.241 15.9185 139.45 15.6335 138.504 15.6335Z" fill="#2D2D2D"></path><path d="M148.8 27.5447V12.9211H152.1L152.447 15.663C152.968 14.7196 153.673 13.9727 154.561 13.4223C155.468 12.8523 156.529 12.5673 157.745 12.5673V16.5475H156.703C155.892 16.5475 155.169 16.6753 154.532 16.9308C153.895 17.1863 153.393 17.6286 153.026 18.2575C152.679 18.8865 152.505 19.7612 152.505 20.8815V27.5447H148.8Z" fill="#2D2D2D"></path><path d="M32.1207 8.84426L12.6989 28.881C12.5739 29.01 12.3554 28.9199 12.3577 28.7402L12.4832 18.9005C12.4841 18.8278 12.5247 18.7614 12.589 18.7274L31.8853 8.53041C32.0852 8.42477 32.2781 8.68191 32.1207 8.84426Z" fill="#2D2D2D" fill-opacity="0.8"></path><path d="M33.0555 7.24065L32.7989 7.60404L10.7435 19.3832L2.69103 14.1061C2.50315 13.9773 2.55428 13.6828 2.78229 13.6408L33.0555 7.24065Z" fill="#2D2D2D"></path><path fill-rule="evenodd" clip-rule="evenodd" d="M33.3864 7.0223C33.4762 7.1588 33.4733 7.33638 33.3791 7.46986L33.1224 7.83326C33.0867 7.88382 33.0397 7.92535 32.9851 7.95451L10.9297 19.7337C10.8016 19.8021 10.6463 19.7952 10.5248 19.7155L2.47238 14.4385C2.47005 14.4369 2.46773 14.4354 2.46543 14.4338C2.01475 14.1247 2.09947 13.3674 2.70343 13.2513L32.9724 6.85206C33.1323 6.81826 33.2965 6.88581 33.3864 7.0223ZM3.19192 13.9601L10.7633 18.9219L31.1019 8.05956L3.19192 13.9601Z" fill="#2D2D2D"></path><path fill-rule="evenodd" clip-rule="evenodd" d="M33.4301 7.37012C33.4945 7.18417 33.4131 6.97904 33.2387 6.8879C33.0643 6.79675 32.8494 6.84707 32.7336 7.00619L32.5307 7.28489L10.441 19.3103C10.2892 19.3929 10.2083 19.5641 10.2407 19.7338L11.9495 28.6698C11.9828 28.8437 12.127 28.9746 12.3033 28.9908C12.4795 29.007 12.6453 28.9046 12.7097 28.7398L15.3326 22.0263L33.0811 8.18169C33.1416 8.13457 33.187 8.07099 33.2121 7.99861L33.4301 7.37012Z" fill="url(#paint0_linear_830_66)"></path><path d="M33.0544 7.23998L26.4165 28.478C26.3651 28.6354 26.172 28.7054 26.0303 28.618L17.3979 23.2769L15.5642 22.0421L32.5075 7.95889C32.7183 7.78367 32.8906 7.5667 33.0134 7.32166L33.0544 7.23998Z" fill="#2D2D2D"></path><path fill-rule="evenodd" clip-rule="evenodd" d="M33.2037 6.87166C33.3956 6.94916 33.4959 7.16099 33.4341 7.35851L26.7962 28.5965L26.7947 28.6013C26.6626 29.006 26.1804 29.1769 25.8224 28.9562L17.1895 23.6147C17.1851 23.612 17.1808 23.6092 17.1766 23.6064L15.3429 22.3716C15.2391 22.3017 15.1743 22.1871 15.168 22.0621C15.1617 21.9372 15.2146 21.8166 15.3108 21.7366L32.2542 7.65341C32.4228 7.51323 32.5606 7.33966 32.6589 7.14363L32.6998 7.06195C32.7926 6.87696 33.0118 6.79416 33.2037 6.87166ZM32.163 8.76232L16.2264 22.0087L17.614 22.9431L26.0914 28.1884L32.163 8.76232Z" fill="#2D2D2D"></path></g><defs><linearGradient id="paint0_linear_830_66" x1="26.1671" y1="3.48134" x2="13.0678" y2="32.3943" gradientUnits="userSpaceOnUse"><stop offset="0.0001" stop-color="#2D2D2D"></stop><stop offset="1" stop-color="#CBCBCB"></stop></linearGradient></defs></svg>