<svg xmlns="http://www.w3.org/2000/svg" width="147" height="45" viewBox="0 0 147 45" fill="none"><path d="M39.7898 33.3711V12.7625H53.4162V15.7949H43.6064V21.4475H52.5217V24.3916H43.6064V30.3387H53.4162V33.3711H39.7898Z" fill="#2D2D2D"></path><path d="M55.7126 33.3711V18.7684H59.0819L59.4099 20.7409C59.887 20.0344 60.5131 19.475 61.2884 19.0628C62.0835 18.631 62.9979 18.4151 64.0315 18.4151C66.3175 18.4151 67.9375 19.2885 68.8917 21.0354C69.4284 20.2306 70.144 19.5928 71.0385 19.1217C71.9529 18.6506 72.9468 18.4151 74.0202 18.4151C75.9484 18.4151 77.4293 18.9843 78.4629 20.1227C79.4966 21.2611 80.0134 22.9294 80.0134 25.1276V33.3711H76.1968V25.4809C76.1968 24.2248 75.9483 23.2631 75.4514 22.5957C74.9743 21.9284 74.2289 21.5947 73.2151 21.5947C72.1815 21.5947 71.3466 21.9677 70.7105 22.7135C70.0943 23.4593 69.7862 24.4996 69.7862 25.8342V33.3711H65.9696V25.4809C65.9696 24.2248 65.7211 23.2631 65.2242 22.5957C64.7272 21.9284 63.9619 21.5947 62.9283 21.5947C61.9145 21.5947 61.0896 21.9677 60.4535 22.7135C59.8373 23.4593 59.5292 24.4996 59.5292 25.8342V33.3711H55.7126Z" fill="#2D2D2D"></path><path d="M89.2656 33.7244C87.7748 33.7244 86.4529 33.4104 85.3 32.7823C84.1471 32.1542 83.2426 31.271 82.5866 30.1326C81.9307 28.9942 81.6027 27.6792 81.6027 26.1875C81.6027 24.6762 81.9207 23.3318 82.5568 22.1541C83.2128 20.9765 84.1073 20.0638 85.2403 19.4161C86.3933 18.7488 87.745 18.4151 89.2955 18.4151C90.7465 18.4151 92.0287 18.7292 93.1418 19.3572C94.255 19.9853 95.1197 20.8489 95.7359 21.948C96.372 23.0275 96.6901 24.2346 96.6901 25.5693C96.6901 25.7852 96.6801 26.0109 96.6602 26.2464C96.6602 26.4819 96.6503 26.7273 96.6304 26.9824H85.3894C85.4689 28.1208 85.8665 29.0138 86.5821 29.6615C87.3176 30.3092 88.2022 30.6331 89.2358 30.6331C90.0111 30.6331 90.6571 30.4663 91.1739 30.1326C91.7106 29.7793 92.1082 29.3279 92.3666 28.7783H96.2428C95.9645 29.7008 95.4974 30.5448 94.8414 31.3102C94.2053 32.0561 93.4102 32.6449 92.456 33.0767C91.5218 33.5085 90.4583 33.7244 89.2656 33.7244ZM89.2955 21.477C88.3612 21.477 87.5363 21.7419 86.8206 22.2719C86.105 22.7822 85.6478 23.5673 85.4491 24.6271H92.8138C92.7542 23.6654 92.3964 22.9 91.7404 22.3308C91.0845 21.7616 90.2695 21.477 89.2955 21.477Z" fill="#2D2D2D"></path><path d="M98.3429 33.3711V18.7684H102.073L102.1 21.5064C102.637 20.5643 103.362 19.8185 104.276 19.2689C105.211 18.6997 106.304 18.4151 107.556 18.4151V22.3896H106.483C105.648 22.3896 104.903 22.5172 104.247 22.7724C103.591 23.0275 103.074 23.4691 102.696 24.0972C102.338 24.7253 102.159 25.5987 102.159 26.7175V33.3711H98.3429Z" fill="#2D2D2D"></path><path d="M114.038 33.7244C112.766 33.7244 111.722 33.5281 110.907 33.1356C110.092 32.7234 109.486 32.1836 109.088 31.5163C108.691 30.849 108.492 30.113 108.492 29.3083C108.492 27.954 109.029 26.8548 110.102 26.0109C111.175 25.1669 112.785 24.7449 114.932 24.7449H118.689V24.3916C118.689 23.3906 118.401 22.6546 117.825 22.1836C117.248 21.7125 116.532 21.477 115.678 21.477C114.902 21.477 114.227 21.6634 113.65 22.0364C113.074 22.3896 112.716 22.9196 112.577 23.6262H108.85C108.949 22.5663 109.307 21.6438 109.923 20.8587C110.559 20.0736 111.374 19.475 112.368 19.0628C113.362 18.631 114.475 18.4151 115.708 18.4151C117.815 18.4151 119.474 18.9352 120.687 19.9755C121.9 21.0157 122.506 22.4878 122.506 24.3916V33.3711H119.256L118.898 31.0158C118.461 31.8009 117.844 32.4486 117.049 32.9589C116.274 33.4692 115.27 33.7244 114.038 33.7244ZM114.902 30.7803C115.996 30.7803 116.841 30.427 117.437 29.7204C118.053 29.0138 118.441 28.1404 118.6 27.1002H115.35C114.336 27.1002 113.61 27.2866 113.173 27.6596C112.736 28.0129 112.517 28.4545 112.517 28.9844C112.517 29.5536 112.736 29.9952 113.173 30.3092C113.61 30.6233 114.187 30.7803 114.902 30.7803Z" fill="#2D2D2D"></path><path d="M124.922 33.3711V15.9902C124.922 13.8824 126.631 12.1736 128.739 12.1736V33.3711H124.922Z" fill="#2D2D2D"></path><path d="M137.88 33.7244C136.488 33.7244 135.246 33.3907 134.152 32.7234C133.059 32.0561 132.194 31.1434 131.558 29.9854C130.922 28.8274 130.604 27.5124 130.604 26.0403C130.604 24.5683 130.922 23.2631 131.558 22.1247C132.194 20.9667 133.059 20.0638 134.152 19.4161C135.246 18.7488 136.488 18.4151 137.88 18.4151C138.993 18.4151 139.967 18.6212 140.802 19.0334C141.636 19.4455 142.312 20.0246 142.829 20.7704V15.9902C142.829 13.8824 144.538 12.1736 146.646 12.1736V33.3711H143.247L142.829 31.2808C142.352 31.9285 141.716 32.4977 140.921 32.9884C140.146 33.4791 139.132 33.7244 137.88 33.7244ZM138.685 30.427C139.917 30.427 140.921 30.0247 141.696 29.2199C142.491 28.3956 142.889 27.3455 142.889 26.0698C142.889 24.794 142.491 23.7537 141.696 22.949C140.921 22.1247 139.917 21.7125 138.685 21.7125C137.472 21.7125 136.468 22.1149 135.673 22.9196C134.878 23.7243 134.48 24.7645 134.48 26.0403C134.48 27.3161 134.878 28.3661 135.673 29.1905C136.468 30.0148 137.472 30.427 138.685 30.427Z" fill="#2D2D2D"></path><path d="M23.2277 3.19953L23.1698 2.95716L19.9585 2.3465L2.72021 27.2437L12.7612 42.1096L15.27 42.5867L30.0666 32.4439L23.2277 3.19953ZM27.3403 30.9229L22.7137 31.7398L22.4939 8.97267L27.3403 30.9229ZM9.62866 31.7709L12.7362 38.7115L6.41148 29.4624L9.62866 31.7709ZM11.9208 30.1244L20.5923 7.76273L20.4508 31.7465L11.9208 30.1244ZM19.3488 33.8506L14.6384 39.0732L12.1736 32.4861L19.3488 33.8506ZM26.2006 33.2255L16.6507 39.4559L22.151 34.1521L26.2006 33.2255ZM18.3794 8.19026L9.823 29.2628L5.84426 26.8095L18.3794 8.19026Z" fill="#2D2D2D"></path><path fill-rule="evenodd" clip-rule="evenodd" d="M19.9391 2.29909L23.2052 2.92016L23.2695 3.18957L30.1151 32.4627L15.2796 42.6322L12.7356 42.1485L2.66821 27.2434L19.9391 2.29909ZM19.978 2.39395L2.77231 27.244L12.7868 42.0707L15.2605 42.5411L30.018 32.4251L23.186 3.20953L23.1345 2.99419L19.978 2.39395ZM11.9795 30.0919L20.4082 31.6946L20.548 7.99593L11.9795 30.0919ZM20.5523 7.74721L20.6353 7.763L20.4935 31.7983L11.8621 30.157L20.5523 7.74721ZM22.4509 8.9731L22.5358 8.96342L27.3919 30.9574L22.6713 31.7909L22.4509 8.9731ZM22.5408 9.3846L22.7562 31.6886L27.2887 30.8884L22.5408 9.3846ZM5.90494 26.7964L9.80236 29.1996L18.1838 8.5577L5.90494 26.7964ZM18.3437 8.16628L18.4192 8.20644L9.84375 29.326L5.7837 26.8226L18.3437 8.16628ZM22.1723 34.1913L17.0066 39.1724L25.9754 33.3211L22.1723 34.1913ZM26.191 33.1836L26.2241 33.2615L16.6742 39.4919L16.6209 39.425L22.1298 34.1129L26.191 33.1836ZM6.37607 29.4867L6.43659 29.4275L9.66319 31.7427L12.7755 38.6939L12.7008 38.7358L6.37607 29.4867ZM6.58474 29.6396L12.5012 38.2916L9.59425 31.799L6.58474 29.6396ZM12.1066 32.4297L19.4319 33.8227L14.6229 39.1545L12.1066 32.4297ZM12.2406 32.5426L14.6538 38.9919L19.2658 33.8785L12.2406 32.5426Z" fill="#2D2D2D"></path></svg>