<svg xmlns="http://www.w3.org/2000/svg" width="155" height="41" viewBox="0 0 155 41" fill="none"><g clip-path="url(#clip0_830_45)"><path fill-rule="evenodd" clip-rule="evenodd" d="M22.2645 2.75757C22.6852 2.62326 23.1427 2.66759 23.5298 2.88021C24.3766 3.34536 25.0208 4.15279 25.5001 4.9607C25.9987 5.80115 26.4167 6.80852 26.7418 7.8787C27.3894 10.01 27.7253 12.5786 27.4882 14.9232C27.3987 15.8082 26.6087 16.4531 25.7237 16.3636C24.8386 16.2741 24.1937 15.4841 24.2833 14.5991C24.4711 12.7416 24.2031 10.6038 23.6597 8.81518C23.5096 8.32146 23.343 7.86892 23.1671 7.46735C22.6412 8.81101 22.1002 10.2916 21.8589 11.0946C21.6029 11.9465 20.7048 12.4296 19.8529 12.1736C19.001 11.9176 18.5179 11.0195 18.7739 10.1676C19.2432 8.60551 20.6598 4.92334 21.3044 3.59064C21.4967 3.19306 21.8438 2.89188 22.2645 2.75757Z" fill="#2D2D2D"></path><path fill-rule="evenodd" clip-rule="evenodd" d="M17.1789 10.124C17.4993 9.10582 18.5845 8.54016 19.6027 8.86059C20.608 9.17695 21.5898 9.60078 22.5447 10.0925L22.5504 10.0955C27.0111 12.4115 30.2457 16.3206 31.1282 20.3534C31.1415 20.4039 31.1614 20.4468 31.1817 20.4782C31.2011 20.5081 31.2152 20.5193 31.2152 20.5193L31.2268 20.5275L34.5171 22.8916L34.5219 22.8951C35.6928 23.7419 35.9944 25.128 35.9375 26.1273C35.8808 27.1239 35.4225 28.484 34.1308 29.1805L34.1221 29.1852C32.4381 30.0821 30.4045 30.3601 27.3003 29.8099C27.2862 29.8074 27.2721 29.8048 27.2581 29.802C27.1854 29.7874 27.1089 29.7756 26.9769 29.7553L26.9668 29.7537C26.8637 29.7379 26.7137 29.7147 26.5547 29.6817C24.1691 29.3035 22.5814 29.3456 21.6001 29.6097C20.7249 29.8453 20.4992 30.1917 20.3941 30.5328C19.6612 32.9542 20.3315 34.3766 21.2413 36.3076C21.3864 36.6154 21.5375 36.9362 21.69 37.276C22.1271 38.2498 21.692 39.3936 20.7182 39.8307C19.7443 40.2678 18.6005 39.8327 18.1634 38.8589C18.0527 38.6121 17.9264 38.3509 17.7926 38.0742C16.8391 36.1022 15.504 33.3408 16.6956 29.4086L16.6973 29.4029C17.2707 27.5317 18.7163 26.3828 20.5955 25.877C22.3641 25.401 24.6043 25.4544 27.215 25.8726C27.2532 25.8788 27.2912 25.886 27.329 25.8944C27.371 25.9038 27.4304 25.914 27.5582 25.9337C27.5676 25.9351 27.5775 25.9367 27.5878 25.9382C27.6913 25.9541 27.8399 25.9769 27.9934 26.007C30.2702 26.4083 31.3741 26.1953 32.0655 25.89L28.9763 23.6704C28.1252 23.0659 27.5853 22.164 27.3647 21.2365C27.3616 21.2236 27.3587 21.2106 27.3559 21.1977C26.773 18.5008 24.4374 15.4317 20.772 13.5276C19.9697 13.1147 19.1943 12.7845 18.4423 12.5479C17.4241 12.2274 16.8585 11.1422 17.1789 10.124Z" fill="#2D2D2D"></path><path fill-rule="evenodd" clip-rule="evenodd" d="M12.6136 5.90818C12.5713 6.48149 12.5265 7.04089 12.4839 7.56354C12.4686 7.75081 12.4538 7.93148 12.4395 8.10514C12.3369 9.35555 12.2642 10.2419 12.2642 10.6035C12.2642 11.3277 11.8922 12.1596 11.046 12.5833C10.0994 13.0572 8.79244 13.7868 7.62571 14.6502C7.60976 14.662 7.59387 14.6738 7.57806 14.6855C7.90606 14.7743 8.16389 14.8675 8.33227 14.9339C9.18507 15.2545 9.57199 16.0221 9.62845 16.6439C9.68032 17.2152 9.49028 17.8277 9.03664 18.2819C8.97626 18.3424 8.91194 18.3988 8.8441 18.4507C8.50518 18.7102 7.31604 19.6777 6.25944 21.1935C5.7143 21.9755 5.22291 22.8757 4.89256 23.8806C6.44929 23.6201 8.05839 25.1318 7.32649 26.8954C6.71841 28.486 5.11034 33.2602 5.47731 38.1749C5.5568 39.2394 4.7583 40.1667 3.69382 40.2462C2.62934 40.3257 1.70197 39.5272 1.62249 38.4627C1.3653 35.0182 1.92118 31.7001 2.55385 29.2113C2.30885 29.1839 2.06832 29.1157 1.84297 29.0074C1.17847 28.688 0.641371 28.0027 0.613584 27.1233C0.44245 23.7225 1.72145 20.9437 3.08832 18.9829C3.179 18.8528 3.27037 18.7259 3.36209 18.6021C2.91071 18.5165 2.50643 18.2921 2.20744 17.9927C1.62111 17.4056 1.36194 16.4625 1.75198 15.5678C2.46706 13.9092 3.98096 12.5384 5.32631 11.5429C6.38375 10.7604 7.50377 10.0904 8.44615 9.57987C8.4812 9.06788 8.53188 8.45379 8.58501 7.80984C8.60028 7.62482 8.61575 7.43734 8.63111 7.24911C8.75032 5.78854 8.87813 4.13136 8.92687 2.70147C8.94009 2.22266 9.12508 1.74478 9.48227 1.37336C9.80638 1.03635 10.165 0.898025 10.3593 0.839637C10.5641 0.778126 10.7372 0.761018 10.827 0.754595C10.9164 0.748198 10.9935 0.748442 11.0078 0.748487L11.0096 0.748492C11.2226 0.748492 11.4341 0.783693 11.6356 0.852672C13.5498 1.50796 15.1811 2.87956 16.5861 4.40026C18.0035 5.93443 19.3386 7.78751 20.6049 9.59525C21.2173 10.4695 21.005 11.6748 20.1307 12.2872C19.2564 12.8996 18.0512 12.6873 17.4388 11.813C16.1683 9.99912 14.9666 8.34377 13.7468 7.02343C13.3569 6.60143 12.9796 6.22996 12.6136 5.90818ZM6.91379 18.5297C6.95211 18.5453 6.99152 18.5599 7.03201 18.5735C6.99607 18.5615 6.96048 18.5484 6.92531 18.5343C6.92154 18.5328 6.9177 18.5313 6.91379 18.5297Z" fill="#2D2D2D"></path><path d="M55.7185 14.9544C55.0403 15.6586 53.9101 15.6838 53.1817 15.055C52.7798 14.6778 52.2272 14.4263 51.6495 14.4263C50.4188 14.4263 49.4142 15.4574 49.4142 16.7401V20.412H52.2272C53.2068 20.412 54.0356 21.2168 54.0356 22.1976C54.0356 23.2036 53.2068 24.0084 52.2272 24.0084H49.4142V31.5283C49.4142 32.5091 48.5853 33.3391 47.5806 33.3391C46.6011 33.3391 45.7722 32.5091 45.7722 31.5283V31.478C45.7722 29.1139 45.7722 26.7498 45.7722 24.4108V16.7149C45.7722 13.4706 48.4346 10.8298 51.6495 10.8298C53.1314 10.8298 54.538 11.3831 55.6431 12.3891C56.3464 13.0933 56.3715 14.2251 55.7185 14.9544Z" fill="#2D2D2D"></path><path d="M62.3235 33.3641C58.2546 33.3641 54.9141 30.0443 54.9141 25.9449C54.9141 21.8706 58.2546 18.5256 62.3235 18.5256C66.3924 18.5256 69.733 21.8706 69.7581 25.97C69.733 30.0695 66.3924 33.3641 62.3235 33.3641ZM62.3235 22.1724C60.2388 22.1724 58.5309 23.8574 58.5309 25.97C58.5309 28.0575 60.2137 29.7677 62.3235 29.7677C64.4082 29.7677 66.1162 28.0826 66.1162 25.97C66.091 23.8574 64.4082 22.1724 62.3235 22.1724Z" fill="#2D2D2D"></path><path d="M78.6247 33.3391C76.6656 33.3391 74.8823 32.6098 73.4757 31.2768C72.0692 29.8936 71.2655 28.0576 71.1901 26.0708C71.165 24.1091 71.8683 22.2228 73.2748 20.8144C74.6311 19.406 76.4646 18.6012 78.4489 18.5258C80.4331 18.5006 82.2917 19.23 83.6983 20.6132C84.4015 21.2671 84.4267 22.424 83.7485 23.1031C83.0703 23.8073 81.9401 23.8324 81.2368 23.1534C80.5084 22.4492 79.5289 22.0468 78.4991 22.0468C77.4693 22.0468 76.5149 22.4995 75.7865 23.2288C75.1083 23.9582 74.6813 24.939 74.7316 25.9702C74.7316 26.9762 75.1837 27.9822 75.9121 28.6612C76.6404 29.3906 77.62 29.793 78.6247 29.7678C79.6042 29.7678 80.5084 29.3906 81.2117 28.7367C81.8899 28.0576 83.0452 28.1079 83.6983 28.8373C84.3764 29.5415 84.3262 30.6732 83.5978 31.3523C82.2666 32.5846 80.5335 33.314 78.7 33.3391H78.6247Z" fill="#2D2D2D"></path><path d="M93.0664 33.5151C89.2235 33.5151 86.0588 30.1702 86.0588 26.0959V20.4371C86.0588 19.4563 86.7872 18.6515 87.7165 18.6515C88.671 18.6515 89.5752 19.4563 89.5752 20.4371V26.0959C89.5752 28.2336 91.3585 29.9438 93.0664 29.9438C95.0758 29.9438 96.5828 28.2336 96.5828 26.0959V20.6886C96.5828 19.6826 97.6125 18.903 98.4163 18.903C99.3205 18.903 100.099 19.6826 100.099 20.6886V26.0959C100.099 30.1702 96.9595 33.5151 93.0664 33.5151Z" fill="#2D2D2D"></path><path d="M107.484 33.49C105.6 33.49 103.691 32.7103 102.737 31.8049C102.033 31.151 101.958 30.0193 102.636 29.3151C103.289 28.5857 104.419 28.5354 105.123 29.1893C105.65 29.6923 107.634 30.3714 108.765 29.642C109.066 29.466 109.242 29.139 109.242 28.8121C109.242 28.4097 108.89 28.1079 108.589 27.9821C108.313 27.8312 107.86 27.8312 107.308 27.8312C106.605 27.8312 105.801 27.8061 104.972 27.5043C103.44 27.0013 102.184 25.4168 102.084 23.8575C101.933 21.9964 102.737 20.8395 103.415 20.1856C104.897 18.8275 107.057 18.6263 108.614 18.8778C109.794 19.079 110.674 19.5066 111.427 20.1856C112.13 20.8395 112.206 21.9713 111.553 22.6755C111.176 23.0779 110.598 23.3042 110.046 23.2288C109.769 23.2036 109.518 23.103 109.267 22.9521C108.865 22.6503 108.564 22.4491 108.036 22.3485C107.157 22.1976 105.499 22.2479 105.625 23.5306C105.65 23.6815 105.926 24.0587 106.153 24.1593C106.454 24.2599 106.881 24.2599 107.358 24.2599C108.137 24.2851 109.091 24.2851 110.071 24.7378C111.703 25.4671 112.758 27.0767 112.758 28.7869C112.758 30.2959 111.98 31.7043 110.724 32.5846C109.719 33.2636 108.614 33.49 107.484 33.49Z" fill="#2D2D2D"></path><path d="M124.763 14.9544C124.085 15.6586 122.955 15.6837 122.227 15.055C121.825 14.6777 121.272 14.4262 120.694 14.4262C119.464 14.4262 118.459 15.4574 118.459 16.74V20.4119H121.272C122.252 20.4119 123.081 21.2167 123.081 22.1976C123.081 23.2036 122.252 24.0084 121.272 24.0084H118.459V31.5282C118.459 32.5091 117.63 33.339 116.626 33.339C115.646 33.339 114.817 32.5091 114.817 31.5282V31.4779C114.817 29.1138 114.817 26.7497 114.817 24.4108V16.7149C114.817 13.4705 117.48 10.8298 120.694 10.8298C122.176 10.8298 123.583 11.3831 124.688 12.3891C125.391 13.0933 125.416 14.225 124.763 14.9544Z" fill="#2D2D2D"></path><path d="M131.345 33.3641C127.276 33.3641 123.936 30.0443 123.936 25.9449C123.936 21.8706 127.276 18.5256 131.345 18.5256C135.414 18.5256 138.754 21.8706 138.78 25.97C138.754 30.0695 135.414 33.3641 131.345 33.3641ZM131.345 22.1724C129.26 22.1724 127.552 23.8574 127.552 25.97C127.552 28.0575 129.235 29.7677 131.345 29.7677C133.455 29.7677 135.138 28.0826 135.138 25.97C135.138 23.8574 133.455 22.1724 131.345 22.1724Z" fill="#2D2D2D"></path><path d="M153.498 30.4216C154.151 31.1006 154.126 32.2072 153.448 32.8863C153.121 33.2132 152.669 33.3641 152.242 33.3641C151.79 33.3641 151.363 33.1881 151.012 32.836L146.867 28.5353L142.798 32.7605C142.472 33.1126 142.02 33.2887 141.568 33.2887C141.166 33.2887 140.714 33.1378 140.362 32.8108C139.684 32.1318 139.659 31.0252 140.337 30.3461L144.506 26.0203L140.312 21.6694C139.659 20.9652 139.659 19.8586 140.362 19.2047C141.04 18.5256 142.145 18.5508 142.823 19.2298L146.892 23.4802L151.062 19.1544C151.715 18.4753 152.795 18.4502 153.523 19.1292C154.201 19.7831 154.227 20.8646 153.548 21.5939L149.329 25.9952L153.498 30.4216Z" fill="#2D2D2D"></path></g><defs><clipPath id="clip0_830_45"><rect width="155" height="41" fill="white"></rect></clipPath></defs></svg>