<svg xmlns="http://www.w3.org/2000/svg" width="141" height="41" viewBox="0 0 141 41" fill="none"><path d="M65.4634 27.0186C65.6794 27.0186 65.866 27.1021 66.0231 27.269L67.5844 28.9629C66.7203 30.0332 65.6548 30.8532 64.3881 31.4227C63.1312 31.9922 61.619 32.277 59.8514 32.277C58.2705 32.277 56.8466 32.007 55.5799 31.4669C54.3229 30.9268 53.2477 30.1756 52.3541 29.2133C51.4605 28.251 50.7731 27.1021 50.292 25.7666C49.8206 24.4311 49.585 22.9729 49.585 21.3919C49.585 19.7913 49.8501 18.3282 50.3804 17.0025C50.9106 15.6671 51.6569 14.5182 52.6192 13.5558C53.5816 12.5935 54.7305 11.8472 56.0659 11.3169C57.4112 10.7769 58.894 10.5068 60.5142 10.5068C62.0952 10.5068 63.4749 10.7621 64.6532 11.2728C65.8414 11.7736 66.8577 12.4413 67.7022 13.276L66.3766 15.1172C66.298 15.235 66.1949 15.3381 66.0673 15.4265C65.9494 15.5149 65.7825 15.559 65.5665 15.559C65.3406 15.559 65.1098 15.4707 64.8742 15.2939C64.6385 15.1172 64.339 14.9257 63.9757 14.7195C63.6123 14.5132 63.1508 14.3218 62.5911 14.145C62.0412 13.9683 61.3391 13.8799 60.4848 13.8799C59.4832 13.8799 58.5601 14.0566 57.7156 14.4101C56.881 14.7538 56.1592 15.2497 55.5504 15.8978C54.9514 16.5459 54.4801 17.3364 54.1364 18.2693C53.8025 19.1923 53.6356 20.2332 53.6356 21.3919C53.6356 22.5899 53.8025 23.6554 54.1364 24.5882C54.4801 25.5211 54.9416 26.3067 55.5209 26.9449C56.1003 27.5832 56.7828 28.0742 57.5683 28.4179C58.3539 28.7518 59.1984 28.9187 60.1018 28.9187C60.6419 28.9187 61.128 28.8892 61.56 28.8303C62.0019 28.7714 62.4045 28.6781 62.7679 28.5505C63.141 28.4228 63.4896 28.2608 63.8137 28.0644C64.1475 27.8582 64.4765 27.6078 64.8005 27.3132C64.8987 27.2248 65.0018 27.1561 65.1098 27.107C65.2179 27.048 65.3357 27.0186 65.4634 27.0186Z" fill="#2D2D2D"></path><path d="M81.6333 32.0413H79.9984C79.6547 32.0413 79.3846 31.9922 79.1882 31.894C78.9919 31.786 78.8446 31.5749 78.7464 31.2607L78.4223 30.1854C78.0393 30.5291 77.6613 30.8335 77.2881 31.0987C76.9248 31.354 76.5468 31.57 76.154 31.7468C75.7612 31.9235 75.3438 32.0561 74.902 32.1445C74.4601 32.2328 73.9691 32.277 73.429 32.277C72.7907 32.277 72.2016 32.1936 71.6615 32.0266C71.1214 31.8499 70.655 31.5896 70.2622 31.246C69.8792 30.9023 69.5797 30.4751 69.3637 29.9645C69.1476 29.4539 69.0396 28.8598 69.0396 28.1822C69.0396 27.6127 69.1869 27.053 69.4815 26.5031C69.7859 25.9433 70.2867 25.4425 70.9839 25.0006C71.6811 24.5489 72.6091 24.1758 73.7678 23.8812C74.9265 23.5866 76.3651 23.4197 78.0835 23.3804V22.4966C78.0835 21.4852 77.8675 20.7389 77.4354 20.2578C77.0132 19.7668 76.3946 19.5213 75.5795 19.5213C74.9903 19.5213 74.4994 19.59 74.1066 19.7275C73.7138 19.865 73.3701 20.0221 73.0755 20.1988C72.7907 20.3658 72.5256 20.518 72.2801 20.6554C72.0346 20.7929 71.7646 20.8617 71.47 20.8617C71.2245 20.8617 71.0134 20.7978 70.8366 20.6702C70.6599 20.5425 70.5175 20.3854 70.4095 20.1988L69.7466 19.0352C71.4847 17.4444 73.5812 16.649 76.0361 16.649C76.9199 16.649 77.7055 16.7963 78.3929 17.0909C79.0901 17.3757 79.6792 17.7783 80.1604 18.2987C80.6416 18.8094 81.0049 19.4231 81.2504 20.1399C81.5057 20.8568 81.6333 21.6423 81.6333 22.4966V32.0413ZM74.5632 29.773C74.9363 29.773 75.28 29.7386 75.5943 29.6699C75.9085 29.6012 76.2031 29.4981 76.478 29.3606C76.7628 29.2231 77.0328 29.0562 77.2881 28.8598C77.5533 28.6536 77.8184 28.413 78.0835 28.138V25.5898C77.023 25.6389 76.1343 25.7322 75.4175 25.8697C74.7105 25.9973 74.1409 26.1643 73.7089 26.3705C73.2768 26.5767 72.9675 26.8173 72.7809 27.0922C72.6042 27.3672 72.5158 27.6667 72.5158 27.9907C72.5158 28.629 72.7024 29.0856 73.0755 29.3606C73.4585 29.6355 73.9544 29.773 74.5632 29.773Z" fill="#2D2D2D"></path><path d="M84.6216 32.0413V16.9289H86.7574C87.1305 16.9289 87.3907 16.9976 87.538 17.1351C87.6853 17.2726 87.7835 17.5082 87.8326 17.8421L88.0536 19.6686C88.5936 18.7357 89.227 17.9992 89.9537 17.4591C90.6803 16.9191 91.4954 16.649 92.3988 16.649C93.1451 16.649 93.7637 16.8209 94.2547 17.1646L93.7833 19.8895C93.7539 20.0663 93.69 20.1939 93.5918 20.2725C93.4937 20.3412 93.3611 20.3756 93.1942 20.3756C93.0469 20.3756 92.8456 20.3412 92.5902 20.2725C92.3349 20.2037 91.9962 20.1694 91.5739 20.1694C90.8178 20.1694 90.1697 20.3805 89.6296 20.8027C89.0895 21.2152 88.6329 21.824 88.2598 22.6292V32.0413H84.6216Z" fill="#2D2D2D"></path><path d="M106.692 32.0413C106.221 32.0413 105.912 31.8204 105.764 31.3785L105.47 29.9203C105.156 30.2738 104.827 30.5929 104.483 30.8777C104.139 31.1625 103.766 31.408 103.363 31.6142C102.971 31.8204 102.544 31.9775 102.082 32.0855C101.63 32.2034 101.139 32.2623 100.609 32.2623C99.7843 32.2623 99.0282 32.0904 98.3408 31.7468C97.6535 31.4031 97.0594 30.9072 96.5586 30.2591C96.0676 29.6012 95.6846 28.791 95.4097 27.8287C95.1445 26.8664 95.012 25.7666 95.012 24.5293C95.012 23.4099 95.1642 22.369 95.4686 21.4067C95.773 20.4443 96.21 19.6097 96.7795 18.9026C97.349 18.1956 98.0315 17.6457 98.8269 17.2529C99.6223 16.8503 100.516 16.649 101.508 16.649C102.352 16.649 103.074 16.7865 103.673 17.0615C104.272 17.3266 104.807 17.685 105.278 18.1367V10.1533H108.917V32.0413H106.692ZM101.846 29.3753C102.602 29.3753 103.246 29.2182 103.776 28.904C104.306 28.5897 104.807 28.1429 105.278 27.5636V20.788C104.866 20.2872 104.414 19.9337 103.923 19.7275C103.442 19.5213 102.922 19.4182 102.362 19.4182C101.812 19.4182 101.311 19.5213 100.859 19.7275C100.418 19.9337 100.04 20.2479 99.7254 20.6702C99.421 21.0826 99.1853 21.6129 99.0184 22.261C98.8515 22.8992 98.768 23.6554 98.768 24.5293C98.768 25.4131 98.8367 26.1643 98.9742 26.7829C99.1215 27.3917 99.3277 27.8925 99.5928 28.2853C99.858 28.6683 100.182 28.9482 100.565 29.1249C100.948 29.2918 101.375 29.3753 101.846 29.3753Z" fill="#2D2D2D"></path><path d="M118.515 16.6932C119.467 16.6932 120.341 16.8454 121.136 17.1498C121.942 17.4542 122.634 17.901 123.213 18.4902C123.793 19.0696 124.244 19.7864 124.568 20.6407C124.892 21.4852 125.055 22.4524 125.055 23.5424C125.055 23.8174 125.04 24.0481 125.01 24.2347C124.991 24.4115 124.946 24.5539 124.878 24.6619C124.819 24.7601 124.735 24.8337 124.627 24.8828C124.519 24.9221 124.382 24.9417 124.215 24.9417H114.876C114.984 26.4932 115.402 27.6323 116.128 28.359C116.855 29.0856 117.817 29.449 119.015 29.449C119.605 29.449 120.11 29.3802 120.533 29.2427C120.965 29.1053 121.338 28.9531 121.652 28.7861C121.976 28.6192 122.256 28.467 122.492 28.3295C122.737 28.192 122.973 28.1233 123.199 28.1233C123.346 28.1233 123.474 28.1528 123.582 28.2117C123.69 28.2706 123.783 28.3541 123.861 28.4621L124.922 29.7877C124.519 30.2591 124.068 30.6568 123.567 30.9808C123.066 31.2951 122.541 31.5504 121.991 31.7468C121.451 31.9333 120.896 32.0659 120.326 32.1445C119.767 32.223 119.222 32.2623 118.691 32.2623C117.641 32.2623 116.664 32.0904 115.76 31.7468C114.857 31.3932 114.071 30.8777 113.403 30.2002C112.736 29.5128 112.21 28.6683 111.827 27.6667C111.444 26.6553 111.253 25.4867 111.253 24.1611C111.253 23.13 111.42 22.1628 111.754 21.2594C112.088 20.3461 112.564 19.5556 113.183 18.8879C113.811 18.2104 114.572 17.6752 115.466 17.2824C116.369 16.8896 117.385 16.6932 118.515 16.6932ZM118.588 19.3003C117.528 19.3003 116.698 19.5998 116.099 20.1988C115.5 20.7978 115.117 21.6472 114.95 22.747H121.785C121.785 22.2757 121.721 21.8338 121.593 21.4214C121.465 20.9991 121.269 20.6309 121.004 20.3167C120.739 20.0024 120.405 19.7569 120.002 19.5802C119.6 19.3936 119.128 19.3003 118.588 19.3003Z" fill="#2D2D2D"></path><path d="M138.051 32.0413C137.58 32.0413 137.271 31.8204 137.123 31.3785L136.829 29.9203C136.514 30.2738 136.185 30.5929 135.842 30.8777C135.498 31.1625 135.125 31.408 134.722 31.6142C134.33 31.8204 133.902 31.9775 133.441 32.0855C132.989 32.2034 132.498 32.2623 131.968 32.2623C131.143 32.2623 130.387 32.0904 129.7 31.7468C129.012 31.4031 128.418 30.9072 127.917 30.2591C127.426 29.6012 127.043 28.791 126.768 27.8287C126.503 26.8664 126.371 25.7666 126.371 24.5293C126.371 23.4099 126.523 22.369 126.827 21.4067C127.132 20.4443 127.569 19.6097 128.138 18.9026C128.708 18.1956 129.39 17.6457 130.186 17.2529C130.981 16.8503 131.875 16.649 132.866 16.649C133.711 16.649 134.433 16.7865 135.032 17.0615C135.631 17.3266 136.166 17.685 136.637 18.1367V10.1533H140.275V32.0413H138.051ZM133.205 29.3753C133.961 29.3753 134.605 29.2182 135.135 28.904C135.665 28.5897 136.166 28.1429 136.637 27.5636V20.788C136.225 20.2872 135.773 19.9337 135.282 19.7275C134.801 19.5213 134.28 19.4182 133.721 19.4182C133.171 19.4182 132.67 19.5213 132.218 19.7275C131.776 19.9337 131.398 20.2479 131.084 20.6702C130.78 21.0826 130.544 21.6129 130.377 22.261C130.21 22.8992 130.127 23.6554 130.127 24.5293C130.127 25.4131 130.195 26.1643 130.333 26.7829C130.48 27.3917 130.686 27.8925 130.952 28.2853C131.217 28.6683 131.541 28.9482 131.924 29.1249C132.307 29.2918 132.734 29.3753 133.205 29.3753Z" fill="#2D2D2D"></path><path fill-rule="evenodd" clip-rule="evenodd" d="M8.52726 8.29819C9.18384 6.05091 11.5379 4.7614 13.7852 5.41798L27.9473 9.55572C30.1946 10.2123 31.4841 12.5664 30.8275 14.8136L24.4861 36.5181C23.8295 38.7654 21.4755 40.0549 19.2282 39.3983L5.06608 35.2605C2.81879 34.604 1.52928 32.2499 2.18587 30.0026L8.52726 8.29819ZM12.8707 8.54803C12.3521 8.39651 11.8089 8.69409 11.6574 9.2127L5.31592 30.9171C5.1644 31.4357 5.46198 31.979 5.98058 32.1305L20.1427 36.2682C20.6613 36.4197 21.2046 36.1222 21.3561 35.6036L27.6975 13.8991C27.849 13.3805 27.5514 12.8373 27.0328 12.6858L12.8707 8.54803Z" fill="#2D2D2D"></path><path fill-rule="evenodd" clip-rule="evenodd" d="M17.3742 4.48197C18.0307 2.23469 20.3848 0.945171 22.6321 1.60176L36.7942 5.7395C39.0414 6.39608 40.3309 8.75014 39.6744 10.9974L33.333 32.7018C32.6764 34.9491 30.3223 36.2386 28.0751 35.5821L13.913 31.4443C11.6657 30.7877 10.3762 28.4337 11.0328 26.1864L17.3742 4.48197ZM21.7176 4.73181C21.199 4.58029 20.6557 4.87787 20.5042 5.39647L14.1628 27.1009C14.0113 27.6195 14.3089 28.1627 14.8275 28.3143L28.9896 32.452C29.5082 32.6035 30.0514 32.3059 30.2029 31.7873L36.5443 10.0829C36.6958 9.5643 36.3983 9.02106 35.8796 8.86954L21.7176 4.73181Z" fill="#2D2D2D"></path></svg>