<svg xmlns="http://www.w3.org/2000/svg" width="302" height="350" viewBox="0 0 302 350" fill="none"><g clip-path="url(#clip0_257_6)"><mask id="mask0_257_6" style="mask-type:luminance" maskUnits="userSpaceOnUse" x="0" y="0" width="302" height="350"><path d="M302 0H0V350H302V0Z" fill="white"></path></mask><g mask="url(#mask0_257_6)"><g opacity="0.7"><path d="M188.265 34.9828C203.764 19.465 228.892 19.465 244.39 34.9828L279.095 69.7303C294.593 85.248 294.593 110.408 279.095 125.925L244.39 160.673C228.892 176.191 203.764 176.191 188.265 160.673L153.561 125.925C138.063 110.408 138.063 85.248 153.561 69.7303L188.265 34.9828Z" fill="#C3E1FE"></path></g><g opacity="0.7"><path d="M53.3993 204.046C68.898 188.528 94.0259 188.528 109.524 204.046L144.228 238.794C159.727 254.311 159.727 279.471 144.228 294.989L109.524 329.736C94.0259 345.254 68.898 345.254 53.3993 329.736L18.6952 294.989C3.19666 279.471 3.19666 254.311 18.6952 238.794L53.3993 204.046Z" fill="#BAF0E0"></path></g><mask id="mask1_257_6" style="mask-type:alpha" maskUnits="userSpaceOnUse" x="21" y="64" width="269" height="246"><path d="M212.43 64.8361H86.2297C81.0888 64.8361 76.2236 67.1621 72.9927 71.1653L25.6783 129.781C20.7075 135.938 20.6277 144.714 25.4858 150.961L143.914 303.263C150.777 312.089 164.129 312.013 170.891 303.109L285.574 152.113C290.719 145.339 290.084 135.803 284.086 129.773L224.49 69.8525C221.295 66.6411 216.956 64.8361 212.43 64.8361Z" fill="#F1FCFF"></path></mask><g mask="url(#mask1_257_6)"><path d="M294.626 45.3284H17.2676V312.351H294.626V45.3284Z" fill="#58B6D3"></path><path d="M143.051 125.725C197.934 125.725 242.426 81.021 242.426 25.8761C242.426 -29.2688 197.934 -73.9726 143.051 -73.9726C88.1683 -73.9726 43.6768 -29.2688 43.6768 25.8761C43.6768 81.021 88.1683 125.725 143.051 125.725Z" fill="#E4F9FF"></path><path d="M246.821 383.221C316.419 383.221 372.839 326.531 372.839 256.602C372.839 186.672 316.419 129.983 246.821 129.983C177.223 129.983 120.803 186.672 120.803 256.602C120.803 326.531 177.223 383.221 246.821 383.221Z" fill="#CBF2FE"></path><path d="M360.735 -0.186498C386.883 -47.5014 402.72 -91.8911 383.632 -126.94L321.803 -176.376C346.898 -144.855 352.207 -79.1901 276.503 -3.14409C169.055 104.79 51.9148 120.127 95.8057 312.346C120.119 418.824 -89.4229 521.188 -89.4229 521.188L-52.3061 577.839C-52.3061 577.839 201.117 467.012 159.966 290.265C118.816 113.517 297.461 114.308 360.735 -0.186498Z" fill="#AAE1F2"></path></g><mask id="mask2_257_6" style="mask-type:luminance" maskUnits="userSpaceOnUse" x="0" y="110" width="272" height="220"><path d="M271.055 110.164H0V329.344H271.055V110.164Z" fill="white"></path></mask><g mask="url(#mask2_257_6)"><path d="M168.315 328.146C168.39 328.145 168.464 328.123 168.526 328.085C168.589 328.048 168.638 327.995 168.669 327.933C178.945 309.495 172.237 288.319 174.803 268.634C174.811 268.544 174.786 268.454 174.733 268.377C174.68 268.301 174.601 268.242 174.508 268.208L171.206 267.09C171.136 267.067 171.061 267.059 170.987 267.066C170.913 267.074 170.842 267.096 170.779 267.132C170.716 267.168 170.663 267.216 170.625 267.274C170.586 267.331 170.563 267.396 170.556 267.463C170.672 270.657 170.395 273.853 169.73 276.992C169.039 279.83 167.505 282.444 165.292 284.553C163.079 286.664 160.27 288.189 157.169 288.968C151.206 290.711 143.323 291.452 137.944 287.957C132.806 284.615 128.133 273.119 128.802 267.677C128.817 267.602 128.809 267.525 128.778 267.455C128.747 267.385 128.695 267.323 128.627 267.278C128.559 267.234 128.479 267.207 128.395 267.203C128.311 267.197 128.228 267.214 128.154 267.25L125.263 268.315C125.178 268.343 125.104 268.393 125.051 268.46C124.999 268.527 124.97 268.606 124.968 268.688C124.497 294.677 124.242 304.233 125.965 310.686C127.748 317.337 131.895 323.212 136.052 328.89C136.109 328.964 136.192 329.02 136.287 329.049C136.383 329.078 136.485 329.079 136.581 329.051C138.649 328.42 149.675 325.112 154.097 327.135C158.519 329.157 166.782 328.304 168.315 328.146Z" fill="#034078"></path><path d="M51.4186 117.192C51.1623 128.421 55.7249 134.878 55.7249 164.034C58.5817 163.346 61.0379 163.472 62.035 163.023C61.1536 157.595 62.2911 156.281 60.7376 138.91C59.3978 123.919 57.7227 120.846 58.9135 116.233C56.4471 116.731 53.941 117.051 51.4186 117.192Z" fill="#38C98C"></path><path d="M257.019 203.532C254.794 202.773 252.366 202.644 250.058 203.16C248.926 203.565 247.905 204.189 247.069 204.988C246.232 205.787 245.6 206.743 245.216 207.786C244.956 208.341 244.879 208.951 244.995 209.544C245.112 210.138 245.416 210.687 245.873 211.127C246.328 211.567 246.916 211.878 247.564 212.022C248.212 212.166 248.893 212.137 249.523 211.939C251.409 211.514 252.882 210.268 254.83 210.075C255.695 209.978 256.573 210.084 257.378 210.382C258.185 210.681 258.892 211.162 259.431 211.779C262.157 214.91 260.963 220.296 257.543 222.585V222.638C266.445 220.63 269.647 211.292 258.9 205.019C258.825 204.965 258.765 204.897 258.723 204.819C258.681 204.741 258.659 204.656 258.659 204.569C258.659 204.483 258.681 204.397 258.723 204.32C258.765 204.242 258.825 204.173 258.9 204.119C258.48 203.853 258.024 203.637 257.543 203.477C257.38 203.547 257.196 203.567 257.019 203.532Z" fill="#38C98C"></path><path d="M217.856 142.849C213.081 150.638 209.189 158.841 206.237 167.335H206.355C218.682 162.278 223.817 150.781 225.759 139.229C225.241 139.488 218.2 142.849 217.856 142.849Z" fill="#CDF96F"></path><path d="M226.939 118.895C226.816 117.619 226.063 113.127 224.109 112.562C221.641 111.845 221.987 115.435 221.809 116.66C221.044 121.93 222.045 128.69 218.802 133.321C218.771 133.658 218.771 133.995 218.802 134.332C221.514 132.735 224.168 131.085 226.763 129.382C227.079 125.893 227.138 122.39 226.939 118.895Z" fill="#CDF96F"></path><path d="M54.3085 204.01L44.9297 181.39C44.7976 181.085 44.596 180.809 44.3382 180.579C44.0803 180.35 43.7719 180.171 43.4329 180.056C43.0938 179.94 42.7317 179.89 42.3698 179.909C42.0081 179.928 41.6547 180.015 41.3325 180.165L7.53863 196.984C7.23961 197.134 6.97709 197.336 6.76678 197.579C6.55647 197.822 6.40261 198.102 6.31447 198.4C6.22633 198.698 6.20571 199.009 6.25384 199.315C6.30192 199.62 6.41779 199.914 6.59447 200.178L22.5779 223.971C22.7579 224.244 22.9997 224.479 23.2873 224.662C23.5749 224.845 23.902 224.97 24.2472 225.031C24.5923 225.091 24.9478 225.086 25.2903 225.014C25.6328 224.942 25.9547 224.806 26.2349 224.614L53.4825 206.672C53.9174 206.366 54.2324 205.943 54.381 205.464C54.5297 204.985 54.5042 204.475 54.3085 204.01ZM45.5791 189.425C44.7588 189.654 43.9272 189.851 43.1027 190.068C43.2792 194.438 42.5772 198.748 38.9729 202.044C33.2611 207.268 20.7452 208.096 24.2284 218.12C24.4691 218.811 23.3441 219.02 23.1077 218.386C20.402 212.474 24.7667 208.284 30.245 205.717C38.043 202.064 41.7797 199.17 41.5689 190.441C40.743 190.6 39.8601 190.799 38.9729 190.919C38.2609 191.015 37.3751 190.33 37.912 189.695C38.9412 188.122 40.0829 186.61 41.3297 185.17C41.3748 185.125 41.4298 185.089 41.4911 185.065C41.5524 185.04 41.6187 185.028 41.6857 185.028C41.7528 185.028 41.8191 185.04 41.8803 185.065C41.9416 185.089 41.9967 185.125 42.0418 185.17C42.3365 185.224 44.3316 186.94 45.5221 187.725C46.3395 188.262 46.4705 189.176 45.5791 189.425Z" fill="#CDF96F"></path><path d="M150.267 223.066C151.735 222.726 153.219 222.543 154.631 222.167C154.777 222.129 154.9 222.041 154.975 221.922C155.05 221.804 155.07 221.663 155.031 221.531C154.993 221.399 154.898 221.286 154.769 221.215C154.639 221.145 154.484 221.124 154.337 221.155C152.859 221.382 151.4 221.702 149.972 222.113C149.847 222.159 149.746 222.246 149.687 222.356C149.627 222.465 149.615 222.59 149.651 222.707C149.688 222.825 149.77 222.926 149.884 222.992C149.997 223.058 150.133 223.085 150.267 223.066Z" fill="#191919"></path><path d="M136.998 223.441C135.466 223.228 133.983 222.776 132.456 222.43C132.329 222.408 132.199 222.43 132.089 222.491C131.978 222.552 131.897 222.648 131.86 222.76C131.824 222.871 131.834 222.991 131.89 223.096C131.946 223.201 132.042 223.285 132.162 223.329C133.671 223.825 135.232 224.182 136.821 224.393C137.471 224.447 137.647 223.493 136.998 223.441Z" fill="#191919"></path><path d="M145.55 233.234C140.717 234.469 141.547 229.349 141.775 226.953C142.058 224.422 142.55 221.913 143.248 219.448C143.264 219.4 143.269 219.348 143.262 219.298C143.256 219.247 143.239 219.199 143.211 219.154C143.184 219.11 143.148 219.071 143.103 219.039C143.059 219.007 143.008 218.984 142.954 218.97C142.901 218.956 142.844 218.951 142.788 218.957C142.732 218.963 142.678 218.979 142.628 219.004C142.579 219.028 142.536 219.061 142.501 219.101C142.466 219.141 142.439 219.186 142.424 219.235C141.053 222.816 136.572 237.147 145.903 234.352C146.059 234.304 146.188 234.203 146.264 234.071C146.341 233.939 146.358 233.786 146.313 233.642C146.268 233.499 146.164 233.377 146.021 233.301C145.879 233.225 145.711 233.201 145.55 233.234Z" fill="#191919"></path><path d="M148.027 241.326C149.83 241.79 152.943 239.932 153.512 237.174C153.551 237.061 153.539 236.939 153.478 236.834C153.417 236.729 153.313 236.65 153.187 236.614C153.062 236.579 152.927 236.59 152.81 236.645C152.695 236.7 152.607 236.795 152.568 236.908C152.145 237.837 151.427 238.633 150.504 239.197C149.686 239.738 148.679 239.84 147.85 240.315C147.746 240.371 147.663 240.455 147.611 240.555C147.56 240.654 147.542 240.766 147.561 240.874C147.58 240.983 147.634 241.084 147.718 241.164C147.801 241.245 147.908 241.301 148.027 241.326Z" fill="#191919"></path><path d="M180.528 243.136C180.632 243.049 180.708 242.94 180.749 242.818C180.791 242.696 180.796 242.567 180.763 242.443C180.345 240.465 179.938 238.451 179.348 236.482C179.362 236.508 180.594 237.896 181.236 238.505C181.293 238.559 181.353 238.61 181.413 238.61C181.461 238.751 181.554 238.876 181.68 238.97C181.806 239.065 181.959 239.124 182.122 239.141C182.284 239.158 182.449 239.132 182.595 239.066C182.742 239.001 182.864 238.898 182.947 238.771C184.452 236.946 186.727 233.679 186.425 231.425C186.262 230.198 185.546 229.93 184.539 229.24C180.014 226.294 176.251 222.499 173.509 218.114C170.974 213.802 172.154 208.64 169.263 204.382C165.902 199.431 157.408 197.57 154.168 203.157C149.805 198.632 143.259 195.175 136.476 197.301C130.696 199.113 127.688 204.221 125.034 209.065C123.436 211.491 121.995 213.997 120.719 216.574C116.813 222.931 112.273 228.954 107.155 234.567C105.973 235.843 102.265 238.186 102.435 240.049C102.558 241.38 104.788 243.194 105.561 244.255C106.965 246.183 108.334 248.034 109.691 249.95C109.702 250.05 109.74 250.147 109.802 250.231C109.864 250.315 109.948 250.384 110.047 250.431C110.146 250.478 110.256 250.503 110.368 250.503C110.479 250.502 110.589 250.477 110.688 250.43C112.934 249.222 114.979 247.735 116.763 246.011C115.983 248.036 114.931 249.967 113.63 251.76C113.572 251.814 113.572 251.919 113.513 251.973C113.444 252.045 113.4 252.135 113.39 252.231C113.379 252.326 113.401 252.422 113.454 252.505C114.869 254.741 117.768 255.735 120.236 256.711C122.164 257.473 128.366 260.358 130.381 259.372C131.725 258.714 131.855 256.497 132.09 255.38C135.273 256.561 138.802 256.749 142.117 255.913C142.626 263.753 137.516 263.155 132.619 265.552C132.483 265.624 132.376 265.735 132.316 265.867C132.255 266 132.244 266.146 132.284 266.285C132.324 266.423 132.413 266.546 132.538 266.635C132.662 266.724 132.815 266.773 132.974 266.776C136.067 266.543 139.002 265.441 141.368 263.626C145.672 268.471 153.163 266.234 157.409 262.455C159.923 265.08 163.358 266.846 167.141 267.459C168.259 267.632 168.733 266.08 167.612 265.917C163.067 265.247 158.389 262.354 157.587 258.144C157.405 257.187 157.233 256.229 157.115 255.217C159.505 255.304 161.892 254.959 164.133 254.206C165.901 253.667 168.94 253.009 170.326 251.811C171.289 250.978 169.643 248.341 169.383 247.393C169.22 246.804 169.146 246.169 169.028 245.583C169.767 246.685 170.801 247.6 172.037 248.245C172.071 248.358 172.131 248.464 172.215 248.554C172.298 248.645 172.402 248.718 172.519 248.769C172.637 248.819 172.766 248.846 172.896 248.848C173.027 248.849 173.156 248.825 173.274 248.777C176.185 247.484 178.682 245.543 180.528 243.136ZM135.466 244.091C131.698 241.952 129.686 237.384 128.565 233.604C128.634 233.506 128.672 233.391 128.672 233.274C128.673 233.157 128.638 233.043 128.57 232.943C128.503 232.844 128.406 232.763 128.29 232.711C128.174 232.658 128.045 232.636 127.916 232.647C125.438 232.855 123.986 232.287 123.074 230.144C122.776 229.575 122.596 228.962 122.543 228.335C122.518 227.977 122.582 227.618 122.732 227.286C122.881 226.953 123.112 226.656 123.407 226.416C123.702 226.175 124.053 225.997 124.435 225.896C124.817 225.795 125.218 225.774 125.61 225.833C126.258 225.89 127.439 226.525 127.97 226.152C128.501 225.78 128.147 224.875 128.147 224.343C128.147 223.757 129.028 217.216 129.386 217.369C131.135 218.032 133.057 218.235 134.929 217.955C137.112 217.698 137.466 214.761 137.405 214.548C137.92 215.63 138.553 216.663 139.294 217.632C140.006 218.059 144.433 217.541 145.251 217.1C146.205 216.586 146.725 213.534 146.843 212.79C147.261 213.865 147.835 214.884 148.551 215.823C149.452 216.824 159.05 214.333 159.05 214.226C159.168 215.291 159.632 216.303 159.816 217.311C160.018 218.858 160.352 220.388 160.813 221.889C161.097 222.689 162.936 222.101 163.643 222.262C166.238 222.687 167.75 224.858 166.238 227C165.969 227.582 165.473 228.056 164.843 228.33C164.213 228.605 163.493 228.661 162.821 228.489C161.815 228.286 161.714 229.661 161.7 230.246C161.452 234.156 160.113 237.947 157.806 241.264C155.5 244.402 151.149 246.089 147.19 246.694C143.061 247.149 138.89 246.223 135.466 244.091ZM142.247 262.774C145.311 259.088 143.761 252.621 142.484 248.137C143.773 248.312 145.083 248.33 146.377 248.189C149.285 247.883 152.094 247.05 154.637 245.741C154.613 248.73 154.81 251.718 155.226 254.684C155.363 256.853 155.798 258.999 156.523 261.071C156.516 261.071 156.508 261.072 156.5 261.075C156.493 261.078 156.487 261.082 156.481 261.087C156.476 261.092 156.472 261.098 156.469 261.105C156.466 261.111 156.465 261.118 156.465 261.125C152.687 265.332 146.907 266.184 142.247 262.777V262.774Z" fill="#191919"></path><path d="M121.367 308.022C114.939 312.512 107.452 315.608 99.4869 317.071V317.019C94.2378 305.627 92.4091 294.398 92.3495 282.205C102.532 275.552 107.685 272.437 122.017 269.481C122.783 269.323 122.431 268.262 121.722 268.417C107.295 271.541 102.312 272.905 85.5084 285.396C85.0815 285.708 85.6293 286.359 86.0981 286.089C87.8195 285.095 89.5158 284.014 91.1702 282.895C89.8734 294.553 92.7043 306.955 97.8933 317.548C97.9179 317.609 97.9569 317.665 98.0079 317.71C98.0589 317.756 98.1202 317.792 98.1878 317.814C98.2291 317.976 98.3385 318.116 98.4927 318.206C98.6474 318.295 98.8342 318.327 99.0142 318.293C107.531 317.081 115.545 313.869 122.252 308.978C122.901 308.609 122.01 307.589 121.367 308.022Z" fill="#191919"></path><path d="M208.764 273.518C208.764 273.169 208.582 273.142 208.351 272.933C197.41 267.063 196.984 265.122 178.802 261.648C178.679 261.626 178.552 261.647 178.446 261.708C178.34 261.768 178.265 261.863 178.234 261.973C178.204 262.082 178.222 262.198 178.284 262.296C178.345 262.394 178.447 262.467 178.567 262.5C195.086 266.987 193.438 266.426 207.583 274.051C206.462 283.366 206.109 292.575 203.928 301.783C195.257 303.168 187.952 301.508 180.159 298.112C179.447 297.801 178.805 298.744 179.51 299.069C187.45 302.732 195.788 305.191 204.694 303.115C204.864 303.121 205.031 303.071 205.163 302.972C205.294 302.874 205.381 302.735 205.406 302.583C207.823 293.053 208.95 283.293 208.764 273.518Z" fill="#191919"></path><path d="M65.7502 249.895C72.3289 262.811 77.4468 276.293 81.0256 290.136C81.0857 290.314 81.2204 290.464 81.4009 290.554C81.5808 290.644 81.7929 290.668 81.9923 290.619C82.1911 290.571 82.3613 290.454 82.4674 290.295C82.5734 290.135 82.606 289.945 82.5596 289.763C78.88 275.918 73.5816 262.464 66.7525 249.629C66.8075 249.635 66.8636 249.629 66.9152 249.611C66.9668 249.592 67.0126 249.561 67.047 249.522C71.0573 247.074 76.319 243.769 75.8933 238.823C75.8864 238.696 75.8308 238.575 75.7368 238.482C75.6423 238.388 75.5151 238.326 75.3764 238.308C75.2371 238.289 75.0956 238.314 74.9747 238.379C74.8543 238.444 74.7621 238.544 74.7145 238.663C73.6521 243.187 70.4051 245.952 66.4551 248.618C66.3582 248.672 66.2831 248.753 66.2407 248.849C66.1983 248.945 66.1909 249.05 66.2201 249.149C66.1318 249.166 66.0488 249.199 65.976 249.248C65.9038 249.295 65.843 249.356 65.7983 249.427C65.7542 249.497 65.7267 249.575 65.7187 249.656C65.7101 249.737 65.721 249.819 65.7502 249.895Z" fill="#191919"></path><path d="M90.8776 308.501C87.339 309.992 83.8004 311.965 79.7902 311.909C76.2046 311.845 72.7754 310.572 70.1766 308.342C65.2254 304.08 63.979 297.643 62.6862 291.891C59.8467 279.277 55.2511 265.881 57.9671 252.98C58.0909 252.395 57.0924 252.129 56.97 252.714C55.6129 259.834 55.6731 267.117 57.148 274.219C58.5722 282.096 60.1756 290.183 62.3372 297.906C63.8266 303.225 66.5194 308.83 72.1273 311.586C79.0796 315.005 84.8359 311.917 91.4146 309.617C91.5011 309.588 91.5802 309.544 91.6472 309.487C91.7137 309.43 91.767 309.361 91.8031 309.285C91.8398 309.208 91.8581 309.126 91.8581 309.043C91.8576 308.96 91.8386 308.878 91.802 308.802C91.7653 308.726 91.712 308.657 91.645 308.6C91.5779 308.543 91.4983 308.5 91.4117 308.472C91.3252 308.444 91.2335 308.431 91.1412 308.437C91.0496 308.442 90.9602 308.464 90.8776 308.501Z" fill="#191919"></path><path d="M54.0135 251.492C47.2151 253.582 38.5484 255.219 34.3147 248.245C33.9587 247.661 32.9647 248.187 33.3179 248.777C37.4818 255.865 47.3105 256.563 54.4336 252.504C55.0074 252.172 54.7198 251.275 54.0135 251.492Z" fill="#191919"></path><path d="M38.9767 242.547C38.7389 242.123 37.9101 242.389 38.0924 242.867C39.8098 247.355 46.6822 250.348 51.3032 247.178C51.4092 247.114 51.4874 247.02 51.5245 246.91C51.5617 246.8 51.5554 246.682 51.5069 246.576C51.4583 246.469 51.3704 246.382 51.2582 246.328C51.146 246.273 51.0165 246.256 50.8917 246.278C48.4708 246.718 46.3661 247.25 43.9309 246.492C41.7701 245.815 39.9907 244.398 38.9767 242.547Z" fill="#191919"></path><path d="M54.4273 243.081C52.7406 243.141 51.0799 242.691 49.7081 241.804C48.5859 241.008 46.7004 239.569 46.7004 238.132C46.7004 237.652 45.8289 237.489 45.7563 238.025C45.5085 239.84 47.2373 241.638 48.6471 242.763C49.4151 243.447 50.3828 243.921 51.4374 244.128C52.492 244.335 53.5901 244.268 54.6039 243.933C54.7103 243.897 54.799 243.827 54.8546 243.737C54.9102 243.647 54.9292 243.543 54.9082 243.441C54.8872 243.34 54.8276 243.248 54.7398 243.183C54.652 243.117 54.5414 243.081 54.4273 243.081Z" fill="#191919"></path><path d="M248.289 241.27C245.275 243.018 242.509 244.422 238.734 244.198C237.025 244.097 235.019 243.241 233.25 243.453C233.097 243.396 232.927 243.385 232.767 243.424C232.607 243.463 232.465 243.548 232.365 243.667C232.306 243.667 232.248 243.719 232.187 243.719C231.893 243.825 231.953 244.198 232.13 244.362C229.888 259.585 231.275 275.188 227.883 290.3C226.772 295.253 226.047 300.56 220.451 302.969C216.022 304.875 210.129 304.826 205.356 305.683C204.766 305.789 205 306.634 205.591 306.536C215.477 304.874 226.177 305.417 228.475 294.611C233.983 268.715 230.479 263.182 233.548 244.682C238.973 245.853 244.81 246.173 249.058 242.233C249.58 241.744 248.936 240.897 248.289 241.27Z" fill="#191919"></path><path d="M235.726 236.905C234.962 236.789 234.605 237.864 235.373 237.97C239.738 238.822 244.987 238.237 248.289 235.255C248.412 235.143 248.486 234.993 248.496 234.835C248.506 234.677 248.451 234.521 248.343 234.396C248.234 234.272 248.078 234.188 247.906 234.16C247.733 234.132 247.555 234.161 247.405 234.243C243.741 236.342 240.221 237.59 235.726 236.905Z" fill="#191919"></path><path d="M242.806 229.135C241.232 230.399 239.373 231.34 237.357 231.891C235.341 232.442 233.216 232.592 231.129 232.329C230.598 232.276 230.417 233.14 231.011 233.229C233.278 233.569 235.6 233.464 237.818 232.923C240.037 232.381 242.101 231.414 243.868 230.089C244.583 229.567 243.524 228.56 242.806 229.135Z" fill="#191919"></path><path d="M211.31 277.415C215.561 265.12 218.858 252.192 219.154 239.302C219.152 239.216 219.122 239.133 219.069 239.062C219.016 238.991 218.941 238.936 218.855 238.902C218.768 238.869 218.671 238.858 218.578 238.872C218.484 238.887 218.398 238.924 218.327 238.982C218.269 238.982 218.211 238.929 218.151 238.929C211.015 238.929 212.428 230.038 216.204 227.111C216.287 227.044 216.338 226.951 216.349 226.852C216.36 226.752 216.33 226.653 216.263 226.572C216.197 226.492 216.1 226.437 215.991 226.418C215.882 226.398 215.769 226.417 215.675 226.468C210.222 229.92 209.953 239.989 217.974 240.416C216.468 252.816 213.745 265.072 209.835 277.038C209.779 277.214 209.804 277.404 209.903 277.564C210.002 277.724 210.168 277.842 210.364 277.892C210.559 277.942 210.769 277.92 210.947 277.83C211.124 277.741 211.255 277.591 211.31 277.415Z" fill="#191919"></path><path d="M64.5131 235.148C64.7022 235.148 64.8547 235.159 65.2787 234.776C69.054 229.986 74.5353 226.315 79.377 222.427C84.2726 218.489 89.049 214.496 93.885 210.504C94.61 210.504 94.657 209.689 94.1802 209.385C92.8301 208.526 89.8737 208.699 88.3998 208.587C83.095 208.181 63.3366 206.368 60.3264 205.766C55.7806 194.694 49.2485 183.708 45.1672 172.444C45.1252 172.312 45.0281 172.202 44.8965 172.134C44.7649 172.067 44.6093 172.049 44.463 172.083C44.3166 172.118 44.1912 172.203 44.1133 172.32C44.0355 172.437 44.0115 172.577 44.0465 172.71V172.758C43.9442 172.718 43.8339 172.697 43.7226 172.697C43.6112 172.697 43.5009 172.718 43.3986 172.758C28.2881 179.609 13.4496 186.989 0.402474 196.824C0.0493115 197.09 0.344088 197.622 0.69725 197.674C4.41258 204.222 8.49389 210.711 12.4897 217.158C14.1843 219.96 16.075 222.663 18.1503 225.248C19.4576 226.84 21.1593 229.56 23.3409 230.252C23.4008 230.572 28.6455 231.065 30.595 231.37C41.6826 233.098 54.2427 235.148 64.5131 235.148ZM17.3315 221.522C12.7162 215.206 8.14783 206.767 1.7012 197.196C15.1656 188.244 29.4962 180.405 44.5193 173.774C47.7619 184.846 54.0732 195.013 58.3195 205.766C32.0661 224.928 25.0213 226.252 23.8821 228.442C23.1173 228.442 24.2424 229.842 17.3315 221.522ZM24.822 229.454C25.7647 228.069 28.365 227.118 29.6637 226.419C32.3565 224.963 41.0689 219.588 43.5823 217.956C61.9281 206.042 58.4021 206.646 60.5086 207.203C66.2432 207.927 91.6266 210.653 92.0037 210.663C70.1291 227.381 67.0632 229.767 64.0398 233.605C49.1104 233.605 29.7833 229.08 24.822 229.454Z" fill="#191919"></path><path d="M23.7575 187.776C24.0555 187.766 24.3378 187.652 24.5448 187.459C24.7519 187.265 24.8677 187.007 24.8677 186.738C24.8677 186.469 24.7519 186.21 24.5448 186.016C24.3378 185.822 24.0555 185.709 23.7575 185.7C23.6031 185.695 23.4491 185.718 23.3049 185.768C23.1607 185.818 23.029 185.894 22.9179 185.991C22.8067 186.088 22.7183 186.203 22.6579 186.332C22.5975 186.46 22.5664 186.598 22.5664 186.738C22.5664 186.877 22.5975 187.015 22.6579 187.143C22.7183 187.272 22.8067 187.388 22.9179 187.485C23.029 187.582 23.1607 187.657 23.3049 187.707C23.4491 187.757 23.6031 187.78 23.7575 187.776Z" fill="#191919"></path><path d="M62.9201 211.41C63.6318 211.04 62.9797 209.972 62.272 210.399C53.779 214.922 47.2483 221.813 38.798 226.42C38.6808 226.484 38.5963 226.587 38.5632 226.706C38.5301 226.826 38.551 226.953 38.6215 227.059C38.6919 227.165 38.8061 227.241 38.9388 227.271C39.0715 227.301 39.212 227.282 39.3292 227.218C43.3169 225.23 47.1058 222.933 50.6532 220.353C54.7302 217.273 58.2749 213.826 62.9201 211.41Z" fill="#191919"></path><path d="M69.5247 212.207C62.0566 216.655 54.1449 222.131 48.3519 228.336C48.0543 228.653 48.4615 229.179 48.8232 228.922C55.9933 223.804 63.0451 218.208 70.174 213.005C70.6966 212.624 70.057 211.889 69.5247 212.207Z" fill="#191919"></path><path d="M76.1311 214.444C76.6623 213.859 75.785 213.015 75.1867 213.594C69.4905 219.094 63.7147 224.261 57.4346 229.243C56.9006 229.665 57.6598 230.244 58.1469 229.885C64.6637 225.258 70.6854 220.088 76.1311 214.444Z" fill="#191919"></path><path d="M77.017 203.531C77.4227 204.333 78.5505 203.851 78.5505 203.106C86.3945 200.124 94.0729 196.9 101.905 193.897C101.992 193.864 102.07 193.814 102.133 193.751C102.197 193.689 102.245 193.614 102.273 193.533C102.301 193.452 102.309 193.366 102.296 193.281C102.284 193.197 102.251 193.116 102.2 193.044C102.613 193.736 103.909 193.417 103.615 192.565C102.191 188.416 100.767 184.25 99.1324 180.217C99.1054 180.132 99.051 180.058 98.9753 180.003C98.9003 179.948 98.808 179.915 98.7112 179.91C98.6143 179.904 98.518 179.925 98.4355 179.97C98.3524 180.015 98.2871 180.082 98.2481 180.163C94.5972 177.356 90.5268 175.026 86.1567 173.243C86.0644 173.204 85.9636 173.183 85.8616 173.183C85.7595 173.183 85.6593 173.204 85.567 173.243C85.4461 173.234 85.3246 173.253 85.214 173.297C79.3155 175.159 72.9455 176.757 67.698 179.897C67.6069 179.887 67.5146 179.899 67.4298 179.93C67.3444 179.961 67.2694 180.01 67.2109 180.074C67.1525 180.138 67.1123 180.214 67.0946 180.295C67.0768 180.376 67.0814 180.46 67.1083 180.539C69.1874 188.546 73.2973 196.16 77.017 203.531ZM85.8633 174.627C86.1578 178.513 87.6162 182.339 88.6942 186.072C88.7589 186.235 88.8821 186.374 89.0449 186.466C89.2076 186.558 89.3996 186.598 89.5904 186.579C89.7813 186.561 89.9595 186.485 90.0964 186.364C90.2334 186.242 90.3216 186.084 90.3463 185.911C93.1686 184.798 95.9255 183.554 98.6057 182.184C99.4206 185.922 100.645 189.577 102.262 193.096C102.166 192.944 102.013 192.828 101.83 192.77C101.646 192.711 101.446 192.714 101.266 192.777C93.6041 195.862 85.8719 198.946 78.2646 202.146C74.8469 195.173 70.8326 188.306 68.4739 180.907C74.4681 177.385 85.1452 175.276 85.8633 174.627Z" fill="#191919"></path><path d="M89.6374 164.46C97.6023 165.35 104.694 161.161 105.503 153.654C105.882 150.433 104.998 147.193 103.005 144.499C101.011 141.805 98.0344 139.827 94.5921 138.91C93.9468 138.738 93.4695 139.656 94.1204 139.921C99.4178 142.07 103.988 145.774 104.5 151.312C104.625 152.847 104.383 154.387 103.79 155.829C103.198 157.272 102.269 158.583 101.066 159.673C99.8642 160.763 98.4161 161.607 96.8207 162.149C95.2253 162.69 93.5199 162.915 91.8191 162.81C84.5069 162.432 78.0801 159.618 77.9007 152.271C77.8153 148.759 78.6124 144.774 81.5574 142.264C84.2186 140.131 87.567 138.825 91.1113 138.537C91.8775 138.474 91.8792 137.419 91.1113 137.471C87.2621 137.716 83.5923 139.037 80.6135 141.251C77.3723 143.704 76.6079 147.32 76.1901 150.992C75.2578 159.191 80.911 163.485 89.6374 164.46Z" fill="#191919"></path><path d="M94.1189 144.819C95.0037 144.819 94.9452 143.699 94.1189 143.594C92.8765 143.448 91.6146 143.52 90.4026 143.808C90.2255 143.009 90.0708 142.206 89.8725 141.412C89.8341 141.284 89.7447 141.172 89.6209 141.1C89.4977 141.027 89.3487 140.998 89.2032 141.018C89.0576 141.037 88.9247 141.105 88.8307 141.207C88.7362 141.309 88.6869 141.44 88.692 141.573C88.6336 142.514 88.6336 143.458 88.692 144.4C88.033 144.673 87.4336 145.052 86.9236 145.517C85.3316 146.795 83.5729 149.131 84.6818 151.107C85.6961 152.906 87.6313 152.543 89.3413 152.006C89.578 153.87 89.8725 155.679 90.1676 157.542C88.9568 157.246 87.8697 156.636 87.0416 155.786C86.0835 154.839 84.5569 156.217 85.5081 157.169C86.7906 158.386 88.5436 159.11 90.4026 159.192C90.4622 159.724 90.5745 160.258 90.6387 160.789C90.8009 162.121 93.0994 161.537 92.8805 160.258C92.8163 159.885 92.7619 159.458 92.7034 159.085C94.1882 158.932 95.5481 158.263 96.4947 157.219C97.4414 156.176 97.9004 154.841 97.7744 153.497C97.5996 151.113 94.9865 149.188 91.4645 149.717C91.288 148.333 91.0519 146.89 90.8152 145.512C91.8719 145.134 92.9859 144.9 94.1189 144.819ZM95.6529 151.898C97.5314 153.239 95.5291 156.097 94.2375 156.902C93.7068 157.241 93.104 157.477 92.4673 157.595C92.1722 155.519 91.9361 153.442 91.6415 151.366C92.3109 151.175 93.0197 151.124 93.7149 151.216C94.41 151.308 95.0724 151.541 95.6529 151.898ZM89.1023 150.195C87.8645 150.621 86.1528 151.095 86.8605 148.545C87.2049 147.646 87.8972 146.888 88.8101 146.411C88.8215 147.677 88.919 148.941 89.1023 150.195Z" fill="#191919"></path><path d="M24.7021 166.803C24.7241 166.917 24.7884 167.022 24.8847 167.099C24.9809 167.177 25.1033 167.222 25.2318 167.228C27.8279 167.388 30.4211 167.069 33.0171 167.122C33.1265 167.125 33.2356 167.108 33.3375 167.072C33.4393 167.036 33.5319 166.982 33.6094 166.912C33.6869 166.842 33.7476 166.758 33.7878 166.667C33.828 166.575 33.8468 166.476 33.843 166.377C34.4582 165.543 33.3118 165.505 33.3118 141.678C33.3067 141.555 33.2581 141.437 33.1733 141.341C33.0884 141.246 32.9718 141.177 32.8405 141.146C32.7406 141.058 32.6191 140.993 32.4858 140.956C32.3526 140.919 32.2116 140.911 32.0744 140.934C30.1305 141.267 28.013 141.181 26.0578 141.576C25.9277 141.602 25.8131 141.671 25.7366 141.77C25.6602 141.868 25.6274 141.989 25.6448 142.108C25.4682 142.16 25.3505 142.32 25.2916 142.587C24.3263 150.45 23.9504 158.362 24.1667 166.271C24.1553 166.339 24.161 166.408 24.1831 166.474C24.2052 166.54 24.2432 166.601 24.2945 166.652C24.3458 166.703 24.4089 166.742 24.4794 166.769C24.5499 166.795 24.626 166.807 24.7021 166.803ZM31.8963 142.53C30.589 150.206 30.6092 158.019 31.9562 165.69C29.8329 165.903 27.6513 165.903 25.528 166.169C26.1176 158.45 27.0603 150.466 26.8253 142.748C28.5169 142.943 30.233 142.869 31.8963 142.53Z" fill="#191919"></path><path d="M38.1498 166.216C39.5878 166.465 41.0488 166.59 42.513 166.589C43.9845 166.717 45.4661 166.717 46.9375 166.589C47.1225 166.558 47.2913 166.473 47.4194 166.349C47.5475 166.224 47.6282 166.066 47.6495 165.898C47.9318 165.862 48.1894 165.733 48.3733 165.537C48.5572 165.34 48.6544 165.089 48.6464 164.832C48.5282 153.439 47.7022 142.104 46.7581 130.712C46.755 130.582 46.7147 130.453 46.6413 130.34C46.6742 130.192 46.6513 130.038 46.5766 129.903C46.5018 129.769 46.3793 129.66 46.2284 129.595C44.3586 128.75 40.0452 129.067 38.1484 129.381C38.0242 129.405 37.9075 129.453 37.807 129.523C37.7065 129.592 37.6248 129.682 37.5679 129.785C37.5111 129.887 37.4806 129.999 37.4788 130.114C37.477 130.228 37.5038 130.342 37.5574 130.446C37.4406 136.408 37.3808 142.316 37.3808 148.278C37.3808 153.761 36.6146 159.776 37.6755 165.152C37.6126 165.248 37.5749 165.355 37.5654 165.465C37.5559 165.576 37.5748 165.687 37.6207 165.79C37.6666 165.893 37.7382 165.985 37.83 166.059C37.9217 166.133 38.0312 166.187 38.1498 166.216ZM44.9852 131.138C45.6972 142.32 46.0461 153.548 46.1642 164.779C44.9698 164.664 43.7674 164.629 42.5671 164.673C41.5703 164.673 40.5023 164.62 39.4342 164.673C40.3186 159.403 39.5496 153.602 39.4926 148.278C39.4314 142.529 39.2577 136.781 39.1395 131.031C41.0898 130.922 43.0469 130.957 44.9909 131.138H44.9852Z" fill="#191919"></path><path d="M53.2477 164.674C53.2412 164.827 53.2753 164.979 53.3471 165.118C53.4189 165.257 53.5264 165.378 53.6606 165.472C54.0879 165.986 54.3869 165.685 54.6575 165.685C54.7593 165.693 54.8616 165.675 54.9523 165.633C57.6651 165.206 62.4427 166.217 63.9762 164.09C64.0541 163.976 64.0902 163.842 64.0799 163.709C64.069 163.576 64.0128 163.448 63.9183 163.345C63.9183 163.291 63.9762 163.238 63.9762 163.185C65.2736 155.679 63.8982 147.217 63.0919 139.71C62.2518 131.894 60.143 123.83 60.143 115.703C60.2221 115.573 60.2622 115.426 60.2599 115.277C60.2576 115.128 60.2129 114.982 60.1298 114.854C60.0467 114.725 59.9281 114.619 59.7854 114.544C59.6433 114.468 59.4817 114.428 59.3172 114.426C57.8691 114.43 56.4263 114.573 55.0121 114.852C53.4635 115.043 51.9276 115.31 50.411 115.65C50.2718 115.69 50.1455 115.76 50.0433 115.854C49.9412 115.948 49.8663 116.063 49.8255 116.19C49.7846 116.316 49.779 116.45 49.8091 116.578C49.8392 116.707 49.9041 116.827 49.998 116.928C49.9516 116.991 49.9309 117.065 49.9396 117.14C49.0596 128.88 53.138 134.613 53.2477 164.674ZM58.8513 116.337C58.3081 119.303 58.3682 122.333 59.0278 125.28C62.6106 149.725 60.9974 156.492 61.9773 163.126C61.8518 163.138 61.7303 163.174 61.6226 163.233C59.8696 163.673 57.5751 163.563 55.6657 164.133C55.6657 134.969 51.019 128.464 51.3608 117.291C53.1679 117.015 57.4674 116.67 58.8513 116.337Z" fill="#191919"></path><path d="M259.318 204.011C258.728 203.798 258.369 204.654 258.904 204.969C269.794 211.329 266.24 220.816 257.489 222.588C261.028 220.299 262.201 214.876 259.436 211.729C258.895 211.113 258.188 210.633 257.382 210.335C256.576 210.036 255.699 209.93 254.835 210.026C252.887 210.22 251.357 211.469 249.528 211.888C248.897 212.087 248.216 212.117 247.568 211.973C246.92 211.83 246.332 211.519 245.875 211.079C245.419 210.639 245.114 210.089 244.998 209.496C244.882 208.902 244.959 208.291 245.221 207.736C245.572 206.707 246.179 205.764 246.997 204.98C247.816 204.195 248.823 203.59 249.94 203.213C249.999 203.213 249.999 203.159 250.057 203.106C252.36 202.542 254.804 202.672 257.016 203.479C257.553 203.68 257.962 202.836 257.429 202.626C254.596 201.483 251.384 201.37 248.46 202.313C245.538 203.255 243.131 205.179 241.742 207.684C238.97 212.847 240.681 220.882 246.932 223.386C253.302 225.938 263.119 224.834 266.1 218.542C267.308 215.801 267.273 212.741 266.005 210.024C264.736 207.305 262.334 205.146 259.318 204.011ZM255.13 222.215C255.056 222.247 254.989 222.291 254.935 222.345C254.88 222.399 254.837 222.463 254.811 222.532C254.783 222.602 254.771 222.675 254.775 222.749C254.78 222.822 254.8 222.894 254.835 222.96C252.726 223.072 250.611 222.854 248.583 222.318C242.333 220.611 240.526 212.722 243.276 207.946C243.517 207.509 243.814 207.098 244.16 206.721C242.803 209.329 242.802 212.367 245.811 213.533C248.7 214.654 251.706 212.248 254.303 211.564C257.781 210.649 259.288 213.214 259.318 215.934C259.392 217.239 259.033 218.533 258.287 219.653C257.541 220.771 256.441 221.664 255.13 222.215Z" fill="#191919"></path><path d="M269.993 143.168C269.88 142.156 268.09 142.105 268.225 143.168C268.803 147.753 263.098 148.189 259.495 148.651C258.236 148.739 257.031 149.144 256.015 149.821C255.074 150.545 254.445 151.545 254.241 152.645C254.036 153.745 254.268 154.876 254.896 155.837C254.896 155.889 254.954 155.889 255.012 155.943C254.913 155.945 254.815 155.965 254.724 156.001C254.633 156.038 254.551 156.091 254.483 156.156C254.188 155.784 253.533 155.514 253.125 155.943C243.277 166.376 235.768 177.398 228.355 182.558C227.887 182.883 228.414 183.569 228.886 183.517C228.984 183.569 229.096 183.596 229.21 183.596C229.325 183.596 229.436 183.569 229.535 183.517C239.93 177.33 249.717 170.348 258.788 162.65C258.906 162.648 259.023 162.625 259.13 162.58C259.238 162.536 259.334 162.471 259.412 162.391C259.49 162.31 259.548 162.216 259.583 162.114C259.618 162.012 259.628 161.905 259.614 161.799C259.572 160.626 259.183 159.484 258.488 158.493C257.794 157.501 256.818 156.694 255.662 156.156C255.776 156.129 255.882 156.08 255.973 156.012C256.064 155.943 256.137 155.858 256.188 155.762C256.238 155.666 256.265 155.561 256.266 155.454C256.267 155.347 256.242 155.242 256.193 155.145C254.978 152.739 256.066 151.073 258.788 150.408C262.285 149.55 265.917 150.203 268.756 147.214C268.461 147.532 269.041 149.928 269.051 150.46C269.08 154.24 266.111 160.089 261.031 159.457C260.897 159.428 260.759 159.424 260.624 159.446C260.489 159.467 260.36 159.514 260.246 159.583C260.133 159.652 260.036 159.742 259.963 159.846C259.889 159.951 259.84 160.068 259.82 160.19C259.799 160.313 259.807 160.437 259.843 160.557C259.879 160.676 259.942 160.788 260.028 160.884C260.114 160.98 260.222 161.06 260.344 161.116C260.465 161.173 260.599 161.206 260.736 161.214C264.866 161.556 267.649 158.985 269.464 155.944C271.84 151.959 270.48 147.479 269.993 143.168ZM257.667 161.479C250.541 167.527 243.017 173.182 235.137 178.413C239.365 174.301 250.544 161.54 254.305 157.014C254.376 157.11 254.479 157.185 254.599 157.227C255.461 157.651 256.193 158.261 256.728 159.003C257.263 159.745 257.586 160.596 257.667 161.479Z" fill="#191919"></path><path d="M242.045 128.264C242.741 127.72 243.445 127.186 244.109 126.561C244.628 126.071 243.932 125.176 243.284 125.603C242.539 126.053 241.829 126.551 241.161 127.092C240.514 127.574 239.587 128.058 239.273 128.743C239.212 128.849 239.186 128.968 239.198 129.086C239.21 129.205 239.26 129.318 239.34 129.413C239.421 129.507 239.529 129.579 239.653 129.619C239.777 129.66 239.911 129.668 240.04 129.642C240.809 129.316 241.493 128.846 242.045 128.264Z" fill="#191919"></path><path d="M236.375 132.469C236.47 132.328 236.498 132.158 236.454 131.998C236.41 131.838 236.297 131.7 236.141 131.615C235.985 131.529 235.797 131.504 235.62 131.544C235.442 131.583 235.289 131.685 235.195 131.826C234.018 133.574 232.989 133.522 232.895 134.542C232.837 134.754 233.131 135.074 233.368 135.127C234.723 135.29 235.844 133.43 236.375 132.469Z" fill="#191919"></path><path d="M207.064 146.096C205.918 146.81 204.639 147.332 203.289 147.638C203.139 147.68 203.01 147.769 202.925 147.888C202.841 148.008 202.806 148.151 202.827 148.292C202.849 148.432 202.925 148.561 203.042 148.656C203.159 148.751 203.31 148.805 203.467 148.809C205.161 148.84 206.805 148.289 208.067 147.267C208.832 146.68 207.89 145.723 207.064 146.096Z" fill="#191919"></path><path d="M188.664 147.001C191.236 151.723 190.535 157.657 189.018 162.597C188.974 162.759 188.99 162.929 189.061 163.082C189.134 163.235 189.258 163.363 189.418 163.448C189.577 163.531 189.762 163.566 189.945 163.548C190.128 163.529 190.3 163.457 190.434 163.343C192.515 161.513 194.41 159.517 196.094 157.381C201.049 155.464 205.945 153.388 211.017 151.791C209.719 154.346 208.481 156.955 207.419 159.563C207.36 159.563 207.242 159.51 207.123 159.563C205.254 159.714 203.432 160.184 201.756 160.947C200.808 161.418 201.521 162.546 202.469 162.438C203.826 162.281 205.183 162.012 206.538 161.795C205.713 163.924 205.04 166.064 204.297 168.183C204.245 168.311 204.246 168.452 204.3 168.579C204.354 168.706 204.458 168.811 204.592 168.874C204.617 168.948 204.66 169.016 204.717 169.073C204.774 169.13 204.844 169.176 204.923 169.207C205.001 169.237 205.086 169.251 205.172 169.25C205.257 169.247 205.341 169.228 205.417 169.195C220.104 164.825 225.953 150.643 227.476 138.002C227.546 137.417 226.764 137.145 226.297 137.359C223.689 138.562 221.107 139.914 218.57 141.192C218.522 141.121 218.454 141.061 218.375 141.018C218.296 140.975 218.206 140.95 218.113 140.944C218.021 140.939 217.928 140.954 217.844 140.987C217.759 141.021 217.684 141.072 217.626 141.138C215.613 143.954 213.782 146.874 212.142 149.881H211.906C206.357 151.37 201.03 153.462 196.041 156.109C195.847 156.014 195.623 155.984 195.408 156.023C195.192 156.062 194.999 156.168 194.861 156.323C193.783 157.66 192.622 158.939 191.381 160.155C192.325 155.896 192.501 151.159 190.733 147.167C189.989 145.577 189.101 144.046 188.079 142.589C189.139 143.231 190.214 143.856 191.262 144.505C192.452 145.239 194.395 147.011 195.922 147.06C197.692 147.118 201.109 145.085 202.646 144.4C219.63 136.824 231.802 127.876 246.88 117.465C249.159 115.894 250.698 114.755 253.368 114.537C254.252 115.814 255.077 117.039 255.963 118.317C256.081 120.286 252.723 123.907 251.539 125.396C245.825 132.583 239.945 137.011 231.959 142.004C231.434 142.332 231.896 143.063 232.43 142.802C237.664 140.131 242.418 136.756 246.528 132.795C250.351 129.218 254.902 124.544 256.909 119.806C257.969 117.304 257.8 114.036 254.313 113.312C249.544 112.324 244.355 117.425 241.044 119.699C236.926 122.534 232.778 125.338 228.6 128.11C228.718 122.894 230.192 111.077 222.288 110.279C222.167 110.278 222.048 110.307 221.944 110.363C221.84 110.419 221.755 110.501 221.699 110.598C220.817 112.489 220.317 114.509 220.225 116.56C220.1 116.423 219.927 116.327 219.734 116.288C219.542 116.249 219.34 116.27 219.163 116.346C217.332 116.904 215.556 117.596 213.851 118.416C213.025 118.842 213.616 119.86 214.44 119.747C216.268 119.442 218.064 118.997 219.807 118.416C219.913 118.375 220.013 118.321 220.103 118.256C219.641 124.491 219.409 129.19 217.743 132.948C217.508 133.48 218.392 133.746 218.739 133.321C221.983 128.694 220.984 121.93 221.748 116.66C221.925 115.435 221.576 111.855 224.049 112.562C226.058 113.135 226.754 117.619 226.88 118.895C227.087 122.409 227.008 125.931 226.643 129.434C209.432 140.549 203.343 142.241 197.862 144.763C195.394 145.9 195.489 145.368 193.261 144.019C190.828 142.548 188.396 141.05 185.888 139.601C185.131 139.162 184.356 140.026 184.709 140.664C186.147 142.715 187.467 144.829 188.664 147.001ZM217.857 142.902C218.106 142.902 221.374 141.315 225.76 139.336C223.819 150.886 218.684 162.438 206.239 167.489C209.169 158.956 213.061 150.717 217.857 142.902Z" fill="#191919"></path><path d="M24.1674 218.118C20.5574 208.131 33.2001 207.266 38.9119 202.042C42.5147 198.746 43.2168 194.43 43.0416 190.065C43.8675 189.853 44.6992 189.656 45.5194 189.423C46.4095 189.174 46.3383 188.26 45.5194 187.719C43.1954 186.184 41.9593 184.597 41.3314 185.164C40.0744 186.597 38.9323 188.11 37.9137 189.689C37.3853 190.332 38.2696 191.029 38.9746 190.913C39.8631 190.766 40.6834 190.594 41.5706 190.434C41.9679 199.06 37.7185 202.175 30.2466 205.711C24.7555 208.314 20.3381 212.474 23.1093 218.386C23.1243 218.453 23.1545 218.516 23.198 218.573C23.2415 218.629 23.2974 218.677 23.3621 218.712C23.4268 218.748 23.499 218.771 23.5741 218.78C23.6492 218.79 23.7257 218.785 23.7987 218.767C23.8717 218.748 23.9397 218.716 23.9984 218.673C24.0571 218.629 24.1053 218.576 24.1399 218.515C24.1745 218.453 24.1948 218.387 24.1995 218.319C24.2042 218.25 24.1933 218.182 24.1674 218.118Z" fill="#191919"></path><path d="M248.349 186.925C248.76 186.337 247.767 185.864 247.352 186.392C243.053 191.811 237.099 193.194 230.072 192.514C226.711 192.189 223.35 192.462 221.874 195.654C220.224 199.222 222.22 203.427 222.818 207.046C223.399 210.56 223.245 214.452 220.458 217.213C219.819 217.884 218.998 218.393 218.074 218.69C217.151 218.987 216.157 219.062 215.193 218.905C214.228 218.75 213.324 218.37 212.572 217.802C211.82 217.235 211.245 216.5 210.904 215.671C211.848 215.564 213.325 215.618 213.971 214.925C214.916 213.915 214.134 211.627 213.971 210.453C212.772 201.825 210.504 199.196 209.842 193.899C209.816 193.755 209.748 193.619 209.644 193.506C209.54 193.393 209.405 193.307 209.252 193.257C216.942 190.333 213.819 178.158 205.655 175.158C191.984 170.134 187.608 192.032 199.639 193.257C199.992 193.257 199.193 192.366 202.175 204.807C202.659 206.828 202.986 208.856 203.532 210.876C203.786 212.623 204.471 214.297 205.537 215.773C206.145 216.452 206.716 216.358 207.484 216.146C207.719 216.092 209.242 215.349 209.37 215.826C209.717 217.285 210.623 218.586 211.929 219.501C213.234 220.417 214.856 220.887 216.508 220.829C221.932 220.604 224.8 215.241 224.767 210.933C224.71 204.008 218.794 195.062 227.656 193.527C229.304 193.241 231.49 193.953 233.2 194.059C236.203 194.214 239.198 193.633 241.865 192.377C244.532 191.121 246.772 189.237 248.349 186.925ZM207.36 192.089C207.473 192.044 207.567 191.969 207.631 191.873C207.694 191.778 207.723 191.666 207.713 191.556C207.425 188.392 206.933 185.246 206.239 182.134C210.084 181.718 210.438 181.968 210.78 181.815C212.734 186.113 212.385 191.288 207.36 192.089ZM209.896 180.43C208.554 180.465 207.214 180.571 205.886 180.75C205.59 179.366 205.295 177.929 205 176.545C207.067 177.311 208.79 178.678 209.896 180.43ZM203.644 176.172C203.644 176.558 203.95 177.982 204.292 180.964C203.118 181.173 201.956 181.439 200.813 181.762C200.459 179.898 200.224 178.035 199.988 176.172C201.189 175.906 202.443 175.906 203.644 176.172ZM198.69 176.597C198.749 178.511 198.987 180.416 199.402 182.294C197.389 183.003 195.662 184.246 194.448 185.86C193.559 182.228 194.911 178.231 198.69 176.597ZM194.797 187.19C194.864 187.125 194.945 187.071 195.033 187.031C196.241 185.596 197.849 184.476 199.692 183.784C199.869 184.583 200.057 185.327 200.282 186.127C200.654 187.453 201.228 191.709 202.936 192.089C203.038 192.11 203.143 192.11 203.245 192.091C203.347 192.073 203.444 192.034 203.527 191.978C203.612 191.923 203.681 191.852 203.731 191.77C203.782 191.687 203.813 191.596 203.821 191.503C203.825 191.37 203.783 191.24 203.703 191.13C203.072 188.795 201.456 185.592 201.166 183.251C202.253 182.88 203.38 182.613 204.528 182.453C204.942 185.594 205.517 188.725 206.237 191.768C206.267 191.885 206.332 191.993 206.426 192.078C206.52 192.163 206.639 192.222 206.769 192.248C204.637 192.339 202.5 192.214 200.399 191.875C200.303 191.856 200.202 191.86 200.109 191.888C200.015 191.916 199.932 191.967 199.868 192.035C198.647 191.665 197.546 191.029 196.662 190.184C195.778 189.339 195.137 188.311 194.797 187.19Z" fill="#191919"></path></g></g></g><defs><clipPath id="clip0_257_6"><rect width="302" height="350" fill="white"></rect></clipPath></defs></svg>