<svg xmlns="http://www.w3.org/2000/svg" width="24" height="24" viewBox="0 0 24 24" fill="none"><path d="M16.5 3H7.5C5.01472 3 3 5.01472 3 7.5V16.5C3 18.9853 5.01472 21 7.5 21H16.5C18.9853 21 21 18.9853 21 16.5V7.5C21 5.01472 18.9853 3 16.5 3Z" stroke="#333333" stroke-width="1.5" stroke-linecap="round" stroke-linejoin="round"></path><path d="M8 16.375V10.75M12 16.375V13.5M12 13.5V10.75M12 13.5C12 12.2124 13.222 11.5 14.4 11.5C16 11.5 16 12.875 16 14.375V16.375" stroke="black" stroke-width="1.5" stroke-linecap="round" stroke-linejoin="round"></path><path d="M8 7.625L8 8.125" stroke="black" stroke-width="1.5" stroke-linecap="round" stroke-linejoin="round"></path></svg>