<svg xmlns="http://www.w3.org/2000/svg" width="24" height="24" viewBox="0 0 24 24" fill="none"><path d="M16.5 3H7.5C5.01472 3 3 5.01472 3 7.5V16.5C3 18.9853 5.01472 21 7.5 21H16.5C18.9853 21 21 18.9853 21 16.5V7.5C21 5.01472 18.9853 3 16.5 3Z" stroke="#333333" stroke-width="1.5" stroke-linecap="round" stroke-linejoin="round"></path><path d="M15.4621 11.4866C15.5701 12.2148 15.4457 12.9585 15.1067 13.612C14.7676 14.2654 14.2311 14.7953 13.5736 15.1263C12.916 15.4573 12.1708 15.5725 11.444 15.4555C10.7171 15.3386 10.0457 14.9954 9.52513 14.4749C9.00457 13.9543 8.66141 13.2829 8.54446 12.556C8.4275 11.8292 8.5427 11.084 8.87368 10.4264C9.20466 9.76886 9.73456 9.23238 10.388 8.89332C11.0415 8.55426 11.7852 8.42988 12.5134 8.53786C13.2562 8.64801 13.9439 8.99414 14.4749 9.52513C15.0059 10.0561 15.352 10.7438 15.4621 11.4866Z" stroke="black" stroke-width="1.5" stroke-linecap="round" stroke-linejoin="round"></path><path d="M17 6.5H17.5" stroke="black" stroke-width="1.5" stroke-linecap="round" stroke-linejoin="round"></path></svg>