<svg xmlns="http://www.w3.org/2000/svg" width="201" height="151" viewBox="0 0 201 151" fill="none"><path d="M125.476 62.354C118.535 60.4911 116.861 52.7913 117.557 45.7176C117.782 43.6274 118.207 41.5634 118.827 39.554C118.856 39.4368 118.93 39.3358 119.034 39.2732C119.137 39.2105 119.261 39.1914 119.379 39.22C119.497 39.2486 119.598 39.3225 119.661 39.4256C119.724 39.5286 119.743 39.6523 119.714 39.7695C119.362 41.7711 119.131 43.7923 119.024 45.8218C118.63 52.5411 119.788 59.577 126.392 61.0262C126.56 61.064 126.71 61.1574 126.817 61.2912C126.925 61.425 126.984 61.5912 126.984 61.7626C126.942 64.7622 127.109 70.0956 127.2 72.5815C127.206 72.6511 127.197 72.7211 127.175 72.7874C127.153 72.8537 127.119 72.9151 127.073 72.968C127.027 73.0209 126.971 73.0642 126.909 73.0955C126.846 73.1268 126.778 73.1454 126.708 73.1504C125.992 73.224 125.281 73.342 124.58 73.5037C124.46 73.5257 124.336 73.5001 124.235 73.4324C124.134 73.3646 124.063 73.2601 124.038 73.1412C124.014 73.0229 124.038 72.8999 124.104 72.7989C124.171 72.698 124.275 72.6272 124.393 72.6019C126.358 72.1117 125.971 72.2077 126.087 72.1699C125.771 68.7985 125.503 65.7927 125.476 62.354Z" fill="#191919"></path><path d="M123.475 50.131L125.308 50.1116C125.368 50.1049 125.429 50.11 125.487 50.1267C125.545 50.1435 125.599 50.1714 125.646 50.209C125.694 50.2466 125.733 50.2931 125.762 50.3459C125.792 50.3987 125.81 50.4566 125.817 50.5165C125.824 50.5764 125.818 50.637 125.802 50.6949C125.785 50.7528 125.757 50.8068 125.719 50.8539C125.681 50.901 125.635 50.9402 125.582 50.9693C125.529 50.9985 125.47 51.0169 125.41 51.0236C124.563 51.2584 123.701 51.4385 122.83 51.5629C122.644 51.5743 122.46 51.5131 122.319 51.3922C122.177 51.2713 122.088 51.1003 122.071 50.9153C122.011 50.229 121.962 49.5519 121.953 48.8727C121.935 47.2787 122.107 45.6883 122.466 44.1348C122.615 43.6129 123.101 42.0758 123.696 42.2423C124.646 42.5211 123.358 45.1101 123.475 50.131Z" fill="#191919"></path><path d="M126.27 54.6236C127.897 58.3085 133.124 56.6294 132.219 51.7291C132.197 51.6131 132.133 51.5094 132.037 51.4393C131.942 51.3691 131.824 51.3378 131.706 51.3516C131.588 51.3654 131.481 51.4233 131.404 51.5135C131.328 51.6038 131.289 51.7196 131.296 51.8374C131.431 54.0986 129.161 56.7326 127.05 54.1619C127.019 54.1109 126.979 54.0665 126.931 54.031C126.884 53.9955 126.829 53.9697 126.772 53.9551C126.714 53.9405 126.654 53.9373 126.595 53.9458C126.536 53.9543 126.479 53.9743 126.428 54.0046C126.377 54.0349 126.332 54.075 126.297 54.1225C126.261 54.17 126.235 54.224 126.221 54.2815C126.206 54.339 126.203 54.3988 126.211 54.4575C126.22 54.5162 126.24 54.5726 126.27 54.6236Z" fill="#191919"></path><path d="M127.459 40.4796C128.743 39.0835 130.751 39.3561 132.176 40.6165C132.218 40.6602 132.267 40.6955 132.322 40.7202C132.377 40.7449 132.437 40.7586 132.497 40.7604C132.557 40.7623 132.617 40.7523 132.674 40.731C132.73 40.7097 132.782 40.6775 132.826 40.6364C132.87 40.5952 132.905 40.5458 132.93 40.491C132.955 40.4362 132.969 40.3771 132.971 40.317C132.972 40.2569 132.962 40.1971 132.941 40.1408C132.92 40.0846 132.887 40.0332 132.846 39.9894C131.036 37.6822 127.718 37.5729 126.692 39.9894C126.452 40.545 127.032 40.9423 127.459 40.4796Z" fill="#191919"></path><path d="M129.724 42.9611C130.091 42.8632 130.48 42.8822 130.836 43.0155C131.192 43.1489 131.497 43.3898 131.708 43.7044C131.92 44.0191 132.027 44.3918 132.014 44.7702C132.002 45.1486 131.872 45.5137 131.64 45.8143C131.409 46.1149 131.09 46.3359 130.726 46.4463C130.362 46.5567 129.973 46.551 129.613 46.4299C129.253 46.3089 128.94 46.0786 128.718 45.7713C128.495 45.4641 128.376 45.0953 128.375 44.7167C128.326 44.3068 128.44 43.8943 128.692 43.5666C128.944 43.2389 129.314 43.0217 129.724 42.9611Z" fill="#191919"></path><path d="M84.912 22.6665C83.7908 18.7491 81.9018 15.0916 79.3541 11.9049C76.8064 8.71824 73.6503 6.0654 70.0679 4.09945C66.4855 2.1335 62.5477 0.893326 58.4816 0.450481C54.4155 0.00763633 50.3016 0.370878 46.3772 1.51925C42.4528 2.66763 38.7955 4.57841 35.6163 7.14138C32.4372 9.70436 29.799 12.8688 27.8541 16.4522C25.9091 20.0356 24.6958 23.967 24.2842 28.0196C23.8726 32.0723 24.2708 36.166 25.4559 40.0647C26.6113 43.9848 28.5314 47.6397 31.1062 50.8203C33.6811 54.001 36.8602 56.645 40.4619 58.6013C44.0636 60.5576 48.0171 61.7877 52.0965 62.2213C56.1759 62.6549 60.3011 62.2835 64.2362 61.1284C68.1542 59.9957 71.8053 58.0945 74.9749 55.5365C78.1444 52.9785 80.7686 49.8154 82.693 46.233C84.6175 42.6507 85.8034 38.7213 86.1811 34.676C86.5588 30.6307 86.1207 26.551 84.8925 22.6767L84.912 22.6665ZM76.7268 50.476C73.0893 54.4249 68.4108 57.2765 63.2247 58.7058C58.0386 60.1351 52.5536 60.0845 47.395 58.5599C42.2364 57.0352 37.6117 54.0978 34.0482 50.0825C30.4848 46.0673 28.1259 41.1357 27.2405 35.8501C26.3551 30.5645 26.9788 25.1374 29.0406 20.1877C31.1024 15.238 34.5192 10.9647 38.9015 7.85514C43.2839 4.74554 48.4554 2.92471 53.8266 2.60023C59.1977 2.27575 64.5524 3.46068 69.2801 6.01993C86.3642 15.0893 89.4205 36.6106 76.7268 50.476Z" fill="#191919"></path><path d="M55.2752 31.9963C58.1899 32.1648 62.1199 31.8635 65.4705 31.9278C65.5893 31.9283 65.7032 31.9747 65.7884 32.0572C65.8735 32.1397 65.9231 32.2518 65.9268 32.3701C65.9306 32.4883 65.8881 32.6033 65.8083 32.691C65.7285 32.7786 65.6177 32.832 65.4992 32.8399C61.8523 33.1289 58.4432 33.7591 54.4875 33.468C54.3039 33.4532 54.1318 33.3726 54.0032 33.2412C53.8746 33.1097 53.7982 32.9363 53.7881 32.7531C53.3779 25.8173 52.6692 22.3243 52.901 16.558C52.8957 16.4382 52.9383 16.3213 53.0196 16.2329C53.1009 16.1445 53.2141 16.0919 53.3343 16.0866C53.4545 16.0813 53.5719 16.1238 53.6607 16.2048C53.7494 16.2857 53.8023 16.3984 53.8076 16.5181C53.8199 16.6274 54.8516 24.0402 55.2752 31.9963Z" fill="#191919"></path><path d="M30.821 32.6917C32.1963 32.7017 33.57 32.5992 34.9285 32.3853C35.0442 32.3701 35.1499 32.312 35.2245 32.2226C35.2991 32.1332 35.3371 32.0191 35.3309 31.903C35.3246 31.7869 35.2747 31.6775 35.191 31.5965C35.1072 31.5155 34.9959 31.4689 34.8792 31.4661C33.4581 31.2229 31.9985 31.3377 30.6333 31.8001C30.059 32.0615 30.1985 32.6845 30.821 32.6917Z" fill="#191919"></path><path d="M77.0676 31.1119C78.2459 31.2667 79.4405 31.2502 80.614 31.0629C80.7298 31.0477 80.8355 30.9896 80.9101 30.9002C80.9847 30.8108 81.0227 30.6967 81.0164 30.5806C81.0102 30.4645 80.9603 30.3551 80.8765 30.2741C80.7928 30.1931 80.6815 30.1465 80.5648 30.1437C79.3631 29.8285 78.0966 29.8557 76.9096 30.2223C76.3384 30.4644 76.4471 31.0608 77.0676 31.1119Z" fill="#191919"></path><path d="M53.1068 6.11186C52.9109 5.5154 52.2864 5.57873 52.2002 6.1905C52.1207 7.73734 52.2903 9.28689 52.7028 10.7803C52.8956 11.4238 53.6176 11.2624 53.6196 10.6782C53.6592 9.13989 53.4867 7.60345 53.1068 6.11186Z" fill="#191919"></path><path d="M55.4046 53.2255C55.3506 54.4468 55.5245 55.6675 55.9174 56.8256C55.9434 56.9393 56.0113 57.0392 56.1077 57.1054C56.204 57.1717 56.3218 57.1996 56.4378 57.1835C56.5537 57.1675 56.6595 57.1087 56.734 57.0188C56.8086 56.9289 56.8466 56.8144 56.8405 56.698C56.87 55.4791 56.6868 54.2644 56.299 53.108C56.0405 52.4983 55.4744 52.627 55.4046 53.2255Z" fill="#191919"></path><path d="M158.633 123.76C157.205 123.28 155.746 122.896 154.267 122.61L154.202 121.834C154.203 121.77 154.191 121.706 154.166 121.647C154.14 121.588 154.103 121.535 154.056 121.491C154.009 121.447 153.954 121.413 153.893 121.391C153.832 121.37 153.768 121.361 153.703 121.366C153.639 121.371 153.577 121.389 153.52 121.419C153.463 121.449 153.413 121.491 153.373 121.541C153.333 121.592 153.304 121.65 153.288 121.712C153.272 121.774 153.269 121.839 153.279 121.902V122.382C150.37 121.744 141.775 119.523 135.628 118.43C132.981 117.888 130.282 117.641 127.58 117.693C127.46 117.688 127.342 117.729 127.252 117.809C127.162 117.889 127.107 118.001 127.1 118.121C127.092 118.241 127.132 118.359 127.21 118.45C127.289 118.54 127.401 118.597 127.521 118.607C128.09 118.685 133.684 119.638 133.786 119.655C139.621 120.65 143.997 121.841 148.393 122.687C157.819 124.5 158.765 125.083 158.957 124.321C158.986 124.204 158.968 124.08 158.908 123.976C158.848 123.871 158.749 123.794 158.633 123.76Z" fill="#191919"></path><path d="M113.156 126.162C114.371 126.481 115.645 126.501 116.87 126.221C117.491 126.055 119.263 125.476 118.948 124.818C118.731 124.348 118.296 124.661 117.372 124.828C116.087 125.016 114.777 124.962 113.511 124.671C112.399 124.377 111.332 123.935 110.339 123.357C108.822 122.568 108.631 122.385 108.349 122.7C107.795 123.28 109.91 125.456 113.156 126.162Z" fill="#191919"></path><path d="M110.755 131.541C111.859 131.951 113.025 132.17 114.203 132.188C115.383 132.257 116.565 132.09 117.68 131.698C118.415 131.417 119.532 131.037 119.295 130.472C119.128 130.027 118.739 130.229 117.808 130.384C116.637 130.582 115.45 130.674 114.262 130.659C113.229 130.604 112.205 130.436 111.209 130.159C109.813 129.917 109.453 129.723 109.249 130.148C108.995 130.674 110.373 131.382 110.755 131.541Z" fill="#191919"></path><path d="M84.6862 109.701C85.0964 112.985 85.7118 114.456 86.3702 119.353C86.3838 119.413 86.3852 119.475 86.3743 119.536C86.3634 119.596 86.3404 119.654 86.3066 119.706C86.2729 119.757 86.2291 119.801 86.1778 119.836C86.1266 119.87 86.0689 119.894 86.0083 119.906C85.9477 119.917 85.8853 119.917 85.8249 119.904C85.7644 119.891 85.7071 119.867 85.6564 119.832C85.6057 119.796 85.5626 119.752 85.5297 119.7C85.4967 119.648 85.4746 119.589 85.4646 119.529C84.3692 116.174 83.5683 112.731 83.0709 109.239C83.0525 109.059 83.0975 108.879 83.1982 108.729C83.2989 108.578 83.449 108.468 83.6227 108.416C84.6005 108.131 85.545 107.742 86.44 107.258C87.7791 106.473 89.0714 105.611 90.3105 104.678C90.3525 104.636 90.4023 104.602 90.4572 104.58C90.5121 104.557 90.571 104.545 90.6305 104.545C90.69 104.545 90.7489 104.557 90.8038 104.58C90.8587 104.602 90.9085 104.636 90.9505 104.678C91.0358 104.764 91.0836 104.88 91.0836 105.001C91.0836 105.123 91.0358 105.239 90.9505 105.325C89.3612 107.388 87.1747 108.915 84.6862 109.701Z" fill="#191919"></path><path d="M81.0101 99.616C82.166 99.2071 83.268 98.6605 84.292 97.988C85.4942 97.2641 86.5553 96.3299 87.4241 95.2304C87.9461 94.5462 88.3605 94.0518 87.9759 93.7301C87.5861 93.3798 87.2949 93.8323 86.577 94.4062C86.1667 94.7484 84.4704 96.0536 83.4643 96.692C80.7106 98.3945 78.6626 98.7908 78.8841 99.5517C79.0451 100.129 80.4235 99.7733 81.0101 99.616Z" fill="#191919"></path><path d="M82.7152 104.688C83.9021 104.338 85.021 103.791 86.0248 103.069C87.1834 102.303 88.1888 101.328 88.9897 100.195C89.5118 99.4804 89.8994 99.031 89.5025 98.695C89.0872 98.3641 88.7928 98.8155 88.1139 99.4099C85.2115 101.988 84.1213 102.532 82.2527 103.304C80.9061 103.917 80.5 104.011 80.5882 104.428C80.6805 105.029 82.1686 104.809 82.7152 104.688Z" fill="#191919"></path><path d="M131.691 106.425C131.689 106.365 131.675 106.306 131.649 106.251C131.623 106.196 131.587 106.148 131.542 106.107C131.497 106.067 131.444 106.036 131.387 106.017C131.329 105.997 131.269 105.989 131.208 105.993C127.421 106.035 123.414 105.77 117.322 105.936C117.289 104.23 117.219 98.7979 117.2 97.7878C130.95 93.7638 131.642 94.2928 131.542 93.4522C131.519 93.334 131.45 93.2295 131.351 93.1614C131.251 93.0933 131.128 93.0671 131.009 93.0887C127.222 93.4185 125.419 93.7249 116.205 96.5029C116.046 96.552 115.907 96.6512 115.809 96.7856C115.711 96.9201 115.66 97.0825 115.662 97.2485C115.752 98.9633 115.717 100.445 116.363 105.964C114.242 106.05 106.456 106.567 104.466 106.543C104.346 106.532 104.227 106.57 104.134 106.647C104.042 106.724 103.984 106.835 103.974 106.954C103.963 107.074 104.001 107.193 104.079 107.284C104.156 107.376 104.267 107.434 104.387 107.444C105.503 107.636 106.63 107.762 107.761 107.821C108.028 109.069 109.495 115.308 109.952 117.185C109.913 117.239 109.886 117.301 109.873 117.367C109.861 117.433 109.863 117.5 109.88 117.565C109.897 117.63 109.928 117.69 109.972 117.741C110.015 117.793 110.069 117.834 110.129 117.862C113.991 120.211 119.257 118.928 123.369 117.087C125.325 116.277 126.983 114.886 128.116 113.104C128.159 113.036 128.185 112.958 128.189 112.878C128.194 112.798 128.177 112.719 128.142 112.647C128.106 112.575 128.052 112.513 127.986 112.468C127.92 112.423 127.842 112.395 127.762 112.389L128.275 107.159C129.269 107.091 130.263 107.005 131.256 106.9C131.377 106.894 131.491 106.841 131.572 106.752C131.654 106.663 131.697 106.545 131.691 106.425Z" fill="#191919"></path><path d="M96.048 127.694C89.2668 134.607 73.4954 139.337 65.9758 131.599C61.1556 126.657 60.5484 117.857 61.4048 110.989C61.7451 107.853 62.5107 104.778 63.6806 101.847C63.7314 101.738 63.737 101.614 63.696 101.502C63.655 101.389 63.5709 101.298 63.4621 101.247C63.3533 101.196 63.2288 101.191 63.1159 101.232C63.003 101.272 62.911 101.356 62.8601 101.465C58.6408 109.757 58.1834 122.74 62.9873 130.283C62.7883 130.277 61.5812 130.283 61.1412 130.303C58.5167 130.529 58.846 131.835 61.2304 131.835C62.1449 131.856 63.0595 131.797 63.9636 131.659C71.5447 141.109 88.5345 137.066 96.7105 128.334C96.7819 128.244 96.8173 128.131 96.8098 128.017C96.8023 127.902 96.7524 127.795 96.6698 127.715C96.5873 127.635 96.4779 127.589 96.363 127.585C96.248 127.581 96.1358 127.62 96.048 127.694Z" fill="#191919"></path><path d="M26.085 138.778C26.5801 139.004 27.0987 139.175 27.6316 139.288C29.13 139.484 30.6439 139.536 32.1523 139.445C33.4096 139.39 34.6593 139.223 35.8865 138.945C36.0029 138.93 36.109 138.871 36.1835 138.78C36.2579 138.69 36.2951 138.575 36.2876 138.458C36.28 138.341 36.2283 138.232 36.1428 138.151C36.0573 138.071 35.9444 138.026 35.827 138.026C31.7042 137.773 33.2056 138.081 27.8674 137.839C27.209 137.798 26.8214 137.888 26.2624 137.888C26.1423 137.866 26.0184 137.892 25.9171 137.96C25.8159 138.028 25.7455 138.133 25.7209 138.252C25.6999 138.369 25.7263 138.491 25.7945 138.589C25.8626 138.688 25.967 138.755 26.085 138.778Z" fill="#191919"></path><path d="M86.1165 88.2803C85.6129 88.6889 85.0909 89.0882 84.5525 89.4814C83.7002 86.8096 82.3721 84.2645 81.8706 81.5907C81.8387 81.4338 81.7592 81.2905 81.643 81.18C81.5267 81.0695 81.3792 80.9972 81.2204 80.9728C79.9199 80.7869 71.2517 79.7472 68.218 79.3448C67.7596 79.2876 67.6488 79.3182 64.5536 82.9541C64.4538 83.0732 64.3936 83.2201 64.3813 83.3747C64.369 83.5293 64.4052 83.6839 64.4849 83.8171C65.6387 85.726 66.0233 87.8963 69.9625 94.6636C68.1165 94.3572 65.9987 93.4727 65.1054 91.8304C65.057 91.7211 64.9669 91.6355 64.8551 91.5923C64.7432 91.5491 64.6188 91.5519 64.509 91.6001C64.3993 91.6483 64.3132 91.738 64.2699 91.8494C64.2265 91.9608 64.2293 92.0847 64.2777 92.194C64.8162 93.8281 66.1915 95.2447 68.7606 95.9607C72.428 96.9473 76.714 95.8504 80.1568 93.9885C82.581 92.6338 84.7971 90.9391 86.737 88.9564C86.827 88.8745 86.8807 88.7603 86.8862 88.639C86.8916 88.5176 86.8485 88.3991 86.7662 88.3094C86.6839 88.2198 86.5693 88.1663 86.4474 88.1609C86.3256 88.1554 86.2065 88.1984 86.1165 88.2803ZM81.1127 91.1237C80.5999 91.3678 80.2686 90.6661 79.5569 89.4896C78.8799 88.3056 78.2843 87.0771 77.7744 85.8128C75.7725 86.0692 69.7082 84.7557 69.4169 84.7037C69.2965 84.6943 69.1844 84.639 69.1038 84.5495C69.0232 84.4599 68.9803 84.3428 68.9841 84.2226C68.9921 84.1023 69.0469 83.9899 69.137 83.9093C69.2271 83.8288 69.3452 83.7866 69.4662 83.7916C71.1804 83.6489 72.9063 83.7445 74.5941 84.0755C75.8196 84.2737 77.0832 84.3952 77.8534 84.625C78.2882 83.9785 79.724 81.9267 80.3609 82.4016C80.7322 82.6661 80.4768 83.0828 79.9661 84.147C79.7431 84.5481 79.5001 84.9377 79.2379 85.3144C79.8707 86.8913 80.0645 87.0987 80.7763 88.9054C81.3291 90.3781 81.5762 90.9031 81.1127 91.1237Z" fill="#191919"></path><path d="M39.7594 79.2517C40.4564 79.2507 41.138 79.4557 41.718 79.8407C42.2979 80.2256 42.7501 80.7733 43.0173 81.4144C43.2845 82.0555 43.3547 82.7611 43.219 83.4419C43.0832 84.1227 42.7477 84.7481 42.2549 85.2389C41.762 85.7297 41.134 86.0638 40.4503 86.199C39.7667 86.3342 39.0581 86.2643 38.4144 85.9982C37.7707 85.7321 37.2207 85.2818 36.8341 84.7042C36.4475 84.1267 36.2417 83.4479 36.2427 82.7538C36.2438 81.8253 36.6146 80.9352 37.2739 80.2786C37.9332 79.6221 38.827 79.2528 39.7594 79.2517Z" fill="#0A65FC"></path><path d="M58.5794 106.81C58.443 106.799 56.8359 106.646 55.5129 106.606C55.4873 103.22 55.2914 82.8093 55.2914 82.8093C55.2922 82.7498 55.2811 82.6907 55.2586 82.6355C55.2361 82.5804 55.2027 82.5303 55.1605 82.4882C55.1182 82.4461 55.0679 82.4129 55.0126 82.3905C54.9572 82.3681 54.8979 82.357 54.8381 82.3578C54.8381 82.3578 49.9153 82.2557 43.9997 82.1689C43.8685 81.1697 43.3532 80.2601 42.5623 79.6316C41.7714 79.003 40.7664 78.7044 39.759 78.7985C38.7833 78.7499 37.8232 79.056 37.0574 79.6599C36.2916 80.2638 35.7723 81.1242 35.5961 82.0811C29.298 82.0392 23.8881 82.0535 23.8881 82.0535C23.7888 82.0536 23.6906 82.0733 23.599 82.1113C23.5074 82.1494 23.4242 82.205 23.3543 82.2752C23.2843 82.3453 23.229 82.4285 23.1914 82.52C23.1538 82.6114 23.1347 82.7094 23.1353 82.8082V111.537C23.1344 111.635 23.1534 111.732 23.1912 111.822C23.2289 111.912 23.2847 111.994 23.355 112.062C23.4254 112.131 23.5089 112.184 23.6005 112.219C23.6921 112.254 23.7899 112.271 23.8881 112.267H48.2713C47.4897 115.159 46.4248 117.967 45.092 120.651C45.0356 120.755 45.0215 120.877 45.0526 120.991C45.0837 121.105 45.1577 121.203 45.2592 121.264C45.3101 121.295 45.3668 121.315 45.4257 121.324C45.4846 121.333 45.5447 121.329 45.6025 121.315C45.6602 121.3 45.7145 121.274 45.762 121.239C45.8096 121.203 45.8496 121.158 45.8796 121.107C47.6818 118.398 49.0164 115.409 49.8281 112.262H54.835C55.0257 112.257 55.2069 112.178 55.3395 112.041C55.472 111.905 55.5454 111.722 55.5437 111.532C55.5437 111.532 55.5345 110.152 55.5201 107.999C56.7826 107.903 57.6738 107.784 58.5866 107.693C58.6473 107.696 58.7082 107.687 58.7653 107.667C58.8225 107.646 58.8747 107.614 58.9188 107.572C58.9629 107.53 58.998 107.48 59.0217 107.424C59.0455 107.368 59.0575 107.308 59.057 107.248C59.0565 107.187 59.0435 107.127 59.0189 107.072C58.9942 107.017 58.9583 106.967 58.9136 106.926C58.8688 106.885 58.816 106.853 58.7585 106.834C58.7011 106.814 58.6401 106.806 58.5794 106.81ZM37.7098 80.7135C37.9676 80.4186 38.2817 80.1778 38.6338 80.0051C38.986 79.8324 39.3692 79.7312 39.761 79.7075C40.1483 79.745 40.5244 79.8583 40.8676 80.0409C41.2108 80.2235 41.5144 80.4719 41.7609 80.7717C42.1374 81.1665 42.3901 81.662 42.4883 82.1975C42.5864 82.7331 42.5257 83.2855 42.3135 83.7872C42.1013 84.289 41.7468 84.7182 41.2935 85.0225C40.8402 85.3268 40.3076 85.4929 39.761 85.5005C39.2091 85.4897 38.672 85.3205 38.2144 85.013C37.7567 84.7056 37.398 84.273 37.1813 83.7674C36.9647 83.2617 36.8993 82.7045 36.9931 82.1628C37.0868 81.621 37.3357 81.1178 37.7098 80.7135ZM24.6419 110.791V83.5508C26.3382 83.5508 30.6805 83.5508 35.5705 83.5211C35.739 84.5057 36.2521 85.3991 37.0187 86.043C37.7853 86.687 38.756 87.04 39.759 87.0396C40.7812 87.0398 41.77 86.6768 42.5475 86.016C43.3251 85.3551 43.8404 84.4397 44.0008 83.4343C48.8456 83.3649 53.031 83.2791 54.3848 83.2566C54.3653 84.6793 54.1899 103.216 54.1674 106.591C52.8146 106.591 51.4609 106.616 50.1184 106.546C49.9302 106.539 49.746 106.601 49.6008 106.72C49.4556 106.84 49.3595 107.008 49.3307 107.193C49.1615 108.395 48.9318 109.598 48.6487 110.791H24.6419ZM50.1994 110.791C50.4045 109.889 50.5812 108.984 50.7296 108.076C51.869 108.106 53.0146 108.107 54.1581 108.076C54.1499 109.258 54.1438 110.2 54.1387 110.797L50.1994 110.791Z" fill="#191919"></path><path d="M143.133 42.8681C144.262 36.7718 144.321 30.4733 138.905 27.4134C136.804 26.2338 134.244 25.8191 132 25.1665C130.277 21.644 126.528 16.2882 122.73 15.3189C120.431 14.7379 118.006 14.8836 115.793 15.7358C113.58 16.588 111.688 18.1045 110.378 20.0752C106.88 25.2554 107.93 32.4526 113.807 35.0601C118.248 37.0302 124.568 36.4154 129.379 35.4134C130.422 35.2 131.71 36.0987 132.906 36.5369C133.24 38.2029 134.057 39.7349 135.257 40.9431C136.456 42.1514 137.985 42.9829 139.654 43.3348C142.623 44.0252 142.861 43.9476 143.732 44.7167C144.086 45.0084 144.376 45.3699 144.583 45.7786C144.79 46.1872 144.909 46.6341 144.934 47.091C144.959 47.548 144.889 48.0052 144.728 48.4337C144.567 48.8623 144.318 49.253 143.998 49.5812C142.696 50.7286 141.028 51.3798 139.29 51.4196C139.122 51.4333 138.963 51.4995 138.836 51.6087C138.709 51.7178 138.619 51.8644 138.581 52.0273C137.879 54.6849 136.95 57.2777 135.803 59.7771C135.695 59.9103 135.64 60.0773 135.646 60.2479C135.657 63.9647 135.874 67.6781 136.296 71.3711C136.306 71.5046 136.365 71.6298 136.461 71.7236C136.557 71.8174 136.684 71.8736 136.818 71.8818C137.804 71.9137 138.788 72.0089 139.762 72.1667C139.88 72.1825 140 72.1522 140.096 72.0821C140.192 72.0121 140.257 71.9077 140.277 71.7909C140.298 71.6742 140.272 71.5541 140.205 71.4558C140.139 71.3576 140.037 71.2888 139.92 71.2639C139.081 71.0725 138.233 70.9252 137.379 70.8227C137.23 67.963 137.162 63.367 137.162 60.4542C138.293 58.0173 139.229 55.4953 139.96 52.9117C147.96 51.9783 148.014 44.5737 143.133 42.8681ZM112.366 29.5807C112.107 29.2089 111.937 28.7832 111.869 28.3362C111.801 27.8891 111.836 27.4324 111.971 27.0008C112.061 26.772 112.198 26.5749 112.445 26.5923C112.692 26.6096 112.799 26.818 112.867 27.0529C113.074 27.7924 113.196 28.5526 113.233 29.3192C113.278 29.9637 112.654 30.1046 112.366 29.5807ZM121.522 19.2112C121.512 19.2686 121.489 19.3233 121.457 19.3721C121.425 19.4209 121.384 19.4629 121.335 19.4957C121.287 19.5284 121.232 19.5513 121.174 19.5629C121.117 19.5746 121.058 19.5748 121 19.5635C120.803 19.5738 120.626 19.6126 120.438 19.632C119.397 19.7102 118.383 19.9994 117.458 20.4819C116.534 20.9643 115.717 21.6298 115.06 22.4375C114.524 23.0125 114.043 23.6366 113.624 24.3015C113.601 24.3572 113.567 24.4077 113.524 24.4501C113.481 24.4926 113.43 24.526 113.374 24.5486C113.317 24.5712 113.257 24.5824 113.197 24.5815C113.136 24.5807 113.076 24.5679 113.021 24.5439C112.965 24.5198 112.915 24.485 112.873 24.4414C112.831 24.3978 112.799 24.3464 112.777 24.2901C112.755 24.2338 112.745 24.1737 112.747 24.1134C112.749 24.0531 112.762 23.9938 112.787 23.9389C113.04 23.0808 113.436 22.2713 113.96 21.5449C115.341 19.5983 118.141 18.0132 120.194 18.4156C120.524 18.4779 120.847 18.5698 121.16 18.6903C121.277 18.7129 121.38 18.7801 121.447 18.8774C121.515 18.9748 121.542 19.0946 121.522 19.2112Z" fill="#191919"></path><path d="M183.816 116.664C182.505 109.689 180.752 102.832 177.392 96.4766C170.813 84.0379 158.087 74.5631 144.04 72.2866C143.839 72.2534 143.632 72.2761 143.443 72.3523C143.253 72.4286 143.088 72.5553 142.967 72.7186C140.031 76.5639 135.685 80.3989 130.841 81.2619C127.975 81.7818 123.187 81.3641 121.848 78.2409C121.364 76.9417 121.274 75.5294 121.591 74.1801C121.626 73.9949 121.613 73.8039 121.554 73.6249C121.495 73.446 121.391 73.2849 121.253 73.1566C121.114 73.0283 120.945 72.9371 120.761 72.8914C120.578 72.8457 120.386 72.847 120.203 72.8953C112.287 74.9064 104.815 78.3655 98.1681 83.0962C95.6482 84.7972 93.3285 86.775 91.2526 88.9923C92.0583 89.6624 92.6805 90.5247 93.0612 91.4989C93.442 92.4731 93.5688 93.5275 93.4299 94.5636C94.1223 95.196 94.6094 96.0199 94.8286 96.9297C95.0479 97.8395 94.9894 98.7938 94.6606 99.6703C97.6748 104.594 91.47 108.754 87.7358 110.882C90.9377 117.042 98.5516 128.499 98.6696 128.814C98.7239 128.934 99.6429 148.885 99.7639 148.824C105.507 148.245 111.318 148.952 117.09 148.835C125.442 148.667 134.061 148.334 142.422 148.315C142.438 148.315 142.453 148.309 142.465 148.299C142.477 148.289 142.485 148.275 142.487 148.26C142.49 148.244 142.487 148.228 142.479 148.215C142.47 148.202 142.457 148.192 142.442 148.187C136.69 146.666 128.691 144.116 124.16 140.457C119.886 142.105 114.754 141.32 110.596 139.623C107.583 138.377 105.288 135.141 109.887 134.101C107.878 132.355 105.662 128.97 109.552 128.075C107.307 126.231 103.997 121.356 108.922 120.492C108.351 117.196 107.513 113.822 106.617 110.585C100.166 109.959 100.615 105.849 102.982 104.876C106.44 103.434 111.443 104.297 115.158 104.288C114.823 102.414 114.517 100.521 114.32 98.6173C114.26 97.98 114.054 96.9893 114.497 96.4398C115.443 95.253 117.58 95.0467 118.93 94.6648C122.762 93.5658 126.987 91.7213 131.055 92.1115C132.75 92.2687 134.384 93.5536 132.809 95.1335C131.732 95.9574 130.472 96.5121 129.135 96.7513C124.961 98.0606 127.962 97.5163 119.452 99.4885C119.518 100.953 119.682 102.411 119.944 103.854C123.052 103.712 126.167 103.84 129.252 104.237C130.555 104.295 131.844 104.529 133.084 104.932C134.405 105.492 134.936 107.1 133.458 107.856C131.886 108.466 130.196 108.714 128.514 108.581C128.514 108.581 128.435 114.173 128.298 116.723C134.554 117.822 140.718 119.333 146.963 120.502C148.736 120.835 150.499 121.748 152.302 121.512C161.916 120.227 171.668 120.208 181.351 119.766C181.727 119.748 182.094 119.65 182.429 119.479C182.764 119.307 183.058 119.067 183.291 118.773C183.525 118.479 183.692 118.139 183.783 117.775C183.873 117.411 183.884 117.032 183.816 116.664ZM114.124 79.7361C106.893 83.2035 103.815 85.5944 99.0142 88.6134C98.9222 88.6815 98.8074 88.7116 98.6937 88.6975C98.5801 88.6834 98.4762 88.6262 98.4038 88.5377C98.3314 88.4493 98.296 88.3365 98.305 88.2228C98.314 88.109 98.3667 88.0031 98.4522 87.9271C99.0642 87.2667 99.7193 86.6471 100.413 86.0724C102.07 84.7949 103.811 83.6284 105.623 82.5805C108.181 81.0181 110.924 79.7793 113.79 78.8925C113.845 78.8706 113.905 78.8599 113.965 78.8609C114.024 78.8619 114.083 78.8746 114.138 78.8983C114.193 78.922 114.243 78.9563 114.284 78.9991C114.326 79.0419 114.359 79.0924 114.38 79.1478C114.402 79.2032 114.413 79.2624 114.412 79.3219C114.411 79.3814 114.398 79.4402 114.375 79.4948C114.351 79.5495 114.316 79.5989 114.273 79.6403C114.23 79.6817 114.18 79.7142 114.124 79.7361Z" fill="#0A65FC"></path><path d="M199.886 147.478C160.514 147.545 164.457 147.683 165.062 147.478C175.669 143.854 182.896 134.458 181.779 121.72C181.768 121.596 181.71 121.482 181.616 121.402C181.522 121.321 181.4 121.28 181.276 121.289C181.155 121.298 181.042 121.355 180.963 121.447C180.883 121.539 180.844 121.658 180.852 121.779C182.007 141.361 163.333 151.973 144.278 145.684C139.284 143.953 134.43 141.844 129.759 139.376C125.503 136.925 125.691 136.056 124.854 136.365C120.291 138.176 113.831 138.802 110.03 135.698C109.937 135.62 109.817 135.582 109.696 135.592C109.575 135.602 109.463 135.659 109.385 135.752C109.306 135.844 109.268 135.963 109.278 136.084C109.288 136.204 109.345 136.316 109.438 136.394C113.354 139.904 120.015 139.688 124.972 137.906C128.161 140.602 132.269 142.427 136.093 144.124C139.197 145.552 142.401 146.755 145.68 147.722C138.594 147.775 65.2272 148.437 58.0625 148.502L58.0256 145.656C59.9004 145.957 61.8084 145.991 63.6929 145.758C63.8458 145.733 63.9876 145.663 64.1002 145.557C64.2127 145.451 64.2909 145.314 64.3247 145.163C64.3586 145.012 64.3465 144.855 64.29 144.711C64.2335 144.568 64.1353 144.444 64.0078 144.356C62.1729 143.053 60.2642 141.855 58.2912 140.77C58.2912 131.638 58.4512 131.24 57.7989 129.692C57.2969 128.484 56.4475 127.45 55.3573 126.722C54.2672 125.993 52.985 125.602 51.6721 125.597H28.7493C27.5247 125.597 27.7298 125.801 26.5053 125.801L11.3461 125.597C10.4817 125.591 9.62457 125.755 8.8238 126.08C8.02302 126.404 7.29426 126.882 6.67912 127.487C6.06399 128.092 5.57453 128.812 5.23871 129.605C4.90289 130.398 4.72728 131.25 4.72191 132.111V149.28C2.19282 149.333 0.814439 149.365 0.814439 149.365C0.75491 149.365 0.696083 149.378 0.641317 149.401C0.586551 149.424 0.536919 149.458 0.495254 149.5C0.411107 149.586 0.364522 149.701 0.365746 149.821C0.36697 149.941 0.415903 150.055 0.50178 150.139C0.587658 150.222 0.703444 150.269 0.823669 150.268L199.897 148.423C200.022 148.422 200.142 148.371 200.23 148.281C200.318 148.192 200.367 148.071 200.366 147.946C200.364 147.82 200.313 147.701 200.223 147.613C200.133 147.526 200.012 147.477 199.886 147.478ZM61.2808 144.379C57.1415 144.254 47.4282 142.804 44.0428 142.289C44.1525 142.289 53.5345 141.897 57.1241 141.897C58.5604 142.637 59.9486 143.466 61.2808 144.379ZM7.15254 131.371C7.1628 130.855 8.35658 130.722 8.87655 130.675C9.48677 130.628 12.6938 130.692 13.9101 130.812C15.3787 130.982 16.4556 131.098 16.4218 131.665C16.3951 132.114 15.991 132.133 14.5306 132.225C13.2025 132.308 9.34319 132.197 8.8468 132.123C8.67451 132.112 7.14229 131.906 7.15254 131.371ZM21.3517 146.207C21.3056 146.804 19.6975 146.846 19.0955 146.874C18.7509 146.893 18.4155 146.912 18.0699 146.903C17.3253 146.885 16.3756 146.606 16.3848 146.137C16.4012 145.368 18.0904 145.367 18.5724 145.353C18.8083 145.344 19.0349 145.334 19.2719 145.344C19.9672 145.375 21.3979 145.606 21.3517 146.207ZM18.7273 139.746C17.4843 139.828 14.4014 139.917 12.9153 139.933C12.181 139.945 8.79963 140.104 8.76783 139.32C8.73194 138.383 13.345 138.395 14.2547 138.368C16.2372 138.305 17.9704 138.296 18.8155 138.309C21.9097 138.359 22.3127 138.405 22.3322 138.907C22.3537 139.44 21.5445 139.53 18.7273 139.746ZM57.0554 148.509C49.7081 148.579 25.5002 148.705 23.6214 148.705V132.216C23.6243 130.861 24.1652 129.563 25.126 128.605C26.0868 127.646 27.3893 127.105 28.7493 127.1C53.4207 127.1 52.3305 126.94 53.6412 127.478C54.2675 127.733 54.8366 128.11 55.3152 128.587C55.7937 129.063 56.1723 129.63 56.4287 130.254C56.7325 130.976 56.8702 131.757 56.8318 132.539C55.0637 132.372 54.8996 132.334 53.395 132.256C50.0534 132.148 46.7082 132.243 43.3782 132.541C43.3187 132.533 43.2583 132.537 43.2004 132.552C43.1425 132.568 43.0883 132.595 43.0407 132.631C42.9932 132.668 42.9534 132.713 42.9235 132.765C42.8935 132.816 42.8742 132.874 42.8664 132.933C42.8587 132.992 42.8627 133.052 42.8783 133.11C42.8939 133.167 42.9208 133.221 42.9573 133.269C42.9939 133.316 43.0395 133.356 43.0915 133.386C43.1434 133.415 43.2008 133.435 43.2602 133.442C45.7022 134.098 46.6641 133.813 49.6127 133.766C53.8289 133.675 53.0997 133.813 56.8318 133.519V140.362C50.9638 140.337 45.1021 140.744 39.2943 141.579C39.1398 141.566 38.986 141.612 38.8637 141.707C38.7414 141.802 38.6597 141.939 38.6348 142.091C38.6099 142.244 38.6437 142.4 38.7295 142.529C38.8153 142.657 38.9467 142.749 39.0974 142.785C40.7158 143.118 42.3967 143.143 43.7207 143.413C48.1373 144.385 52.6077 145.096 57.1087 145.542L57.0554 148.509Z" fill="#191919"></path><path d="M146.199 104.987C145.739 104.621 145.293 104.085 144.918 103.771C144.435 103.4 144.026 103.277 144.209 102.859C144.561 101.923 146.839 103.701 147.302 103.977C147.463 104.093 147.575 104.264 147.617 104.457C149.343 113.703 148.437 107.914 150.03 117.582C150.052 117.7 150.028 117.821 149.963 117.921C149.897 118.02 149.796 118.092 149.68 118.119C149.563 118.147 149.441 118.129 149.337 118.069C149.234 118.009 149.157 117.912 149.124 117.798C148.186 114.724 147.777 113.907 146.199 104.987Z" fill="#191919"></path><path d="M98.9325 111.036C98.8474 111.602 98.7274 112.208 98.6371 113.352C98.553 114.986 98.6474 120.901 98.6956 122.023C98.7694 123.314 98.8525 124.198 98.9622 125.485C98.9593 125.546 98.9689 125.607 98.9903 125.664C99.0118 125.722 99.0446 125.774 99.087 125.818C99.1293 125.862 99.1802 125.897 99.2366 125.921C99.293 125.946 99.3537 125.958 99.415 125.958C99.4764 125.958 99.5371 125.946 99.5935 125.921C99.6499 125.897 99.7008 125.862 99.7431 125.818C99.7854 125.774 99.8183 125.722 99.8398 125.664C99.8612 125.607 99.8707 125.546 99.8678 125.485C100.159 122.077 100.245 118.654 100.124 115.235C100.163 113.833 100.064 112.431 99.8289 111.048C99.8278 110.928 99.7797 110.814 99.6949 110.73C99.6101 110.645 99.4954 110.597 99.3756 110.596C99.2586 110.598 99.1469 110.644 99.0641 110.727C98.9813 110.809 98.9341 110.92 98.9325 111.036Z" fill="#191919"></path></svg>