<svg xmlns="http://www.w3.org/2000/svg" fill="none" viewBox="0 0 400 400" id="Content-Creation-Writing--Streamline-Brooklyn.svg" height="400" width="400"><desc>Content Creation Writing Streamline Illustration: https://streamlinehq.com</desc><g id="content-creation-writing--work-job-office-company-content-creation-writing"><g id="laptop"><path id="Subtract" fill="#191919" fill-rule="evenodd" d="M371.8676 283.7548C370.0248 284.9152 358.1572 291.7944 341.1052 301.6166C339.9386 300.6 338.7176 299.5858 337.4276 298.563C342.9314 295.4616 347.5504 292.8714 351.4158 290.7028C367.2822 281.8032 370.4672 280.0166 370.2334 279.1714C370.175 278.9584 369.9016 278.804 369.5594 278.614C369.5072 278.5848 369.4528 278.5536 369.3986 278.5222C369.3632 278.5014 369.3256 278.4804 369.29 278.4596C330.8136 255.862 304.4612 239.9788 286.3238 228.8564C287.0084 227.9506 287.7014 227.0344 288.3964 226.1118C297.465 231.5134 308.4832 238.1068 321.87 246.1798L327.1756 249.3794H327.1776C348.7818 262.4052 358.224 268.099 371.1392 276.1554C374.7876 278.4346 374.5372 282.0724 371.8676 283.7548ZM264.9118 212.1802C248.4318 202.4248 246.474 201.1976 246.236 199.699C246.2026 199.4966 246.2026 199.29 246.2006 199.0562V198.9644C245.9648 163.5796 245.898 146.9988 245.8624 138.236V138.235C245.8374 132.0012 245.827 129.7238 245.7852 127.4472C245.7602 126.1376 245.7248 124.828 245.6684 122.7656V122.763L245.6454 121.9296C245.1404 103.3292 245.0714 91.1542 245.0256 82.9754V82.974C244.9484 68.9988 244.9338 66.6906 242.9176 63.9258L242.7818 63.7386C242.4688 63.3076 242.1996 62.9354 241.8594 62.6462C240.0498 61.1092 236.249 61.915 213.4658 68.6728C213.6266 69.5526 213.783 70.4256 213.9334 71.2906C228.9086 66.9436 238.4176 64.3774 238.9686 64.7606C241.5316 66.5438 241.6674 68.0054 242.0368 71.9762V71.9784C242.0972 72.631 242.164 73.3516 242.2496 74.1528C242.3372 74.9764 242.3874 89.7364 242.45 107.5924C242.523 128.786 242.6108 154.3414 242.7922 166.1312L242.7964 166.2884V166.2896V166.2904C242.8528 168.5814 243.5082 194.9102 243.1096 200.9868L221.4346 210.5626C221.7726 211.6562 222.1274 212.7248 222.499 213.7726C230.1088 210.3456 237.395 207.0312 244.2158 203.8796C245.516 203.2784 245.6162 203.3432 255.071 209.3478V209.35C257.2458 210.7296 259.9152 212.4264 263.2066 214.501C263.7682 213.7372 264.338 212.9628 264.9118 212.1802ZM232.3836 363.9324C231.025 362.8994 229.6516 361.8892 228.2616 360.904C196.8218 379.0162 178.412 389.7734 175.5414 391.4494L175.1458 391.681V391.6728C174.4748 391.2992 162.8076 383.3054 146.411 372.0744L146.4084 372.0724C108.9472 346.4088 46.801 303.8372 34.6954 296.5636C33.7484 295.9938 62.5878 283.496 101.4032 266.732C101.0224 265.8638 100.6502 264.985 100.287 264.0938L42.5348 289.6134C41.3422 290.1476 40.2644 290.6444 39.2918 291.091L39.2904 291.0932H39.2902C33.6544 293.6854 31.5548 294.6516 31.1724 292.1512C30.5916 288.2838 28.8846 153.0362 28.6356 133.308C28.616 131.7574 28.6054 130.9204 28.6052 130.917L28.6046 130.819C28.598 128.5952 28.5904 126.1678 31.2976 125.409C47.6622 120.8256 68.0884 114.8384 89.6954 108.4122C89.6268 107.3742 89.5552 106.3438 89.4812 105.3238C31.8214 122.268 27.452 123.7298 26.7202 126.2488C26.6606 126.4538 26.625 126.6656 26.587 126.8934L26.5638 127.0306C25.094 135.6286 27.7374 261.5308 28.2344 285.2032C28.2858 287.6494 28.3142 289.0038 28.313 289.0248L28.3022 289.1918C28.1632 291.354 27.871 295.9018 31.2892 298.3688C64.3476 322.2334 130.1218 366.8628 163.8814 389.7316C165.4256 390.7774 166.7186 391.6874 167.8226 392.4616C172.64 395.849 173.8614 396.7068 176.6632 395.4504C178.3268 394.7032 202.0262 381.26 232.3836 363.9324Z" clip-rule="evenodd" stroke-width="1"></path><path id="Subtract_2" fill="#191919" fill-rule="evenodd" d="M188.4748 338.39C187.5964 337.96 186.7178 337.53 185.8392 337.1022C180.2436 340.1682 176.072 342.4598 175.5924 342.7604C174.768 343.2864 174.7344 343.2614 170.341 339.9866C168.8054 338.8428 166.7374 337.3004 163.917 335.2468C157.5304 330.5902 157.3712 330.4922 157.2342 330.367C157.2278 330.3608 157.2218 330.3566 157.2152 330.3502C156.7944 329.962 156.346 329.7972 156.3032 329.5592C156.2248 329.121 157.5182 328.4364 162.8796 325.675C161.7926 325.1052 160.71 324.5292 159.6322 323.947C132.664 338.2272 129.0542 340.4626 129.357 341.3244C129.4324 341.5394 129.7524 341.6688 130.0134 341.8796C130.0592 341.9172 151.6362 356.0242 154.076 356.7944C155.734 356.1036 169.5008 348.7004 188.4748 338.39ZM301.8982 276.3078C312.9558 270.2238 320.1336 266.2602 320.7534 265.8908C325.0362 263.3508 324.1702 262.9 320.9372 261.2176C320.361 260.9192 319.7098 260.5812 319.0002 260.1846C303.6138 251.5918 301.7292 249.753 300.291 250.0514C299.9196 250.1286 299.5772 250.3478 299.043 250.6296C291.354 254.6744 284.0114 258.5358 276.9964 262.2258C278.0234 262.806 279.0564 263.3904 280.0916 263.9768C297.8784 254.4762 298.3856 254.2174 299.7088 253.5432C299.88 253.4556 300.0656 253.3596 300.3036 253.2386C302.0944 254.111 308.8088 257.7634 308.8464 257.7926C317.6978 262.3238 319.5972 263.165 319.5096 263.5886C319.4846 263.7076 319.303 263.7932 319.0734 263.9206C309.4976 269.2302 303.3718 272.6844 299.3958 274.8886C300.239 275.3664 301.0738 275.8402 301.8982 276.3078ZM171.804 344.5428C171.9256 344.9978 169.566 346.1144 154.5414 354.6028C153.4582 353.839 144.757 348.1702 143.6528 347.4524C135.6572 342.226 134 341.3788 134.1006 341.0092C134.1298 340.9008 134.3066 340.834 134.5194 340.713C139.2674 337.9976 141.3916 336.9122 144.3044 335.422C146.1524 334.4786 148.3176 333.3704 151.6716 331.5838C152.9146 330.92 153.1592 331.1036 155.8432 333.1116C156.6522 333.7168 157.6826 334.487 159.0288 335.4512C168.649 342.3368 170.1962 343.3886 170.8866 343.8582C171.0832 343.9918 171.2104 344.0794 171.4348 344.2402C171.6068 344.3634 171.7752 344.4342 171.804 344.5428Z" clip-rule="evenodd" stroke-width="1"></path><path id="Subtract_3" fill="#191919" fill-rule="evenodd" d="M256.0164 224.2522C251.3808 221.8916 248.3942 220.3598 246.4114 219.3432L246.4094 219.3412C242.5752 217.3772 242.4918 217.3334 241.4732 216.9326L238.8622 218.1452L238.8414 218.1558C236.3076 219.335 232.1624 221.2614 226.8048 223.7514C227.2472 224.555 227.7022 225.3418 228.1718 226.112C233.711 223.3798 235.506 222.5762 237.207 221.8166C238.2382 221.3554 239.2336 220.9108 241.0078 220.0612C241.0432 220.0446 241.0766 220.0278 241.11 220.0112C241.254 219.9402 241.373 219.8818 241.5004 219.8484C242.1078 219.6856 242.8696 220.103 247.3006 222.5282C248.6488 223.265 250.3332 224.1876 252.4558 225.3354C253.1258 225.6756 253.7874 226.0264 254.4448 226.3874C254.689 226.0556 254.9374 225.7174 255.1878 225.3752C255.4612 225.0058 255.7368 224.6322 256.0164 224.2522ZM245.1696 239C243.9674 239.6052 242.7172 240.2336 241.4272 240.8806C240.7698 240.3776 240.129 239.862 239.5008 239.334C239.6386 239.2568 239.722 239.2046 239.7512 239.1816C239.4236 238.8288 238.6492 238.303 237.5514 237.612C234.8424 235.1032 232.415 232.3336 230.2526 229.278C232.7782 230.7328 236.7542 233.133 242.379 237.322C242.5752 237.4514 242.7756 237.5682 242.9842 237.6746V237.6684C243.3578 237.5036 245.3886 236.5204 247.9036 235.2828C246.7892 236.798 245.8666 238.0524 245.1696 239ZM122.773 297.8742C123.2888 298.3876 123.809 298.8948 124.3336 299.3958C117.6176 302.754 112.3008 305.4338 108.0766 307.5628C93.7698 314.776 91.998 315.6692 90.8508 315.1578C90.6886 315.0848 90.5388 314.9846 90.3682 314.872C90.3362 314.849 90.3034 314.8282 90.2698 314.8052L69.0186 300.7796C68.7236 300.6376 68.4758 300.4122 68.305 300.1346C68.1338 299.855 68.0464 299.5314 68.0532 299.2058C68.0602 298.8782 68.1608 298.5588 68.3434 298.2876C68.526 298.0162 68.7828 297.8012 69.0832 297.6718C73.7842 295.307 88.7058 288.2442 107.9374 279.2172C108.4 279.9686 108.8704 280.7096 109.3478 281.44C100.6466 285.4746 98.3958 286.635 98.5344 287.2924C98.5866 287.5408 98.9772 287.7162 99.49 287.9478C99.9068 288.1356 100.4044 288.361 100.8664 288.6888C103.6544 290.6694 105.956 292.3058 107.8596 293.6582C116.4882 299.7924 116.937 300.1096 117.4138 300.3788C117.4386 300.3934 117.4632 300.406 117.489 300.4206C117.5114 300.4332 117.5346 300.4456 117.5594 300.4602C118.8306 299.8362 120.6252 298.947 122.773 297.8742ZM93.0194 312.862C93.201 312.7536 93.3482 312.668 93.4962 312.5824C94.1286 312.2234 94.78 311.8956 98.2214 310.1654C100.7036 308.9174 104.6372 306.9408 111.062 303.6952L111.3998 303.5242C114.0556 302.1842 114.2552 302.084 113.792 301.581C113.6644 301.4432 112.2482 300.408 110.1282 298.8572C107.981 297.2878 105.1118 295.188 102.129 292.9612C100.003 291.3728 98.6304 290.2478 97.692 289.4798C95.7868 287.9186 95.6714 287.8246 94.68 288.3006C86.716 292.1284 81.1772 294.6016 77.4804 296.2526C73.8518 297.8722 71.9982 298.7008 71.3686 299.2392C71.8958 299.738 72.8862 300.3516 75.275 301.8336H75.2752C78.2766 303.6952 83.4858 306.9242 92.7578 313.0144C92.8536 312.958 92.9398 312.908 93.0194 312.862Z" clip-rule="evenodd" stroke-width="1"></path><path id="Subtract_4" fill="#191919" fill-rule="evenodd" d="M278.0254 239.7974C281.104 241.4838 283.2704 242.6754 284.819 243.527L284.8254 243.5292C288.6948 245.656 288.722 245.6726 289.5422 246.0378C289.5862 246.0566 289.63 246.0734 289.6716 246.09C289.799 246.1402 289.9034 246.182 289.9264 246.2508C290.0286 246.5764 288.2232 247.5072 277.7728 252.9004C275.2912 254.1798 272.3234 255.7118 268.7772 257.5486C269.5454 257.9868 270.3238 258.4314 271.1066 258.878C283.3622 252.412 291.5188 248.0562 292.5018 247.4092C295.1066 245.6872 294.4618 245.3388 293.2658 244.6896L293.1072 244.604C289.5756 242.6714 286.5994 241.037 284.0844 239.6574C282.5108 238.7934 281.1186 238.0294 279.885 237.3532C279.2548 238.1818 278.6348 238.998 278.0254 239.7974ZM151.195 319.1986C151.8864 319.6056 152.5806 320.0106 153.2776 320.4112C136.2548 329.2378 124.2546 335.4158 122.8336 336.0586C115.8624 331.5442 110.7612 328.2924 107.0588 325.9338C99.3806 321.0416 97.7188 319.9814 97.8732 319.4366C97.9158 319.2864 98.0968 319.1736 98.328 319.0316C98.3558 319.015 98.3844 318.9962 98.414 318.9796C98.8386 318.7144 111.0758 312.4802 128.8302 303.472C129.5068 304.0522 130.1894 304.6262 130.8778 305.194C122.2186 309.5184 112.319 314.5256 104.5062 318.7478C104.3366 318.8396 104.1592 318.9252 103.9882 319.0088C103.2516 319.3698 102.6362 319.6724 103.2854 320.0606C103.4102 320.1338 105.9044 321.747 109.1326 323.8322L109.1638 323.853C115.2632 327.7956 123.9564 333.4122 124.259 333.5666C124.5962 333.3996 124.7882 333.2932 125.261 333.026H125.2622H125.2626C126.7482 332.1932 131.004 329.8056 151.195 319.1986Z" clip-rule="evenodd" stroke-width="1"></path><path id="Subtract_5" fill="#191919" fill-rule="evenodd" d="M218.7672 199.6928C224.7552 197.0626 230.2276 194.6326 232.4796 193.5634C232.968 193.332 233.3668 193.1584 233.6924 192.8934C235.9882 191.0236 234.594 184.6188 234.594 121.3608C234.6398 121.3582 234.6398 121.3572 234.5522 117.7116C234.4938 115.2844 234.3978 111.2416 234.2516 104.507C234.1432 99.6828 234.0742 95.9874 234.0222 93.1288C233.8448 83.5056 233.8406 83.362 233.0934 81.5484C231.2336 77.0344 227.3496 78.2684 224.9284 79.0372C224.68 79.116 224.4462 79.1902 224.2334 79.2526C220.8752 80.2276 218.0304 81.0516 215.5488 81.7696C215.651 82.5382 215.7492 83.2946 215.843 84.0378C222.2986 82.1132 226.0764 80.9858 226.0826 80.9828C226.9028 80.6128 227.8358 80.5818 228.679 80.897S230.2068 81.8474 230.5846 82.665C231.7596 84.3786 231.7554 92.295 231.745 111.6518C231.7346 128.1092 231.722 152.8368 232.4254 189.0532C232.4546 190.6484 232.415 190.6654 231.0062 191.251C230.952 191.2736 230.8934 191.2972 230.835 191.3218C226.546 193.1078 222.3404 194.8616 218.2204 196.5834C218.3058 197.108 218.3936 197.6304 218.4854 198.1504C218.5772 198.668 218.6712 199.1836 218.7672 199.6928ZM90.5154 121.2572C67.8386 127.9486 50.4494 133.031 46.97 133.919C46.144 134.0542 45.4012 134.5 44.8936 135.165C44.386 135.8302 44.1522 136.6642 44.24 137.4964C46.497 254.6828 44.7594 269.0028 47.2934 269.8042C47.7094 269.9358 48.2406 269.702 48.9234 269.4994C48.9252 269.4994 49.0046 269.464 49.1632 269.391C51.1624 268.4746 65.7276 261.802 95.4066 248.8576C95.7252 250.0932 96.0582 251.312 96.4052 252.5102C53.3074 271.1254 50.3956 272.313 47.588 272.1042C47.3208 272.0834 47.0546 272.05 46.755 272.0186C44.9286 271.8288 43.5804 269.0632 43.5804 267.1994C43.5804 254.6516 43.2378 235.5624 42.8766 215.4132C42.3456 185.8174 41.774 153.938 42.1862 137.1542C42.2928 132.781 42.684 132.6668 65.1078 126.1272C69.4382 124.8642 74.5906 123.3614 80.7212 121.5422C84.0468 120.5554 87.272 119.5988 90.4004 118.6706C90.4406 119.5324 90.479 120.395 90.5154 121.2572Z" clip-rule="evenodd" stroke-width="1"></path><path id="vector" fill="#191919" d="M86.273 139.141C86.273 143.0272 86.6904 144.5446 84.6784 145.3626C82.105 146.4062 56.502 154.7256 52.72 155.2412C49.5894 155.6586 50.5702 150.3342 50.2802 144.388C50.18 142.3468 49.5184 142.3008 82.8564 132.5622C84.9978 131.936 86.0642 132.7856 86.177 135.0668C86.2896 137.348 86.1624 139.141 86.273 139.141Z" stroke-width="1"></path></g><g><path id="vector_2" fill="#2862e9" d="M117.4258 167.9516C117.578 166.4344 117.8244 166.401 118.2606 166.2382C127.012 162.9592 187.6562 146.93 188.157 146.8902C190.7096 146.6816 190.6616 146.7108 191.2002 148.917C193.3012 158.8444 193.7666 169.0484 192.5776 179.1262C192.4586 180.1448 191.9348 180.3576 186.0448 182.0316C185.114 182.2966 129.1472 198.1024 118.5612 200.1896C116.4574 200.607 116.7892 198.8538 116.7662 196.3536C116.7642 196.149 117.2734 169.4378 117.4258 167.9516ZM189.7558 168.5924C189.7938 162.5148 189.418 156.4418 188.6308 150.4154C188.3804 149.2864 191.0498 149.3092 140.8352 162.6252C120.2496 168.0832 124.0294 167.0374 120.3352 168.415C119.2916 168.8012 120.1996 169.2666 120.2934 175.4988C120.5052 180.046 120.4448 184.602 120.1118 189.1424C120.0968 191.4442 119.9574 193.7434 119.6944 196.03C119.3606 197.6016 115.6872 198.117 164.877 184.3816C188.589 177.7634 185.0368 178.8466 188.6434 177.8302C190.121 177.4086 189.7558 177.9638 189.7558 168.5924Z" stroke-width="1"></path><path id="vector_3" fill="#2862e9" d="M172.3406 37.1078C172.3406 39.6666 172.4492 40.3554 170.3496 40.9794C138.7564 50.3716 127.2228 54.0554 105.8566 59.3108C103.8718 59.7992 104.5542 54.6232 99.9898 46.5418C98.3722 43.6802 99.875 43.2022 100.7598 42.9018C107.324 40.633 114.6812 38.5354 127.2666 35.1126C167.2918 24.228 165.5428 24.2594 167.7198 26.1378C170.6148 29.0634 172.2702 32.9926 172.3406 37.1078ZM167.2208 29.5816C166.2316 27.6406 166.0082 27.5674 164.0046 28.1686C134.1708 37.1162 117.4612 40.1676 103.1226 45.1476C102.3712 45.4084 102.3878 45.1476 104.8486 49.9626C107.4658 55.0844 106.2428 56.8104 107.7226 56.5496C107.8562 56.5266 107.6872 56.2574 145.047 45.5586C169.69 38.5 169.6064 39.03 169.4792 37.8362C169.5662 34.9212 168.7798 32.0464 167.2208 29.5816Z" stroke-width="1"></path><path id="vector_4" fill="#2862e9" d="M122.9442 257.847C122.0196 257.874 121.3976 257.847 121.1576 257.154C121.0478 256.8722 121.0424 256.5592 121.1428 256.2732C121.2432 255.9894 121.4422 255.7472 121.7044 255.597C126.3504 252.6458 179.5184 232.3586 195.533 227.1638C198.8036 226.1036 199.2084 228.558 198.3026 229.4868C195.7104 232.1584 127.9282 256.749 122.9442 257.847Z" stroke-width="1"></path><path id="vector_5" fill="#2862e9" d="M219.9652 254.8122C219.7334 256.6656 219.9652 255.9476 191.3712 270.015C191.2982 270.0504 147.1488 291.857 144.8174 291.9134C144.5822 291.93 144.3472 291.8758 144.145 291.7548C143.9426 291.6336 143.7826 291.452 143.6872 291.2372C143.5916 291.02 143.5656 290.78 143.6122 290.5484C143.6586 290.3188 143.7758 290.1058 143.947 289.9452C145.5354 287.858 171.5768 275.5626 216.5798 253.6142C218.5564 252.6478 219.9506 253.4284 219.9652 254.8122Z" stroke-width="1"></path><path id="vector_6" fill="#2862e9" d="M158.8556 301.6708C158.7216 301.4328 158.6872 301.151 158.76 300.8902C158.8326 300.6272 159.0066 300.4038 159.2438 300.2682C169.9092 293.0592 216.2082 269.3554 220.2844 267.2538C221.4136 266.6714 223.2586 265.4818 224.175 267.2538C225.1768 269.1906 225.1184 269.3408 201.5606 281.5778C160.8426 302.7436 159.847 303.3948 158.8556 301.6708Z" stroke-width="1"></path><path id="vector_7" fill="#2862e9" d="M115.6496 132.2756C114.8752 132.1964 113.9924 132.067 113.9966 131.2488C113.9808 131.0112 114.047 130.7758 114.1836 130.581C114.3202 130.3864 114.5194 130.244 114.748 130.178C123.2154 127.137 191.1876 109.171 192.0204 109.2044C192.3512 109.256 192.6576 109.4092 192.8972 109.643C193.137 109.8768 193.2978 110.1792 193.358 110.5086C193.418 110.838 193.3742 111.178 193.2326 111.4812C193.0908 111.7844 192.8584 112.0362 192.5672 112.2014C188.4054 113.7626 120.041 131.5952 115.6496 132.2756Z" stroke-width="1"></path><path id="vector_8" fill="#2862e9" d="M118.7344 236.0926C117.7408 236.1198 117.1168 236.1574 116.856 235.4414C116.021 233.1226 118.4568 232.9848 183.9368 212.391C186.7022 211.5206 187.6666 211.1158 188.3928 212.823C188.5088 213.1842 188.4936 213.5766 188.3502 213.9272C188.2068 214.2778 187.944 214.568 187.6082 214.7454C186.456 215.4778 129.0344 233.7738 118.7344 236.0926Z" stroke-width="1"></path><path id="vector_9" fill="#2862e9" d="M113.3578 86.7828C112.6482 86.7828 111.828 86.7828 111.8968 85.9854C111.9252 85.7942 111.9962 85.6118 112.1046 85.4518C112.2132 85.2918 112.356 85.1582 112.523 85.0608C120.6796 81.7088 187.3494 63.2084 190.5928 62.3318C192.7028 61.7642 193.6588 63.2252 192.8428 64.2102C191.7846 65.5126 116.57 86.5552 113.358 86.7828Z" stroke-width="1"></path><path id="vector_10" fill="#2862e9" d="M197.6014 247.5782C197.0546 249.058 198.071 248.5634 174.0166 259.118C131.468 277.7918 129.8484 277.8878 129.9966 276.147C130.0864 275.0764 130.5288 274.7738 132.378 273.895C146.385 267.2432 165.0754 259.1034 179.3388 253.0236C196.9816 245.516 195.7834 245.0402 197.6014 247.5782Z" stroke-width="1"></path><path id="vector_11" fill="#2862e9" d="M118.4694 217.2958C117.263 217.2958 116.7996 217.0328 116.8308 216.2856C116.883 215.0334 116.257 214.6368 145.621 206.236C175.5068 197.6788 176.634 197.0882 177.26 198.91C177.3988 199.2732 177.4126 199.6718 177.2992 200.0434C177.1858 200.415 176.9516 200.7364 176.634 200.9596C175.9994 201.375 124.8352 216.8408 118.4694 217.2958Z" stroke-width="1"></path><path id="vector_12" fill="#2862e9" d="M109.3818 73.5626C103.5378 72.2206 131.5996 64.7966 139.3116 62.605C170.1492 53.8808 169.1578 53.9518 170.3308 54.4652C171.5976 55.0224 172.1882 56.5522 167.7886 57.8588C167.7448 57.8714 112.141 74.195 109.3818 73.5626Z" stroke-width="1"></path><path id="vector_13" fill="#2862e9" d="M113.095 102.367C111.3604 101.3902 112.4688 100.2172 114.2824 99.6538C124.5388 96.4124 132.3488 93.9162 160.4188 86.6842C161.2538 86.4756 162.3454 86.7656 162.3912 87.7674C162.4496 89.0574 161.8986 89.2618 160.5128 89.6668C157.885 90.4264 114.7166 103.2812 113.095 102.367Z" stroke-width="1"></path><path id="vector_14" fill="#2862e9" d="M117.1628 147.226C114.9066 147.226 115.0214 145.5564 116.1964 145.0618C119.7216 143.559 135.7258 139.2658 138.4726 138.556C153.2454 134.745 152.3354 134.8868 153.4394 135.6466C153.6374 135.7742 153.7988 135.9502 153.9088 136.1584C154.0188 136.3664 154.0734 136.5992 154.0672 136.8344C154.0612 137.0696 153.9946 137.2994 153.8742 137.5014C153.7536 137.7034 153.583 137.8712 153.379 137.9884C150.674 139.5912 120.5376 146.675 117.1628 147.226Z" stroke-width="1"></path><path id="vector_15" fill="#2862e9" d="M114.7292 115.8916C114.5286 115.8362 114.3484 115.7234 114.2118 115.5664C114.0748 115.4096 113.987 115.216 113.9594 115.0098C113.9318 114.8036 113.9656 114.5936 114.0564 114.4064C114.1472 114.2192 114.2912 114.0626 114.4704 113.9568C116.8058 112.4958 139.8082 107.1506 140.0692 107.1088C141.5614 106.8772 142.9578 108.9184 140.9792 109.8784C139.3658 110.6632 116.833 116.5594 114.7292 115.8916Z" stroke-width="1"></path><path id="Subtract_6" fill="#2862e9" fill-rule="evenodd" d="M211.8754 133.638V133.6392C210.5416 180.6538 209.327 223.434 240.365 245.6788C240.4276 245.7248 240.4922 245.7708 240.559 245.8166C239.935 246.9896 239.313 248.3546 238.6138 250.1392C203.8836 226.0158 205.7768 178.8824 207.5528 134.6414C208.3294 115.3454 209.0806 96.5996 206.764 80.554C200.9616 40.4058 191.7512 22.544 182.7408 8.7562C182.4216 8.2678 182.1816 8.1154 181.62 8.2824C180.1644 8.7162 176.7652 9.6752 172.0066 11.0176H172.0064H172.006C152.0446 16.649 108.1628 29.028 83.4742 37.711C82.6762 37.992 83.3016 39.175 84.6958 41.8118C87.8092 47.7012 94.7566 60.843 98.247 87.3854C102.5968 120.4646 101.51 140.8986 100.3478 162.7482C99.4958 178.7662 98.6034 195.5452 99.783 218.6254C100.5762 228.293 102.093 237.8876 104.3206 247.3298C110.7906 279.3926 132.1736 299.738 161.2516 314.7218C169.2068 318.8208 176.5276 322.586 183.1916 326.0132L183.1942 326.0152C211.2054 340.4228 227.6062 348.857 230.7078 351.0256C239.2858 356.9948 247.3714 363.6424 254.8894 370.9014C260.3014 376.2486 262.9332 379.2876 264.3588 380.9302C265.4754 382.22 265.849 382.65 266.2372 382.6666C266.4334 382.673 266.6338 382.577 266.9322 382.4308L266.9656 382.4142C275.523 378.2398 352.1504 329.4006 352.2068 329.3588C352.2632 329.3214 352.3154 329.288 352.3634 329.2566C352.6472 329.075 352.7954 328.979 352.8308 328.8516C352.8706 328.7118 352.7704 328.5324 352.5596 328.1524C352.5344 328.1086 352.5074 328.0606 352.4802 328.0106C349.362 323.3478 345.843 318.967 341.961 314.9178C328.883 301.3138 310.9648 291.4876 287.9894 278.8896H287.9874C279.1546 274.0454 269.5724 268.792 259.2306 262.756C259.646 262.472 260.0592 262.1882 260.4704 261.9002C260.7794 261.6894 261.585 260.7878 262.806 259.3122C270.1694 263.547 278.4158 268.1992 286.447 272.7324L286.4492 272.7346C300.7106 280.7826 314.3022 288.4528 321.0874 292.7252C338.8678 303.9208 345.219 311.134 355.1768 323.9678C357.3036 326.7102 359.0672 329.603 356.1556 331.494C355.446 331.9532 354.342 332.7066 352.8142 333.7502L352.81 333.7524C344.9916 339.0954 326.0298 352.0462 291.4166 372.329C285.1886 375.9794 280.6156 378.6656 277.224 380.661C268.7584 385.6366 267.6314 386.2984 266.448 386.8264C266.137 386.9642 265.8218 387.0936 265.371 387.2898C263.9142 387.92 263.4008 387.3148 261.1424 384.6516C258.496 381.5292 253.4534 375.5788 241.682 365.479C224.4714 350.7166 204.4202 340.9822 184.7708 331.444C143.179 311.2508 103.396 291.9384 96.2078 227.6752C94.0204 208.1332 94.2542 176.8276 95.2248 159.1392C96.283 139.8268 94.8846 102.6132 91.8624 83.5116C89.149 66.309 85.7972 58.3468 79.6984 43.9078C79.016 42.2928 78.3622 41.0732 77.8484 40.1146C76.319 37.2614 76.028 36.7188 79.9072 34.933C88.838 30.8026 115.4994 22.2914 117.0062 21.8216C118.9184 21.227 120.8492 20.6934 122.7812 20.1596C123.9612 19.8334 125.142 19.5072 126.319 19.1666C183.6162 2.5904 183.7508 2.8164 185.1298 5.1284L185.1912 5.231C186.3498 7.1534 187.3234 8.714 188.189 10.1018L188.1894 10.1022C191.4586 15.3432 193.1898 18.1186 197.5512 28.607C211.0698 61.1144 213.4596 103.9614 212.4348 103.9614C212.4348 113.9388 212.153 123.8794 211.8754 133.638Z" clip-rule="evenodd" stroke-width="1"></path></g><g id="pencil"><path id="vector_16" fill="#191919" d="M345.5592 141.4674C345.7972 144.8842 346.2668 141.9808 274.2998 239.4154C274.2644 239.4634 259.7378 258.5316 258.665 259.2684C251.9172 263.931 244.8774 268.1574 237.5912 271.9226C235.5604 273.0456 234.7526 272.096 235.1366 270.852C242.7046 246.2486 242.8904 247.6846 247.5552 241.0956C264.9306 216.5904 319.0838 143.778 321.6926 140.307C326.9982 133.2462 328.5094 129.3892 334.4536 130.2428C337.2836 130.6258 339.9072 131.9346 341.9172 133.965C343.925 135.9952 345.2064 138.6332 345.5592 141.4674ZM295.1964 197.3654C294.182 197.547 293.439 196.1674 294.3616 194.9506C304.24 182.1022 305.488 180.1318 309.1636 175.275C329.219 148.7682 327.9332 152.2768 326.2782 151.1164C321.269 147.5974 322.778 144.0826 320.7556 146.8482C313.4944 156.7746 261.3366 227.8776 246.3174 247.0314C245.324 248.2982 247.3256 247.5824 251.6376 250.9322C252.89 251.9006 250.8716 253.0946 280.3986 213.6662C290.8196 199.7492 290.9178 198.7974 292.2952 199.5676C292.5164 199.672 292.6876 199.8556 292.7732 200.0852C292.8588 200.3126 292.8526 200.5652 292.7566 200.7886C291.379 203.7752 254.2152 252.6812 254.257 252.7168C258.0472 256.1104 257.851 256.1334 258.6942 254.9542C273.8344 233.7864 314.7258 179.1906 332.7546 155.397C333.5894 154.2866 332.7004 154.5622 329.4966 153.0616C328.359 152.5272 329.0938 152.7652 313.3484 173.8474C295.5908 197.6492 296.0312 197.5344 295.1964 197.3654ZM330.248 134.0622C328.1316 136.6418 326.1572 139.3354 324.335 142.1312C323.3708 143.5066 323.3812 143.5108 324.381 144.905C326.5662 148.2332 329.745 150.7888 333.4642 152.21C335.0964 152.8508 334.4014 153.1576 340.143 145.6042C341.3536 144.0076 337.125 146.005 333.122 141.6678C332.1326 140.725 331.4188 139.531 331.0578 138.2136C330.4566 135.4168 334.9086 140.8058 340.143 142.0916C341.4184 142.4046 343.207 141.6406 342.8062 140.3508C342.3262 138.7922 341.508 137.3592 340.4082 136.1548C339.3082 134.9508 337.9558 134.005 336.4468 133.386C333.8858 132.2194 332.0262 132.2068 330.248 134.0622ZM256.0102 257.4546C255.0522 255.2442 247.6136 251.0992 245.422 250.0974C244.3158 249.5922 244.7208 250.0598 241.4084 260.0196C241.0036 261.2406 241.4084 260.8546 244.1552 263.645C244.844 264.3422 244.4516 264.2316 252.4558 259.5084C253.5828 258.7298 254.7724 258.0432 256.0102 257.4546Z" stroke-width="1"></path></g></g></svg>