<svg xmlns="http://www.w3.org/2000/svg" viewBox="0 0 400 400" id="Designing-A-Website-1--Streamline-Brooklyn.svg" height="400" width="400"><desc>Designing A Website 1 Streamline Illustration: https://streamlinehq.com</desc><path d="m271.2 230.718 5.088 41.55a7.824 7.824 0 0 1 -5.3 8.478L44.172 340.312a5.364 5.364 0 0 1 -6.572 -5.086L18.098 173.272A7.824 7.824 0 0 1 23.4 164.8l50.028 -13.144 -0.424 -3.18 -50.24 13.356c-1.696 0.424 -13.566 4.662 -12.718 15.05l19.502 161.952c0.662 4.31 3.492 7.844 8.266 7.844 2.04 0 -15.456 2.862 228.94 -59.778 1.692 -0.434 13.566 -4.876 12.718 -15.05l-5.088 -41.972Z" fill="#191919" stroke-width="1"></path><path d="m45.868 182.812 15.262 126.976a6.414 6.414 0 0 0 8.056 5.3c194.712 -50.94 186.976 -48.968 187.178 -48.968a6.498 6.498 0 0 0 4.664 -7l-2.968 -25.014 -3.18 0.848 2.968 24.6a3.2 3.2 0 0 1 -2.332 3.4l-187.178 48.954a3 3 0 0 1 -3.816 -2.756L49.26 182.176a3.2 3.2 0 0 1 2.332 -3.4l24.6 -6.36 -0.424 -3.18 -25.024 6.58a6.454 6.454 0 0 0 -4.876 6.996Z" fill="#191919" stroke-width="1"></path><path d="M272.262 114.13s-163.012 42.6 -163.648 42.6a6 6 0 0 1 -5.936 -5.3l-2.12 -17.382L76.6 140.416a5.096 5.096 0 0 0 -3.8 5.51l15.262 126.976a5.016 5.016 0 0 0 4.876 4.452c0.424 0 188.45 -49.178 188.45 -49.178a5.098 5.098 0 0 0 3.816 -5.512Zm-157.5 115.53c15.134 -12.11 56.286 -30.282 92.422 -53.42a2.962 2.962 0 0 1 4.452 2.12l3.816 32a4.672 4.672 0 0 1 -3.6 5.088l-91.79 24.386c-6.84 1.578 -6.1 -7.036 -6.36 -7.632a3.902 3.902 0 0 1 1.06 -2.542Zm-3.816 -21.2 -4.452 -37.52a4.672 4.672 0 0 1 3.6 -5.088l91.788 -24.376a4.938 4.938 0 0 1 5.934 4.026l1.06 9.54a2.662 2.662 0 0 1 -1.06 2.544c-31.444 21.508 -80.318 44.68 -92.634 53.2a3.2 3.2 0 0 1 -4.236 -2.326Z" fill="#2862e9" stroke-width="1"></path><path d="m101.83 122.184 -1.696 -13.566a3.498 3.498 0 0 1 2.544 -3.818c12.468 -3.2 11.14 -2.968 11.448 -2.968 0.4 -0.128 0.848 -0.476 0.848 -1.482a1.2 1.2 0 0 0 -1.484 -0.848l-11.236 2.966a6 6 0 0 0 -4.454 6.574l1.694 13.566c-0.402 1.22 2.336 1.752 2.336 -0.424Z" fill="#191919" stroke-width="1"></path><path d="M143.6 92.932a1.248 1.248 0 0 0 1.696 0.848C148.14 93.124 254 65.31 290.08 56.048a3.348 3.348 0 0 1 4.238 2.966l3.4 27.982a1.29 1.29 0 0 0 2.544 -0.424l-3.4 -27.982a5.872 5.872 0 0 0 -7.418 -5.086c-22.086 5.6 3.742 -0.224 -144.784 37.732a1.314 1.314 0 0 0 -1.06 1.696Z" fill="#191919" stroke-width="1"></path><path d="M41 243.65a6.162 6.162 0 0 0 -5.088 7.2 6.316 6.316 0 0 0 7.2 5.298 6.056 6.056 0 0 0 5.088 -7.2 6.508 6.508 0 0 0 -7.2 -5.298Z" fill="#191919" stroke-width="1"></path><path d="M126 136.812c3.11 1.39 13.498 -14.42 13.568 -14.626 1.4 -3.53 -12.648 -14.416 -14.84 -14.416 -4.142 0 -13.216 13.672 -12.93 16.534 1.64 4.386 9.94 10.604 14.202 12.508Z" fill="#191919" stroke-width="1"></path><path d="M149.738 112.646c4.274 -1.01 -4.772 1.898 32 -8.268a1.88 1.88 0 0 0 -1.06 -3.6c-20.8 5.748 -29.37 9.038 -32.222 9.752 -0.838 0.208 -0.176 2.47 1.282 2.116Z" fill="#191919" stroke-width="1"></path><path d="M152.706 125.364c4.224 -0.902 1.268 -0.228 12.506 -2.756a1.828 1.828 0 0 0 1.272 -1.906 1.8 1.8 0 0 0 -1.696 -1.484 67.542 67.542 0 0 0 -12.93 3.6 1.36 1.36 0 0 0 -0.636 1.696 1.104 1.104 0 0 0 1.484 0.85Z" fill="#191919" stroke-width="1"></path><path d="M207.184 98.232c48.486 -12.122 58.68 -16.1 70.6 -19.502a14.692 14.692 0 0 0 4.028 -1.696 1.4 1.4 0 0 0 -0.636 -2.544 9.988 9.988 0 0 0 -3.6 0.848c-14.106 4.702 -56.464 16.338 -70.8 20.774a1.086 1.086 0 0 0 0.408 2.12Z" fill="#191919" stroke-width="1"></path><path d="M280.742 91.024c-9.678 2.674 -67.2 16.85 -73.77 20.138 -1.058 0.424 -0.634 2.12 0.636 2.12 4.576 -0.382 36.222 -10.316 74.2 -19.078a1.678 1.678 0 0 0 -1.066 -3.18Z" fill="#191919" stroke-width="1"></path><path d="m296.216 116.038 -9.326 2.332a1.544 1.544 0 0 0 0.848 2.968l9.326 -2.332a3.47 3.47 0 0 1 2.544 0.424 2.436 2.436 0 0 1 1.272 2.332l1.484 12.718a1.6 1.6 0 0 0 1.484 1.484 1.636 1.636 0 0 0 1.696 -1.696l-1.484 -12.718a6.544 6.544 0 0 0 -7.844 -5.512Z" fill="#191919" stroke-width="1"></path><path d="m231.138 133 -7.63 1.908a6.498 6.498 0 0 0 -4.664 7l1.272 10.81a1.6 1.6 0 0 0 1.484 1.484 1.636 1.636 0 0 0 1.696 -1.696l-1.272 -10.81a3.2 3.2 0 0 1 2.332 -3.4l7.63 -1.908c2.014 -0.506 1.002 -3.854 -0.848 -3.388Z" fill="#191919" stroke-width="1"></path><path d="M228.17 194.258a1.6 1.6 0 1 0 -3.178 0.212l1.484 12.296a6.272 6.272 0 0 0 2.754 4.45 6.752 6.752 0 0 0 5.3 0.848l10.388 -2.756a1.542 1.542 0 0 0 -0.848 -2.966l-10.388 2.754a3.47 3.47 0 0 1 -2.544 -0.424 2.434 2.434 0 0 1 -1.272 -2.33Z" fill="#191919" stroke-width="1"></path><path d="m388 255.52 -23.106 -23.106a3.6 3.6 0 0 1 0 -4.874l4.452 -4.452a7.502 7.502 0 0 0 1.908 -5.936 6.426 6.426 0 0 0 -3.816 -4.876l-51.72 -23.952a4.854 4.854 0 0 0 -3.814 -0.424c0 -2 0.2 0.26 -1.484 -13.78a1.6 1.6 0 1 0 -3.18 0.212l1.484 12.296a3.2 3.2 0 0 1 -2.332 3.4l-11.236 2.968a1.516 1.516 0 0 0 -1.06 1.908 1.818 1.818 0 0 0 1.484 1.272c0.6 0 -0.6 0.264 11.024 -2.756a6.116 6.116 0 0 0 0.636 3.816l23.96 51.714a6.644 6.644 0 0 0 10.81 1.908l4.452 -4.452a3.6 3.6 0 0 1 4.876 0l23.106 23.106a6.654 6.654 0 0 0 9.326 0l4.876 -4.876a7.11 7.11 0 0 0 -0.646 -9.116Zm-2.12 7 -4.88 4.88a3.104 3.104 0 0 1 -4.662 0l-23.318 -22.894a6.654 6.654 0 0 0 -9.328 0l-4.452 4.452a3.968 3.968 0 0 1 -2.968 1.06 3.378 3.378 0 0 1 -2.542 -1.908l-23.946 -51.732a3.068 3.068 0 0 1 0.636 -3.816 3.13 3.13 0 0 1 3.816 -0.636l51.722 23.954a3.354 3.354 0 0 1 0.848 5.512l-4.452 4.452a6.652 6.652 0 0 0 0 9.326l23.106 23.106a2.582 2.582 0 0 1 0.424 4.24Z" fill="#191919" stroke-width="1"></path><path d="M230.926 146.35a1.108 1.108 0 0 0 0.636 2.12c2.312 -0.338 61.986 -16.094 62.534 -16.534a1.412 1.412 0 0 0 -0.636 -2.544c-1.742 0.008 -55.616 13.994 -62.534 16.958Z" fill="#191919" stroke-width="1"></path><path d="M232.834 163.522a1.108 1.108 0 0 0 0.636 2.12c3.362 -0.494 61.882 -16.012 62.534 -16.536a1.412 1.412 0 0 0 -0.636 -2.544c-0.69 0 -54.284 13.424 -62.534 16.96Z" fill="#191919" stroke-width="1"></path><path d="M234.53 180.692a1.108 1.108 0 0 0 0.636 2.12c3.8 -0.556 61.982 -16.092 62.534 -16.536a1.41 1.41 0 0 0 -0.636 -2.542c-0.506 0 -54.374 13.466 -62.534 16.958Z" fill="#191919" stroke-width="1"></path><path d="M299.4 183.448a1.412 1.412 0 0 0 -0.636 -2.544c-1.672 0 -48.554 12.874 -48.756 12.93a106.6 106.6 0 0 0 -13.566 4.24 1.108 1.108 0 0 0 0.636 2.12c4.708 -0.69 61.322 -16.148 62.322 -16.746Z" fill="#191919" stroke-width="1"></path></svg>