<svg xmlns="http://www.w3.org/2000/svg" viewBox="0 0 400 400" id="Designer-Color-Palette-2--Streamline-Brooklyn.svg" height="400" width="400"><desc>Designer Color Palette 2 Streamline Illustration: https://streamlinehq.com</desc><path d="M154.972 207.62c3.924 1.946 64.216 0.218 70.88 -0.654 1.916 -0.266 1.34 -2.974 -0.498 -2.898 -9.078 0.172 -67.89 0.126 -70.444 1.668a1.028 1.028 0 0 0 0.062 1.884Z" fill="#191919" stroke-width="1"></path><path d="M255.688 208c8.298 -0.258 7.646 -12.334 -0.328 -11.912 -8.298 0.444 -6.744 12.124 0.328 11.912Zm-0.2 -9.344a3.37 3.37 0 1 1 0.264 6.728 3.37 3.37 0 0 1 -0.266 -6.734Z" fill="#191919" stroke-width="1"></path><path d="M244.04 143.496c-3.924 0.016 -5.308 2.8 0 2.756 4.174 0 9.14 0.234 13.268 0 2.35 -0.14 1.556 -3.284 1.556 -5.122 0 -14.4 0.838 -12.838 -5.87 -12.816 -2.258 0 -15.088 -0.388 -16.288 0.624s-0.858 3.2 -0.842 4.812c0 0.8 -0.232 4.422 1.106 4.25s0.936 -6.446 1 -7.63c3.33 0.856 14.23 0.514 18.422 0.482 0.106 3.754 0 9.25 0 12.692 -3.944 -0.016 -8.412 -0.062 -12.352 -0.048Z" fill="#191919" stroke-width="1"></path><path d="M210.422 214.6c-18.534 1.032 -38.416 -0.84 -54.5 1 -1.028 0.11 -0.982 2.726 0 2.71 18.514 -0.452 36.624 1.058 54.95 -0.436 2.18 -0.18 1.652 -3.396 -0.45 -3.274Z" fill="#191919" stroke-width="1"></path><path d="M188.886 146.112c0.448 0.472 1.294 -0.156 1.044 -0.732 -7.042 -16.026 -20.064 -25.4 -6.742 -32.42 6.68 -3.518 17.3 -8.314 20.584 -9.466 6.836 -2.4 8.098 2.07 10.668 6.352 14.106 23.638 27.4 49.16 42.2 72.018 0.6 0.918 2.476 -0.296 2 -1.2 -10.474 -19.664 -27.134 -46.76 -42.146 -72.064 -2.568 -4.328 -4.468 -10.9 -14.622 -6.8a215.04 215.04 0 0 0 -19.852 9.234c-8.362 4.672 -8 10.044 -4.19 17.456 2.29 4.34 7.74 14.132 11.056 17.622Z" fill="#191919" stroke-width="1"></path><path d="M153.446 181.49a79 79 0 0 0 15.742 7.226c1.558 0.544 2.2 -1.558 0.624 -2.15a88.866 88.866 0 0 1 -14.918 -7.068c-8.222 -4.672 -13.75 -6.058 -7.786 -17.128 2.492 -4.672 5.092 -9.344 7.692 -13.906 5.902 -10.464 11.632 -5.7 20.508 -1.558 27.468 12.66 53.754 26 80.458 40.05 1.556 0.826 3.02 -1.464 1.464 -2.336 -25.88 -14.466 -52.664 -27.482 -79.618 -39.536 -9.342 -4.156 -17.736 -9.824 -24.6 1.776 -15.158 25.6 -14.65 25.574 0.434 34.63Z" fill="#191919" stroke-width="1"></path><path d="M236.378 120.388c4.766 0.89 15.322 0.358 20.616 0.312 1.934 0 2.026 -3.114 1.558 -12.27 -0.172 -3.286 0.438 -5.326 -4.436 -5.092 -3.8 0.172 -7.584 0.342 -11.384 0.374 -8.098 0 -7.162 -0.622 -7.132 8.486 0 1.324 -0.886 7.88 0.778 8.19Zm1.698 -14.652c4.4 1.06 15.324 -0.42 17.75 0 0 3.114 0.174 9.452 0.112 12.676 -5.156 0 -13.174 -0.514 -18.018 0 0.016 -4.096 0.28 -8.642 0.156 -12.676Z" fill="#191919" stroke-width="1"></path><path d="M256.824 169.936c0.2 1.902 2.414 2.118 2.568 0.142a101.932 101.932 0 0 0 0 -10.776c-0.108 -2.43 0.626 -4.548 -2.6 -4.842 -2.242 -0.218 -9.232 -0.872 -11.134 0.294 -0.496 0.296 -0.558 1.278 0 1.356 3.662 0.482 7.352 0.576 11.026 0.856 0.344 3.02 -0.084 10.808 0.14 12.97Z" fill="#191919" stroke-width="1"></path><path d="M151.422 232.97c33.712 0.126 67.674 0.312 101.368 -0.874 12.24 -0.42 16.072 -0.654 16.49 -13.732a198.676 198.676 0 0 0 -0.326 -20.242c-0.56 -7.18 -5.682 -8.504 -11.554 -8.41 -35.456 0.53 -70.834 -0.124 -106.274 1.154 -8.86 0.324 -13.624 1.664 -13.75 12.16 0 24.314 -1.732 29.874 14.046 29.944Zm-11.492 -30.07c0.292 -7.38 2.212 -9.016 11.258 -9.14 31.144 -0.434 73.856 -0.528 106 -1.556 4.034 -0.126 8.378 0.312 8.768 5.372 0.542 7 0.34 14.122 0.296 21.162 -0.08 11.056 -4.782 10.556 -13.86 10.714 -33.354 0.576 -67.828 1.914 -100.902 1 -9.234 -0.264 -11.522 -0.6 -11.756 -10.68 -0.052 -2.344 -0.04 -10.908 0.196 -16.872Z" fill="#191919" stroke-width="1"></path><path d="M228.452 121.68c0.186 -2.648 0 -19.152 -0.092 -20.164 -0.38 -9.638 15.378 -6.2 28.324 -6.29 9.186 -0.094 8.44 5.076 8.6 12.362 0.544 25.928 0.98 53.846 2.226 80.832a1 1 0 0 0 1.98 0c0.278 -25.694 -0.6 -55.652 -1.682 -80.784 -0.376 -8.736 0.31 -14.59 -10.638 -15.012q-8.332 -0.326 -16.676 -0.296c-7.366 0 -13.874 0.452 -14.17 9.172 0 1.432 0 17.814 0.296 20.15 0.12 0.794 1.78 0.778 1.832 0.03Z" fill="#191919" stroke-width="1"></path><path d="M103.726 84.014c6.234 4.664 12.38 8.4 18.312 13.764 2.29 2.072 7.786 -0.2 1.822 -5.434a153.644 153.644 0 0 0 9.94 -12.114c14.372 -20.242 -4.314 -28.526 -16.024 -14.2 -3.706 4.516 -7.162 9.234 -10.728 13.86 -6 -3.988 -8.72 0.084 -3.322 4.124Z" fill="#191919" stroke-width="1"></path><path d="M103.696 118.2c5.014 -5.948 9 -12.924 13.4 -19.324a1.246 1.246 0 0 0 -2.026 -1.448c-2.926 4.218 -13.936 20.242 -17.704 23.06 -2.056 1.558 -7.878 0.452 -10.448 5.046l-3.8 -2.524c4.422 -3.44 2.2 -8.4 3.738 -11.506s17.502 -19.886 18.84 -22.6a1.152 1.152 0 0 0 -1.68 -1.434c-1.73 1.246 -13.874 15.4 -15.572 17.4 -6.836 8.16 -3.582 9.14 -4.672 13.5 -1.152 4.672 -7.24 3.55 0.638 8.704 3.91 2.57 2.96 -0.264 6.618 -2.32 5.676 -3.198 5.304 2.176 12.668 -6.554Z" fill="#191919" stroke-width="1"></path><path d="M152.542 318.332c-3.72 3.224 -13.376 9.826 -4.032 10.154 52.942 2.162 113.67 1.18 167.5 1.556 2.012 0 1.854 -3.114 -0.154 -3.114 -51.652 -0.342 -115.96 -0.264 -168.172 -1.168 9.856 -8.456 19.73 -16.476 29.586 -24.914 48.272 0.452 113.158 0 163.064 0.826 -5.092 5.6 -12.878 14.73 -17.954 20.35 -3 3.334 0.81 3.27 3 0.886 5.434 -5.93 13.484 -15.772 19.416 -21.2 1.184 -1.09 1.278 -3.114 -0.62 -3.2 -52.944 -1.182 -107.444 -0.466 -160.388 -0.562 -0.8 0 -7.926 -0.576 -10.12 1.388 -7.018 6.266 -13.976 12.804 -21.126 18.998Z" fill="#191919" stroke-width="1"></path><path d="M328.22 154.49a25.288 25.288 0 0 0 -8.988 -12.986c-22.2 0.264 -40.484 0.544 -44.112 0.544 0 3.692 -0.154 8.114 0.14 12.848 2.632 0 27.08 -0.204 52.96 -0.406Z" fill="#191919" stroke-width="1"></path><path d="M246.936 334.386H206.98c-4.858 0 -14.262 -1.556 -17.642 2 -2.07 2.162 -10.418 11.242 -11.444 13 -0.468 0.778 -0.8 1.558 0 1.8 7.566 2.024 50.48 1.292 61.864 1.136 4.314 0 3.954 -0.6 7.086 -4.048 3.47 -3.8 8.78 -10.542 8.874 -11.554 0.326 -2.988 -7.132 -2.334 -8.782 -2.334Zm-65.634 14.434 11.586 -11.96c9.03 1.03 46.526 0.298 58.892 0.578 -1.714 2.258 -7.694 9.886 -8.582 11.756 0.002 -0.7 -44.198 0.562 -61.896 -0.374Z" fill="#191919" stroke-width="1"></path><path d="M370.714 141c-4.33 0 -22.548 0.172 -40.8 0.4a23.314 23.314 0 0 1 8.33 12.886H377.4c-1.322 4.67 -14.31 104.758 -16.084 120.982 -3.534 -0.436 -160.744 -0.78 -170.18 -0.59 0 -1.762 1.37 -14.342 1.962 -17.286a36.376 36.376 0 0 1 -9.436 -13.782c-0.17 2.274 -3.816 25.99 -5.248 38.508l-63.842 52.6c-6.65 5.466 -14.436 11.29 -14.4 20.82 0 14.248 8.502 19.012 20.166 19.152s126.874 2.6 158.188 2.336c25.866 -0.2 36.686 -5.668 44.954 -14.822 4.252 -4.672 37.762 -44.6 43.6 -54.19s5.746 -13.718 5.746 -20.056c0.6 -3.114 14.484 -109 16.848 -127.982s-8.792 -18.964 -18.96 -18.976Zm-55.762 209.876c-10.336 11.588 -27.296 12.162 -37.372 12s-144.814 -1.168 -161.242 -1.246c-8.486 0 -12.16 -1.23 -12.784 -4.826 -1.556 -9.25 9.64 -16.586 16.104 -21.91L178.546 286.4c11.8 0.234 160.12 1.418 188.728 1.698 -2.758 3.25 -41.994 51.198 -52.322 62.778Z" fill="#191919" stroke-width="1"></path><path d="M204.442 170.964c-1.914 -1.028 -13.78 -7 -16.8 -8.486 -1.104 2.07 -9.078 14.84 -10.774 18.094 2.07 1.042 12.456 5.668 17.564 8.096 0.652 -0.81 6.632 -11.942 10.01 -17.704Z" fill="#191919" stroke-width="1"></path><path d="M153.182 168.614c2.646 1.556 11.054 6.118 15.118 7.784 0.888 -1.276 8.472 -14.714 10.62 -18.4 -1.696 -0.95 -12.176 -5.014 -15.71 -6.852 -1.01 1.678 -8.846 15.178 -10.028 17.468Z" fill="#191919" stroke-width="1"></path><path d="M233.67 186.022c-1.556 -0.67 -14.172 -8.128 -18.376 -9.888 -1.026 1.838 -4.282 7.786 -5.9 10.9 4.206 -0.078 17.782 -0.576 24.276 -1.012Z" fill="#191919" stroke-width="1"></path><path d="M47.094 255.284c-9.436 -0.672 -16.708 -11.586 -18.188 -20.79a26.73 26.73 0 0 0 -12.986 36.548 27.04 27.04 0 0 0 41.6 9.732c-10.022 -8.674 -11.002 -15.93 -10.426 -25.49Z" fill="#191919" stroke-width="1"></path><path d="M59.52 198.494c-15.012 0.22 -30.256 13.36 -25.662 30.94 0.218 0.81 1.868 0.842 1.776 -0.14 -1.06 -12.052 5.978 -27.53 24 -27.6 14.514 0 24.308 12.302 22 26.378a1.682 1.682 0 0 0 3.302 0.624c3.764 -15.766 -9.612 -30.434 -25.416 -30.202Z" fill="#191919" stroke-width="1"></path><path d="M64.144 254.722a19.246 19.246 0 0 1 -8.456 -0.84c-4.67 -1.558 -4.67 1 -4.11 6.618s2.584 12.316 7.786 16.458c2.786 2.212 9.342 -8.268 9.468 -18.468 0.092 -4.188 0.106 -4.356 -4.688 -3.768ZM60.92 273.8c-5.386 -4.33 -6.694 -10.216 -7.146 -17.222a22.6 22.6 0 0 0 12.176 0.856c0.53 7.286 -1.37 10.648 -5.03 16.366Z" fill="#191919" stroke-width="1"></path><path d="M301.11 206.7c1.48 -0.162 2.148 -1.976 0 -2.366 -4.484 -0.81 -5.904 -4.484 -7.148 -8.986 -0.936 -3.426 -2.538 -1.2 -2.786 0.252 -1.2 6.88 -2.742 7.784 -6.758 8.812 -3.24 0.842 -2.6 2.4 -0.328 2.708a9.052 9.052 0 0 1 7.786 7.958c0.4 3.518 2.086 4.67 2.568 0 0.438 -4.048 2.386 -7.912 6.666 -8.378Zm-8.2 3.986a11.01 11.01 0 0 0 -5.684 -5.014c3.676 -0.948 4.672 -2.414 5.372 -5.932a12.188 12.188 0 0 0 4.78 5.824 11.546 11.546 0 0 0 -4.474 5.122Z" fill="#2862e9" stroke-width="1"></path><path d="M271.852 78.736c7.362 1.248 7.692 4.438 8.874 11.086 0.358 1.946 2.384 2.6 2.384 0.622 0 -7.582 2.442 -9.856 9.652 -11a1.558 1.558 0 0 0 0.142 -2.974c-6.51 -1.106 -8.922 -5.232 -9.826 -11.632 -0.6 -4.142 -2.46 -3.722 -3.286 0.81 -1.184 6.696 -2.632 8.6 -8.238 10.122 -3.144 0.848 -3.154 2.382 0.298 2.966Zm9.514 -7.086a15.744 15.744 0 0 0 6.088 6 10.116 10.116 0 0 0 -5.638 4.484 8.832 8.832 0 0 0 -5.62 -4.874 8.016 8.016 0 0 0 5.17 -5.61Z" fill="#2862e9" stroke-width="1"></path><path d="M30.8 114.518c-6.85 -1.258 -7.832 -8.4 -8.3 -13.702 -0.2 -2.384 -2.258 -2.82 -2.444 0 -0.358 5.542 -0.546 12.938 -7.786 13.81 -3.332 0.4 -2.788 1.978 0.374 2.524 8.252 1.416 7.786 5.466 8.548 10.432 0.28 1.776 1.652 2.212 2.04 -0.094 0.842 -4.936 0.888 -9.544 7.786 -10.322 2.512 -0.25 2.544 -2.138 -0.218 -2.648ZM21.898 120a10.676 10.676 0 0 0 -5.558 -4.548 8.578 8.578 0 0 0 5.014 -6.104 12.464 12.464 0 0 0 4.904 6.322A9.478 9.478 0 0 0 21.898 120Z" fill="#2862e9" stroke-width="1"></path><path d="M337.11 182.612c0.016 2 1.914 1.23 2.212 -0.468a35.536 35.536 0 0 0 0 -10.028c-0.546 -3.6 -3.442 -4.094 -2.944 -0.296a96.446 96.446 0 0 1 0.732 10.792Z" fill="#2862e9" stroke-width="1"></path><path d="M126.352 23.488c-3.114 -1.106 -9.342 -0.296 -12.458 0.8s-6.228 4.282 -0.934 3.6 8.362 -0.56 12.956 -0.934a1.824 1.824 0 0 0 0.436 -3.466Z" fill="#2862e9" stroke-width="1"></path><path d="M158.21 131.6a1 1 0 0 0 1.884 -0.28c0.67 -4.672 0.78 -7.786 3.116 -11.414 0.73 -1.106 2.474 -2.694 0.824 -3.908 -3.068 -2.336 -8.252 9.732 -5.824 15.602Z" fill="#2862e9" stroke-width="1"></path><path d="M149.024 27.38a1.23 1.23 0 0 0 0 2.242c3.114 1.122 6.228 0 12.456 3.474 2.384 1.308 4.906 0.716 3.442 -1.666s-12.18 -5.68 -15.898 -4.05Z" fill="#2862e9" stroke-width="1"></path><path d="M77.536 40.462c2.46 -2.726 3.612 -4.89 8.128 -6.6 0.98 -0.358 5.138 -2 2.336 -3.488s-11.57 3.878 -12.458 9.094a1.232 1.232 0 0 0 1.994 0.994Z" fill="#2862e9" stroke-width="1"></path><path d="M52.466 105.688c-0.2 -2.522 -1.028 -14.714 -2.834 -14.698 -3.426 0 -0.732 11.942 1.37 15.104 0.398 0.592 1.528 0.436 1.464 -0.406Z" fill="#2862e9" stroke-width="1"></path><path d="M52.232 69.376c2.226 0.486 1.712 -3.954 5.046 -8.782 3.8 -5.512 0 -6.042 -2.742 -1.962 -1.182 1.698 -5.434 10.062 -2.304 10.744Z" fill="#2862e9" stroke-width="1"></path><path d="M277.924 112.494c-1.45 6.42 7.956 8.844 10.4 3.114 10.682 3.302 12.456 8.736 14.418 6.852a1.56 1.56 0 0 0 0 -2.088 31.514 31.514 0 0 0 -14.106 -7.318 5.45 5.45 0 0 0 -10.714 -0.56Z" fill="#2862e9" stroke-width="1"></path><path d="M180.088 95.552a32.972 32.972 0 0 1 -5.248 6.074c-8.346 7.24 -0.98 4.81 3.114 1.214 8.674 -7.74 3.256 -8.626 2.134 -7.288Z" fill="#2862e9" stroke-width="1"></path><path d="M69.33 137.688c5.452 -4.824 0 -10.9 -5.248 -8.626 -1.65 -2.444 -3.364 -4.874 -4.968 -7.366a1.7 1.7 0 1 0 -3.02 1.558 32.216 32.216 0 0 0 5.776 7.786c-3.83 5.916 2.758 10.808 7.46 6.648Z" fill="#2862e9" stroke-width="1"></path><path d="M321.056 134.2c-0.656 -0.84 -8.05 -8.174 -9.344 -6.96s6.714 8.674 7.15 8.97c1.338 0.934 3.266 -0.638 2.194 -2.01Z" fill="#2862e9" stroke-width="1"></path><path d="M300.892 253.632c-1.904 1.166 -3.848 2.242 -5.8 3.334 -1.058 0.6 -1.26 2.77 3.94 0.948 1.8 -0.62 11.958 -5.558 9.344 -8.236 -1.692 -1.76 -3.302 1.394 -7.484 3.954Z" fill="#2862e9" stroke-width="1"></path><path d="M272.4 266.4c-8.13 1.67 -1.788 3.536 4.268 2.04 1.432 -0.36 8.828 -2.446 7.536 -4.984s-4.104 1.362 -11.804 2.944Z" fill="#2862e9" stroke-width="1"></path><path d="M334.68 155.906a18.838 18.838 0 0 0 -3.626 -9.342c-1.666 -2.274 -5.186 -2.274 -1.558 2.756a29.954 29.954 0 0 1 3.924 8.316c0.062 0.622 1.58 1.416 1.26 -1.73Z" fill="#2862e9" stroke-width="1"></path><path d="M336.722 200.098c-2.164 5.412 -0.702 7.88 -3.94 13.702 -0.53 0.936 0.8 1.7 1.556 1 2.226 -2.2 5.902 -11 4.89 -14.186 -0.358 -0.952 -2.09 -1.56 -2.506 -0.516Z" fill="#2862e9" stroke-width="1"></path><path d="M326.974 229.73c-2.24 -1.216 -2.46 2.29 -5.232 5.6 -1.308 1.558 -2.756 3.116 -4.158 4.516a0.842 0.842 0 0 0 1 1.34c4.762 -1.956 11.162 -9.948 8.39 -11.456Z" fill="#2862e9" stroke-width="1"></path><path d="M252.714 268.862c-3.114 -0.148 -3.114 1.23 -10.2 0 -8.8 -1.558 -2.476 2.724 3.114 3.4 10.744 1.396 9.188 -3.302 7.086 -3.4Z" fill="#2862e9" stroke-width="1"></path><path d="M176.538 49.01c1.56 2.224 2.944 4.562 4.298 6.898 2.056 3.58 4.672 1.774 3.114 -1.418 -5.232 -10.262 -12.43 -12.636 -7.412 -5.48Z" fill="#2862e9" stroke-width="1"></path><path d="M188.482 82.442a55.026 55.026 0 0 0 -1.386 -13.36c-0.266 -0.858 -1.464 -0.452 -1.558 0.28 -0.56 3.706 0.436 11.584 -0.576 14.326 -0.888 2.35 3.47 3.112 3.52 -1.246Z" fill="#2862e9" stroke-width="1"></path><path d="M189.524 241.876a0.872 0.872 0 0 0 -1.416 1 45.24 45.24 0 0 0 9.436 12.458c1.448 1.432 3.814 -0.766 2.336 -2.12 -3.644 -3.598 -7.018 -7.452 -10.356 -11.338Z" fill="#2862e9" stroke-width="1"></path><path d="M217.164 264.656c-1.912 -0.766 -3.706 -1.836 -5.638 -2.552s-1.914 2.63 4.516 5.48c7.926 3.522 8.676 -0.14 7.508 -1.12 -0.796 -0.592 -4.376 -1 -6.386 -1.808Z" fill="#2862e9" stroke-width="1"></path><path d="M218.254 133.126c-3.472 1.558 -15.572 7.6 -19.558 9.6 1.262 2.88 7.614 12.456 8.2 13.78a126.13 126.13 0 0 0 19.154 -9.498c-2.798 -5.474 -6.986 -12.106 -7.796 -13.882Z" fill="#2862e9" stroke-width="1"></path><path d="M213.224 125.17c-2.646 -4.672 -6.634 -10.636 -7.582 -13.22 -3.114 1.26 -16.754 8.424 -19.046 9.668 1.044 2.29 6.23 10.262 7.304 12.77 2.742 -0.966 16.9 -7.896 19.324 -9.218Z" fill="#2862e9" stroke-width="1"></path><path d="M220.528 160.64c3.254 1.324 13.578 6.23 17.05 7.786 -1.044 -1.556 -5.684 -10.028 -7.458 -12.738 -1.542 1.012 -6.79 3.628 -9.592 4.952Z" fill="#2862e9" stroke-width="1"></path><path d="M69.656 156.312a13 13 0 0 0 11.756 14.574c5.466 0.296 14.014 -3.114 12.582 -13.702s-8.86 -14.668 -11.632 -23.264c-3.146 7.942 -11.298 11.728 -12.706 22.392Z" fill="#2862e9" stroke-width="1"></path><path d="M68.162 244.15c3.082 5.28 1.182 8.626 4.08 8.08 6.414 -1.18 11.926 -11.646 12.348 -16.458 0 -0.87 0 -2.74 -1.09 -2.99 -9.734 -2.242 -21.364 2.836 -20.96 5.062 0.328 1.244 3.42 2.534 5.622 6.306Zm14.014 -9.344c-1.246 7.304 -3.114 10.464 -9.6 14.746 -0.6 -4.032 -3.348 -9.854 -6.8 -11.85 6.758 -2.63 8.534 -3.876 16.366 -2.834Z" fill="#2862e9" stroke-width="1"></path><path d="M88.6 234.494c-0.684 11.448 -8.066 20.414 -15.914 21.568a24.474 24.474 0 0 1 -9.482 24.026c9.234 7.66 28.152 9.234 37.588 -5.124S105 238 88.6 234.494Z" fill="#2862e9" stroke-width="1"></path><path d="M34.076 233.904c-1 1.4 2.21 16.07 15.338 17.906 0.436 -6.648 3.55 -12.082 8.704 -14.37 -6.354 -7.64 -23.056 -4.932 -24.042 -3.536Z" fill="#2862e9" stroke-width="1"></path></svg>