<svg xmlns="http://www.w3.org/2000/svg" viewBox="-0.5 -0.5 150 150" id="Designer-2--Streamline-Brooklyn.svg" height="150" width="150"><desc>Designer 2 Streamline Illustration: https://streamlinehq.com</desc><path d="M132.33732999999998 126.37211500000001c-42.13124 0.01788 -84.66925 0.085675 -127.05081000000001 0.188485 -0.492445 0 -0.537145 0.77331 -0.032034999999999994 0.77331 41.980005 0.12963 84.94266499999999 0.05811 127.03814499999999 0.049170000000000005 0.63474 0 0.69732 -1.010965 0.0447 -1.010965Z" fill="#191919" stroke-width="1"></path><path d="M89.30762 118.80812999999999c-1.386445 -0.61686 -5.364 -1.08621 -7.003 -1.0504499999999999 -2.4942599999999997 0.049170000000000005 -4.215955 0.92529 -6.544825 3.6505 -0.25926 0.298 0.12069 0.733825 0.42539499999999997 0.447 2.682 -2.44509 3.7771500000000002 -3.32121 6.32058 -3.31227a26.776045000000003 26.776045000000003 0 0 1 6.67967 1.0057500000000001c0.447 0.11622 0.48723 -0.59004 0.12516 -0.745Zm3.38379 6.026305000000001c-0.15570499999999998 -0.40677 -2.6507099999999997 -0.15645 -5.396035 -1.98915a0.32184 0.32184 0 0 0 -0.40155500000000005 0.4917 8.39615 8.39615 0 0 0 5.4265799999999995 2.1008999999999998 0.41124000000000005 0.41124000000000005 0 0 0 0.37101 -0.60345ZM88.5805 121.137a0.344935 0.344935 0 0 1 0 0.5453399999999999c-0.353875 0.24138 -3.272785 0.21455999999999997 -3.451585 0.894a4.9915 4.9915 0 0 0 0.42092499999999994 2.1605 0.322585 0.322585 0 0 1 -0.604195 0.22797c-0.38442 -0.8492999999999999 -1.1979600000000001 -2.6373 -0.0447 -3.299605 0.61239 -0.35313 3.1073950000000004 -0.9245450000000001 3.692965 -0.540125Zm-4.8425 -1.341c0.894 -0.30395999999999995 1.833445 0.33078 0.28161 0.7964049999999999 -2.00703 0.596 -2.517355 3.21393 -3.000115 3.63411 -0.16986 0.149 -0.55875 0.0447 -0.513305 -0.18774a5.5875 5.5875 0 0 1 3.23181 -4.2472449999999995Zm-1.341 -0.57663a0.36207 0.36207 0 0 1 0.149 0.69732c-2.05173 0.596 -3.33909 1.185295 -4.72032 2.9732950000000002 -0.19742500000000002 0.25926 -0.657835 -0.04023 -0.479035 -0.31737a7.333035 7.333035 0 0 1 5.03918 -3.3755949999999997Z" fill="#191919" stroke-width="1"></path><path d="M124.312935 99.781575a3.2921549999999997 3.2921549999999997 0 0 0 -0.40230000000000005 -2.7565 0.33078 0.33078 0 0 0 -0.56322 0.33525c0.7897000000000001 2.52257 -0.8090700000000001 4.10942 -1.556305 6.1380550000000005 -0.596 1.614415 -0.54087 3.7376650000000002 1.17561 4.627195 0.33078 0.16986 0.6220749999999999 -0.36207 0.31737 -0.56769a2.61197 2.61197 0 0 1 -1.00128 -2.173165c-0.02235 -1.8662249999999998 1.5630099999999998 -3.5380049999999996 2.030125 -5.603145Zm4.47 -2.436895a4.1273 4.1273 0 0 0 -0.9170950000000001 -2.883895c-0.18774 -0.18327 -0.5215 0.036505 -0.47382 0.277885 0.21455999999999997 1.072055 0.720415 1.66284 0.49691500000000005 3.27204a8.10262 8.10262 0 0 1 -1.364095 3.0358750000000003c-0.9610500000000001 1.5816350000000001 -1.788 3.73692 -0.23691 5.248525 0.26372999999999996 0.25926 0.71073 -0.18774 0.447 -0.447a2.682 2.682 0 0 1 -0.36654 -2.642515c0.66156 -2.1605 2.396665 -3.18264 2.401135 -5.860915Z" fill="#191919" stroke-width="1"></path><path d="M93.322425 75.13474000000001c-1.069075 0.94764 -3.0358750000000003 3.08877 -4.613785 2.52108s-2.350475 -3.2035 -2.834725 -4.645075a0.28161 0.28161 0 0 0 -0.5453399999999999 0.12069c0.3725 1.70307 1.42593 4.604845 3.21393 5.23139 1.069075 0.3725 2.110585 -0.166135 3.00533 -0.729355a40.254585 40.254585 0 0 1 -0.166135 4.86038c-0.04023 0.325565 0.54981 0.330035 0.60345 0a24.447920000000003 24.447920000000003 0 0 0 0.167625 -5.26864l0 -0.01639 0 0.01639c2.46893 -1.790235 1.54513 -2.42721 1.16965 -2.09047Z" fill="#191919" stroke-width="1"></path><path d="M90.2195 74.28991c1.2799099999999999 -0.380695 2.1433649999999997 -1.8930449999999999 1.694875 -2.338555 -0.30247 -0.298 -0.5364 0.13857 -0.60345 0.38442a2.416035 2.416035 0 0 1 -1.1175 1.341c-0.6399549999999999 0.309175 -0.271925 0.69732 0.026075 0.613135Z" fill="#191919" stroke-width="1"></path><path d="M85.735345 70.2386c0.5043650000000001 -0.049915 0.13186499999999998 -1.4155 -0.2235 -1.341 -0.493935 0.10876999999999999 -0.19295500000000002 1.3827200000000002 0.2235 1.341Z" fill="#191919" stroke-width="1"></path><path d="M104.2255 72.541395c-1.38123 -0.33078 -3.874 -2.141875 -4.0684450000000005 -4.198075 2.76693 0.28161 4.081855 -0.280865 5.168065 -0.92976 1.788 -1.06386 -0.791935 -0.8195 -2.1456 -1.12644 -4.224895 -0.99234 -2.727445 -8.560794999999999 -11.338154999999999 -9.37955S84.1105 63.1015 78.7465 62.111394999999995c-0.836635 -0.15645 -1.9720149999999999 -0.72414 -1.1175 0.37995a8.310475 8.310475 0 0 0 6.41147 3.0544999999999995 5.314830000000001 5.314830000000001 0 0 0 0.10727999999999999 1.002025 0.28608 0.28608 0 0 0 0.56769 0 5.030985 5.030985 0 0 0 0 -0.9685 13.599974999999999 13.599974999999999 0 0 0 6.692335 -1.99809 11.953525 11.953525 0 0 0 1.5965349999999998 1.922845c-2.651455 0.47829 -8.493 1.62708 -10.67585 2.5926a0.644425 0.644425 0 0 0 -0.273415 0.6928500000000001 15.313475 15.313475 0 0 0 1.788 3.232555c0.389635 0.51405 2.410075 0 2.968825 -0.25479 0 0.8195 0.09387 0.92082 1.368565 0.64815s0.9685 -0.8090700000000001 0.596 -0.76884c-0.447 0.048425 -0.836635 0.15645 -1.30524 0.19221a20.115 20.115 0 0 1 0.21902999999999997 -3.16029 13.999295 13.999295 0 0 0 1.018415 2.0599250000000002 0.7882100000000001 0.7882100000000001 0 0 0 0.7740549999999999 0.282355c0.40677 0 2.7088200000000002 -0.447 2.83845 -0.8142849999999999a13.38318 13.38318 0 0 0 0.35834499999999997 -3.786835 5.9830950000000005 5.9830950000000005 0 0 0 1.0728 -0.200405c0.23691 0.21455999999999997 2.1008999999999998 1.9712699999999999 2.42721 1.4348699999999999 2.235 -3.63411 2.831 3.7994999999999997 0.099085 3.576 -0.21083499999999997 0 -0.537145 0.023095 -0.487975 0.318115 0.5274599999999999 3.4150799999999997 1.30077 6.2051050000000005 1.84164 10.421059999999999 0.049170000000000005 0.39410500000000004 0.7196699999999999 0.28161 0.68838 -0.11175a82.49608500000001 82.49608500000001 0 0 0 -1.36782 -8.32016c1.9444499999999998 0.86271 5.999485000000001 0.8403599999999999 7.9715 0.228715 2.091215 -0.647405 0.678695 -0.893255 -0.6988099999999999 -1.22478Zm-17.33764 -1.639a6.945635 6.945635 0 0 1 -2.5032 0.5274599999999999 14.03133 14.03133 0 0 1 -1.5965349999999998 -2.682 33.69933 33.69933 0 0 1 4.310569999999999 -1.192 31.952305000000003 31.952305000000003 0 0 0 -0.21455999999999997 3.34505Zm4.877515 -1.23372a10.55963 10.55963 0 0 1 -2.4585 0.66156 19.244094999999998 19.244094999999998 0 0 1 -1.460945 -2.942005 31.222205 31.222205 0 0 1 4.148905 -0.8492999999999999 20.29082 20.29082 0 0 1 -0.233185 3.128255Z" fill="#191919" stroke-width="1"></path><path d="M89.996 69.26488499999999c0.33525 -0.19295500000000002 0.149 -1.398365 -0.34419 -1.225525 -0.42017999999999994 0.148255 -0.09387 1.475845 0.34419 1.225525Z" fill="#191919" stroke-width="1"></path><path d="M79.45425 51.069005000000004c-3.77566 3.4269999999999996 -7.752470000000001 6.9158349999999995 -12.516 8.88785a16.04879 16.04879 0 0 1 -7.192975 1.42593c-7.555789999999999 -0.63474 -0.61239 -9.03536 0.282355 -12.11072 1.823015 -6.258 -7.598999999999999 -4.126555 -10.663185 -3.433705 -7.4842699999999995 1.6807199999999998 -16.613500000000002 5.977135 -21.9775 11.60114 -0.20115000000000002 0.21008999999999997 0.12516 0.54981 0.35313 0.3725 4.6361349999999995 -3.6743400000000004 7.514815 -5.919025 13.09412 -8.355175 2.553115 -1.122715 21.77635 -8.22629 18.2227 0.30395999999999995 -1.043 2.4942599999999997 -5.215 8.019925 -2.861545 10.86359 2.074825 2.5032 6.9285000000000005 1.49 9.532275 0.63474 5.44893 -1.788 10.031425 -5.726815 14.216090000000001 -9.536 0.35089499999999996 -0.34568000000000004 -0.11026 -0.999045 -0.48946500000000004 -0.65411Z" fill="#191919" stroke-width="1"></path><path d="M28.49625 58.544335a8.057174999999999 8.057174999999999 0 0 0 -1.96531 -2.052475c-0.76437 -0.36207 -3.223615 1.90422 -2.9241249999999996 2.4853199999999998 0.2235 0.447 1.788 2.495005 2.168695 2.526295s0.86271 -0.447 2.20818 -1.46169c0.53193 -0.41943499999999995 1.07131 -0.660815 0.5125599999999999 -1.4974499999999997Zm31.178250000000002 2.19477c-0.631015 -1.13985 -1.788 -1.14432 -2.7803400000000003 -0.49617 -1.055665 0.71073 -0.6705 2.19924 0.298 2.78928a1.7649050000000002 1.7649050000000002 0 0 0 2.4823399999999998 -2.29311Zm8.5675 -8.30228a1.601005 1.601005 0 0 0 -1.998835 -0.808325c-1.89528 -1.5734400000000002 -3.89784 -3.3219549999999995 -5.851975 -4.984795 0.72414 -1.7134999999999998 -0.8582399999999999 -3.456055 -2.57472 -2.1903 -1.9541350000000002 -1.663585 -3.6505 -2.9151849999999997 -5.945845 -4.886455a1.6904050000000002 1.6904050000000002 0 0 0 -1.5786550000000001 -2.533c-2.05173 0.20562000000000002 -2.65518 1.7075399999999998 -2.0204400000000002 2.7453250000000002 0.7152 1.1622000000000001 2.34228 1.06386 3.308545 0.298 1.8729299999999998 1.8625 3.7771500000000002 3.3614399999999995 5.704465 4.9915 -0.80013 1.5153299999999998 1.043 3.47766 2.61942 2.235 1.9273150000000001 1.62708 3.8270649999999997 3.278 5.775985 4.881985 -0.3129 0.25032 -0.68838 2.6022849999999997 1.341 2.655925 1.31418 0.04023 1.788 -1.0824850000000001 1.22478 -2.384ZM50.984820000000006 39.387405c-1.247875 1.27693 -2.8563300000000003 -0.23244 -1.4974499999999997 -1.2389350000000001 1.26501 -0.93423 2.2692699999999997 0.449235 1.4974499999999997 1.2389350000000001Zm16.65373 14.304c-0.71222 1.12942 -2.5128850000000003 -0.7017899999999999 -0.9685 -1.3991099999999999 0.7360599999999999 -0.32929 1.224035 0.994575 0.9685 1.4005999999999998Zm13.697569999999999 -6.021835c-0.36058 -0.2235 -2.89656 2.016715 -2.96361 2.2849150000000003 -0.12069 0.49617 0.7867200000000001 1.2828899999999999 1.03704 1.53321 0.6258 0.61686 1.2665 1.6226099999999999 2.05173 0.894 0.6705 -0.63027 1.341 -1.27395 1.976485 -1.91763 0.39783 -0.39187 -1.85505 -2.6417699999999997 -2.101645 -2.793005Zm-0.15645 0.8492999999999999 1.4311450000000001 1.6546450000000001 -1.672525 1.68966 -1.9086899999999998 -1.788ZM26.133110000000002 57.1415l1.788 1.9668 -2.0249099999999998 1.603985a10.98726 10.98726 0 0 0 -1.694875 -1.828975Z" fill="#0a65fc" stroke-width="1"></path><path d="M90.26867 24.7191c-0.3129 -2.772145 -1.10856 -3.129 -3.836005 -3.129a93.708335 93.708335 0 0 0 -11.534089999999999 0.689125c-3.625915 0.447 -3.223615 1.4155 -2.89656 4.63986 0.30395999999999995 3.017995 0.894 9.218630000000001 1.788 11.588474999999999 0.83142 2.235 1.043 2.9412599999999998 3.366655 2.77587a88.965665 88.965665 0 0 0 11.25695 -1.53768c2.7222299999999997 -0.60345 2.34675 -2.642515 2.31546 -5.172535 -0.10579 -0.142295 0.172095 -3.351755 -0.46041 -9.854115Zm-0.894 13.707999999999998c-1.06833 0.97446 -11.12732 1.9578600000000002 -12.683625 2.03832a1.44381 1.44381 0 0 1 -1.4348699999999999 -0.5453399999999999c-1.22478 -1.6985999999999999 -2.28864 -11.26589 -2.5523700000000002 -14.131905000000001 -0.2235 -2.44062 0.11175 -2.4138 2.20371 -2.682a90.844555 90.844555 0 0 1 12.231409999999999 -0.6928500000000001c2.3095 0.09387 2.1605 0.9685 2.31993 2.42721a88.40915 88.40915 0 0 1 0.447 10.77866c0 0.8492999999999999 0.188485 2.177635 -0.5215 2.825785Z" fill="#0a65fc" stroke-width="1"></path><path d="M85.440325 26.453460000000003c-1.601005 -0.22946 -6.875604999999999 0.298 -8.748535 0.40230000000000005 -0.9886149999999999 0.05811 -0.09834000000000001 2.235 -0.032034999999999994 2.378785a0.35834499999999997 0.35834499999999997 0 0 0 0.666775 -0.15645 4.49086 4.49086 0 0 0 -0.108025 -1.341c1.207645 -0.0447 2.405605 -0.16092 3.6169750000000005 -0.21902999999999997 0.3576 2.910715 0.447 5.704465 0.961795 8.61965a4.9915 4.9915 0 0 0 -1.14432 0.35089499999999996c-0.80162 0.39783 -0.024585000000000003 0.745 0.093125 0.730845 0.64815 -0.09387 3.911995 -0.35313 3.8449449999999996 -0.9834s-1.341 -0.33525 -1.9086899999999998 -0.25479c-0.447 -2.49873 -0.5215 -5.753635 -1.02363 -8.5675 1.241915 -0.0745 2.35569 0 3.576 -0.08493 0 2.123995 0.81354 1.154005 0.8269500000000001 1.069075 0.19221 -1.3857000000000002 0.32631 -1.808115 -0.6213299999999999 -1.9444499999999998Z" fill="#191919" stroke-width="1"></path><path d="M132.52954 112.61196500000001a5.3267500000000005 5.3267500000000005 0 0 0 -2.50767 0.69732 16.854879999999998 16.854879999999998 0 0 0 -0.15645 -1.82823c-0.06705 -0.447 -10.47023 -0.7964049999999999 -10.5045 0 -0.33972 8.668075 1.788 13.60817 2.37357 13.9613s5.530135 0.157195 6.151465 0c0.23244 -0.05811 0.6757150000000001 -1.259795 1.100365 -3.02619 5.814725 -0.91635 7.41871 -9.864545 3.5432200000000003 -9.8042Zm-3.278 8.618905a37.048849999999995 37.048849999999995 0 0 0 0.7867200000000001 -6.960535 4.60112 4.60112 0 0 1 2.3959200000000003 -0.77331c2.728935 0.05363999999999999 1.106325 6.410725 -3.1811499999999997 7.7338450000000005Z" fill="#0a65fc" stroke-width="1"></path><path d="M5.96 113.17518500000001c1.09962 -0.08493 9.991940000000001 0.08493 10.728 0 0.33972 1.0593899999999998 -1.30971 11.109440000000001 -1.609945 12.068999999999999 -1.73436 0.22797 -6.3928449999999994 0.06258 -7.112515 0.06258C7.26673 123.8935 5.96 114.581 5.96 113.17518500000001Z" fill="#191919" stroke-width="1"></path><path d="M98.61118 125.309c2.40039 -0.36654 9.1337 -3.37038 11.985560000000001 -7.2108550000000005a59.81754 59.81754 0 0 1 -0.12590500000000002 6.817495c-3.5894099999999995 0.45519499999999996 -10.566335 0.31886 -11.859655 0.39336000000000004Z" fill="#0a65fc" stroke-width="1"></path><path d="M111.91539 92.507395c-1.5794000000000001 -4.6935 -4.519915 -8.41403 -12.25376 -10.7876 -2.714035 4.238305 -10.617740000000001 3.9484999999999997 -9.49577 0 -7.88657 1.5734400000000002 -12.79016 7.301 -17.748135 13.0375 0.42017999999999994 2.593345 0.894 7.11326 1.13985 10.1618 0.37995 4.69946 -1.45275 5.7670449999999995 -4.321 6.5634500000000005 -1.98915 0.54981 -8.910200000000001 0.6928500000000001 -14.011214999999998 0.7152a40.379000000000005 40.379000000000005 0 0 1 -6.790675 4.367935c2.3691 -0.39783 6.491185 1.341 8.35145 4.17945 4.953505 -0.9685 14.69885 -6.902425 18.449925 -11.76653a93.77315 93.77315 0 0 1 6.0799449999999995 -19.70674c0.15645 -0.34419 0.64368 -0.088655 0.5215 0.25032 -3.576 9.834 -6.884545 20.64544 -7.027585 31.222949999999997a14.13414 14.13414 0 0 1 5.668705 -3.7860899999999997c1.37676 -0.33972 6.835375000000001 0.25479 9.6105 1.29183 3.129 -1.7134999999999998 9.834 -5.297695 11.32847 -8.306750000000001 1.2113699999999998 -2.44956 -1.2113699999999998 -11.86934 -1.98021 -14.515580000000002 -0.09834000000000001 -0.34940499999999997 0.39783 -0.555025 0.53193 -0.20636500000000002 1.341 3.482875 2.6417699999999997 9.30803 2.6417699999999997 13.055380000000001 0 4.21521 -8.216605 8.900514999999999 -11.516210000000001 10.469485 2.079295 1.31418 2.798965 3.9879849999999997 2.798965 6.424880000000001 5.534605 -0.389635 15.106365 -4.17647 18.834345 -12.545055 2.05322 -4.610805 0.76437 -15.435655 -0.8127949999999999 -20.11947Z" fill="#0a65fc" stroke-width="1"></path><path d="M121.15637000000001 38.430825c-0.8880399999999999 -0.63921 -9.06665 -2.821315 -10.728 -3.129 -0.021605000000000003 0 -0.41496500000000003 -0.28161 -0.55875 0.12516 -2.877935 8.26205 -5.811 19.61287 -8.086975 28.06266 -0.079715 0.30395999999999995 0.45370499999999997 0.49319 0.5453399999999999 0.16911500000000002 2.59558 -9.179145 5.230645 -18.494625 8.15924 -27.717724999999998a93.213655 93.213655 0 0 1 10.213205 3.0224650000000004c-5.306635 13.24163 -7.479799999999999 28.31 -12.451185 41.9882 -2.0115000000000003 -0.5215 -6.893485 -1.457965 -8.560794999999999 -2.271505 -0.31737 -0.15645 -0.6220749999999999 0.35313 -0.3129 0.541615 1.0549199999999999 0.65709 8.654665000000001 2.44956 8.820055 2.57025 0.48723 0.36207 0.644425 -0.05811 0.800875 -0.5453399999999999C113.55215500000001 67.23476000000001 116.965 52.883825 121.4648 38.806305c0.06705 -0.20562000000000002 -0.15570499999999998 -0.26522 -0.30843 -0.37548Z" fill="#191919" stroke-width="1"></path><path d="M140.200805 54.95865c-1.7284 -2.396665 -3.54471 -4.680835 -5.480965 -6.902425 -0.92976 -1.051195 -1.5242699999999998 -2.0964300000000002 -2.538215 -1.2389350000000001 -4.14518 3.5015 -12.755144999999999 12.232155 -16.28719 16.092000000000002 -0.268945 0.29055000000000003 0.20562000000000002 0.65709 0.47382 0.37995 5.373685 -5.561425 10.774189999999999 -10.92617 16.585935000000003 -16.03091 2.62389 3.10665 5.029495 6.097079999999999 7.49768 9.334105C132.54295 64.35608 118.10708499999998 75.99 110.4537 82.457345c-0.298 0.24585 0.16986 0.67944 0.447 0.447 10.28696 -8.53472 20.57839 -16.223865 30.118115 -25.80382 0.49617 -0.49691500000000005 -0.553535 -1.7753349999999999 -0.81801 -2.141875Z" fill="#191919" stroke-width="1"></path><path d="M145.24371 79.261295c0 0.7301 -0.91486 -8.961605 -1.2113699999999998 -11.16755a0.6757150000000001 0.6757150000000001 0 0 0 -0.844085 -0.648895c-4.488625 0.7867200000000001 -9.09347 1.22031 -13.519514999999998 2.039065 -0.33972 0.06705 -0.24585 0.633995 0.10727999999999999 0.6258 3.1453900000000004 -0.078225 10.237045 -1.3283349999999998 13.56794 -1.9094350000000002 -0.0894 1.650175 1.243405 11.38658 1.2069 11.454375 -10.89488 2.3378099999999997 -20.751975 3.13794 -31.74147 3.7458599999999995a0.31588 0.31588 0 0 0 0 0.63027 183.08077 183.08077 0 0 0 31.811500000000002 -3.576c0.668265 -0.143785 0.704025 -0.608665 0.6228199999999999 -1.1934900000000002Z" fill="#191919" stroke-width="1"></path><path d="M11.111675 101.16727499999999c0 -0.33972 -1.23819 -6.438289999999999 -1.395385 -7.09091 -0.10281000000000001 -0.41571 -0.58557 -0.12516 -0.61239 0.16092 -0.18774 2.1642249999999996 -0.17433 4.345585 -0.447 6.500870000000001 -0.23244 1.788 0.8403599999999999 9.477145 1.149535 11.37764 0.0447 0.27714 2.0964300000000002 0.50958 2.086 0.06705 -0.06258 -3.7913050000000004 -0.63027 -7.35911 -0.77331 -11.01557ZM6.6007 112.281185c-0.68391 -1.341 -1.85058 -6.415195000000001 -2.1605 -8.074309999999999a54.139895 54.139895 0 0 1 -0.71073 -6.108999999999999 0.26372999999999996 0.26372999999999996 0 0 1 0.48723 -0.16092 42.917215 42.917215 0 0 1 2.575465 5.422855c0.75543 1.85058 1.5645 6.361555 2.086 8.65094 0.09536 0.447745 -2.16348 0.49915000000000004 -2.277465 0.270435Zm-1.67625 -8.46767c0.42464999999999997 -0.10727999999999999 0.81354 -0.22797 1.23372 -0.36207q-0.894 -1.8625 -1.7529850000000002 -3.710845c0.17507499999999998 1.341745 0.344935 2.714035 0.519265 4.072915Zm4.31355 -3.129c0.09834000000000001 -1.453495 0.20115000000000002 -2.9055 0.298 -4.358995l0.9394449999999999 4.3955Z" fill="#0a65fc" stroke-width="1"></path><path d="M141.70346999999998 70.766805c-0.026819999999999997 -0.21902999999999997 -0.46935 -0.327055 -0.60345 -0.286825 -2.7676749999999997 0.7740549999999999 -4.321 0.541615 -5.051845 0.720415 -0.541615 0.1341 0 2.1605 0.0447 2.4942599999999997 0.33525 1.788 0.55875 4.06919 0.894 5.5875 0.0447 0.2235 0.25926 0.09834000000000001 0.447 0.085675a30.99796 30.99796 0 0 1 4.631665 -0.63474c0.6749700000000001 0 0.67944 -0.65262 0.596 -1.192 -0.3576 -2.267035 -0.63921 -4.497565 -0.94764 -6.7727949999999995Zm-15.034845 2.49873a0.313645 0.313645 0 0 0 -0.6213299999999999 0.08493 52.2692 52.2692 0 0 0 0.8716499999999999 6.9158349999999995c-1.31865 0.1341 -2.8563300000000003 0.237655 -4.314295 0.33972 -0.12963 -1.1659249999999999 -0.25479 -2.33334 -0.38889 -3.5015 -0.09834000000000001 -0.83589 -0.5364 -0.61686 -0.61686 -0.49617 -0.18774 0.28161 0.28161 3.9343449999999995 0.40230000000000005 4.47 0.0447 0.22797 1.5645 0 3.031405 -0.0894s2.7714000000000003 -0.05811 2.7222299999999997 -0.344935c-0.42464999999999997 -2.50916 -1.08621 -7.725649999999999 -1.08621 -7.37848Zm8.426695 5.101015c-0.236165 -1.49 -0.468605 -2.98 -0.656345 -4.47 -0.30395999999999995 -2.41827 0.3725 -2.31546 -1.904965 -1.88634 -1.66284 0.3129 -2.384 0.24138 -3.920935 0.41124000000000005 -0.25926 0.026819999999999997 -0.149 0.25926 -0.12069 0.447 0.0745 0.5803550000000001 0.930505 6.54408 1.1137750000000002 7.062600000000001s-0.05811 0.4917 0.75543 0.447a20.579135 20.579135 0 0 0 4.515445 -0.5364c0.447 -0.16017499999999998 0.27714 -1.148045 0.21828499999999998 -1.496705Zm-4.99746 1.4348699999999999q-0.49617 -3.3927300000000002 -0.99234 -6.786205a18.943115 18.943115 0 0 0 4.56834 -0.5215c-0.049170000000000005 1.234465 0.657835 4.376875 0.894 6.7646 -1.5153299999999998 0.21753999999999998 -2.96361 0.39559500000000003 -4.47 0.543105Zm7.3538950000000005 -1.0593899999999998c-0.03129 -0.8127949999999999 -0.7599 -4.984795 -1.01916 -6.884545 1.2963 -0.16539 3.6035649999999997 -0.32184 4.738945 -0.6258q0.41422000000000003 3.4076299999999997 0.83589 6.813770000000001a27.363849999999996 27.363849999999996 0 0 0 -4.55493 0.696575Z" fill="#0a65fc" stroke-width="1"></path><path d="M132.54742 50.724815c0.27416 0.14006 4.998205 5.132305000000001 4.917 5.597185s-3.5491800000000002 3.9298750000000005 -4.220425 3.9298750000000005 -4.966915 -4.747885 -4.966915 -5.3111049999999995 4.1012249999999995 -4.30312 4.27034 -4.215955Zm-12.464595000000001 11.66372c0.416455 0.03129 4.69946 5.364 4.544499999999999 5.6731750000000005s-3.93062 3.4918150000000003 -4.314295 3.4918150000000003 -4.023000000000001 -5.476495 -4.081855 -5.597185 3.85165 -3.86804 3.85165 -3.567805Zm6.21032 -5.646355c-0.24585 -0.130375 -4.300885 3.482875 -4.300885 3.849415s4.305355 5.494375 4.975855 5.548015 3.795775 -3.433705 3.925405 -3.925405 -4.198075 -5.25821 -4.600375 -5.4720249999999995Z" fill="#0a65fc" stroke-width="1"></path><path d="M111.41475000000001 38.631975c0.40975 -0.42166999999999993 6.437545 1.639 6.567920000000001 1.85505s-1.270225 5.516725 -1.6546450000000001 5.556954999999999S110.26 44.7 109.98881999999999 44.30962s1.12644 -5.369215 1.42593 -5.677645Zm1.75075 18.977384999999998c0.149 0.447 -1.033315 5.548015 -1.480315 5.771515s-6.705 -1.69413 -7.036525 -2.04726 1.10409 -5.266405 1.5957899999999998 -5.534605 6.921049999999999 1.46318 6.921049999999999 1.8103500000000001Zm-4.287475 -10.36295c0.257025 -0.15943 6.607405 1.609945 6.647635 1.820035s-0.894 5.364 -1.36782 5.507785 -7.059620000000001 -1.36782 -7.059620000000001 -1.6904050000000002 1.349195 -5.370705 1.77757 -5.637415Z" fill="#191919" stroke-width="1"></path><path d="M42.781625 85.7495c-0.5513 -2.126975 -1.788 -4.3359000000000005 -4.139965 -4.71138 -2.57025 -0.41124000000000005 -3.8181249999999998 1.42146 -3.943285 3.764485 -0.18774 3.3748500000000003 1.145065 7.003 3.7913050000000004 7.966285 4.417105 1.606965 5.16732 -3.6408149999999995 4.291945 -7.0193900000000005Zm12.191180000000001 38.74 -7.648915 -0.149c-4.582495 -0.08046 -4.502035 -2.27076 -4.180194999999999 -6.258 0.4917 -6.115704999999999 2.1605 -12.16883 3.4605249999999996 -18.16012 0.1788 -0.8269500000000001 0.0894 -0.9685 -0.961795 -1.0102200000000001 -1.341 -0.05363999999999999 -4.51023 0 -6.768325000000001 0 -0.33972 0 -0.55428 0.5051100000000001 0.11622 0.57216 0.894 0.0894 5.185945 0.18327 6.9612799999999995 0.23244 -1.614415 6.01364 -3.2035 12.196394999999999 -3.697435 18.4015 -0.2682 3.3755949999999997 -0.42017999999999994 6.768325000000001 4.117615 7.058875 1.4974499999999997 0.09834000000000001 6.8398449999999995 0.09834000000000001 8.668075 0.049170000000000005 1.994365 -0.049170000000000005 1.192 -0.72861 -0.06705 -0.75096Zm-18.119145 -24.663970000000003c0.21902999999999997 -0.41571 0.894 -0.19221 0.70626 0.268945 -2.401135 5.784924999999999 -7.62731 15.719500000000002 -7.8374 21.2623 -0.11622 3.0798300000000003 1.234465 2.9055 3.7734250000000005 2.95467 2.4413650000000002 0.0447 4.962445 0 7.38593 0.0745 1.5153299999999998 0.05811 1.42593 0.91635 0 0.894 -2.481595 -0.05811 -4.957975 -0.0894 -7.439570000000001 -0.13857 -2.97255 -0.05811 -4.774705 -0.13857 -4.604845 -3.79056 0.23244 -5.047375000000001 5.7365 -17.22142 8.046000000000001 -21.517834999999998Zm41.26853 24.620015c1.27395 0.56769 1.65837 1.708285 -0.18327 0.894a58.225475 58.225475 0 0 0 -6.670730000000001 -2.52108c-1.27842 -0.39336000000000004 -0.63921 0 -2.682 3.0358750000000003a0.32333 0.32333 0 1 1 -0.56322 -0.318115c0.447 -0.9789300000000001 0.9685 -1.9444499999999998 1.44828 -2.91444 -3.7063749999999995 0.10281000000000001 -20.83765 0.28161 -23.962925 -0.18774 -0.36654 -0.05363999999999999 -0.3576 -0.63921 0 -0.64368 7.45745 -0.05811 16.96216 0.08046 24.548495 -0.04023 1.8468550000000001 -0.026819999999999997 6.227455 1.8997499999999998 8.046000000000001 2.7132899999999998Zm-6.0710049999999995 -24.137999999999998c1.50639 8.668075 0.447 10.132 -8.203940000000001 10.49258a151.23053 151.23053 0 0 1 -16.538999999999998 0c-0.447 -0.03576 -0.3576 -0.653365 0.05811 -0.662305 5.513 -0.12516 11.00216 0.0745 16.538999999999998 -0.16539 6.285564999999999 -0.27714 8.986189999999999 -0.48723 7.598999999999999 -8.131675 -1.5510899999999999 -8.52131 -2.55684 -17.247495 -3.99618 -25.926 -1.5607750000000002 -9.387 -2.642515 -8.493 -11.302394999999999 -8.493 -11.3985 0 -23.93536 0.8537699999999999 -34.48158 1.788 -6.173815 0.54981 -5.239585 4.768 -4.895395 9.284934999999999 0.61686 8.22182 1.63155 16.34977 2.61495 24.535085 0.894 7.31441 2.839195 6.6305000000000005 6.258 6.786205 1.36335 0.06258 4.04535 -0.149 5.266405 0 0.30843 0.03576 0.63921 0.3725 0 0.5215 -0.5274599999999999 0.119945 -5.98682 0.19221 -6.880820000000001 0.20115000000000002 -4.533325 0.06258 -4.685305 -3.4605249999999996 -5.203825 -6.95234 -1.26054 -8.449045 -2.235 -16.724505 -2.85186 -25.255499999999998 -0.34866 -4.917 -0.8403599999999999 -9.204475 5.203825 -9.741620000000001 12.32081 -1.08621 23.47495 -1.66284 35.827795 -2.0115000000000003 9.685 -0.27266999999999997 9.76844 1.22031 11.243540000000001 9.14264 1.44381 7.748 2.5434300000000003 17.433 3.782365 24.557435Zm-33.418465 -8.17265c-2.086 -0.6399549999999999 -3.187855 -4.135495 -3.259375 -6.15668 -0.06705 -1.8148199999999999 0.16986 -4.2777899999999995 2.544175 -4.304609999999999 2.1903 0 3.576 2.02938 4.193605 4.2465 0.7017899999999999 2.511395 0.50958 7.435845 -3.4784049999999995 6.211809999999999Z" fill="#191919" stroke-width="1"></path></svg>