<svg xmlns="http://www.w3.org/2000/svg" viewBox="0 0 400 400" id="Digital-Nomad-Working-Near-Beach-1--Streamline-Brooklyn.svg" height="400" width="400"><desc>Digital Nomad Working Near Beach 1 Streamline Illustration: https://streamlinehq.com</desc><path d="M175.032 238.28c3.214 -9.286 2.668 -11.8 10.476 -15.168 7.09 -3.062 14.756 -4.516 21.932 -7.31a41.72 41.72 0 0 1 11.458 -3.166 5.222 5.222 0 0 1 5.784 5.13 35.758 35.758 0 0 1 -1.2 12.22 121.584 121.584 0 0 1 -11.894 31.1 17.48 17.48 0 0 1 -9.822 8.62c-3.384 1.306 -6.982 2.51 -10.366 3.71 -0.436 0.218 -0.872 0.436 -1.636 0.764 5.95 2.45 11.636 4.35 19.314 13.094a68.482 68.482 0 0 1 8.292 11.13c2.178 3.822 4.782 7.538 6.656 11.566 2.7 5.8 5.8 11.43 7.2 17.788a2.4 2.4 0 0 0 1.856 1.854 105.954 105.954 0 0 1 14.4 5.784c2.378 1.244 4.91 1.964 7.2 3.272 6.546 4.474 0.218 4.556 -1.2 4.584a63.696 63.696 0 0 1 -20.186 -2.182 40.974 40.974 0 0 1 -6.766 -2.292c-2.6 -1.102 -3.67 -3.2 -8.074 -8.184 -7.73 -8.746 -13.668 -15.456 -23.352 -21.824 -4.02 -2.644 -12.876 -7.966 -13.094 -8.074 -5.094 -3.822 10.948 0 28.152 17.022a93.14 93.14 0 0 1 13.858 16.368 9.292 9.292 0 0 0 3.82 2.838c31.2 8.182 25.2 3.272 24.88 3.054 -20.04 -10.688 -21 -7.164 -22.698 -11.02 -8.672 -19.72 -20.502 -45.896 -41.138 -52.268a12.432 12.432 0 0 0 -8.292 0 71.532 71.532 0 0 0 -14.186 6.764 1.378 1.378 0 0 0 -0.546 1.2 9.83 9.83 0 0 0 1.092 3.054c4.16 7.258 13.64 22.916 14.076 23.57 1.2 1.418 -4.466 10.266 -7.42 12.768a80.04 80.04 0 0 1 -6.328 5.236c-5.4 3.676 -16.26 5.894 -26.626 2.184a23.546 23.546 0 0 1 -12.44 -14.95c-3.022 -10.046 -0.748 -19 0.764 -25.644a3.228 3.228 0 0 1 0.546 -1.09 63.928 63.928 0 0 0 17.896 -0.436 14.452 14.452 0 0 0 6.984 -3.166h-11.452a8.838 8.838 0 0 1 -5.348 -1.746c-1.842 -1.326 -1.964 -2.728 0.11 -3.818 8.236 -4.336 6.906 -3.216 12.222 -4.692 1.444 1.032 -0.904 2.296 -2.51 3.054 -3.828 1.8 -9.46 3.93 -8.84 3.93 1.31 0.218 2.62 0.544 4.038 0.654 14.694 1.142 18.542 -2.038 21.17 -3.164a1.02 1.02 0 0 0 0.544 -0.764c0.984 -3.71 3.166 -12 3.274 -12.548 0.11 -0.328 0.328 -0.546 0.328 -0.874 2.292 -9.274 4.692 -18.658 7.092 -27.932Zm47.14 -17.896c0.238 -5.014 -1.528 -6.11 -5.566 -4.692 -0.108 0 -0.218 0 -0.218 0.11 -29.08 9.42 -26.938 8.382 -29.68 9.6a11.144 11.144 0 0 0 -7.2 8.074c-0.346 1.742 -0.976 3.384 -1.418 5.13 -2.376 9.39 -4.696 18.876 -7.2 28.26 -1.954 7.32 -5.45 12.388 -1.528 11.35 8.186 -2.17 13.354 -4.8 20.078 -6.984a85.702 85.702 0 0 0 15.6 -6 8.8 8.8 0 0 0 4.038 -3.928 167.014 167.014 0 0 0 10.256 -26.4 68.366 68.366 0 0 0 2.838 -14.52Z" fill="#191919" stroke-width="1"></path><path d="M135.968 94.898c-5.936 5.8 -10.032 5.096 -13.312 5.564a2.032 2.032 0 0 0 -1.31 0.764C90.388 153.42 77.56 192.124 69.624 238.28a243.078 243.078 0 0 0 -2.728 61.98c2.182 -0.656 4.26 -0.974 6.22 -1.746a15.774 15.774 0 0 1 11.566 -0.546c5.836 2.114 9.476 -3.5 18 0.764a3.654 3.654 0 0 0 3.93 -0.218 13.974 13.974 0 0 1 10.038 -1.638 23.872 23.872 0 0 0 3.82 0c-0.874 -3.274 -1.638 -6.22 -2.4 -9.274a43.28 43.28 0 0 1 -24.114 -6.656 16.908 16.908 0 0 1 -0.438 2.4c-0.916 3.37 -2.4 0.546 -2.508 0 -0.158 -1.574 0.772 -3.92 0.108 -4.584 -4.692 -4.692 -6 -10.692 -6.11 -17.022a43.432 43.432 0 0 1 11.46 -30.34A133.8 133.8 0 0 1 110 219.184c1.2 -0.546 2.2 0.232 0.872 1.31a103.976 103.976 0 0 0 -7.528 7.31c-10.294 10.294 -14.2 19.104 -15.496 31.318a22.986 22.986 0 0 0 3.928 15.822c4.174 6.188 15.026 9.178 22.916 9.82 10.362 0.844 16.426 -6.356 34.482 -12.766a8.85 8.85 0 0 1 9.82 2.728 3 3 0 0 1 0.654 1.09c0.328 1.964 -1.09 1.31 -1.418 1.2a11.894 11.894 0 0 1 -1.528 -0.982 8.682 8.682 0 0 0 -4.146 -2.072h-0.11a14.014 14.014 0 0 0 -7.964 2.292c-20.738 10.6 -14.89 7.906 -22.916 10.8a0.966 0.966 0 0 0 -0.546 0.982c0.656 2.946 1.37 5.8 2.292 8.73 0.104 0.328 0.654 0.544 0.982 0.764 0.436 0.436 1.092 0.872 1.31 1.418 2.094 3.49 -0.734 0.876 -4.584 0.436a21.852 21.852 0 0 0 -11.348 0.654c-2.302 0.676 -4.386 2.6 -5.892 1.856a17.58 17.58 0 0 0 -10.8 -2.4c-2.056 0.2 -4.508 1.744 -6.112 1.2a25.04 25.04 0 0 0 -9.71 -1.2 10.16 10.16 0 0 0 -5.894 2.4c-0.93 0.932 -3.236 0.07 -5.128 0.654a40 40 0 0 0 -4.582 2.184c-1.092 -0.764 -1.092 -1.31 0.108 -2.51a9.366 9.366 0 0 1 2.728 -1.746 215.024 215.024 0 0 1 -1.092 -23.898A297.32 297.32 0 0 1 70.06 220.6c1.092 -5.128 1.99 -10.358 3.382 -15.494A360.744 360.744 0 0 1 95.376 144.22C107 119.654 117.486 103.272 118.946 100.354a7.932 7.932 0 0 1 -1.31 -0.546 16.8 16.8 0 0 1 6.11 -32.518c8.768 0.118 16.696 7.434 16.696 18.55a16.518 16.518 0 0 1 12.758 -5.782 16.824 16.824 0 1 1 -10.692 29.898c-1.2 3.056 -2.616 5.894 -3.71 8.948 -3.37 9.4 -6.548 18.768 -9.822 28.044 -2.292 4.692 -4.658 3.612 -1.09 -6.876 11.14 -32.744 13.128 -31.326 12 -32.954a19.334 19.334 0 0 1 -3.486 -11.892c-0.322 -0.438 -0.322 -0.426 -0.432 -0.328Z" fill="#191919" stroke-width="1"></path><path d="M175.032 238.28c-2.4 9.274 -7.42 28.48 -7.528 28.8 -1.42 -1.2 -2.946 -2.292 -4.366 -3.492a27.67 27.67 0 0 0 -4.692 -2.728 75.6 75.6 0 0 0 -32.298 -4.692c-2.182 0.128 -4.474 0.544 -6.876 0.872q0.166 -2.782 0.328 -5.238c4.926 -2.668 4.414 -8.098 2.838 -13.53a49.658 49.658 0 0 0 -8.294 -17.242 7.46 7.46 0 0 1 -0.872 -1.09c-1.2 -1.31 -1.2 -1.624 0.218 -2.51 3.074 -1.934 6.1 -3.836 9.274 -5.674 2.368 -1.37 1.038 2.502 9.276 3.928a28.374 28.374 0 0 0 16.8 -1.636 13 13 0 0 0 5.566 -4.8 1.264 1.264 0 0 1 1.526 -0.654c6.766 1.418 5.708 2.708 7.312 5.564 1.342 2.392 11.57 23.576 11.788 24.122Z" fill="#2862e9" stroke-width="1"></path><path d="M328.454 209.8c-0.546 0 -1.2 -0.118 -1.746 -0.11 -11.67 0.188 -9.912 0.684 -13.532 -0.764a1.448 1.448 0 0 1 -0.872 -1.09 1.828 1.828 0 0 1 0.982 -1.2c3.388 -1.06 4 -1.278 12.986 -2.4 0.326 0 6.764 -0.654 -3.71 -2.072 -17.44 -0.8 -21.72 0.108 -29.354 0.108a34.054 34.054 0 0 1 -10.256 -1.964c-1.2 -0.982 -0.974 -2.258 0.544 -2.728a43.856 43.856 0 0 1 5.238 -1.2c7.95 -1.4 25.2 -4.692 25.97 -4.8 1.42 -0.436 3.174 -2.096 -3.818 -2.508 -2.726 -0.162 -36.882 0.436 -37 0.436 -6.984 -0.874 -12.216 -6.522 0.546 -8.62 2.62 -0.432 95.906 -0.086 97 0.326a4.884 4.884 0 0 1 -0.546 9.384 28.952 28.952 0 0 1 -5.128 0.764c-2.948 0.2 -11.13 0.982 -12.33 1.2 -4.038 1.092 -0.328 1.638 0 1.746 2.728 0.328 10.038 0.982 11.02 1.092 0.874 0.218 1.746 0.546 1.746 1.636 0 0.982 -0.762 1.434 -1.636 1.528 -1.2 0.13 -12.33 0 -16.696 0 -2.29 0 -4.582 0.104 -6.764 0.218 -1.966 0.104 -3.384 1.092 -3.492 2.184s0.982 1.854 2.946 2.508a35.498 35.498 0 0 1 4.8 1.638c4.256 1.308 0.11 2.946 -7.2 3.382 -5.894 -0.218 -1.856 2.074 -1.42 2.51 2.728 1.964 -3.928 2.838 -5.674 2.946a31.6 31.6 0 0 1 -6.546 -0.546c-1.092 -0.436 -3.492 -1.854 0.218 -2.29 3.07 -0.55 4.488 -1.314 3.724 -1.314Z" fill="#2862e9" stroke-width="1"></path><path d="M125.93 179.028c-0.656 -0.218 -2.968 -2.52 -4.694 0.874a5.43 5.43 0 0 0 3.056 7.528c4.046 1.546 2.53 4.146 8.838 6.984a1.418 1.418 0 0 1 1.092 1.746c-0.432 13.82 1.42 10.8 -5.674 14.622a0.108 0.108 0 0 0 -0.11 0.108c-1.854 0.874 -3.356 0.246 -1.2 -1.854a8.314 8.314 0 0 1 2.4 -1.418c1.648 -0.738 1.854 -1.092 1.636 -3.166 -8.186 -0.354 -16.86 -0.62 -23.134 -6.11a3.33 3.33 0 0 1 -0.982 -4.474c7.464 -12.652 4.162 -27.238 12.112 -37.646a9.97 9.97 0 0 1 6.438 -4.036A5.262 5.262 0 0 0 128 151.094a17.842 17.842 0 0 1 9.166 -3.056c7.634 -1.016 13.44 1.952 18 8.076a21.422 21.422 0 0 1 4.148 9.71c2.124 13.732 4.466 13.706 8.184 21.498a7.112 7.112 0 0 1 -2.498 9.166c-4.038 4.364 -15.932 7.856 -20.4 7.746a1.384 1.384 0 0 0 0.982 1.746 33.906 33.906 0 0 1 6.33 2.182c-0.146 1.454 -1.07 0.748 -8.076 -0.654a1.28 1.28 0 0 1 -1.2 -1.418c-0.054 -2.62 -0.382 -5.128 -0.436 -7.748 -0.018 -0.872 -0.22 -1.182 -1.092 -1.31 -0.656 -0.094 -3.054 -1.2 0.11 -1.526 5.784 0.108 9.388 -4.364 10.584 -9.494 1.424 -6.11 0.2 -12.076 -1.418 -18a165.182 165.182 0 0 0 -23.134 1.746 1.348 1.348 0 0 0 -1.2 1.526c0 1.964 -0.108 3.93 -0.108 5.894a5.304 5.304 0 0 1 -0.012 1.85Zm-9.6 -7.42c0.656 -2.836 1.31 -5.346 1.964 -7.966 -1.858 0.982 -2.95 5.558 -1.968 7.958Z" fill="#191919" stroke-width="1"></path><path d="M35.47 336.268c1.31 0.874 7.092 4.476 8.838 5.674C48.126 344.564 67 358 72.46 362.238c5.182 4.028 27.42 23.042 31.646 24.224a5.714 5.714 0 0 0 5.456 1.092c10.046 -2.512 13.01 -2.346 43.32 -10.366 13.536 -3.582 121.014 -35.568 129.85 -37.646 11.476 -2.7 37.468 -7.578 49.104 -9.712 0.218 0 0.436 -0.218 0.874 -0.546 -1.746 -0.982 -18.99 -10.8 -26.08 -14.84a7.15 7.15 0 0 1 -1.964 -1.636 0.844 0.844 0 0 1 0.546 -1.528 4.854 4.854 0 0 1 2.836 0.218c2.4 1.092 28.486 16.032 29.68 16.914a5.114 5.114 0 0 1 0.982 1.746c-4.254 0.982 -18.214 4.296 -21.168 4.91 -3.374 0.702 -20.082 3.692 -22.152 4.146 -58.962 12.924 -80.086 26.31 -167.496 46.376 -6.554 1.504 -21.388 4.252 -22.152 4.364 -2.184 0.32 -3.71 -1.2 -5.456 -2.072a130.628 130.628 0 0 1 -15.822 -12c-35.626 -28.844 -24.902 -19.674 -50.086 -37.754 -0.654 -0.546 -1.4 -1 -2.072 -1.638 -1.174 -1.118 -0.322 -2.048 0.654 -2.29 7.14 -1.782 80.384 -21.358 90.132 -24.334a4.058 4.058 0 0 1 1.746 -0.436 1.188 1.188 0 0 1 1.092 1.418 1.93 1.93 0 0 1 -1.092 1.31c-4.154 1.064 -84.786 22.586 -88.6 23.568a2.298 2.298 0 0 1 -0.768 0.542Z" fill="#191919" stroke-width="1"></path><path d="M357.042 174.226h-65.688c0.654 -1.526 7.5 -17.292 23.242 -22.8 10.714 -3.754 20.964 -1.6 30.334 4.91a33.272 33.272 0 0 1 12.112 17.89Z" fill="#2862e9" stroke-width="1"></path><path d="M15.282 40.338c18 4.474 49.978 25.316 51.4 26.298 3.164 -2.946 13.338 -11.752 15.276 -13.312 0.664 -0.536 1.528 -0.982 2.182 -0.328 0.438 0.436 -2.88 13.77 -4.036 17.46 -0.31 0.986 -0.118 1.546 0.982 1.964 21.8 8.258 23.878 7.508 23.46 9.6a1.416 1.416 0 0 1 -2.074 0.982c-2.4 -0.656 -4.676 -1.242 -6.984 -2.074 -5.096 -1.838 -10.146 -3.6 -15.276 -5.564 -4.91 -1.88 -4.246 -1.636 -0.108 -16.8 -0.328 0.218 -8.238 7.364 -11.786 10.8a2.084 2.084 0 0 1 -3.164 0.218 289.158 289.158 0 0 0 -30.662 -18.878c-19.956 -9.868 -25.118 -8.124 -21.938 -11.02a113.09 113.09 0 0 1 56.634 -27.6c16.972 -3.172 38.968 -3.638 53.576 5.558 12.53 7.886 22.702 17.894 27.936 32.08a43.88 43.88 0 0 1 1.418 6.33c0 3.492 -1.746 0.872 -1.856 0.654 -3.928 -13.968 -12.648 -24.456 -24 -33.062A52.526 52.526 0 0 0 96.14 13.386a115.416 115.416 0 0 0 -69.4 18.986c-3.716 2.39 -11.24 7.748 -11.458 7.966Z" fill="#191919" stroke-width="1"></path><path d="M215.08 115.412c-1.856 3.274 -3.696 6.556 -5.456 9.82a1.886 1.886 0 0 1 -2.838 0.874c-7.158 -3.8 -30.662 -15.496 -35.136 -17.568 -0.328 -0.11 -4.474 -3.274 2.182 -1.31a299.6 299.6 0 0 1 33.4 15.822c2.366 -3.942 3.322 -6.612 7.966 -10.912 1.416 -1.312 2.292 -0.872 2.728 0.982 0.654 3.71 1.98 12.984 2.074 13.858a6.8 6.8 0 0 0 3.6 5.674c9.318 5.6 27.28 18.77 27.6 18.988 0 -13.958 0.104 -27 -4.474 -44.412 -6.326 -24.028 -18.714 -40.542 -42.778 -47.904A84.6 84.6 0 0 0 174.6 56.27a169.48 169.48 0 0 0 -17.786 2.51c-3.274 1.418 -3.738 -0.246 -2.51 -1.528 1.068 -1.114 10.04 -3.49 13.094 -3.82 21.488 -2.312 43.442 0.556 60.124 14.296 17.132 14.108 23.774 36.88 26.2 58.924a115.852 115.852 0 0 1 0 25.752 4.272 4.272 0 0 1 -1.31 2.836c-0.972 0.67 -1.95 -0.344 -2.728 -0.982a322.414 322.414 0 0 0 -31.1 -21.278 3.2 3.2 0 0 1 -1.308 -2.074c-0.676 -4.69 -2.088 -15.494 -2.196 -15.494Z" fill="#191919" stroke-width="1"></path><path d="M303.574 295.13c9.526 1.642 10.364 1.674 13.094 3.928a3.368 3.368 0 0 1 0 5.784c-5.8 4.738 -18.722 6.02 -24.66 6.874a132.872 132.872 0 0 1 -20.078 0.546c-7 -0.058 -18.464 -2 -23.896 -4.8a10.226 10.226 0 0 1 -3.384 -2.946c-2.144 -2.866 -0.564 -5.586 1.638 -7.31a21.016 21.016 0 0 1 11.13 -3.6h1.09c2.616 -6.418 4.2 -15.348 16.15 -17.894a24.4 24.4 0 0 1 17.786 2.51 19.4 19.4 0 0 1 9.6 11.784c0.44 1.96 1.094 3.594 1.53 5.124Zm-3.054 -1.636a8.858 8.858 0 0 1 -0.22 -0.982 19.836 19.836 0 0 0 -19.968 -14.732c-13.418 0.714 -17.7 12.32 -18.55 14.076 -0.786 1.628 0.44 1.844 0.872 1.966a70.5 70.5 0 0 0 19.86 3.054 82.514 82.514 0 0 0 18.006 -3.382Zm-42.12 3.274a21.6 21.6 0 0 0 -8.948 2.182 6.568 6.568 0 0 0 -1.42 0.982c-1.636 1.528 -1.638 2.948 0.22 4.146a21.448 21.448 0 0 0 5.018 2.4c14.836 4.708 37.138 3.586 52.486 0.328a23.984 23.984 0 0 0 9.166 -3.492c1.4 -1 1.42 -1.636 0.11 -2.728a14.514 14.514 0 0 0 -11.13 -2.51 24.6 24.6 0 0 1 -6.984 3.384 68.386 68.386 0 0 1 -28.698 0.54 19.456 19.456 0 0 1 -8.184 -2.726 6.622 6.622 0 0 1 -1.636 -2.506Z" fill="#191919" stroke-width="1"></path><path d="M169.25 178.374a2.212 2.212 0 0 1 -1.42 -1.528c-0.108 -0.436 0.654 -1.316 1.2 -1.528 0.87 -0.336 217.584 -0.328 218.02 0 0.546 0.328 1.2 0.982 1.2 1.418 0 0.546 -0.654 1.2 -1.2 1.528 -0.546 0.218 -217.036 0.436 -217.8 0.11Z" fill="#191919" stroke-width="1"></path><path d="M145.462 342.378c3 -4.494 13.304 -5.974 18.986 -6.218a15.722 15.722 0 0 1 7.748 1.746c0.384 0.2 22.162 19.32 22.8 19.858 0.888 0.746 1.746 1.856 1.2 2.946a4.4 4.4 0 0 1 -2.51 1.856c-2.838 0.764 -50.2 13.094 -52.486 13.748 -1.872 0.376 -3.658 -3.05 -21.278 -19.75 -2.746 -2.6 -2.728 -2.618 0.108 -4.91l0.328 -0.328c-0.654 -1.526 -0.434 -2.18 1.092 -3.164a32.324 32.324 0 0 1 12 -4.692 35.11 35.11 0 0 1 10.584 -0.872 2.982 2.982 0 0 1 1.428 -0.22Zm46.6 15.6a5.334 5.334 0 0 0 -0.546 -0.654c-20.48 -17.456 -20.258 -17.232 -20.952 -17.458a16.862 16.862 0 0 0 -7.528 -0.874c-8.584 1.15 -12.246 1.774 -16.26 4.584 8.738 9.152 16.818 17.362 18.55 19.096 0.546 0.544 1.092 1.09 1.856 0.436a22.572 22.572 0 0 1 8.73 -3.928 50.354 50.354 0 0 1 16.144 -1.198Zm-28.7 5.676v-0.328c-19.352 -19.698 -18.476 -19.25 -19.532 -18.986a42.618 42.618 0 0 0 -18.876 4.8c-0.648 0.342 -1.2 0.764 -2.074 1.31 6.766 7.092 13.312 14.076 19.86 21.06 6.322 -4.798 13.414 -6.326 20.616 -7.852Zm26.516 -2.948v-0.436c-19.288 0.84 -19.488 4.6 -25.86 5.892a69.3 69.3 0 0 0 -19.75 6.658 6.888 6.888 0 0 0 1.744 -0.11c3.832 -1.024 40.368 -11.236 43.86 -12Zm-69.618 -6.874c2.512 2.332 19.032 18.182 20.188 19.314a4.412 4.412 0 0 0 1.2 0.656c0.11 -0.11 0.11 -0.22 0.218 -0.328 -6.546 -6.984 -13.094 -14.076 -19.64 -21.06a10.176 10.176 0 0 1 -1.972 1.422Z" fill="#191919" stroke-width="1"></path><path d="M383.45 289.238c-19.722 -8.506 -23.484 -11.128 -35.464 -16.696 -9.2 -4.272 -16.462 -4.948 -35.8 -7.964 -19.512 -3.046 -37.6 -15.292 -46.702 -18.878a103.286 103.286 0 0 0 -11.022 -3.164c-10.704 -2.912 -19.634 -1.888 -28.37 -2.4 -0.436 0 -2.296 -1.444 -0.11 -1.746 2.616 -0.358 5.13 -0.882 7.748 -0.982a80.23 80.23 0 0 1 28.48 4.038c4.914 1.628 19.304 8.534 21.824 9.82a88.756 88.756 0 0 0 9.494 4.366 115.632 115.632 0 0 0 14.184 4.692c12.946 2.936 24.296 2.8 37.32 7.528 4.8 1.744 9.378 4.266 13.966 6.438 3.706 1.756 7.414 3.4 10.912 5.348 4.138 2.306 8.074 4.914 12.222 7.2 4.37 2.404 2.08 2.73 1.318 2.4Z" fill="#191919" stroke-width="1"></path><path d="M134.44 62.272a16.16 16.16 0 0 1 19.096 -1.2 15.736 15.736 0 0 1 6.766 17.46 26.4 26.4 0 0 0 -19.314 3.056c0 -0.328 -1.654 -7.948 -4.148 -10.258a12.214 12.214 0 0 0 -6.656 -3.6 20.964 20.964 0 0 1 4.256 -5.458Z" fill="#191919" stroke-width="1"></path><path d="M252.288 333.322a152.8 152.8 0 0 0 18.55 1.746c0.764 0 6.092 0.228 -2.29 -3.274a147.838 147.838 0 0 0 -20.516 -6.546c-0.654 -0.218 -1.42 -0.328 -1.744 -1.42a100.954 100.954 0 0 0 -3.6 -11.02c-1.956 -4.586 -9.494 -21.6 -18.66 -30a61.518 61.518 0 0 0 -14.948 -11.24c-2.068 -1.2 -3.928 -3.6 -0.328 -2.29 12.768 6 24.016 20.18 25.644 22.368a101.034 101.034 0 0 1 7.856 13.314 57.468 57.468 0 0 1 5.782 16.258c0.546 2.91 1.96 1.52 14.078 6 11.27 4.168 12.984 7.092 12.766 7.638a2.92 2.92 0 0 1 -1.746 1.636 25.4 25.4 0 0 1 -4.692 0.328c-1.746 0 -11.67 -1.242 -14.84 -1.636a15.46 15.46 0 0 1 -2.838 -0.656c-2.932 -0.928 -5.884 -2.05 1.526 -1.206Z" fill="#191919" stroke-width="1"></path><path d="M185.836 303.97c5.564 4.254 10.8 8.292 16.476 12.656 -6.536 5.162 -8.134 6.67 -18 9.386a13.656 13.656 0 0 1 -7.966 0.326c-2.6 -0.85 -0.758 -1.692 4.146 -7.966 1.2 -1.53 2.182 -3.164 3.274 -4.692a1.258 1.258 0 0 0 -0.11 -1.854c-2.4 -2.51 -2.148 -1.942 -0.108 -5.128a24.588 24.588 0 0 1 2.288 -2.728Z" fill="#191919" stroke-width="1"></path><path d="M82.064 333.54a29.364 29.364 0 0 1 7.528 3.384 7.534 7.534 0 0 0 4.474 1.2c4.642 0.176 8.172 2.888 9.712 1.964 2.946 -1.42 5.882 -2.968 8.838 -4.474a2.212 2.212 0 0 1 3.056 0.764c0.546 0.654 1.418 1.308 0.872 2.4a1.1 1.1 0 0 1 -0.762 0.654 1.634 1.634 0 0 1 -0.984 -0.436c-0.218 -0.218 -1.31 -1.2 -1.526 -1.09 -2.74 1.4 -5.34 2.852 -8.076 4.364a5.578 5.578 0 0 0 -2.51 2.946 7.164 7.164 0 0 1 -4.8 4.364 5.552 5.552 0 0 1 -6.112 -4.036c-0.2 -1.966 -0.218 -3.928 -0.326 -6a1.556 1.556 0 0 0 -0.764 -1.2c-0.76 -0.236 -0.884 0.436 -0.874 1.09a5.786 5.786 0 0 1 -5.782 5.784c-3.382 -0.114 -5.892 -6.656 -5.892 -8.948a3.6 3.6 0 0 1 2.29 -3.71A36.2 36.2 0 0 1 92 329.502a8.4 8.4 0 0 1 3.818 1.528c1.418 3.166 -0.654 2.184 -0.982 1.528a6.536 6.536 0 0 0 -4.038 -0.982 13.766 13.766 0 0 0 -2.946 0.436c-1.424 0.546 -4.48 1.092 -5.788 1.528Z" fill="#191919" stroke-width="1"></path><path d="M367.2 265.45a69.866 69.866 0 0 0 -18.114 -5.892 85.09 85.09 0 0 0 -18.986 -1.528c-11.728 0 -15.112 -1.678 -27.388 -7.748 -2.976 -1.47 -3.818 -4.366 0.108 -2.836 4.476 1.742 8.956 3.8 13.422 5.564 10.308 4.074 24.832 -1.342 45.94 6.766a31.6 31.6 0 0 1 6 3.6c3.264 3.056 -0.664 2.292 -0.982 2.074Z" fill="#191919" stroke-width="1"></path><path d="m119.71 251.702 -0.328 5.236c2.4 -0.326 4.58 -0.684 6.874 -0.872a71.222 71.222 0 0 1 32.3 4.692 39.332 39.332 0 0 1 4.692 2.728c0 1.31 -0.334 1.546 -1.418 1.092 -16.4 -6.874 -36.858 -9.31 -53.032 -1.42 -2.182 0.656 -3.6 -0.228 -1.42 -1.636a33.2 33.2 0 0 1 7.312 -3.164c1.2 -0.218 1.4 -0.984 1.528 -1.964 0.4 -3.17 0.872 -6.33 1.308 -9.384 0.11 -0.764 0.22 -1.856 1.31 -1.856 1.792 0.15 0.874 1.896 0.874 6.548Z" fill="#191919" stroke-width="1"></path><path d="M25.868 175.646c-0.766 -0.094 -1.528 -0.328 -1.31 -1.2a1.732 1.732 0 0 1 1.31 -0.982c1.636 -0.22 53.686 -0.11 54.34 0.108a1.456 1.456 0 0 1 0.764 0.874 1.28 1.28 0 0 1 -0.654 1.09c-0.656 0.218 -53.362 0.242 -54.45 0.11Z" fill="#191919" stroke-width="1"></path><path d="M127.348 284.874c19.8 -10.286 21.584 -11.4 24.988 -11.022a0.4 0.4 0 0 1 0.328 0.11 7.644 7.644 0 0 1 -2.948 1.964c-6.472 1.8 -4.8 0.786 -12.22 4.692 -2.074 1.09 -2.074 2.51 -0.11 3.818 3.482 2.322 5.26 1.746 16.8 1.746a14.628 14.628 0 0 1 -6.982 3.166 65.514 65.514 0 0 1 -17.896 0.436 38.366 38.366 0 0 0 -1.96 -4.91Z" fill="#2862e9" stroke-width="1"></path><path d="M66.46 209.908a5.38 5.38 0 0 1 -5.13 -0.544c-12.294 -6.428 -13.2 -12.544 -25.97 -15.6a27.474 27.474 0 0 0 -6.546 -0.328c-0.874 0 -1.746 -0.11 -3.056 -0.11 2.854 -3.112 9.062 -2.57 13.094 -1.308a40.378 40.378 0 0 1 6.11 2.29c3.088 1.544 12.29 8.91 14.95 10.8 2.098 1.494 4.256 2.836 6.33 4.256 -0.11 0.108 0 0.326 0.218 0.544Z" fill="#191919" stroke-width="1"></path><path d="M233.302 288.038c0.436 -1.418 1.636 -1.092 2.618 -1.2 7.526 -1.368 20.758 -6.156 23.352 -1.746 0.11 0.326 0.764 3.164 -1.528 1.31 -2.4 -2.184 -5.128 -0.984 -7.638 -0.546 -14.968 2.602 -16.12 4.232 -16.804 2.182Z" fill="#191919" stroke-width="1"></path><path d="M180.816 221.912c-13.282 -8.362 -12.044 -6.62 -14.95 -8.184 -0.764 -0.328 -3.164 -2.4 0.436 -2.4 5.978 1.23 10.754 4.91 16.042 8.728 0.872 0.544 1.468 3.744 -1.528 1.856Z" fill="#191919" stroke-width="1"></path><path d="M114.254 205.326a1.47 1.47 0 0 1 1.854 -1.2c0.982 0.218 1.19 1.09 1.092 1.964 -0.696 6.178 -0.178 8.292 -2.4 8.292a1.53 1.53 0 0 1 -1.418 -1.746 58.45 58.45 0 0 1 0.872 -7.31Z" fill="#191919" stroke-width="1"></path><path d="M77.044 223.112a16.432 16.432 0 0 1 4.038 -9.056c0.764 -0.764 2.946 -0.438 1.964 1.418 -1.2 2.618 -2.576 5.148 -3.82 7.856 -1.16 2.528 -2.182 1.092 -2.182 -0.218Z" fill="#191919" stroke-width="1"></path><path d="M89.046 225.95c-0.124 0.98 -0.326 1.968 -1.526 1.854 -1.092 -0.104 -1.4 -1.09 -1.31 -2.072 0.726 -7.2 0.574 -8.622 2.074 -8.622 0.982 0 1.2 0.874 1.2 1.746 0 0.764 -0.242 5.562 -0.438 7.094Z" fill="#191919" stroke-width="1"></path><path d="M72.024 274.616a2.38 2.38 0 0 1 0.546 -0.872c1.31 -1.638 2.074 0.436 2.074 0.872 0 1.126 -0.878 3.458 -1.856 7.856 -0.218 0.764 -0.322 1.616 -1.2 1.42 -0.542 -0.122 -1.636 -4.038 0.436 -9.276Z" fill="#191919" stroke-width="1"></path><path d="M92.32 175.646c0.434 -0.224 2.51 -0.656 1.42 1.528 -1.31 2.072 -4.8 6.878 -5.02 7.31 -0.634 1.212 -1.092 0.654 -1.092 -0.218 0 -1.528 1.614 -7.026 4.692 -8.62Z" fill="#191919" stroke-width="1"></path><path d="M141.752 171.28a22.278 22.278 0 0 1 2.51 10.258 4.6 4.6 0 0 1 -1.092 2.838c-1.528 1.526 -2.074 0.218 -1.2 -0.764 1.528 -2.51 0.634 -5.234 0.108 -7.748 -0.732 -3.512 -3.166 -7.924 -0.326 -4.584Z" fill="#191919" stroke-width="1"></path><path d="M147.2 281.054c3.164 -0.316 6.226 -0.484 9.384 -0.872 0.766 -0.094 1.528 -0.218 1.636 0.654 0 0.328 -0.766 0.974 -1.31 1.092a29.498 29.498 0 0 1 -10.038 0.436c-0.428 0 -3.046 -0.964 0.328 -1.31Z" fill="#191919" stroke-width="1"></path><path d="M102.578 180.01c1.096 -2.944 1.99 -1.2 2.182 0.436a18.014 18.014 0 0 1 -1.31 6.438c-1.09 2.184 -2.182 0.546 -2.182 -0.218a40.896 40.896 0 0 1 1.31 -6.656Z" fill="#191919" stroke-width="1"></path><path d="M82.936 284.436c-0.764 3.274 -2.51 0.874 -2.618 0 -0.218 -1.744 -0.328 -3.382 -0.438 -5.128 0 -0.764 0.22 -1.636 1.2 -1.528a2.136 2.136 0 0 1 1.09 1.42c0.32 1.53 0.43 3.164 0.766 5.236Z" fill="#191919" stroke-width="1"></path><path d="M119.492 135.49c0.326 -2.51 1.84 -1.308 1.964 -0.436a54.432 54.432 0 0 1 0.764 6.328c0.054 2.182 -1.782 2.844 -2.292 0 -0.234 -1.306 -0.436 -5.346 -0.436 -5.892Z" fill="#191919" stroke-width="1"></path><path d="M117.854 131.452a36.528 36.528 0 0 1 -2.292 5.348c-1.284 2.088 -3.014 1 -2.182 -1.092a49.216 49.216 0 0 1 2.292 -5.02c1.092 -1.746 2.618 -1.088 2.182 0.764Z" fill="#191919" stroke-width="1"></path><path d="M157.138 267.742c1.418 1.2 2.862 2.482 4.254 3.818a1.868 1.868 0 0 1 0.438 1.31 1.232 1.232 0 0 1 -0.546 0.874 1.35 1.35 0 0 1 -1.092 -0.218c-4.678 -4.386 -5.946 -5.02 -5.564 -5.784 0.108 -0.328 0.872 -1.092 2.51 0Z" fill="#191919" stroke-width="1"></path><path d="M106.724 133.634a21.942 21.942 0 0 1 3.6 -3.928c0.32 -0.334 2.508 -0.872 1.526 1.2a49.658 49.658 0 0 1 -3.492 4.584c-1.804 2.008 -2.622 -0.112 -1.634 -1.856Z" fill="#191919" stroke-width="1"></path><path d="M340.238 149.13a9.484 9.484 0 0 1 4.256 -6c0.872 -0.218 1.418 0.218 1.2 1.092a3.894 3.894 0 0 1 -0.436 1.2c-0.982 1.31 -1.856 2.728 -2.946 4.038a1.726 1.726 0 0 1 -1.418 0.436c-0.328 -0.002 -0.546 -0.658 -0.656 -0.766Z" fill="#2862e9" stroke-width="1"></path><path d="M359.88 169.534c-0.972 -0.67 -0.872 -1.846 0.218 -2.072a17.854 17.854 0 0 1 4.8 -0.436c0.872 0 1.294 0.866 0.872 1.746 -0.674 1.408 -5.118 1.296 -5.89 0.762Z" fill="#2862e9" stroke-width="1"></path><path d="M325.29 145.42a1.414 1.414 0 0 1 -1.092 0.982c-0.328 0 -1.092 -0.546 -1.092 -0.874a27.4 27.4 0 0 1 -0.218 -5.128c0 -0.436 0.764 -0.982 1.2 -1.092a1.616 1.616 0 0 1 1.31 0.874 13.564 13.564 0 0 1 -0.108 5.238Z" fill="#2862e9" stroke-width="1"></path><path d="M156.7 264.25a10.324 10.324 0 0 1 6.656 4.582c0.322 0.768 -0.218 1.966 -1.418 0.984A10.92 10.92 0 0 0 156.6 266a1.4 1.4 0 0 1 -0.764 -0.982c-0.008 -0.44 0.764 -0.986 0.864 -0.768Z" fill="#191919" stroke-width="1"></path><path d="M136.078 185.684c0 -0.546 0.654 -2.4 1.636 -0.436a3.284 3.284 0 0 0 3.382 1.964c0.328 0 0.656 -0.11 0.982 -0.11 1.2 -0.218 0.656 0.984 0.546 1.092 -2.374 2.32 -6.546 -0.654 -6.546 -2.51Z" fill="#191919" stroke-width="1"></path><path d="M99.522 176.846a22.748 22.748 0 0 1 -2.4 5.674c-0.654 1.418 -1.746 0.654 -1.31 -0.654 0.656 -1.964 1.154 -3.948 1.964 -5.894 0.424 -0.992 2.182 -2.618 1.746 0.874Z" fill="#191919" stroke-width="1"></path><path d="M285.678 157.64c-2.288 -2.076 0.656 -2.182 1.092 -2.072a25.512 25.512 0 0 1 4.038 1.528 1.772 1.772 0 0 1 0.764 1.526c-0.772 1.31 -4.692 0.108 -5.894 -0.982Z" fill="#2862e9" stroke-width="1"></path><path d="M284.8 170.2a2.108 2.108 0 0 1 1.2 1.528c0.11 0.872 -0.652 1.294 -1.528 1.2 -1.2 -0.13 -2.4 -0.328 -3.6 -0.546 -0.764 -0.218 -1.54 -0.658 -1.31 -1.636 0.214 -0.886 1.862 -1.546 5.238 -0.546Z" fill="#2862e9" stroke-width="1"></path><path d="M93.848 217.548c0.098 -0.44 0.546 -0.982 0.982 -0.982a1.434 1.434 0 0 1 1.092 0.872 20.156 20.156 0 0 1 0.546 4.474c0 0.436 -0.546 1.2 -0.984 1.2a1.614 1.614 0 0 1 -1.308 -0.872 17.342 17.342 0 0 1 -0.328 -4.692Z" fill="#191919" stroke-width="1"></path><path d="M358.462 154.476a1.3 1.3 0 0 1 -0.438 1.2c-1.308 0.874 -2.728 1.638 -4.146 2.4 -0.328 0.218 -0.982 0 -1.418 -0.328 -0.218 -0.11 -0.218 -0.982 0 -1.2 1.31 -1.308 4.582 -3.272 6.002 -2.072Z" fill="#2862e9" stroke-width="1"></path><path d="M102.686 220.93a28.748 28.748 0 0 1 1.638 -3.82c0.858 -1.536 2.5 -0.766 1.964 0.982a15.426 15.426 0 0 1 -1.2 3.274c-1.046 1.774 -2.402 0.764 -2.402 -0.436Z" fill="#191919" stroke-width="1"></path><path d="M306.2 148.912c-0.11 0.108 -0.218 0.546 -0.546 0.764a1.064 1.064 0 0 1 -0.982 -0.11c-1.092 -1.092 -2.074 -2.292 -3.056 -3.492a1 1 0 0 1 0.11 -1.09 1.512 1.512 0 0 1 0.982 -0.328 7.56 7.56 0 0 1 3.492 4.256Z" fill="#2862e9" stroke-width="1"></path><path d="M146.444 176.628c-0.436 -0.116 -1.092 -0.764 -1.092 -1.2 -0.218 -0.982 0.874 -2.184 1.746 -1.964 2.182 0.872 0.112 3.37 -0.654 3.164Z" fill="#191919" stroke-width="1"></path><path d="M134.55 174.336c1.418 0.11 2.4 1.092 2.072 1.746a2.554 2.554 0 0 1 -1.308 1.092c-1.368 0.194 -2.54 -2.838 -0.764 -2.838Z" fill="#191919" stroke-width="1"></path><path d="M145.462 342.378c-0.438 0 -0.982 0.11 -1.42 0.11a5.736 5.736 0 0 1 1.42 -0.11Z" fill="#2862e9" stroke-width="1"></path><path d="M161.72 350.672a23.6 23.6 0 0 1 13.858 -3.056c2.074 -0.108 1.744 1.518 0 1.856 -4.654 0.902 0.318 -0.734 -12.658 2.51 -0.764 0.108 -3.474 0.03 -1.2 -1.31Z" fill="#191919" stroke-width="1"></path><path d="M160.956 346.416c2.4 0 0.764 1.638 0.436 1.746a12.04 12.04 0 0 0 -3.6 1.2c-0.442 0.32 -2.074 -0.326 -0.764 -1.2 1.31 -0.546 2.618 -1.09 3.928 -1.746Z" fill="#191919" stroke-width="1"></path><path d="M150.044 354.272c-1.31 0.328 -2.736 0.4 -4.146 0.764 -3.514 0.9 -6.874 2.184 -10.366 3.166 -0.546 0.108 -1.638 -0.438 -0.656 -1.528a25.53 25.53 0 0 1 13.64 -4.584 9.65 9.65 0 0 1 1.746 0.218c1.638 0.764 0.218 1.856 -0.218 1.964Z" fill="#191919" stroke-width="1"></path><path d="M137.6 349.362c-2.618 0.874 -5.336 1.784 -8.074 2.51 -0.434 0.116 -2.27 -0.4 -0.872 -1.528a14.082 14.082 0 0 1 6.656 -2.728c0.654 -0.114 1.308 -0.108 1.964 -0.218 2.186 0.436 0.986 1.746 0.326 1.964Z" fill="#191919" stroke-width="1"></path><path d="M137.168 351.982a14.722 14.722 0 0 1 7.312 -2.292c2.836 -0.06 1.752 1.66 0.326 2.074 -2.4 0.692 -4.8 1.2 -7.2 1.746 -0.438 -0.11 -2.194 -0.454 -0.438 -1.528Z" fill="#191919" stroke-width="1"></path><path d="M130.948 355.8c-0.546 0 -1.418 -0.546 -0.546 -1.528a31.184 31.184 0 0 1 3.384 -1.2c1.31 -0.218 2.618 0.874 0.326 1.638a26.716 26.716 0 0 1 -3.164 1.09Z" fill="#191919" stroke-width="1"></path></svg>