<svg xmlns="http://www.w3.org/2000/svg" fill="none" viewBox="0 0 400 400" id="Freelancer--Streamline-Brooklyn.svg" height="400" width="400"><desc>Freelancer Streamline Illustration: https://streamlinehq.com</desc><g id="freelancer--work-job-office-company-freelancer"><g id="tree"><path id="vector" fill="#2862e9" d="M153.4638 67.6002c3.242 -0.726 15.19 -4.116 15.428 -2.892 0.086 0.44 -0.338 0.564 -0.738 0.672 -14.376 3.902 -17.56 6.836 -18.616 4.8 -0.444 -0.856 0.24 -1.28 0.742 -1.77 24.418 -23.8 69.6242 -26.756 91.0482 -0.228 0.72 0.89 1.316 1.8 0.476 2.576 -2 1.85 -14.616 -20.23 -50.0002 -18.12 -17.762 1.056 -32.792 11.978 -38.34 14.962Z" stroke-width="1"></path><path id="vector_2" fill="#2862e9" d="M343.454 89.166c0.8 4.4 -12.896 -15.384 -39.018 -23.84 -26.184 -8.476 -47.618 5.986 -48.682 4.49 -1.652 -2.326 20.47 -13.7 44.4 -8.75 24.624 5.096 43.354 24.586 43.3 28.1Z" stroke-width="1"></path><path id="vector_3" fill="#2862e9" d="M244.646 69.4778c2.4 -46.448 60.876 -61.94406 61.75 -59.16406 0.256 0.812 -0.73 0.528 -5.352 2.53 -29.888 12.95006 -48.48 24.24206 -54.334 56.61606 -0.13 0.718 -0.248 1.562 -1.162 1.484 -1.06 -0.092 -0.734 -1.144 -0.902 -1.466Z" stroke-width="1"></path><path id="vector_4" fill="#2862e9" d="M220.832 162.7438c-3.988 -2.752 -11.37 -18.054 -9.112 -34.428 3.2 -23.184 18.95 -39.06 20.972 -36.492 0.668 0.848 -0.824 1.382 -3.13 4.032 -12.8 14.722 -17.046 33.89 -14.9 47.366 1.836 11.542 6.748 18.27 6.17 19.522Z" stroke-width="1"></path><path id="Subtract" fill="#2862e9" fill-rule="evenodd" d="M260.328 172.7408c-2.57 -37.1604 -5.76 -81.302 -6.832 -84.3614 -0.138 -0.394 1.082 -1.086 1.254 -0.22 4.326 21.8486 6.752 55.683 8.03 84.111 -0.852 0.1632 -1.67 0.32 -2.452 0.4704Z" clip-rule="evenodd" stroke-width="1"></path><path id="Subtract_2" fill="#2862e9" fill-rule="evenodd" d="M250.51 174.6464c-0.026 -34.4266 -0.186 -73.1136 -0.91 -79.4806 -0.126 -1.166 0.978 -2.278 1.2 -0.458 2.62 20.9054 2.846 52.1764 2.294 79.431 -0.934 0.1822 -1.792 0.3508 -2.584 0.5076Z" clip-rule="evenodd" stroke-width="1"></path><path id="vector_5" fill="#2862e9" d="M319.856 130.2636c-0.028 1.834 -0.724 2.2 -1.492 0.526 -22.12 -48.068 -37.564 -44.2 -36.072 -47.3 1.708 -3.53 29.708 14.328 37.564 46.774Z" stroke-width="1"></path><path id="vector_6" fill="#2862e9" d="M183.0938 116.1996c-0.33 -5.634 16.884 -28.692 23.1302 -31.876 14.658 -7.472 33.652 -8.262 33.286 -5.286 -0.2 1.66 -6.43 0 -19.6 3.6 -17.356 4.724 -30.0882 25.982 -36.8162 33.562Z" stroke-width="1"></path><path id="vector_7" fill="#2862e9" d="M290.678 73.0558c1.91 -3.422 15.75 3.874 17.484 6.132 1.772 2.308 -6.304 -3.014 -14.512 -4.432 1.346 2.412 5.038 3.884 4.172 5.838 -1 2.27 -6 0.082 -8.456 -0.812 -18.216 -6.658 -23.26 -2.342 -23.4 -4.67 -0.112 -1.8 8.154 -3.51 25.28 2.418 6.258 2.168 -2.014 -1.884 -0.568 -4.474Z" stroke-width="1"></path><path id="vector_8" fill="#2862e9" d="M265.028 50.8118c-1.948 -3.152 9.81 -10.6 15.14 -11.43 -3.956 3.282 -8.464 5.912 -11.946 9.842 1 0.64 2.71 -0.6 3.51 0.782 1.784 3.064 -9.898 7.684 -15.526 16.816 -1.852 3 -7.632 -1.038 11.624 -14.554 2.382 -1.668 -1.736 0.272 -2.802 -1.456Z" stroke-width="1"></path><path id="vector_9" fill="#2862e9" d="M196.776 67.9554c5.646 -1.438 22.53 -2.828 21.8 0.498 -0.15 0.692 -0.738 0.458 -1.2 0.446 -14.9 -0.414 -21.042 2.046 -23.648 2.178 -2.544 0.13 -2.898 -1.702 -1.12 -3 2.356 -1.708 6.874 -4.956 10.02 -4.726 -1.298 1.142 -8.348 5.016 -5.852 4.604Z" stroke-width="1"></path><path id="vector_10" fill="#2862e9" d="M226.388 115.826c1.374 3.516 3.07 11.976 3.324 5.966 -0.022 -6.2366 1.754 -12.3474 5.116 -17.6 0.616 -0.942 1.762 -0.538 1.334 0.734 -5.932 17.654 -3.8 18.2 -4.936 21.674 -1.884 5.772 -6.75 -8.53 -4.838 -10.774Z" stroke-width="1"></path><path id="vector_11" fill="#2862e9" d="M314.588 131.8622c-14.336 -23.97 -18.528 -21.136 -17.116 -23.244 3.182 -4.746 20.74 22.066 17.116 23.244Z" stroke-width="1"></path><path id="vector_12" fill="#2862e9" d="m220.582 144.2274 3.096 2.746c0.2 -0.2134 0.34 -0.4744 0.41 -0.758 0.07 -0.2836 0.068 -0.5804 -0.01 -0.862 -1.97 -7.168 -1.648 -22.91 0.734 -22.454 1.826 0.348 -1.12 3.6 1.4 24.76 0.614 5.154 -5.572 0.58 -5.63 -3.432Z" stroke-width="1"></path><path id="vector_13" fill="#2862e9" d="m179.6738 63.0814 -3.12 2.78c-0.2 0.182 -1.708 1.74 0.888 0.716 5.096 -2.0524 10.4636 -3.3526 15.934 -3.86 1.65 0.066 1.418 1.242 0.134 1.556 -9.062 2.2 -3.154 0.51 -18.544 5.48 -4.988 1.6 -4 -3.292 4.086 -7.448 0.422 -0.216 1.69 -0.174 0.622 0.776Z" stroke-width="1"></path><path id="vector_14" fill="#2862e9" d="M298.618 24.4562c-2.218 1.632 -10.726 2.64 -19.826 10.762 -0.642 0.574 -1.4 1.262 -2.266 0.37 -2.726 -2.818 12.062 -12.754 22.092 -11.132Z" stroke-width="1"></path><path id="vector_15" fill="#2862e9" d="M286.908 110.0738c-3.956 -7.776 -5.526 -11.766 -9.17 -14.124 -2.444 -1.584 -3.686 -0.818 -3.494 -2.16 0.262 -1.826 4.958 -1.034 7.256 1.336 3.1 3.2 7.402 10.964 5.408 14.948Z" stroke-width="1"></path><path id="vector_16" fill="#2862e9" d="M327.81 91.0536c-1.6 -0.27 -6.226 -8.454 -16.944 -13.8 -3.316 -1.654 -1.148 -5.352 6.938 1.086 6.996 5.58 10.74 11.902 10.006 12.714Z" stroke-width="1"></path><path id="vector_17" fill="#2862e9" d="M274 100.542c-2.924 -3.6354 -6.216 -6.959 -9.822 -9.918 -4.872 -3.478 -6.344 -0.2 -6.628 -2.25 -0.304 -2.2 2.662 -2.174 4.8 -1.58 7.492 2.092 17.236 19.818 11.65 13.748Z" stroke-width="1"></path><path id="vector_18" fill="#2862e9" d="M287.59 101.01c-0.4 -0.518 -0.956 -1.052 -0.378 -1.712 2.33 -2.66 11.022 9.854 9.922 21.226 -0.402 4.138 -0.322 -7.796 -9.544 -19.514Z" stroke-width="1"></path><path id="vector_19" fill="#2862e9" d="M236.448 114.852c-2.578 -5.034 6.512 -23.054 9.332 -19.826 1.276 1.462 -1.668 -0.142 -8.95 19.23 -0.112 0.2076 -0.24 0.4068 -0.382 0.596Z" stroke-width="1"></path><path id="vector_20" fill="#2862e9" d="M305.076 15.68188c-1.448 1.312 -4.122 1.058 -15.4 6.88992 -0.844 0.436 -1.976 1.366 -2.72 0.102 -1.654 -2.80192 15.314 -8.84192 18.12 -6.99192Z" stroke-width="1"></path><path id="vector_21" fill="#2862e9" d="M215.544 72.752c1.858 -2.35 19.962 -2.472 18.922 1.104 -0.46 1.578 -9.696 -1.77 -18.6 -0.872 -0.066 0.016 -0.164 -0.114 -0.322 -0.232Z" stroke-width="1"></path><path id="vector_22" fill="#2862e9" d="M223.458 162.8934c-2.166 -1.496 -5.6 -14.494 -3.286 -14.8 1.06 -0.144 0.774 -0.182 3.282 14 0.02 0.2664 0.022 0.5336 0.004 0.8Z" stroke-width="1"></path><path id="vector_23" fill="#2862e9" d="M214.434 101.8458c-4.496 3.576 -9.016 9.374 -10.354 10.148 -1.434 0.828 -2.658 0.07 -2.494 -1.6 0.494 -5.024 4.318 -8.6 -9.5022 2.446 -3.106 2.482 4.354 -7.292 8.6002 -9.44 1.24 -0.626 4.6 -1.488 4.296 1 -0.834 7.088 -0.1 1.094 9.48 -5.904 1.274 -0.93 4.822 -3.384 5.532 -1.976 0.476 0.918 -0.296 1.14 -5.558 5.326Z" stroke-width="1"></path><path id="vector_24" fill="#2862e9" d="M336.8 89.5572c-2.23 -1.488 -4.184 -3.302 -6.462 -4.678 -1.068 -0.646 -2.152 -1.268 -3.18 -1.968 -1.7 -1.154 -0.268 -2.314 0.97 -1.704 3.78 1.6816 6.848 4.6368 8.672 8.35Z" stroke-width="1"></path></g><g id="chair"><path id="vector_25" fill="#191919" d="M205.002 314.986c-0.124 0.286 -0.352 0.514 -0.638 0.638 -38.0954 15.4 -83.5044 13.602 -105.8078 -14.47h4.0598c22.0938 25.338 64.9724 24.434 100.924 12.162 0.3 -0.086 0.62 -0.054 0.898 0.09 0.278 0.142 0.49 0.384 0.594 0.678 0.106 0.294 0.094 0.616 -0.03 0.902Z" stroke-width="1"></path><path id="Subtract_3" fill="#191919" fill-rule="evenodd" d="M112.2484 165.9326c-0.273 0.1176 -0.5414 0.2306 -0.8024 0.337 -24.5718 10.0906 -24.7958 22.3022 -25.0746 37.5004 -0.062 3.376 -0.1266 6.9 -0.4614 10.58 -0.6098 6.73 -2.0264 13.154 -3.7256 19.446 1.1088 0.096 2.239 0.368 3.3656 0.858 1.8544 -7.08 3.3438 -14.33 3.734 -21.92 0.102 -1.984 0.068 -4.206 0.0322 -6.562 -0.1164 -7.6278 -0.2542 -16.6672 4.1218 -23.5764 2.1774 -3.438 7.8488 -8.0384 14.9728 -11.9956 1.1824 -1.591 2.4614 -3.1488 3.8376 -4.6674Zm-31.928 87.0894c-0.8334 -1.404 -1.597 -3.084 -2.2468 -5.102 -2.7872 9.456 -5.308 18.916 -5.6962 29.006 1.153 -0.138 2.332 -0.262 3.5326 -0.37 0.4194 -7.988 2.2382 -15.75 4.4104 -23.534Zm51.6844 88.172c-25.8634 -2.992 -47.5534 -13.884 -56.3654 -40.984 1.416 0.244 2.836 0.466 4.2574 0.67 4.997 11.788 14.236 22.952 20.5292 26.012 0.2944 0.142 0.7266 0.42 1.315 0.796l0.0012 0c3.1608 2.026 10.8306 6.942 25.9238 9.472 1.3858 0.232 2.821 0.434 4.3 0.61 0.013 1.21 0.0256 2.35 0.0388 3.424Zm9.7146 0.762c0.0124 -1.106 0.0244 -2.258 0.0364 -3.448 25.8956 0.956 59.9382 -4.872 80.8902 -16.092 2.694 -1.444 5.146 -3.044 7.362 -4.786 -0.424 1.92 -0.858 3.834 -1.298 5.71 -10.81 7.87 -25.484 13.55 -44.04 16.05 -14.3414 1.934 -29.0638 3.176 -42.9506 2.566Z" clip-rule="evenodd" stroke-width="1"></path></g><g id="person"><path id="vector_26" fill="#2862e9" d="M136.5598 180.5354c-0.022 4.416 3.292 9.574 5.532 31.2006 0.254 2.454 -2.8 1.64 -8.822 5.46 -8.476 5.378 17.636 -8.904 48.05 -6.96 21.2822 1.362 24.5242 1.634 25.6122 5.344 1.266 4.184 1.574 8.598 0.902 12.918 -0.65 2.54 -1.952 4.866 -3.776 6.748 -30.0982 37.674 -96.8802 23.896 -106.0002 -26.658 -3.942 -21.7886 11.09 -52.7126 47.036 -63.6126 4.74 -1.436 0 2.632 7.252 20.116 0.716 1.728 9.304 25.438 11.306 41.8006 0.298 2.438 -1.6 0.816 -17.262 4.578 -3.836 0.92 -0.914 -5.512 -5.852 -22.0006 -0.978 -3.27 -2.116 -7.47 -3.978 -8.934Zm-17.112 5.664c-0.56 1.19 0.426 1.704 1.136 2.38 1.2 1.144 0.156 3.716 -2.38 1.542 -0.2674 -0.3126 -0.6136 -0.5482 -1.0028 -0.6822 -0.389 -0.134 -0.8068 -0.1616 -1.2102 -0.08 -0.4034 0.0814 -0.7776 0.2694 -1.084 0.544 -0.3064 0.2746 -0.5338 0.6262 -0.659 1.0182 -1.82 4.696 1.048 9.8126 4.514 6.302 0.33 -0.334 0.666 -0.95 1.174 -0.652 1.15 0.676 -2.34 3.6346 0.338 5.9586 3.51 3.05 7.558 0.628 6.234 -2.5366 -0.28 -0.662 -0.922 -2.22 -0.232 -2.558 0.6 -0.294 1.048 0.502 1.8 1.188 4.468 4.1146 8.31 -6.448 2.536 -6.936 -0.696 -0.058 -2.898 1.226 -3.498 0.102 -0.41 -0.764 0.272 -1.176 0.754 -1.6 4.506 -3.99 -5.818 -9.502 -8.42 -3.99Zm26.974 44.0186c5.13 0.476 3.628 -7.686 -0.77 -8.856 -3.76 -1 -3.148 2.69 -3.364 3.38 -0.0728 0.264 -0.2298 0.496 -0.447 0.664 -0.2172 0.166 -0.4828 0.258 -0.7568 0.262 -0.274 0.002 -0.5416 -0.084 -0.762 -0.248 -0.2204 -0.162 -0.382 -0.392 -0.4602 -0.654 -0.122 -0.37 -0.2 -4.728 -3.412 -3.428 -5.036 2.038 -5.868 7.672 -1.888 7.8 0.644 0.02 1.634 -0.53 1.842 0.358 0.266 1.142 -4.2 0.93 -3.832 4.53 0.488 4.656 5.104 5.65 6.368 2.218 0.2 -0.546 0.466 -2.118 1.444 -1.856 0.574 0.154 0.428 0.758 0.456 1.758 0.156 5.868 9.286 2.6 7.144 -2.222 -0.648 -1.46 -3.664 -1.618 -3.054 -3.136 0.27 -0.704 0.896 -0.716 1.492 -0.574v0.004Zm24.8 -8.176c0.338 0.238 0.952 0.4 0.786 0.898 -0.21 0.626 -0.852 0.342 -1.264 0.22 -7.924 -2.356 -7.1 10.252 -1 6.512 0.6 -0.364 1.358 -0.926 1.92 -0.318 0.6 0.644 -0.3 1.162 -0.644 1.634 -4.4 6 8.17 7.68 6.67 1.628 -0.378 -1.522 -1.13 -2.4 -0.162 -3 0.8 -0.49 1.186 0.31 1.6 0.718 3.234 3.106 7.852 -3.248 5 -7.42 -1.944 -2.834 -3.694 -0.502 -4.618 0.314 -0.2182 0.186 -0.4926 0.292 -0.779 0.302 -0.2862 0.01 -0.5678 -0.076 -0.799 -0.244 -0.2312 -0.17 -0.3986 -0.412 -0.4752 -0.688 -0.0764 -0.276 -0.0578 -0.57 0.0532 -0.834 0.224 -0.498 2.976 -3.81 -0.494 -4.876 -4.874 -1.488 -9.91 2.242 -5.796 5.15l0.002 0.004Zm-46.108 -60.2646c0.494 0.036 1.252 -0.44 1.4 0.272 0.278 1.288 -4.768 0.922 -3.646 5.424 1 3.986 4.864 4.276 5.944 1.854 0.6 -1.34 0.906 -2.502 1.718 -2.336 0.664 0.136 0.414 0.97 0.508 2.064 0.472 5.536 9.512 2.034 7 -2.696 -0.636 -1.2 -3.38 -1.542 -3 -2.854 0.228 -0.8 0.914 -0.75 1.612 -0.706 0.5134 0.0626 1.0342 0.007 1.5228 -0.162 0.4886 -0.1692 0.9322 -0.4476 1.2972 -0.814 0.3648 -0.3664 0.6414 -0.8112 0.8084 -1.3006 0.167 -0.4892 0.2204 -1.0102 0.1556 -1.5234 -0.366 -5.364 -8.43 -7.146 -7.944 -2.4 0.0768 0.3406 0.015 0.6976 -0.1716 0.9926 -0.0924 0.1462 -0.2126 0.2726 -0.354 0.3722 -0.1412 0.0996 -0.3008 0.1704 -0.4694 0.2082 -0.3404 0.0768 -0.6974 0.015 -0.9924 -0.1716 -0.295 -0.1866 -0.5038 -0.4828 -0.5806 -0.8234 -0.282 -1.256 -0.23 -2.1 -1.338 -1.436 -4.43 2.648 -8.636 5.672 -3.47 6.036Zm30.286 21.16c-1.864 -4.668 -9.87 7.2 -3.224 6.8 0.412 -0.024 1.868 -0.584 2.25 0.63 0.382 1.214 -1.4 1.772 -2.658 2 -0.6784 0.1248 -1.307 0.442 -1.8104 0.9138 -0.5034 0.4718 -0.8608 1.0782 -1.0294 1.7474 -0.1684 0.669 -0.1412 1.3724 0.0786 2.0264 0.2198 0.654 0.6228 1.231 1.1612 1.6624 1.74 1.5326 3.6 1.4746 3.698 -1.298 0.036 -1.036 0.644 -2.356 1.952 -2.042 2.618 0.628 -0.16 2.378 1.634 5.4146 0.2234 0.442 0.5906 0.796 1.0414 1.002 0.4506 0.206 0.958 0.252 1.4386 0.132 2.268 -0.526 -3.574 -16.5866 -4.532 -18.9886Zm-40.176 35.3306c-0.03 -1.836 -3.168 -6.63 -5.636 -6.044 -4.178 1 -1.618 4.318 -3.4 4.372 -1.092 0.032 -1 -2.326 -1.896 -3.222 -0.464 -0.46 -1 -1.054 -1.668 -0.72 -0.8 0.4 -0.172 1.108 -0.028 1.586 1.7812 5.428 4.3514 10.564 7.628 15.244 1.506 2.278 5.546 -3.8 1.322 -5.476 -0.554 -0.22 -1.468 -0.448 -1.338 -1.2 0.11 -0.636 1 -0.452 1.55 -0.556 0.937 -0.188 1.7856 -0.68 2.4126 -1.402 0.6272 -0.72 0.9976 -1.628 1.0534 -2.582Zm54.908 33.306c2.4 -0.432 0.216 -3.816 -2.448 -4.264 -1.222 -0.2 -1.74 0.928 -2.18 1.872 -0.0556 0.158 -0.143 0.304 -0.2566 0.426 -0.1136 0.124 -0.2512 0.224 -0.4044 0.292 -0.1532 0.068 -0.3186 0.106 -0.4866 0.108 -0.1678 0.004 -0.3344 -0.028 -0.4898 -0.092 -0.1552 -0.064 -0.296 -0.158 -0.4136 -0.278 -0.1176 -0.12 -0.2096 -0.262 -0.2706 -0.418 -0.0608 -0.158 -0.0892 -0.324 -0.0834 -0.492 0.0058 -0.168 0.0456 -0.332 0.117 -0.484 2.112 -5.662 -4.162 -4.502 -6 -3.278 -5.262 3.522 0.512 5.37 0.262 6.294 -0.232 0.856 -5 -0.322 -4.8 1.62 0.176 1.478 15.99 -1.044 17.454 -1.306Zm27.308 -21.458c-4.864 0.6 -8.084 5.666 -3.248 6.776 1.814 0.416 1.822 2.572 -0.242 2.646 -0.11 0 -4.048 -0.97 -3.73 2.54 0.118 1.298 0.554 1.538 1.634 0.784 2.9326 -2.06 5.6768 -4.376 8.2002 -6.92 2.702 -2.708 1.202 -5.57 -2.6142 -5.826Zm-8.268 -17.3c-0.024 0.698 -4.344 -0.828 -2.846 2.246 0.754 1.546 2.472 1.816 4.722 0.8 0.708 -0.318 1.426 -1.264 2.188 -0.668 0.762 0.596 0.026 1.512 -0.096 2.282 -0.89 5.674 6.9602 3.524 6.8 -1 -0.14 -3.806 -1.14 -3.024 -10.768 -3.66Zm-78.184 -30.5386c4.354 -0.052 5.096 -6.774 1.112 -8.37 -2 -0.8 -1.936 0.134 -3.878 3.91 -1.336 2.596 -0.158 4.496 2.766 4.46Z" stroke-width="1"></path><path id="vector_27" fill="#191919" d="M221.744 237.268c17.656 0.58 30.038 12.64 44.756 27.444 14.84 14.93 34.824 35.484 46.766 52.498 12.092 17.23 29.15 27.378 34.47 32.4 4.582 4.328 3.34 7.984 -0.314 9.242 -4.496 1.548 -5.8 0.24 -24.038 -4.036 -7.49 -1.756 -16.358 -5.546 -19.298 -12.562 -9.622 -22.958 -77.656 -32.14 -98.4 -74.376 -8.022 -16.336 -3.12 -31.238 16.058 -30.61Zm-9.14 4.8c-2.008 0.286 -3.844 1.29 -5.168 2.826 -1.324 1.536 -2.046 3.5 -2.032 5.528 -3.588 37 60.886 60.8 84.304 74.5 5.696 3.33 19.138 -9.526 13.018 -16.358 -45.85 -51.164 -65.162 -72.912 -90.126 -66.494l0.004 -0.002Zm81.37 85.52c1.374 1.15 2.808 2.228 4.296 3.226 1.336 0.822 2.824 1.366 4.376 1.6 1.552 0.232 3.134 0.148 4.652 -0.246 1.518 -0.394 2.942 -1.092 4.184 -2.05 1.242 -0.96 2.278 -2.158 3.044 -3.528 1.528 -2.444 0.26 -2.8 -4.8 -9.092 -1.032 -1.424 -2.164 -2.774 -3.388 -4.038 -0.964 7.54 -5.538 11.704 -12.364 14.13v-0.002Zm32.324 11.236 -0.336 0.348c2.826 2.776 16.31 15.2 17.97 12.754 0.88 -1.292 -1.382 -1.376 -17.634 -13.1v-0.002Z" stroke-width="1"></path><path id="vector_28" fill="#2862e9" d="M192.6818 174.4196c9.5582 25.446 15.7502 36.1424 8.4522 35.3664 -19.8282 -2.11 -20.2222 -1.492 -20.1202 -4.296 0.346 -9.4224 -4.692 -44.6544 -12.86 -57.6824 -0.376 -0.6 -1.26 -1.132 -0.69 -2 1.494 -2.254 45.1642 4.188 58.2222 45.346 2.212 6.968 -8.416 -1.874 -18.6 11.0544 -0.29 0.37 -0.466 1.02 -1.044 0.884 -1.042 -0.24 -9.8322 -30.4444 -13.3602 -28.6724Zm-9.466 -7.252c-0.0646 0.602 0.0016 1.2108 0.1942 1.7846 0.1926 0.574 0.507 1.0996 0.9218 1.5406 0.4146 0.441 0.9198 0.7872 1.4808 1.015 0.5608 0.2276 1.1644 0.3312 1.7692 0.3038 3.266 -0.492 1.688 -4.444 3.314 -4.416 1.354 0.024 0.152 5.672 4.8 4.086 3.754 -1.28 4.6262 -5.4 1.54 -6.676 -0.844 -0.35 -2.226 -0.232 -2.156 -1.556 0.096 -1.8 3.138 -0.074 3.78 -2.366 0.24 -0.852 -0.47 -1.116 -0.962 -1.508 -0.704 -0.562 -5.686 -4.098 -6.386 -3.734 -0.6 0.312 -0.05 0.876 -0.024 1.316 0.056 0.902 -0.24 1.532 -1.134 1.688 -1.458 0.252 -1.57 -1.672 -1.782 -2.292 -1.36 -3.956 -6.31 -0.24 -6.874 3.52 -0.774 5.148 4.432 2 4.702 3.16 0.248 1.104 -3.224 1.536 -3.184 4.134Zm-0.898 11.918c-3.632 -0.07 -0.368 2.23 0.4 19.314 0.098 2.2004 5.584 -0.284 2.944 -4.644 -0.318 -0.524 -0.788 -1.074 -0.338 -1.612 0.554 -0.66 1.2 -0.168 1.736 0.188 4.096 2.686 7.684 -4.6 3.706 -8.228 -3.674 -3.35 -3.764 2.276 -5.778 1.44 -2.408 -0.996 3.278 -6.344 -2.67 -6.458Zm20.9042 9.226c0.944 2.944 1.946 5.874 2.924 8.81 0.572 1.714 0.22 4.0004 3.172 0.348 0.848 -1.048 1.652 -4.17 -1.754 -4.584 -0.514 -0.064 -1.296 0.114 -1.354 -0.554 -0.108 -1.2 5.17 -0.374 3.486 -6.4 -1.194 -4.262 -7.818 -1.812 -6.474 2.38Z" stroke-width="1"></path><path id="vector_29" fill="#191919" d="M224.628 338.89c5.708 -16.304 9 -37.658 10.952 -37.044 0.652 0.2 0.374 0.934 0.252 1.436 -1.724 7.096 -2.71 14.332 -4.27 21.458 -0.124 0.294 -0.156 0.62 -0.094 0.932 0.064 0.314 0.218 0.602 0.446 0.826 3.908 3.972 8.728 6.924 14.042 8.6 5.924 1.68 4.504 -1.88 16.868 -15.15 1.128 -1.2 2.724 -2.974 3.86 -1.864 0.4 0.388 0.306 0.34 -8.578 11.376 -31.47 39.098 -34.868 61.8 -42.632 60.476 -1.676 -0.41 -3.2 -1.292 -4.39 -2.542 -1.19 -1.25 -1.998 -2.814 -2.326 -4.508 -1.89 -13.112 6.29 -16.628 15.87 -43.996Zm24.12 -1.462c-6.6 0.432 -13.634 -4.02 -18.054 -8.8 -1.252 3.962 -2.068 7.852 -3.482 11.558 -1.118 2.928 12.166 11.972 15.022 7.434 2.09 -3.314 4.218 -6.604 6.514 -10.192Zm-26.27 20.048c-5.776 4.086 -12.878 21.458 -9.776 21.952 0.938 0.15 1.34 -0.982 1.566 -1.974 1.96 -6.952 4.714 -13.656 8.21 -19.978Z" stroke-width="1"></path><path id="vector_30" fill="#191919" d="M303.266 178.858c-3.21 34.42 -1.64 32 -2.13 34.86 -0.578 3.366 -1.564 2.694 -15.554 6.2 -50.442 12.626 -46.2 11.8 -54.472 11.16 -5.888 -0.46 -15.064 -1.454 -19.314 -2.2 -0.668 -0.118 -1.422 -0.272 -1.346 -1.116 0.082 -0.946 0.922 -0.958 1.636 -0.902 5.132 0.4 10.25 0.742 21.116 2.25 2.912 0.4 0.674 -0.106 2.474 -40.846 0.432 -9.784 0.306 -9.906 3.148 -10.892 4.844 -1.682 5.312 -1.6 59.496 -12 4.456 -0.858 6.15 0.586 4.946 13.486Zm-66.626 46.764c-0.2 5.712 -2.214 4.832 38.88 -5.454 24.296 -6.08 23.318 -5.056 23.464 -8.648 2 -48.788 7.8 -45.6 -7.216 -42.73 -50.962 9.744 -48.838 9.15 -50.982 9.688 -4.566 1.148 -2.446 -0.212 -4.146 47.144Z" stroke-width="1"></path><path id="vector_31" fill="#191919" d="M202.422 289.814c-15.766 -11.362 -18.928 -23.658 -15.766 -35.642 0.1456 -0.778 0.4792 -1.51 0.9718 -2.13 0.4924 -0.62 1.129 -1.11 1.8542 -1.426 -2.19 15.032 -1.452 21.856 8.636 32.154 5.21 5.32 9.756 8.83 16.316 5.484 3.788 -1.93 4.564 -0.698 3.446 0.092 -3.644 2.57 -7.42 4.702 -12.11 3 -3.038 -1.098 -16.74 5.348 -34.33 3.094 -30.848 -3.952 -42.188 -38.058 -38.526 -38.868 1.81 -0.4 1.02 5.414 6.858 14.226 15.99 24.148 36.1 23.674 62.65 20.016Z" stroke-width="1"></path><path id="vector_32" fill="#191919" d="M299.2 241.428c0.64 11.902 -7.444 27.472 -13.14 38 -0.212 0.4 -0.238 1.4 -1.188 0.8 -0.75 -0.472 -1.238 -1.034 -0.782 -2.018 3.908 -8.454 9.234 -20.784 11.232 -29.878 5.836 -26.57 -23.532 -28.42 -39.272 -0.574 -0.868 1.534 -1.158 1.92 -1.716 1.652 -1.032 -0.494 0.352 -3.124 0.918 -4.122 13.892 -24.488 42.624 -28.372 43.948 -3.86Z" stroke-width="1"></path><path id="vector_33" fill="#191919" d="M231.526 210.872c-0.486 1.492 -15.738 8.696 -17.2 9.276 -3.6 1.436 -3.84 -0.286 -2.418 -1.134 3.11 -1.852 15.366 -9.52 19.618 -8.142Z" stroke-width="1"></path><path id="vector_34" fill="#191919" d="M226.956 198.8354c-4.282 -0.314 -13.99 -2.6 -18.8 9.1606 -1.032 2.52 -0.958 2.948 -1.578 2.8 -1.326 -0.32 0.628 -5.244 1.704 -7.074 5.164 -8.7906 16.75 -8.3566 18.674 -4.8866Z" stroke-width="1"></path><path id="vector_35" fill="#191919" d="M253.642 230.038c-7.552 10.504 -6.884 14.676 -9.118 13.786 -2.85 -1.136 5.734 -14.646 9.118 -13.786Z" stroke-width="1"></path><path id="vector_36" fill="#191919" d="M210.1 216.616c-0.908 0.256 -1.464 -1.03 -0.35 -1.488 3.386 -0.898 6.368 -2.914 8.464 -5.72 2.4 -3.522 7.494 -1.526 4.672 -0.77 -4.346 1.162 -4.44 6.64 -12.786 7.978Z" stroke-width="1"></path><path id="vector_37" fill="#191919" d="M233.468 214.932c-16.686 10.65 -14.246 3.382 -1.278 -0.2 0.208 -0.1 0.442 -0.134 0.67 -0.098 0.228 0.036 0.44 0.14 0.608 0.298Z" stroke-width="1"></path><path id="vector_38" fill="#191919" d="M223.424 201.88c-3.412 0 -6.308 -0.46 -8.948 2.856 -0.718 0.904 -1.226 0.18 -1.028 -0.286 2.63 -6.2108 10.352 -4.5468 9.976 -2.57Z" stroke-width="1"></path><path id="vector_39" fill="#191919" d="M223.4 205.036c-5.34 -1.292 -5.778 2.492 -6.686 1.6 -1.274 -1.276 4.42 -5.904 6.686 -1.6Z" stroke-width="1"></path><path id="vector_40" fill="#191919" d="M166.8978 134.2956c-4.412 0.854 -5.142 -4.096 -4.118 -4.382 1.232 -0.346 -0.298 2.398 4.118 4.382Z" stroke-width="1"></path><path id="vector_41" fill="#191919" d="M161.9358 116.2376c0.922 -2.098 4.698 -2.81 6.948 -0.512 0.1072 0.09 0.1748 0.2182 0.1888 0.3572 0.014 0.1392 -0.027 0.2782 -0.1142 0.3876s-0.2136 0.1804 -0.3524 0.1978c-0.1386 0.0174 -0.2788 -0.0202 -0.3902 -0.1046 -0.9724 -0.4694 -2.0288 -0.74 -3.1072 -0.796 -1.0784 -0.056 -2.157 0.1038 -3.1728 0.47Z" stroke-width="1"></path><path id="vector_42" fill="#191919" d="M177.4578 117.2534c3.76 -0.13 5.434 4.832 3.27 3.168 -1.0892 -0.9126 -2.4208 -1.488 -3.832 -1.656 -0.436 -0.04 -1.134 0.2 -1.188 -0.504 -0.064 -0.82 0.828 -0.976 1.75 -1.008Z" stroke-width="1"></path><path id="vector_43" fill="#191919" d="M171.6358 130.0714c-1.032 2.578 -5.186 0.078 -4 0 3.274 -0.218 3.424 -0.366 3.856 -3.688 0.742 -5.784 1.638 -0.046 0.144 3.688Z" stroke-width="1"></path><path id="vector_44" fill="#191919" d="M151.286 108.9518c-2.69 0.662 -5.324 0.858 -6.54 3.642 -0.384 0.7006 -0.5164 1.5116 -0.3752 2.298s0.5474 1.5006 1.1512 2.024c0.88 0.824 2.58 2.296 2.238 2.8 -0.0486 0.0668 -0.1104 0.1232 -0.1816 0.165 -0.0712 0.042 -0.1502 0.0688 -0.2324 0.0788 -0.082 0.01 -0.1652 0.0028 -0.2444 -0.0208 -0.0792 -0.0238 -0.1526 -0.0636 -0.2156 -0.117 -1.96 -1.268 -4.126 -2.388 -4.4 -5.1 -0.1088 -1.2586 0.178 -2.5196 0.8206 -3.607 0.6424 -1.0874 1.6086 -1.9472 2.7634 -2.459 3.8148 -1.6768 7.0198 -4.4894 9.178 -8.054 5.334 -8.03 19.244 -6.376 24.842 -4.668 8.166 2.492 3.694 11.566 10.894 19.886 0.4318 0.5618 0.7628 1.1946 0.978 1.87 1.148 3.094 0.462 4.652 -2.6 5.856 -4.38 1.718 -4.474 0.982 -0.436 -1.428 3.158 -1.884 0.916 -6.054 -2.834 -7.774 -5.9448 -2.447 -12.3382 -3.6144 -18.764 -3.426 -1.8292 0.0338 -3.6208 0.5258 -5.2106 1.4312 -1.5898 0.9052 -2.927 2.1948 -3.8894 3.7508 -0.49 0.714 -0.522 1.052 0.188 1.526 1.354 0.904 2.478 2.12 4.468 1.6 1.9 -0.498 7.34 1.8 9.556 1.638 0.4424 -0.025 0.878 0.1178 1.22 0.4 2.092 2.026 4.95 1 7.33 1.884 0.948 0.35 1.02 0.4 2.064 -9.528 1.952 2.812 -0.6 9.416 0.518 10.27 0.3052 0.153 0.5596 0.3914 0.7322 0.6862 0.1726 0.2948 0.2562 0.6332 0.2402 0.9744 -0.0158 0.3412 -0.1304 0.6706 -0.3296 0.948 -0.1992 0.2774 -0.4746 0.4912 -0.7928 0.6154 -1.0412 0.7544 -1.7738 1.8608 -2.062 3.114 -2.226 6.452 -6.76 13 -13.6 12.53 -0.1816 -0.0442 -0.3706 -0.049 -0.554 -0.0142 -0.1836 0.0346 -0.3578 0.1082 -0.5106 0.2154 -0.153 0.1074 -0.2812 0.246 -0.3764 0.407 -0.095 0.1608 -0.1548 0.34 -0.175 0.5258 -0.6044 1.6822 -1.0574 3.4152 -1.354 5.178 -0.462 6.884 -13.096 8.77 -15.57 -2.184 -0.584 -2.59 0.71 -2.83 3.774 -18.104 1.284 -6.4 -6.266 -6.624 -4.064 -10.8 1.452 -2.782 1.342 -5.85 2.356 -9.03Zm29.08 19.502c-1.4424 -0.1608 -2.8346 -0.6234 -4.086 -1.358 -1 -0.76 -2.222 -1.574 -2.064 -2.932 0.2 -1.772 -1.148 -1.654 -2.054 -2.112 -1.084 -0.55 -1.552 0.086 -1.892 1.012 -1.098 2.982 -8.67 2.466 -9.87 -2.064 -0.318 -1.2 -0.9 -0.742 -5.382 -4.53 -0.5036 -0.5392 -1.1964 -0.8622 -1.9332 -0.9014 -0.7366 -0.0392 -1.4598 0.2086 -2.0176 0.6914 -0.5578 0.4828 -0.9068 1.1628 -0.9738 1.8976 -0.067 0.7346 0.1532 1.4666 0.6146 2.0424 1.6 2.776 4.434 2.906 3.66 8.338 -2.244 15.714 -6.074 17.414 -0.444 23.02 0.6956 0.6816 1.56 1.1662 2.5044 1.4042 0.9446 0.238 1.9352 0.221 2.871 -0.0494 0.9356 -0.2702 1.7828 -0.7842 2.4548 -1.4894 0.672 -0.705 1.1446 -1.5758 1.3698 -2.5234 0.474 -1.84 0.954 -3.686 1.574 -5.476 0.784 -2.264 -2.568 -0.316 -7.244 -5.456 -0.4458 -0.3508 -0.7912 -0.8128 -1.0018 -1.3394 -0.2108 -0.5266 -0.279 -1.0994 -0.1982 -1.6606 0.726 -0.05 0.986 0.494 1.358 0.868 8.7 8.706 17.966 6.93 22.754 -7.382Zm5.96 -16.37c-2.854 -10.536 -2 -13.908 -9.74 -15.15 -3.553 -0.5742 -7.168 -0.6596 -10.744 -0.254 -9.57 1.086 -7.344 4.4 -13.214 9.814 11.682 -0.954 22.648 1.958 33.698 5.59Z" stroke-width="1"></path><path id="vector_45" fill="#2862e9" d="M262.496 199.5614c0.2 -6.252 7.122 -10.414 12.29 -7.384 0.664 0.4 2.562 1.842 2.54 2.832 -0.022 1.052 -1.24 0.8 -1.916 1.126 -1.622 0.8 -2.782 2.284 -2.418 3.498 1.166 3.8746 6.38 0.8166 4.33 4.1266 -4.352 7.026 -15.108 4.738 -14.826 -4.1986Z" stroke-width="1"></path><path id="vector_46" fill="#2862e9" d="M269.6 187.5996c0.094 -6.234 8.928 -9.308 8.016 -5.544 -1.058 4.376 -8.082 10.206 -8.016 5.544Z" stroke-width="1"></path></g><g id="table"><path id="vector_47" fill="#191919" d="M141.766 296.146c-0.032 -2.4 4.958 -5.734 -0.888 -10.218 -15.282 -11.724 -75.632 -13.764 -89.166 -2.676 -5.516 4.518 0.16 7.584 0.146 9.736 -0.142 20.978 0.334 41.948 0.628 62.924 0.042 3.12 0.754 3.656 3.988 4.078 1.884 0.246 4.888 -0.84 4.914 -3.098 0.496 -41.47 0.484 -15.082 0.484 -59.772 23.51 6.6 50.706 6.662 68.442 2.686 1.964 -0.44 1.06 -0.02 1.242 9.12 1 50.18 -0.626 49.842 4.95 50.282 1.554 0.124 5.048 -0.308 5.032 -2.6 -0.012 -1.594 0.578 -34.376 0.228 -60.462Zm-2.556 41.096c-0.024 2 -0.034 1.846 -0.6 1.81 -0.734 -1.946 -0.826 -33.976 -0.518 -37.666 0.044 -0.53 -0.036 -1.248 0.738 -1.2 1.086 0.054 0.832 -0.014 0.38 37.056Zm-81.052 -44.68c-27.838 -11.6 43.87 -21.282 76.314 -7.2 27.844 12.07 -44.062 20.638 -76.314 7.2Z" stroke-width="1"></path><path id="vector_48" fill="#191919" d="M69.0682 297.8c6.67 1.416 7.898 0.884 7.854 3.4 -0.222 13.056 -0.382 29.478 -0.562 42.538 -0.024 1.762 -1.966 2.926 -4.4 2.688 -4.33 -0.418 -4.364 2.832 -4.2 -15.43 0.27 -28.636 -0.804 -33.638 1.308 -33.196Z" stroke-width="1"></path><path id="vector_49" fill="#191919" d="M122.056 323.8c0 24.562 1.314 23.344 -4.028 23.88 -0.6 0.058 -4.064 -0.098 -4.086 -2.878 -0.34 -40.834 -1.454 -44.918 0.98 -45.13 6.772 -0.588 7.564 -0.754 7.542 1.268 -0.158 13.962 -0.408 21.59 -0.408 22.86Z" stroke-width="1"></path><path id="vector_50" fill="#191919" d="M86.158 294.536c-8.964 1.09 -29.95 -3.094 -27.172 -9.98 0.4 -0.964 1.256 -1.252 1.386 0.084 0.4 4.2 12.164 6.108 25.436 8.514 3.012 0.546 0.552 1.358 0.35 1.382Z" stroke-width="1"></path></g><g id="drink"><g id="group"><path id="vector_51" fill="#191919" d="M95.516 287.43c-9.548 0.1 -11.238 -4.878 -2.782 -5.826 1.756 -0.2 1 0.028 0.68 -19.466 -0.046 -2.784 -11.51 0.588 -15.872 -16.06 -0.278 -1.064 -0.336 -0.77 -6.65 -3.25 -4.338 -1.704 7.13 -14.018 16.964 -6.844 5.734 4.186 2.448 8.344 5.268 8.23 23.416 -0.958 21.088 0.03 20.174 2.818 -0.848 3.086 -2.4502 5.914 -4.6626 8.228s-4.9654 4.042 -8.0114 5.028c-2.6 0.848 -1.568 0.48 -1.57 19.79 0 2.014 1.84 0.526 4.8 2.182 3.968 2.216 -0.946 5.094 -8.338 5.17ZM94.94 259c3.6998 0.096 7.3286 -1.026 10.328 -3.196 2.9992 -2.168 5.203 -5.262 6.272 -8.804 0.252 -0.86 0.268 -1.122 -0.754 -1.114 -19.344 0.148 -18.912 -0.742 -19.722 1.73 -0.944 2.886 -0.51 2.418 -9.634 -0.812 -0.4 -0.142 -0.872 -0.44 -1.236 -0.164 -0.622 0.478 2.856 12.508 14.746 12.36Zm2.356 3.496c0 -0.768 0.188 -1.4 -1.092 -1.37 -1.28 0.03 -1.22 0.578 -1.2 1.484 0.418 19.586 0.938 19.552 -1.088 19.84 -8.33 1.184 -6.226 4.292 4.338 3.236 5.858 -0.586 7.694 -2.252 1.06 -3.148 -1.714 -0.23 -2.058 0.206 -2.018 -20.04v-0.002Zm-15.67 -26.588c-3.412 -0.078 -2.112 -0.2 -0.716 6.85 0.416 2.102 0.884 0.8 7 -1.954 2.36 -1.062 -2.51 -4.804 -6.284 -4.894v-0.002Zm-2 8c-1.766 -7.55 -1.4 -7.66 -2.496 -7.302 -3 0.97 -5.822 4.684 -4.478 5.178 5.914 2.168 6.998 2.858 6.978 2.12l-0.004 0.004Zm10.356 -0.064c-0.16 -1.374 -0.054 -2.436 -1.162 -1.84 -5.652 3.036 -6.98 3.326 -5.334 3.96 5.628 2.166 6.488 3.098 6.5 -2.124l-0.004 0.004Z" stroke-width="1"></path><path id="vector_52" fill="#2862e9" d="M84 250.75c0.258 -0.4 0.012 -0.212 21.426 0.058 0.566 0 1.328 -0.244 1.614 0.412 0.24 0.55 -0.342 1.034 -0.688 1.4 -10.814 11.164 -23.586 0.08 -22.352 -1.87Zm17.8 2.374c-0.0048 -0.268 -0.1158 -0.522 -0.3084 -0.708 -0.1926 -0.186 -0.451 -0.288 -0.7186 -0.284 -0.2676 0.006 -0.5224 0.116 -0.7082 0.31 -0.1858 0.192 -0.2876 0.45 -0.2828 0.718 0.0024 0.132 0.0308 0.264 0.0836 0.384 0.053 0.122 0.1292 0.232 0.2246 0.324 0.0954 0.092 0.208 0.164 0.3312 0.212 0.1234 0.05 0.255 0.074 0.3876 0.07 0.1324 -0.002 0.2632 -0.03 0.3848 -0.082 0.1214 -0.054 0.2314 -0.13 0.3234 -0.226 0.092 -0.094 0.1644 -0.208 0.2128 -0.33 0.0486 -0.124 0.0724 -0.256 0.07 -0.388Zm-3.494 1.236c-0.02 -0.906 -1.278 -1.244 -1.316 -0.086 -0.0096 0.088 -0.0012 0.178 0.0248 0.264 0.0258 0.084 0.0688 0.164 0.126 0.232 0.0574 0.068 0.1278 0.124 0.2072 0.164 0.0794 0.04 0.1662 0.064 0.255 0.07 0.089 0.006 0.178 -0.006 0.262 -0.036 0.084 -0.03 0.1612 -0.076 0.2268 -0.136 0.0656 -0.06 0.1186 -0.134 0.1554 -0.214 0.0368 -0.082 0.0568 -0.17 0.0588 -0.258Zm-10.49 -2.284c-0.0862 0.004 -0.1706 0.024 -0.2488 0.062 -0.078 0.036 -0.148 0.088 -0.206 0.152 -0.058 0.064 -0.103 0.138 -0.1322 0.22 -0.0292 0.08 -0.0422 0.166 -0.038 0.252 0.004 0.088 0.025 0.172 0.0618 0.25 0.0366 0.078 0.0884 0.148 0.1522 0.206 0.0638 0.058 0.1384 0.102 0.2196 0.132 0.0812 0.03 0.1672 0.042 0.2534 0.038 0.83 -0.02 0.946 -1.222 -0.062 -1.312Z" stroke-width="1"></path></g></g></g></svg>