<svg xmlns="http://www.w3.org/2000/svg" width="755" height="550" viewBox="0 0 755 550" fill="none"><path d="M492.516 158.181C492.369 160.628 488.88 243.897 489.818 248.838C497.889 244.243 506.55 240.811 515.552 238.641C510.064 215.017 497.014 159.844 497.881 157.939C500.473 154.284 503.296 150.803 506.333 147.52C502.625 141.137 498.413 135.122 497.038 135.005C495.663 134.888 486.472 146.038 487.124 147.52C488.801 151.363 492.659 155.711 492.516 158.181Z" fill="#2862E9"></path><path d="M408.213 383.074C410.065 361.06 409.827 331.837 389.195 318.168C423.834 310.833 465.121 310.292 491.864 309.949C492.352 309.915 492.81 309.7 493.151 309.344C493.493 308.988 493.693 308.517 493.713 308.021C493.734 307.524 493.574 307.038 493.263 306.654C492.953 306.27 492.514 306.016 492.031 305.94C460.523 305.355 402.952 307.527 383.151 315.225C380.572 316.223 382.233 319.48 383.151 320.118C406.306 334.397 404.565 361.032 403.02 384.826C402.781 388.516 410.482 388.564 413.18 388.81C416.598 389.125 440.937 388.984 443.126 387.296C443.555 387.014 443.856 386.571 443.963 386.064C444.07 385.557 443.975 385.028 443.698 384.592C441.223 380.688 423.464 385.738 408.213 383.074Z" fill="#2862E9"></path><path d="M590.921 324.207C587.07 304.645 570.894 318.657 584.325 344.432C615.812 331.276 605.894 314.745 590.921 324.207Z" fill="#2862E9"></path><path d="M408.403 326.508C435.631 364.455 442.104 338.49 431.848 331.276C456.501 319.193 426.074 312.835 408.403 326.508Z" fill="#2862E9"></path><path d="M537.768 345.167C560.061 310.244 537.601 308.629 533.58 324.014C514.951 307.043 506.427 327.804 537.768 345.167Z" fill="#2862E9"></path><path d="M426.265 361.674C421.453 345.999 405.419 354.811 422.439 379.965C454.96 357.637 432.933 354.827 426.265 361.674Z" fill="#2862E9"></path><path d="M617.016 318.225C616.352 315.12 612.403 315.629 613.042 318.738C615.717 331.801 614.699 345.367 610.106 357.867C609.287 337.937 595.928 355.934 595.375 374.984C588.66 378.165 583.796 379.138 579.48 380.979C577.191 381.952 578.105 384.426 580.37 384.329C587.162 383.525 593.749 381.452 599.798 378.213C619.126 367.75 621.149 337.602 617.016 318.225Z" fill="#2862E9"></path><path d="M553.139 362.554C562.144 350.524 539.998 338.712 533.04 375.516C566.825 379.331 570.774 361.771 553.139 362.554Z" fill="#2862E9"></path><path d="M561.817 383.122C559.854 382.315 537.744 384.333 520.582 381.604C529.972 343.992 504.647 310.151 466.035 320.982C465.645 321.148 465.326 321.449 465.135 321.832C464.944 322.214 464.893 322.654 464.991 323.071C465.09 323.489 465.331 323.857 465.672 324.11C466.013 324.363 466.432 324.485 466.853 324.454C507.993 316.921 522.68 348.913 515.456 381.334C514.494 385.641 517.045 385.665 520.51 386.226C529.841 387.736 558.785 388.394 561.793 387.106C562.184 386.947 562.519 386.674 562.756 386.32C562.993 385.967 563.121 385.55 563.123 385.122C563.126 384.695 563.003 384.276 562.77 383.92C562.538 383.564 562.206 383.286 561.817 383.122Z" fill="#2862E9"></path><path d="M153.454 289.159C159.157 291.468 406.647 288.23 415.322 287.766C423.997 287.302 422.542 274.804 415.322 273.875C408.102 272.947 337.978 274.804 334.103 273.165C330.229 271.526 318.431 139.139 313.182 131.497C307.932 123.855 142.515 127.133 135.048 131.497C126.687 136.354 145.94 286.095 153.454 289.159ZM217.606 189.532C226.583 187.76 234.621 197.359 236.167 209.244C237.316 218.073 233.032 227.737 223.555 228.807C204.739 230.93 198.635 193.282 217.606 189.532Z" fill="#111111"></path><path d="M293.29 350.621C288.798 352.453 283.847 352.778 279.16 351.549C274.809 350.978 270.391 351.293 266.162 352.478C264.115 352.942 257.714 333.944 254.968 338.05C245.828 351.723 256.43 369.59 246.182 380.09C235.224 391.269 221.696 399.496 206.822 404.029C206.822 422.006 207.402 456.105 207.184 473.799C212.119 473.484 216.55 473.141 219.991 472.822C219.594 467.07 219.562 461.301 219.653 455.532C219.653 455.189 219.788 454.859 220.027 454.616C220.266 454.373 220.591 454.236 220.929 454.236C221.267 454.236 221.592 454.373 221.831 454.616C222.07 454.859 222.205 455.189 222.205 455.532C223.556 476.637 225.145 510.031 230.971 527.139C236.697 526.965 244.521 526.231 249.337 526.259C235.373 510.067 261.079 458.394 267.076 446.582C274.576 431.727 280.17 415.955 283.722 399.653C286.157 388.604 298.309 377.079 299.219 367.592C300.129 358.105 296.072 348.764 293.29 350.621ZM278.512 361.282C277.423 363.898 271.455 362.849 272.42 359.619C273.263 356.805 279.517 358.86 278.512 361.282Z" fill="#111111"></path><path d="M285.155 534.353C288.203 527.631 279.516 525.068 277.235 521.685C268.529 508.71 267.75 471.405 269.435 449.469C266.089 456.412 256.437 482.14 252.92 492.486C255.523 511.169 258.674 520.365 264.019 528.851C269.363 537.336 283.045 539.003 285.155 534.353Z" fill="#111111"></path><path d="M116.141 482.652C106.127 466.242 104.733 449.32 98.2595 433.035C95.5654 457.365 77.7512 477.885 75.057 484.538C71.8065 492.559 65.7267 513.224 65.9175 520.365C66.144 528.31 68.3335 533.061 74.5841 536.481C82.9727 541.075 81.8362 531.083 78.844 524.079C77.175 520.184 83.6124 508.46 87.3636 499.967C90.8088 492.175 104.033 488.034 116.141 482.652Z" fill="#111111"></path><path d="M121.1 483.556C126.389 494.25 131.789 509.922 144.692 527.773C150.494 527.014 156.104 527.139 163.396 526.699C156.946 519.373 152.578 510.403 150.76 500.75C149.886 491.142 161.302 472.919 162.796 457.341C162.786 456.993 162.909 456.655 163.139 456.398C163.369 456.14 163.688 455.983 164.029 455.959C164.371 455.936 164.708 456.048 164.97 456.271C165.232 456.495 165.399 456.813 165.435 457.159C165.425 463.051 164.658 468.916 163.154 474.607C172.777 475.115 182.42 475.115 192.043 474.607C192.233 456.804 192.233 426.701 192.619 407.594C154.61 414.489 115.557 402.988 102.59 392.92C65.7143 364.282 62.75 323.735 61.8598 306.469C60.9697 289.203 52.4819 279.252 51.2898 304.414C47.7134 380.228 85.4637 400.061 95.8987 420.161C107.426 438.561 109.505 460.114 121.1 483.556Z" fill="#111111"></path><path d="M75.6526 299.118C278.88 301.855 486.59 299.679 688.173 299.703C691.352 299.703 691.904 294.052 688.701 294.052C486.785 294.052 275.503 294.419 75.5572 294.516C73.2445 294.52 73.3439 299.086 75.6526 299.118Z" fill="#111111"></path><path d="M752.039 542.471C502.816 542.826 250.708 544.918 2.23119 544.918C-1.03918 544.918 -0.550412 549.641 2.62856 549.661C252.524 551.276 503.317 546.528 752.469 547.852C756.132 547.869 755.671 542.467 752.039 542.471Z" fill="#111111"></path><path d="M476.363 61.4368C475.811 65.1899 475.449 68.9694 475.278 72.7603C475.676 78.5815 483.54 75.2148 484.418 74.7182C484.648 74.5795 484.831 74.372 484.941 74.124C485.052 73.876 485.084 73.5996 485.034 73.3322C484.984 73.0649 484.854 72.8196 484.662 72.6299C484.47 72.4402 484.225 72.3151 483.961 72.2718C481.243 71.8681 478.35 74.9362 478.35 71.3433C478.35 68.5538 478.819 64.4806 478.747 61.8283C478.656 59.7009 476.447 60.1167 476.363 61.4368Z" fill="#111111"></path><path d="M494.487 52.4627C493.493 51.1128 492.116 50.1052 490.54 49.5761C488.965 49.0469 487.267 49.0216 485.677 49.5037C483.583 50.3595 482.781 53.7949 486.305 53.4397C488.336 53.2634 490.37 53.7529 492.107 54.8365C493.959 55.7165 495.596 54.4933 494.487 52.4627Z" fill="#111111"></path><path d="M487.509 67.3547C490.565 67.7866 489.603 60.0196 487.362 60.4112C485.121 60.8028 485.748 67.1286 487.509 67.3547Z" fill="#111111"></path><path d="M470.753 62.7568C468.897 63.0919 468.901 69.2885 471.524 68.897C474.146 68.5054 472.871 62.3814 470.753 62.7568Z" fill="#111111"></path><path d="M461.123 50.3107C460.07 57.3027 463.793 72.9174 465.494 77.7254C465.562 77.954 465.676 78.1659 465.828 78.3478C465.981 78.5297 466.169 78.6777 466.38 78.7825C466.591 78.8873 466.822 78.9466 467.056 78.9568C467.291 78.967 467.526 78.9279 467.745 78.8418C467.965 78.7558 468.164 78.6246 468.331 78.4566C468.498 78.2886 468.63 78.0874 468.717 77.8655C468.804 77.6436 468.845 77.4059 468.837 77.1671C468.83 76.9284 468.774 76.6938 468.673 76.478C466.173 67.9527 464.465 59.2082 463.571 50.3592C463.372 48.5991 461.409 48.4255 461.123 50.3107Z" fill="#111111"></path><path d="M471.233 51.5825C470.043 51.7213 468.918 52.2056 467.992 52.9774C467.066 53.7492 466.378 54.7758 466.012 55.9343C465.745 57.0364 466.659 59.7008 468.249 57.8196C469.471 56.602 470.897 55.6163 472.461 54.909C474.678 53.7342 473.327 51.4614 471.233 51.5825Z" fill="#111111"></path><path d="M530.644 100.102C529.246 96.36 526.452 86.9702 525.014 81.0521C523.877 76.3813 521.306 78.6057 521.62 82.5417C522.574 88.8685 524.187 95.0744 526.432 101.055C529.262 108.685 533.887 108.761 530.644 100.102Z" fill="#111111"></path><path d="M458.962 45.834C471.678 48.2279 497.138 32.6252 503.865 43.0727C508.713 50.5814 509.114 73.2971 508.077 77.9436C507.04 82.5901 502.276 77.9436 495.198 76.3288C488.121 74.7141 468.527 79.4373 466.699 81.6374C464.871 83.8375 464.291 97.5105 467.37 106.388C468.993 110.533 471.771 114.108 475.362 116.674C478.954 119.241 483.204 120.689 487.593 120.84C519.823 118.967 523.821 109.197 519.414 77.0878C531.451 75.5497 538.166 52.6322 525.12 48.0866C526.145 45.3011 526.468 42.2992 526.058 39.3547C524.866 34.1471 533.469 42.6327 532.055 38.3253C528.136 26.4003 515.44 20.1108 513.036 18.3709C509.23 15.6137 535.329 18.9764 522.784 13.0664C511.57 7.77801 495.858 9.69554 497.149 8.78723C503.98 3.97523 531.574 1.52078 501.819 0.103825C447.041 -2.49191 451.523 44.4332 458.962 45.834ZM492.663 88.1409C489.882 89.8808 480.345 91.7135 479.88 86.8934C479.586 83.6922 482.101 86.7198 487.922 83.0543C495.433 78.3231 497.189 85.3796 492.735 88.1409H492.663ZM523.042 51.853C531.081 53.1489 527.687 70.5601 518.735 72.736C517.543 65.1789 516.327 58.526 515.699 55.1027C518.083 52.8784 519.672 51.3121 523.114 51.8732L523.042 51.853Z" fill="#111111"></path><path d="M393.17 133.653C393.403 133.892 393.692 134.065 394.011 134.157C394.329 134.249 394.665 134.256 394.987 134.177C395.308 134.098 395.605 133.937 395.847 133.708C396.089 133.479 396.269 133.19 396.369 132.87C397.068 130.133 395.344 127.137 396.826 120.642C399.17 110.38 405.568 110.146 401.861 98.6328C400.394 94.0832 399.794 89.4125 398.586 84.7902C397.915 82.2227 392.053 81.9644 397.164 98.9517C399.456 106.581 399.186 104.761 395.65 110.957C392.514 116.448 389.486 128.74 393.17 133.653Z" fill="#111111"></path><path d="M373.129 91.2493C378.33 90.8254 380.003 99.4241 381.919 103.086C382.801 104.777 386.743 104.914 383.747 96.1622C381.362 89.1663 377.873 86.3889 373.709 86.9702C370.152 87.4627 368.686 91.6086 373.129 91.2493Z" fill="#111111"></path><path d="M372.756 106.828C374.151 112.693 379.006 111.155 376.364 103.013C371.973 89.4649 360.469 92.3553 361.92 96.1137C363.06 99.0808 369.7 93.9862 372.756 106.828Z" fill="#111111"></path><path d="M361.704 138.154C361.817 138.513 362.053 138.819 362.368 139.018C362.684 139.217 363.058 139.296 363.425 139.24C363.793 139.184 364.128 138.998 364.373 138.714C364.617 138.43 364.754 138.067 364.759 137.69C365.649 128.809 357.634 123.541 358.044 103.82C358.084 101.983 359.454 102.633 361.004 104.038C364.222 106.865 366.336 110.769 366.965 115.043C367.025 115.235 367.122 115.414 367.251 115.568C367.379 115.722 367.536 115.849 367.713 115.942C367.89 116.035 368.083 116.091 368.281 116.108C368.479 116.125 368.679 116.102 368.868 116.04C371.086 115.321 371.117 107.373 364.497 101.325C359.156 96.4569 354.026 97.6317 353.589 103.453C352.655 115.967 354.718 120.137 358.815 130.06C359.856 132.636 360.595 135.462 361.704 138.154Z" fill="#111111"></path><path d="M386.811 90.5873C386.192 80.1465 386.192 69.6774 386.811 59.2366C386.749 58.9178 386.589 58.6275 386.353 58.4084C386.117 58.1894 385.818 58.0533 385.5 58.0203C385.182 57.9873 384.861 58.059 384.587 58.225C384.312 58.3909 384.097 58.6423 383.973 58.9419C382.007 69.7577 381.633 80.8104 382.865 91.7378C384.001 95.4679 387.355 95.262 386.811 90.5873Z" fill="#111111"></path><path d="M496.799 288.675C499.207 288.356 499.207 284.517 496.799 284.517C493.364 284.526 489.941 284.091 486.615 283.221C480.185 281.529 479.394 284.908 484.211 286.745C488.284 288.043 492.53 288.693 496.799 288.675Z" fill="#111111"></path><path d="M472.583 277.718C472.713 277.439 472.761 277.127 472.719 276.821C472.678 276.515 472.55 276.228 472.351 275.994C472.151 275.761 471.889 275.592 471.597 275.507C471.304 275.423 470.994 275.426 470.703 275.518C468.164 276.273 459.943 283.051 461.29 287.746C462.76 292.857 468.518 291.678 466.106 288.602C462.839 284.44 471.184 281.19 472.583 277.718Z" fill="#111111"></path><path d="M478.89 292.687C481.417 292.542 483.261 290.075 479.971 289.53C478.648 289.312 476.677 289.066 475.977 287.379C475.496 286.228 478.624 283.124 478.842 281.461C479.061 279.797 477.372 278.635 475.266 280.383C474.062 281.369 473.117 282.642 472.512 284.088C471.908 285.534 471.664 287.11 471.801 288.675C472.49 289.954 473.521 291.01 474.776 291.72C476.03 292.43 477.456 292.765 478.89 292.687Z" fill="#111111"></path><path d="M432.139 289.114C430.494 290.697 431.925 292.469 434.718 291.169C439.137 288.151 442.877 284.218 445.694 279.628C449.596 274.323 451.205 271.433 458.012 269.354C466.556 266.738 482.077 265.656 489.762 259.306C491.3 258.03 489.762 255.81 488.03 256.149C485.622 256.621 477.412 260.234 470.625 261.898C458.732 264.808 451.694 263.633 443.449 275.421C440.125 280.348 436.338 284.934 432.139 289.114Z" fill="#111111"></path><path d="M479.466 255.564C479.677 251.822 475.27 254.583 466.611 248.616C464.505 247.167 462.32 244.551 460.834 246.319C457.372 250.461 479.089 262.318 479.466 255.564Z" fill="#111111"></path><path d="M452.552 286.668C459.157 279.216 459.773 278.449 466.46 274.832C469.588 273.145 468.626 270.436 465.066 271.017C456.113 272.478 451.873 283.047 445.519 288.432C443.862 289.857 445.964 294.108 452.552 286.668Z" fill="#111111"></path><path d="M456.07 255.414C449.335 236.096 444.08 216.277 440.35 196.136C440.016 194.227 437.294 195.256 437.341 196.944C437.667 208.78 447.276 243.546 451.544 256.811C453.82 263.896 458.565 262.867 456.07 255.414Z" fill="#111111"></path><path d="M486.857 124.824C485.824 123.871 483.078 123.702 484.449 127.271C486.367 130.948 489.418 133.886 493.135 135.635C489.38 139.682 486.247 144.282 483.845 149.28C477.662 143.345 473.341 135.689 471.423 127.271C470.99 125.704 469.209 125.753 469.015 127.271C468.582 135.316 476.219 149.97 482.35 153.951C483.984 155.012 485.577 153.951 487.167 151.504C490.002 146.519 493.351 141.855 497.157 137.589C500.458 141.567 503.399 145.841 505.942 150.358C508.887 153.821 531.128 141.727 544.579 124.63C548.31 119.887 548.191 113.997 543.784 119.738C534.825 131.815 522.742 141.129 508.879 146.64C506.433 142.543 503.595 138.702 500.407 135.171C511.287 131.893 531.7 118.466 538.249 109.468C545.588 113.505 556.198 117.336 566.22 121.579C589.478 131.404 590.96 133.806 601.101 156.865C611.615 180.784 628.404 225.561 628.011 249.31C627.737 266.161 622.571 272.676 606.203 276.761C581.671 282.231 556.687 285.34 531.581 286.046C532.652 273.56 529.372 261.088 522.314 250.808C522.029 250.517 521.654 250.334 521.252 250.291C520.849 250.247 520.445 250.346 520.106 250.57C519.767 250.794 519.514 251.13 519.39 251.521C519.266 251.912 519.279 252.335 519.425 252.718C526.407 267.392 527.802 274.347 527.011 286.256H506.884C506.272 274.702 502.973 263.46 497.256 253.452C525.44 242.621 554.415 234.043 583.915 227.798C585.747 227.394 584.856 224.229 583.096 224.253C578.563 224.574 574.076 225.386 569.713 226.676C569.498 220.858 555.058 187.344 550.865 181.313C549.896 179.924 547.436 180.852 548.084 182.584C551.263 191.26 560.577 209.951 565.346 227.705C544.772 232.632 524.487 238.731 504.587 245.972C492.722 250.283 490.85 250.348 496.763 262.774C499.875 269.551 501.672 276.874 502.056 284.343C502.41 289.752 503.137 290.229 508.148 290.628C532.701 292.578 575.701 287.778 604.006 281.63C604.403 283.39 605.373 289.563 607.375 290.14C612.494 291.609 608.723 282.534 608.123 280.625C630.173 274.852 635.259 261.332 632.191 239.045C628.83 214.589 614.822 175.98 605.015 154.209C594.238 130.274 591.822 127.367 568.211 117.525C535.483 103.885 537.804 103.752 534.001 107.574C523.538 118.478 510.783 126.837 496.692 132.026C493.161 130.003 489.863 127.587 486.857 124.824Z" fill="#111111"></path><path d="M358.673 150.774C365.185 191.182 376.93 230.537 393.602 267.816C395.644 272.168 399.511 269.116 398.052 266.104C380.867 228.291 368.88 188.258 362.428 147.128C369.457 148.154 392.855 146.785 398.895 143.657C400.774 148.4 402.678 153.143 404.553 157.862C392.517 165.496 377.453 161.423 372.704 163.514C371.309 164.128 370.153 166.869 377.52 167.377C387.349 168.573 397.309 166.875 406.214 162.485C413.025 180.51 423.333 212.542 427.879 231.084C428.276 232.747 431.149 232.109 431.177 230.325C431.3 222.99 422.32 194.57 420.007 187.356C422.884 174.336 426.873 161.596 431.928 149.28C436.975 137.407 440.71 135.066 451.932 128.349C457.495 125.018 463.511 122.455 469.07 119.128C469.505 118.901 469.832 118.508 469.981 118.036C470.13 117.564 470.089 117.05 469.865 116.609C469.642 116.168 469.255 115.835 468.79 115.684C468.325 115.532 467.82 115.575 467.386 115.802C460.852 118.639 454.507 121.907 448.391 125.583C437.34 132.232 432.858 135.575 427.593 147.593C423.117 157.915 419.807 168.72 417.726 179.799C413.565 166.802 408.62 154.078 402.92 141.699C400.536 137.23 397.814 139.894 390.403 141.186C383.583 142.418 376.666 143.007 369.74 142.946C360.413 142.813 357.29 140.556 358.673 150.774Z" fill="#111111"></path><path d="M488.974 537.025C538.538 537.025 613.379 537.635 660.007 537.393C662.176 537.393 662.753 533.384 660.368 533.332C632.131 532.726 603.342 532.157 575.708 531.842C574.19 462.266 573.3 385.891 573.638 309.86C599.515 309.86 624.982 309.715 628.69 309.715C632.397 309.715 631.698 304.406 628.328 304.406C621.108 304.406 523.303 303.958 515.717 304.971C513.48 305.27 512.904 308.895 515.431 309.226C519.258 309.723 543.978 309.884 569.398 309.884C567.014 380.805 568.893 465.346 570.797 531.794C541.356 531.475 513.313 531.947 488.783 531.794C485.362 531.777 485.584 537.025 488.974 537.025Z" fill="#111111"></path><path d="M116.14 537.385C156.175 537.934 220.808 537.005 260.096 537.017C262.933 537.017 263.128 531.673 260.263 531.66C254.918 531.66 229.618 531.418 201.551 531.442C202.128 462.282 202.97 380.381 204.44 310.49C223.117 310.49 241.726 310.333 251.644 309.755C254.195 309.606 253.329 305.254 251.247 305.182C230.377 304.451 160.28 304.624 149.881 305.718C147.787 305.94 147.473 309.352 149.734 309.586C152.961 309.913 175.225 310.341 198.817 310.466C196.942 377.131 197.399 458.467 197.351 531.442C162.156 531.442 124 531.919 115.842 533.324C113.855 533.663 114.312 537.361 116.14 537.385Z" fill="#111111"></path><path d="M438.569 393.247C428.77 392.863 407.539 393.247 403.998 393.247C401.395 393.247 401.972 397.284 404.237 397.623C409.625 398.474 431.484 397.925 438.411 397.768C444.033 397.643 446.97 393.574 438.569 393.247Z" fill="#111111"></path><path d="M638.634 305.23C638.872 303.276 635.367 302.783 635.021 304.523C629.764 330.937 618.511 379.747 616.631 391.483C608.545 391.777 582.592 392.229 578.114 393.073C576.067 393.477 575.467 396.706 577.875 397.062C582.449 397.716 616.389 396.791 616.389 396.791C617.378 410.412 630.754 507.467 635.021 525.108C635.896 528.742 640.187 528.189 639.667 522.856C639.146 517.523 623.009 413.936 621.062 400.021C620.183 395.994 620.183 391.82 621.062 387.793C625.214 367.564 636.293 324.522 638.634 305.23Z" fill="#111111"></path><path d="M559.124 397.671C562.323 397.816 563.07 392.766 559.843 392.609C545.267 391.656 530.652 391.476 516.057 392.072C515.537 392.156 515.064 392.426 514.722 392.833C514.381 393.24 514.193 393.757 514.193 394.292C514.193 394.827 514.381 395.344 514.722 395.751C515.064 396.158 515.537 396.428 516.057 396.513C529.587 397.695 545.041 397.029 559.124 397.671Z" fill="#111111"></path><path d="M608.855 144.391C622.763 144.314 653.794 144.46 664.344 145.199C668.628 145.497 668.346 147.084 667.785 149.7C658.745 192.027 646.578 246.089 638.9 288.19C638.451 290.636 642.274 291.763 642.751 289.191C650.738 246.239 667.352 176.307 672.359 151.092C673.551 145.15 672.84 140.193 666.077 140.193C653.897 140.193 623.931 139.838 608.831 140.802C607.146 140.928 607.099 144.399 608.855 144.391Z" fill="#111111"></path><path d="M347.888 468.249C346.854 472.489 346.779 476.913 347.67 481.187C347.975 482.826 350.697 483.117 351.015 481.356C351.846 477.092 351.846 472.703 351.015 468.438C350.873 468.15 350.659 467.904 350.394 467.726C350.129 467.549 349.823 467.445 349.506 467.426C349.189 467.406 348.872 467.472 348.588 467.617C348.304 467.761 348.063 467.979 347.888 468.249Z" fill="#111111"></path><path d="M298.61 537.554C318.685 538.531 337.97 538.39 357.878 537.704C379.014 536.973 378.664 524.35 380.266 505.275C383.773 464.478 389.307 423.888 396.848 383.659C397.349 380.918 393.379 380.575 392.735 383.122C386.377 408.151 379.137 468.321 376.701 494.735C374.874 514.544 379.447 531.224 357.707 532.682C346.275 533.441 336.646 533.683 325.305 533.538C325.162 530.187 327.896 528.463 326.366 527.054C323.724 524.632 321.093 530.308 321.55 533.489H317.819C317.338 531.434 318.9 528.596 318.494 527.131C317.596 523.877 312.741 527.535 314.088 533.412L308.842 533.243C308.73 531.376 309.22 529.522 310.237 527.963C310.865 527.252 310.718 524.782 308.024 525.98C306.931 526.795 306.058 527.877 305.486 529.125C304.914 530.373 304.66 531.748 304.749 533.122L301.451 532.972C301.162 532.174 301.055 531.319 301.139 530.472C301.222 529.625 301.493 528.809 301.932 528.084C303.704 525.165 300.199 524.047 298.105 527.47C297.094 529.099 296.684 531.041 296.949 532.948C294.688 532.948 293.77 532.948 293.412 530.526C291.93 520.894 321.05 510.967 326.343 508.513C342.527 501.024 340.549 486.822 341.339 470.804C343.08 435.614 342.782 400.763 345.261 365.327C347.018 340.299 346.231 330.549 378.072 325.419C381.084 324.934 380.671 320.07 377.615 320.526C357.016 323.626 343.751 328.571 341.506 351.243C337.839 388.338 337.803 432.655 336.885 470.122C336.515 485.256 338.379 497.359 324.169 504.032C314.346 508.65 287.5 516.651 289.24 530.542C289.896 535.673 293.675 537.316 298.61 537.554Z" fill="#111111"></path><path d="M369.792 471.381C371.105 468.226 371.634 464.79 371.333 461.378C371.127 458.931 368.85 457.369 367.821 461.208C365.278 470.687 367.757 474.982 369.792 471.381Z" fill="#111111"></path><path d="M375.716 428.877C377.364 423.487 377.961 417.822 377.472 412.2C377.182 410.658 374.691 410.182 374.341 411.833C373.151 417.308 372.458 422.882 372.271 428.485C372.207 430.346 375.116 430.516 375.716 428.877Z" fill="#111111"></path><path d="M370.709 400.311C371.146 397.284 371.338 394.226 371.286 391.168C371.242 385.762 367.344 385.395 366.954 394.397C366.477 405.374 370.503 401.635 370.709 400.311Z" fill="#111111"></path><path d="M358.673 444.984C358.546 446.696 357.445 452.775 360.14 452.884C363.438 453.017 363.199 441.242 362.766 439.09C362.595 437.851 359.349 435.723 358.673 444.984Z" fill="#111111"></path><path d="M355.517 389.945C356.395 385.707 356.558 381.348 355.998 377.055C355.6 375.174 351.416 373.825 351.956 386.521C352.274 394.05 355.06 391.386 355.517 389.945Z" fill="#111111"></path><path d="M371.937 348.905C371.87 348.573 371.699 348.271 371.45 348.045C371.201 347.819 370.887 347.68 370.554 347.65C370.221 347.62 369.888 347.699 369.603 347.876C369.318 348.054 369.097 348.32 368.973 348.635C368.168 352.715 367.697 356.857 367.566 361.016C367.351 362.974 370.526 363.757 370.96 361.775C372.213 357.61 372.547 353.216 371.937 348.905Z" fill="#111111"></path><path d="M388.162 377.567C388.984 374.368 389.46 371.086 389.581 367.782C389.736 364.149 386.839 363.652 385.778 367.491C384.902 370.67 384.592 373.983 384.864 377.273C384.903 377.669 385.077 378.04 385.356 378.32C385.635 378.601 386.002 378.773 386.393 378.808C386.784 378.843 387.175 378.738 387.498 378.512C387.821 378.285 388.056 377.951 388.162 377.567Z" fill="#111111"></path><path d="M353.659 432.348C354.207 426.793 356.043 415.482 352.252 416.285C352 416.34 351.765 416.455 351.565 416.619C351.366 416.784 351.208 416.995 351.103 417.234C350.074 422.052 349.823 427.008 350.36 431.908C350.38 434.108 353.424 434.548 353.659 432.348Z" fill="#111111"></path><path d="M477.709 394.785C478.05 392.092 476.89 379.788 474.192 379.966C470.703 380.2 473.794 392.783 474.553 395.374C475.058 397.062 477.506 396.4 477.709 394.785Z" fill="#111111"></path><path d="M492.659 413.395C493.08 415.01 497.71 417.945 496.029 406.5C494.558 396.497 491.232 398.749 491.213 400.828C491.138 405.064 491.624 409.291 492.659 413.395Z" fill="#111111"></path><path d="M492.897 435.921C492.666 441.141 493.562 446.35 495.524 451.18C495.733 451.507 496.039 451.758 496.398 451.896C496.756 452.034 497.149 452.053 497.519 451.949C497.889 451.846 498.216 451.626 498.455 451.321C498.694 451.016 498.83 450.641 498.846 450.252C498.318 445.274 497.319 440.36 495.861 435.578C495.699 435.304 495.463 435.084 495.181 434.944C494.899 434.803 494.583 434.747 494.271 434.783C493.959 434.819 493.663 434.946 493.42 435.147C493.176 435.349 492.995 435.617 492.897 435.921Z" fill="#111111"></path><path d="M496.315 381.923C496.315 379.134 496.601 364.363 493.279 364.803C489.957 365.243 492.703 379.836 493.064 382.339C493.118 382.777 493.342 383.175 493.685 383.446C494.028 383.716 494.463 383.837 494.894 383.782C495.325 383.727 495.717 383.5 495.983 383.152C496.25 382.803 496.369 382.361 496.315 381.923Z" fill="#111111"></path><path d="M506.766 369.816C501.366 406.859 518.54 476.302 519.427 522.686C519.621 532.884 523.988 525.326 523.857 521.39C523.647 515.081 521.843 493.512 521.235 487.153C517.464 447.729 510.506 416.402 510.136 369.768C510.063 369.364 509.852 369 509.54 368.739C509.228 368.478 508.835 368.339 508.431 368.344C508.027 368.35 507.638 368.501 507.333 368.771C507.029 369.04 506.828 369.411 506.766 369.816Z" fill="#111111"></path><path d="M505.706 487.816C505.34 481.704 504.248 475.66 502.455 469.815C501.784 468.2 499.495 469.032 499.399 470.55C499.66 476.529 500.622 482.455 502.264 488.203C502.785 490.06 505.853 489.87 505.706 487.816Z" fill="#111111"></path><path d="M446.151 537.288C452.386 537.906 475.783 538.967 480.671 537.018C482.765 536.182 482.332 533.449 475.64 533.348C474.098 530.522 476.745 526.312 473.931 525.892C470.681 525.407 470.681 531.443 471.523 533.473C469.838 533.473 468.106 533.594 466.325 533.473C465.133 530.413 467.792 524.511 465.555 524.766C462.399 525.121 461.267 531.124 462.856 533.397C461.026 533.514 459.189 533.457 457.369 533.227C457.042 531.022 457.116 528.776 457.587 526.598C458.481 522.376 455.056 523.615 454.011 525.452C452.892 527.818 452.603 530.502 453.192 533.057C451.818 533.123 450.44 533.065 449.076 532.884C448.388 530.609 448.542 528.157 449.509 525.989C450.665 522.565 447.454 523.005 446.067 525.084C445.345 526.188 444.875 527.441 444.691 528.753C444.508 530.065 444.615 531.402 445.006 532.666C439.133 531.98 439.988 526.296 443.202 523.005C450.399 515.642 462.471 514.048 470.502 510.087C479.49 505.647 478.314 497.541 476.204 488.078C468.026 451.383 458.966 414.715 450.856 378.032C445.726 354.824 439.904 336.452 467.975 330.271C468.423 330.013 468.778 329.615 468.988 329.137C469.198 328.659 469.252 328.125 469.141 327.613C469.03 327.102 468.761 326.64 468.373 326.295C467.985 325.95 467.499 325.741 466.985 325.697C435.064 331.712 440.929 353.956 446.548 379.497C452.413 406.181 469.596 481.667 471.559 489.107C473.991 498.344 473.967 502.999 467.947 505.76C457.985 510.334 443.838 513.071 438.315 521.851C433.479 529.537 437.413 536.416 446.151 537.288Z" fill="#111111"></path><path d="M461.822 401.167C463.169 406.891 466.638 404.934 464.878 397.183C462.331 385.956 459.581 391.656 461.822 401.167Z" fill="#111111"></path><path d="M464.302 356.123C463.547 353.516 457.754 353.822 462.494 366.93C463.265 369.058 465.84 368.141 465.769 365.929C465.688 362.611 465.195 359.316 464.302 356.123Z" fill="#111111"></path><path d="M486.857 468.543C486.04 463.486 484.593 458.555 482.55 453.869C482.401 453.517 482.13 453.233 481.789 453.07C481.447 452.907 481.059 452.877 480.697 452.986C480.336 453.094 480.026 453.333 479.826 453.658C479.626 453.983 479.55 454.371 479.613 454.749C480.288 459.818 481.681 464.76 483.75 469.423C483.916 469.777 484.199 470.06 484.55 470.222C484.901 470.385 485.297 470.416 485.668 470.311C486.039 470.206 486.362 469.971 486.58 469.647C486.798 469.324 486.896 468.933 486.857 468.543Z" fill="#111111"></path><path d="M471.065 419.192C471.562 423.527 472.69 427.764 474.411 431.763C474.556 432.206 474.864 432.576 475.271 432.793C475.679 433.011 476.153 433.06 476.595 432.93C477.037 432.8 477.412 432.501 477.642 432.096C477.872 431.691 477.939 431.211 477.828 430.758C477.236 426.443 476.02 422.241 474.22 418.288C474.049 417.93 473.76 417.645 473.404 417.483C473.047 417.32 472.646 417.29 472.27 417.398C471.893 417.505 471.566 417.744 471.346 418.072C471.126 418.4 471.026 418.797 471.065 419.192Z" fill="#111111"></path></svg>