<svg xmlns="http://www.w3.org/2000/svg" fill="none" viewBox="0 0 400 400" id="Hiring-6--Streamline-Brooklyn.svg" height="400" width="400"><desc>Hiring 6 Streamline Illustration: https://streamlinehq.com</desc><g id="hiring-6--work-hiring-hr-job-office-company"><g id="Group"><path id="Vector" fill="#191919" d="M35.1932 326.76c-0.6 1 -1.2004 1.6 -2.4004 1.2 -4 -1 -7.5998 -2.6 -10.7998 -5.4 -4.6 -4 -1.6002 -8.4 2.3998 -22.4 3 -10.4 0 -0.4 18 -71.4 4.2 -16.2 4.4 -16.4 7 -16 12 1.6 35.2002 2.2 53.6002 -2.6 4.2 -1 5.8 -2.4 5.6 0.2 -3 40 -4.4002 40.8 -6.2002 63.8 -1.2 15.2 -1.1998 40.8 -3.7998 57 -0.8 5.2 -10.3998 3 -15.3998 1.6 -2.6 -0.6 -7 -64 -9 -78.8 0.6 -3 2.7996 -6.2 7.5996 -23.2 0.6 -1.8 -0.3996 -1.4 -0.5996 -0.6 -2.6 4.6 -9.6 34.2 -46 96.6Z" stroke-width="1"></path><path id="Vector_2" fill="#191919" d="M76.5934 101.9594c-5.8 -5.8 -3.1998 -9.0002 -6.3998 -8.2002 -2.2 0.6 -3.6002 0.2 -5.6002 -1 1.2 0 2 -0.1996 3 -0.1996 14.4 -0.4 11.4002 -17.2002 5.6002 -28.2002 -2.2 -4.4 -11.2 -4.8 -18 2 -2.6 2.6 -2.4 5.6 -2 10 0.2 2.4 -1.6004 -0.0002 -3.8004 2.3998 -2.2 2.2 -1.6 5.2 2 5 4.8 -0.4 4.0002 -0.2 5.6002 4 1.8 4.4 3.1998 8.8004 4.3998 13.4004 0.8 2.8 -1.1998 1.5998 -8.3998 5.7998 -1.6 1 -1.2002 0.4002 5.3998 14.2002 2.4 -2.4 4.2004 -5.2002 7.8004 -6.2002 -0.4 1.2 -1.0002 1.6002 -1.6002 2.2002 -5.6 6 -6.4 7.4 -8 4.4 -6.4 -12.4 -5.0002 -14.0002 -7.2002 -12.2002 -22.4 17.6 -32.39974 49.0002 -9.7998 67.8002 11.8 9.8 25.3998 12.8 40.1998 9 26.2 -6.4 37.8 -14.2004 50.6 -26.4004 1.4 -1.2 -2.3998 -6.4 -4.3998 -14 -0.2 -0.8 -0.6 -1 -1.4 -1 -10.6 1.2 -21.8002 1.0002 -55.2002 8.6002 -22.8 5.2 -22.2 5.4 -23 4.6 1 -1.6 25.6 -6.9998 29 -7.7998 1.2 -0.2 1.4 -0.6002 1 -1.8002 -4 -13.6 -4.3998 -15.8 -2.3998 -20 1.6 -3.6 1.3998 -3.4 4.7998 -1.4 4.2 2.4 6.8004 5.8002 7.4004 10.6002 0.4 2.8 1.3996 5.8 2.1996 8.6 0.8 3.4 9.8004 -2.6002 31.8004 -2.8002 3.4 0 6.2 -0.2 7 1.6 6 14.8 5.3998 13.8 4.3998 15.4 -8.6 12.6 -27.4 21 -42 25.6 -18.4 5.8 -34.6 6.8 -51 -6.6 -31.19994 -25.4 -3.4002 -69.2 19.7998 -77 1.8 -0.6 2 -0.4 -3.6 -16 -0.6 -1.4 -1.1998 -1 -3.7998 -1 -4.4 0 -5.4 -3.6 -3.4 -6.4 1.8 -2.4 -5.4002 -11.4002 -6.8002 -21.2002 -0.4 -2.6 0.4002 -6.2 3.2002 -6 2.4 0.2 1.1998 -4.9998 6.7998 -3.7998 1.8 0.4 2.2 -5 6.6 -1.6 0.6 0.4 0.8002 0.2002 1.2002 -0.1998 7.6 -7.4 16.3998 4.4 15.1998 16.4 -0.2 2.2 5.8004 7.9998 5.4004 20.7998 -0.2 8.8 -6.6004 8.6002 -5.8004 10.8002 2.2 6.2 3.6002 6.1998 3.2002 7.7998Zm-6.6 -47.2002c0.2 -6.2 -8.1998 -10.1998 -8.7998 -7.3998 -0.2 1.6 2.1998 0.6 6.3998 5 0.6 0.6 1.4 1.3998 2.4 2.3998Zm-13.2002 -4c0.4 -3.2 -3 -3.9998 -3.4 -2.7998 -0.2 1 0.8 0.5998 3.4 2.7998Z" stroke-width="1"></path><path id="Vector_3" fill="#191919" d="M116.3928 85.5598s15 -6.8002 26 -19.2002c-0.8 -0.6 -0.3998 -0.6 -2.3998 1.6 -9.4 10 -26.6 17 -26 17 -7.8 1.2 -20.8002 5.5998 -33.2002 12.7998 -3 1.6 -0.8 3.2004 -5.4 13.8004 -1.8 4.2 -3.7998 1.9998 -13.3998 -4.2002 -5.2 -3.4 0.7998 3.4 5.3998 5.6 2 1 2.6004 2 1.8004 4 -1.4 3.6 2.3996 4.5998 5.5996 6.7998 2.4 1.6 2.8 -0.9996 5 -5.1996 0.8 -1.6 0.8004 -3.2 -1.5996 -5 -2.2 -1.6 -0.2004 -1.8 1.5996 -8.4 0.6 -1.8 0.0002 -4.2 1.2002 -5.6 1.4 -1.4 3.4002 -1.8002 5.2002 -2.6002 0.8 -0.4 1.5998 -1.0002 1.3998 0.7998 -0.8 6.8 0.9998 14.6004 0.7998 16.4004 -2.8 -1.2 -5.3998 -2.4002 -8.3998 -1.8002 2.8 1.4 5.7998 2.6 8.7998 3.6 1 0.4 1.2002 -0.8 1.2002 -1.6 -1.2 -5.8 -1.0002 -11.5998 -1.2002 -17.1998 0 -1 0.4002 -1.6002 1.2002 -1.8002 14.2 -6.6 25.1998 -9.1998 26.3998 -9.7998Z" stroke-width="1"></path><path id="Vector_4" fill="#191919" d="M152.1932 73.3594c-7.8 33.2 -38.0004 37.9998 -39.4004 56.3998 -0.2 2.4 -0.5998 13.0002 1.2002 12.6002 0.8 -0.2 0.1998 -0.3998 0.3998 -10.1998 0.6 -21.2 30.8002 -23.4002 38.2002 -58.8002h-0.3998Z" stroke-width="1"></path><path id="Vector_5" fill="#191919" d="M42.1934 184.1598c2 2.8 0.6 14 0.4 20.0002 -0.2 3.2 -1.0004 3.6 1.1996 3.8 41.4 2 57.8 -1.4 75 -7 1 -0.4 1.4002 -0.8 1.2002 -2.0004 -3.4 -26.8 -0.4002 -27.2002 -0.2002 -20.6002 0.6 19.4 3.4004 21.6002 0.4004 23.2006 -20 10.8 -66.0004 9.4 -77.4004 7.8 -3.6 -0.6 -0.8 -2.6 -1 -23.0006 -0.2 -0.8 0.0004 -1.3996 0.4004 -2.1996Z" stroke-width="1"></path><path id="Vector_6" fill="#191919" d="M80.793 339.758c0.4 3.8 -0.2 12.802 -0.4 12.802 -0.4 4.6 3.4 8.198 8 8.198 2.6 0 7.0002 -1.198 11.6002 2.402 5.2 4.2 10.1998 2.998 14.7998 -0.802 8.8 -7.6 -18 -5.8 -19 -19.4 -0.4 -5.4 -9.8 -0.2 -13.4 -5 4.2 0.8 8 0.2 12 0.8 6.2 1 -1.5996 7.6 11.8004 13 2.6 1 15.4 4.4 11 10 -3.4 4.2 -10.8 7.8 -17 3 -7.8 -6.2 -16.0004 1.6 -20.4004 -8.4 -1 -2.2 -0.7996 -2.198 0.4004 -15.798 -0.2 -0.2 -0.2004 -0.602 0.5996 -0.802Z" stroke-width="1"></path><path id="Vector_7" fill="#191919" d="M20.1932 325.76c5.8 4 13.8 5.2 12 9.2 -3.2 7.6 3.2 12.6 8.4 17.8 2.8 2.8 4.9998 7 1.3998 9 -4.6 2.6 -13.1998 2.8 -16.7998 -4 -1.8 -3.4 -4.4 -5.4 -7.99994 -6.8 -6.8 -2.4 -8.8 -8.6 -6 -13.6 6 -11.2 5.79962 -11 6.59962 -10.8 0 1.8 -3.59992 8.4 -5.39992 11.6 -2.4 4.4 -0.5997 9.6 5.8003 11.6 3.59994 1.2 6.39974 3.6 8.19974 7 3 5.2 9.4 6.8 14.6 4 7.4 -4 -15.2 -12.8 -10.6 -24.8 2 -5.2 -8.5998 -4.2 -10.1998 -10.2Z" stroke-width="1"></path><path id="Vector_8" fill="#191919" d="M154.1936 142.7598c-0.4 2.4 -1.8002 4.0004 -3.2002 5.4004 -5.8 5.4 -13.2002 1.3998 -18.6002 3.7998 -1 0.4 -1.6 -1.6 2 -2.4 7.6 -1.4 11.4004 2.7998 19.8004 -6.8002Z" stroke-width="1"></path><path id="Vector_9" fill="#191919" d="M133.5934 126.959c2.8 0.6 -3.8 4.4 -4.4 14 -0.4 6 -5.6 -4.6 4.4 -14Z" stroke-width="1"></path><path id="Vector_10" fill="#191919" d="M152.1934 59.7596c2.8 2.2 4.1998 5 3.7998 9 -1 -0.8 -1.2002 -1.7996 -1.6002 -2.5996 -2.6 -6.6 -7.4 -5.6002 -9.6 -3.2002 -0.4 0.4 -0.5998 1.4 -1.1998 1 -1.4 -0.8 3.0002 -6.6002 8.6002 -4.2002Z" stroke-width="1"></path><path id="Vector_11" fill="#191919" d="M137.1934 136.96c4 -2.2 6.2 -6.2002 8 -10.2002 2.8 6.2 -9.8002 15.6004 -10.6002 12.4004 -0.2 -0.6 0.2002 -0.6002 2.6002 -2.2002Z" stroke-width="1"></path><path id="Vector_12" fill="#191919" d="M157.1934 56.7588c3 2.8 4.2 7.8 3 9 -1.8 -2 -2.2002 -11.2 -10.6002 -7.4 -0.4 0.2 -0.8002 1 -1.2002 0.4 -0.6 -0.8 2.2004 -4.8 8.8004 -2Z" stroke-width="1"></path><path id="Vector_13" fill="#191919" d="M148.593 131.5596c0.8 1 0.4 1.8 0 2.6 -2 5.8 -5.5998 6.7998 -9.3998 8.1998 -0.6 -0.2 -1.4002 -0.0002 -1.6002 -0.6002 -0.8 -1.8 5.6 0.8004 11 -10.1996Z" stroke-width="1"></path><path id="Vector_14" fill="#191919" d="M161.9934 54.5594c1.8 2.6 2.8 6.7998 2 8.7998 -1.2 -2.8 -1.6002 -6.1996 -4.2002 -8.1996 -2.4 -1.8 -5.3998 0.7996 -5.7998 -0.4004 -0.2 -0.8 3.6 -3.9998 8 -0.1998Z" stroke-width="1"></path><path id="Vector_15" fill="#191919" d="M139.7928 144.1602c5.4 0.6 8.6004 -4.8004 10.4004 -5.4004 0.2 5.4 -11.2002 9.0002 -11.6002 6.2002 -0.2 -0.8 0.7998 -0.3998 1.1998 -0.7998Z" stroke-width="1"></path><path id="Vector_16" fill="#191919" d="M167.7928 57.959c0.2 2.8 -1.1996 3.6 -1.5996 1 -0.4 -1.6 -1.0002 -5.4 -3.2002 -6 -0.8 -0.2 -1.8 -0.0002 -2 -0.6002 -0.4 -1.8 6.1998 -2.3998 6.7998 5.6002Z" stroke-width="1"></path><path id="Vector_17" fill="#191919" d="M72.1936 78.1604c0 1.2 -2.2002 2.7996 -3.2002 2.1996 -0.8 -0.4 0.0002 -0.8 0.2002 -1 2.8 -1.6 -0.6002 -2.5998 -2.2002 -8.7998 -0.2 -0.4 -0.3998 -1.1998 0.2002 -1.3998 0.6 -0.2 0.8 0.4 1 1 3.4 7.8 3 6 4 8Z" stroke-width="1"></path><path id="Vector_18" fill="#191919" d="M67.9934 82.359c-3 5.4 -8 1.6002 -7 0.2002 0.6 -0.6 0.9998 0.1998 1.3998 0.3998 1.8 1 2.8002 0.4 5.6002 -0.6Z" stroke-width="1"></path><path id="Vector_19" fill="#191919" d="M54.793 72.5588c0 -2.8 4.0002 -5.6002 4.6002 -4.2002 0.4 0.8 -1.4 1.2002 -3.4 4.6002 -0.2 0.4 -0.4 0.8 -1 0.6 -0.4 -0.4 -0.2002 -0.8 -0.2002 -1Z" stroke-width="1"></path><path id="Vector_20" fill="#191919" d="M68.993 65.16c-0.6 0 -1.7998 0.7996 -1.7998 -0.4004 -0.2 -2 5.9996 -1.5998 5.5996 0.2002 -0.4 0.8 -0.9998 0.6002 -3.7998 0.2002Z" stroke-width="1"></path><path id="Vector_21" fill="#191919" d="M62.1932 74.3594c0 0.4 -0.2004 0.4002 -0.4004 0.6002 -2.4 1.8 -2.5998 1.8 -2.7998 1.6 -1.4 -1.4 2.8002 -3.6002 3.2002 -2.2002Z" stroke-width="1"></path><path id="Vector_22" fill="#191919" d="M72.793 71.1602c-0.6 -0.4 -1.7998 0.5998 -1.7998 -0.6002 0 -0.8 1 -0.8002 1.6 -0.8002 0.8 0 2 0.0002 2 0.8002 0 1 -1.2002 0.4002 -1.8002 0.6002Z" stroke-width="1"></path></g><g id="Group_2"><path id="Vector_23" fill="#0a65fc" d="M268.592 126.1598c9.4 -8.2 22.4 -8.2002 30.6 1.1998 16 18.4 -8 46.4 -28.8 33 -1.4 -1 -1.2 -3.5998 -1 19.2002 0 5.2 0.4 15.7998 0.4 18.7998 0 2.4004 0 1.4002 32 1.2002 16.2 -0.2 18.6 -0.8002 15.6 2.8002 -7.8 9.6 -5.6 23.8 7.4 29.6 18.6 8.4 37 -13.8 22 -29.8 -0.6 -0.6 -2 -1.2 -1.6 -2.2004 0.6 -1.2 2 -0.7998 3 -0.7998 0.4 0 36.8 -0.2002 37.8 -0.2002 2 -0.2 1.2 0 1.2 -118.6 0 -2.6 3.4 -0.3998 -78.8 0.8002 -32 0.4 -32 1.3996 -32 -0.4004 0 -1.8 0 -1.3996 48.8 -2.5996 64.2 -1.4 64.2 -2.2004 64.2 0.5996 0.4 160.2006 1 91.8002 0.8 237.6006 0 3.8 0.4 2.8 -24.6 3.4 -57.4 1 -157 2.8 -211.2002 3.4 -4.4 0 -2.8 0.2 -3 -36.6 -0.4 -39.4 -0.8 -50.6 -0.4 -83.4 0 -2.8 -0.1998 -1.8 34.2002 -2.2 14.8 -0.2 14.3998 -0.6 14.7998 0.4 0.8002 2 -11.2002 8 -6.2002 22 5.4 15.2 26.0004 17.6 34.8004 5.2 5.4 -7.6 4.4 -17.4 -2.6 -24.2 -5.4 -5.2004 -1 -4 39.8 -4.2 3 0 1.8 0 1 -42.6002 0 -1.2 -0.4 -2.2002 0.4 -2.6002 0.8 -0.4 1.4 0.4 1.8 1 6.8 7.6 19.8 7.1998 27 -0.2002 14.4 -14.8 1.6 -36.3996 -15.8 -32.5996 -10.2 2.2 -11.6 8.6 -13.4 8 -0.8 -0.2 -0.6 -1.0004 -0.6 -1.4004 -0.8 -31.2 -0.4 -30.9996 0.6 -31.1996 1.4 -0.2 1 1.3996 1.2 2.1996 0 1.8 -0.4 23.4004 0.6 25.4004Zm118.6 76.6002c0 -2.6 0 -1.8 -34.6 -1.2 -1 0 -2.4 -0.6 -2.8 0.4 -0.4 0.8 0.8 1.6 1.4 2.4 5.8 9 3.4 21.4 -5.2 27.6 -20.6 14.6 -45.2 -10 -32.6 -28.2 1.8 -2.6 5.4 -1.6 -42 -1.2 -3 0 -1 0 0.6 114.2 0 4.2 0 1 114.8 0.4 2.4 0 0 -0.6 0.4 -114.4Zm-158.2 1.6c6 7.2 6.6 17.2 1.4 24.6 -11.6 17.4 -40.8004 9.8 -40.6004 -12.8 0 -8.2 5.2004 -12.2 4.8004 -12.8 -0.2 -0.4 0 -0.2 -21.4 0 -21 0 -21.0002 -1 -20.8002 1.6 1 29.4 0.2 23.2 1 113.2 0 2.8 0.0002 2.8 2.8002 2.6 22.2 -1 107.4 -2 111.8 -2.2 2 -0.2 1.2 -1 1.2 -5.8 -0.2 -16.2 -1.2 -67.4 -1.4 -72.2 -1 -38.2 0.4 -38.2 -2.6 -38.2 -39.8 0.8 -38 -0.4 -36.2 2Z" stroke-width="1"></path><path id="Vector_24" fill="#0a65fc" d="M304.392 163.56c6 -12.4 22.4 -12.2 24.8 -16 0.6 -1 0.6 -1.8 -0.4 -2.6 -9.4 -7.4 -9.2 -24.4 -1 -32.4 11 -10.8 26.2 1.8 23.2 19 -0.8 4.8 -2.6 8.7998 -6 12.1998 -7.6 7.6 16.4 4.8 24.4 20 1 1.8 0.8 2.8 -1 4 -18.8 12 -68.6 5.4002 -64 -4.1998Z" stroke-width="1"></path><path id="Vector_25" fill="#0a65fc" d="M301.392 295.56c6 -11.6 19.2 -11.8 24 -15 1.6 -1.2 1.8 -2.6 0.2 -3.8 -8.8 -7.2 -9 -23.2 -1.2 -31.6 15.4 -16.2 34.4 13.4 18 30.2 -8.2 8.4 16.8 5 24 20.4 1 2 0.6 2.8 -1.2 4 -20.6 12.2 -68.8 5 -63.8 -4.2Z" stroke-width="1"></path><path id="Vector_26" fill="#0a65fc" d="M180.3916 302.56c-2.8 -1.4 -3.0002 -2.4 -1.6002 -5.2 5.4 -10.4 18.6002 -11.6 23.2006 -14.2 6.6 -3.8 -7.4004 -4.002 -6.0004 -22.402 1.2 -15.8 16.4004 -24 25.6004 -12 6.2 8.2 5.2 22.402 -2.2 29.202 -1.8 1.8 -1.4 4 0.8 5.2 4.8 2.6 16.6 4 22 12.2 3 4.6 3 5.6 -1.6 7.6 -17.4 8.2 -45.6004 7.2 -60.2004 -0.4Z" stroke-width="1"></path><path id="Subtract" fill="#0a65fc" fill-rule="evenodd" d="M246.392 101.5594c15.8 2.6 28.8 -12.4002 24.6 -28.2002 -4.2 -15.6 -25.8 -23.1996 -38.8 -4.1996 -0.08 -0.1592 -0.146 -0.2866 -0.206 -0.402 -0.538 -1.046 -0.57 -1.1092 -5.794 -14.7982 -1.686 -4.3194 -3.002 -7.7928 -4.054 -10.5764 -4.068 -10.7504 -4.246 -11.218 -6.946 -10.4236 -3.982 1.1798 -28.6278 11.495 -41.3766 16.831 -4.5398 1.9002 -7.5712 3.169 -7.6236 3.169 1.4 2.2 2.3998 7.4 0.7998 7.6 -0.6392 0.0914 -0.8198 -0.901 -1.0556 -2.197 -0.281 -1.543 -0.64 -3.5162 -1.9444 -4.6032 -0.1152 0.0384 -0.2378 0.0768 -0.365 0.1166l-0.0002 0c-0.5348 0.1676 -1.1502 0.3604 -1.6348 0.6836 1.8 2.6 2.8 6.7998 2 8.7998 -0.3232 -0.7538 -0.5882 -1.5366 -0.8538 -2.321 -0.7212 -2.1294 -1.4464 -4.271 -3.3464 -5.8786 -0.2782 0.3708 -0.7284 0.5268 -1.191 0.687 -0.5352 0.1852 -1.0868 0.3762 -1.4086 0.9126 2.6 2.4 4.4 7.4 3 9 -0.5238 -0.5238 -0.8952 -1.5048 -1.3138 -2.6104 -0.5404 -1.4274 -1.1594 -3.0624 -2.2864 -4.1894 -1.9914 -1.9916 -3.0444 -1.2844 -3.9674 -0.6646 -0.282 0.1894 -0.552 0.3708 -0.8328 0.4644 -0.4 0.2 -0.7996 0.6 -0.5996 0.6 2.8 1 5.1998 4.6002 4.7998 9.2002 -0.8272 -0.517 -1.12 -1.3548 -1.486 -2.4028 -0.342 -0.979 -0.7482 -2.1416 -1.7142 -3.3974 -2 -2.6 -5.5998 -2.6 -7.7998 0 -0.1246 0.1244 -0.2298 0.3072 -0.3336 0.4878 -0.2298 0.3992 -0.4534 0.7876 -0.8666 0.5122 -0.5334 -0.2668 -0.3556 -0.711 -0.1778 -1.1554 0.0888 -0.2222 0.1778 -0.4444 0.1778 -0.6444 -5.8114 2.3704 -10.4972 4.2438 -14.2686 5.7516 -11.9028 4.7588 -14.695 5.8752 -15.0098 7.4782 -0.0966 0.4914 0.0396 1.0284 0.2176 1.73l0.0608 0.2404c0.4 1.2 17.8002 48.9996 18.8002 49.5996 1.3848 0.3776 1.0262 0.7552 0.6202 1.1828 -0.2392 0.2518 -0.4946 0.5208 -0.4204 0.8172 0.3882 0.291 0.8706 1.6182 1.447 3.2044 0.6118 1.6828 1.3294 3.6574 2.153 4.9958 4 -2.2 6.2 -6.2002 8 -10.2002 1.2 2.6 -0.9998 8.6002 -7.3998 12.2002l0.6 1.7998c5.2 -1 7.9998 -4.5998 10.1998 -9.1998 1.4 1.8 -1.3996 8.6002 -8.5996 10.6002 -1.1328 0.3776 -1.0182 0.577 -0.3288 1.7758l0.1286 0.2242c3.7596 0.4176 6.4528 -2.0734 8.3496 -3.8276 0.8276 -0.7654 1.5034 -1.3906 2.0502 -1.5728 0.2 3.2 -4.1998 6.6004 -9.3998 7.4004 0 1.2 0.6002 2.2 1.2002 3 5.4 0.4 8.9998 -2.6004 12.3998 -6.4004 -0.4 2.4 -1.8002 4.0004 -3.2002 5.4004 -2.4844 2.2934 -4.7862 2.5778 -7.778 2.9476l-0.4216 0.0524c0.2 1.2 9.7996 25.9998 10.1996 26.7998 0.2112 0.5544 0.3842 1.0602 0.5394 1.5142l0.0002 0.0002c1.0206 2.9856 1.2794 3.7422 6.6606 1.4856 9.9148 -3.944 16.904 -6.8228 21.8058 -8.8418l0.0002 -0.0002 0.0002 0 0.0006 -0.0004c8.3078 -3.4218 10.6194 -4.3738 11.0164 -3.8566 0.153 0.1994 0.0216 0.6174 -0.1606 1.1962 -0.0844 0.2682 -0.1798 0.571 -0.2626 0.9026 -4 15.2 16.2004 32.2008 34.0004 21.6002 11.6 -7 13.4 -23.7998 3.2 -32.7998 -1.31 -1.1644 -2.726 -2.117 -4.17 -3.089 -0.542 -0.3638 -1.086 -0.73 -1.63 -1.1112l0.092 -0.0558c0.876 -0.5324 0.932 -0.566 31.508 -13.1444 0.092 -0.0378 0.182 -0.0744 0.27 -0.1102l0.002 -0.001c0.866 -0.3506 1.512 -0.6126 1.89 -1.088 1.118 -1.4052 -0.106 -4.6748 -4.95 -17.6088 -1.278 -3.4108 -2.808 -7.4938 -4.612 -12.3918 -1.188 -2.673 -2.094 -4.5988 -2.744 -5.9772l0 -0.0002c-1.058 -2.249 -1.43 -3.0414 -1.224 -3.2462 0.114 -0.1114 0.398 -0.049 0.836 0.0472 0.258 0.0566 0.57 0.1248 0.932 0.1764Zm-28.974 19.1618 0.016 -0.0254c0.368 -0.5332 0.44 -0.6378 -2.642 -8.536 -0.882 -2.2564 -1.728 -4.5276 -2.568 -6.7804l0 -0.0006 0 -0.0008 0 -0.0008 0 -0.0006 0 -0.0008c-5.262 -14.12 -10.25 -27.5044 -21.6324 -31.8162 -11.4 -4.2 -20.6 0.2002 -28.4 9.6002 -3.2 4 -5.0002 8.8 -4.2002 14 3.6 22.2 25 49.1996 21 42.1996 -1.194 -2.0386 -2.3628 -3.9968 -3.4992 -5.901l0 -0.0002 -0.0002 -0.0004c-6.6672 -11.1712 -12.2246 -20.4826 -15.3004 -33.298 -4.6 -18.8 18.7998 -35.8004 35.7998 -21.8004 6.5606 5.467 10.8326 17.0592 14.5206 27.066l0 0.0002c2.384 6.467 4.524 12.2718 6.88 15.3338l0.026 -0.0382Zm-11.226 4.038c16.8 -5.6 32 1.6 33.2 5 -8.2 -5.2 -17.4 -5.5998 -26.6 -4.7998 -1.392 0.139 -2.88 0.4718 -4.33 0.7962 -0.634 0.142 -1.262 0.2822 -1.87 0.404 -0.8 0 -1 0.5996 -1.2 1.1996 -1.4 6 -7.8002 8.6002 -12.4002 8.2002 -3.6 -0.4 -6.2002 0.4 -8.6002 3.4 -11.1846 13.321 -14.5518 18.8244 -15.8074 20.8766 -0.7426 1.214 -0.7466 1.2204 -1.1926 0.9232 -1.2 -0.8 4.8002 -11.9996 15.6002 -22.5996l0.0006 -0.0008c2.5996 -2.5996 4.5998 -4.5996 8.9994 -4.3996 8.2362 0.4334 10.8342 -4.0386 12.4722 -6.8566 0.63 -1.0828 1.118 -1.9214 1.728 -2.1434Zm-17.6002 8.2002 0.015 -0.0374c0.3884 -0.965 0.4658 -1.1572 -8.8154 -16.3624 -2.397 -3.9224 -4.4378 -3.7492 -6.3488 -3.5872 -1.597 0.1354 -3.1034 0.2632 -4.6512 -2.013 -2.2 -3.2 0.2 -5.3998 3 -4.3998 2.4 0.8 2.6004 -2.2004 2.4004 -4.8004 -0.098 -7.2564 -0.9174 -11.484 -1.3736 -13.8374 -0.4742 -2.4466 -0.5558 -2.8682 0.9732 -2.5624l0.133 0.0266c0.4942 0.099 0.898 0.18 1.3054 0.235 1.8222 0.2456 3.7144 -0.0286 14.0696 -1.5296l2.2924 -0.3322c0.1358 -0.0452 0.2816 -0.0802 0.4332 -0.1166 0.5186 -0.1242 1.1026 -0.2644 1.5668 -0.8834 -2.6694 0 -5.3678 0.349 -8.1064 0.7032 -4.4432 0.5746 -8.992 1.163 -13.694 0.2968 -0.9894 -0.1798 -0.846 0.6516 -0.4252 3.0944 0.515 2.9892 1.4456 8.3914 1.2256 17.306 0 1.6194 -0.5898 1.4694 -1.51 1.2354 -1.0118 -0.2572 -2.4234 -0.6162 -3.89 1.1646 -2.4 2.8 0.5996 9 6.5996 8 2.7776 -0.4444 3.4568 0.7776 5.5006 4.4546 1.6352 2.9422 4.1438 7.456 9.2998 13.9452Zm4 -14.5998c-1 0.2 -2 -0.2 -3 -1 2.8 -0.4 4.9998 -0.8 7.1998 -1.4 11.2004 -4.2 6.2004 -19.6 -0.5998 -29.6 -0.1012 -0.152 -0.2536 -0.3166 -0.412 -0.4876 -0.4674 -0.5046 -0.9858 -1.0644 -0.3882 -1.5124 1.6 -1.2 16.6004 22.3998 5.2004 31.3998l-0.026 0.0154c-0.208 0.1244 -0.36 0.2158 -0.438 0.3506 -0.2144 0.3764 0.16 1.09 1.578 3.796l0.002 0.001c0.45 0.8602 1.006 1.9216 1.684 3.2374 1.2 2.2 0.4 2.8 -1 0.4 -0.332 -0.5542 -0.68 -1.093 -1.026 -1.6292l0 -0.0002 -0.002 0 0 -0.0002 0 -0.0002c-0.902 -1.3988 -1.794 -2.78 -2.3724 -4.3702 -0.1862 -0.7454 -0.5464 -0.6226 -1.08 -0.4406l-0.12 0.0406c-1.0978 0.4118 -2.2896 0.635 -3.511 0.8638h-0.0002c-0.5586 0.1046 -1.1236 0.2104 -1.6886 0.336Zm-1.2004 -15.1998c2 -0.8 2.8004 -2.2 1.8004 -3 -1.9352 -1.8334 -2.9888 -3.3556 -3.6622 -4.329 -0.649 -0.9378 -0.9452 -1.3658 -1.3378 -1.0714 -0.4 0.4 -0.0004 0.8 0.1996 1 0.9714 1.36 1.7188 2.319 2.2764 3.0344 0.9058 1.1624 1.3108 1.6822 1.3624 2.2348 0.0416 0.4468 -0.1478 0.9152 -0.4902 1.7624 -0.0468 0.1156 -0.0964 0.2382 -0.1486 0.3688Zm-3.4 -15.6004c-0.6 -1.6 3.8 -3.1998 7 -0.3998 -3.3074 -0.1102 -4.974 0.3872 -5.8708 0.6548 -0.7298 0.218 -0.9496 0.2836 -1.1292 -0.255Zm-12.3996 9.6c0.2868 -0.4588 0.5324 -0.8602 0.7494 -1.2146 1.2958 -2.1166 1.5658 -2.5578 3.4504 -3.5856 0.6 -0.4 0.6002 -1.3998 -0.5998 -1.1998 -2 0.4 -3.6 2.8 -3.6 6Zm6.6 4.0004c0 -2.6 -3 -3.8002 -3 -1.2002 0 2 3.2 3.8002 3 1.2002Zm9.4002 7.7998c-2.2694 0.4778 -3.6828 -0.1856 -4.6236 -0.6272 -0.6346 -0.2978 -1.0542 -0.4948 -1.3764 -0.1726 -1.2 1 5 4.1998 6 0.7998Zm5.1996 -16.2002c-0.8 -2.8 -3 -2.3998 -3 -0.7998 0.2 2.4 3 2.9998 3 0.7998Z" clip-rule="evenodd" stroke-width="1"></path></g></g></svg>