<svg xmlns="http://www.w3.org/2000/svg" viewBox="0 0 400 400" id="Job-Interview-2--Streamline-Brooklyn.svg" height="400" width="400"><desc>Job Interview 2 Streamline Illustration: https://streamlinehq.com</desc><path d="M180.4 290.62c10.252 -5.714 10.18 -5.512 12.732 -7.462 0.902 -0.688 0 -2.386 -1.2 -1.988 -2.938 1.336 -0.764 0.25 -19.298 10.942 -2.188 1 -7.634 3.754 -6.366 4.972 1.132 1.072 11.954 -5.252 14.132 -6.464Z" fill="#0a65fc" stroke-width="1"></path><path d="M199 295.096a6.056 6.056 0 0 0 2.388 -1.8 0.738 0.738 0 0 0 0.1 -0.496 0.892 0.892 0 0 0 -0.896 -0.896c-1.6 0.318 -1.886 0.726 -5.47 2.586 -1.634 0.848 -10.866 6.236 -11.24 6.466a30.632 30.632 0 0 0 -5.272 3.582c-0.448 0.446 -0.078 1.336 0.496 1.2 2.868 -0.286 17.446 -9.1 19.894 -10.642Z" fill="#0a65fc" stroke-width="1"></path><path d="m195.52 311.6 6.962 -3.88c0.896 -0.498 2.872 -1.388 2.488 -2.586 -0.414 -1.288 -2.19 -0.696 -2.886 -0.298a68.782 68.782 0 0 0 -6.962 3.878 32.812 32.812 0 0 0 -7.46 4.776c-1.096 0.894 -0.3 2 0.894 1.69 0 -0.09 4.676 -2.28 6.964 -3.58Z" fill="#0a65fc" stroke-width="1"></path><path d="M212.43 318.87c1.376 -0.92 3.182 -1.692 3.58 -3.284v-0.2a0.878 0.878 0 0 0 -0.8 -0.896c-1.492 0 -2.884 1.4 -4.176 2.188 -1.53 0.942 -10.614 7.062 -12.038 8.158 -0.8 0.696 -0.6 1.79 0.8 1.292 0.004 0.102 11.326 -6.386 12.634 -7.258Z" fill="#0a65fc" stroke-width="1"></path><path d="M140.412 305.142c1.1 -0.384 9.648 -4.376 11.838 -5.272a1.276 1.276 0 0 0 0.894 -1.6 1.2 1.2 0 0 0 -1.6 -0.894 115.232 115.232 0 0 0 -12.832 6.862c-0.688 0.506 -0.082 1.524 1.7 0.904Z" fill="#0a65fc" stroke-width="1"></path><path d="M162.694 308.624a1.174 1.174 0 0 0 -0.6 -2.188 1.4 1.4 0 0 0 -0.6 0.2 51.32 51.32 0 0 0 -12.136 7.162c-0.446 0.446 -0.076 1.338 0.498 1.2a130.384 130.384 0 0 0 12.838 -6.374Z" fill="#0a65fc" stroke-width="1"></path><path d="M161.4 325.334s13.032 -6.266 14.026 -6.862c0.498 -0.2 -1.79 -1.692 -2.486 -1.692a1.858 1.858 0 0 0 -0.8 0.2c-1 0.496 -9.65 5.768 -11.54 6.962a0.712 0.712 0 0 0 -0.298 0.6 0.856 0.856 0 0 0 0.8 0.8Z" fill="#0a65fc" stroke-width="1"></path><path d="M173.734 336.078c1.096 -0.4 12.236 -7.362 12.236 -7.362 0.298 -0.298 -1 -1.6 -1.6 -1.69 -1.094 0 -10.376 6.238 -11.738 7.758a0.864 0.864 0 0 0 1.102 1.294Z" fill="#0a65fc" stroke-width="1"></path><path d="M185.772 344.732a106.122 106.122 0 0 0 10.046 -6.168c0.498 -0.8 -0.104 -2.112 -1.094 -1.89a113.54 113.54 0 0 0 -10.842 7.064c-0.398 0.198 0.098 1.59 1.89 0.994Z" fill="#0a65fc" stroke-width="1"></path><path d="M204.77 347.318c0.2 -0.2 -1.292 -2 -1.492 -1.89 -0.498 0.298 -9.716 7.494 -11.538 9.152 -0.782 0.71 0.2 1.89 1.094 1.4a120.092 120.092 0 0 0 11.936 -8.662Z" fill="#0a65fc" stroke-width="1"></path><path d="M158.914 287.634c12.212 -5.04 14 -6.296 29.742 -14.124 3.386 -1.684 6.776 -3.262 10.046 -5.074 1.6 -0.884 0.214 -3.152 -1.4 -2.386 -3.14 1.498 -16.904 8.532 -19.6 10.046a200.502 200.502 0 0 0 -19.2 10.644c-0.484 0.198 -0.288 1.184 0.412 0.894Z" fill="#0a65fc" stroke-width="1"></path><path d="M210.242 335.182c2.684 -1.4 14.324 -8.356 15.418 -9.45 0.6 -0.8 -0.3 -1.6 -1.094 -1.492a6.814 6.814 0 0 0 -2.09 1s-10.644 6.962 -13.03 8.752c-0.696 0.594 0.098 1.488 0.796 1.19Z" fill="#0a65fc" stroke-width="1"></path><path d="M120.22 96.45c-0.3 0 1.4 11.042 1.4 11.042a5.954 5.954 0 0 0 4.18 -5.472c0 -2.786 -5.58 -5.57 -5.58 -5.57Z" fill="#0a65fc" stroke-width="1"></path><path d="M102.712 86.502c0 4.74 7.258 6.014 6.964 9.65 -0.13 1.588 -1.484 1.4 -2.588 2.088 -0.986 0.6 0 1.4 0.698 1.4 1.69 0.2 4.082 -0.496 4.476 -2.486 1 -5.072 -4.2 -6.836 -7.064 -9.848 -0.58 -0.612 -0.894 -1.8 -1.69 -2.188s-0.896 0.788 -0.796 1.384Z" fill="#191919" stroke-width="1"></path><path d="M89.582 89.686a0.754 0.754 0 0 0 0.894 0.298c1.2 -0.498 1.316 -2.174 1.89 -3.084a12.2 12.2 0 0 1 2.588 -2.486c0.486 -0.412 1.492 -1.492 1 -2.09 -0.696 -1.094 -3.474 0.31 -4.178 0.8 -1.776 1.218 -3.388 4.374 -2.194 6.562Z" fill="#191919" stroke-width="1"></path><path d="M107.486 81.728c0.89 0.6 1.128 -0.696 3.78 -0.696 0.498 0 1.692 0.4 2.09 -0.1 0.6 -0.6 -0.298 -1.6 -0.8 -2a4 4 0 0 0 -5.472 1.294 1.336 1.336 0 0 0 0.402 1.502Z" fill="#191919" stroke-width="1"></path><path d="M118.144 57.932c4.774 -13.43 -6.864 -20.99 -17.906 -15.12 -2.388 -9.252 -16.512 -12.734 -23.376 -1.692 -9.946 -6.564 -30.24 -2.088 -24.47 17.906 -10.344 1 -22.38 18.6 -2.088 25.762 -11.042 11.042 -2.09 23.376 10.344 22.68a11.748 11.748 0 0 0 5.87 12.434 17.646 17.646 0 0 0 15.516 -1 7.8 7.8 0 0 0 0.8 -1.89c1.2 6.764 2.984 22.38 2.984 23.872 -1 0.3 -5.47 1.4 -6.564 1.692 -0.696 0.298 1.4 1.69 2.784 1.4 1 -0.298 6.864 -1.4 6.864 -2.088 0.696 -2.09 0 -11.34 -0.298 -13.728a35.52 35.52 0 0 0 -4.476 -14.124c0 -0.1 -0.2 -0.1 -0.4 0 0.2 -0.8 0.4 -1.4 0.4 -1.4 -11.34 1.4 -12.016 -10.136 -0.696 -11.34 2.4 -0.254 1.69 -11.338 -1.4 -14.422a7.034 7.034 0 0 0 5.168 -8.552 9.498 9.498 0 0 0 10.344 -4.476 7.368 7.368 0 0 0 9.948 0.696 10.032 10.032 0 0 0 6.366 3.382 108.15 108.15 0 0 0 2.586 13.53c1 4.476 2.04 8.958 2.786 13.726a15.562 15.562 0 0 1 -11.738 17.906c-4.656 0.664 -6.662 -0.284 -12.334 -2.686 -1.4 -0.298 -1.692 0.298 -1 1.4a16.8 16.8 0 0 0 5.472 4.476 18.722 18.722 0 0 0 8.554 0.8c0.1 4.278 0.4 10.842 0.4 10.842a35.184 35.184 0 0 0 7.958 -1.4c1 0 1.4 -1 1.4 -1.692 -0.298 -0.696 -6.864 0.3 -6.864 0.3 0 -1.2 -0.2 -5.572 -0.4 -8.556a16.544 16.544 0 0 0 7.262 -4.178 18.724 18.724 0 0 0 5.472 -11.736 44.694 44.694 0 0 0 -2.09 -15.12c-0.4 -1.89 -0.894 -3.78 -1.4 -5.57 3.084 -0.498 7.36 -3.78 4.774 -9.848 9.96 -6.67 7.97 -21.79 -6.552 -22.186Zm-58.888 6.166c-1.276 0.92 -2.884 1.2 -4.278 2.09a9.506 9.506 0 0 0 -3.382 3.58c-1.048 2.03 -1.118 5.504 0.896 6.366 1 0.498 2.098 0.086 2.984 0.696 1.312 0.906 0.348 2.842 -1.6 2.886a6.53 6.53 0 0 1 -5.67 -2.886c-4.062 -6.614 3.078 -14.984 10.246 -13.926 0.704 0.096 1.61 0.612 0.804 1.194Zm8.356 -17.098c-1.726 0.316 -2.6 -1.504 -5.87 3.082a3.09 3.09 0 0 1 -1.492 1.294c-3.434 0.92 -2.4 -6.872 4.476 -7.758 1.494 -0.2 4.2 0.498 3.88 2.486a1.044 1.044 0 0 1 -0.994 0.896Zm24.072 -2.8c-0.6 1 -2.092 0.216 -2.884 0.1a23.774 23.774 0 0 1 -3.78 -0.4c-1.464 -0.464 -1.17 -2.63 1.4 -2.984a7.626 7.626 0 0 1 4.476 0.8 1.762 1.762 0 0 1 0.788 2.484Z" fill="#191919" stroke-width="1"></path><path d="M169.756 201.094c-4.418 -14.052 -18.466 -22.164 -29.94 -30.638 -1.378 -1.016 -1.418 -2.412 0 -3.78 5.772 -5.572 11.924 -11.458 17.904 -16.91 2.344 -2.136 2.786 -2.784 1.4 -5.868 -2.756 -6.106 -8.706 -11.228 -18.9 -13.428 -6.844 -1.48 -13.428 -0.3 -20.292 -0.3 -1 0 -2.386 0 -3.084 1 -1.4 2.386 -12.036 23.872 -12.036 23.872 -8.256 -4.178 -26.856 -14.224 -28.25 -14.622 -4.476 0 -9.27 2.33 -13.428 3.78 -17 5.93 -32.29 15.146 -42.376 30.638C4.6 199.644 9.268 229.36 16.57 256c0.656 2.4 2.088 6.566 3.082 9.252 1.692 0 146.622 -34.418 148.016 -38.2a87.24 87.24 0 0 0 3.78 -18.9c-0.598 -2.582 -1.032 -4.952 -1.692 -7.058Zm-104.942 11.34a213.26 213.26 0 0 0 -3.78 -29.234c-0.3 -1 1 -1.4 1.4 -0.3a137.428 137.428 0 0 1 5.166 29.236c0.34 5.116 1.536 24.376 0 29.642a1.45 1.45 0 0 1 -2.784 0c-0.688 -5.474 0.784 -19.08 -0.002 -29.344Zm41.678 -55c4.736 8.636 16.724 14.104 18.9 6.466 1.276 -4.482 -0.622 -10.14 -1.692 -14.524a200.436 200.436 0 0 0 -3.382 -12.334c-0.4 -1.292 -1.418 -3.2 -0.298 -4.376 0.682 -0.712 2.186 -1 2.586 0.098a115.784 115.784 0 0 1 5.67 19.896 29.87 29.87 0 0 1 0.6 11.738 7.902 7.902 0 0 1 -8.954 6.266 15.826 15.826 0 0 1 -7.958 -3.184 30.558 30.558 0 0 1 -4.776 -4.48c-0.874 8.31 -3.734 14.97 -11.638 12.334a25.112 25.112 0 0 1 -8.55 -8.558C81.524 159.912 74.562 143.4 74.562 143.4a0.748 0.748 0 0 1 0.696 -0.696c0.298 0 0.696 0 0.696 0.298a163.92 163.92 0 0 0 15.518 24.47c2.088 2.388 6.564 7.958 9.648 3.78a20.924 20.924 0 0 0 2.786 -13.428 1.62 1.62 0 0 1 1.69 -1.692c0.204 0.2 0.896 0.896 0.896 1.294Z" fill="#0a65fc" stroke-width="1"></path><path d="M261.37 105.8a180.742 180.742 0 0 1 21.684 22.68c11.248 13.8 17.336 28.504 20.294 34.416a18.446 18.446 0 0 1 1.69 4.178 32.058 32.058 0 0 0 2.088 3.78c0.3 0.698 1.4 0.3 1.4 -0.696a10.68 10.68 0 0 0 -0.696 -3.78 10.714 10.714 0 0 0 -1.4 -3.78 112.76 112.76 0 0 0 -10.642 -21.684 151.118 151.118 0 0 0 -19.6 -25.166 102.934 102.934 0 0 0 -13.728 -11.738c-0.792 0 -1.786 1.094 -1.09 1.79Z" fill="#191919" stroke-width="1"></path><path d="M200.8 283.358c16.214 22.68 33.304 45.418 54.71 63.364a183.432 183.432 0 0 0 16.91 12.036c12.23 8.08 28.734 13.816 42.374 8.256a54.154 54.154 0 0 0 17.508 -11.042 164.582 164.582 0 0 0 17.2 -16.91 100.33 100.33 0 0 0 13.728 -20.292v-0.298c0 -0.698 -0.3 -1 -1 -1a1.534 1.534 0 0 0 -0.696 0.298c-7.564 9.906 -15.448 22.304 -27.554 32.03 -10.5 9.694 -22.714 17.89 -36.8 15.518 -23.55 -3.962 -50.652 -28.622 -66.448 -46.752a643.35 643.35 0 0 1 -28.946 -35.8c-0.298 -1.1 -1.69 -0.104 -0.986 0.592Z" fill="#191919" stroke-width="1"></path><path d="M243.068 343.24A314.554 314.554 0 0 0 200.4 369.4c-20 -18.2 -70.526 -64.358 -75.698 -69.132 5.27 -2.684 12.844 -5.8 18.372 -8.8 35.634 28.342 54.2 49.44 64.488 59.722a1.428 1.428 0 0 0 1.69 0.298c24.6 -16.906 24.072 -15.348 24.072 -16.512 0.498 -0.696 -0.2 -1 -0.894 -1 -8.654 4.4 -12.152 7.064 -23.476 14.424a638.42 638.42 0 0 0 -56.8 -53.316c-4.776 -4.178 -9.948 -7.958 -14.822 -11.738 16.898 -7.826 48.962 -20.912 56.8 -25.864 0.576 0 0.248 -1 -0.4 -1h-0.298a49.318 49.318 0 0 0 -10.642 4.178c-31.222 12.988 -40.374 17.314 -49.24 20.988 -1 0.3 -0.696 1.692 0 2.388q3.896 2.98 7.752 6.022c-6.248 2.37 -13.642 5.676 -19.29 8.5 -0.298 0.3 -0.696 0.696 -0.696 1a1.276 1.276 0 0 0 0.298 1c19.656 18.958 77.786 71.52 77.786 71.52 0.3 0.3 1.4 0.698 1.692 0.3 6.564 -5.174 13.726 -9.65 20.69 -14.126 6.864 -4.476 15.12 -8.554 22.382 -13.032 1.686 -0.986 0.294 -2.676 -1.098 -1.98Z" fill="#191919" stroke-width="1"></path><path d="M110.556 88.596a2.388 1.69 75.678 1 0 3.276 -0.836 2.388 1.69 75.678 1 0 -3.276 0.836Z" fill="#191919" stroke-width="1"></path><path d="M95.162 94.164a2.388 1.69 75.678 1 0 3.276 -0.836 2.388 1.69 75.678 1 0 -3.276 0.836Z" fill="#191919" stroke-width="1"></path><path d="M239.288 172.844c1 -1 -5.87 -9.948 -8.556 -13.428 -2.386 -3.482 -19.6 -21.686 -26.46 -26.162a1.496 1.496 0 0 0 -1.4 -1.4c-15.616 6.864 -32.7 22.704 -35.412 25.464 -0.69 0.704 0.298 2.09 1 1.4 2.786 -2.09 6.074 -4.968 8.954 -7.362 9.068 -7.54 24.47 -16.014 25.862 -17.108 6.168 4.774 21.984 22.38 24.072 25.762 -2.088 0 -13.428 5.172 -13.726 5.472 0 0 -1.4 -1.692 -1.692 -2.09 2.188 -1.89 -1 -7.262 -1.69 -7.958a2.458 2.458 0 0 0 -0.3 -4.476 2.744 2.744 0 0 0 -3.78 -3.084 3.244 3.244 0 0 0 -5.868 -0.298 2.824 2.824 0 0 0 -4.178 3.482c-3.58 -0.1 -4.774 3.482 -2.388 6.168 -2.586 2.286 -1.292 5.67 2.09 6.166 -0.498 2.686 1.094 4.576 4.178 3.78 1.4 2.984 4.178 2.686 5.47 0.298 0.3 0.3 2.388 3.084 2.388 3.084 -5.172 3.78 -8.952 8.554 -8.952 14.424 -1 -1 -2.078 -2.4 -3.084 -3.482 -5.118 -5.52 -24.766 -18.896 -28.944 -20.696 -1 -0.298 -1.4 1 -0.696 1.692 28.04 17.184 31.57 29.054 40.186 38.8 1.308 1.48 30.838 -25.962 32.926 -28.448Zm-29.246 -1c-1 -1.692 -5.478 -6.874 -5.868 -6.566 -1.722 1.354 -4.178 -0.696 -1.4 -2.784 0.3 -0.3 -1.69 -2.786 -1.69 -2.786 1 -0.696 1 -1.4 0.298 -2.09a1.84 1.84 0 0 0 2.388 -2.386 1.46 1.46 0 0 0 2.386 -0.298s4.478 5.868 4.178 7.56c-1.89 2.088 -2.184 2.968 -1.492 3.182 0.302 0.094 0.896 -0.298 1.4 -0.6 0.298 0.298 3.182 4.376 3.58 3.978 0.298 -0.298 2.388 -2.088 3.084 -2.088 3.084 4.774 -4.178 10.344 -8.952 6.862 0.696 -0.288 2.486 -1.978 2.088 -1.978Z" fill="#191919" stroke-width="1"></path><path d="M206.262 159.416a1.416 1.416 0 0 0 -2.088 -0.696c-0.61 0.482 -0.096 1.87 0.696 2.088 1.002 0.276 1.79 -0.696 1.392 -1.392Z" fill="#191919" stroke-width="1"></path><path d="M224.466 203.184c5.388 -4.4 21 -16.368 23.774 -18.502 15.56 -12 30.03 -21.93 38.6 -27.156 1.676 -1.022 0 -3.8 -1.69 -2.786A414.912 414.912 0 0 0 236.2 190.848c-4.464 3.8 -8.256 7.958 -12.732 12.036 0.004 -0.098 0.4 0.598 0.998 0.3Z" fill="#0a65fc" stroke-width="1"></path><path d="M228.346 218.7c2.064 -1.72 3.78 -3.78 5.868 -5.47s4.17 -3.79 6.168 -5.472c11.672 -9.822 10.94 -10.694 38.6 -29.244 5.488 -3.68 12.73 -6.724 15.518 -9.648 0.68 -0.714 0.298 -2.09 -0.696 -2.09 -5.466 1.368 -6.166 2.844 -14.424 7.66 -17.352 10.122 -39.01 27.574 -51.924 43.072 -1.2 0.794 0.184 1.78 0.89 1.192Z" fill="#0a65fc" stroke-width="1"></path><path d="M233.418 233.82c6.162 -4.54 17.768 -14.756 21.686 -18.2 25.516 -22.458 31.2 -23.148 35.112 -27.754 0.698 -0.696 -0.298 -1.69 -1.4 -1.69 -3.53 1.03 -5.106 2.8 -12.036 7.658a123.188 123.188 0 0 0 -11.042 8.556 366.668 366.668 0 0 0 -33.422 29.94c-0.588 0.794 0.506 2.186 1.102 1.49Z" fill="#0a65fc" stroke-width="1"></path><path d="M249.632 237.6c8.556 -6.112 16.506 -14.426 33.82 -26.46 1.692 -1 0 -3.78 -1.69 -2.784 -5.87 4.476 -11.692 8.6 -17.2 13.428 -3.47 3.034 -9.024 7.236 -12.434 10.644a33.838 33.838 0 0 0 -3.778 3.78c-0.806 0.696 0.288 1.69 1.282 1.392Z" fill="#0a65fc" stroke-width="1"></path><path d="M258.584 248.642a84.264 84.264 0 0 0 9.252 -7.262l4.476 -3.482a23.072 23.072 0 0 0 4.476 -3.78c1 -1 -0.298 -3.082 -1.692 -2.386a23.132 23.132 0 0 0 -4.476 3.78c-7.652 6.462 -9.188 7.354 -13.03 11.34 -1.39 0.696 0 2.088 0.994 1.79Z" fill="#0a65fc" stroke-width="1"></path><path d="M81.028 109.182a6.168 6.168 0 1 0 6.172 6.168 5.954 5.954 0 0 0 -6.172 -6.168Z" fill="#0a65fc" stroke-width="1"></path><path d="M116.14 104.4a3.278 3.278 0 0 0 -3.78 -2.09 14.7 14.7 0 0 0 -8.256 3.78 14.682 14.682 0 0 1 -7.26 4.776c-2.082 0.348 -0.3 1.4 0 1.69a5.08 5.08 0 0 0 2.088 0.298 10.83 10.83 0 0 0 7.262 3.78 6.982 6.982 0 0 0 6.564 -7.26 7.494 7.494 0 0 0 2.388 -1.4 4.318 4.318 0 0 0 0.994 -3.574Zm-3.878 -0.696c1.69 -0.2 1.69 1.69 0.4 2.188a12.174 12.174 0 0 1 -2.686 0.496A28.414 28.414 0 0 0 104 109.182c-0.3 0 -0.698 -0.298 -0.3 -0.696a14.946 14.946 0 0 1 8.562 -4.774Z" fill="#0a65fc" stroke-width="1"></path><path d="M321.564 66.188a8.504 8.504 0 0 0 -4.476 -4.776c-2.388 -0.696 -8.262 -0.294 -6.566 2.09 1 1.4 3.072 0.346 5.87 1a8.692 8.692 0 0 1 3.778 2.388c0.398 0.392 1.692 0.392 1.394 -0.702Z" fill="#191919" stroke-width="1"></path><path d="M388.31 110.95c-12.4 5.046 -20.95 12.304 -29.246 21.784 -0.8 -2 -5.868 -11.24 -5.968 -11.24a14.33 14.33 0 0 0 4.278 -5.968c-0.696 -1.4 -1.4 -1.692 -2.09 -1.4a27.61 27.61 0 0 0 -3.084 3.482 43.26 43.26 0 0 1 -10.344 8.654 7.45 7.45 0 0 1 -8.952 -1.4 24.234 24.234 0 0 1 -4.776 -7.262 15.422 15.422 0 0 0 16.214 -18.6c0 -0.698 -0.696 -1 -1.4 -1 -0.756 0 -15.086 4.474 -15.816 4.774a4.234 4.234 0 0 1 -3.482 0c-3.2 -3.2 -2.974 -6.128 -5.868 -9.548 -0.674 -1.572 -3.184 0 -6.466 0a8.176 8.176 0 0 1 -3.78 -0.298c-1 -0.696 -0.298 -2.09 -0.696 -2.786 0 -0.696 -0.298 -2.088 -0.298 -3.482 -0.3 -4.774 -1 -9.648 -1.692 -14.822a125.2 125.2 0 0 0 -2.784 -12.732c0 -0.696 -1 -0.298 -1 0 0.696 7.262 1.692 14.126 2.388 21.388 0.298 2.386 0.34 4.768 0.696 7.26 0.34 2.382 0 5.87 2.088 7.262 2.388 2.09 6.864 1 9.948 0.298a23.838 23.838 0 0 1 2.388 4.776 14.124 14.124 0 0 0 4.178 5.172c2.784 1.69 6.862 0 9.648 -1l10.346 -3.084c0.708 8.968 -6.818 14.952 -15.518 14.124 -1.4 0 -1.4 1.692 -0.298 2.388 1 6.564 7.26 15.12 14.82 12.434a26.886 26.886 0 0 0 9.45 -6.366c0.298 0.496 4.874 9.35 5.87 11.638 -0.1 0.1 -5.372 6.366 -6.566 10.146a296.298 296.298 0 0 0 -27.354 17.308 113.6 113.6 0 0 0 -15.804 12.75c-17.906 18.6 -25.466 45.062 -26.162 70.526a231.268 231.268 0 0 0 2.786 35.114c-5.64 -3.98 -26.464 -15.028 -39.6 -36.904a0.748 0.748 0 0 0 -0.696 -0.696 26 26 0 0 0 -11.34 3.48 71.274 71.274 0 0 0 -23.278 17.906c-3.282 -3.88 -6.862 -7.858 -10.444 -11.44 -3.78 -3.78 -7.56 -8.256 -11.34 -12.036s-7.26 -7.262 -7.26 -12.434a90.71 90.71 0 0 1 0.696 -13.726c0.252 -4.366 1.062 -8.644 1.07 -12.982 10.902 11.6 12.882 15.096 22.6 24.818a0.704 0.704 0 1 0 1 -1c-18.448 -24.696 -28.07 -34.164 -42.674 -46.454a80.762 80.762 0 0 0 -17.108 -11.34c12.786 -11.55 16.582 -16.822 39.888 -33.422 43.436 -29.254 73.322 -31.126 73.322 -35.4a1.93 1.93 0 0 0 -1.89 -1.8c-2.764 0 -13.738 4.43 -25.464 8.654a172.822 172.822 0 0 0 -23.376 10.642 235.454 235.454 0 0 0 -42.976 28.56c-10.234 9.424 -15.982 13.952 -21.984 22.082 -0.098 0.2 0 0.298 -0.098 0.4a0.934 0.934 0 0 0 0.098 1.292c12.434 10.88 18.414 11.8 36.828 31.03 -0.626 7.65 -2.046 15.068 -2.314 22.65 -5.22 0.95 -153.84 39.976 -161.652 42.236 -0.298 0 -0.298 0.298 -0.298 0.696 -0.4 1.79 43.27 -9.55 64.956 -15.02 11.544 -2.886 79.38 -20.114 96.948 -25.61 -0.024 11.588 3.3 11.144 17.258 27.676a149.682 149.682 0 0 0 13.032 13.328c-0.896 1.2 -1.8 2.288 -2.686 3.482a73.296 73.296 0 0 0 -6.168 11.738c-0.298 0.696 0.696 1 1 0.298a80.04 80.04 0 0 1 32.33 -32.03c2.228 -1.244 8.6 -3.744 9.712 -4.4 12.128 20.918 39.764 37.034 42.288 37.934 0.8 4.178 1.508 7.48 2.6 11.532a1.076 1.076 0 0 0 2.088 -0.3c-1.386 -14.452 -4.476 -22.6 -4.476 -43.668a128.378 128.378 0 0 1 5.172 -39.2 85.388 85.388 0 0 1 17.2 -31.632c8.554 -9.948 20 -17.2 30.936 -24.47a159.52 159.52 0 0 1 39.888 -19.496c0.894 -0.4 0.496 -1 -0.3 -0.8a121.218 121.218 0 0 0 -23.852 8.262 145.476 145.476 0 0 1 13.826 -16.214 74.014 74.014 0 0 1 21.686 -13.728c1.6 -0.662 0.888 -3.48 -0.802 -2.784Z" fill="#191919" stroke-width="1"></path><path d="M207.27 234.096c2.908 -22.848 1.448 -30.354 4.774 -29.244 2.09 0.696 3.084 3.48 3.482 5.172A122.834 122.834 0 0 1 221.4 232.4a75.072 75.072 0 0 1 0.696 8.554c0 2.784 0.298 5.868 0.298 8.952a1.642 1.642 0 0 0 1 1c0.696 0 1 -0.298 1 -1a50.988 50.988 0 0 0 0.298 -8.952 33.63 33.63 0 0 0 -1 -8.554 72.638 72.638 0 0 0 -4.178 -17.21 37.666 37.666 0 0 0 -3.084 -7.958 7.154 7.154 0 0 0 -4.476 -4.476 4.154 4.154 0 0 0 -4.776 2.786 28.664 28.664 0 0 0 -1 7.56c-0.15 7.266 -0.696 14.124 -0.696 21.386 1.092 0.312 1.788 0.312 1.788 -0.392Z" fill="#191919" stroke-width="1"></path><path d="M315.098 71.46c-2.226 1.484 -1.124 6.464 1.89 6.464a2.982 2.982 0 0 0 2.486 -4.176c-0.832 -2.498 -3.138 -3.302 -4.376 -2.288Z" fill="#191919" stroke-width="1"></path><path d="M330.218 58.726a40.168 40.168 0 0 1 9.648 12.734c6.968 13.486 4.968 15.418 7.262 15.418a1.74 1.74 0 0 0 1.4 -0.696c1.4 -2.09 2.09 -15.518 3.78 -17.21 6.864 -5.47 20.114 3.928 9.948 12.036 -3.048 2.432 6.864 3.482 6.864 3.482 6.94 14.934 9.512 22.374 12.134 26.46 1.4 2.182 1.884 -0.098 1.692 -1.492a39.864 39.864 0 0 0 -4.774 -13.628c-0.6 -1.2 -6.764 -12.534 -6.268 -12.732a9.774 9.774 0 0 0 4.776 -11.738c0 -0.696 -8.528 -10.358 -10.644 -15.12 -1.374 -3.092 -2.09 -9.948 -3.482 -13.03 -4.31 -11.288 -18.094 -14.12 -28.25 -7.56a18.564 18.564 0 0 1 6.168 7.56c0.298 0.298 -0.3 0.696 -0.698 0.696a50.518 50.518 0 0 0 -32.03 -16.214c-10.34 -1.03 -24.618 0.758 -29.244 11.738a13.276 13.276 0 0 0 2.388 14.124c11.854 12.694 32.818 -4.774 49.33 5.172Zm-45.16 -18.7c0.6 1.862 1.104 8.654 10.244 8.654 1.294 0 3.982 -0.4 4.676 1.094 1.2 2.584 -3.282 3.09 -4.774 3.184 -4.89 0.306 -10.94 -3.072 -11.838 -8.456 -0.396 -4.748 1.414 -5.344 1.692 -4.476Z" fill="#191919" stroke-width="1"></path><path d="M230.334 146.684c0.2 -2.054 -0.66 -3.026 2.586 -4.378 3.642 -1.516 8.664 -0.022 11.54 -3.88a24.22 24.22 0 0 1 3.084 -4.574c1.78 -1.506 4.476 -1 6.564 -1a9.4 9.4 0 0 0 8.058 -3.78c2.036 -3.144 3.986 -3.112 4.276 -4.276a1.4 1.4 0 0 0 -1.292 -1.6c-3.084 0 -4.476 3.482 -6.566 5.47 -3.324 2.772 -9.696 -0.44 -13.626 3.284 -1.788 1.692 -2.686 4.674 -4.876 5.768a24.454 24.454 0 0 1 -6.464 1.294 9.588 9.588 0 0 0 -5.272 2.784c-1.4 1.6 -2.19 5.272 0.496 6.168 1.094 0.51 1.492 -0.286 1.492 -1.28Z" fill="#0a65fc" stroke-width="1"></path><path d="M237.6 156.034c1.4 -0.696 14.126 -7.56 15.12 -8.556s0 -3.082 -1.4 -2.386 -13.728 8.952 -14.822 9.648c-0.99 0.896 0.402 1.592 1.102 1.294Z" fill="#0a65fc" stroke-width="1"></path><path d="M248.736 162.4c2.012 -1.056 4.386 -0.882 6.368 -2.09a58.516 58.516 0 0 0 5.272 -4.774c3.132 -2.454 7.306 -1.98 9.846 -4.078a19.018 19.018 0 0 0 2.588 -3.68c1.284 -1.698 3.284 -1.784 5.072 -2.19a7.044 7.044 0 0 0 3.88 -2.088c0.8 -1.094 -0.4 -2.486 -1.6 -2.288a5.694 5.694 0 0 0 -1.2 0.4c-1.69 0.6 -3.37 0.818 -5.072 1.6a12.788 12.788 0 0 0 -5.272 5.57c-1.86 2.324 -5.2 1.64 -8.556 3.58 -2.082 1.2 -2.88 3.588 -4.774 4.974 -1.706 1.25 -5.146 1.438 -7.858 2.886 -4.326 2.308 -6.434 7.24 -1.692 4.078a33.352 33.352 0 0 1 2.998 -1.9Z" fill="#0a65fc" stroke-width="1"></path></svg>