<svg xmlns="http://www.w3.org/2000/svg" width="299" height="32" viewBox="0 0 299 32" fill="none"><g clip-path="url(#clip0_293_52)"><path d="M138.006 0.10526C137.951 0.160336 137.876 0.304911 137.829 0.435717C137.781 0.559638 137.699 0.779942 137.645 0.917631C137.399 1.58543 137.338 1.75066 137.235 2.01915C137.174 2.18438 137.085 2.42534 137.038 2.55615C136.99 2.68695 136.894 2.93479 136.833 3.10691C136.772 3.27902 136.676 3.53375 136.622 3.67143C136.567 3.81601 136.485 4.05008 136.431 4.18777C136.376 4.33235 136.287 4.58019 136.226 4.73853C136.09 5.11718 135.94 5.51649 135.817 5.84005C135.762 5.98463 135.667 6.23936 135.605 6.41147C135.544 6.58358 135.449 6.83833 135.394 6.976C135.339 7.12054 135.258 7.35462 135.203 7.49236C135.149 7.6369 135.06 7.88473 134.998 8.0431C134.937 8.20834 134.848 8.45617 134.794 8.59384C134.739 8.73845 134.644 8.99316 134.583 9.16528C134.521 9.3374 134.426 9.58523 134.378 9.71602C134.33 9.84688 134.235 10.0947 134.173 10.2668C134.112 10.4389 134.016 10.6937 133.962 10.8313C133.839 11.1618 133.689 11.5611 133.553 11.9329C133.491 12.0981 133.403 12.3391 133.355 12.4699C133.307 12.6006 133.225 12.8347 133.164 12.9862C133.109 13.1376 133.007 13.3993 132.946 13.5713C132.796 13.9638 132.646 14.3631 132.537 14.6729C132.489 14.8037 132.4 15.0446 132.339 15.203C132.277 15.3682 132.182 15.6298 132.121 15.7882C132.059 15.9534 131.984 16.1393 131.95 16.2013C131.916 16.2701 131.889 16.3871 131.889 16.4628C131.889 16.6006 131.93 16.6006 133.785 16.6006H135.687L135.769 16.4078C135.817 16.3045 135.981 15.8983 136.131 15.499C136.281 15.0997 136.465 14.6178 136.54 14.4319C136.615 14.2392 136.703 13.9914 136.731 13.8812C136.799 13.6402 136.881 13.4199 137.344 12.2289C137.535 11.7332 137.72 11.2375 137.754 11.1274C137.849 10.8038 138.033 10.3081 138.088 10.2324C138.122 10.1979 138.163 10.074 138.19 9.96385C138.224 9.8193 138.258 9.78485 138.313 9.83993C138.388 9.91571 138.354 10.4389 138.054 14.5008C137.992 15.2925 137.958 16.0842 137.972 16.2563L137.992 16.5661L139.936 16.5868C141.007 16.5936 141.948 16.5868 142.03 16.5661C142.111 16.5455 142.2 16.4628 142.221 16.3734C142.275 16.1875 142.643 15.1961 142.766 14.9138C142.814 14.7968 142.868 14.6454 142.889 14.5696C142.909 14.4939 142.984 14.2736 143.059 14.0877C143.128 13.8949 143.353 13.3098 143.544 12.7796C143.741 12.2495 143.946 11.7263 144.001 11.6231C144.055 11.5129 144.096 11.3821 144.096 11.3339C144.096 11.2788 144.144 11.1205 144.205 10.9759C144.376 10.5904 144.635 9.92946 144.812 9.44068C144.86 9.30982 144.955 9.06199 145.017 8.88987C145.078 8.71775 145.174 8.46992 145.221 8.33913C145.269 8.20834 145.358 7.96739 145.419 7.80214C145.48 7.64378 145.576 7.38907 145.63 7.23758C145.685 7.08616 145.78 6.83833 145.835 6.68686C145.89 6.53539 145.985 6.28755 146.04 6.13609C146.094 5.98463 146.19 5.73679 146.244 5.58533C146.299 5.43387 146.394 5.18603 146.449 5.03457C146.503 4.88311 146.599 4.63527 146.653 4.48381C146.708 4.33235 146.803 4.07762 146.865 3.91239C146.926 3.75405 147.015 3.5131 147.063 3.38228C147.158 3.12067 147.294 2.74892 147.465 2.29454C147.526 2.13619 147.622 1.88146 147.676 1.73C147.888 1.15171 148.004 0.862557 148.099 0.621599C148.154 0.483908 148.188 0.298026 148.174 0.208528L148.154 0.0432995L146.483 0.022646C145.562 0.00887691 144.717 0.022646 144.601 0.0432995C144.376 0.0846067 144.382 0.0570687 143.789 1.66116C143.735 1.81262 143.639 2.06046 143.585 2.21192C143.53 2.36338 143.441 2.60434 143.387 2.74203C143.332 2.8866 143.244 3.13445 143.182 3.29279C143.121 3.45802 143.025 3.71963 142.964 3.87797C142.753 4.44251 142.671 4.65592 142.459 5.2411C142.071 6.28755 142.036 6.37705 141.948 6.58358C141.9 6.69374 141.839 6.85208 141.818 6.92092C141.791 7.00357 141.75 7.03108 141.709 6.98975C141.668 6.94849 141.682 6.56293 141.743 5.92956C141.798 5.3788 141.845 4.68346 141.845 4.38054C141.845 4.07762 141.893 3.34787 141.941 2.76268C142.057 1.48217 142.098 0.215412 142.03 0.0914908C141.948 -0.0393147 138.142 -0.0255456 138.006 0.10526ZM148.774 0.139683C148.713 0.208528 148.631 0.353102 148.597 0.463255C148.57 0.573407 148.474 0.835016 148.392 1.04155C148.311 1.24809 148.222 1.49593 148.188 1.59231C148.154 1.68869 148.065 1.93654 147.983 2.14307C147.901 2.34961 147.813 2.59745 147.779 2.69383C147.745 2.79022 147.656 3.03806 147.574 3.2446C147.492 3.45113 147.404 3.69898 147.369 3.79536C147.335 3.89174 147.247 4.13958 147.165 4.34612C147.083 4.55265 146.994 4.8005 146.96 4.89688C146.926 4.99326 146.838 5.2411 146.756 5.44764C146.674 5.65417 146.585 5.90202 146.551 5.9984C146.517 6.09479 146.428 6.34262 146.347 6.54916C146.265 6.7557 146.176 7.00351 146.142 7.09991C146.108 7.19632 146.019 7.44415 145.937 7.65066C145.855 7.85723 145.767 8.10506 145.733 8.20146C145.699 8.2978 145.61 8.5457 145.528 8.7522C145.446 8.95877 145.358 9.2066 145.324 9.30294C145.289 9.39935 145.201 9.64718 145.119 9.85375C144.914 10.3907 144.778 10.7556 144.71 10.9552C144.676 11.0516 144.587 11.2995 144.505 11.506C144.423 11.7125 144.335 11.9604 144.301 12.0568C144.267 12.1531 144.178 12.401 144.096 12.6075C144.014 12.8141 143.926 13.0619 143.891 13.1583C143.857 13.2547 143.769 13.5025 143.687 13.7091C143.605 13.9156 143.516 14.1634 143.482 14.2598C143.448 14.3562 143.36 14.6041 143.278 14.8106C143.196 15.0171 143.107 15.265 143.073 15.3614C143.039 15.4577 142.95 15.7055 142.868 15.9121C142.589 16.6281 142.425 16.5661 144.587 16.5868L146.476 16.6006L146.592 16.3803C146.653 16.2632 146.728 16.0842 146.756 15.9878C146.79 15.8915 146.878 15.6367 146.96 15.4302C147.042 15.2236 147.131 14.9758 147.165 14.8795C147.199 14.783 147.288 14.5352 147.369 14.3286C147.451 14.1221 147.54 13.8743 147.574 13.7779C147.608 13.6815 147.697 13.4337 147.779 13.2272C147.86 13.0206 147.949 12.7728 147.983 12.6764C148.017 12.58 148.106 12.3321 148.188 12.1256C148.27 11.9191 148.358 11.6712 148.392 11.5749C148.427 11.4785 148.515 11.2306 148.597 11.0241C148.679 10.8176 148.768 10.5697 148.802 10.4733C148.836 10.3769 148.924 10.1291 149.006 9.92259C149.088 9.71602 149.177 9.46819 149.211 9.37178C149.245 9.27544 149.334 9.02761 149.415 8.82104C149.497 8.61454 149.586 8.36671 149.62 8.2703C149.654 8.17389 149.743 7.92606 149.825 7.71956C149.906 7.51299 149.995 7.26516 150.029 7.16875C150.063 7.07241 150.152 6.82451 150.234 6.61801C150.316 6.41147 150.404 6.16363 150.438 6.06725C150.472 5.97087 150.561 5.72302 150.643 5.51649C150.725 5.30995 150.813 5.06211 150.848 4.96573C150.882 4.86934 150.97 4.6215 151.052 4.41496C151.134 4.20843 151.223 3.96059 151.257 3.8642C151.291 3.76782 151.379 3.51998 151.461 3.31344C151.543 3.10691 151.632 2.85906 151.666 2.76268C151.7 2.6663 151.789 2.41846 151.87 2.21192C151.952 2.00539 152.041 1.75754 152.075 1.66116C152.109 1.56478 152.198 1.31694 152.28 1.1104C152.614 0.24295 152.641 0.132798 152.539 0.0708378C152.491 0.036415 151.652 0.00887691 150.67 0.00887691C149.02 0.00887691 148.883 0.0157615 148.774 0.139683Z" fill="#60546E"></path><path d="M153.269 0.189617C153.208 0.292885 153.126 0.451229 153.098 0.554497C153.064 0.65088 152.976 0.905609 152.894 1.11215C152.812 1.31867 152.723 1.56652 152.689 1.66291C152.655 1.75929 152.566 2.00713 152.485 2.21367C152.403 2.4202 152.307 2.68181 152.273 2.79884C152.239 2.909 152.185 3.06734 152.15 3.14308C152.116 3.2188 151.946 3.68006 151.769 4.17575C151.591 4.66455 151.421 5.1327 151.387 5.20842C151.353 5.28416 151.298 5.43562 151.264 5.55266C151.23 5.6628 151.134 5.9313 151.052 6.13783C150.971 6.34437 150.882 6.59221 150.848 6.68859C150.814 6.78498 150.725 7.03283 150.643 7.23933C150.561 7.44591 150.473 7.69373 150.439 7.79014C150.405 7.88648 150.316 8.13431 150.234 8.34088C150.152 8.54739 150.064 8.79528 150.03 8.89162C149.995 8.98803 149.907 9.23586 149.825 9.44243C149.743 9.64893 149.654 9.89676 149.62 9.99317C149.586 10.0895 149.498 10.3374 149.416 10.5439C149.211 11.0809 149.075 11.4458 149.007 11.6455C148.972 11.7418 148.884 11.9897 148.802 12.1962C148.72 12.4028 148.631 12.6506 148.597 12.7469C148.563 12.8434 148.475 13.0912 148.393 13.2978C148.318 13.5043 148.188 13.8622 148.113 14.0894C148.038 14.3166 147.949 14.5645 147.915 14.6402C147.881 14.716 147.772 14.9913 147.677 15.2598C147.581 15.5214 147.479 15.8037 147.445 15.8794C147.104 16.6712 146.947 16.6023 149.136 16.6023C151.032 16.6023 151.046 16.6023 151.148 16.4508C151.209 16.3683 151.257 16.2443 151.257 16.1823C151.257 16.1135 151.298 15.9758 151.353 15.8656C151.407 15.7624 151.503 15.5421 151.557 15.3769C151.619 15.2185 151.714 14.9638 151.769 14.8123C151.823 14.6609 151.912 14.4199 151.966 14.2753C152.021 14.1376 152.11 13.8898 152.171 13.7246C152.232 13.5662 152.321 13.3184 152.376 13.1738C152.43 13.0361 152.614 12.5473 152.792 12.0929C152.962 11.6386 153.146 11.1567 153.201 11.0258C153.542 10.1377 153.603 10 153.651 10.0758C153.671 10.124 153.719 11.2943 153.746 12.6781C153.774 14.0619 153.814 15.5008 153.842 15.8794L153.883 16.5679L156.406 16.6023L158.929 16.6367L158.595 16.7882C158.411 16.8777 158.213 16.9465 158.152 16.9465C158.084 16.9465 157.899 16.9878 157.729 17.0429C157.565 17.0911 157.231 17.1943 156.986 17.2564C156.474 17.394 155.922 17.5454 155.485 17.6694C155.315 17.7176 154.981 17.8071 154.735 17.8691C154.49 17.9379 154.121 18.0343 153.917 18.0894C153.242 18.2752 152.798 18.3992 152.43 18.4955C152.021 18.6125 151.489 18.7572 150.964 18.9017C150.773 18.9568 150.411 19.0532 150.166 19.1151C149.92 19.184 149.586 19.2735 149.416 19.3216C149.245 19.3699 148.911 19.4594 148.666 19.5282C148.42 19.5971 148.086 19.6866 147.915 19.7347C147.745 19.7829 147.411 19.8725 147.165 19.9413C146.92 20.0032 146.551 20.0997 146.347 20.1616C146.142 20.2167 145.808 20.3062 145.61 20.3612C145.085 20.5058 144.553 20.6504 144.144 20.7606C143.953 20.8156 143.592 20.912 143.346 20.9739C143.101 21.0428 142.767 21.1323 142.596 21.1805C142.426 21.2287 142.091 21.3182 141.846 21.387C141.307 21.5316 140.755 21.683 140.345 21.8001C140.175 21.8483 139.841 21.9378 139.595 22.0067C139.35 22.0686 139.002 22.165 138.811 22.2132C137.693 22.5161 137.454 22.5505 136.185 22.5436C134.89 22.5436 134.719 22.523 133.628 22.1788C133.403 22.1099 133.028 21.9447 132.789 21.8208C132.551 21.6969 132.278 21.5523 132.175 21.4972C132.073 21.4421 131.698 21.1048 131.343 20.7399C130.846 20.2304 130.641 19.9619 130.443 19.5626C129.986 18.6057 129.836 17.9998 129.795 16.9121C129.761 16.0309 129.898 15.012 130.184 14.0206C130.266 13.7521 130.355 13.4423 130.389 13.3321C130.484 13.0017 130.634 12.6162 130.928 11.9277C131.364 10.9157 131.296 10.957 130.211 12.3132C128.868 14 127.954 15.2736 126.829 17.0498C126.665 17.3114 126.501 17.5799 126.481 17.635C126.454 17.6901 126.372 17.8277 126.297 17.9448C126.16 18.1651 126.092 18.2821 125.758 18.9086C124.987 20.3337 124.449 21.5798 124.149 22.6262C123.883 23.5419 123.849 23.6796 123.746 24.2097C123.589 25.0221 123.603 26.5504 123.774 27.17C124.053 28.1958 124.333 28.719 124.96 29.3938C125.615 30.089 126.958 31.0322 127.565 31.2181C127.64 31.2388 127.865 31.3214 128.07 31.3971C129.018 31.762 129.577 31.8446 131.139 31.8446C132.619 31.8446 132.96 31.8033 134.174 31.5004C134.856 31.3283 135.879 31.0253 136.185 30.9083C136.274 30.8739 136.533 30.7844 136.765 30.7087C136.99 30.6329 137.406 30.4746 137.686 30.3576C137.965 30.2474 138.32 30.1029 138.47 30.0478C138.62 29.9858 138.838 29.9032 138.947 29.8481C139.063 29.7999 139.718 29.5245 140.414 29.2354C141.935 28.5951 142.01 28.5607 142.357 28.4092C142.507 28.3473 142.732 28.2509 142.855 28.1958C142.971 28.1407 143.183 28.0512 143.312 27.9962C143.612 27.8585 143.96 27.707 144.267 27.5831C144.396 27.528 144.615 27.4316 144.744 27.3765C145.106 27.2251 145.433 27.0874 145.719 26.9566C145.856 26.8946 146.067 26.8052 146.176 26.757C146.674 26.5504 147.172 26.337 147.609 26.1443C147.759 26.0754 147.977 25.979 148.086 25.9308C148.202 25.8826 148.406 25.7931 148.543 25.7312C148.829 25.6003 149.157 25.4627 149.518 25.3112C150.077 25.0703 150.343 24.9532 151.141 24.5952C151.393 24.4782 151.625 24.3818 151.659 24.3818C151.694 24.3818 151.823 24.3267 151.953 24.2648C152.28 24.0995 152.137 24.1615 155.451 22.7295C157.136 21.9998 158.561 21.3801 158.622 21.3526C158.827 21.2562 159.209 21.091 159.577 20.9396C159.782 20.8569 160.123 20.7124 160.327 20.6159C160.941 20.3337 161.132 20.2511 161.384 20.1478C161.882 19.9344 162.523 19.6521 162.714 19.5626C162.776 19.5351 163.983 19.005 165.408 18.3923C166.833 17.7795 168.04 17.2494 168.102 17.2219C168.218 17.1599 168.606 16.9947 168.941 16.857C169.193 16.7469 169.657 16.5403 169.807 16.4646C169.868 16.4371 171.184 15.8656 172.739 15.191C174.294 14.5163 175.61 13.9449 175.672 13.9173C175.767 13.8691 175.931 13.7934 176.49 13.5593C176.783 13.4354 177.24 13.2289 177.383 13.16C177.438 13.1325 178.222 12.7883 179.122 12.4028C180.016 12.0172 180.78 11.673 180.821 11.6386C180.855 11.6041 180.923 11.5766 180.971 11.5766C181.018 11.5766 181.257 11.4802 181.489 11.3701C181.728 11.253 181.946 11.1636 181.973 11.1636C181.994 11.1636 182.225 11.0671 182.478 10.9501C182.73 10.8262 183.03 10.6885 183.139 10.6403C184.012 10.2548 184.183 10.1446 184.094 9.99317C184.033 9.89676 183.842 9.90364 183.426 10.0276C182.982 10.1653 182.519 10.2892 181.946 10.4406C181.7 10.5095 181.366 10.599 181.196 10.6472C181.025 10.6954 180.691 10.7849 180.445 10.8537C180.2 10.9226 179.866 11.0121 179.695 11.0603C179.525 11.1085 179.191 11.1979 178.945 11.2668C178.7 11.3287 178.338 11.4251 178.147 11.4802C177.949 11.5353 177.622 11.6179 177.431 11.673C177.233 11.728 176.872 11.8245 176.626 11.8864C176.381 11.9552 176.033 12.0517 175.842 12.0998C174.826 12.389 174.158 12.5748 173.626 12.7126C173.38 12.7814 173.046 12.8709 172.876 12.9191C172.705 12.9673 172.371 13.0568 172.125 13.1256C171.88 13.1945 171.546 13.2839 171.375 13.3321C171.205 13.3803 170.871 13.4699 170.625 13.5387C170.38 13.6007 170.018 13.697 169.827 13.7521C169.629 13.8072 169.302 13.8898 169.111 13.9449C168.913 14 168.552 14.0963 168.306 14.1652C167.406 14.3992 167.106 14.4819 166.956 14.5438C166.867 14.5782 166.738 14.6058 166.663 14.6058C166.54 14.6058 166.526 14.5782 166.567 14.3786C166.595 14.2616 166.656 14.0826 166.704 13.9862C166.751 13.8898 166.806 13.7383 166.813 13.6419L166.84 13.4699L164.733 13.4492C163.403 13.4423 162.591 13.4079 162.537 13.3597C162.482 13.3115 162.469 13.2358 162.51 13.1049C162.707 12.4785 163.41 10.5921 163.635 10.0758C163.689 9.95185 163.737 9.79348 163.737 9.71777C163.737 9.64893 163.805 9.53877 163.887 9.48369C164.017 9.38735 164.317 9.37353 165.79 9.37353C167.74 9.37353 167.631 9.4011 167.795 8.87787C167.849 8.71263 167.952 8.40972 168.034 8.20322C168.593 6.7299 168.668 6.50272 168.627 6.38568C168.586 6.2893 168.388 6.27553 166.874 6.27553C165.503 6.27553 165.156 6.25487 165.128 6.17914C165.094 6.08964 165.715 4.29967 166.097 3.3978C166.151 3.27388 166.192 3.1293 166.192 3.06735C166.192 2.87458 166.547 2.83327 168.381 2.83327H170.216L170.325 2.57166C170.386 2.43397 170.461 2.2412 170.489 2.14482C170.523 2.04844 170.611 1.80059 170.693 1.59406C170.775 1.38752 170.864 1.13968 170.898 1.0433C170.932 0.946916 171.021 0.705956 171.096 0.499421C171.171 0.292885 171.218 0.107003 171.198 0.0863498C171.177 0.0656962 168.545 0.0381582 165.34 0.0243891C159.864 0.0106201 159.516 0.0175046 159.386 0.127657C159.25 0.251578 157.04 2.91588 156.576 3.52172C156.447 3.69384 156.27 3.90726 156.188 4.00364C156.106 4.10002 155.942 4.27901 155.833 4.40294C155.601 4.67144 155.485 4.58882 155.642 4.25836C155.697 4.13444 155.792 3.90726 155.854 3.74203C156.249 2.67493 156.283 2.57854 156.679 1.55963C156.849 1.10525 157.04 0.630227 157.095 0.506305C157.218 0.217156 157.218 0.107003 157.081 0.0519272C157.02 0.0312737 156.167 0.0106201 155.178 0.0106201H153.385L153.269 0.189617ZM163.103 0.919376C163.082 1.00887 163.001 1.24983 162.919 1.45637C162.837 1.66291 162.748 1.91074 162.714 2.00713C162.68 2.10351 162.591 2.35136 162.51 2.55789C162.428 2.76443 162.339 3.01227 162.305 3.10865C162.271 3.20503 162.182 3.45288 162.1 3.65941C162.019 3.86595 161.93 4.11379 161.896 4.21017C161.862 4.30656 161.773 4.5544 161.691 4.76093C161.609 4.96747 161.521 5.21531 161.487 5.3117C161.453 5.40808 161.364 5.65592 161.282 5.86246C161.2 6.06899 161.112 6.31684 161.078 6.41322C161.043 6.5096 160.955 6.75744 160.873 6.964C160.791 7.1705 160.702 7.41833 160.668 7.51474C160.634 7.61115 160.546 7.85898 160.464 8.06548C160.382 8.27205 160.293 8.51988 160.259 8.61629C160.225 8.71263 160.136 8.96046 160.055 9.16703C159.973 9.37353 159.884 9.62143 159.85 9.71777C159.816 9.81418 159.727 10.062 159.645 10.2686C159.563 10.4751 159.475 10.7229 159.441 10.8193C159.373 11.0189 159.236 11.3838 159.032 11.9208C158.95 12.1274 158.861 12.3752 158.827 12.4716C158.793 12.5679 158.704 12.8158 158.622 13.0223C158.541 13.2289 158.452 13.4767 158.418 13.5731C158.384 13.6695 158.295 13.9173 158.213 14.1239C158.131 14.3304 158.036 14.5989 158.002 14.7228C157.947 14.9018 157.763 15.074 157.695 15.0051C157.688 14.9913 157.647 13.4217 157.606 11.5077C157.565 9.59385 157.511 7.79702 157.49 7.50786C157.443 6.90892 157.443 6.90204 157.988 6.32372C158.172 6.12407 158.472 5.79361 158.656 5.58707C158.834 5.38054 159.311 4.85043 159.707 4.41671C160.102 3.98298 160.614 3.42534 160.839 3.17749C161.064 2.92966 161.514 2.42709 161.841 2.06909C162.169 1.70421 162.564 1.2636 162.721 1.09149C163.028 0.74038 163.158 0.685299 163.103 0.919376Z" fill="#60546E"></path><path d="M172.331 0.127657C172.017 0.347961 171.929 0.51319 171.922 0.850528C171.922 1.11903 171.963 1.22229 172.133 1.42195C172.331 1.64913 172.372 1.66291 172.747 1.66291C173.095 1.66291 173.177 1.63537 173.368 1.46325C173.572 1.27737 173.593 1.22229 173.593 0.871185C173.593 0.506305 173.572 0.464998 173.34 0.244693C173.129 0.0519272 173.027 0.0106201 172.788 0.0106201C172.624 0.0106201 172.426 0.0588117 172.331 0.127657ZM173.34 0.809221C173.361 1.06395 173.272 1.20164 173.129 1.13968C173.006 1.09149 172.965 0.836761 173.081 0.836761C173.122 0.836761 173.149 0.774804 173.149 0.69219C173.149 0.471882 173.32 0.57515 173.34 0.809221ZM172.351 0.781687C172.399 0.940026 172.358 1.0433 172.256 1.0433C172.222 1.0433 172.195 0.946916 172.195 0.836761C172.195 0.595803 172.297 0.561381 172.351 0.781687ZM172.931 1.33245C172.911 1.38064 172.842 1.42195 172.774 1.42195C172.706 1.42195 172.638 1.38064 172.624 1.33245C172.604 1.28426 172.658 1.24983 172.774 1.24983C172.89 1.24983 172.945 1.28426 172.931 1.33245ZM133.527 19.5764C132.797 19.7554 132.695 20.7812 133.37 21.1048C133.827 21.3251 134.331 21.1668 134.55 20.733C134.734 20.375 134.72 20.2511 134.488 19.9275C134.256 19.6108 133.915 19.48 133.527 19.5764ZM133.445 20.4301C133.431 20.5816 133.397 20.6917 133.356 20.6779C133.254 20.6504 133.199 20.3681 133.268 20.1891C133.356 19.9413 133.472 20.1065 133.445 20.4301ZM133.854 20.1203C133.84 20.1616 133.8 20.1891 133.765 20.1891C133.731 20.1891 133.69 20.1616 133.677 20.1203C133.663 20.079 133.704 20.0446 133.765 20.0446C133.827 20.0446 133.868 20.079 133.854 20.1203ZM134.345 20.3887C134.345 20.4507 134.304 20.554 134.256 20.6228C134.181 20.7261 134.154 20.733 134.086 20.6504C134.031 20.5747 134.025 20.4852 134.079 20.2855C134.147 20.0308 134.161 20.0239 134.25 20.1478C134.304 20.2167 134.345 20.3268 134.345 20.3887ZM133.84 20.8431C133.806 20.9327 133.772 20.9396 133.718 20.8845C133.677 20.8431 133.663 20.7606 133.69 20.6917C133.725 20.6022 133.759 20.5953 133.813 20.6504C133.854 20.6917 133.868 20.7743 133.84 20.8431Z" fill="#60546E"></path></g><mask id="mask0_293_52" style="mask-type:luminance" maskUnits="userSpaceOnUse" x="205" y="0" width="94" height="32"><path d="M298.182 0H205.091V32H298.182V0Z" fill="white"></path></mask><g mask="url(#mask0_293_52)"><path d="M298.124 7.6188C299.392 15.1427 279.608 24.9958 253.931 29.626C228.256 34.2561 206.414 31.9066 205.148 24.3797C203.883 16.8547 223.672 7.00469 249.347 2.37562C275.022 -2.25664 296.86 0.0928423 298.124 7.6188Z" fill="#60546E"></path><path d="M273.959 18.7886L273.827 10.9651H276.21V20.8257H272.784L270.406 12.7333H270.355L270.487 20.8257H268.119V10.9651H271.693L273.905 18.7886H273.959Z" fill="white"></path><path d="M230.644 11.8884L229.326 20.9295H226.728L228.512 10.9651H232.793L234.57 20.9295H231.981L230.699 11.8884H230.644Z" fill="white"></path><path d="M240.621 20.9295L239.011 11.9709H238.959L238.899 20.9295H236.488L236.701 10.9651H240.628L241.816 18.5821H241.868L243.057 10.9651H246.982L247.191 20.9295H244.785L244.722 11.9709H244.672L243.063 20.9295H240.621Z" fill="white"></path><path d="M222.673 18.1211C222.767 18.3625 222.739 18.6728 222.695 18.8601C222.614 19.1916 222.397 19.5293 221.757 19.5293C221.154 19.5293 220.787 19.1714 220.787 18.6241V17.6595H218.206L218.204 18.4313C218.204 20.6527 219.894 21.3229 221.704 21.3229C223.444 21.3229 224.878 20.7067 225.106 19.0465C225.223 18.1857 225.136 17.6224 225.096 17.4096C224.69 15.3238 221.037 14.7012 220.765 13.5344C220.719 13.3343 220.732 13.1225 220.755 13.0092C220.821 12.6916 221.032 12.3411 221.634 12.3411C222.197 12.3411 222.529 12.7011 222.529 13.2453C222.529 13.4285 222.529 13.8605 222.529 13.8605H224.929V13.1606C224.929 10.9901 223.048 10.6512 221.684 10.6512C219.972 10.6512 218.573 11.2368 218.318 12.8589C218.248 13.3067 218.238 13.7059 218.339 14.2057C218.759 16.2417 222.178 16.8315 222.673 18.1211Z" fill="white"></path><path d="M253.972 18.106C254.067 18.3452 254.037 18.647 253.994 18.8345C253.915 19.1648 253.7 19.4972 253.064 19.4972C252.469 19.4972 252.106 19.1394 252.106 18.6047L252.104 17.6486H249.549L249.546 18.4098C249.546 20.609 251.22 21.2729 253.012 21.2729C254.734 21.2729 256.155 20.6651 256.378 19.0197C256.495 18.1653 256.412 17.6094 256.37 17.4008C255.966 15.334 252.35 14.7179 252.081 13.5627C252.035 13.3636 252.048 13.154 252.072 13.047C252.14 12.7273 252.347 12.3853 252.943 12.3853C253.501 12.3853 253.826 12.7368 253.826 13.2768C253.826 13.4579 253.826 13.8856 253.826 13.8856H256.208V13.1932C256.208 11.0459 254.341 10.7092 252.991 10.7092C251.299 10.7092 249.911 11.2873 249.66 12.8977C249.591 13.3393 249.584 13.731 249.683 14.2286C250.097 16.2436 253.482 16.829 253.972 18.106Z" fill="white"></path><path d="M262.054 19.4429C262.722 19.4429 262.93 18.9643 262.976 18.7197C262.996 18.6117 263.001 18.4677 262.999 18.3386V10.9651H265.433V18.1131C265.438 18.2962 265.421 18.6731 265.412 18.7674C265.242 20.6277 263.821 21.2312 262.053 21.2312C260.283 21.2312 258.861 20.6277 258.692 18.7674C258.684 18.6731 258.667 18.2962 258.672 18.1131V10.9651H261.104V18.3386C261.104 18.4677 261.108 18.6128 261.126 18.7197C261.178 18.9643 261.381 19.4429 262.054 19.4429Z" fill="white"></path><path d="M282.133 19.3397C282.83 19.3397 283.074 18.8834 283.118 18.6176C283.136 18.5033 283.141 18.3646 283.14 18.2386V16.7923H282.152V15.3375H285.565V18.012C285.562 18.1983 285.559 18.336 285.53 18.6684C285.369 20.4811 283.85 21.128 282.145 21.128C280.436 21.128 278.92 20.4811 278.757 18.6684C278.729 18.336 278.725 18.1983 278.722 18.012L278.724 13.816C278.724 13.6391 278.746 13.3257 278.764 13.1595C278.978 11.297 280.436 10.6978 282.145 10.6978C283.852 10.6978 285.346 11.2939 285.522 13.1595C285.554 13.4771 285.544 13.816 285.544 13.816V14.1484H283.117V13.5904C283.12 13.5915 283.114 13.3532 283.085 13.2114C283.045 12.9911 282.86 12.4851 282.126 12.4851C281.425 12.4851 281.219 12.9637 281.168 13.2114C281.138 13.3427 281.128 13.5205 281.128 13.6815V18.2386C281.125 18.3646 281.133 18.5033 281.152 18.6176C281.194 18.8845 281.436 19.3397 282.133 19.3397Z" fill="white"></path></g><path d="M21.8623 7.78828V17.7453C21.8623 17.9067 21.7985 18.0615 21.6851 18.1757C21.5717 18.2898 21.4179 18.3539 21.2576 18.3539H18.1344C17.9741 18.3539 17.8203 18.2897 17.707 18.1756C17.5936 18.0614 17.5298 17.9067 17.5297 17.7453V1.5497C17.5297 1.38829 17.5935 1.2335 17.7069 1.11938C17.8203 1.00525 17.9741 0.941129 18.1344 0.941129H21.0246C21.1849 0.941129 21.3387 1.00525 21.4521 1.11938C21.5655 1.2335 21.6293 1.38829 21.6293 1.5497V3.83047C21.6293 3.83047 22.6624 0.57701 25.7284 0.57701C25.7284 0.57701 28.7612 0.208062 29.9943 3.59568C29.9943 3.59568 31.0274 0.57701 34.16 0.57701C34.16 0.57701 38.819 0.29822 38.819 5.14983L38.8543 7.82182V17.7789C38.8543 17.9402 38.7907 18.0951 38.6773 18.2092C38.5639 18.3233 38.4101 18.3874 38.2496 18.3874H35.1263C34.966 18.3874 34.8122 18.3232 34.6988 18.2091C34.5854 18.095 34.5217 17.9402 34.5216 17.7789L34.4931 6.91622C34.5819 4.45647 32.6046 4.63545 32.6046 4.63545C30.1164 4.68026 30.3558 7.82182 30.3558 7.82182V17.7789C30.3558 17.9402 30.292 18.0951 30.1786 18.2092C30.0652 18.3233 29.9114 18.3874 29.7511 18.3874H26.628C26.4676 18.3874 26.3138 18.3232 26.2005 18.2091C26.0871 18.095 26.0234 17.9402 26.0233 17.7789V7.16201C26.0233 7.16201 26.2059 4.61291 23.984 4.61291C23.984 4.61291 21.7847 4.32231 21.8623 7.78828ZM102.368 7.7585V17.7153C102.368 17.8767 102.304 18.0314 102.191 18.1456C102.077 18.2596 101.923 18.3238 101.763 18.3238L98.5149 18.3872C98.3546 18.3871 98.2008 18.323 98.0874 18.2088C97.974 18.0948 97.9103 17.94 97.9102 17.7786V7.16201C97.9102 7.16201 98.0929 4.61291 95.8711 4.61291C95.8711 4.61291 93.7491 4.50772 93.7491 8.50444V17.745C93.7491 17.9065 93.6853 18.0612 93.5719 18.1753C93.4585 18.2895 93.3048 18.3536 93.1445 18.3537H90.0211C89.8607 18.3536 89.7069 18.2895 89.5936 18.1753C89.4802 18.0612 89.4165 17.9065 89.4164 17.745V1.5497C89.4165 1.38831 89.4802 1.23357 89.5936 1.11945C89.7069 1.00534 89.8607 0.9412 90.0211 0.941129H92.9112C93.0715 0.941129 93.2253 1.00525 93.3387 1.11938C93.4521 1.2335 93.5159 1.38829 93.5159 1.5497V3.83047C93.5159 3.83047 94.549 0.57701 97.615 0.57701C97.615 0.57701 100.899 0.0755091 102.006 3.53262C102.006 3.53262 102.368 4.24557 102.368 7.7585ZM79.8175 0.509929C75.8236 0.509929 72.5856 3.89755 72.5856 9.59948C72.5856 14.6196 75.0851 18.689 79.8175 18.689C84.2833 18.689 87.0494 14.6196 87.0494 9.59948C87.0494 3.99817 83.8117 0.509929 79.8175 0.509929ZM82.3384 9.80073C82.3384 11.9474 82.0718 13.0877 82.0718 13.0877C81.6924 15.357 80.0555 15.3602 79.8143 15.3481C79.5538 15.3586 77.9032 15.3349 77.5617 13.0877C77.5617 13.0877 77.2951 11.9474 77.2951 9.80073V9.44305C77.2951 7.29644 77.5617 6.15605 77.5617 6.15605C77.9032 3.90882 79.5541 3.88521 79.8143 3.8954C80.0555 3.88333 81.6924 3.88628 82.0718 6.15605C82.0718 6.15605 82.3384 7.29644 82.3384 9.44305V9.80073ZM70.7729 3.80793V1.48422C70.7728 1.32285 70.7091 1.16809 70.5957 1.05398C70.4823 0.939869 70.3286 0.875729 70.1682 0.875658H59.8449C59.6846 0.875658 59.5307 0.939775 59.4173 1.0539C59.304 1.16803 59.2402 1.32282 59.2402 1.48422V3.78995C59.2403 3.95133 59.304 4.10608 59.4174 4.22019C59.5307 4.33431 59.6846 4.39844 59.8449 4.39851H65.2297L58.8561 13.7041C58.8561 13.7041 58.6049 14.0813 58.6131 14.4981V17.3286C58.6131 17.3286 58.5715 18.2992 59.6652 17.736C59.6652 17.736 61.6077 16.5547 64.8649 16.5547C64.8649 16.5547 68.0817 16.5145 70.2263 17.8376C70.2263 17.8376 71.1165 18.245 71.1165 17.3493V14.8855C71.1165 14.8855 71.1974 14.2335 70.3476 13.8264C70.3476 13.8264 67.8793 12.4623 64.6423 12.686L70.7729 3.80793ZM15.1193 15.4576L14.1417 13.9597C13.8305 13.4006 13.8529 12.7743 13.8529 12.7743V5.86518C13.9862 -0.105075 7.40964 0.409307 7.40964 0.409307C1.56332 0.409307 0.699757 4.98829 0.699757 4.98829C0.456072 5.90892 1.16473 5.9312 1.16473 5.9312L4.0215 6.22286C4.0215 6.22286 4.50861 6.33503 4.68591 5.75142C4.68591 5.75142 5.0621 3.75372 7.16595 3.75372C9.4551 3.75372 9.43137 5.73102 9.43137 5.73102V7.38633C4.8616 7.54007 2.74389 8.81677 2.74389 8.81677C-0.0776894 10.4267 0.0998753 13.6244 0.0998753 13.6244C0.0998753 18.8342 5.03224 18.6104 5.03224 18.6104C8.18708 18.6104 10.0534 16.2851 10.0534 16.2851C10.6088 17.2694 11.631 18.2079 11.631 18.2079C12.1423 18.766 12.6752 18.2975 12.6752 18.2975L14.986 16.3076C15.4969 15.9271 15.1193 15.4576 15.1193 15.4576ZM6.57194 15.3931C5.08796 15.3931 4.53633 13.9091 4.78268 12.4505C5.0293 10.9918 6.31012 9.84554 9.43164 9.87908V10.7659C9.54228 14.64 7.80716 15.3931 6.57194 15.3931ZM56.6221 15.4576L55.6447 13.9597C55.3336 13.4006 55.3556 12.7743 55.3556 12.7743V5.86518C55.489 -0.105075 48.9124 0.409307 48.9124 0.409307C43.0661 0.409307 42.2025 4.98829 42.2025 4.98829C41.9588 5.90892 42.6675 5.9312 42.6675 5.9312L45.5243 6.22286C45.5243 6.22286 46.0113 6.33503 46.1886 5.75142C46.1886 5.75142 46.5648 3.75372 48.6687 3.75372C50.9578 3.75372 50.9341 5.73102 50.9341 5.73102V7.38633C46.3646 7.54007 44.2467 8.81677 44.2467 8.81677C41.425 10.4267 41.6026 13.6244 41.6026 13.6244C41.6026 18.8342 46.535 18.6104 46.535 18.6104C49.6899 18.6104 51.5561 16.2851 51.5561 16.2851C52.1118 17.2694 53.1335 18.2079 53.1335 18.2079C53.6448 18.766 54.178 18.2975 54.178 18.2975L56.4885 16.3076C56.9996 15.9271 56.6221 15.4576 56.6221 15.4576ZM48.0747 15.3931C46.5907 15.3931 46.0391 13.9091 46.2855 12.4505C46.532 10.9918 47.8129 9.84554 50.9341 9.87908V10.7659C51.045 14.64 49.3102 15.3931 48.0747 15.3931Z" fill="#60546E"></path><path d="M64.4863 28.5352C64.4863 28.5352 64.225 28.9927 64.546 29.095C64.546 29.095 64.9086 29.2374 65.3608 28.8151C65.3608 28.8151 68.6585 25.9158 68.738 20.6373C68.738 20.6373 68.7622 19.9781 68.4994 19.7977C68.4994 19.7977 67.4663 18.8779 63.7513 19.1577C63.7513 19.1577 60.5129 19.3778 58.7451 20.9574C58.7451 20.9574 58.5861 21.0972 58.5861 21.2769C58.5861 21.2769 58.548 21.6653 59.5198 21.497C59.5198 21.497 62.7579 21.0368 64.6849 21.2769C64.6849 21.2769 65.6786 21.3969 65.9567 21.7371C65.9567 21.7371 66.4136 22.1171 66.1751 23.3764C66.1751 23.3764 65.5191 26.5759 64.4863 28.5352Z" fill="#60546E"></path><path d="M63.8337 23.4712C63.8337 23.4712 64.3173 24.1017 63.537 24.6456C63.537 24.6456 55.2007 31.3565 41.2035 31.3565C41.2035 31.3565 26.7951 32.0718 14.7641 21.0704C14.7641 21.0704 14.3424 20.6977 14.6042 20.3513C14.6042 20.3513 14.8382 20.0325 15.4443 20.3792C15.4443 20.3792 26.7618 27.4767 41.6256 27.4767C41.6256 27.4767 51.9569 27.8792 62.5548 23.3177C62.5548 23.3177 63.3991 22.8773 63.8337 23.4712Z" fill="#60546E"></path><defs><clipPath id="clip0_293_52"><rect width="61.0909" height="32" fill="white" transform="translate(123.637)"></rect></clipPath></defs></svg>