<svg xmlns="http://www.w3.org/2000/svg" fill="none" viewBox="0 0 400 400" id="Media-Content-Multiple-Content--Streamline-Brooklyn.svg" height="400" width="400"><desc>Media Content Multiple Content Streamline Illustration: https://streamlinehq.com</desc><g id="media-content-multiple-content--media-content-multiple-content"><g id="photo"><path id="vector" fill="#2862e9" d="M254.56 123.662c-1.082 4.7062 -3.942 8.8112 -7.982 11.4556 -4.042 2.6444 -8.948 3.6228 -13.694 2.7304 -24.154 -5.328 -17.2 -39.9 7.486 -35.128 4.652 0.9066 8.758 3.6186 11.416 7.5428 2.66 3.9244 3.656 8.7418 2.774 13.3992Z" stroke-width="1"></path><path id="Subtract" fill="#2862e9" fill-rule="evenodd" d="M389.366 105.4742c-0.736 -0.822 -2.132 -1.0522 -4.328 -1.5082 -16.578 -3.438 -150.818 -30.366 -179.546 -35.114 -0.368 -0.0604 -0.694 -0.115 -1.004 -0.0638 -2.77 0.4584 -4.136 9.4118 -21.3244 98.7422l5.6522 -1.4092c7.4558 -37.3886 12.0482 -60.6508 17.6402 -90.2972 0.11 -0.5872 0.19 -1.017 0.442 -1.2882 1.342 -1.4496 7.574 1.6282 49.58 9.3782 0.002 0.0002 0.068 0.0134 0.196 0.0392 4.986 0.9932 103.356 20.5952 126.296 24.6368 0.494 0.0868 0.868 0.151 1.112 0.3628 1.186 1.0234 -0.604 5.4944 -6.072 32.6192 -7.59 37.6996 -11.054 55.891 -12.73 64.688 -1.568 8.234 -1.57 8.242 -1.918 8.312 -0.512 0.102 -5.126 -7.288 -10.668 -16.1634 -5.918 -9.4794 -12.896 -20.6528 -17.06 -26.2006 -0.904 -1.205 -1.688 -2.281 -2.378 -3.229 -3.988 -5.4738 -4.87 -6.687 -8.05 -3.881 -28.272 24.9578 -42.166 37.44 -49.076 43.442l1.178 4.726c24.886 -22.2368 48.432 -43.5546 48.946 -44.09 0.996 -1.032 1.512 -0.548 2.048 0.452 4.084 7.5852 15.988 25.2218 25.368 39.116 1.984 2.938 3.854 5.71 5.514 8.184 0.156 0.234 0.39 0.476 0.658 0.754 1.248 1.298 3.23 3.356 1.502 8.812 -0.418 1.322 -0.818 3.428 -2.006 9.67 -1.008 5.306 -2.586 13.6 -5.226 26.938 -3.702 18.718 -3.458 22.982 -4.846 23.604 -0.39 0.174 -0.91 0.062 -1.682 -0.098 -21.91 -4.548 -39.834 -8.182 -54.772 -11.162l1.312 5.262c0.048 0.188 0.092 0.376 0.132 0.566 26.58 5.25 48.6 9.52 57.006 10.99 0.524 0.092 0.914 0.174 1.242 0.066 1.18 -0.39 1.54 -3.262 4.444 -17.14 4.826 -23.062 26.112 -130.998 26.332 -132.224 5.122 -28.4508 8.118 -35.224 6.086 -37.4918Z" clip-rule="evenodd" stroke-width="1"></path></g><g id="video"><path id="vector_2" fill="#191919" d="M278.454 306.8 86.8 354.568c-5.536 1.374 -11.3908 0.494 -16.28 -2.442 -4.889 -2.938 -8.4134 -7.696 -9.8 -13.228l-27.846 -111.726c-1.3734 -5.536 -0.4948 -11.39 2.4428 -16.28 2.9376 -4.89 7.6944 -8.414 13.2272 -9.8L240.2 153.314c5.536 -1.3732 11.39 -0.4946 16.278 2.443 4.888 2.9378 8.412 7.6946 9.798 13.227l27.858 111.726c1.376 5.538 0.498 11.398 -2.442 16.288 -2.94 4.892 -7.702 8.418 -13.238 9.802ZM49.426 204.63c-4.5952 1.152 -8.546 4.078 -10.9858 8.138 -2.4398 4.062 -3.1692 8.924 -2.0282 13.522l27.858 111.73c1.1508 4.596 4.0774 8.546 8.1378 10.986 4.0604 2.44 8.9226 3.168 13.5202 2.028l191.648 -47.782c4.596 -1.152 8.546 -4.078 10.986 -8.14 2.44 -4.06 3.168 -8.922 2.028 -13.52l-27.858 -111.73c-1.152 -4.5948 -4.078 -8.5452 -8.138 -10.985 -4.06 -2.4396 -8.922 -3.1694 -13.52 -2.029l-191.648 47.782Z" stroke-width="1"></path><path id="vector_3" fill="#2862e9" d="M188.8258 243.164c-35.648 37.688 -34.564 37 -36 37.35 -0.8388 0.21 -1.7264 0.076 -2.4676 -0.368 -0.7412 -0.446 -1.2752 -1.168 -1.4844 -2.006 -7.46 -29.922 -10.328 -40.374 -11 -44.478 -0.524 -3.236 0.74 -4.462 4 -4.128 4.228 0.436 14.964 2.656 45.164 8.188 0.577 0.106 1.1148 0.364 1.5568 0.75 0.442 0.384 0.772 0.882 0.955 1.44 0.183 0.556 0.2124 1.152 0.085 1.726 -0.1274 0.572 -0.4068 1.1 -0.8088 1.526Z" stroke-width="1"></path><path id="vector_4" fill="#191919" d="M263.85 292.776c0.456 -0.128 0.844 -0.43 1.082 -0.84 0.238 -0.41 0.306 -0.896 0.192 -1.356 -0.114 -0.46 -0.404 -0.858 -0.806 -1.108 -0.402 -0.25 -0.886 -0.334 -1.35 -0.234L98.6778 330.2c-0.2508 0.022 -0.4944 0.096 -0.7152 0.218 -0.221 0.12 -0.4144 0.286 -0.5684 0.486 -0.1542 0.2 -0.2654 0.428 -0.3268 0.672 -0.0614 0.244 -0.0718 0.498 -0.0302 0.748 0.0414 0.248 0.1336 0.486 0.271 0.696 0.1372 0.212 0.3168 0.392 0.527 0.53 0.2104 0.14 0.447 0.232 0.6954 0.276 0.2482 0.042 0.5026 0.034 0.7472 -0.026l164.5722 -41.024Z" stroke-width="1"></path><path id="vector_5" fill="#191919" d="m49.1378 221.6 51.63 -12.87c0.4564 -0.128 0.8446 -0.43 1.0824 -0.84 0.238 -0.41 0.3068 -0.896 0.1922 -1.356 -0.1146 -0.46 -0.404 -0.858 -0.8064 -1.108 -0.4026 -0.25 -0.8868 -0.334 -1.3502 -0.234l-51.63 12.874c-0.456 0.128 -0.8444 0.43 -1.0822 0.84 -0.238 0.408 -0.3068 0.896 -0.1922 1.356 0.1148 0.458 0.4042 0.856 0.8068 1.106 0.4026 0.25 0.8868 0.334 1.3496 0.232Z" stroke-width="1"></path><path id="vector_6" fill="#191919" d="M124.154 203.092c0.4582 -0.128 0.8486 -0.428 1.088 -0.84 0.2394 -0.41 0.309 -0.898 0.1936 -1.36 -0.1152 -0.462 -0.4062 -0.86 -0.8106 -1.109 -0.4046 -0.25 -0.8908 -0.3322 -1.355 -0.229l-13.082 3.26c-0.4562 0.128 -0.8444 0.43 -1.0822 0.84 -0.238 0.41 -0.307 0.896 -0.1922 1.356 0.1146 0.46 0.4038 0.858 0.8064 1.108 0.4026 0.25 0.8868 0.334 1.35 0.234l13.084 -3.26Z" stroke-width="1"></path><path id="vector_7" fill="#191919" d="M91.2758 334.112c0.2546 1.116 0.0614 2.288 -0.5382 3.264s-1.5578 1.678 -2.669 1.954c-1.1112 0.278 -2.2868 0.108 -3.2744 -0.472 -0.9876 -0.578 -1.7088 -1.522 -2.0084 -2.628 -0.2546 -1.116 -0.0614 -2.288 0.5382 -3.264s1.5578 -1.678 2.669 -1.954c1.1112 -0.278 2.2868 -0.108 3.2744 0.472 0.9878 0.578 1.7088 1.522 2.0084 2.628Z" stroke-width="1"></path></g><g id="message"><path id="vector_8" fill="#191919" d="M85.4 45.04c99.13 1.8 75.98 -5.646 77 65.304 0.12 8.418 1.228 21.854 -7.12 27.57 -1.586 1.086 1.154 4.878 4.272 21.894 1.482 8.084 -3.8 3.704 -13.652 -1.344 -36.354 -18.622 -26.346 -16.664 -37.864 -16.678 -102.83604 -0.114 -93.79604 8.708 -97.35604 -35.354 -0.814 -10.064 -1.2 -39.972 0.6 -48.74 2.28 -11.122 10.59604 -13.81 74.12004 -12.652ZM155.728 159c-1.904 -9.246 -2.662 -10.91 -4.504 -18.304 -2.162 -8.696 7.302 0.304 7.546 -27.262 0.358 -40.568 4.35 -60.2 -7.264 -62.2 -12.366 -2.134 -113.124 -4.034 -129.89 -0.022 -8.76804 2.096 -8.18204 9.544 -8.22404 23.8 0.07508 18.141 1.21302 36.262 3.408 54.27 1.892 13.526 31.23404 8.2 73.20004 8.932 7.872 0.138 15.752 0.076 23.624 -0.34 2.048 -0.108 39.964 20.004 42.104 21.126Z" stroke-width="1"></path><path id="vector_9" fill="#2862e9" d="M48.8822 106.548c-15.912 -0.312 -15.186 -23.424 0.036 -23.35 7 0.034 12.584 5 12.57 11.214 -0.0736 3.2774 -1.4402 6.3926 -3.8018 8.666 -2.3616 2.2736 -5.5266 3.521 -8.8042 3.47Z" stroke-width="1"></path><path id="vector_10" fill="#2862e9" d="M85.29 82.92c17.222 0.344 15.778 23.566 -0.4 23.212 -3.0668 -0.08 -5.9838 -1.3416 -8.1424 -3.5214 -2.1586 -2.1798 -3.3916 -5.1092 -3.4416 -8.1766 -0.05 -6.294 6.228 -11.634 11.984 -11.514Z" stroke-width="1"></path><path id="vector_11" fill="#2862e9" d="M121.7402 83.15c17.774 0.28 15.288 23.57 -0.238 23.086 -15.83 -0.494 -15.14 -23.328 0.238 -23.086Z" stroke-width="1"></path></g></g></svg>