<svg xmlns="http://www.w3.org/2000/svg" viewBox="-0.5 -0.5 150 150" id="Office-Working-4--Streamline-Brooklyn.svg" height="150" width="150"><desc>Office Working 4 Streamline Illustration: https://streamlinehq.com</desc><path d="M92.74803 65.05638c-5.04216 -1.35888 -6.258 -6.975435 -5.75289 -12.135305A24.012095000000002 24.012095000000002 0 0 1 87.918195 48.425a0.331525 0.331525 0 0 1 0.644425 0.157195 36.620475 36.620475 0 0 0 -0.5013850000000001 4.4148700000000005c-0.28608 4.901355 0.555025 10.03366 5.35208 11.090815000000001a0.5513 0.5513 0 0 1 0.42986499999999994 0.537145c-0.030545000000000003 2.188065 0.09089 6.078455000000001 0.157195 7.891785a0.38591000000000003 0.38591000000000003 0 0 1 -0.3576 0.41496500000000003 12.581560000000001 12.581560000000001 0 0 0 -1.545875 0.25777 0.338975 0.338975 0 0 1 -0.39336000000000004 -0.26447499999999996 0.334505 0.334505 0 0 1 0.25777 -0.39336000000000004c1.42742 -0.3576 1.146555 -0.28757 1.23074 -0.315135 -0.22946 -2.459245 -0.42464999999999997 -4.65178 -0.44401999999999997 -7.160195000000001Z" fill="#191919" stroke-width="1"></path><path d="m91.29453500000001 56.14021999999999 1.331315 -0.014155a0.334505 0.334505 0 1 1 0.0745 0.665285 14.872435000000001 14.872435000000001 0 0 1 -1.87442 0.39336000000000004 0.5215 0.5215 0 0 1 -0.5513 -0.47233c-0.043210000000000005 -0.50064 -0.07897 -0.994575 -0.085675 -1.49a14.676499999999999 14.676499999999999 0 0 1 0.3725 -3.456055c0.10876999999999999 -0.380695 0.461155 -1.50192 0.894 -1.380485 0.68987 0.203385 -0.24585 2.09196 -0.16092 5.75438Z" fill="#191919" stroke-width="1"></path><path d="M93.32466 59.417474999999996c1.18157 2.68796 4.978835 1.46318 4.321 -2.11133a0.33823000000000003 0.33823000000000003 0 0 0 -0.6705 0.07897c0.09834000000000001 1.64943 -1.5503449999999999 3.570785 -3.0843 1.69562a0.32929 0.32929 0 1 0 -0.5662 0.33674Z" fill="#191919" stroke-width="1"></path><path d="M94.18811500000001 49.099970000000006c0.93274 -1.018415 2.39145 -0.8195 3.4269999999999996 0.09983a0.33376 0.33376 0 1 0 0.486485 -0.45743c-1.314925 -1.682955 -3.725 -1.76267 -4.47 0 -0.17433 0.40528000000000003 0.246595 0.6950850000000001 0.556515 0.3576Z" fill="#191919" stroke-width="1"></path><path d="M95.83382 50.91032a1.3223749999999999 1.3223749999999999 0 1 1 -0.9804200000000001 1.280655 1.158475 1.158475 0 0 1 0.9804200000000001 -1.280655Z" fill="#191919" stroke-width="1"></path><path d="M63.281789999999994 36.106425A22.508685 22.508685 0 1 0 20.091905 48.7975a22.677055 22.677055 0 0 0 28.170685000000002 15.36488 22.236015000000002 22.236015000000002 0 0 0 15.005044999999999 -28.048505000000002Zm-5.945845 20.285605A20.86 20.86 0 1 1 51.926500000000004 23.963669999999997c12.410210000000001 6.615600000000001 14.630310000000001 22.31424 5.409445 32.42836Z" fill="#191919" stroke-width="1"></path><path d="M41.752779999999994 42.912c2.11729 0.122925 4.97213 -0.09685 7.406045000000001 -0.049915a0.333015 0.333015 0 0 1 0.02086 0.665285c-2.64922 0.21083499999999997 -5.1255999999999995 0.6705 -7.999065 0.458175a0.553535 0.553535 0 0 1 -0.50809 -0.5215c-0.298 -5.0592950000000005 -0.8127949999999999 -7.607195 -0.644425 -11.813464999999999a0.32929 0.32929 0 0 1 0.65858 -0.029055c0.00894 0.079715 0.75841 5.486925 1.066095 11.290474999999999Z" fill="#191919" stroke-width="1"></path><path d="M23.989 43.419345a18.24058 18.24058 0 0 0 2.9837249999999997 -0.2235 0.33674 0.33674 0 0 0 -0.03576 -0.6705 6.278115 6.278115 0 0 0 -3.0843 0.243615c-0.4172 0.19072 -0.31588 0.64517 0.13633499999999998 0.650385Z" fill="#191919" stroke-width="1"></path><path d="M57.583285000000004 42.26683a8.913924999999999 8.913924999999999 0 0 0 2.57621 -0.03576 0.33674 0.33674 0 0 0 -0.03576 -0.6705 4.819405000000001 4.819405000000001 0 0 0 -2.65518 0.057365c-0.41496500000000003 0.176565 -0.335995 0.611645 0.11473 0.648895Z" fill="#191919" stroke-width="1"></path><path d="M40.17785 24.03072c-0.142295 -0.43507999999999997 -0.596 -0.38889 -0.65858 0.057365a10.58496 10.58496 0 0 0 0.36505 3.3480299999999996c0.14006 0.46935 0.66454 0.35163999999999995 0.66603 -0.0745a12.271640000000001 12.271640000000001 0 0 0 -0.3725 -3.330895Z" fill="#191919" stroke-width="1"></path><path d="M41.846650000000004 58.397569999999995a7.2116 7.2116 0 0 0 0.3725 2.626125 0.33972 0.33972 0 0 0 0.6705 -0.093125 7.680204999999999 7.680204999999999 0 0 0 -0.39336000000000004 -2.618675c-0.18774 -0.44476499999999997 -0.5989800000000001 -0.35089499999999996 -0.64964 0.085675Z" fill="#191919" stroke-width="1"></path><path d="M116.83388000000001 109.84876a24.48964 24.48964 0 0 0 -3.1714649999999995 -0.8388699999999999l-0.046935 -0.5662a0.33748500000000003 0.33748500000000003 0 1 0 -0.6705 0.049915v0.35014999999999996c-2.113565 -0.465625 -8.356665 -2.086 -12.822194999999999 -2.88315a26.4475 26.4475 0 0 0 -5.846015 -0.537145 0.33376 0.33376 0 0 0 -0.043210000000000005 0.66603c0.41347500000000004 0.057365 4.476705 0.75245 4.551205 0.7651149999999999 4.238305 0.72563 7.4172199999999995 1.5943 10.611035 2.21116 6.84655 1.3223749999999999 7.534185 1.74777 7.673500000000001 1.192a0.34121 0.34121 0 0 0 -0.23542 -0.409005Z" fill="#191919" stroke-width="1"></path><path d="M83.798345 111.60100000000001a5.641885 5.641885 0 0 0 2.697645 0.043210000000000005c0.45147 -0.121435 1.73883 -0.54385 1.5093699999999999 -1.02363 -0.157195 -0.3427 -0.473075 -0.11473 -1.14432 0.00745a7.580375 7.580375 0 0 1 -2.804925 -0.11473 9.275995 9.275995 0 0 1 -2.304285 -0.958815c-1.101855 -0.57514 -1.240425 -0.708495 -1.4453 -0.479035 -0.40230000000000005 0.42316 1.13389 2.010755 3.4918150000000003 2.52555Z" fill="#191919" stroke-width="1"></path><path d="M82.0543 115.52417a7.492465 7.492465 0 0 0 2.50469 0.47233 6.450955 6.450955 0 0 0 2.52555 -0.3576c0.534165 -0.204875 1.34547 -0.482015 1.173375 -0.894 -0.121435 -0.32482 -0.40379000000000004 -0.17731 -1.08025 -0.06406999999999999a14.394145000000002 14.394145000000002 0 0 1 -2.57621 0.200405 10.271315000000001 10.271315000000001 0 0 1 -2.2178649999999998 -0.36505c-1.0139449999999999 -0.176565 -1.27544 -0.318115 -1.423695 -0.00745 -0.18401499999999998 0.383675 0.81652 0.89996 1.094405 1.015435Z" fill="#191919" stroke-width="1"></path><path d="M63.117145 99.59308999999999c0.298 2.3959200000000003 0.745 3.46872 1.22329 7.040995000000001a0.33525 0.33525 0 1 1 -0.657835 0.12813999999999998 44.45117 44.45117 0 0 1 -1.73883 -7.505875 0.566945 0.566945 0 0 1 0.40081 -0.6004700000000001 10.387535 10.387535 0 0 0 2.046515 -0.84483 29.220390000000002 29.220390000000002 0 0 0 2.81163 -1.88187 0.3278 0.3278 0 0 1 0.46488 0 0.33674 0.33674 0 0 1 0 0.47233 9.265564999999999 9.265564999999999 0 0 1 -4.550459999999999 3.1915799999999996Z" fill="#191919" stroke-width="1"></path><path d="M60.447065 92.23696000000001a11.046859999999999 11.046859999999999 0 0 0 2.384 -1.18753 8.477355 8.477355 0 0 0 2.2752299999999996 -2.0115000000000003c0.379205 -0.49915000000000004 0.680185 -0.8597299999999999 0.40081 -1.094405 -0.2831 -0.255535 -0.49468 0.0745 -1.01618 0.49319 -0.298 0.24957500000000002 -1.5302299999999998 1.201685 -2.261075 1.66731 -2.000325 1.241915 -3.48809 1.5309750000000002 -3.32717 2.086 0.116965 0.42092499999999994 1.118245 0.161665 1.544385 0.046935Z" fill="#191919" stroke-width="1"></path><path d="M61.686 95.93663a7.981184999999999 7.981184999999999 0 0 0 2.404115 -1.180825 8.15179 8.15179 0 0 0 2.153795 -2.0964300000000002c0.379205 -0.5215 0.660815 -0.8492999999999999 0.3725 -1.094405 -0.301725 -0.24138 -0.51554 0.08790999999999999 -1.0087300000000001 0.5215 -2.10835 1.88038 -2.900285 2.277465 -4.257675 2.840685 -0.978185 0.447 -1.2732050000000001 0.51554 -1.209135 0.8195 0.06705 0.438805 1.148045 0.277885 1.54513 0.189975Z" fill="#191919" stroke-width="1"></path><path d="M97.26273 97.203875a0.328545 0.328545 0 0 0 -0.35089499999999996 -0.315135c-2.751285 0.030545000000000003 -5.662 -0.16241 -10.087299999999999 -0.04172 -0.02384 -1.2441499999999999 -0.0745 -5.206805 -0.088655 -5.94361 9.988215 -2.9353 10.49109 -2.5493900000000003 10.41808 -3.162525a0.333015 0.333015 0 0 0 -0.386655 -0.26522c-2.751285 0.24063500000000002 -4.060995 0.464135 -10.754075 2.490535a0.559495 0.559495 0 0 0 -0.39410500000000004 0.54385c0.064815 1.250855 0.039485 2.3318499999999998 0.508835 6.357830000000001 -1.5406600000000001 0.06258 -7.1967 0.43955 -8.642 0.42166999999999993a0.330035 0.330035 0 0 0 -0.057365 0.657835 20.83616 20.83616 0 0 0 2.45105 0.274905c0.1937 0.9103899999999999 1.25905 5.46085 1.59132 6.830159999999999a0.33078 0.33078 0 0 0 0.128885 0.493935c2.804925 1.7134999999999998 6.6305000000000005 0.77778 9.617205 -0.565455a7.47384 7.47384 0 0 0 3.4486049999999997 -2.9055 0.33972 0.33972 0 0 0 -0.257025 -0.5215l0.3725 -3.8144q1.08323 -0.0745 2.165715 -0.18923a0.33227 0.33227 0 0 0 0.31588 -0.34642500000000004Z" fill="#191919" stroke-width="1"></path><path d="M71.371 112.7185c-4.92594 5.042905 -16.38255 8.493 -21.84489 2.848135 -3.5015 -3.605055 -3.9425399999999997 -10.023975 -3.320465 -15.033354999999998a25.464844999999997 25.464844999999997 0 0 1 1.653155 -6.66924 0.328545 0.328545 0 0 0 -0.596 -0.27863c-3.06493 6.048655 -3.3971999999999998 15.519095 0.09238 21.021665 -0.14453 -0.00447 -1.021395 0 -1.341 0.014155 -1.906455 0.16539 -1.66731 1.1175 0.064815 1.1175a11.318785 11.318785 0 0 0 1.985425 -0.12813999999999998c5.50704 6.893485 17.848709999999997 3.9440299999999997 23.78785 -2.4257199999999997a0.33674 0.33674 0 0 0 -0.48127000000000003 -0.46637Z" fill="#191919" stroke-width="1"></path><path d="M20.54859 120.80323999999999a5.3721950000000005 5.3721950000000005 0 0 0 1.12346 0.3725 17.196835 17.196835 0 0 0 3.2839600000000004 0.113985 15.232270000000002 15.232270000000002 0 0 0 2.712545 -0.364305 0.33674 0.33674 0 0 0 -0.043210000000000005 -0.6705c-2.9948999999999995 -0.18476 -1.90422 0.04023 -5.781945 -0.13633499999999998 -0.47829 -0.0298 -0.7599 0.03576 -1.1659249999999999 0.03576a0.338975 0.338975 0 0 0 -0.39336000000000004 0.26522 0.331525 0.331525 0 0 0 0.26447499999999996 0.383675Z" fill="#191919" stroke-width="1"></path><path d="M64.15642 83.968205c-0.365795 0.298 -0.745 0.589295 -1.1361249999999998 0.8761199999999999 -0.619095 -1.94892 -1.58387 -3.8054599999999996 -1.9481750000000002 -5.75587a0.57067 0.57067 0 0 0 -0.47233 -0.450725c-0.94466 -0.13559 -7.2414000000000005 -0.894 -9.44511 -1.18753 -0.333015 -0.04172 -0.41347500000000004 -0.01937 -2.661885 2.63283a0.5460849999999999 0.5460849999999999 0 0 0 -0.049915 0.629525c0.838125 1.392405 1.1175 2.97553 3.979045 7.911899999999999 -1.341 -0.2235 -2.8794250000000003 -0.8686699999999999 -3.52832 -2.06663a0.328545 0.328545 0 1 0 -0.601215 0.26522c0.391125 1.192 1.3901700000000001 2.225315 3.2563950000000004 2.74756 2.66412 0.7196699999999999 5.777475 -0.08046 8.27844 -1.438595a21.070835000000002 21.070835000000002 0 0 0 4.779920000000001 -3.6706149999999997 0.33376 0.33376 0 0 0 -0.450725 -0.49319Zm-3.6348549999999995 2.07408c-0.3725 0.178055 -0.613135 -0.33376 -1.1301649999999999 -1.192a21.963345 21.963345 0 0 1 -1.29481 -2.682c-1.45424 0.186995 -5.859425 -0.771075 -6.0710049999999995 -0.8090700000000001a0.34121 0.34121 0 0 1 -0.31439 -0.35089499999999996 0.33674 0.33674 0 0 1 0.35014999999999996 -0.31439 13.469599999999998 13.469599999999998 0 0 1 3.725 0.20711000000000002c0.890275 0.14453 1.808115 0.233185 2.36761 0.40081 0.31588 -0.471585 1.35888 -1.9682899999999999 1.8215249999999998 -1.6218650000000001 0.26969 0.19295500000000002 0.084185 0.49691500000000005 -0.286825 1.2732050000000001a9.983 9.983 0 0 1 -0.5289499999999999 0.851535c0.459665 1.15028 0.6004700000000001 1.301515 1.1175 2.61942 0.40155500000000005 1.07429 0.5811000000000001 1.45722 0.24436000000000002 1.6181400000000001Z" fill="#191919" stroke-width="1"></path><path d="M30.481675 77.382405a2.55833 2.55833 0 1 1 -2.554605 2.554605 2.557585 2.557585 0 0 1 2.554605 -2.554605Z" fill="#0a65fc" stroke-width="1"></path><path d="M44.153169999999996 97.48474c-0.099085 -0.008195 -1.2665 -0.119945 -2.2275500000000004 -0.149 -0.018625 -2.469675 -0.16092 -17.3585 -0.16092 -17.3585a0.32482 0.32482 0 0 0 -0.32929 -0.32929s-3.576 -0.0745 -7.8731599999999995 -0.137825a2.839195 2.839195 0 0 0 -3.0805749999999996 -2.4585 2.925615 2.925615 0 0 0 -3.023955 2.39443c-4.575045 -0.030545000000000003 -8.50492 -0.020115 -8.50492 -0.020115a0.547575 0.547575 0 0 0 -0.54683 0.550555v20.956105a0.5282049999999999 0.5282049999999999 0 0 0 0.54683 0.532675h17.712374999999998a33.360355000000006 33.360355000000006 0 0 1 -2.3095 6.115704999999999 0.335995 0.335995 0 0 0 0.121435 0.447 0.32631 0.32631 0 0 0 0.450725 -0.11473 21.25187 21.25187 0 0 0 2.86825 -6.4517h3.6370899999999997a0.5282049999999999 0.5282049999999999 0 0 0 0.514795 -0.532675s-0.006704999999999999 -1.006495 -0.017135 -2.576955c0.9170950000000001 -0.07003 1.5645 -0.157195 2.2275500000000004 -0.2235a0.322585 0.322585 0 1 0 -0.005215 -0.64368ZM28.993165 78.4485a2.147835 2.147835 0 0 1 1.49 -0.733825 2.1456 2.1456 0 0 1 1.45275 0.77629 2.04279 2.04279 0 0 1 -1.45275 3.44935 2.08153 2.08153 0 0 1 -1.49 -3.4918150000000003Zm-9.492790000000001 21.94025v-19.87064c1.23223 0 4.38656 0 7.93872 -0.021605000000000003a3.085045 3.085045 0 0 0 3.0425799999999996 2.566525 3.1193150000000003 3.1193150000000003 0 0 0 3.0813200000000003 -2.62985c3.51938 -0.050660000000000004 6.559724999999999 -0.11324 7.543125 -0.12963 -0.014155 1.037785 -0.14155 14.559534999999999 -0.15794 17.021015000000002 -0.982655 0 -1.9660549999999999 0.018625 -2.9412599999999998 -0.03278a0.558005 0.558005 0 0 0 -0.57216 0.47233c-0.122925 0.876865 -0.28980500000000003 1.75373 -0.495425 2.624635Zm18.5654 0q0.2235 -0.9871249999999999 0.38516500000000004 -1.9809549999999998c0.827695 0.02235 1.6598600000000001 0.023095 2.490535 0 -0.00596 0.86271 -0.01043 1.5496 -0.014155 1.98468Z" fill="#191919" stroke-width="1"></path><path d="M105.574695 50.842525c0.8195 -4.446905 0.86271 -9.041319999999999 -3.071635 -11.27334 -1.526505 -0.860475 -3.386025 -1.162945 -5.0160849999999995 -1.639 -1.2516 -2.569505 -3.9745749999999997 -6.476285 -6.73331 -7.1832899999999995a8.308985 8.308985 0 0 0 -8.97278 3.469465c-2.541195 3.77864 -1.778315 9.028655 2.490535 10.93064 3.22585 1.437105 7.817285 0.9886149999999999 11.31208 0.25777 0.7576649999999999 -0.15570499999999998 1.6933850000000001 0.49989500000000003 2.562055 0.8195a6.336225000000001 6.336225000000001 0 0 0 4.901355 4.95872c2.156775 0.5036200000000001 2.329615 0.447 2.962865 1.007985a2.41827 2.41827 0 0 1 0.19295500000000002 3.548435 5.346864999999999 5.346864999999999 0 0 1 -3.4202950000000003 1.341 0.577375 0.577375 0 0 0 -0.514795 0.443275 35.04182 35.04182 0 0 1 -2.018205 5.65306 0.5215 0.5215 0 0 0 -0.113985 0.343445 73.791505 73.791505 0 0 0 0.47233 8.113795 0.40528000000000003 0.40528000000000003 0 0 0 0.379205 0.3725 16.688 16.688 0 0 1 2.1388949999999998 0.207855 0.334505 0.334505 0 0 0 0.11473 -0.65858 17.8055 17.8055 0 0 0 -1.8461100000000001 -0.32184c-0.108025 -2.086 -0.157195 -5.4384999999999994 -0.157195 -7.5632399999999995a37.189654999999995 37.189654999999995 0 0 0 2.03236 -5.501825c5.811 -0.68093 5.850485 -6.08218 2.30503 -7.32633Zm-22.35 -9.69245a2.168695 2.168695 0 0 1 -0.286825 -1.88187c0.06556 -0.16688 0.164645 -0.31066499999999997 0.34419 -0.298s0.257025 0.164645 0.30694 0.335995a7.505875 7.505875 0 0 1 0.26522 1.653155c0.03278 0.470095 -0.42092499999999994 0.572905 -0.63027 0.19072Zm6.65136 -7.563985000000001a0.322585 0.322585 0 0 1 -0.379205 0.257025c-0.14304 0.00745 -0.271925 0.03576 -0.40826 0.049915a5.56813 5.56813 0 0 0 -3.90678 2.046515 9.100919999999999 9.100919999999999 0 0 0 -1.043 1.3596249999999999 0.331525 0.331525 0 1 1 -0.6079199999999999 -0.26447499999999996 5.781945 5.781945 0 0 1 0.851535 -1.7462799999999998c1.003515 -1.41997 3.037365 -2.57621 4.528855 -2.28268a4.03343 4.03343 0 0 1 0.7017899999999999 0.200405 0.330035 0.330035 0 0 1 0.26224 0.37995Z" fill="#191919" stroke-width="1"></path><path d="M135.12661 104.6725c-0.95211 -5.087605 -2.225315 -10.089535 -4.665935 -14.72567 -4.779175 -9.073355 -14.023880000000002 -15.98472 -24.227400000000003 -17.645325a0.8075800000000001 0.8075800000000001 0 0 0 -0.7800149999999999 0.315135c-2.13219 2.804925 -5.289499999999999 5.602399999999999 -8.808135 6.231925 -2.082275 0.379205 -5.559935 0.0745 -6.532905 -2.20371a5.145715 5.145715 0 0 1 -0.18625 -2.96212 0.8142849999999999 0.8142849999999999 0 0 0 -1.0087300000000001 -0.93721 47.883385 47.883385 0 0 0 -16.006325 7.441059999999999 29.494550000000004 29.494550000000004 0 0 0 -5.023535 4.300885 4.51619 4.51619 0 0 1 1.5816350000000001 4.063975 3.4269999999999996 3.4269999999999996 0 0 1 0.894 3.725c2.189555 3.5916449999999998 -2.317695 6.62603 -5.03024 8.178609999999999 2.32589 4.493094999999999 7.856769999999999 12.850504999999998 7.942444999999999 13.079965 0.039485 0.08790999999999999 0.707005 14.640740000000001 0.7949149999999999 14.596785 4.172 -0.422415 8.39317 0.093125 12.58603 0.00745 6.06728 -0.12218000000000001 12.328259999999998 -0.36505 18.4015 -0.379205a0.04768 0.04768 0 0 0 0.0149 -0.093125c-4.178705 -1.109305 -9.988959999999999 -2.96957 -13.28037 -5.638905 -3.10516 1.20243 -6.83314 0.629525 -9.85337 -0.6079199999999999 -2.18881 -0.9088999999999999 -3.85612 -3.2698050000000003 -0.514795 -4.028215 -1.459455 -1.27395 -3.0694 -3.74288 -0.243615 -4.3955 -1.630805 -1.34547 -4.0349200000000005 -4.901355 -0.45743 -5.531625 -0.41496500000000003 -2.404115 -1.02363 -4.865595 -1.6747600000000002 -7.2265 -4.68605 -0.456685 -4.35974 -3.4545649999999997 -2.64028 -4.16455 2.51214 -1.0519399999999999 6.14625 -0.422415 8.84464 -0.42911999999999995 -0.243615 -1.367075 -0.465625 -2.74756 -0.608665 -4.13624 -0.043210000000000005 -0.46488 -0.19295500000000002 -1.18753 0.128885 -1.58834 0.68689 -0.86569 2.23947 -1.01618 3.21989 -1.29481 2.7833200000000002 -0.80162 5.85272 -2.14709 8.808135 -1.8625 1.23074 0.11473 2.41827 1.0519399999999999 1.27395 2.204455a6.176049999999999 6.176049999999999 0 0 1 -2.6693350000000002 1.18008c-3.031405 0.95509 -0.851535 0.558005 -7.033545 1.9966000000000002a23.84 23.84 0 0 0 0.3576 3.18413 38.889 38.889 0 0 1 6.761620000000001 0.279375 10.49109 10.49109 0 0 1 2.7833200000000002 0.507345c0.95956 0.40826 1.34547 1.5816350000000001 0.271925 2.132935a8.12795 8.12795 0 0 1 -3.5916449999999998 0.5289499999999999s-0.057365 4.078875 -0.157195 5.93914c4.544499999999999 0.80162 9.022695 1.903475 13.559 2.7565 1.288105 0.24287 2.56876 0.9088999999999999 3.87847 0.736805 6.983630000000001 -0.93721 14.06709 -0.9513649999999999 21.101380000000002 -1.27395a1.91465 1.91465 0 0 0 1.790235 -2.262565Zm-50.624985 -26.936964999999997c-5.252995 2.529275 -7.48874 4.27332 -10.976085000000001 6.4755400000000005a0.32333 0.32333 0 0 1 -0.40826 -0.50064 14.935015 14.935015 0 0 1 1.42444 -1.3529200000000001 34.40857 34.40857 0 0 1 3.7846 -2.547155 26.241135 26.241135 0 0 1 5.932435 -2.690195 0.33078 0.33078 0 1 1 0.24287 0.61537Z" fill="#0a65fc" stroke-width="1"></path><path d="M146.80076 127.14989499999999c-28.600550000000002 0.048425 -25.736025 0.149 -25.297220000000003 0 7.705535 -2.644005 12.95555 -9.498005000000001 12.143500000000001 -18.789645a0.343445 0.343445 0 0 0 -0.36505 -0.31439 0.334505 0.334505 0 0 0 -0.307685 0.3576c0.8388699999999999 14.283884999999998 -12.726090000000001 22.02518 -26.568189999999998 17.437469999999998a75.35377 75.35377 0 0 1 -10.546965 -4.60112c-3.09175 -1.788 -2.95467 -2.421995 -3.5633350000000004 -2.19626 -3.314505 1.3208849999999999 -8.007259999999999 1.77757 -10.76823 -0.486485a0.33227 0.33227 0 0 0 -0.42986499999999994 0.507345c2.84441 2.560565 7.683185000000001 2.402625 11.28377 1.1026 2.31695 1.9668 5.300675 3.2981149999999997 8.07878 4.5363050000000005a51.542825 51.542825 0 0 0 6.96426 2.624635c-5.147205 0.037994999999999994 -58.44227 0.5215 -63.646840000000005 0.568435l-0.026819999999999997 -2.07557a14.613174999999998 14.613174999999998 0 0 0 4.11687 0.0745 0.565455 0.565455 0 0 0 0.228715 -1.022885 42.672855000000006 42.672855000000006 0 0 0 -4.15263 -2.615695c0 -6.66179 0.11622 -6.951594999999999 -0.3576 -8.081014999999999a4.83654 4.83654 0 0 0 -4.45063 -2.98745H22.484099999999998c-0.8895299999999999 0 -0.74053 0.149 -1.63006 0.149l-11.011845000000001 -0.149a4.78141 4.78141 0 0 0 -4.811954999999999 4.75161v12.524195c-1.8371700000000002 0.03874 -2.83845 0.061835 -2.83845 0.061835a0.32929 0.32929 0 1 0 0.006704999999999999 0.65858l144.609715 -1.34547a0.340465 0.340465 0 0 0 -0.00745 -0.689125ZM46.1155 124.88882c-3.00682 -0.09089 -10.062714999999999 -1.14879 -12.52196 -1.5242699999999998 0.079715 0 6.8949750000000005 -0.28608 9.502475 -0.28608a28.09842 28.09842 0 0 1 3.019485 1.8103500000000001ZM6.79589 115.40050000000001c0.00745 -0.376225 0.8746299999999999 -0.47382 1.252345 -0.50809 0.443275 -0.03427 2.77289 0.012665000000000001 3.65646 0.10057500000000001 1.06684 0.12367 1.8490900000000001 0.2086 1.8245049999999998 0.6220749999999999 -0.01937 0.327055 -0.3129 0.34121 -1.37378 0.40826 -0.9647749999999999 0.060345 -3.76821 -0.020115 -4.1287899999999995 -0.0745 -0.12516 -0.008195 -1.23819 -0.15794 -1.23074 -0.54832Zm10.314525 10.82187c-0.033525 0.43582499999999996 -1.201685 0.46637 -1.639 0.486485 -0.25032 0.014155 -0.493935 0.027565 -0.745 0.021605000000000003 -0.54087 -0.013409999999999998 -1.23074 -0.216795 -1.224035 -0.55875 0.01192 -0.560985 1.2389350000000001 -0.56173 1.589085 -0.57216 0.17135 -0.006704999999999999 0.335995 -0.014155 0.50809 -0.006704999999999999 0.5051100000000001 0.023095 1.544385 0.19221 1.51086 0.63027Zm-1.906455 -4.71287c-0.90294 0.0596 -3.14241 0.12441500000000001 -4.221915 0.13633499999999998 -0.53342 0.00894 -2.9896849999999997 0.12516 -3.01278 -0.447 -0.026075 -0.68391 3.324935 -0.6749700000000001 3.98575 -0.6943400000000001 1.440085 -0.04619 2.699135 -0.052895 3.313015 -0.043210000000000005 2.247665 0.036505 2.54045 0.07003 2.554605 0.43656999999999996 0.015645 0.388145 -0.57216 0.45444999999999997 -2.618675 0.611645Zm27.84214 6.3921c-5.33718 0.051405000000000006 -22.92216 0.14304 -24.287000000000003 0.14304l0 -12.028025a3.7398999999999996 3.7398999999999996 0 0 1 3.725 -3.7317050000000003c17.92172 0 17.129785 -0.116965 18.081895 0.27565a3.704885 3.704885 0 0 1 2.0249099999999998 2.0249099999999998 3.828555 3.828555 0 0 1 0.292785 1.666565c-1.28438 -0.121435 -1.4035799999999998 -0.149 -2.496495 -0.20636500000000002a59.898 59.898 0 0 0 -7.276414999999999 0.207855 0.331525 0.331525 0 0 0 -0.085675 0.657835c1.773845 0.47829 2.472655 0.270435 4.61453 0.236165 3.0626949999999997 -0.066305 2.533 0.03427 5.2440549999999995 -0.18029v4.9915a86.569 86.569 0 0 0 -12.739500000000001 0.8880399999999999 0.447 0.447 0 0 0 -0.14304 0.879845c1.17561 0.24287 2.396665 0.26075 3.35846 0.45743a83.261945 83.261945 0 0 0 9.72523 1.553325Z" fill="#191919" stroke-width="1"></path><path d="M107.80149999999999 96.154915c-0.33376 -0.267455 -0.657835 -0.65858 -0.930505 -0.8872950000000001 -0.35089499999999996 -0.270435 -0.647405 -0.36058 -0.514795 -0.665285 0.255535 -0.68242 1.91018 0.61388 2.24692 0.815775a0.584825 0.584825 0 0 1 0.228715 0.35014999999999996c1.253835 6.744485000000001 0.596 2.52108 1.7529850000000002 9.573995a0.338975 0.338975 0 0 1 -0.65858 0.157195c-0.68093 -2.24245 -0.978185 -2.83845 -2.12474 -9.344534999999999Z" fill="#191919" stroke-width="1"></path><path d="M73.46593999999999 100.56755000000001c-0.061835 0.41273000000000004 -0.149 0.854515 -0.21455999999999997 1.688915 -0.061090000000000005 1.192 0.00745 5.50704 0.042465 6.32505 0.05363999999999999 0.94168 0.113985 1.5868499999999999 0.1937 2.52555a0.32929 0.32929 0 1 0 0.657835 0 62.348304999999996 62.348304999999996 0 0 0 0.18625 -7.47682 15.70162 15.70162 0 0 0 -0.21455999999999997 -3.0544999999999995 0.33227 0.33227 0 0 0 -0.32929 -0.32929 0.325565 0.325565 0 0 0 -0.32184 0.321095Z" fill="#191919" stroke-width="1"></path></svg>