<svg xmlns="http://www.w3.org/2000/svg" viewBox="0 0 400 400" id="Office-Working-3--Streamline-Brooklyn.svg" height="400" width="400"><desc>Office Working 3 Streamline Illustration: https://streamlinehq.com</desc><path d="M272.092 155.236a8.144 8.144 0 0 1 -3.866 -3.254c-0.488 -1.324 0.732 -2.928 1.134 -3.866 1.676 -3.424 3.282 -5.48 4.868 -8.234a0.844 0.844 0 0 1 1.506 0.764c-1.62 3.888 -3.028 6.622 -3.866 8.624 -0.148 0.334 -1.56 2 -0.948 2.08 0.15 0.02 -0.018 -0.296 -0.074 -0.4 0.272 0.658 2.546 1.706 3.458 2.304a1.4 1.4 0 0 1 0.632 1.172c0.074 3.866 0 8.364 1.58 11.8a8.4 8.4 0 0 0 7.08 4.888c1 0.112 2.026 0.168 3.012 0.224a1.292 1.292 0 0 1 1.244 1.132c0.344 3.548 0.342 7.632 0.614 11.542a0.86 0.86 0 0 1 -1.71 0.186l-1.32 -10.296c-0.706 -0.018 -1.43 -0.038 -2.136 -0.092a10.854 10.854 0 0 1 -9.368 -6.4 31.06 31.06 0 0 1 -1.84 -12.174Z" fill="#191919" stroke-width="1"></path><path d="M279.964 159.642c2.04 1.952 5.622 1 7.416 -1.06 0.8 -1.038 1.972 -3.512 0.744 -3.922 -0.846 -0.316 -0.726 0.326 -2.64 2.026a3.466 3.466 0 0 1 -3.902 0.8c-1.682 -0.918 -1.824 -1.114 -2.324 -0.78 -0.858 0.574 0.082 2.31 0.706 2.936Z" fill="#191919" stroke-width="1"></path><path d="M285.842 139.952c0.948 0.112 1.58 1.376 1.412 2.8s-1.096 2.51 -2.044 2.4 -1.58 -1.376 -1.412 -2.826 1.096 -2.486 2.044 -2.374Z" fill="#191919" stroke-width="1"></path><path d="M333.218 183.182c-1.504 0.328 -3.526 1.472 -4.572 1.636 -3.496 0.47 -5.112 -3.8 -5.538 -7.212 -1.068 -9.664 2.19 -19.292 2.638 -29.014 0.26 -5.576 -2 -11.238 -7.2 -13.252a23.328 23.328 0 0 0 -1.952 -9.236c-4.522 -9.218 -16.448 -11.434 -26.71 -11.19a15.076 15.076 0 0 0 -22.656 1.672c-5.306 6.976 -3.684 18.152 0.688 20.836 1.906 1.342 3.712 1.188 4.8 -1.04a3.75 3.75 0 0 0 0.464 0.482c1.966 1.744 3.72 0.668 4.572 -1.84 1.628 2.444 3.768 1.688 4.776 -0.4a2.49 2.49 0 0 0 2.844 0.984 4.092 4.092 0 0 0 1.934 -1.84 2.51 2.51 0 0 0 4.07 0.186c0.042 6.226 3.164 13.752 9.218 14.164 2.466 0.18 5.086 -0.112 6.952 1.264a4.412 4.412 0 0 1 -0.484 7.174 11.114 11.114 0 0 1 -6.04 1.152 1.428 1.428 0 0 0 -1.356 1.152c-1.912 9.42 -3.016 20.382 1.134 29a1.374 1.374 0 0 0 0.928 0.744 18.962 18.962 0 0 1 11.302 9.85c2.372 4.984 9.158 3.152 14.254 0.968a5.924 5.924 0 0 0 4.016 -5.52c8.75 -3.518 7.982 -12.102 1.918 -10.72Zm-60.476 -50.816c-0.464 0.152 -0.816 -0.14 -1.096 -0.538 -1.67 -2.378 -0.692 -4.6 0.074 -4.646 0.466 -0.028 0.696 0.376 0.892 0.8a7.486 7.486 0 0 1 0.65 3.29c0.024 0.468 -0.062 0.948 -0.52 1.094Zm10.582 -14.426c-0.168 0.668 -0.492 0.564 -2.8 0.93a8.8 8.8 0 0 0 -5.892 3.252 10.954 10.954 0 0 0 -1.078 1.412c-0.726 1.15 -0.812 1.912 -1.654 1.71 -1.376 -0.344 -0.19 -3.476 0.558 -4.702a9.744 9.744 0 0 1 7.974 -4.368c1.05 0.076 3.148 0.692 2.892 1.766Z" fill="#191919" stroke-width="1"></path><path d="M244.24 234.634c-5.118 6.636 -4.54 5.494 -10.334 13.736 -19 27.2 -28.902 42.75 -39.458 55.944a0.858 0.858 0 0 0 1.318 1.098c16.27 -18.4 27.072 -35.628 49.85 -69.8a0.846 0.846 0 0 0 -1.376 -0.978Z" fill="#191919" stroke-width="1"></path><path d="M272.538 259.882a49.634 49.634 0 0 1 -6.728 8.104c-8.5 8.85 -14.6 15.534 -25.24 23.326a140.936 140.936 0 0 1 -22.844 13.642 0.86 0.86 0 0 0 -0.464 1.134 0.88 0.88 0 0 0 1.134 0.446c20.438 -8.088 33.716 -19.472 48.658 -35.89a41.966 41.966 0 0 0 6.97 -9.962 0.844 0.844 0 1 0 -1.486 -0.8Z" fill="#191919" stroke-width="1"></path><path d="M187.826 236.46c-10.068 -2.364 -19.264 -8.748 -21.894 -19.46a0.844 0.844 0 0 1 1.616 -0.484c2.698 7.49 10.506 14.962 21.506 17.268a1.442 1.442 0 0 1 0.966 0.706 72.01 72.01 0 0 0 26.486 27.2 0.852 0.852 0 1 1 -0.8 1.506 63.6 63.6 0 0 1 -27.88 -26.736Z" fill="#191919" stroke-width="1"></path><path d="M173.424 215.088c9.3 11.2 16.254 9.052 24.702 10.556 8.56 1.54 16.746 8.362 27.934 10.482a0.874 0.874 0 0 0 1.022 -0.65 0.842 0.842 0 0 0 -0.632 -1.022c-8.696 -2.38 -15.418 -7.856 -24.664 -10.874 -9.052 -2.91 -15.156 1.334 -27.136 -9.646a0.842 0.842 0 1 0 -1.226 1.154Z" fill="#191919" stroke-width="1"></path><path d="M169.668 216.35a24.16 24.16 0 0 0 10.538 10.222 0.852 0.852 0 0 0 0.892 -1.45c-8.428 -6 -6.294 -5.302 -10 -9.666a0.844 0.844 0 0 0 -1.43 0.894Z" fill="#191919" stroke-width="1"></path><path d="M348.662 335.416c9.4 -11.016 24.334 -14.934 33.27 -3.456a0.858 0.858 0 0 1 -1.32 1.096 14.946 14.946 0 0 0 -16.022 -4.906 28.042 28.042 0 0 0 -14.572 10.148 1.442 1.442 0 0 1 -2.044 0.222c-7.422 -6 -15.644 -11.032 -24.088 -6.876a23 23 0 0 0 -9 8.346 0.846 0.846 0 0 1 -1.45 -0.874 22.46 22.46 0 0 1 9.182 -9.906c8.876 -4.81 18.166 0.056 26.044 6.206Z" fill="#191919" stroke-width="1"></path><path d="M313.032 287.68a70.276 70.276 0 0 0 -16.4 -1.542 166.258 166.258 0 0 0 -33.846 1.84c-5.296 0.928 -12.916 4.256 -11.504 10.946a12.172 12.172 0 0 0 1.562 3.6c-3.216 -2.212 -6.302 -4.59 -9.424 -6.914 14.664 -9.926 27.768 -23.79 35.24 -39.83a154.2 154.2 0 0 0 -15.854 -15.298 99.474 99.474 0 0 0 -15.036 -11.504 229.028 229.028 0 0 0 -18.328 23.326 41.188 41.188 0 0 1 -0.928 -8.8 22.068 22.068 0 0 1 8.028 -16.226c3.866 -3.364 8.234 -5.668 11.544 -9.72 3.456 -4.238 5.91 -9.274 9.274 -13.6 7.062 -9.144 16.022 -16.448 27.136 -19.776 -1.674 2 -0.464 3.496 2.026 3.886 3.754 0.576 7.694 -0.186 11.504 0.316a24 24 0 0 1 18.828 14.218c3.086 6.338 3.83 14.052 4.702 20.91 2.788 21.56 0.446 44.942 -9.162 64.532Z" fill="#2862e9" stroke-width="1"></path><path d="M251.8 223.908a60.2 60.2 0 0 0 5.074 -4.814c1.914 -2.026 17.564 -18.568 19.126 -20.166a0.856 0.856 0 0 0 -1.134 -1.282 108.266 108.266 0 0 0 -12.936 11.858 90.338 90.338 0 0 0 -11.376 13.27 0.842 0.842 0 0 0 1.246 1.134Z" fill="#191919" stroke-width="1"></path><path d="M285.25 259.828a60.4 60.4 0 0 0 12.342 -14.144 63.436 63.436 0 0 0 7.77 -17.88 0.848 0.848 0 1 1 1.672 0.278A45.42 45.42 0 0 1 300 247.2a48.148 48.148 0 0 1 -13.884 14.962 1.154 1.154 0 0 1 -1.282 0.056l-3.066 -2.212a0.838 0.838 0 0 1 -0.298 -1.152 0.848 0.848 0 0 1 1.152 -0.298Z" fill="#191919" stroke-width="1"></path><path d="M211.188 277.988a68.6 68.6 0 0 0 -23.884 -9.292c-9.056 -1.856 -17.704 -3.556 -26.912 -2.584 -33.838 3.486 -55.166 32.582 -76.014 57.044a0.922 0.922 0 0 0 0.2 1.35l0.224 0.182c-16.1 8.73 -48.304 9.286 -42.968 16.4a11.628 11.628 0 0 0 4.09 2.6 40.072 40.072 0 0 0 8.8 1.134 262.988 262.988 0 0 0 38 1.152 1.144 1.144 0 0 0 1.098 -1.022 100.748 100.748 0 0 1 0.868 -12.286l1.468 1.184a1.122 1.122 0 0 0 1.45 -0.02c11.432 -9.306 23.772 -19.4 36.316 -25.964 22.042 -11.556 36.044 -9.522 56.95 -3.588a0.838 0.838 0 1 0 0.502 -1.6 106.846 106.846 0 0 0 -17.4 -5.11c-29.572 -5.478 -54.8 14.746 -77.152 33.938 -1.572 -1.2 -7.902 -5.942 -10.554 -7.892 24.518 -27.112 47.932 -57.696 84.832 -54.704a153.8 153.8 0 0 1 27.786 5.52c10.752 3.534 11.722 6.158 12.582 4.704a0.848 0.848 0 0 0 -0.282 -1.146Z" fill="#191919" stroke-width="1"></path><path d="M211.714 306.902c-6.674 -0.05 -15.8 -0.874 -31.746 -0.484 -8.652 0.186 -18.474 1.766 -24.422 8.012 -13.55 14.62 4.722 29.026 18.028 25.09a0.856 0.856 0 0 0 -0.446 -1.654c-11.036 2.722 -25.236 -8.6 -17.228 -19.348 9.132 -12.6 27.51 -8.184 55.85 -9.924a0.846 0.846 0 0 0 -0.036 -1.692Z" fill="#191919" stroke-width="1"></path><path d="M250.12 334c-12.084 2.842 -37.736 3.458 -48.64 3.084a110.474 110.474 0 0 1 -33.772 -5.78 0.86 0.86 0 0 0 -0.632 1.6 93.12 93.12 0 0 0 34.292 7.026 282.37 282.37 0 0 0 37.546 -1.468 65.354 65.354 0 0 0 11.686 -2.862 0.846 0.846 0 0 0 0.576 -1.04 0.862 0.862 0 0 0 -1.056 -0.56Z" fill="#191919" stroke-width="1"></path><path d="M315.6 346.344c10.2 0.918 12.776 1.046 40.444 -0.966 4.07 -0.298 28.456 -2.324 32.526 -2.566a1.46 1.46 0 0 0 -0.036 -2.918 303.478 303.478 0 0 0 -39.906 1.134c-5.928 0.39 -21.858 1.356 -23.884 1.524 -3.066 0.26 -6.076 0.67 -9.144 0.93a1.432 1.432 0 0 0 0 2.862Z" fill="#191919" stroke-width="1"></path><path d="M255.966 312.692c14.238 -0.03 38.086 -0.954 46.558 3.14 1.47 0.726 2.938 1.544 2.64 3.16 -0.618 3.664 -7.484 3.968 -11.134 4.2 -9.762 0.8 -30.46 0.6 -39 0.948a1.47 1.47 0 0 0 -1.45 1.468 1.448 1.448 0 0 0 1.45 1.432c11.078 0.314 40.616 2.912 49.44 -0.854a8.4 8.4 0 0 0 5.446 -6.358c2.284 -12.6 -26.756 -12.4 -39.552 -11.448 -4.71 0.362 -11.126 1.128 -14.516 1.468a1.438 1.438 0 0 0 -1.374 1.468 1.47 1.47 0 0 0 1.492 1.376Z" fill="#2862e9" stroke-width="1"></path><path d="M312.822 288.2c-10.172 -0.36 -27.95 -2.722 -44.272 -0.428 -5.904 0.866 -12.57 1.518 -15.316 7a7.15 7.15 0 0 0 1.766 9.2 21 21 0 0 0 11.078 4.35 190.058 190.058 0 0 0 22.432 -0.502c8.716 -0.502 11.582 -0.048 22.862 -1.358a1.458 1.458 0 1 0 -0.316 -2.898c-5.476 0.518 -15.96 -0.014 -22.638 -0.038 -7.386 0.08 -15.282 0.558 -21.968 -0.018 -2.846 -0.224 -8.676 -2.082 -9.2 -4.758a2.77 2.77 0 0 1 0.354 -1.786 5.778 5.778 0 0 1 3.308 -2.638c4.518 -1.832 16.26 -2.6 21.188 -2.714 6.98 -0.144 11.418 0.18 20.2 -0.04a27.426 27.426 0 0 0 -0.42 8.37c0.316 2.352 0.538 3.272 1.302 3.272 0.952 0 1.158 -1.362 1.374 -3.384a26.094 26.094 0 0 0 -0.51 -8.308c2.958 -0.094 5.91 -0.244 8.856 -0.468a1.432 1.432 0 0 0 1.412 -1.468 1.45 1.45 0 0 0 -1.492 -1.386Z" fill="#191919" stroke-width="1"></path><path d="M259.732 313.718a34.88 34.88 0 0 0 0.612 9.292 0.856 0.856 0 1 0 1.71 -0.074 32.742 32.742 0 0 0 -0.63 -9.312c-0.298 -1.132 -1.532 -1.04 -1.692 0.094Z" fill="#191919" stroke-width="1"></path><path d="M307.18 345.324c-1.298 0.094 -2.6 0.132 -3.902 0.2 0.276 -3.046 0.674 -11.552 -0.168 -14.49 0.652 -0.048 1.304 -0.096 1.97 -0.13a1.412 1.412 0 1 0 0.038 -2.824c-5.6 -0.42 -9.6 -0.2 -16.542 -0.186a167.118 167.118 0 0 0 -24.33 1.32c-7 1.094 -13.698 4.296 -12.954 11.3a9.1 9.1 0 0 0 5 7.472 29 29 0 0 0 11.262 2.36c14.894 0.878 24.844 -0.472 39.868 -2.138a1.446 1.446 0 0 0 -0.242 -2.884Zm-51.112 -5.298c-0.31 -3.226 3.358 -4.8 6.496 -5.6a103.312 103.312 0 0 0 0.878 10.784c-3.562 -0.496 -6.984 -1.636 -7.374 -5.184Zm9.62 5.434s0.066 -1.042 0.09 -1.552c3.3 -0.118 8.874 -0.432 14.2 -0.844a122.788 122.788 0 0 0 13.772 -1.616 0.858 0.858 0 0 0 -0.13 -1.71c-8.234 -0.17 -16.244 0.612 -27.842 1.544a47.422 47.422 0 0 0 -0.6 -7.364c8.064 -1.238 16.444 -1.104 23.522 -1.512 4.066 -0.234 8.104 -0.826 12.164 -1.2a14.904 14.904 0 0 0 -0.16 2.2c-1.698 -0.2 -3.358 -0.312 -4.7 -0.35a100.734 100.734 0 0 0 -16.746 1.3c-1.722 0.418 -2.65 0.562 -2.564 1.4 0.168 1.646 4.2 0.878 24 -0.344a62.3 62.3 0 0 0 0.498 10.2 269.77 269.77 0 0 1 -35.504 -0.152Z" fill="#191919" stroke-width="1"></path><path d="M107.176 145.588a15.714 15.714 0 0 0 6.226 -2.64c1 -0.706 0.414 -1.888 -0.706 -1.6a19.89 19.89 0 0 0 -6.134 2.638c-0.974 0.744 -0.562 1.716 0.614 1.602Z" fill="#191919" stroke-width="1"></path><path d="M106.568 101.482A17.168 17.168 0 0 0 112 104.846c1.054 0.466 1.848 -0.662 0.948 -1.468A14.976 14.976 0 0 0 107.422 100c-1.198 -0.298 -1.666 0.642 -0.854 1.482Z" fill="#191919" stroke-width="1"></path><path d="M146.226 78.248a18.01 18.01 0 0 0 0.446 7.026 0.876 0.876 0 0 0 1.748 -0.092 19.954 19.954 0 0 0 -0.464 -6.97c-0.356 -1.172 -1.478 -1.09 -1.73 0.036Z" fill="#191919" stroke-width="1"></path><path d="M194.226 96.89a21.29 21.29 0 0 0 -5.948 4.4 0.872 0.872 0 0 0 1.096 1.356 19.956 19.956 0 0 0 5.948 -4.46c0.722 -1.058 -0.096 -1.802 -1.096 -1.296Z" fill="#191919" stroke-width="1"></path><path d="M190.728 149.612c1.042 0.514 1.882 -0.562 1 -1.432a19.43 19.43 0 0 0 -5.632 -3.904c-1.726 -0.664 -3.146 1.488 4.632 5.336Z" fill="#191919" stroke-width="1"></path><path d="M241.484 64.44c-0.06 -1.874 -0.11 -3.746 -0.21 -5.6a38.238 38.238 0 0 1 4.248 0.242 1.428 1.428 0 0 0 0.614 -2.788 35.8 35.8 0 0 0 -5.2 -1.432c-0.304 -2.532 -0.89 -5.506 -2.32 -5.472 -1.434 0 -1.912 2.86 -2.086 5.316a12.328 12.328 0 0 0 -4.2 1.346 8.278 8.278 0 0 0 -3.884 5.984c-0.428 3.85 2.4 7.494 8.318 7.482 0.078 2.8 0.12 4.382 0.292 7.112 -2.138 0.118 -4.27 0.062 -6.176 0.034a1.444 1.444 0 1 0 -0.222 2.88c2.038 0.29 4.322 0.66 6.618 0.8 0.22 3.8 0.35 4.678 1.644 4.768s1.718 -1.054 2.154 -4.788a15.842 15.842 0 0 0 5.122 -1.302c6.304 -3.068 5.312 -14.61 -4.712 -14.582Zm-7.876 -0.72c-0.912 -0.912 0 -2.888 1.116 -3.568a7.112 7.112 0 0 1 1.72 -0.756c0.032 1.758 0.098 3.512 0.162 5.264a3.898 3.898 0 0 1 -3.006 -0.94Zm10.538 11.264a10.768 10.768 0 0 1 -2.658 1.036c0.172 -2.59 0.138 -3.954 0.118 -6.752a4.368 4.368 0 0 1 2.504 0.566 3.244 3.244 0 0 1 0.036 5.15Z" fill="#2862e9" stroke-width="1"></path><path d="M125.114 173.304c-3.866 1.636 -6.172 2.364 -7.378 2.918a29.6 29.6 0 0 0 -3 1.73 1.412 1.412 0 1 0 0.65 2.75 11.752 11.752 0 0 0 5.556 -0.676c-5.574 7.046 -13.184 15.6 -19.038 23.754a88.64 88.64 0 0 0 -6.2 -9.276 2.418 2.418 0 0 0 -3.476 -0.334 204.232 204.232 0 0 0 -20.78 22.304 1.4 1.4 0 0 0 2 1.988c10.652 -9.086 13.566 -12.9 20 -18.94A100.786 100.786 0 0 1 99.6 209.4a2.38 2.38 0 0 0 4.072 0.186c5.524 -8.27 13.322 -17.2 20.2 -27.826 0.172 1.278 0.43 2.482 0.764 4.136a1.442 1.442 0 0 0 2.88 -0.148c0.076 -0.688 0.186 -1.34 0.28 -2.026a47.6 47.6 0 0 0 0.6 -8.16 2.378 2.378 0 0 0 -3.282 -2.258Z" fill="#2862e9" stroke-width="1"></path><path d="M66.554 135.22a1.474 1.474 0 0 0 -2.322 -0.094 28.628 28.628 0 0 0 -2.416 3.532c-0.096 0.2 -1.11 2.384 -0.372 2.936 0.8 0.572 2.534 -1.156 3.138 -2 0.038 3.97 -0.118 6.716 -0.236 10.658 -0.424 14.322 0.912 29.462 0.466 44.31 -6.63 -0.24 -12.378 0.044 -18.644 -0.13 -14.2 -0.296 -22.956 0.216 -35.294 0.4a0.874 0.874 0 0 0 -0.02 1.748c7.678 0.166 53.306 0.854 55.276 0.984a1.46 1.46 0 0 0 1.544 -1.412c0.5 -13.128 -1.078 -55.916 -1.102 -56.236 0.872 0.932 2.23 2.2 2.9 1.692 1.108 -0.844 -2.2 -5.338 -2.918 -6.388Z" fill="#191919" stroke-width="1"></path><path d="M22.734 168.02a0.864 0.864 0 0 0 -0.874 -0.856l-6.728 -0.464a1.31 1.31 0 0 0 -1.302 1.32c-0.2 3.45 -0.166 18.236 -0.166 21.764a1.458 1.458 0 0 0 1.468 1.44h6.728a1.44 1.44 0 0 0 1.45 -1.44c-0.044 -8.266 -0.34 -11.864 -0.576 -21.764Z" fill="#2862e9" stroke-width="1"></path><path d="M40.132 160.548a0.878 0.878 0 0 0 -0.892 -0.854l-6.728 -0.372a1.234 1.234 0 0 0 -1.226 1.226c-0.166 7.054 -0.26 21.84 -0.242 28.884a1.464 1.464 0 0 0 1.468 1.46h6.728a1.446 1.446 0 0 0 1.45 -1.46c-0.044 -11.762 -0.316 -15.5 -0.558 -28.884Z" fill="#2862e9" stroke-width="1"></path><path d="M58.028 151.012a0.862 0.862 0 0 0 -0.874 -0.874l-6.728 -0.296a1.15 1.15 0 0 0 -1.154 1.17c-0.242 4.236 -0.276 5.474 -0.316 38.176a1.468 1.468 0 0 0 1.47 1.45h6.728a1.44 1.44 0 0 0 1.45 -1.45Z" fill="#2862e9" stroke-width="1"></path><path d="M250.114 117.904c-0.862 -2.356 -0.936 -2.938 -2.12 -5.762a1.372 1.372 0 0 0 -1.746 -0.724l-3.03 1.246a13.6 13.6 0 0 0 -4.628 -3.328v-3.326a1.454 1.454 0 0 0 -1.096 -1.4 17.474 17.474 0 0 0 -7.696 0.074 1.492 1.492 0 0 0 -1.078 1.4c0 4.6 1.302 2 -2.546 4.646a15.328 15.328 0 0 0 -2.286 2.026l-1.728 -1.226a1.504 1.504 0 0 0 -2.082 0.4c-1.02 1.6 -1.906 3.302 -2.826 4.926a1.458 1.458 0 0 0 0.874 2.118 16.042 16.042 0 0 1 2.044 1 12.77 12.77 0 0 0 0.466 4.536c-0.556 0.388 -1.488 1.2 -1.896 1.56a1.45 1.45 0 0 0 -0.28 1.84 38.512 38.512 0 0 0 4.4 5.614 1.412 1.412 0 0 0 1.096 0.464c0.884 -0.038 0.874 -0.45 2.23 -1.748a8.542 8.542 0 0 0 2 1.134l-0.39 2.344a1.308 1.308 0 0 0 0.688 1.4 11.274 11.274 0 0 0 6.6 0.78 1.144 1.144 0 0 0 0.78 -0.466c0.458 -0.54 0.098 -1.024 0 -2.508 -0.018 -0.26 -0.038 -0.502 -0.038 -0.762a13.474 13.474 0 0 0 2.286 -0.28c2.4 -0.562 1.468 -0.856 2.082 -0.24 0.354 0.426 0.726 0.836 1.116 1.244a0.936 0.936 0 0 0 1.32 0l4.554 -4.664a1.036 1.036 0 0 0 0 -1.47l-1.84 -1.95a10.784 10.784 0 0 0 1.114 -6.078l2.9 -1.152a1.302 1.302 0 0 0 0.756 -1.668Zm-22.512 5.8c-1.824 -4.786 2.096 -8.418 6.728 -7.862 3.476 0.302 6.968 2.932 5.78 7.472 -1.51 6.07 -10.51 5.528 -12.51 0.384Z" fill="#2862e9" stroke-width="1"></path><path d="M171.42 103.442a29.786 29.786 0 1 0 -33.6 48.2 4.348 4.348 0 0 0 -0.052 6.244c-2.4 2.988 -0.4 7.126 3.736 8.012a35.882 35.882 0 0 0 6.85 0.354 9.826 9.826 0 0 0 0.056 0.984c0.08 0.838 0.782 2.6 1.58 2.546 0.744 -0.058 1.282 -1.83 1.282 -2.622a8.09 8.09 0 0 0 0 -0.908c4.078 -0.066 10.06 -0.388 11.476 -4.146a3.772 3.772 0 0 0 -0.93 -4.2 5.044 5.044 0 0 0 0.242 -5.768 30.032 30.032 0 0 0 9.36 -48.696ZM149.128 160.168a24.816 24.816 0 0 1 -5.78 -0.298c-0.418 -0.092 -2.298 -0.838 -2.2 -1.71 0.128 -0.824 2.018 -1.04 2.882 -1.04 0.286 0 4.748 0.258 5.538 0.4 1.528 0.186 2.662 0.328 2.696 1.2 0.044 1.032 -2.578 1.384 -3.136 1.448Zm8.654 -23.73c-0.448 5.356 -0.022 9.218 -0.4 14.28a26.482 26.482 0 0 1 -4.578 0.814c-6 -0.186 -6.54 -0.044 -9.458 -0.848V128.63a19.688 19.688 0 0 1 4.968 2.678 3.62 3.62 0 0 1 0.426 0.352 19.8 19.8 0 0 0 -2.024 2.696 7.352 7.352 0 0 0 -0.708 6.114 4.2 4.2 0 0 0 3.812 2.77c5.678 0.428 6.132 -6.916 2.88 -11.524a22.468 22.468 0 0 1 5.762 -3.736c-0.196 2.806 -0.476 5.632 -0.68 8.458Zm-8.662 -0.578a19.754 19.754 0 0 1 1.524 -2.062 8.574 8.574 0 0 1 0.614 1.152c0.618 1.366 1 4.21 -0.036 5.13a1.6 1.6 0 0 1 -1.19 0.298c-1.896 -0.11 -1.866 -2.962 -0.912 -4.518Zm10.08 14.3c0.4 -3.656 0.4 -7.306 0.706 -10.916 0.356 -4.476 1.14 -9.138 1.4 -13.178a1.352 1.352 0 0 0 -1.746 -1.376 23.732 23.732 0 0 0 -8.76 4.944 24.222 24.222 0 0 0 -8.494 -4.348 1.4 1.4 0 0 0 -1.86 1.338 227.22 227.22 0 0 0 1.2 23.512 27.52 27.52 0 0 1 -10.424 -44.966C149.2 86.582 177.4 101.442 177.312 124.5A27.172 27.172 0 0 1 159.2 150.16Z" fill="#191919" stroke-width="1"></path></svg>