<svg xmlns="http://www.w3.org/2000/svg" fill="none" viewBox="0 0 400 400" id="Programming-And-Developping--Streamline-Brooklyn.svg" height="400" width="400"><desc>Programming And Developping Streamline Illustration: https://streamlinehq.com</desc><g id="programming-and-developping--work-job-office-company-programming-and-developping"><g id="laptop"><path id="vector" fill="#191919" d="M46.149 315.2912C36.098 310.371 41.2844 298.574 49.771 298.6132C49.8164 298.6132 287.4248 296.1882 346.4676 297.9238C388.108 299.1478 389.1566 296.7846 393.9116 302.0516C398.6668 307.3186 394.7 314.7856 388.0544 315.8072C379.7122 317.091 52.4686 318.3828 46.149 315.2912Z" stroke-width="1"></path><path id="Subtract" fill="#191919" fill-rule="evenodd" d="M62.6628 118.3256C33.4466 118.88 11.256 119.7374 10.0152 119.9446C8.115 120.3132 6.4338 121.4086 5.3292 122.9978C4.2244 124.587 3.7836 126.5446 4.1002 128.454C4.1002 128.4812 14.1984 189.5164 22.312 238.5548C27.759 271.4776 32.3114 298.993 32.313 299.0114C32.5732 301.5954 35.2024 305.5766 36.0116 303.5954C37.2748 300.2478 39.2688 297.2222 41.8482 294.7414C42.4204 294.2316 42.8852 293.8086 43.3996 293.4598C47.4522 290.7086 54.5878 292.498 141.706 291.6456C167.5094 291.3938 187.0644 291.2162 201.9066 291.0822C239.9642 290.7354 247.031 290.6714 248.9916 290.3412C255.3668 289.2494 255.0036 281.7122 253.662 275.3864C252.6074 270.4312 251.495 265.3748 250.3392 260.2604C245.1776 260.3492 239.9952 260.4298 234.819 260.506C236.8768 269.5912 237.7828 275.2854 236.8498 275.2792C217.9862 274.8106 77.9596 274.8376 45.1606 276.311C44.6736 276.3338 39.7204 246.8206 30.3008 187.7712C22.975 142.1266 20.9248 137.716 21.6308 137.2188C21.724 137.1532 21.8656 137.156 22.0496 137.1406C28.5184 136.6032 45.036 135.7846 65.627 135.1028C64.3516 127.996 63.3168 122.531 62.6628 118.3254Z" clip-rule="evenodd" stroke-width="1"></path><path id="vector_2" fill="#191919" d="M49.8536 157.9286C45.6908 157.9286 37.5344 158.2322 34.7524 157.421C34.3978 157.3766 34.071 157.2066 33.8314 156.9414C33.5918 156.6764 33.4554 156.334 33.4472 155.9768C33.4388 155.6194 33.5592 155.271 33.7864 154.9954C34.0134 154.7194 34.3322 154.5344 34.6842 154.4738C37.0122 153.609 57.8284 153.3882 60.0182 153.3862C62.4308 153.3862 66.7978 152.3746 67.0002 155.5984C67.1694 158.2814 65.0416 157.9348 49.8536 157.9286Z" stroke-width="1"></path><path id="vector_3" fill="#191919" d="M53.3624 183.1858C48.99 183.5378 44.5968 183.5418 40.2238 183.198C39.8032 183.1262 39.424 182.9018 39.1588 182.5678C38.8938 182.2336 38.7614 181.8132 38.787 181.3874C38.8126 180.9616 38.9944 180.5602 39.2976 180.2604C39.6008 179.9602 40.004 179.7828 40.4302 179.7616C43.5488 179.2704 47.6248 179.186 65.4236 178.569C67.281 178.505 69.0746 179.1178 68.9052 180.9856C68.6514 183.6974 66.8724 183.1858 53.3624 183.1858Z" stroke-width="1"></path><path id="vector_4" fill="#191919" d="M48.3264 171.003C44.6566 171.1532 40.9804 171.015 37.3322 170.5902C37.001 170.5226 36.7042 170.3398 36.4948 170.074C36.2856 169.8082 36.1774 169.4768 36.1892 169.1388C36.2012 168.801 36.3324 168.478 36.5598 168.2276C36.7872 167.9772 37.096 167.8154 37.4312 167.771C39.299 167.2572 40.6962 167.1518 56.3176 166.638C57.2566 166.607 58.2928 166.51 58.8252 167.6204C60.8498 171.8348 53.839 170.97 48.3264 171.003Z" stroke-width="1"></path><path id="vector_5" fill="#191919" d="M42.8308 193.8474C42.483 193.7874 42.1692 193.6026 41.9486 193.3272C41.728 193.0518 41.6158 192.7054 41.6328 192.3528C41.6502 192.0006 41.7958 191.6666 42.0422 191.4142C42.2888 191.1618 42.6192 191.0082 42.971 190.9826C48.7024 190.2956 54.474 190.002 60.2456 190.1034C60.6754 190.1146 61.0922 190.2552 61.4408 190.507C61.7896 190.759 62.0538 191.1102 62.1992 191.5152C62.3446 191.9198 62.3644 192.359 62.256 192.7754C62.1476 193.1914 61.9158 193.5652 61.5912 193.8474C61.0608 194.3694 45.4704 194.7038 42.8306 193.8474Z" stroke-width="1"></path></g><g id="window"><path id="vector_6" fill="#2862e9" d="M190.4174 146.6156C193.7546 146.3122 193.7856 142.5478 190.339 142.521C182.715 142.4674 92.9928 143.2372 89.829 144.688C89.5352 144.78 89.2788 144.9634 89.0964 145.2114C88.9142 145.4592 88.816 145.759 88.816 146.0666S88.9142 146.674 89.0964 146.9222C89.2788 147.17 89.5352 147.3534 89.829 147.4454C93.6368 148.9396 186.236 146.9934 190.4174 146.6156Z" stroke-width="1"></path><path id="vector_7" fill="#2862e9" d="M136.7508 160.2986C141.3304 160.9322 193.641 160.0406 198.2642 159.8858C198.5542 159.9218 198.8486 159.8954 199.1278 159.8086C199.407 159.7222 199.6646 159.5774 199.8836 159.3836C200.1028 159.19 200.2782 158.952 200.398 158.6854C200.5176 158.4188 200.5796 158.13 200.5796 157.8374C200.5796 157.5452 200.5176 157.2564 200.398 156.9896C200.2782 156.7232 200.1028 156.4852 199.8836 156.2916C199.6646 156.0978 199.407 155.953 199.1278 155.8662C198.8486 155.7798 198.5542 155.7534 198.2642 155.7892C194.805 155.5828 140.119 156.4496 136.7054 157.0666C134.334 157.4836 134.0182 159.9168 136.7508 160.2986Z" stroke-width="1"></path><path id="vector_8" fill="#2862e9" d="M204.8972 170.6432C204.1624 170.5132 193.119 170.6886 191.2924 170.7402C156.5494 171.7184 149.297 170.6308 149.328 173.545C149.359 176.459 154.1616 175.328 196.4458 175.328C199.199 175.0784 201.95 175.0866 204.7012 174.8514C207.7268 174.5892 207.8588 171.1756 204.8972 170.6432Z" stroke-width="1"></path><path id="vector_9" fill="#2862e9" d="M141.0392 175.8542C141.303 175.8506 141.5632 175.7936 141.8044 175.687C142.0454 175.58 142.2624 175.4254 142.4418 175.2326C142.6216 175.0396 142.7604 174.8124 142.8498 174.5642C142.9392 174.3162 142.9774 174.0526 142.9624 173.7892C142.947 173.5262 142.8788 173.2688 142.7614 173.0326S142.4798 172.5866 142.2792 172.4158C142.0784 172.2446 141.8452 172.116 141.5934 172.0378C141.3416 171.9594 141.0766 171.9328 140.8144 171.9596C140.769 171.9596 101.5288 172.2094 96.9904 173.328C96.5728 173.3588 96.1804 173.54 95.8864 173.8382C95.5924 174.1362 95.4164 174.5308 95.3912 174.9488C95.366 175.3666 95.4932 175.7796 95.7494 176.1108C96.0054 176.4422 96.3732 176.6692 96.784 176.7498C98.8952 177.3546 130.9428 176.8098 141.0392 175.8542Z" stroke-width="1"></path><path id="vector_10" fill="#2862e9" d="M118.0664 160.9244C122.9888 160.8748 127.8946 161.459 127.9586 158.5984C128.0226 155.8638 124.3448 156.6172 124.0496 156.6172C118.8322 156.6048 97.886 156.776 93.04 157.8224C90.6914 158.3302 91.3084 160.7428 93.3248 160.9058C99.3472 161.395 111.1132 160.9926 118.0664 160.9244Z" stroke-width="1"></path><path id="vector_11" fill="#2862e9" d="M119.8456 232.3034C119.8002 232.2786 119.8044 232.3406 107.4234 225.8662C110.6862 223.3484 121.695 216.8574 120.6032 214.9566C120.1758 214.2096 119.0346 214.4634 118.2896 214.8926C100.3772 225.3172 99.8056 225.8312 105.574 228.7886C116.849 234.588 117.5012 234.906 118.5764 235.263C118.9644 235.4074 119.394 235.3992 119.775 235.2362C120.1562 235.073 120.46 234.7696 120.6236 234.3878C120.787 234.0082 120.7974 233.5788 120.6524 233.1908C120.5076 232.8008 120.2186 232.483 119.8456 232.3034Z" stroke-width="1"></path><path id="vector_12" fill="#2862e9" d="M156.1284 223.9922C151.4316 220.6302 146.5482 217.5364 141.5018 214.7256C140.769 214.3128 139.8382 213.7658 139.1862 214.6678C137.504 216.9938 151.3134 224.2234 152.1388 225.697C139.118 232.584 138.5422 232.1444 139.0272 233.9132C139.376 235.1824 140.5958 235.4404 141.8072 234.8234C154.4504 228.3944 160.0992 226.826 156.1284 223.9922Z" stroke-width="1"></path><path id="vector_13" fill="#2862e9" d="M133.8634 209.4936C131.4116 213.8112 125.0508 231.4552 124.2788 233.5272C120.7394 243.0334 119.9634 244.509 121.858 245.0848C123.6308 245.6194 123.4822 243.9972 127.2446 234.5902C128.9536 230.32 135.527 213.1054 135.8674 210.2532C135.917 208.2284 134.4434 208.4782 133.8634 209.4936Z" stroke-width="1"></path><path id="vector_14" fill="#2862e9" d="M76.8966 114.626C76.4994 114.6114 76.1036 114.676 75.732 114.816C75.36 114.956 75.0198 115.1688 74.7314 115.4418C74.4428 115.715 74.2116 116.0428 74.0514 116.4064C73.891 116.7698 73.8046 117.1618 73.7976 117.5588C73.7904 117.956 73.8628 118.3506 74.0098 118.7198C74.157 119.0888 74.3762 119.4248 74.6548 119.7078C74.9334 119.9912 75.2656 120.216 75.632 120.3694C75.9986 120.5226 76.392 120.6016 76.7892 120.601C77.1864 120.6158 77.5822 120.5512 77.9538 120.411C78.3258 120.2708 78.666 120.0582 78.9544 119.785C79.243 119.512 79.4742 119.1842 79.6344 118.8206C79.7948 118.4572 79.8812 118.0654 79.8882 117.6682C79.8954 117.271 79.8232 116.8762 79.676 116.5074C79.5288 116.1384 79.3096 115.8024 79.031 115.519C78.7524 115.236 78.4202 115.011 78.0538 114.8576C77.6872 114.7042 77.2938 114.6256 76.8966 114.626Z" stroke-width="1"></path><path id="vector_15" fill="#2862e9" d="M86.8528 114.0276C86.0464 114.0362 85.2766 114.3646 84.7126 114.9406C84.1484 115.5168 83.8362 116.2934 83.8448 117.0996C83.8532 117.906 84.1816 118.6758 84.7578 119.24C85.3338 119.804 86.1104 120.1164 86.9168 120.1076C87.316 120.1036 87.7106 120.0208 88.0778 119.8642S88.7778 119.48 89.057 119.1948C89.3364 118.9094 89.5568 118.572 89.7058 118.2014C89.8546 117.831 89.929 117.435 89.9248 117.0356C89.9208 116.6364 89.8378 116.242 89.6812 115.8746C89.5246 115.5076 89.297 115.1748 89.0118 114.8954C88.7266 114.6162 88.3892 114.3958 88.0188 114.2466C87.6482 114.0978 87.252 114.0234 86.8528 114.0276Z" stroke-width="1"></path><path id="vector_16" fill="#2862e9" d="M96.6724 113.7776C96.2764 113.763 95.8814 113.8272 95.5106 113.9668C95.1396 114.1064 94.8004 114.3184 94.5122 114.5906C94.2242 114.8626 93.9932 115.1894 93.8328 115.5516C93.6724 115.9142 93.5858 116.3048 93.578 116.701C93.57 117.0974 93.6412 117.491 93.7874 117.8594C93.9334 118.2278 94.1512 118.5634 94.4284 118.8468C94.7054 119.13 95.0362 119.3554 95.4014 119.5094C95.7664 119.6636 96.1586 119.7432 96.5548 119.7442C96.951 119.7588 97.3458 119.6946 97.7166 119.555C98.0876 119.4154 98.427 119.2034 98.715 118.9312C99.003 118.659 99.2342 118.3324 99.3946 117.97C99.5548 117.6078 99.6416 117.217 99.6494 116.8208C99.6572 116.4244 99.586 116.0308 99.44 115.6624C99.294 115.294 99.076 114.9584 98.7988 114.675C98.5218 114.3918 98.191 114.1664 97.826 114.0124C97.4608 113.8582 97.0688 113.7784 96.6724 113.7776Z" stroke-width="1"></path><path id="Subtract_2" fill="#2862e9" fill-rule="evenodd" d="M94.945 107.2002C104.6904 106.7706 205.184 106.461 254.017 106.3404C254.1718 107.6422 254.3246 108.9478 254.4794 110.244L254.5598 110.9216C208.7608 111.1384 102.889 111.6876 70.4636 112.2692C70.3892 112.2706 70.318 112.2714 70.25 112.2722C69.787 112.2778 69.473 112.2814 69.2916 112.4384C68.9102 112.7682 69.1138 113.7744 69.7448 116.8964C70.0812 118.561 70.5392 120.8264 71.095 123.9114C71.1024 123.9512 209.9804 121.3558 243.4232 120.7308L243.4438 120.7304L250.6014 120.5968C252.3122 120.5534 253.0552 124.0868 249.4228 124.2684C249.0824 124.2848 240.6536 124.4528 227.6058 124.713C184.9756 125.5626 93.0398 127.395 72.771 128.136C72.708 128.1384 72.6462 128.12 72.5898 128.1032C72.5264 128.0842 72.4692 128.0674 72.4232 128.083C71.9948 128.229 72.532 131.2084 78.0686 161.9192C79.717 171.0636 81.809 182.6662 84.4504 197.3848C87.6338 215.1198 89.707 227.2572 91.1258 235.5644C93.7522 250.94 94.1374 253.1958 95.1748 253.5508C95.353 253.6128 95.5508 253.619 95.7824 253.623L95.816 253.6252C95.8538 253.6272 190.801 253.7654 259.5462 252.7192C259.6348 253.6066 259.7112 254.43 259.7814 255.1896C259.8536 255.9718 259.9196 256.688 259.9878 257.3442C177.5298 258.9768 98.1706 258.3824 92.2022 257.5156L92.1838 257.5134C92.111 257.501 92.0416 257.4908 91.9744 257.4722C90.7028 257.1316 90.1574 254.0812 79.2958 193.3076C76.1008 175.4292 72.0126 152.5556 66.7506 123.286C66.4522 121.6262 66.1662 120.139 65.9098 118.8068C64.8536 113.3182 64.3032 110.4572 65.4836 108.9784C66.769 107.3684 70.106 107.3964 77.0762 107.4546C81.4624 107.4912 87.2876 107.54 94.945 107.2002ZM295.4696 206.5216C295.1024 204.1812 294.7328 201.8264 294.3634 199.4674L294.3594 199.4406C290.9436 177.6672 287.435 155.3014 284.5664 136.8004L280.0176 136.976C283.1092 156.8794 287.301 183.6516 290.9064 206.6764C292.4564 206.6228 294.0044 206.5712 295.4696 206.5216Z" clip-rule="evenodd" stroke-width="1"></path></g><g id="setting"><path id="vector_17" fill="#2862e9" d="M266.0618 141.906C269.2214 141.7408 268.557 144.3536 269.983 155.451C273.667 184.2812 274.214 183.2348 274.2222 190.0496C274.2222 191.8844 274.4286 192.035 250.3062 192.8276C215.3878 193.975 215.72 194.8914 215.4828 191.4778C214.8924 182.9582 210.1064 152.605 210.0836 148.081C210.0836 146.4114 209.2994 144.366 211.4108 144.2484C249.138 142.038 245.32 142.9812 266.0618 141.906ZM217.5052 146.3308C214.1908 146.3474 212.9028 146.0088 213.2248 147.7074C213.7924 150.7 217.4166 178.5828 217.8148 181.6064C219.014 190.7142 218.7786 191.1002 220.5846 191.0464C269.8034 189.511 269.7932 189.6018 269.8386 189.6018C271.789 189.451 270.8004 188.1282 270.1152 182.8282C265.1742 144.6468 265.4776 144.7128 264.004 144.8304C256.0376 145.464 217.5734 146.3288 217.5052 146.3308Z" stroke-width="1"></path><path id="vector_18" fill="#2862e9" d="M238.8498 149.9756C241.1758 150.0478 240.1376 154.5966 241.964 154.3098C242.6452 154.2066 243.5058 154.6132 243.7824 153.4842C244.7296 149.6474 244.711 148.956 251.559 152.2046C253.7942 153.2674 249.749 156.8978 250.9234 157.3642C251.559 157.6202 251.7488 158.8296 252.7416 158.2496C256.1738 156.2436 255.9426 154.4314 259.7958 161.8676C260.444 163.1182 259.7546 163.6342 256.3286 165.0046C255.7384 165.24 255.7672 165.5578 255.6888 166.0964C255.435 167.83 256.341 168.4142 257.796 168.862C260.223 169.6112 260.8918 169.314 257.8786 175.9534C257.4286 176.9462 256.9044 177.0886 255.9096 176.6118C255.3442 176.3898 254.7972 176.1238 254.273 175.8172C253.9964 175.6006 253.66 175.475 253.3092 175.4586C252.9582 175.4422 252.6116 175.5354 252.3164 175.7256C252.0212 175.9154 251.7922 176.1928 251.6622 176.519C251.5322 176.845 251.5074 177.2036 251.59 177.5446C253.2266 180.822 254.4484 181.5362 246.7626 183.9014C244.387 184.632 245.4748 179.4888 243.3036 179.753C241.1324 180.0172 241.9724 178.9666 240.4142 182.9932C240.3728 183.1498 240.2966 183.2956 240.1934 183.4208C240.0902 183.5462 239.9622 183.6482 239.8156 183.7198C239.6712 183.7914 239.5122 183.8312 239.3492 183.8366C239.1882 183.8418 239.0272 183.8126 238.8766 183.7506C237.0314 183.1956 235.2462 182.4596 233.5456 181.5526C233.3826 181.4974 233.236 181.4036 233.1164 181.2794C232.9988 181.1552 232.912 181.004 232.8624 180.839C232.815 180.674 232.8068 180.4996 232.8418 180.3312C232.8748 180.1626 232.9492 180.0046 233.0564 179.8706C233.4012 179.2514 233.6116 178.5414 234.008 177.9574C234.2226 177.701 234.3464 177.3812 234.3608 177.0472C234.3774 176.7134 234.2824 176.3836 234.0904 176.1088C233.9006 175.8344 233.624 175.63 233.3062 175.5272C232.9884 175.4246 232.6458 175.4294 232.33 175.5406C228.5408 177.4538 228.3076 178.7376 225.5978 171.188C224.6648 168.5854 230.3858 169.4604 230.0268 167.6484C229.6676 165.8364 230.8626 166.5174 226.3118 164.9056C224.8526 164.3876 224.9868 163.3948 227.4778 157.973C228.547 155.647 232.167 160.0638 233.0772 158.5716C233.4446 157.969 234.4496 157.6512 233.915 156.6212C231.847 152.6566 231.2526 152.3944 238.8498 149.9756ZM250.201 166.858C250.201 160.683 242.67 159.0752 238.7114 162.4516C235.044 165.5804 235.822 171.9868 242.4986 173.2972C245.9184 173.968 250.461 170.2716 250.203 166.858H250.201Z" stroke-width="1"></path></g><g id="php"><path id="vector_19" fill="#2862e9" d="M261.9444 134.485C261.385 134.5172 260.834 134.3264 260.415 133.9542C259.996 133.5822 259.7402 133.0592 259.705 132.4994C259.5812 127.5296 255.243 93.1108 254.9128 86.432C254.791 83.939 254.7642 84.5746 300.7304 82.8142C304.2534 82.6778 302.5218 82.5108 307.2048 120.2628C308.7588 132.8028 308.2924 132.611 306.243 132.6172C306.1934 132.6172 261.9898 134.4808 261.9444 134.485ZM305.465 129.0734C304.6786 124.4794 305.465 129.0734 300.3878 86.5002C300.134 84.3848 298.9224 86.4362 258.9806 86.7602C256.7908 86.7768 257.666 87.5032 258.3428 93.5834C259.3314 102.4868 262.1734 131.645 263.4324 131.6016C308.6392 130.0682 305.7724 130.9164 305.465 129.0734Z" stroke-width="1"></path><path id="vector_20" fill="#2862e9" d="M275.3636 98.2556C275.3822 97.1824 275.4894 96.9058 275.9826 96.8356C277.252 96.654 277.446 98.3132 277.547 99.438C278.2654 107.4872 277.6378 107.807 279.2518 107.3818C283.2722 106.319 284.719 107.1548 284.4528 105.4274C284.2608 104.2036 283.4208 96.6456 284.7748 96.46C285.5714 96.3506 286.172 96.3052 287.076 106.511C287.1956 107.8524 288.079 117.8044 288.1078 119.3068C288.147 121.0116 286.2792 121.3336 285.8892 119.5978C285.3196 117.0532 285.5962 116.9148 284.7892 109.9348C284.5828 108.1682 283.3444 109.615 279.1074 109.6768C278.129 109.6914 278.3994 109.6914 279.2064 119.0612C279.2972 120.1056 279.6336 121.5916 278.224 121.6556C277.741 121.6782 277.3552 120.8074 277.0456 119.408C276.1106 112.3922 275.5492 105.3312 275.3636 98.2556Z" stroke-width="1"></path><path id="vector_21" fill="#2862e9" d="M263.2508 101.0442C263.2508 98.0742 263.001 97.9732 265.426 97.771C273.017 97.1332 275.7184 103.0524 273.2872 106.1398C270.0284 110.282 266.6684 107.857 267.0358 110.1108C267.362 112.1148 268.2596 118.005 268.4414 121.3628C268.5466 123.3092 266.2248 123.4578 265.8884 121.5404C265.1308 117.1878 263.4446 104.3628 263.2506 101.0442ZM265.618 100.4498C266.5818 106.565 266.2784 107.0542 267.5208 106.8334C270.6806 106.2452 272.8684 104.0864 270.889 101.7458C269.2422 99.7976 265.327 98.6088 265.618 100.4498Z" stroke-width="1"></path><path id="vector_22" fill="#2862e9" d="M292.4626 95.2592C299.067 95.2406 301.8944 100.7842 298.6914 104.1998C295.2756 107.8384 292.5514 105.174 292.9642 107.9148C294.5224 118.2486 295.028 120.364 293.123 120.3742C291.3832 120.3742 291.6392 118.1578 290.3574 108.9178C288.3802 94.6338 288.2668 95.5852 292.4626 95.2592ZM293.2882 104.3216C299.2506 103.721 298.7924 97.6346 292.151 97.0444C290.8858 96.933 291.9672 99.8244 292.3862 103.7004C292.4482 104.2906 292.7928 104.3712 293.2882 104.3216Z" stroke-width="1"></path></g><g id="css"><path id="vector_23" fill="#2862e9" d="M304.5568 209.5638C307.1202 209.535 306.532 211.0746 307.5638 220.7438C311.4708 257.437 313.0992 258.985 309.9744 259.1852C293.4038 260.248 307.9106 259.6496 276.7298 260.7372C264.0948 261.1768 263.4488 262.0024 263.2054 258.791C262.1238 244.606 258.5574 221.9594 258.3366 213.386C258.2768 211.1158 258.023 210.961 277.1694 210.5256L304.5568 209.5638ZM262.743 213.5512C260.0208 213.5346 261.1332 214.3994 261.7482 219.9264C262.5202 226.8404 264.648 247.3428 266.0658 257.4144C266.3486 259.437 266.0658 257.7116 307.5846 257.1832C309.7784 257.1564 308.7774 257.0182 307.6114 245.4832C307.5618 244.9838 304.6456 219.2186 303.8304 213.3118C303.529 211.1798 292.5472 213.7494 262.743 213.5512Z" stroke-width="1"></path><path id="vector_24" fill="#2862e9" d="M285.266 245.219C281.617 245.219 278.8556 242.6764 279.708 241.3534C280.6058 239.9562 282.3188 242.9446 285.8996 242.5092C289.4804 242.0738 289.8208 237.946 283.9678 235.1268C281.2022 233.7936 278.3954 232.8566 280.5212 229.0302C281.8688 226.601 285.1318 225.503 286.8736 226.76C287.7488 227.379 287.7674 228.3594 286.4032 228.2974C282.5168 228.1158 280.6244 231.1064 282.9978 232.287C285.01 233.2838 290.1676 234.7306 291.0818 239.3494C291.6184 242.051 289.5588 245.219 285.266 245.219Z" stroke-width="1"></path><path id="vector_25" fill="#2862e9" d="M298.2682 244.1356C292.1902 244.2118 291.2242 238.7694 293.8392 240.0698C295.903 241.1016 297.2404 242.082 299.488 241.308C303.3144 239.9872 300.7634 235.7934 297.8554 234.5736C294.1984 233.0402 291.3914 231.6326 293.3314 228.1758C295.7978 223.7818 300.9492 225.1068 300.328 226.8734C300.1504 227.377 299.6738 227.2222 299.3064 227.218C295.1414 227.1768 293.6266 230.1074 295.9114 231.2302C297.486 232 302.7674 233.5748 303.8634 237.783C304.8354 241.5144 301.9728 244.0902 298.2682 244.1356Z" stroke-width="1"></path><path id="vector_26" fill="#2862e9" d="M267.2484 236.0658C267.5106 225.7796 276.3026 225.5834 275.9166 228.2418C275.7268 229.542 272.6392 227.4842 270.8312 231.5542C268.1482 237.593 270.8622 247.3366 275.9002 243.5246C277.2912 242.472 278.4882 243.9146 277.1282 245.0106C272.2472 248.9484 267.0564 243.7144 267.2484 236.0658Z" stroke-width="1"></path></g></g></svg>