<svg xmlns="http://www.w3.org/2000/svg" fill="none" viewBox="0 0 400 400" id="Scientists-Working-On-Robot--Streamline-Brooklyn.svg" height="400" width="400"><desc>Scientists Working On Robot Streamline Illustration: https://streamlinehq.com</desc><g id="scientists-working-on-robot--ai-ml-tech-scientists-working-on-robot"><g id="controller"><path id="vector" fill="#191919" d="M230.17 104.117C232.5438 90.05 232.1826 91.049 236.9178 91.918C250.091 94.335 250.3202 93.8974 249.8434 97.4334C245.3828 130.5008 246.1796 129.4048 241.0026 129.3036C239.0768 129.2664 228.1122 128.5172 227.4268 127.0476C226.723 127.8154 226.0274 128.5338 225.3648 129.2232C226.18 129.9436 229.2762 131.7476 240.6228 132.2512C246.7286 131.6196 247.2322 132.3358 248.4954 124.5046C254.0108 90.3182 256.0728 92.56 241.9708 90.1924C238.2244 89.5628 230.8408 87.798 230.1412 91.5816C230.0792 91.916 229.4558 95.5178 228.659 100.3624C229.5074 101.5162 229.9368 102.9632 230.17 104.117Z" stroke-width="1"></path><path id="vector_2" fill="#191919" d="M238.4328 116.5042C230.6014 116.4628 230.6014 104.885 238.602 104.9676C246.6026 105.0502 246.516 116.5454 238.4328 116.5042ZM242.4332 110.8194C242.4558 105.2628 234.5998 105.3888 234.6864 110.8608C234.769 116.081 242.4124 115.8292 242.4332 110.8194Z" stroke-width="1"></path><path id="vector_3" fill="#191919" d="M248.5802 65.3092C243.655 88.8012 243.6942 88.7268 242.6024 88.5492C240.6208 88.2272 244.3858 76.4452 246.7286 64.9728C246.8484 64.3824 246.9784 63.982 247.74 64.046C248.4542 64.1058 248.4976 64.6362 248.5822 65.3092H248.5802Z" stroke-width="1"></path></g><g id="character 1"><path id="vector_4" fill="#0a65fc" d="M7.0058 211.2312C7.0842 192.5386 20.274 170.2414 41.739 161.9312C44.5608 160.8394 47.595 160.1376 50.5384 159.4048C53.0258 158.7876 54.2188 160.9674 61.0636 195.7378C64.4198 212.7916 64.2154 212.4532 64.9792 217.5454C65.3136 219.7766 64.5602 219.0748 49.8656 221.7562C42.668 223.069 41.6626 224.2826 42.1602 222.008C43.6092 215.4028 44.6082 206.4712 43.8444 199.3582C43.6772 197.7998 42.4986 197.6738 42.3294 199.3582C39.097 231.6084 40.7296 221.8822 29.026 227.734C28.3532 228.0704 27.0486 228.1962 27.4264 229.249C28.2706 231.6062 48.6024 221.752 75.3784 221.8822C84.0084 221.9234 89.1894 227.2922 93.8606 235.65C94.4034 236.62 94.4096 237.5882 93.8194 238.4716C66.1 279.903 6.7786 266.3002 7.0078 211.2332L7.0058 211.2312ZM46.371 163.7004C43.8878 165.0484 43.9972 165.626 41.3614 180.624C40.8886 183.3158 41.6998 184.3684 48.4352 191.3184C54.9206 198.0104 57.024 202.8962 60.1388 206.2648C60.1388 200.2438 51.3476 190.0468 46.92 186.0136C41.962 181.4992 44.1582 179.3938 45.6156 170.225C45.9376 168.2022 46.6682 166.1424 46.373 163.7004H46.371Z" stroke-width="1"></path><path id="vector_5" fill="#191919" d="M28.5182 121.4724C27.5068 120.2936 26.3406 119.404 25.614 117.9778C23.331 113.4986 27.0404 105.7518 31.5918 104.4204C34.368 103.6092 35.59 102.6516 35.9698 99.8732C36.7686 94.0214 43.2004 91.144 48.6002 93.1792C50.072 93.7344 50.9968 94.1472 51.843 91.916C54.3612 85.2612 65.105 86.5698 67.8834 91.8312C68.7668 89.474 70.7464 89.2118 72.6412 89.2636C77.8636 89.406 79.0856 94.1102 80.4726 93.1792C83.7216 90.9994 90.3268 94.8966 88.597 102.0632C88.4236 102.7774 88.469 103.2872 89.2286 103.8322C93.1774 106.6662 93.3156 110.8626 89.6084 114.2726C88.886 114.9372 88.6404 115.2406 89.3566 116.1242C92.8554 120.4568 91.3032 127.3426 86.3244 129.9744C85.443 130.441 85.571 131.1118 85.5668 131.7848C85.5462 135.5744 84.1964 138.9122 82.157 142.058C76.6498 150.5518 70.2386 148.2896 70.959 151.7408C71.3368 153.551 71.1736 155.4438 71.7598 157.2562C72.0984 158.3068 71.6712 159.2646 70.4554 159.7394C64.9152 161.9108 59.5504 162.1812 54.1198 159.4028C52.3096 158.476 52.646 156.961 52.646 151.9926C51.6346 152.329 50.7552 152.6346 49.8676 153.004C47.145 154.131 41.0124 152.1248 40.0156 148.8778C39.3322 146.6486 38.0794 146.3472 36.2692 145.9736C29.2428 144.5224 31.9324 138.1442 29.9116 137.554C21.2794 135.0316 23.68 124.587 28.5224 121.4722H28.5182ZM43.2108 127.7866C40.769 127.4954 40.1786 132.7548 44.4306 134.27C57.7774 139.0278 53.2734 157.0848 55.8392 158.0158C60.0088 159.5268 64.17 159.6836 68.4284 158.4368C70.3212 157.8816 69.2726 157.0064 69.1858 151.5736C69.1446 149.0058 67.8958 151.3322 62.5332 150.1844C62.1142 150.0936 61.565 149.9326 61.6064 149.427C61.6476 146.8158 88.8302 154.195 82.6998 117.7672C82.19 114.737 79.5726 116.2584 78.2372 113.4738C77.4714 111.8782 77.1802 111.3148 74.9944 112.2538C71.702 113.6678 68.0444 113.3932 65.0576 110.6542C62.4444 108.2578 64.3702 113.4842 54.8278 115.2428C53.7316 115.445 52.1794 114.4872 51.585 115.7052C50.5384 117.856 54.739 129.1572 43.2066 127.7886L43.2108 127.7866Z" stroke-width="1"></path><path id="vector_6" fill="#0a65fc" d="M99.9642 185.128C94.6368 199.1972 95.968 198.6048 94.6182 199.2736C87.7672 202.667 85.6288 211.1032 85.6082 218.7672C85.6062 219.5248 86.0706 220.7406 85.0178 220.8728C80.551 221.4362 82.2746 214.637 78.8296 188.7506C78.1628 183.7388 76.1172 165.0956 74.662 160.2056C74.2368 158.7752 74.8292 158.4098 76.0924 158.5212C94.9794 160.2014 108.836 162.7176 121.8978 177.6352C122.1538 177.9262 122.3188 178.2668 122.5294 178.6032C122.9504 179.2762 122.8246 179.621 121.9824 179.6148C101.3514 179.4248 101.7806 180.331 99.9642 185.128ZM88.6816 174.7702C88.5558 178.3906 82.3634 199.6038 84.7248 199.8206C85.2718 199.8702 85.2718 199.3994 85.3564 199.063C92.1824 171.74 93.328 175.3398 86.6608 166.3092C85.73 165.0502 85.0736 163.5062 83.5874 162.73C77.911 159.7722 89.144 172.3716 88.6816 174.7702Z" stroke-width="1"></path><path id="vector_7" fill="#0a65fc" d="M92.68 271.31C91.7964 271.31 91.3218 270.9322 91.2062 269.962C88.6982 248.8954 88.562 250.0534 89.5218 248.786C94.5314 242.1664 95.675 248.0554 110.6564 244.7032C113.2676 244.119 112.7618 245.1242 113.5194 255.48C114.4462 268.1518 115.3688 269.6998 112.089 270.4264C103.8324 272.2532 92.8904 271.31 92.68 271.31Z" stroke-width="1"></path><path id="vector_8" fill="#0a65fc" d="M133.5602 205.5052C139.7484 245.8384 92.4714 245.628 94.8266 242.2592C97.8588 237.9246 96.3376 237.6232 98.0694 235.945C105.5456 228.6854 102.3216 229.2078 105.3538 228.5348C109.7318 227.5646 109.6616 229.4512 124.2572 226.8504C129.3142 225.9504 131.75 208.2836 133.5602 205.5052Z" stroke-width="1"></path><path id="vector_9" fill="#0a65fc" d="M46.5792 272.278C18.2882 272.278 24.332 275.1388 25.1494 259.0592C25.3558 255.0176 27.6738 262.3082 43.4212 265.0804C61.6496 268.288 67.5778 260.659 67.5446 264.7006C67.4868 271.6464 68.2176 272.3152 65.9862 272.278C56.6832 272.1272 46.6206 272.2366 46.5772 272.278H46.5792Z" stroke-width="1"></path><path id="vector_10" fill="#191919" d="M137.5172 184.5814C125.2004 225.581 125.9806 224.2332 122.614 224.6192C115.371 225.4468 104.782 227.1456 104.722 224.9556C104.689 223.777 105.3558 223.9194 114.4484 223.0194C122.7854 222.1938 123.2064 222.7676 123.7948 220.8294C135.3704 182.6556 135.4138 184.7384 133.1412 184.8332C115.0758 185.5888 111.4162 185.6506 106.5344 185.4236C104.008 185.306 104.5858 185.7992 99.6712 199.5692C98.7856 202.0524 98.3254 202.8032 97.3986 202.5164C96.1394 202.1266 96.5234 201.6354 99.6712 191.8224C102.3732 183.4048 102.3648 182.185 105.3558 182.2242C137.0568 182.637 138.6978 180.6658 137.5212 184.5814H137.5172Z" stroke-width="1"></path><path id="vector_11" fill="#191919" d="M110.3634 213.252C109.6058 216.1994 107.3436 213.2808 101.6898 227.187C100.8002 229.3748 99.7228 231.4494 97.9848 233.1234C97.5988 233.495 97.2272 234.3866 96.5956 233.6704C94.0692 230.8074 96.222 233.21 100.8064 222.0926C103.461 215.6526 109.6472 210.8946 110.3634 213.252Z" stroke-width="1"></path><path id="vector_12" fill="#191919" d="M87.5008 221.1678C88.9312 215.8218 87.2386 207.2204 93.815 202.054C95.749 200.5348 96.7708 202.2314 95.2888 203.6536C89.5958 209.1194 91.7488 215.7494 89.8994 221.4196C89.1976 223.5726 87.4988 222.136 87.4988 221.1678H87.5008Z" stroke-width="1"></path><path id="vector_13" fill="#191919" d="M104.1316 207.947C105.4382 206.9378 107.5002 207.7366 105.69 209.6726C97.611 218.307 98.9154 220.2286 97.2704 219.692C95.5488 219.1326 97.485 213.0868 104.1336 207.945L104.1316 207.947Z" stroke-width="1"></path><path id="vector_14" fill="#191919" d="M98.4056 205.6312C98.8226 205.2058 99.5058 205.0758 100.0466 205.5052C101.6648 206.787 97.7266 208.6612 94.8676 215.6092C93.8976 217.9664 90.2068 213.9784 98.4056 205.6312Z" stroke-width="1"></path><path id="vector_15" fill="#191919" d="M71.5452 128.1666C71.7144 126.1458 69.7328 123.0268 70.7876 122.6098C71.7536 122.228 73.1552 126.5234 73.44 127.9994C74.1832 131.8676 69.5966 132.8026 69.3138 131.4938C68.961 129.855 72.346 131.4918 71.5452 128.1666Z" stroke-width="1"></path><path id="vector_16" fill="#191919" d="M65.9886 139.703C63.0844 139.6286 61.0264 135.9628 61.9056 135.2404C63.1752 134.1958 62.5374 137.7668 67.4624 137.7668C69.188 137.7668 67.84 139.7504 65.9886 139.703Z" stroke-width="1"></path><path id="vector_17" fill="#191919" d="M63.1254 116.8836C63.4164 118.6112 60.5432 117.253 58.1158 120.4628C57.608 121.1336 57.0796 120.506 57.1476 119.7898C57.4842 116.2188 62.9128 115.6202 63.1254 116.8836Z" stroke-width="1"></path><path id="vector_18" fill="#191919" d="M75.3348 116.0416C73.7764 116.1674 73.0436 116.6774 72.8516 115.5792C72.5276 113.7318 76.7694 113.4718 79.1658 115.7484C80.9368 117.4308 76.8932 116.339 75.3348 116.0438V116.0416Z" stroke-width="1"></path><path id="vector_19" fill="#191919" d="M75.7124 123.241C75.6278 122.3988 75.7972 121.6662 76.724 121.6826C77.82 121.7032 77.9438 122.694 77.9872 123.4928C78.109 125.7242 75.4174 125.3878 75.7124 123.241Z" stroke-width="1"></path><path id="vector_20" fill="#191919" d="M62.3678 125.3036C62.3266 127.6196 59.9032 127.0704 59.9672 124.9238C60.0292 122.8596 62.2398 122.6924 62.3678 125.3036Z" stroke-width="1"></path></g><g id="table"><path id="vector_21" fill="#191919" d="M300.9184 280.5448C301.1186 280.3302 301.327 280.1156 301.5418 279.8968C302.5904 278.8398 302.2724 276.2844 301.1806 275.2566L257.7078 275.1904C257.9368 276.9966 258.0112 278.7966 257.9266 280.4746L300.9184 280.5448Z" stroke-width="1"></path><path id="vector_22" fill="#191919" d="M395.9988 277.909C395.943 273.7414 392.5496 275.1946 377.054 275.3824L355.0876 275.3452C352.4414 277.4176 349.6856 279.164 346.893 280.5738L388.0848 280.5614C395.3692 280.6872 396.0338 280.4354 395.9988 277.909Z" stroke-width="1"></path><path id="vector_23" fill="#191919" d="M120.4632 275.0254C62.5868 274.9758 16.4182 274.9738 11.1548 275.0894C7.1978 275.176 3.5794 275.721 4.0396 277.1948C4.467 278.5612 54.6152 279.3806 118.5394 279.8698C118.9832 278.4188 119.8522 276.1132 120.4632 275.0254Z" stroke-width="1"></path></g><g id="robot"><path id="vector_24" fill="#191919" d="M186.9862 198.4336C185.9336 198.4274 185.5744 198.0126 185.5558 196.9598C185.5352 195.7812 186.2286 195.9464 186.945 195.9484C201.6374 195.9898 208.6824 199.9736 213.9314 204.3678C216.8874 206.8428 218.0164 203.0612 223.1932 207.0616C229.1298 211.6502 229.0782 218.5072 228.4134 219.5228C225.596 223.8348 231.8998 226.386 232.9608 251.393C233.547 265.2022 230.3496 283.0116 223.5298 294.9258C208.7092 320.8182 155.3966 320.3662 144.9274 274.6332C144.8118 274.1254 144.7602 273.4918 145.4744 273.5804C146.4424 273.7002 147.749 272.9076 148.2114 274.5072C149.646 279.4736 150.385 283.2736 154.569 290.6322C155.2398 291.813 156.0428 292.1928 157.306 292.232C178.6078 292.9028 201.6766 291.7532 222.5204 287.2224C231.6542 285.2366 243.9522 198.7702 186.9862 198.4336ZM157.6838 295.3922C169.5134 311.2634 212.0366 316.9892 222.898 289.5816C218.7306 290.044 209.1302 295.3922 157.6838 295.3922ZM226.2234 219.6116C227.8644 214.7278 222.603 207.3176 217.6346 207.528C221.1704 211.1072 223.7816 215.2334 226.2234 219.6116Z" stroke-width="1"></path><path id="vector_25" fill="#191919" d="M133.3084 298.7176C130.3608 299.8548 130.3978 299.5164 130.2348 300.569C129.628 304.4826 129.3514 305.3146 128.34 305.2422C126.9508 305.1432 127.2212 302.0058 127.539 300.6536C127.7166 299.8982 127.4958 299.5596 126.8228 299.0952C125.3056 298.0466 124.2262 298.1354 123.2436 299.7682C122.7874 300.5298 120.8822 302.5094 119.623 301.5372C118.4836 300.6578 121.518 297.2004 122.5274 296.3582C124.5482 294.6738 118.3226 289.8582 123.9164 277.4962C125.0042 275.0934 126.8332 276.4166 131.2834 278.3382C133.0132 279.0856 131.8986 278.6664 137.1766 268.2756C137.517 267.6048 137.5542 267.097 137.0506 266.5066C131.5332 260.0666 134.8708 251.905 138.9868 247.4774C143.2058 242.9384 142.956 245.2048 143.1976 242.8888C144.308 232.1594 147.2372 227.9052 146.3558 227.1848C141.3274 223.0792 143.4164 214.3934 147.8296 209.6706C152.9342 204.2068 156.4164 210.005 158.0182 207.819C162.3074 201.9632 171.7446 197.5252 178.3952 196.747C180.5006 196.5014 180.6678 196.4106 180.2468 195.0628C171.92 168.297 173.3402 169.5644 174.816 169.8018C176.2032 170.0268 182.2676 191.4834 182.6886 192.9572C184.788 200.285 185.1264 201.4512 183.9086 201.924C182.0076 202.665 182.057 199.1868 181.1716 198.8916C180.1602 198.5552 168.7414 200.3118 159.657 209.3754C158.982 210.0484 158.8542 210.5562 159.2772 211.4808C161.909 217.2172 158.3092 224.743 154.4348 227.48C150.5624 230.217 149.0846 227.1848 148.5416 229.9218C145.9202 243.0972 146.0152 243.054 147.2372 243.0148C162.7284 242.5378 159.4712 278.5344 141.9322 270.6742C140.797 270.1664 140.4584 270.253 139.9528 271.3904C136.4086 279.3868 134.776 279.8514 136.5842 280.357C141.216 281.6554 142.312 281.8308 141.763 283.5564C140.3388 288.0212 139.1478 292.6076 135.87 296.2282C135.23 296.9362 135.1558 297.3634 135.618 298.1644C136.419 299.5536 137.934 303.1328 136.3756 303.595C135.4076 304.0162 135.2382 303.048 133.3022 298.7114L133.3084 298.7176ZM142.4442 247.7334C135.1104 252.8566 134.2826 264.391 143.4556 268.5728C146.9522 270.1664 151.2002 268.4882 152.5502 264.911C158.0966 250.2144 149.6336 242.7112 142.4442 247.7334ZM126.1086 278.7202C122.4036 285.2882 124.3726 301.4834 132.171 296.0238C136.2084 293.196 137.6472 288.855 139.0756 284.446C139.2386 283.9404 138.9888 283.6556 138.444 283.5626C134.0514 282.803 130.0656 280.869 126.1086 278.7202ZM145.8108 220.6208C145.6064 225.7564 150.899 228.2354 154.1892 224.4106C157.8882 220.111 159.5766 211.6604 154.1046 210.0958C149.262 208.7108 146.0276 215.1488 145.8108 220.6208Z" stroke-width="1"></path><path id="vector_26" fill="#191919" d="M182.5648 274.6766C182.1664 247.3948 179.6606 247.1864 182.6062 247.0996C216.1608 246.115 216.1092 241.2912 217.1288 248.1524C218.549 257.7114 217.2918 271.7702 216.1608 281.4118C215.8636 283.9384 215.6138 285.1582 213.0026 285.4946C203.5302 286.7166 194.0558 287.402 184.501 287.305C181.8486 287.278 182.7424 286.8446 182.5648 274.6766ZM213.9294 264.1514C215.0254 263.8192 215.5312 263.394 215.4446 262.1306C215.0296 255.9836 216.456 254.4728 213.6342 255.0156C190.613 259.437 183.8282 255.3954 184.08 258.3842C184.7116 265.8792 183.826 266.4056 185.721 266.4262C186.2266 266.4324 202.4466 267.644 213.9294 264.1536V264.1514ZM215.4032 265.4994C192.7948 271.4358 184.3874 266.2156 184.4598 268.994C184.662 276.8232 183.9974 277.1246 185.9748 277.077C194.058 276.8852 203.5592 277.4322 213.3824 274.6764C215.4094 274.1088 214.8562 274.3814 215.4032 265.4994ZM189.9752 255.9012C197.049 255.48 204.0752 254.7844 211.0252 253.711C215.4858 253.0236 215.4568 252.9514 215.0254 248.4474C214.819 246.3008 214.4352 246.9242 206.5212 247.7312C184.8788 249.9398 183.0664 247.564 183.4916 250.3836C184.4908 256.995 181.9332 255.901 189.9752 255.901ZM214.4784 276.0244C206.226 278.1298 197.9758 278.7408 189.6386 278.7614C187.9544 278.7656 185.593 277.9584 184.8396 278.972C183.9932 280.1052 184.6662 282.3386 184.503 284.0662C184.373 285.4554 184.9676 285.5504 186.1028 285.4968C215.7562 284.1262 214.1008 286.087 214.4784 276.0244Z" stroke-width="1"></path><path id="vector_27" fill="#191919" d="M183.407 233.2492C173.175 232.6444 162.5242 234.8902 163.7048 227.6492C168.669 197.1684 220.5038 203.1458 219.6986 226.5966C219.614 229.0384 218.648 230.2686 216.2454 230.9746C212.0408 232.211 192.3736 233.7776 183.407 233.2472V233.2492ZM183.1118 231.3132C192.6688 231.6042 208.8784 230.4772 214.5198 229.2924C219.6986 228.2046 217.7708 222.0864 215.1514 218.4722C208.061 208.688 185.1802 203.763 171.534 216.4514C168.3492 219.4112 166.0496 223.0174 165.7236 227.5234C165.3748 232.3638 167.6184 230.8424 183.1118 231.3132Z" stroke-width="1"></path><path id="vector_28" fill="#191919" d="M253.2946 283.0136C252.7042 284.2334 258.6448 286.8054 257.2948 288.95C256.2876 290.5518 253.375 287.4824 252.4958 286.76C251.988 286.343 251.9096 286.4298 251.3172 286.76C249.4738 287.788 249.1354 289.0718 249.8868 290.9274C250.1426 291.557 250.2232 293.9638 249.1704 294.0422C248.5822 294.0876 248.1942 293.8338 248.0332 293.326C247.678 292.1948 247.0072 291.1814 246.8544 289.9574C246.6212 288.1078 244.8832 288.7188 243.8656 288.3164C243.1968 288.0522 243.269 289.1978 243.108 289.7902C242.2266 293.0206 241.8882 293.6996 240.918 293.452C240.2452 293.2806 240.0448 292.6964 240.1604 292.0214C241.9748 281.3974 240.084 290.754 233.1712 275.1802C232.3312 273.2852 232.4922 273.019 234.4346 272.148C236.5978 271.1778 237.9786 269.9248 237.9786 269.9248S238.2636 269.4666 236.538 267.5944C235.5842 265.5138 235.6028 260.4588 236.4512 260.1388C237.2872 259.825 240.7446 266.4674 241.2152 267.2208C242.0058 268.4902 242.1462 268.0692 245.5086 265.873C248.0806 264.1948 249.1354 264.4384 250.7288 267.0928C254.2358 272.9364 254.0108 281.5336 253.2966 283.0074L253.2946 283.0136ZM248.7472 268.7422C248.3654 267.7328 247.9444 267.223 246.7264 268.1952C239.0478 274.3214 234.482 272.9488 236.1168 275.69C236.7938 276.8252 239.37 282.7412 244.4952 285.4162C249.1374 287.8374 254.1058 282.9434 248.7472 268.7442V268.7422Z" stroke-width="1"></path><path id="vector_29" fill="#191919" d="M161.9358 263.268C160.7986 263.2742 160.3796 262.6364 160.462 261.5836C161.3124 250.8482 159.2402 249.6674 162.103 249.5436C176.7542 248.9036 177.1382 248.1544 177.0062 250.2598C176.199 263.1028 179.8298 263.1628 161.9358 263.268ZM162.1876 260.7416C162.136 261.3732 162.2722 261.6208 162.945 261.5836C177.4228 260.7952 174.5498 263.0534 175.3652 251.7316C175.4828 250.0886 175.0246 250.6664 163.197 251.521C161.554 251.6408 162.8358 252.6894 162.1876 260.7416Z" stroke-width="1"></path><path id="vector_30" fill="#191919" d="M193.2178 227.482C188.039 227.2302 187.5374 222.3424 190.355 224.324C192.5036 225.837 195.4574 225.7234 197.5112 224.0288C198.019 223.6098 198.5268 222.972 199.1522 223.649C200.4258 225.0278 197.3008 227.4388 193.2158 227.48L193.2178 227.482Z" stroke-width="1"></path><path id="vector_31" fill="#191919" d="M178.6924 222.5984C176.6716 222.4766 176.5456 218.0964 178.5664 218.1356C180.9236 218.181 180.8824 222.7304 178.6924 222.5984Z" stroke-width="1"></path><path id="vector_32" fill="#191919" d="M208.542 221.2092C206.3106 221.0296 206.352 216.9158 208.3728 217.083C210.3936 217.2502 210.5216 221.368 208.542 221.2092Z" stroke-width="1"></path><path id="vector_33" fill="#191919" d="M172.7974 256.2376C172.6714 258.3842 169.7652 258.4276 169.7238 256.3634C169.6826 254.2994 172.5456 254.1734 172.7974 256.2376Z" stroke-width="1"></path></g><g id="character 2"><path id="vector_34" fill="#0a65fc" d="M290.0074 173.4246C287.4788 175.274 286.3104 167.9422 289.5862 156.0362C290.7112 151.9492 290.7216 151.522 285.8398 152.5004C276.0682 154.4592 260.2982 160.5154 251.99 167.6986C249.2572 170.0622 250.2438 169.7278 252.0314 173.7198C252.2398 174.1842 256.5352 183.2354 255.2742 183.739C253.1686 184.5812 243.7252 156.1994 223.4884 142.0166C220.322 139.7978 219.453 139.8018 210.6062 143.1106C208.798 143.7876 207.029 144.6278 206.5234 146.7724C204.552 155.1094 202.1494 160.916 211.6588 182.769C218.5654 198.64 227.3216 208.4342 251.571 208.071C253.9282 208.0358 259.5242 206.4278 260.16 204.1552C263.6772 191.5622 264.536 177.8274 266.8126 178.0524C267.7808 178.1474 267.531 179.0204 267.4442 179.652C265.923 190.7716 256.9048 248.53 258.5602 270.6742C258.7274 272.9056 267.7808 271.4956 292.3254 271.9788C294.2202 272.0158 293.7496 272.4844 297.2938 220.9098C299.94 182.387 299.9792 166.1258 290.0094 173.4204L290.0074 173.4246ZM291.2272 199.3172C290.6596 207.1504 289.7948 212.9546 283.396 213.1672C271.0606 213.5802 272.328 207.8624 272.2392 203.1892C272.198 201.0428 272.2846 198.896 272.5344 196.7906C272.9618 193.1702 273.5356 195.03 288.4902 196.033C291.3944 196.2272 291.446 196.287 291.2272 199.3172Z" stroke-width="1"></path><path id="vector_35" fill="#0a65fc" d="M313.5406 178.7296C313.617 176.3724 315.6934 169.4224 318.1724 173.1296C321.0416 177.421 324.4764 176.7026 326.5508 172.372C328.2682 168.7888 328.743 164.9618 329.3292 161.1308C330.258 155.0684 329.3746 154.3418 331.1394 154.7732C344.7998 158.1068 360.5782 170.599 369.2414 191.8638C383.1494 226.002 370.4386 270.7422 336.6982 279.812C334.8052 280.322 333.3624 280.0762 331.8556 278.844C329.3126 276.7592 326.7262 274.757 325.4568 271.5596C325.2896 271.1386 325.0708 270.924 325.331 270.4224C350.1294 222.7428 349.0354 183.797 345.4542 192.873C344.705 194.772 342.5438 221.0358 331.0134 248.7406C325.075 263.012 321.4978 266.676 321.4566 271.5596C321.4504 272.1912 321.12 272.4328 320.5298 272.4432C311.98 272.5896 313.9906 273.8756 313.1628 261.7076C309.6084 209.4642 312.88 199.2286 313.5426 178.7276L313.5406 178.7296Z" stroke-width="1"></path><path id="vector_36" fill="#191919" d="M321.8364 169.257C323.1408 163.2794 324.303 157.5968 324.0264 151.7428C323.8922 148.9232 322.9736 147.0696 320.2366 145.47C319.3532 146.6486 320.86 149.6746 317.0786 154.7318C306.7392 168.5656 305.4224 170.896 303.5212 166.3094C297.6426 152.1144 298.912 154.2674 299.0998 148.2482C299.137 147.0264 298.7614 146.6548 297.5414 146.3968C290.1662 144.8322 285.6294 140.2064 283.691 132.9674C281.5486 124.9668 283.6002 109.81 286.4282 102.4018C287.1836 100.4222 281.8396 98.8224 282.0068 89.8558C282.174 80.8892 295.147 72.0382 309.373 79.5826C317.4584 83.872 317.417 88.8754 324.3608 90.6134C339.9016 94.5022 341.6934 127.1322 323.0562 136.6726C321.4978 137.4714 319.9414 141.0506 320.4038 142.6936C320.699 143.7464 326.6334 144.1242 326.718 152.6302C326.7594 156.6718 326.1298 172.6752 322.0862 172.923C319.9806 173.051 319.6442 170.0188 317.708 168.1652C313.7078 164.3362 314.2858 175.3916 311.9822 174.438C311.0926 174.0706 311.5198 172.923 311.6456 172.376C312.4466 167.5768 313.1856 162.4908 318.255 165.4714C320.0488 166.5262 321.0334 168.2084 321.8342 169.2612L321.8364 169.257ZM287.776 102.8642C286.2176 110.0204 283.98 124.7172 286.0504 131.7456C289.448 143.284 298.815 145.8268 307.311 142.7328C314.5024 140.1154 309.627 143.7176 308.7848 144.1634C301.4282 148.0626 301.1124 145.8044 300.9968 147.658C300.5798 154.3086 303.1868 160.1192 305.9218 166.1816C315.3942 152.036 316.9754 156.0322 319.1406 138.5634C320.185 130.1418 324.689 129.5906 326.8026 125.0062C328.1444 122.0978 326.301 120.2958 323.5186 122.1844C321.9622 123.2392 317.9888 127.4088 316.5294 122.7314C315.6378 119.8706 316.1518 115.3212 315.3508 112.6274C314.6366 110.2268 315.225 110.1814 312.3186 110.3548C303.35 110.8894 295.2254 108.4188 287.774 102.86L287.776 102.8642ZM295.143 83.162C287.8172 83.4984 288.0278 88.1696 291.5636 87.4554C302.256 85.3004 307.5526 93.0058 308.7828 91.5816C309.3668 90.9044 305.3294 84.3406 295.143 83.162Z" stroke-width="1"></path><path id="vector_37" fill="#191919" d="M219.4882 104.926C223.2366 102.4016 228.6962 101.4974 220.0352 107.5784C213.4588 112.1958 207.7266 124.624 210.9406 138.6498C211.3658 140.5014 208.7464 141.2198 208.4574 139.4074C206.1806 125.1422 207.031 113.3126 219.4882 104.926Z" stroke-width="1"></path><path id="vector_38" fill="#191919" d="M291.5658 165.8886C296.5754 164.3302 301.678 166.0144 302.3014 172.9188C302.4726 174.8138 300.582 174.9356 299.8182 173.6352C299.0256 172.2832 299.234 166.9742 293.5866 167.8246C290.096 168.351 285.8936 172.5722 293.923 149.9326C294.146 149.3052 294.2574 148.302 295.1862 148.5022C296.8664 148.8614 293.923 154.8146 291.5658 165.8886Z" stroke-width="1"></path><path id="vector_39" fill="#191919" d="M320.278 275.7726C321.372 275.8984 322.2988 275.8572 322.2988 276.91C322.2988 278.5508 315.902 277.5436 308.4896 283.478C303.6492 287.3524 301.9608 291.65 300.743 290.9296C298.7594 289.757 305.2902 276.7406 320.278 275.7726Z" stroke-width="1"></path><path id="vector_40" fill="#191919" d="M215.0254 135.2814C214.9842 124.8822 227.4764 120.5786 224.8776 123.5344C221.4098 127.479 217.4714 130.2738 216.9204 135.9544C216.842 136.7552 215.8264 137.5498 215.4466 137.5128C214.943 137.4632 215.0316 136.8398 215.0254 135.2814Z" stroke-width="1"></path><path id="vector_41" fill="#191919" d="M318.8888 291.5592C318.1188 289.627 323.368 289.9326 329.0774 283.6864C329.9216 282.7618 332.539 283.3562 331.8144 284.6546C328.908 289.8562 319.5122 293.1216 318.8888 291.5592Z" stroke-width="1"></path><path id="vector_42" fill="#191919" d="M316.067 282.5492C317.6668 282.4646 317.6648 283.7258 316.614 284.4006C311.3422 287.7962 309.5218 288.725 308.3204 290.6324C307.9778 291.1752 307.3956 291.2618 306.89 291.0946C305.2076 290.5416 308.9954 283.3066 316.0672 282.5492Z" stroke-width="1"></path><path id="vector_43" fill="#191919" d="M322.0882 285.7506C322.0036 287.0552 320.5524 286.7496 315.0144 290.845C313.9246 291.65 313.3734 290.9708 313.7098 289.7922C314.5974 286.6774 321.667 283.4346 322.0882 285.7506Z" stroke-width="1"></path><path id="vector_44" fill="#191919" d="M228.2442 109.178C223.2758 110.6086 221.2034 110.9326 218.5614 113.135C217.7584 113.8038 216.9266 113.3064 217.4674 112.1236C218.8318 109.143 225.0036 107.2812 228.2442 109.176V109.1782Z" stroke-width="1"></path><path id="vector_45" fill="#191919" d="M224.2872 117.5152C229.3816 118.188 222.8692 118.7498 218.1402 123.2412C215.8738 125.3942 216.0782 118.442 224.2872 117.5152Z" stroke-width="1"></path><path id="vector_46" fill="#191919" d="M227.109 113.0938C227.1502 113.9772 223.086 114.0742 218.1424 117.8082C217.424 118.3512 216.875 117.765 217.1742 116.966C218.6274 113.0856 226.2688 111.5354 227.111 113.0938H227.109Z" stroke-width="1"></path><path id="vector_47" fill="#191919" d="M307.3956 131.2396C307.565 138.9862 299.779 138.5652 299.8594 136.9656C299.9028 136.082 301.1598 136.3112 302.7638 135.954C304.9888 135.4608 306.087 133.6402 305.6266 131.4068C305.2448 129.5552 304.349 131.5058 299.4384 132.8372C298.9368 132.9734 298.2866 133.2666 297.9646 132.6266C297.6096 131.9186 298.3464 131.7082 298.8068 131.4894C306.954 127.6232 307.0592 127.0288 307.3956 131.2396Z" stroke-width="1"></path><path id="vector_48" fill="#191919" d="M304.027 112.295C307.2698 112.4642 310.9584 115.1476 310.0048 116.547C308.8076 118.3036 306.8156 113.839 301.3746 114.6108C299.7356 114.842 299.3124 112.3796 304.027 112.295Z" stroke-width="1"></path><path id="vector_49" fill="#191919" d="M290.1746 109.304C293.5846 109.5146 294.8808 112.074 294.2574 112.8398C293.2748 114.0494 291.5142 111.3124 287.7326 111.8284C286.3414 112.0184 286.2588 109.4732 290.1746 109.304Z" stroke-width="1"></path><path id="vector_50" fill="#191919" d="M295.017 127.3238C295.69 127.4104 295.8572 128.203 295.017 128.5024C292.1066 129.5386 290.6452 127.7468 291.186 125.6806C291.4832 124.5454 291.8404 123.373 292.1974 122.2706C292.3316 121.8516 292.4472 121.187 293.0808 121.3438C294.5484 121.7072 290.9734 126.7974 295.017 127.3236Z" stroke-width="1"></path><path id="vector_51" fill="#191919" d="M301.3312 120.0418C301.5004 119.115 301.6264 118.0418 302.931 118.0624C303.9836 118.0788 304.0372 118.9892 303.9836 119.7466C303.9156 120.7168 303.773 121.8314 302.4686 121.8522C301.2486 121.8728 301.3746 120.9254 301.3312 120.0418Z" stroke-width="1"></path><path id="vector_52" fill="#191919" d="M290.0074 117.5152C289.8814 118.3986 290.092 119.5298 288.744 119.5772C287.7326 119.6144 287.5696 118.7784 287.6068 117.9776C287.6542 117.0094 287.6068 115.8514 288.9546 115.8308C290.0486 115.8144 289.9228 116.799 290.0074 117.5152Z" stroke-width="1"></path><path id="vector_53" fill="#0a65fc" d="M282.05 210.936C272.072 210.5748 274.58 207.105 274.4292 198.4316C274.3922 196.3262 275.7358 197.1146 281.2926 197.674C288.6616 198.415 289.192 197.8412 288.998 199.6948C287.8936 210.2528 286.3868 211.0928 282.05 210.936Z" stroke-width="1"></path></g><g id="paper"><path id="vector_54" fill="#191919" d="M111.6886 318.9048C110.997 319.1422 110.2664 319.3878 109.4964 319.6438L111.4986 321.2826C82.997 331.3454 84.0622 331.335 82.4914 329.4918C73.9314 319.4538 72.9778 318.9668 64.2196 309.579L68.8824 308.388C68.1682 307.6264 67.516 306.9162 66.9298 306.2496C64.199 306.9906 62.203 307.5872 61.7778 307.8514C60.5578 308.6088 60.5598 309.2384 61.2308 310.2086C62.1596 311.5524 63.1648 312.863 64.3454 314.081C83.0094 333.3496 81.4798 334.0762 84.9744 332.815C116.0686 321.617 117.1792 323.4314 111.6864 318.9006L111.6886 318.9048Z" stroke-width="1"></path><path id="vector_55" fill="#191919" d="M93.4808 292.1494C94.0278 292.0648 94.4138 292.3518 94.8286 292.6964C102.113 298.7774 109.6388 304.5796 116.9314 310.6318C121.809 314.6796 119.9926 313.249 89.7344 324.1456C86.2378 325.4048 87.7672 324.6802 69.1054 305.4116C67.9246 304.1916 66.9194 302.883 65.9906 301.5392C65.3198 300.569 65.3218 299.9478 66.5376 299.182C68.0588 298.2242 90.7046 292.7832 93.4828 292.1516L93.4808 292.1494ZM115.6022 312.8362C92.7832 294.1846 94.614 294.16 92.8078 294.6346C82.1796 297.4274 80.8504 297.834 68.9362 300.8664C77.6922 310.254 78.5818 310.799 87.2078 320.779C88.8076 322.6306 87.1418 322.899 115.6022 312.8362Z" stroke-width="1"></path><path id="vector_56" fill="#191919" d="M107.9296 309.8184C109.4116 309.8184 109.7748 310.3138 108.685 310.9332C106.2472 312.316 98.9362 314.5826 92.5972 316.7788C91.9676 316.9976 91.2576 317.2804 90.9128 316.399C90.5826 315.5548 91.21 315.2244 91.8808 315.0098C98.4882 312.892 107.5746 309.8948 107.9296 309.8184Z" stroke-width="1"></path><path id="vector_57" fill="#191919" d="M86.533 312.2314C85.439 312.316 85.1892 311.1436 86.3224 310.7164C91.5962 308.7266 88.242 309.8246 101.9416 305.201C103.3288 304.7324 103.6632 306.0288 102.4474 306.4642C86.5536 312.1406 87.0386 312.1468 86.533 312.2314Z" stroke-width="1"></path><path id="vector_58" fill="#191919" d="M98.7008 301.3266C98.6596 302.2534 98.6656 302.0614 86.1116 306.6728C84.386 307.3064 83.9256 305.5024 85.4388 304.9038C98.1002 299.888 98.447 300.2718 98.7008 301.3246V301.3266Z" stroke-width="1"></path></g><path id="pen" fill="#191919" d="M48.9884 308.1734C51.5292 312.5184 62.3804 325.184 66.226 331.556C67.4272 333.5458 67.2498 335.5376 66.6182 335.8556C66.069 336.1322 64.234 335.9876 62.3764 333.8802C59.1046 330.173 53.6678 322.0794 44.8952 310.1074C42.4016 306.7036 49.362 302.6002 51.7626 304.7036C51.8038 304.7448 62.2236 316.562 60.6466 317.6704C59.3132 318.6076 54.126 309.6368 50.9018 306.8978C49.3288 305.5622 48.241 306.8894 48.9904 308.1712L48.9882 308.1734Z" stroke-width="1"></path></g></svg>