<svg xmlns="http://www.w3.org/2000/svg" viewBox="0 0 400 400" id="Social-Media-1--Streamline-Brooklyn.svg" height="400" width="400"><desc>Social Media 1 Streamline Illustration: https://streamlinehq.com</desc><path d="M256.274 119.324c-0.494 0 -1.232 -0.494 -1.724 -0.494H180.668c-6.896 0 -14.082 5.898 -16.254 13.546 -44.728 157.446 -40.39 144.01 -40.39 147.764 -1.966 7.2 7.944 18.09 15.024 19.948 71.886 18.868 69.154 17.24 70.926 17.24a16.372 16.372 0 0 0 15.268 -12.314l46.546 -162.048c2.898 -9.166 -6.536 -23.642 -15.514 -23.642Zm-75.852 3.448h73.882c5.148 0 9.948 5.078 7.88 12.312l-46.546 161.8c-1.97 6.65 -8.374 10.836 -14.284 9.358l-67.724 -16.746c-5 -1.248 -6.6 -7.158 -5.418 -12.314l39.65 -143.328c1.724 -6.404 7.388 -11.082 12.56 -11.082Z" fill="#191919" stroke-width="1"></path><path d="m237.31 140.75 -52.948 -1.724c-7.142 -0.248 -14.284 5.91 -16.5 13.79l-29.308 105.898c-2.168 7.374 0.82 15.226 8.374 17 55.178 12.904 50.094 11.084 52.702 11.084a16.902 16.902 0 0 0 15.516 -12.56l33.492 -116.488c2.598 -9.36 -2.85 -16.472 -11.328 -17Zm7.388 15.76L211.2 273c-1.97 6.65 -8.128 10.836 -14.038 9.6l-49.742 -10.834c-5.284 -1.32 -6.892 -6.986 -5.664 -12.314l29.306 -105.896c1.724 -6.158 7.388 -11.084 12.56 -11.084l53.2 1.724c6.052 0.004 9.718 6.332 7.876 12.314Z" fill="#191919" stroke-width="1"></path><path d="M216.132 131.39c0.492 -1.97 -0.494 -3.694 -2.464 -3.694a4.972 4.972 0 0 0 -4.432 3.694c-0.494 1.97 0.492 3.694 2.216 3.694a5.024 5.024 0 0 0 4.68 -3.694Z" fill="#191919" stroke-width="1"></path><path d="M168.846 287.036c-8.87 -1.946 -8.62 -0.986 -8.866 0.246s-0.964 1.882 7.636 3.94c8.886 2.126 8.618 0.986 9.112 0 0.246 -1.222 1.224 -2.19 -7.882 -4.186Z" fill="#191919" stroke-width="1"></path><path d="M43.246 306.244V284.08a1.058 1.058 0 0 0 -0.984 -0.984H36.6a2.2 2.2 0 0 1 -2.218 -2.218v-6.156a2.2 2.2 0 0 1 2.218 -2.216h5.91a0.788 0.788 0 0 0 0.738 -0.74c-0.246 -3.2 -1.256 -14.332 5.418 -17.732a22.912 22.912 0 0 1 14.038 -1.724 2.368 2.368 0 0 1 1.97 2.218v4.924a2.274 2.274 0 0 1 -2.462 2.218c-2.216 -0.246 -5.664 0 -6.896 1.476 -1.97 1.97 -1.23 7.39 -0.984 9.36 0 0.246 0.246 0.492 0.738 0.492l7.142 0.246a2.43 2.43 0 0 1 2.216 2.462l-0.984 5.912a2.37 2.37 0 0 1 -2.218 1.97h-5.912a1.058 1.058 0 0 0 -0.984 0.984v21.92a2.2 2.2 0 0 1 -2.218 2.216h-6.156c-1.724 -0.246 -2.71 -1.232 -2.71 -2.464Z" fill="#2862e9" stroke-width="1"></path><path d="M124.518 65.144c0 -0.74 -4.188 1.724 -8.374 3.446 -2.462 -2.462 -7.88 -7.634 -15.516 -3.694s-8.372 11.084 -8.126 17c-12.314 -2.216 -17.8 -4.618 -22.412 -10.344 -4.506 -5.6 -4.432 -5.418 -5.418 -3.694a33 33 0 0 0 -0.984 24.628c4.432 13.298 11.82 16.5 16.254 17.978a35 35 0 0 1 -15.762 6.156c-2.216 0 -2.932 0.69 1.724 2.956 4.456 2.168 22.6 9.288 37.188 -3.448 14.468 -12.63 17 -32.262 15.268 -39.65 0.24 -0.006 6.404 -7.64 6.158 -11.334Z" fill="#2862e9" stroke-width="1"></path><path d="M326.462 289.006a16.008 16.008 0 1 0 32.016 0 16.008 16.008 0 1 0 -32.016 0Z" fill="#2862e9" stroke-width="1"></path><path d="M357.984 241.474h-31.03a31.344 31.344 0 0 0 -32.016 32.016v31.03a31.952 31.952 0 0 0 32.016 32.016h31.03A31.952 31.952 0 0 0 390 304.52v-31.03a32.27 32.27 0 0 0 -32.016 -32.016Zm-15.514 68.712a21.18 21.18 0 1 1 21.178 -21.18 21.178 21.178 0 0 1 -21.178 21.18Zm25.12 -41.128a7.388 7.388 0 1 1 7.388 -7.388 7.752 7.752 0 0 1 -7.378 7.388Z" fill="#2862e9" stroke-width="1"></path><path d="M328.678 187.788a46.974 46.974 0 1 0 -31.77 -12.314c-0.738 0.984 -1.23 2.216 -1.97 3.2a81.23 81.23 0 0 0 -5.664 10.836c-0.766 1.712 0.72 3.414 2.464 2.462 5.6 -3.064 11.328 -5.91 17 -8.866a42.49 42.49 0 0 0 19.94 4.682Zm-25.86 -62.062c1.414 -4.698 5.182 -9.908 10.6 -9.112 7.386 1.086 11.636 13.838 4.68 21.426 0.492 0.986 12.068 10.836 15.022 12.068a13.45 13.45 0 0 1 2.218 -1.724c11.85 -8.89 22.352 0.212 19.454 8.126 -1.98 5.414 -7.634 7.388 -12.8 7.882 -20.082 1.91 -45.26 -18.42 -39.174 -38.666Z" fill="#2862e9" stroke-width="1"></path><path d="M109.494 117.354C121.818 133.08 165.9 184 172.54 191.974c1.6 1.922 4.32 5.822 6.4 4.432 2.2 -1.468 -0.85 -4.542 -2.71 -6.4 -1.23 -1.232 -2.216 -2.71 -3.448 -3.94a95.894 95.894 0 0 1 -6.4 -7.634c-4.434 -5.172 -49.256 -57.136 -54.426 -62.8 -1.476 -0.988 -3.434 0.48 -2.462 1.722Z" fill="#2862e9" stroke-width="1"></path><path d="M79.45 263.886c9.33 -1.494 14.814 -2.936 37.186 -7.634 12.582 -2.642 44.6 -11.042 57.136 -14.776a1.912 1.912 0 1 0 -0.986 -3.696c-32.248 9.444 -64.218 16.728 -94.076 22.904a1.674 1.674 0 0 0 -0.984 1.97 1.22 1.22 0 0 0 1.724 1.232Z" fill="#2862e9" stroke-width="1"></path><path d="M214.4 177.69a579.37 579.37 0 0 0 63.044 -7.634 1.872 1.872 0 0 0 1.232 -2.216 1.762 1.762 0 0 0 -2.216 -1.232c-16 2.708 -32.246 5.066 -48.27 6.896 -4.674 0.534 -9.112 1.23 -13.8 1.724a1.162 1.162 0 0 0 -1.232 1.23c-0.228 0.494 0.51 1.232 1.242 1.232Z" fill="#2862e9" stroke-width="1"></path><path d="M205.542 227.2c9.934 7.6 72.058 51.856 77.822 55.906a1.986 1.986 0 0 0 1.97 -3.448c-10.58 -7.84 -59.442 -43.21 -78.562 -54.92 -1.224 -0.76 -2.484 1.494 -1.23 2.462Z" fill="#2862e9" stroke-width="1"></path><path d="M10 134.346a6.65 7.634 0 1 0 13.3 0 6.65 7.634 0 1 0 -13.3 0Z" fill="#2862e9" stroke-width="1"></path><path d="M11.232 147.892h11.82v41.62h-11.82Z" fill="#2862e9" stroke-width="1"></path><path d="M55.8 147.152a12.012 12.012 0 0 0 -13.79 7.142v-6.156H30.2v41.62h11.822V168.824c0 -9.85 4.678 -10.836 6.896 -10.836a6.844 6.844 0 0 1 7.142 7.142v24.628h11.574V161.682c-0.252 -4.682 -1.48 -12.826 -11.834 -14.53Z" fill="#2862e9" stroke-width="1"></path><path d="M88.314 178.674c40.982 17.576 2.902 1.322 72.16 30.292 4.68 1.958 13.562 5.074 15.514 5.912a20 20 0 0 0 5.418 1.724 1.614 1.614 0 0 0 1.232 -2.956 73.434 73.434 0 0 0 -9.112 -3.694c-2.956 -1.232 -6.158 -2.462 -9.112 -3.448 -6.158 -2.462 -68.214 -27.336 -74.868 -30.292 -1.478 -0.246 -2.45 1.94 -1.232 2.462Z" fill="#2862e9" stroke-width="1"></path></svg>