<svg xmlns="http://www.w3.org/2000/svg" viewBox="0 0 400 400" id="Work-Life-Balance-2--Streamline-Brooklyn.svg" height="400" width="400"><desc>Work Life Balance 2 Streamline Illustration: https://streamlinehq.com</desc><path d="M246.048 368.8a0.56 0.56 0 0 0 0.498 -0.332c14.432 -28.692 5.01 -61.644 8.614 -92.276a0.656 0.656 0 0 0 -0.414 -0.662l-4.638 -1.74a0.68 0.68 0 0 0 -0.912 0.58 67.28 67.28 0 0 1 -1.16 14.828 24.888 24.888 0 0 1 -17.642 18.636c-8.374 2.712 -19.446 3.866 -27 -1.574 -7.216 -5.2 -13.78 -23.088 -12.84 -31.558a0.624 0.624 0 0 0 -0.91 -0.664l-4.06 1.658a0.626 0.626 0 0 0 -0.414 0.58c-0.662 40.442 -1.02 55.312 1.4 65.354 2.504 10.35 8.328 19.492 14.166 28.328a0.662 0.662 0 0 0 0.744 0.25c2.904 -0.982 18.39 -6.13 24.6 -2.982s17.816 1.82 19.968 1.574Z" fill="#2862e9" stroke-width="1"></path><path d="M81.874 40.532c-0.36 17.474 6.048 27.522 6.048 72.892 4.012 -1.07 7.462 -0.874 8.862 -1.574 -1.238 -8.446 0.36 -10.49 -1.822 -37.522C93.08 51 90.728 46.218 92.4 39.04a67.12 67.12 0 0 1 -10.526 1.492Z" fill="#2862e9" stroke-width="1"></path><path d="M370.63 174.886a16.464 16.464 0 0 0 -9.776 -0.58 11.716 11.716 0 0 0 -6.8 7.2 4.84 4.84 0 0 0 6.048 6.462c2.65 -0.662 4.718 -2.6 7.454 -2.9a7.11 7.11 0 0 1 6.462 2.652c3.828 4.872 2.152 13.252 -2.652 16.814v0.084c12.502 -3.126 17 -17.656 1.906 -27.418a0.894 0.894 0 0 1 0 -1.4 8.314 8.314 0 0 0 -1.906 -1 1.138 1.138 0 0 1 -0.736 0.086Z" fill="#2862e9" stroke-width="1"></path><path d="M315.628 80.456a206.228 206.228 0 0 0 -16.318 38.104h0.166c17.312 -7.87 24.524 -25.76 27.252 -43.736 -0.728 0.402 -10.616 5.632 -11.1 5.632Z" fill="#2862e9" stroke-width="1"></path><path d="M328.384 43.182c-0.174 -1.986 -1.232 -8.976 -3.976 -9.856 -3.466 -1.116 -2.98 4.472 -3.23 6.378 -1.074 8.2 0.332 18.72 -4.224 25.926a9.6 9.6 0 0 0 0 1.574q5.714 -3.728 11.182 -7.704a122.89 122.89 0 0 0 0.248 -16.318Z" fill="#2862e9" stroke-width="1"></path><path d="m85.934 175.632 -13.172 -35.2a3.636 3.636 0 0 0 -5.052 -1.906L20.248 164.698a3.572 3.572 0 0 0 -1.326 4.97l22.448 37.026a3.51 3.51 0 0 0 5.136 1l38.268 -27.92a3.62 3.62 0 0 0 1.16 -4.142Zm-12.26 -22.696c-1.152 0.356 -2.32 0.662 -3.478 1 0.248 6.8 -0.738 13.508 -5.8 18.636 -8.022 8.13 -25.6 9.418 -20.708 25.016 0.338 1.076 -1.242 1.4 -1.574 0.414 -3.8 -9.2 2.33 -15.72 10.024 -19.714 10.952 -5.684 16.2 -10.188 15.904 -23.772 -1.16 0.248 -2.4 0.558 -3.646 0.744 -1 0.15 -2.244 -0.916 -1.49 -1.904a65.504 65.504 0 0 1 4.8 -7.042 0.676 0.676 0 0 1 1 0c0.414 0.084 3.216 2.754 4.888 3.976 1.148 0.836 1.332 2.258 0.08 2.646Z" fill="#2862e9" stroke-width="1"></path><path d="M220.702 205.286c2.062 -0.53 4.146 -0.814 6.13 -1.4a0.814 0.814 0 0 0 -0.414 -1.574 45.118 45.118 0 0 0 -6.13 1.49 0.776 0.776 0 0 0 0.414 1.484Z" fill="#191919" stroke-width="1"></path><path d="M202.064 205.866c-2.152 -0.332 -4.234 -1.034 -6.378 -1.574a0.734 0.734 0 0 0 -0.414 1.4 33.318 33.318 0 0 0 6.544 1.656c0.912 0.084 1.16 -1.4 0.248 -1.482Z" fill="#191919" stroke-width="1"></path><path d="M214.076 221.106c-6.788 1.922 -5.622 -6.046 -5.302 -9.774a79.25 79.25 0 0 1 2.07 -11.678 0.6 0.6 0 0 0 -1.158 -0.332c-1.926 5.572 -8.218 27.874 4.886 23.524a0.906 0.906 0 0 0 -0.496 -1.74Z" fill="#191919" stroke-width="1"></path><path d="M217.554 233.698c2.532 0.722 6.904 -2.17 7.704 -6.462a0.694 0.694 0 0 0 -1.326 -0.414 7.946 7.946 0 0 1 -2.898 3.562c-1.15 0.842 -2.564 1 -3.728 1.74a0.86 0.86 0 0 0 0.248 1.574Z" fill="#191919" stroke-width="1"></path><path d="M263.2 236.514a1.122 1.122 0 0 0 0.33 -1.078c-0.588 -3.078 -1.16 -6.212 -1.988 -9.276 0.02 0.04 1.75 2.2 2.652 3.148 0.08 0.084 0.164 0.164 0.248 0.164a1.186 1.186 0 0 0 2.154 0.25c2.114 -2.84 5.31 -7.924 4.886 -11.432 -0.23 -1.908 -1.236 -2.326 -2.65 -3.4a54.168 54.168 0 0 1 -15.49 -17.312c-3.56 -6.71 -1.904 -14.744 -5.964 -21.37 -4.72 -7.704 -16.65 -10.6 -21.2 -1.906 -6.128 -7.04 -15.322 -12.42 -24.848 -9.112 -8.118 2.82 -12.342 10.768 -16.07 18.306a113.746 113.746 0 0 0 -6.06 11.684 186 186 0 0 1 -19.05 28c-1.66 1.986 -6.868 5.632 -6.628 8.532 0.172 2.07 3.304 4.892 4.39 6.544 1.972 3 3.894 5.88 5.8 8.862a0.952 0.952 0 0 0 1.4 0.746 38.896 38.896 0 0 0 8.532 -6.876 40.726 40.726 0 0 1 -4.4 8.946c-0.082 0.084 -0.082 0.248 -0.164 0.332a0.722 0.722 0 0 0 -0.084 0.828c1.988 3.48 6.06 5.026 9.526 6.544 2.708 1.186 11.418 5.676 14.248 4.142 1.888 -1.024 2.07 -4.474 2.4 -6.212a21.676 21.676 0 0 0 14.082 0.828c0.716 12.2 -6.462 11.27 -13.338 15a1.024 1.024 0 0 0 0.498 1.906 20.892 20.892 0 0 0 11.788 -4.902c6.046 7.538 16.566 4.058 22.53 -1.822a23.568 23.568 0 0 0 13.668 7.786c1.57 0.27 2.236 -2.146 0.662 -2.4 -6.384 -1.042 -12.954 -5.544 -14.08 -12.094 -0.256 -1.49 -0.498 -2.982 -0.664 -4.556a25.318 25.318 0 0 0 9.858 -1.574c2.482 -0.838 6.75 -1.862 8.698 -3.726 1.352 -1.296 -0.96 -5.4 -1.326 -6.876 -0.228 -0.916 -0.332 -1.904 -0.498 -2.816a11.886 11.886 0 0 0 4.226 4.142 1.264 1.264 0 0 0 1.738 0.828 26.742 26.742 0 0 0 10.188 -8.778ZM199.912 238c-5.292 -3.328 -8.118 -10.436 -9.692 -16.318a0.974 0.974 0 0 0 -0.912 -1.49c-3.48 0.324 -5.52 -0.56 -6.8 -3.894a8 8 0 0 1 -0.746 -2.816 3.708 3.708 0 0 1 4.308 -3.894c0.91 0.09 2.568 1.078 3.314 0.498s0.248 -1.988 0.248 -2.816c0 -0.912 1.238 -11.09 1.74 -10.852a14.136 14.136 0 0 0 7.786 0.912c3.066 -0.4 3.562 -4.97 3.478 -5.302a27.612 27.612 0 0 0 2.652 4.8c1 0.664 7.218 -0.142 8.366 -0.828 1.34 -0.8 2.07 -5.55 2.236 -6.708a19.972 19.972 0 0 0 2.4 4.72c1.264 1.558 14.744 -2.318 14.744 -2.484 0.166 1.656 0.818 3.232 1.076 4.8a47.552 47.552 0 0 0 1.4 7.124c0.4 1.244 2.982 0.33 3.976 0.58 3.644 0.662 5.768 4.04 3.644 7.372a4.012 4.012 0 0 1 -4.8 2.318c-1.412 -0.316 -1.554 1.824 -1.574 2.734a36.144 36.144 0 0 1 -5.468 17.146c-3.24 4.882 -9.35 7.508 -14.91 8.45A23.892 23.892 0 0 1 199.912 238Zm9.524 29.074c4.302 -5.736 2.126 -15.8 0.332 -22.778a20.354 20.354 0 0 0 5.468 0.082 30.57 30.57 0 0 0 11.6 -3.81 104.936 104.936 0 0 0 0.828 13.916 40.662 40.662 0 0 0 1.822 9.94 0.08 0.08 0 0 0 -0.082 0.084c-5.306 6.546 -13.424 7.872 -19.968 2.57Z" fill="#191919" stroke-width="1"></path><path d="M180.114 337.486a74.484 74.484 0 0 1 -30.73 14.082v-0.082c-7.372 -17.726 -9.94 -35.2 -10.024 -54.174 14.3 -10.354 21.538 -15.2 41.666 -19.8 1.076 -0.246 0.582 -1.896 -0.414 -1.656 -20.262 4.862 -27.26 6.984 -50.86 26.422 -0.6 0.486 0.17 1.498 0.828 1.078 2.418 -1.548 4.8 -3.23 7.124 -4.97 -1.822 18.14 2.154 37.44 9.442 53.924a0.692 0.692 0 0 0 0.414 0.414 0.986 0.986 0 0 0 1.16 0.746 69.054 69.054 0 0 0 32.636 -14.496c0.912 -0.574 -0.34 -2.162 -1.242 -1.488Z" fill="#191919" stroke-width="1"></path><path d="M300.636 294.496c0 -0.544 -0.256 -0.586 -0.58 -0.91 -15.366 -9.136 -15.964 -12.156 -41.5 -17.562a0.684 0.684 0 0 0 -0.33 1.326c23.2 6.982 20.886 6.11 40.752 17.974 -1.574 14.496 -2.07 28.826 -5.134 43.156 -12.178 2.154 -22.438 -0.428 -33.382 -5.714 -1 -0.484 -1.902 0.984 -0.912 1.49 11.152 5.7 22.862 9.526 35.37 6.296a0.97 0.97 0 0 0 1 -0.828 188.2 188.2 0 0 0 4.716 -45.228Z" fill="#191919" stroke-width="1"></path><path d="M102 247.034a328.8 328.8 0 0 1 21.454 62.62 1.116 1.116 0 0 0 2.154 -0.58 312.818 312.818 0 0 0 -22.2 -62.454 0.456 0.456 0 0 0 0.414 -0.166c5.632 -3.81 13.022 -8.954 12.424 -16.65a0.854 0.854 0 0 0 -1.656 -0.248c-1.492 7.04 -6.052 11.342 -11.6 15.49a0.752 0.752 0 0 0 -0.33 0.828 0.89 0.89 0 0 0 -0.66 1.16Z" fill="#191919" stroke-width="1"></path><path d="M137.29 338.232c-4.97 2.32 -9.94 5.39 -15.572 5.302a20.166 20.166 0 0 1 -13.502 -5.55c-6.954 -6.632 -8.704 -16.648 -10.52 -25.6 -3.988 -19.628 -10.442 -40.474 -6.628 -60.55 0.174 -0.91 -1.228 -1.324 -1.4 -0.414a94.6 94.6 0 0 0 0.25 33.464c2 12.258 4.252 24.842 7.288 36.86 2.092 8.278 5.874 17 13.75 21.288 9.764 5.32 17.848 0.516 27.088 -3.064a0.948 0.948 0 1 0 -0.754 -1.736Z" fill="#191919" stroke-width="1"></path><path d="M85.52 249.518c-9.548 3.252 -21.72 5.8 -27.666 -5.052 -0.5 -0.91 -1.896 -0.09 -1.4 0.828 5.848 11.03 19.652 12.116 29.656 5.8 0.806 -0.518 0.402 -1.914 -0.59 -1.576Z" fill="#191919" stroke-width="1"></path><path d="M64.4 235.6c-0.334 -0.66 -1.498 -0.246 -1.242 0.498 2.412 6.984 12.064 11.64 18.554 6.708a0.772 0.772 0 0 0 -0.578 -1.4c-3.4 0.684 -6.356 1.512 -9.776 0.332A12.242 12.242 0 0 1 64.4 235.6Z" fill="#191919" stroke-width="1"></path><path d="M86.1 236.43a10.66 10.66 0 0 1 -6.628 -1.988c-1.576 -1.238 -4.224 -3.478 -4.224 -5.714 0 -0.746 -1.224 -1 -1.326 -0.166 -0.348 2.824 2.08 5.622 4.06 7.372a8 8 0 0 0 8.366 1.822 0.686 0.686 0 0 0 -0.248 -1.326Z" fill="#191919" stroke-width="1"></path><path d="M358.37 233.614c-4.234 2.718 -8.118 4.904 -13.42 4.556 -2.4 -0.158 -5.218 -1.49 -7.702 -1.16a1.058 1.058 0 0 0 -1.244 0.332c-0.082 0 -0.164 0.082 -0.248 0.082 -0.414 0.166 -0.33 0.746 -0.082 1 -3.148 23.69 -1.2 47.97 -5.964 71.486 -1.56 7.706 -2.578 15.966 -10.438 19.714 -6.22 2.966 -14.496 2.89 -21.2 4.224 -0.828 0.164 -0.5 1.48 0.33 1.326 13.884 -2.586 28.912 -1.74 32.14 -18.556 7.736 -40.298 2.814 -48.908 7.124 -77.696 7.62 1.822 15.818 2.32 21.784 -3.81 0.732 -0.762 -0.172 -2.08 -1.08 -1.498Z" fill="#191919" stroke-width="1"></path><path d="M340.726 226.822c-1.074 -0.182 -1.574 1.492 -0.496 1.656 6.13 1.326 13.502 0.416 18.14 -4.224a1.01 1.01 0 0 0 -1.242 -1.574c-5.146 3.266 -10.09 5.208 -16.402 4.142Z" fill="#191919" stroke-width="1"></path><path d="M350.666 214.728a20.418 20.418 0 0 1 -16.4 4.97c-0.746 -0.082 -1 1.262 -0.166 1.4a22.484 22.484 0 0 0 18.058 -4.886c1.004 -0.812 -0.484 -2.378 -1.492 -1.484Z" fill="#191919" stroke-width="1"></path><path d="M306.434 289.858c5.97 -19.132 10.6 -39.25 11.016 -59.308a0.694 0.694 0 0 0 -1.16 -0.498c-0.082 0 -0.164 -0.082 -0.248 -0.082 -10.022 0 -8.038 -13.836 -2.734 -18.39a0.626 0.626 0 0 0 -0.744 -1c-7.658 5.37 -8.036 21.04 3.23 21.704a327.642 327.642 0 0 1 -11.432 56.988 1.076 1.076 0 0 0 2.072 0.586Z" fill="#191919" stroke-width="1"></path><path d="M100.264 224.088c0.266 0 0.48 0.016 1.076 -0.58 5.302 -7.454 13 -13.166 19.8 -19.216 6.876 -6.128 13.584 -12.342 20.376 -18.554 1.018 0 1.084 -1.268 0.414 -1.74 -1.896 -1.338 -6.048 -1.068 -8.118 -1.242 -7.45 -0.632 -35.2 -3.454 -39.428 -4.39C88 161.136 78.826 144.04 73.094 126.512a0.814 0.814 0 0 0 -1.574 0.414v0.074a1.154 1.154 0 0 0 -0.91 0C49.388 137.662 28.548 149.146 10.224 164.45c-0.496 0.414 -0.082 1.242 0.414 1.324 5.218 10.188 10.95 20.286 16.562 30.318a117 117 0 0 0 7.95 12.59c1.836 2.476 4.226 6.71 7.29 7.786 0.084 0.498 7.45 1.266 10.188 1.74 15.572 2.69 33.212 5.88 47.636 5.88ZM34 202.884c-6.482 -9.828 -12.898 -22.96 -21.952 -37.854a391.058 391.058 0 0 1 60.136 -36.448c4.554 17.23 13.418 33.05 19.382 49.784C54.694 208.184 44.8 210.244 43.2 213.652c-1.074 0 0.506 2.178 -9.2 -10.768Zm10.52 12.342c1.324 -2.154 4.976 -3.634 6.8 -4.722 3.782 -2.266 16.018 -10.63 19.548 -13.17 25.766 -18.54 20.814 -17.6 23.772 -16.732 8.054 1.126 43.704 5.368 44.234 5.384C108.152 212 103.846 215.714 99.6 221.686c-20.968 0 -48.114 -7.042 -55.082 -6.46Z" fill="#191919" stroke-width="1"></path><path d="M43.026 150.368a1.616 1.616 0 0 0 0 -3.23 1.616 1.616 0 1 0 0 3.23Z" fill="#191919" stroke-width="1"></path><path d="M98.026 187.146c1 -0.576 0.084 -2.238 -0.91 -1.574 -11.928 7.04 -21.1 17.762 -32.968 24.932a0.724 0.724 0 0 0 0.746 1.242 110.556 110.556 0 0 0 15.904 -10.684c5.726 -4.792 10.704 -10.156 17.228 -13.916Z" fill="#191919" stroke-width="1"></path><path d="M107.304 188.388c-10.488 6.922 -21.6 15.442 -29.736 25.098 -0.418 0.494 0.154 1.312 0.662 0.912 10.07 -7.964 19.974 -16.672 29.986 -24.768 0.734 -0.594 -0.164 -1.736 -0.912 -1.242Z" fill="#191919" stroke-width="1"></path><path d="M116.582 191.866c0.746 -0.91 -0.486 -2.224 -1.326 -1.324 -8 8.56 -16.112 16.6 -24.932 24.352 -0.75 0.658 0.316 1.558 1 1a185.94 185.94 0 0 0 25.258 -24.028Z" fill="#191919" stroke-width="1"></path><path d="M117.824 174.886c0.57 1.248 2.154 0.498 2.154 -0.662 11.016 -4.64 21.8 -9.656 32.8 -14.33a0.906 0.906 0 0 0 0.414 -1.326c0.58 1.076 2.4 0.58 1.988 -0.746 -2 -6.456 -4 -12.94 -6.296 -19.216a0.662 0.662 0 0 0 -1.242 -0.084 71.82 71.82 0 0 0 -16.982 -10.768 0.964 0.964 0 0 0 -0.828 0 1.034 1.034 0 0 0 -0.496 0.084c-8.284 2.898 -17.23 5.384 -24.6 10.27a0.776 0.776 0 0 0 -0.828 1c2.92 12.46 8.692 24.308 13.916 35.778Zm12.424 -44.978c0.414 6.046 2.462 12 3.976 17.81a1.2 1.2 0 0 0 2.32 -0.25 125.616 125.616 0 0 0 11.6 -5.8 89.37 89.37 0 0 0 5.136 16.98 1.138 1.138 0 0 0 -1.4 -0.496c-10.76 4.8 -21.62 9.6 -32.304 14.578 -4.8 -10.85 -10.438 -21.536 -13.75 -33.05 8.418 -5.48 23.414 -8.762 24.422 -9.772Z" fill="#191919" stroke-width="1"></path><path d="M135.55 114.088c11.186 1.384 21.146 -5.134 22.282 -16.816a21.548 21.548 0 0 0 -15.324 -22.944c-0.906 -0.268 -1.576 1.162 -0.662 1.574 7.44 3.344 13.858 9.108 14.578 17.726a16.71 16.71 0 0 1 -17.81 17.892c-10.27 -0.588 -19.296 -4.968 -19.548 -16.4 -0.12 -5.466 1 -11.666 5.136 -15.572a23.358 23.358 0 0 1 13.418 -5.8c1.076 -0.098 1.078 -1.74 0 -1.658a26.078 26.078 0 0 0 -14.744 5.882c-4.552 3.816 -5.626 9.444 -6.212 15.158 -1.31 12.758 6.63 19.44 18.886 20.958Z" fill="#191919" stroke-width="1"></path><path d="M141.846 83.522c1.242 0 1.16 -1.744 0 -1.906a13.6 13.6 0 0 0 -5.22 0.332c-0.248 -1.242 -0.466 -2.492 -0.744 -3.728a0.844 0.844 0 0 0 -1.658 0.25 39.2 39.2 0 0 0 0 4.4 8.474 8.474 0 0 0 -2.484 1.738c-2.236 1.988 -4.706 5.624 -3.148 8.698 1.424 2.8 4.142 2.236 6.544 1.4 0.332 2.9 0.746 5.716 1.16 8.614a8.964 8.964 0 0 1 -4.39 -2.732c-1.346 -1.474 -3.49 0.67 -2.154 2.152a10.172 10.172 0 0 0 6.874 3.148c0.084 0.828 0.242 1.658 0.332 2.486 0.228 2.072 3.456 1.162 3.148 -0.828 -0.09 -0.58 -0.166 -1.244 -0.248 -1.824a8.068 8.068 0 0 0 7.122 -8.696c-0.246 -3.71 -3.916 -6.706 -8.862 -5.882 -0.248 -2.154 -0.58 -4.4 -0.912 -6.544a16.016 16.016 0 0 1 4.64 -1.078ZM144 94.538c2.638 2.086 -0.174 6.534 -1.988 7.786a6.6 6.6 0 0 1 -2.486 1.078c-0.414 -3.23 -0.746 -6.462 -1.16 -9.692a6.516 6.516 0 0 1 5.634 0.828Zm-9.2 -2.65c-1.738 0.662 -4.142 1.4 -3.148 -2.568A6.158 6.158 0 0 1 134.39 86a48 48 0 0 0 0.41 5.888Z" fill="#191919" stroke-width="1"></path><path d="M44.352 117.732a0.8 0.8 0 0 0 0.744 0.662c3.646 0.248 7.288 -0.248 10.934 -0.166a1.12 1.12 0 0 0 1.16 -1.158c0.864 -1.298 -0.746 -1.358 -0.746 -38.436a0.892 0.892 0 0 0 -0.662 -0.828 1.232 1.232 0 0 0 -1.076 -0.33c-2.73 0.52 -5.704 0.386 -8.45 1a0.748 0.748 0 0 0 -0.58 0.828q-0.372 0.122 -0.496 0.744a273.4 273.4 0 0 0 -1.58 36.856 0.722 0.722 0 0 0 0.752 0.828Zm10.104 -37.772A116.842 116.842 0 0 0 54.54 116c-2.982 0.332 -6.046 0.332 -9.028 0.746 0.828 -12.012 2.152 -24.436 1.822 -36.446a20.548 20.548 0 0 0 7.122 -0.34Z" fill="#191919" stroke-width="1"></path><path d="M63.238 116.82a32.482 32.482 0 0 0 6.128 0.58 32.414 32.414 0 0 0 6.214 0 1.238 1.238 0 0 0 1 -1.076 1.628 1.628 0 0 0 1.4 -1.658c-0.166 -17.728 -1.326 -35.368 -2.652 -53.094a1.2 1.2 0 0 0 -0.164 -0.58 1.056 1.056 0 0 0 -0.58 -1.16c-2.626 -1.314 -8.684 -0.82 -11.348 -0.332a1.182 1.182 0 0 0 -0.83 1.656c-0.164 9.278 -0.248 18.472 -0.248 27.75 0 8.532 -1.076 17.892 0.414 26.258a1.122 1.122 0 0 0 0.666 1.656Zm9.6 -54.586c1 17.4 1.49 34.872 1.656 52.35a34.4 34.4 0 0 0 -5.052 -0.166c-1.4 0 -2.9 -0.082 -4.4 0 1.242 -8.2 0.162 -17.228 0.082 -25.512 -0.086 -8.946 -0.33 -17.892 -0.496 -26.838a50 50 0 0 1 8.218 0.166Z" fill="#191919" stroke-width="1"></path><path d="M84.442 114.418a1.498 1.498 0 0 0 0.58 1.242c0.6 0.8 1.02 0.332 1.4 0.332a0.752 0.752 0 0 0 0.414 -0.082c3.81 -0.664 10.52 0.91 12.674 -2.4a1 1 0 0 0 -0.082 -1.16c0 -0.084 0.082 -0.166 0.082 -0.248 1.822 -11.68 -0.11 -24.848 -1.242 -36.53 -1.18 -12.164 -4.142 -24.712 -4.142 -37.358a1.344 1.344 0 0 0 -1.16 -1.988 28.768 28.768 0 0 0 -6.046 0.664 60.6 60.6 0 0 0 -6.462 1.242 1.244 1.244 0 0 0 -0.58 1.988 0.498 0.498 0 0 0 -0.082 0.33c-1.236 18.268 4.492 27.19 4.646 73.968ZM92.312 39.2a38.53 38.53 0 0 0 0.248 13.916c5.032 38.04 2.766 48.57 4.142 58.894a1.2 1.2 0 0 0 -0.498 0.166c-2.462 0.684 -5.684 0.514 -8.366 1.4 0 -45.382 -6.526 -55.504 -6.046 -72.892 2.538 -0.428 8.576 -0.966 10.52 -1.484Z" fill="#191919" stroke-width="1"></path><path d="M373.86 175.632c-0.828 -0.332 -1.332 1 -0.58 1.49 15.294 9.898 10.302 24.66 -1.988 27.418 4.97 -3.562 6.618 -12 2.734 -16.898a7.136 7.136 0 0 0 -6.462 -2.65c-2.736 0.302 -4.884 2.246 -7.454 2.898a4.836 4.836 0 0 1 -6.048 -6.46 10.952 10.952 0 0 1 6.628 -7.04c0.082 0 0.082 -0.084 0.164 -0.166a15.36 15.36 0 0 1 9.774 0.58c0.754 0.314 1.328 -1 0.58 -1.326a16.914 16.914 0 0 0 -22.032 7.87c-3.894 8.034 -1.49 20.538 7.288 24.434 8.948 3.972 22.734 2.254 26.922 -7.538a17.496 17.496 0 0 0 -9.526 -22.612Zm-5.882 28.328a0.868 0.868 0 0 0 -0.414 1.16 25.862 25.862 0 0 1 -8.78 -1c-8.778 -2.656 -11.316 -14.932 -7.454 -22.364a9.892 9.892 0 0 1 1.242 -1.906c-1.906 4.058 -1.908 8.786 2.318 10.6 4.058 1.744 8.28 -2 11.928 -3.064 4.884 -1.424 7 2.568 7.042 6.8a10.2 10.2 0 0 1 -5.882 9.774Z" fill="#191919" stroke-width="1"></path><path d="M388.852 80.954c-0.16 -1.574 -2.674 -1.654 -2.484 0 0.812 7.136 -7.2 7.814 -12.26 8.532a9.45 9.45 0 0 0 -4.888 1.822 7.374 7.374 0 0 0 -1.572 9.36c0 0.082 0.082 0.082 0.164 0.166a1.044 1.044 0 0 0 -0.744 0.332c-0.414 -0.58 -1.334 -1 -1.906 -0.332 -13.832 16.234 -24.378 33.386 -34.79 41.416 -0.656 0.506 0.084 1.574 0.746 1.492a0.904 0.904 0 0 0 0.912 0 305.348 305.348 0 0 0 41.084 -32.472 1.18 1.18 0 0 0 1.16 -1.324 10.25 10.25 0 0 0 -5.55 -8.78 1.14 1.14 0 0 0 0.746 -1.574c-1.706 -3.744 -0.178 -6.336 3.644 -7.372 4.912 -1.334 10.012 -0.318 14 -4.97 -0.414 0.496 0.4 4.224 0.414 5.052 0.042 5.882 -4.128 14.984 -11.264 14a1.388 1.388 0 1 0 -0.414 2.734c5.8 0.532 9.71 -3.468 12.258 -8.2 3.338 -6.202 1.428 -13.174 0.744 -19.882Zm-17.312 28.494A342.03 342.03 0 0 1 339.898 135.8c5.938 -6.4 21.638 -26.256 26.92 -33.3a0.876 0.876 0 0 0 0.414 0.332 8.312 8.312 0 0 1 4.308 6.616Z" fill="#191919" stroke-width="1"></path><path d="M349.6 57.76c0.978 -0.846 1.966 -1.676 2.898 -2.65 0.73 -0.762 -0.248 -2.154 -1.158 -1.49a26.712 26.712 0 0 0 -2.982 2.318c-0.908 0.75 -2.21 1.502 -2.652 2.568a0.976 0.976 0 0 0 1.078 1.4 8.438 8.438 0 0 0 2.816 -2.146Z" fill="#191919" stroke-width="1"></path><path d="M341.638 64.304a0.966 0.966 0 0 0 -1.658 -1c-1.652 2.72 -3.098 2.638 -3.23 4.226 -0.082 0.33 0.332 0.828 0.664 0.91 1.904 0.254 3.478 -2.64 4.224 -4.136Z" fill="#191919" stroke-width="1"></path><path d="M300.47 85.51a16.304 16.304 0 0 1 -5.302 2.4 0.932 0.932 0 0 0 0.25 1.822 9.384 9.384 0 0 0 6.46 -2.4c1.076 -0.912 -0.248 -2.402 -1.408 -1.822Z" fill="#191919" stroke-width="1"></path><path d="M274.626 86.918c3.612 7.348 2.628 16.582 0.498 24.27a1.2 1.2 0 0 0 1.988 1.16 67.984 67.984 0 0 0 7.95 -9.278c6.958 -2.982 13.834 -6.212 20.958 -8.698 -1.822 3.976 -3.562 8.036 -5.054 12.094 -0.082 0 -0.248 -0.082 -0.414 0a20.836 20.836 0 0 0 -7.538 2.154c-1.332 0.732 -0.33 2.488 1 2.32 1.906 -0.244 3.812 -0.664 5.716 -1 -1.16 3.312 -2.104 6.642 -3.148 9.94a0.874 0.874 0 0 0 0.414 1.076 0.83 0.83 0 0 0 1.16 0.498c20.626 -6.8 28.842 -28.868 30.98 -48.54 0.098 -0.91 -1 -1.332 -1.656 -1 -3.662 1.872 -7.29 3.976 -10.852 5.964a0.814 0.814 0 0 0 -1.326 -0.084A135.486 135.486 0 0 0 307.6 91.4h-0.332a100.448 100.448 0 0 0 -22.282 9.692 1.318 1.318 0 0 0 -1.656 0.332 67.07 67.07 0 0 1 -4.888 5.964c1.326 -6.628 1.574 -14 -0.91 -20.212a48.744 48.744 0 0 0 -3.728 -7.124c1.49 1 3 1.972 4.472 2.982 1.67 1.142 4.4 3.9 6.544 3.976 2.486 0.09 7.284 -3.074 9.444 -4.14 23.852 -11.788 40.948 -25.712 62.124 -41.914 3.2 -2.444 5.362 -4.216 9.112 -4.556 1.242 1.988 2.4 3.894 3.644 5.882 0.166 3.064 -4.55 8.7 -6.212 11.016 -8.026 11.184 -16.284 18.074 -27.5 25.844 -0.738 0.51 -0.088 1.648 0.662 1.242a83.286 83.286 0 0 0 19.8 -15.572c5.368 -5.566 11.76 -12.84 14.58 -20.212 1.488 -3.894 1.25 -8.98 -3.646 -10.106 -6.698 -1.538 -13.986 6.4 -18.636 9.94q-8.676 6.616 -17.478 13.088c0.166 -8.118 2.236 -26.506 -8.864 -27.748a0.922 0.922 0 0 0 -0.828 0.496 26.714 26.714 0 0 0 -2.07 9.278 1.242 1.242 0 0 0 -1.492 -0.332 49.626 49.626 0 0 0 -7.46 3.22c-1.16 0.664 -0.33 2.248 0.828 2.072a45.848 45.848 0 0 0 7.538 -2.072 1.758 1.758 0 0 0 0.414 -0.248c-0.648 9.702 -0.974 17.014 -3.314 22.862 -0.33 0.828 0.912 1.242 1.4 0.58 4.556 -7.2 3.152 -17.726 4.226 -25.926 0.248 -1.906 -0.242 -7.478 3.23 -6.378 2.822 0.892 3.8 7.87 3.976 9.856a111.75 111.75 0 0 1 -0.332 16.4c-24.172 17.296 -32.724 19.928 -40.422 23.854 -3.466 1.768 -3.332 0.94 -6.462 -1.158 -3.416 -2.29 -6.832 -4.62 -10.354 -6.876 -1.064 -0.682 -2.152 0.662 -1.656 1.656a110.4 110.4 0 0 1 5.554 9.86Zm41 -6.378c0.35 0 4.94 -2.47 11.1 -5.55C324 92.964 316.788 110.94 299.31 118.8a203 203 0 0 1 16.318 -38.26Z" fill="#191919" stroke-width="1"></path><path d="M43.6 197.582c-5.07 -15.54 12.686 -16.886 20.708 -25.016 5.06 -5.128 6.046 -11.844 5.8 -18.636 1.16 -0.332 2.328 -0.638 3.48 -1 1.25 -0.388 1.15 -1.81 0 -2.652 -3.264 -2.388 -5 -4.858 -5.882 -3.976a59.862 59.862 0 0 0 -4.8 7.042c-0.742 1 0.5 2.086 1.49 1.904 1.248 -0.228 2.4 -0.496 3.646 -0.744 0.558 13.422 -5.41 18.27 -15.904 23.772 -7.712 4.05 -13.916 10.524 -10.024 19.724a0.774 0.774 0 1 0 1.486 -0.418Z" fill="#191919" stroke-width="1"></path><path d="M358.452 149.042c0.576 -0.914 -0.818 -1.65 -1.4 -0.828 -6.038 8.432 -14.4 10.584 -24.27 9.526 -4.72 -0.506 -9.44 -0.082 -11.514 4.886 -2.316 5.552 0.486 12.096 1.326 17.728 0.816 5.468 0.6 11.524 -3.314 15.82a7.91 7.91 0 0 1 -13.418 -2.4c1.326 -0.166 3.4 -0.082 4.308 -1.16 1.326 -1.572 0.228 -5.132 0 -6.958 -1.684 -13.426 -4.87 -17.518 -5.8 -25.76a1.28 1.28 0 0 0 -0.828 -1c10.8 -4.55 6.414 -23.496 -5.052 -28.164 -19.2 -7.818 -25.346 26.258 -8.45 28.164 0.496 0 -0.626 -1.386 3.562 17.974 0.68 3.144 1.14 6.3 1.906 9.444a18.334 18.334 0 0 0 2.816 7.62c0.854 1.056 1.656 0.91 2.734 0.58 0.33 -0.084 2.47 -1.24 2.65 -0.498a9.864 9.864 0 0 0 10.024 7.786c7.618 -0.35 11.646 -8.696 11.6 -15.4 -0.08 -10.776 -8.39 -24.696 4.058 -27.086 2.314 -0.444 5.384 0.664 7.786 0.828a23.412 23.412 0 0 0 21.276 -11.102Zm-57.568 8.036a0.832 0.832 0 0 0 0.496 -0.83 126.896 126.896 0 0 0 -2.07 -14.66c5.4 -0.648 5.898 -0.258 6.378 -0.498 2.744 6.69 2.254 14.742 -4.804 15.988Zm3.562 -18.142a47.3 47.3 0 0 0 -5.632 0.498c-0.416 -2.154 -0.83 -4.39 -1.244 -6.544a14.066 14.066 0 0 1 6.876 6.046Zm-8.78 -6.626c0 0.6 0.43 2.816 0.91 7.456a46.322 46.322 0 0 0 -4.886 1.242c-0.498 -2.9 -0.828 -5.8 -1.16 -8.698a10.774 10.774 0 0 1 5.136 0Zm-6.958 0.662a52.708 52.708 0 0 0 1 8.864 15 15 0 0 0 -6.958 5.55c-1.248 -5.652 0.65 -11.872 5.958 -14.414Zm-5.468 16.484a1.16 1.16 0 0 1 0.332 -0.248 15.868 15.868 0 0 1 6.544 -5.052c0.248 1.242 0.512 2.4 0.828 3.644 0.522 2.064 1.328 8.688 3.728 9.278a1.018 1.018 0 0 0 1.242 -0.912 1 1 0 0 0 -0.166 -0.58c-0.886 -3.634 -3.156 -8.618 -3.562 -12.26a23.436 23.436 0 0 1 4.722 -1.242c0.58 4.888 1.388 9.76 2.4 14.496a0.988 0.988 0 0 0 0.746 0.746 40.024 40.024 0 0 1 -8.946 -0.58 0.762 0.762 0 0 0 -0.746 0.248 11.03 11.03 0 0 1 -7.122 -7.538Z" fill="#191919" stroke-width="1"></path></svg>