<svg xmlns="http://www.w3.org/2000/svg" viewBox="0 0 400 400" id="Work-Life-Balance-1--Streamline-Brooklyn.svg" height="400" width="400"><desc>Work Life Balance 1 Streamline Illustration: https://streamlinehq.com</desc><path d="M165.6 10.018a271.706 271.706 0 0 0 -36.762 2.4 1.684 1.684 0 0 0 -1.25 0.848c-1.988 3.626 -3.448 8.116 -5.262 11.986 -6.35 13.632 -11.384 26.6 -16.906 40.134a1.554 1.554 0 0 0 1.316 2.142c11.136 0.692 21.2 -0.544 32.284 -0.892a1 1 0 0 0 1.612 -0.02 0.812 0.812 0 0 0 0.658 -1.23c7.4 -13.644 3.072 -2.352 25.752 -53.074a1.626 1.626 0 0 0 -1.442 -2.294ZM141.37 51.584a82.462 82.462 0 0 1 -9.692 0.488c-9.53 -0.124 -10.6 0 -11.222 -1.082a1.626 1.626 0 0 1 -0.128 -1.4c4.4 -11.572 17.364 -12.282 21.722 -4.136a10.696 10.696 0 0 1 0.89 4.476 1.638 1.638 0 0 1 -1.57 1.654Zm-8.228 -15.708a5.132 5.132 0 0 1 -3.16 -4.688 7.65 7.65 0 0 1 4.03 -6.174c2.54 -1.34 5.262 -2.182 7.68 -0.636 5.718 3.782 -1.814 14.936 -8.55 11.498Z" fill="#2862e9" stroke-width="1"></path><path d="M184.94 100a32.576 32.576 0 0 0 -0.7 12.43c0.22 1.066 1.42 1.154 1.656 -0.022a97.352 97.352 0 0 0 1.018 -12.112 1 1 0 1 0 -1.974 -0.296Z" fill="#191919" stroke-width="1"></path><path d="M174.926 105.018c0.916 3.14 5.26 3.566 7.488 0.742a0.952 0.952 0 0 0 0.212 -1.144c-0.254 -0.382 -0.69 -0.338 -1.144 -0.212 -2.252 0.616 -3.4 1.082 -4.858 -0.4 -0.954 -0.982 -2.082 -0.308 -1.698 1.014Z" fill="#191919" stroke-width="1"></path><path d="M189.022 105.34a5.078 5.078 0 0 0 8.888 -0.084c0.506 -1.092 -0.354 -1.716 -1.252 -1.082a5.334 5.334 0 0 1 -6.172 -0.2c-1.038 -0.76 -2.194 0.128 -1.464 1.366Z" fill="#191919" stroke-width="1"></path><path d="M182.26 117.626c2.272 4.23 8.4 3.4 10.67 -0.446 0.58 -0.988 -0.278 -1.76 -1.21 -1.124 -2.896 1.978 -5.732 2.292 -7.912 0.318 -0.95 -0.862 -2.208 0.004 -1.548 1.252Z" fill="#191919" stroke-width="1"></path><path d="M45.312 174.58c-7.32 1.626 -11.472 7.4 -10.862 12.24 1.106 8.02 14.558 14.2 22.04 10.776a0.816 0.816 0 0 0 0.572 -1.018 0.84 0.84 0 0 0 -1.038 -0.578 10 10 0 0 1 -2.27 0.064c-5.682 -0.334 -15.302 -4.12 -16.058 -9.694a7.884 7.884 0 0 1 3.2 -6.448 19.7 19.7 0 0 1 5.048 -3.458 1 1 0 0 0 -0.636 -1.888Z" fill="#191919" stroke-width="1"></path><path d="M17.068 213.72a6.33 6.33 0 0 0 4.412 4.48c4.114 1.352 9.74 -0.054 13.49 -2.27a16.304 16.304 0 0 0 6.618 -6.532 0.854 0.854 0 0 0 -0.064 -1.168 0.834 0.834 0 0 0 -1.166 0.064c-0.466 0.362 -0.934 0.636 -1.4 0.976a42.64 42.64 0 0 1 -7.064 4.56 14.558 14.558 0 0 1 -10.076 1.168 6.048 6.048 0 0 1 -1.93 -0.912 4.942 4.942 0 0 1 -0.954 -1.04 1 1 0 1 0 -1.866 0.678Z" fill="#191919" stroke-width="1"></path><path d="M49.414 221.4c-5.038 9.866 -14.984 16.942 -23.164 9.334a1 1 0 0 1 -0.086 -1.4 0.982 0.982 0 0 1 1.4 -0.086 8.302 8.302 0 0 0 9.504 1.316c4.368 -2.082 8.42 -7.676 10.246 -12.176a1.6 1.6 0 0 1 2.376 -0.7c12.556 8.776 24.76 19.048 39.052 24.776 18.454 7.484 40.876 4.498 50.442 -2.27a53.502 53.502 0 0 0 7.17 -6.448 0.832 0.832 0 1 1 1.2 1.146 55.094 55.094 0 0 1 -6.936 7.232c-12.912 10.212 -37.302 9.812 -53.136 3.416 -14.324 -5.828 -25.67 -15.276 -38.068 -24.14Z" fill="#191919" stroke-width="1"></path><path d="M157.284 147.148a0.966 0.966 0 0 0 -1.2 -0.72c-14.716 3.256 -22.698 15.214 -29.834 28.172 -7.298 13.488 -13.248 25.554 -18.75 37.78 -8.938 -3.826 -23.742 -10.536 -34.174 -13.958 11.6 -13.332 3.506 -31.072 -7.616 -29.23a30.516 30.516 0 0 0 -6.554 1.314 0.824 0.824 0 1 0 0.616 1.528 33.288 33.288 0 0 1 6.2 -0.8c9.138 -0.926 15.458 15.034 3.266 26.8a1.61 1.61 0 0 0 0.68 2.736c11.774 3.306 39.024 16.072 49.438 20.906a0.828 0.828 0 1 0 0.85 -1.42 69.704 69.704 0 0 0 -9.988 -5.824c5.372 -12.04 18.858 -40.2 26.454 -50.826 5.166 -7.254 11.262 -12.874 19.898 -15.252a0.968 0.968 0 0 0 0.714 -1.206Z" fill="#191919" stroke-width="1"></path><path d="M314.754 166.938a18.42 18.42 0 0 1 4.094 1.632c5.63 2.928 3.84 8.496 -1.6 12.134a49.438 49.438 0 0 1 -6.8 3.584 0.858 0.858 0 0 0 -0.636 1 0.834 0.834 0 0 0 0.976 0.636 16.07 16.07 0 0 0 11.856 -5.558c5.824 -6.498 2.94 -15.4 -7.636 -15.4a1 1 0 0 0 -1.124 0.848 1.022 1.022 0 0 0 0.87 1.124Z" fill="#191919" stroke-width="1"></path><path d="M350.126 177.016a46.554 46.554 0 0 1 -3.034 4.2 25.054 25.054 0 0 1 -8.888 7.55 24.014 24.014 0 0 1 -11.348 2.376 49.076 49.076 0 0 1 -5.2 -0.19 0.838 0.838 0 0 0 -1.018 0.6 0.824 0.824 0 0 0 0.6 1 21.096 21.096 0 0 0 5.43 1.6 24.8 24.8 0 0 0 22.932 -11.176 22.524 22.524 0 0 0 2.334 -5.112 1 1 0 1 0 -1.808 -0.848Z" fill="#191919" stroke-width="1"></path><path d="M317.114 204.814a56.4 56.4 0 0 1 -12.26 14.4c-14.106 12.45 -32.28 24.4 -51.08 22.55 -7.052 -0.672 -17.47 -4.292 -21.656 -10.118a0.832 0.832 0 0 1 1.314 -1.018c4.072 4.886 14.25 7.53 20.618 8.018 18.172 1.26 34.89 -9.718 48.64 -21.912a50.312 50.312 0 0 0 12.388 -14.956 1.6 1.6 0 0 1 2.376 -0.572c6.242 4.664 17.076 7.448 24.266 3.564a0.982 0.982 0 0 1 1.358 0.36 1 1 0 0 1 -0.36 1.358c-7.398 4.58 -18.218 2.996 -25.604 -1.674Z" fill="#191919" stroke-width="1"></path><path d="M305.186 166.876c-11.128 3.44 -15.55 16.4 -10.754 26.07 -4.412 1.336 -27.724 7.72 -34.936 9.694 -11.26 -20.4 -15.988 -48.48 -41.576 -56.2a1 1 0 1 0 -0.636 1.888c23.316 8.464 28.474 36.036 39.352 55.906 -2.41 0.8 -4.834 1.742 -6.042 2.244 -1.024 0.424 -0.8 1.58 0.318 1.612 1.614 0.046 33.684 -8.736 46.342 -12.67a1.6 1.6 0 0 0 0.87 -2.4c-5.412 -8.188 -2.2 -21.034 7.572 -24.584a0.826 0.826 0 1 0 -0.51 -1.56Z" fill="#191919" stroke-width="1"></path><path d="M214.616 239.078a32.026 32.026 0 0 0 -0.36 9.312c0.238 1.258 1.306 1.142 1.654 0.2a22.948 22.948 0 0 0 0.7 -9.42c-0.23 -1.412 -1.708 -1.358 -1.994 -0.092Z" fill="#191919" stroke-width="1"></path><path d="M343.054 290.094c-3.036 -13.42 -13.02 -26.248 -26.75 -23.938 -6.832 -14.038 -28.662 -20.668 -42.634 -9.116a1 1 0 0 0 1.146 1.634 28.668 28.668 0 0 1 34.914 3.734 33.572 33.572 0 0 1 7.086 10.838 0.826 0.826 0 0 0 1.6 -0.444 22.51 22.51 0 0 0 -1.25 -4.66c7.634 -0.422 13.516 4.234 17.688 10.6 11.634 18.064 6.648 48.49 -15.082 55.258a33.216 33.216 0 0 1 -8.694 1.626 0.844 0.844 0 0 0 -0.572 -1.02 0.88 0.88 0 0 0 -1.018 0.614 43.518 43.518 0 0 1 -6.894 12.156c-7.702 9.724 -21 16.822 -39.39 17.118a32.258 32.258 0 0 1 -4.81 -0.24 49.4 49.4 0 0 0 4.4 -7.548 0.8 0.8 0 0 0 -0.318 -1.102 0.846 0.846 0 0 0 -1.124 0.318 75.51 75.51 0 0 1 -13.6 15.952c-10.97 10.1 -22.644 15.056 -37.864 14.826 -9.552 -0.162 -24.816 -2.542 -33.898 -7.466a32.658 32.658 0 0 1 -9.498 -7.468 25.318 25.318 0 0 0 3.66 -2.634 0.834 0.834 0 0 0 0.148 -1.166 0.816 0.816 0 0 0 -1.168 -0.128 43.456 43.456 0 0 1 -14.72 5.664 92.538 92.538 0 0 1 -25.4 2.716c-18.986 -0.6 -38.814 -7.146 -48.15 -23.492a39.384 39.384 0 0 0 13.4 -6.706c0.916 -0.558 0 -1.98 -0.912 -1.378a63.25 63.25 0 0 1 -23.27 6.766c-16.65 1.358 -30.6 -4.8 -32.904 -21.486a0.8 0.8 0 0 0 0.218 -1.4c-12.414 -12.414 5.974 -36.612 21 -37.122 1.258 0.048 1.79 -4.032 5.2 -9.646 10.212 -16.692 25.106 -24.17 42.722 -16.4a1 1 0 1 0 0.932 -1.76 31.496 31.496 0 0 0 -8.93 -3.818 29.8 29.8 0 0 0 -22.166 3.988 38.428 38.428 0 0 0 -18.22 25.614c-17.494 -1.476 -37.308 27.674 -22.878 39.418a42.914 42.914 0 0 0 0.658 6.716c3.722 17.732 25.132 22.11 42.962 17.8 8.282 18.446 30.104 25.576 50.23 26.2 11.294 0.354 25.79 -1.542 35.73 -6.714a33.254 33.254 0 0 0 13.086 10.664 81.874 81.874 0 0 0 24.438 6.024c20.696 2.242 36.424 -2.982 51.142 -18.816 1.292 -1.468 2.514 -2.988 3.69 -4.538 19.566 5.4 48.788 -6.904 53.722 -28.816a31.32 31.32 0 0 0 17.704 -4.052c13.584 -8.234 18.126 -27.464 14.638 -43.17Z" fill="#191919" stroke-width="1"></path><path d="M73.814 97c-7.64 -14.6 -27.682 -17.362 -39.4 -6.152A23.874 23.874 0 0 0 27.04 108.2a24.742 24.742 0 1 0 46.774 -11.2Zm-6.8 26.4a21.554 21.554 0 0 1 -34.458 -24.978 21.052 21.052 0 0 1 34.556 -5.536 21.692 21.692 0 0 1 -0.112 30.524Z" fill="#191919" stroke-width="1"></path><path d="M53.368 105.322c-0.67 -1.91 -1.368 -3.8 -2.112 -5.688 1.08 -0.37 2.146 -0.714 3.092 -1.106a1 1 0 1 0 -0.636 -1.888c-1.05 0.268 -2.218 0.436 -3.41 0.658 -0.748 -1.63 -1.852 -3.586 -2.73 -3.256 -0.822 0.294 -0.568 2.11 -0.074 4a8.624 8.624 0 0 0 -4.098 2.522 5.978 5.978 0 0 0 3.118 9.906 7.962 7.962 0 0 0 4.826 -0.708c0.962 2.844 1.892 5.578 2.33 6.83l-6.01 2.744a0.836 0.836 0 0 0 0.508 1.6c2.47 -0.56 3.976 -0.88 6.522 -1.688 2.158 5.034 3.68 4.654 2.652 -0.964a9.94 9.94 0 0 0 4.382 -2.864c3.69 -4.446 -0.128 -13.306 -8.36 -10.098Zm-6.232 1.946a2.818 2.818 0 0 1 -1.358 -4.646 7.058 7.058 0 0 1 2.55 -1.838c0.146 0.434 1.304 3.9 1.97 5.874a5.322 5.322 0 0 1 -3.162 0.61Zm12.112 6.108a7.878 7.878 0 0 1 -2.656 1.866c-0.914 -3.2 -2.1 -6.6 -2.17 -6.81a4.576 4.576 0 0 1 3.384 -0.338 3.6 3.6 0 0 1 1.442 5.282Z" fill="#191919" stroke-width="1"></path><path d="M111.37 38.8c2.132 -0.096 10.59 -0.184 10.542 -2.142 -0.022 -0.934 -2.506 -1.504 -3.966 -1.57a27.4 27.4 0 0 0 -7.488 0.722c-0.984 0.356 -2.742 1.174 -2.46 2.184 0.264 0.942 1.424 0.89 3.372 0.806Z" fill="#191919" stroke-width="1"></path><path d="M106.72 50.36a63.888 63.888 0 0 0 7.658 -0.848c1.072 -0.234 2.6 -1.05 2.482 -1.866s-2.26 -1.212 -2.86 -1.188c-0.708 0.028 -5.93 0.452 -7.6 0.784 -4.022 0.806 -3.896 3.146 0.32 3.118Z" fill="#191919" stroke-width="1"></path><path d="M144.362 69.172c3.62 -6.6 6.4 -13.646 9.906 -20.682 7.066 -14.248 12.65 -24.268 15.698 -32.01a1 1 0 0 1 1.272 -0.614 0.97 0.97 0 0 1 0.6 1.252c-3.744 12.728 -9.238 21.78 -14.638 32.814 -3.868 7.87 -6.044 13.834 -10.438 21.68a1.612 1.612 0 0 1 -1.42 0.826c-10.088 -0.042 -18.188 1.49 -31.712 0.6a0.828 0.828 0 0 1 0.02 -1.654c8.236 -0.338 17.75 -2.022 30.712 -2.212Z" fill="#191919" stroke-width="1"></path><path d="M148.39 75.708c6.746 -16.866 18.286 -38.58 26.388 -55.708a1 1 0 0 1 1.846 0.764C168.6 42.72 159.68 56.128 151 77.934a1.628 1.628 0 0 1 -1.55 1.04c-5.186 -0.172 -10.582 0.63 -15.738 0.51 -3.586 -0.064 -7.128 -0.34 -10.712 -0.34a0.828 0.828 0 0 1 -0.108 -1.654c1.8 -0.212 3.6 -0.362 5.4 -0.488 15.554 -1.002 15.632 -1.294 20.098 -1.294Z" fill="#191919" stroke-width="1"></path><path d="M382.38 35.214c-1.87 -3.906 -7.646 -3.672 -10.542 -0.212a143.438 143.438 0 0 0 -10.69 16.142c-6.874 11 -27.216 41.958 -27.62 42.616 -0.888 1.378 -0.6 3.8 -2.482 14.212a1.644 1.644 0 0 0 2.228 1.824 102.824 102.824 0 0 0 11.836 -5.962 1.924 1.924 0 0 0 0.636 -0.53c0.982 -1.102 10.464 -18.898 14.764 -26.43q2.52 -4.4 5.124 -8.734c1.324 0.016 2.616 0.384 2.432 1.692 -0.536 4.774 -4.106 10.8 -5.812 15.548 -15.386 43.866 -16.388 48.812 -19.812 54.538 -2.538 4.332 -10.738 3.068 -15.528 3.372 -15.986 1.034 -32.474 2.846 -48.236 3.14l-0.6 -1.146c9.384 -18.028 19.544 -40.63 28.68 -55.322a6.288 6.288 0 0 1 2.544 -2.502 281.624 281.624 0 0 1 34.81 -11.816 1.026 1.026 0 0 0 0.722 -1.23 1.012 1.012 0 0 0 -1.232 -0.7 257.4 257.4 0 0 0 -35.466 10.966 8.85 8.85 0 0 0 -3.988 3.648c-9.666 15.256 -19.692 37.776 -29.378 56.2a1.73 1.73 0 0 0 -0.022 1.484l1.506 2.906a1.672 1.672 0 0 0 1.442 0.828c16.168 -0.2 33.46 -2.128 49.424 -3.16 5.718 -0.362 14.554 1.116 18.138 -5a48.44 48.44 0 0 0 3.754 -8.23c1.528 -4.158 14.234 -42.488 15.718 -47.114 1.6 -5.048 4.908 -10.706 5.324 -16.2 0.168 -2.164 -1.2 -3.376 -3.372 -3.618 5.158 -8.52 10.372 -16.614 14.102 -23.83a0.952 0.952 0 0 0 1 -0.446 7.266 7.266 0 0 0 0.596 -6.934Zm-1.908 5.112c-0.622 0.102 -0.234 0.05 -4.37 6.49 -6.438 9.948 -8.468 11.984 -16.588 25.518 -8.902 14.856 -15.262 27.4 -16.2 28.722 -2.662 1.342 -5.698 3.2 -8.486 4.498 0.2 -1.21 1.168 -7.976 1.422 -9.928 0.212 -0.34 23.948 -36.974 27.576 -42.828 3.126 -5.106 6.638 -11.6 10.118 -16.122 1.836 -2.336 5.838 -2.694 6.724 0.298a5.348 5.348 0 0 1 -0.196 3.352Z" fill="#191919" stroke-width="1"></path><path d="M334.66 123.964c1.618 -4.4 4.072 -8.8 5.938 -12.686a0.832 0.832 0 0 1 1.528 0.658c-1.678 4.368 -3.886 9.354 -5.09 13.704a1.444 1.444 0 0 1 -1.082 0.974c-15.294 3.13 -27.916 3.318 -42 6.238a1.636 1.636 0 0 1 -1.844 -2.27c5.456 -12.63 12.968 -25.502 18.858 -38.5a1.48 1.48 0 0 1 0.932 -0.85 174.528 174.528 0 0 1 21.87 -6.044 1.046 1.046 0 0 1 1.21 0.762 1.022 1.022 0 0 1 -0.764 1.188c-5.962 1.58 -12.528 3.94 -20.66 6.832 -5.228 11.636 -11.2 22.136 -17.14 35.042 11.184 -2.012 32.36 -4.108 38.244 -5.048Z" fill="#191919" stroke-width="1"></path><path d="M234.67 180.57c-5.424 -5.972 -15.96 -14.864 -24.262 -16.38 1.05 -4.05 1.254 -15.4 1.254 -18.492 0 -1.726 0.096 -7.884 -1.612 -7.85 -1.472 0.03 -1.496 5.034 -1.6 7.382 -0.286 10.042 -0.868 14.928 -0.368 18.736 -7.056 0.03 -14.444 6.624 -19.428 11.492 -6.2 -3.736 -14.62 -9.08 -21.83 -8.612A60.286 60.286 0 0 0 165.8 156.4c-2 -13.906 -1.498 -16.918 -3.16 -16.886 -2.886 0.056 -0.22 16.648 0.212 19.474a47.18 47.18 0 0 0 1.73 8.22c-7.676 1.866 -14.332 10.544 -20.8 18.046a1.788 1.788 0 0 0 -0.4 1.23 268.73 268.73 0 0 0 8.464 50.38 1.578 1.578 0 0 0 1.718 1.166c12.562 -1.19 23.866 -1.1 36.102 -1.654 11.112 -0.544 24.78 -1.714 36.762 -1.06a0.83 0.83 0 0 0 1.23 -0.022 1 1 0 0 0 0.51 -1.442c5.154 -17.986 6 -33.772 6.914 -52.162a1.6 1.6 0 0 0 -0.412 -1.12Zm-37.834 28.122a15.4 15.4 0 0 1 -8.144 -7.212c-0.498 -1.24 0.78 -2.036 1.676 -1.062 0.172 0.19 5.23 4.914 7.296 6.832 0.888 0.82 0.136 1.782 -0.828 1.442Z" fill="#2862e9" stroke-width="1"></path><path d="M232.986 115.556a1 1 0 0 0 -1.188 -0.656 0.814 0.814 0 0 0 -1.06 0.296c-3.36 5.424 -7.748 1.674 -7.976 -4.136 -0.298 -5.9 1.834 -11 1.612 -17.48 -0.506 -10.704 -9.282 -23.68 -20.29 -22a26.986 26.986 0 0 1 5.03 7.542c0.272 0.888 0.852 3.452 -0.064 3.818 -1.038 0.416 -2.9 -2.846 -3.436 -3.712 -5.964 -9.8 -11.092 -11.922 -17.28 -12.122 -17.472 -0.522 -34.952 18 -29.526 45.648a1.658 1.658 0 0 0 2.694 0.934c3.04 -2.584 6.018 -5.224 8.984 -7.87 -0.2 8.102 0.954 16.268 7.816 20.574a12.2 12.2 0 0 0 3.138 1.442c-0.114 1.952 -0.184 5.826 -0.2 6.116a31.4 31.4 0 0 0 0.244 6.354c-2.432 -0.064 -13.87 2.354 -13.12 4.716 0.516 1.626 6.692 -0.186 6.894 -0.234 6.548 -1.684 4.566 -1.076 5.282 -1.314a8.252 8.252 0 0 0 2.636 -1.254c1.758 -1.452 1.4 -11.626 1.322 -13.916a13.024 13.024 0 0 0 3.936 -0.6 0.826 0.826 0 0 0 0.698 -0.934 0.812 0.812 0 0 0 -0.954 -0.678 17.71 17.71 0 0 1 -4.326 -0.722c-11.076 -3.412 -9.6 -13.888 -10.646 -21.986C179.472 97.8 186 92 192.704 86.92a31.4 31.4 0 0 0 10.034 19.282 7.526 7.526 0 0 0 5.012 1.976c1.012 2.2 -0.748 5.8 -5.7 5.8a1.642 1.642 0 0 0 -1.612 1.274 16.86 16.86 0 0 1 -2.948 6.172c-3.578 4.882 -5.728 4.366 -5.728 6.174 0 4.4 0.2 9.3 0.064 13.83a1.578 1.578 0 0 0 1.146 1.57c4.222 1.172 8.19 1.704 11.56 2.65a0.836 0.836 0 0 0 0.574 -1.568 75.116 75.116 0 0 0 -10.076 -3.734c0.154 -3.688 0.02 -8.782 0.02 -11.88a22.738 22.738 0 0 0 8.274 -11.306 8.306 8.306 0 0 0 7.112 -4.776 37.262 37.262 0 0 0 -2.692 9.024 19.84 19.84 0 0 0 0.106 6.426 11.906 11.906 0 0 0 10.946 8.698c11.814 1.092 17.332 -12.002 14.19 -20.976ZM174.94 80.33c-5.124 5.828 -6.442 9.148 -8.6 16.27 -1.292 4.454 -1.518 4.892 -2.438 4.75 -1.276 -0.2 -0.832 -3.44 -0.532 -5.43 1 -5.966 4.8 -13.93 9.482 -17.754 0.644 -0.524 4.146 -3.114 4.922 -2.1 0.45 0.664 0.17 0.778 -2.834 4.264Zm15.502 -7.652a21.278 21.278 0 0 0 -6.618 1.082c-1 0.372 -2.068 -0.924 -0.702 -1.866a8.242 8.242 0 0 1 7.6 -0.85c0.42 0.222 0.752 0.508 0.678 0.956a0.86 0.86 0 0 1 -0.958 0.678Zm23.262 28.6a35.752 35.752 0 0 1 -3 10.432 5.736 5.736 0 0 0 -1.236 -6.028 45.016 45.016 0 0 0 2.368 -12.548 13.232 13.232 0 0 1 1.868 8.146Z" fill="#191919" stroke-width="1"></path><path d="M270.286 298.754a99.18 99.18 0 0 0 -23.684 -2.882 1.154 1.154 0 0 0 -0.768 -0.906c-23.262 -8.544 -46.228 -11.534 -70.424 -17.458 -5.526 -1.4 -12.358 -2.436 -18.37 -3.628 -2.758 -0.558 -6 -0.748 -7.826 -2.248 -1 -0.814 -1.174 -1.434 0.212 -2.588a7.65 7.65 0 0 1 4.412 -1.824 369.38 369.38 0 0 1 51.928 7.642c3.246 -1.6 2.516 -1.3 3.928 -1.978 0.53 -0.276 14.51 -6.746 16.546 -7.6 1.044 -0.448 6.212 -2.572 6.766 -1.4 0.588 1.304 -6.112 4.6 -6.872 4.986 -3.438 1.634 -12 5.7 -15.626 7.032a236.4 236.4 0 0 1 40 12.568 1.6 1.6 0 0 0 1.358 -0.022c4.124 -1.928 7.904 -4.132 11.814 -6.428 3.574 -2.09 7.83 -4.128 10.224 -7.6 5.446 -7.904 -0.868 -16.266 -9.8 -19.09 -14.586 -4.56 -31.038 -3.338 -46.326 -2.25 0.06 -1.118 0.274 -1.65 -0.34 -2.374a1.634 1.634 0 0 0 -1.188 -0.552c-7.53 -0.17 -15.018 -0.53 -22.548 -0.7 -19.448 -0.256 -17.618 0.466 -30.478 0.536a61.73 61.73 0 0 0 -0.902 -10.97 0.988 0.988 0 1 0 -1.972 0.148 47.766 47.766 0 0 0 0.692 10.832l-0.438 0a1.62 1.62 0 0 0 -1.654 1.548l-0.212 2.142c-17.084 0.864 -33.938 1.952 -47.282 12.728 -7.168 5.744 -11.938 15.682 -7.926 24.154a22.762 22.762 0 0 0 -13.112 6.892 1 1 0 1 0 1.358 1.442 29 29 0 0 1 19.028 -5.578c13.24 0.76 26.142 11.77 28.424 22.316a0.824 0.824 0 1 0 1.634 -0.212 20.06 20.06 0 0 0 -1.772 -7.4c13.92 2.428 26.784 4.896 40.902 6.328 11.934 1.222 41.646 2.168 42.466 2.184 15.452 0.298 19.4 0.314 23.658 -1.242a53.076 53.076 0 0 0 24.658 -1.374c4.4 -1.48 9.26 -4.1 8.888 -8.74 -0.29 -4.312 -5.29 -5.52 -9.376 -6.434Zm-135.238 -34.246c-5.836 2.268 -16.736 5.428 -20.662 13.13a11.036 11.036 0 0 0 -1.06 2.822c-0.438 2 0.066 3.042 -1.146 3.18 -1.65 0.2 -1.454 -3.752 -1.166 -5.388 1.296 -6.468 8.78 -11.164 14.848 -13.766a39.546 39.546 0 0 1 7.85 -2.504c2.52 -0.4 5.434 -0.864 5.62 0.256 0.15 0.9 -0.462 0.852 -4.284 2.27Zm114.242 42.414a21.336 21.336 0 0 0 -0.958 6.316c-1.038 0 -2.864 0.032 -4.632 -0.116 -3.518 -0.296 -7.954 -1.138 -10.528 -3.584 -3.26 -3.132 -2.048 -7.956 1.676 -10.266a16.278 16.278 0 0 1 7.6 -2.022 1.02 1.02 0 0 0 0.962 0.762 66.234 66.234 0 0 1 7.89 0.728 58.318 58.318 0 0 0 -2.01 8.182Zm11.6 0.452a18.634 18.634 0 0 0 -1.328 5.4c-4.2 0.4 -6.376 0.4 -8.946 0.438a12.618 12.618 0 0 0 0.65 -1.238 47.066 47.066 0 0 0 2.522 -12.876c2.554 0.374 4.878 0.694 9.1 1.486 -0.888 2.338 -0.256 1.152 -2 6.79Zm1.462 5.068a31.578 31.578 0 0 0 3.2 -11.316c1.344 0.272 2.702 0.534 4 0.832 2.078 0.428 6.648 1.282 6.8 3.478 0.368 4.236 -9.752 6.41 -14.002 7.006Z" fill="#191919" stroke-width="1"></path><path d="M116.2 27.562a82.546 82.546 0 0 0 10.118 -1.21c0.6 -0.172 3.184 -1.118 3.034 -2.014s-3.088 -1.018 -3.288 -1.018c-1.064 0 -8.946 0.942 -9.714 1.06 -1.278 0.2 -4.154 0.686 -4.052 1.972 0.102 1.192 3.432 1.234 3.902 1.21Z" fill="#191919" stroke-width="1"></path></svg>