<svg xmlns="http://www.w3.org/2000/svg" fill="none" viewBox="0 0 400 400" id="Work-In-Progress-2--Streamline-Brooklyn.svg" height="400" width="400"><desc>Work In Progress 2 Streamline Illustration: https://streamlinehq.com</desc><g id="work-in-progress-2--work-work-in-progress"><g id="typewriter"><path id="vector" fill="#2862e9" d="M184.582 182.014c-3.682 -9.54 -5.784 -11.272 -13.108 -12.042 -17.1 -1.8 -29.274 -0.122 -35.958 -0.516 -6.97 -0.412 -12.334 0.492 -16.292 1.554 -4.12 1.106 -8.346 2.172 -11.022 12.184 -1.416 5.302 0.754 2.4578 73.864 2.4578 2.458 0 3.406 -1.3278 2.514 -3.6358l0.002 -0.002Zm-21.034 -5.048c-4.976 2.474 -39.61 -2.97 -48.068 4.62 -2.066 1.854 -3.246 0.102 -1.848 -1.788 5.29 -7.146 23.456 -6.5542 38.182 -5.7582 2.91 0.158 8.76 0.2802 11.756 1.7962 0.702 0.356 0.758 0.742 -0.02 1.13h-0.002Z" stroke-width="1"></path><path id="vector_2" fill="#2862e9" d="M55.912 260.19c23.044 0 49.28 -0.298 49.324 -0.298 44.474 -0.412 41.636 0.706 45.24 -2.236 43.14 -35.22 41.814 -58.268 46.632 -56.228 1.428 0.604 1.022 1.764 0.508 2.962 -8.63 20.144 -25.692 41.776 -47.132 56.314 -3.964 2.688 -8.478 1.056 -43.798 1.856 -50.78 1.152 -48.69 -0.076 -52.912 0.512 -2.494 0.348 -3.356 -1.504 -1.428 -3.39 2.858 -2.796 6.018 -5.234 9.124 -7.736 1.208 -0.972 71.046 -0.63 79.422 0.782 1.706 0.288 0.38 1.536 0.03 1.538 -7.676 0.03 -76.97 -1.326 -78.456 -0.04 -2.154 1.864 -4.39 3.648 -6.554 5.964Z" stroke-width="1"></path><path id="vector_3" fill="#2862e9" d="M122.538 239.18c0.01 10.17 -15.364 10.278 -15.518 0.108 -0.15 -9.92 15.506 -10.764 15.518 -0.108Z" stroke-width="1"></path><path id="vector_4" fill="#2862e9" d="M166.74 206.374c-0.08 10.174 -15.508 10.106 -15.496 0.142 0.012 -10.4198 15.578 -10.4398 15.496 -0.142Z" stroke-width="1"></path><path id="vector_5" fill="#2862e9" d="M98.622 198.2012c10.796 0.04 9.678 15.6048 -0.38 15.4488 -3.938 -0.062 -7.52 -3.712 -7.498 -7.648 0.024 -4.326 3.548 -7.8188 7.878 -7.8008Z" stroke-width="1"></path><path id="vector_6" fill="#2862e9" d="M138.426 213.766c-4.156 0.02 -7.478 -3.386 -7.486 -7.676 -0.008 -4.088 3.648 -7.7512 7.76 -7.7792 10.138 -0.07 10.534 15.4012 -0.274 15.4552Z" stroke-width="1"></path><path id="vector_7" fill="#2862e9" d="M148.038 215.2c9.71 0.264 10.024 15.596 -0.84 15.444 -3.802 -0.054 -7.476 -3.942 -7.356 -7.78 0.136 -4.424 3.738 -7.786 8.196 -7.664Z" stroke-width="1"></path><path id="vector_8" fill="#2862e9" d="M167.378 230.766c-4.202 0.012 -7.658 -3.422 -7.64 -7.588 0.018 -4.128 3.644 -7.82 7.732 -7.874 10.044 -0.132 10.61 15.43 -0.092 15.46v0.002Z" stroke-width="1"></path><path id="vector_9" fill="#2862e9" d="M135.048 222.658c-0.094 10.372 -15.694 9.972 -15.484 -0.036 0.21 -10.008 15.578 -10.262 15.484 0.036Z" stroke-width="1"></path><path id="vector_10" fill="#2862e9" d="M162.704 239.792c-0.164 9.984 -15.704 10.158 -15.5 -0.294 0.192 -9.96 15.672 -10.166 15.5 0.294Z" stroke-width="1"></path><path id="vector_11" fill="#2862e9" d="M87.246 230.046c-4.254 0.066 -7.846 -3.37 -7.91 -7.57 -0.06 -3.906 3.656 -7.744 7.616 -7.866 10.214 -0.312 10.698 15.276 0.294 15.436Z" stroke-width="1"></path><path id="vector_12" fill="#2862e9" d="M107.166 230.046c-4.262 0.06 -7.572 -3.22 -7.62 -7.554 -0.046 -4.128 3.66 -7.95 7.672 -7.91 10.178 0.102 10.586 15.314 -0.052 15.464Z" stroke-width="1"></path><path id="vector_13" fill="#2862e9" d="M82.31 238.86c-0.008 10.396 -15.29 10.138 -15.464 0.36 -0.074 -4.096 3.576 -8.042 7.604 -8.026 5.202 0.02 8.274 4.084 7.862 7.668l-0.002 -0.002Z" stroke-width="1"></path><path id="vector_14" fill="#2862e9" d="M102.496 238.93c-0.21 10.46 -15.6682 9.964 -15.5042 0.028 0.068 -4.18 3.66 -7.772 7.788 -7.784 4.238 -0.012 7.8002 3.572 7.7162 7.756Z" stroke-width="1"></path><path id="vector_15" fill="#2862e9" d="M135.04 247.028c-10.202 0.098 -10.308 -15.142 0.186 -15.288 9.9 -0.138 10.42 15.184 -0.186 15.288Z" stroke-width="1"></path><path id="vector_16" fill="#2862e9" d="M126.2618 205.8c-0.08 10.452 -15.404 10.372 -15.328 -0.036 0.074 -9.9798 15.404 -10.1218 15.328 0.036Z" stroke-width="1"></path><path id="vector_17" fill="#2862e9" d="M186.43 206.652c0.496 4.21 -3.866 7.78 -7.882 7.592 -10.008 -0.47 -9.988 -15.1118 0.582 -15.3598 3.414 -0.08 7.882 3.4298 7.3 7.7678Z" stroke-width="1"></path><path id="vector_18" fill="#2862e9" d="M276.674 163.7104c0.024 -4.452 1.502 -10.404 4.164 -10.396 2.962 0.008 4.416 6.88 4.294 10.138 -0.478 12.826 -7.752 13.524 -8.458 0.258Z" stroke-width="1"></path><path id="Subtract" fill="#2862e9" fill-rule="evenodd" d="M122.5708 137.7926c-2.286 0.2174 -3.6432 0.4326 -3.8868 0.639 -5.381 4.5596 -7.2342 8.983 -7.6306 9.9288l0 0.0002c-0.036 0.0858 -0.06 0.143 -0.0734 0.169 -2.987 5.7446 -3.6004 9.7978 -3.9862 12.348 -0.351 2.3196 -0.5138 3.3958 -2.1038 3.37 -9.064 -0.144 -9.646 0.004 -10.998 1.054 -8.47 6.574 -13.1 19.972 -15.966 29.65C69.6334 222.952 49.1732 244 33.231 260.4c-11.5876 11.92 -20.78846 21.386 -21.19506 29.28 -0.1986 3.842 1.43904 6.986 3.0905 10.158l0.00132 0.002c0.1276 0.244 0.25526 0.49 0.38218 0.736l0.01132 0.022c0.3941 0.762 0.73226 1.416 1.1853 1.978 2.7391 3.392 9.67724 3.398 58.56364 3.43 6.7876 0.006 14.3838 0.01 22.8898 0.026 13.4916 0.024 23.5006 0.094 30.9056 0.148 16.8386 0.12 20.213 0.144 20.4548 -0.714 0.0606 -0.214 -0.0756 -0.486 -0.2458 -0.824 -0.1016 -0.202 -0.2154 -0.428 -0.3066 -0.68 -2.2028 -6.104 -2.3814 -9.664 -2.4838 -11.704 -0.1048 -2.09 -0.1296 -2.584 -2.1702 -2.582H18.64794c-3.54518 0.026 -3.30456 -0.626 -2.44538 -2.956 0.18148 -0.492 0.39056 -1.06 0.59738 -1.71 1.23212 -3.88 7.36546 -10.09 15.50266 -18.33 11.9262 -12.078 28.1566 -28.514 39.5674 -48.354 5.1746 -8.998 7.5626 -16.804 9.7596 -23.9844 2.7646 -9.0362 5.2268 -17.084 12.5584 -25.276 0.0792 -0.0886 0.1544 -0.1738 0.2266 -0.2558 0.2792 -0.317 0.5148 -0.5846 0.785 -0.8108 1.4584 -1.2224 3.9216 -1.246 19.6846 -1.3968 8.991 -0.0862 22.309 -0.2136 42.2358 -0.6286 1.938 -0.04 3.874 0.052 5.808 0.218 2.0566 0.1754 5.8118 0.072 12.6336 -0.116 10.3008 -0.2836 27.5924 -0.76 56.5864 -0.76 -0.052 0.2278 -0.54 0.6684 -1.294 1.3488 -1.95 1.7586 -5.674 5.119 -8.23 10.5452 -2.522 5.355 -4.128 10.3206 -5.788 15.457 -3.64 11.2654 -7.546 23.3534 -21.986 42.1674 -11.4792 14.958 -21.1998 24.322 -28.5882 31.442 -13.8736 13.366 -19.5242 18.81 -13.1558 38.48 0.0096 0.03 0.0188 0.058 0.028 0.086 0.0794 0.248 0.1454 0.454 0.2622 0.626 0.581 0.852 2.4186 0.85 13.4028 0.838 2.3556 -0.002 5.132 -0.006 8.407 0l0.2216 0h0.0016c2.776 0.012 30.7088 0.136 53.0088 -0.216 -7.814 -8.946 -7.692 -24.134 1.846 -31.778 0.964 -0.772 11.288 -1.156 26.228 -1.284l-0.008 -0.368 -0.92 0.022h-0.002c-22.102 0.512 -23.7 0.548 -26.73 -2.164 -8.248 -7.384 -8.396 -20.482 1.372 -27.038 0.938 -0.628 10.98 -0.95 25.576 -1.064 -0.474 -21.058 -0.79 -40.414 -0.106 -44.7944 1.202 -7.6858 8.124 -8.164 16.858 -8.7672 3.99 -0.2756 8.358 -0.5772 12.732 -1.6048 25.62 -6.018 7.918 -50.646 -14.642 -51.64l-0.004 0.002c-11.434 -0.5036 -26.94 -0.6914 -43.694 -0.6588 -0.348 1.2308 -0.684 2.4536 -1.004 3.657 11.068 -0.0846 22.77 -0.1342 34.98 -0.1342 -3.912 4.4502 -6.92 8.0892 -9.376 11.0626 -5.086 6.1528 -7.816 9.4542 -11.32 11.1926 -4.056 2.0126 -9.154 1.9298 -20.152 1.751 -9.274 -0.1508 -22.7432 -0.3698 -43.324 0.5418v0.002c-0.621 0.0274 -1.2676 0.0224 -2.5308 0.0128 -4.466 -0.0342 -16.6382 -0.1272 -62.6212 0.9392 -1.42 0.032 -1.804 -0.226 -1.428 -1.744 1.4048 -5.6766 6.4752 -18.8608 11.3368 -21.1028 0.3392 -1.0984 0.6948 -2.2126 1.066 -3.3382Zm163.9472 31.613c-2.288 6.8072 -4.81 6.9046 -13.1 7.2244 -1.218 0.047 -2.562 0.099 -4.048 0.1776 -0.372 0 -0.732 0.0036 -1.08 0.0072 -3.702 0.0368 -6.178 0.0616 -7.98 -4.3452 -3.25 -7.946 -1.324 -20.512 5.788 -20.752 3.164 -0.1062 5.812 -0.3146 8.042 -0.49 7.804 -0.614 10.51 -0.8268 12.362 5.13 1.336 4.298 1.468 8.724 0.016 13.048Z" clip-rule="evenodd" stroke-width="1"></path></g><g><path id="vector_19" fill="#191919" d="M170.234 120.2536c-0.948 0.028 -2.18 0.25 -2.176 -1.234 0.004 -1.292 0.75 -1.884 2.156 -1.904 51.156 -0.752 51.128 -1.6058 51.148 0.7902 0.026 3.228 -6.784 1.0538 -51.128 2.3478Z" stroke-width="1"></path><path id="vector_20" fill="#191919" d="M267.828 102.472c-2.758 -5.96 -10.106 -10.33 -16.634 -9.96 -85.196 4.83 -101.57 1.158 -106.956 7.164 -16.412 18.294 -26.878 61.212 -24.65 61.266 -0.02 0.092 3.866 0.418 5.146 0.38 76.768 -2.338 94.196 -0.67 94.724 -3.228 0.044 -0.084 5.89 -34.478 16.344 -49.88 1.332 -1.962 1.05 -0.978 14.892 -1.868 15.71 -1.01 18.93 0.008 17.136 -3.87l-0.002 -0.004Zm-39.638 13.624c-5.406 13.6 -10.734 34.266 -10.52 40.26 -5.04 -0.574 -93.966 1.852 -94.696 1.986 -1.502 0.274 7.44 -37.356 21.712 -54.614 4.298 -5.198 3.068 -3.672 56.318 -5.968 30.214 -1.304 15.242 -0.816 41.802 -1.622 -7.046 5.372 -11.532 12.208 -14.614 19.96l-0.002 -0.002Zm11.162 -12.232c8.338 -10.078 16.962 -11.022 24.872 -1.05 -19.766 0.602 -20.69 0.404 -24.872 1.05Z" stroke-width="1"></path><path id="vector_21" fill="#191919" d="M194.986 108.131c-0.066 2.676 0.048 1.752 -44.884 2.402 -3.942 0.056 -4.188 -0.106 -4.266 -0.714 -0.17 -1.324 2.688 -1.68 3.256 -1.694 48.94 -1.362 45.934 -1.63 45.894 0.008v-0.002Z" stroke-width="1"></path><path id="vector_22" fill="#191919" d="M153.39 117.4844c11.046 -0.224 11.062 -0.654 10.908 0.932 -0.26 2.684 -0.932 1.988 -16.328 2.07 -5.428 0.03 -6.48 0.02 -6.444 -1.416 0.048 -1.986 5.372 -1.454 11.864 -1.586Z" stroke-width="1"></path><path id="vector_23" fill="#191919" d="M198.408 108.542c0.016 -2.336 0.424 -1.73 26.248 -2.236 1 -0.02 2.18 0.166 2.192 1.44 0.012 1.412 -1.158 1.444 -2.276 1.468 -24.682 0.534 -26.176 1.042 -26.164 -0.674v0.002Z" stroke-width="1"></path></g><g id="book 2"><path id="vector_24" fill="#191919" d="M383.172 301.126c0.08 -2.268 -0.17 -4.568 0 -6.824 0.146 -1.946 -0.594 -2.418 -2.406 -2.414 -60.268 0.128 -61.714 -0.808 -61.722 1.304 -0.004 1.166 1.162 1.034 1.994 1.062 58.042 1.916 60.252 -2.01 60.288 1.464 0.028 2.704 0.056 1.22 -45.906 2.466 -0.904 0.024 -2.618 -0.484 -2.578 0.9 0.036 1.28 1.708 0.79 2.648 0.786 45.828 -0.152 45.61 -1.246 45.804 1.114 0.18 2.184 3.608 1.478 -50.624 2.03 -1.962 0.02 -3.988 0.46 -5.876 -0.1 -15.83 -4.708 -9.814 -24.152 2.026 -23.878 16.534 0.382 33.076 0.312 49.614 0.444 1.404 0.012 3.212 -0.404 4.104 0.298 0.928 0.73 0.194 2.648 0.452 4.016 0.548 2.902 0.226 2.006 -23.282 1.804 -5.11 -0.044 -24.876 -0.384 -28.128 0.104 -1.8 0.27 -1.91 1.766 -0.118 2.082 0.876 0.154 17.81 0.518 19.81 0.544 33.83 0.466 34.038 1.32 33.908 -1.832 -0.064 -1.534 0.108 -3.084 -0.024 -4.608 -0.15 -1.736 0.258 -2.7 2.232 -2.398 1.768 0.27 2.152 -1.858 0.944 -2.712 -0.04 -0.028 -151.688 -3.37 -154.792 -0.88 -8.828 7.08 -8.618 21.37 -1.154 29.348 4.466 4.772 3.55 0.304 155.812 0.008 0.976 0 1.766 -0.154 1.78 -1.316 0.038 -3.342 -4.92 0.294 -4.81 -2.812h0.004Zm-148.814 3.026c-5.068 -0.092 -10.668 -16.326 -1.974 -25.222 1.17 -1.198 0.368 -0.9 16.594 -0.9 -4.198 8.81 -3.616 17.268 -0.202 26.15 -4.972 0 -9.698 0.058 -14.42 -0.028h0.002Zm24.598 -0.33c-7.328 -0.13 -7.474 0.424 -7.982 -0.9 -3.066 -7.976 -2.878 -15.812 0.864 -23.532 0.714 -1.474 1.012 -1.058 8.878 -1.058 -2.042 3.45 -3.228 6.8 -3.584 10.456 -1.184 12.164 5.444 15.096 1.824 15.032v0.002Zm8.402 -0.072c-4.326 0.044 -4.75 -0.104 -6.202 -4.206 -2.45 -6.914 -1.428 -13.51 2.058 -19.832 0.912 -1.654 1.336 -1.308 5.496 -1.308 -4.278 8.052 -3.64 15.874 -0.372 23.678 0.524 1.252 0.578 1.65 -0.98 1.666v0.002Zm3.746 -1.448c-3.296 -7.482 -3.692 -14.934 0.056 -22.382 0.436 -0.868 0.908 -1.558 2.188 -1.534 44.67 0.836 43.638 0.46 44.71 0.868 -7.126 6.99 -7.43 17.628 0.566 24.226 -47.548 0 -46.462 1.222 -47.52 -1.178Z" stroke-width="1"></path></g><g id="book 1"><path id="vector_25" fill="#191919" d="M383.11 265.928c0.08 -1.9 -0.168 -3.826 0 -5.714 0.146 -1.63 -0.594 -2.022 -2.406 -2.018 -60.268 0.118 -61.714 -0.674 -61.722 1.09 -0.004 0.976 1.162 0.864 1.994 0.888 58.042 1.624 60.252 -1.682 60.288 1.226 0.028 2.264 0.056 1.022 -45.906 2.062 -0.904 0.02 -2.618 -0.408 -2.578 0.754 0.036 1.07 1.708 0.66 2.648 0.658 45.828 -0.144 45.61 -1.046 45.804 0.932 0.18 1.828 3.608 1.248 -50.624 1.7 -1.962 0.016 -3.988 0.384 -5.876 -0.084 -15.83 -3.936 -9.814 -20.218 2.026 -19.988 30.966 0.6 52.814 0.026 53.718 0.622 0.928 0.61 0.194 2.216 0.452 3.362 0.548 2.43 0.226 1.678 -23.282 1.51 -5.11 -0.036 -24.876 -0.324 -28.128 0.084 -1.8 0.226 -1.91 1.478 -0.118 1.744 0.876 0.13 17.81 0.432 19.81 0.456 33.83 0.396 34.038 1.106 33.908 -1.534 -0.064 -1.284 0.108 -2.582 -0.024 -3.858 -0.15 -1.452 0.258 -2.258 2.232 -2.006 1.768 0.226 2.146 -1.55 0.944 -2.268 -0.04 -0.024 -151.688 -2.82 -154.792 -0.734 -8.828 5.932 -8.62 17.888 -1.154 24.57 4.464 3.994 3.55 0.254 155.812 0.004 0.976 0 1.766 -0.13 1.78 -1.102 0.038 -2.796 -4.92 0.246 -4.81 -2.352l0.004 -0.004Zm-148.814 2.53c-5.068 -0.078 -10.664 -13.658 -1.974 -21.11 1.172 -1.004 0.368 -0.754 16.594 -0.754 -4.198 7.378 -3.616 14.456 -0.202 21.89 -4.972 0 -9.698 0.048 -14.42 -0.024l0.002 -0.002Zm24.598 -0.274c-7.328 -0.108 -7.474 0.354 -7.982 -0.754 -3.064 -6.676 -2.876 -13.236 0.864 -19.698 0.714 -1.234 1.012 -0.884 8.878 -0.884 -2.042 2.89 -3.228 5.694 -3.584 8.754 -1.184 10.182 5.444 12.636 1.824 12.584v-0.002Zm8.402 -0.056c-4.326 0.04 -4.75 -0.092 -6.202 -3.524 -2.45 -5.786 -1.428 -11.312 2.058 -16.598 0.912 -1.384 1.336 -1.094 5.496 -1.094 -4.278 6.74 -3.642 13.288 -0.372 19.82 0.524 1.046 0.578 1.382 -0.98 1.396Zm3.742 -1.214c-3.296 -6.264 -3.69 -12.5 0.056 -18.738 0.436 -0.726 0.908 -1.304 2.188 -1.284 44.67 0.698 43.638 0.388 44.71 0.726 -7.126 5.852 -7.43 14.754 0.566 20.28 -47.548 0 -46.462 1.024 -47.52 -0.984Z" stroke-width="1"></path></g><g id="cup"><path id="vector_26" fill="#191919" d="M364.612 198.6742c4.762 2.1338 1.442 5.4538 2.902 7.3358 0.872 1.126 5.15 -1.852 11.514 1.066 10.44 4.786 5.472 18.88 -10.848 22.26 -7.66 1.586 -7.906 -1.502 -10.032 0.738 -24.334 25.64 -64.586 5.79 -61.91 -26.344 0.27 -3.244 1.04 -4.1656 4.576 -5.1216 11.578 -3.128 53.062 -4.7482 63.8 0.0638l-0.002 0.002Zm-0.344 6.1378c-15.416 4.596 -49.316 5.27 -65.842 0.564 0.146 18.564 15.618 34.028 35.066 32.838 18.794 -1.15 31.248 -16.962 30.776 -33.404v0.002Zm2.192 21.764c4.214 -0.13 12.27 -3.32 14.84 -9.206 2.73 -6.25 -4.46 -10.018 -11.902 -8.774 -4.1 0.686 -0.426 3.252 -6.324 14.592 -0.818 1.574 -4.472 4.624 3.386 3.386v0.002Z" stroke-width="1"></path></g><g id="steam"><path id="vector_27" fill="#2862e9" d="M343.682 103.2766c0.456 -0.484 1.252 -0.028 1.066 0.61 -2.892 9.854 -15.8 17.588 -12.494 37.006 2.094 12.296 9.824 24.818 4.754 39.304 -0.694 1.986 -4.126 9.332 -5.884 8.18 -1.102 -0.722 1.506 -4.718 3.042 -10.714 5.096 -19.894 -16.316 -39.116 -1.614 -60.62 6.296 -9.21 7.766 -10.196 11.13 -13.766Z" stroke-width="1"></path><path id="vector_28" fill="#2862e9" d="M349.384 139.7306c-3.844 12.288 6.59 21.038 2.284 37.064 -2.216 8.248 -8.418 10.94 -6.868 7.664 3.052 -6.452 4.662 -7.434 3.498 -19.278 -0.848 -8.632 -7.882 -18.832 0.262 -30.202 1.446 -2.018 2.724 -1.32 0.824 4.754v-0.002Z" stroke-width="1"></path><path id="vector_29" fill="#2862e9" d="M321.43 142.0624c3.042 3.9962 5.362 14.56 1.518 25.642 -1.406 4.052 -0.408 7.414 1.788 10.998 1.158 1.888 -0.304 3.3262 -2.126 1.8202 -2.95 -2.436 -5.026 -8.168 -3.414 -13.354 4.112 -13.23 1.206 -22.212 2.236 -25.1062h-0.002Z" stroke-width="1"></path></g></g></svg>