<svg xmlns="http://www.w3.org/2000/svg" width="162" height="120" viewBox="0 0 162 120" fill="none"><path d="M56.792 15.7266H99.89C102.765 15.7272 105.608 16.3982 108.237 17.6962C110.865 18.9942 113.221 20.8906 115.152 23.2635C117.084 25.6363 118.548 28.4331 119.451 31.4741C120.354 34.515 120.675 37.7328 120.395 40.9206L116.345 87.0124H40.3366L36.2811 40.9206C36.0018 37.7325 36.3243 34.5145 37.2279 31.4736C38.1316 28.4326 39.5963 25.6359 41.528 23.2632C43.4597 20.8904 45.8156 18.9942 48.4444 17.6962C51.0731 16.3982 53.9166 15.7273 56.792 15.7266Z" fill="white"></path><path d="M116.351 87.3335H40.3418C40.271 87.3339 40.2027 87.305 40.1501 87.2522C40.0975 87.1995 40.0644 87.1268 40.0574 87.0484L36.0018 40.9566C35.7176 37.7241 36.044 34.4611 36.9597 31.3776C37.8755 28.294 39.3605 25.4581 41.3192 23.0523C43.2779 20.6465 45.6669 18.724 48.3326 17.4085C50.9983 16.093 53.8816 15.4136 56.7972 15.4141H99.8952C102.811 15.4126 105.694 16.0913 108.36 17.4065C111.026 18.7217 113.415 20.6443 115.373 23.0505C117.332 25.4567 118.816 28.293 119.731 31.377C120.646 34.461 120.971 37.7242 120.685 40.9566L116.635 87.0484C116.627 87.1263 116.593 87.1982 116.541 87.2506C116.489 87.3031 116.421 87.3326 116.351 87.3335ZM40.5977 86.6999H116.095L120.122 40.8932C120.398 37.7491 120.08 34.5754 119.19 31.5762C118.299 28.577 116.854 25.8187 114.949 23.4786C113.044 21.1385 110.721 19.2684 108.128 17.9886C105.535 16.7089 102.731 16.0477 99.8952 16.0477H56.7972C53.9611 16.0468 51.1563 16.7072 48.5632 17.9867C45.9701 19.2661 43.6461 21.1362 41.7409 23.4765C39.8356 25.8168 38.3913 28.5755 37.5009 31.5752C36.6104 34.5748 36.2935 37.7489 36.5706 40.8932L40.5977 86.6999Z" fill="#D1D3D4"></path><path d="M132.848 50.6337C129.537 52.6614 111.233 54.5751 108.446 56.0134C107.949 56.279 107.47 56.5839 107.013 56.9259C102.565 60.1955 99.6183 68.1035 107.371 68.8196C109.743 69.0413 130.607 60.449 138.905 56.5711C140.737 55.722 146.806 52.2242 146.34 50.8682C145.873 49.5122 143.934 45.9891 143.183 46.2425C142.432 46.496 136.772 49.4805 136.772 49.4805C136.772 49.4805 138.348 44.2212 136.772 44.4113C135.197 44.6014 132.848 50.6337 132.848 50.6337Z" fill="white"></path><path d="M107.454 69.1504H107.346C103.837 68.8209 102.722 67.0847 102.398 65.6843C101.692 62.5984 104.104 58.6698 106.846 56.6548C107.316 56.3053 107.808 55.994 108.319 55.7233C109.604 55.0517 113.847 54.3356 118.762 53.4992C124.376 52.5487 130.707 51.4715 132.618 50.4006C133.005 49.3995 135.086 44.2289 136.725 44.0641C136.864 44.0414 137.006 44.0599 137.137 44.1177C137.268 44.1756 137.382 44.2707 137.47 44.3936C138.073 45.2364 137.578 47.5619 137.248 48.8292C138.732 48.0435 142.464 46.0855 143.095 45.8954C144.233 45.5532 146.263 49.6973 146.61 50.7365C147.293 52.7325 139.102 56.8322 139.017 56.8702C131.458 60.406 110.401 69.1504 107.454 69.1504ZM136.833 44.6978H136.781C135.752 44.8118 133.989 48.4997 133.118 50.7618C133.092 50.8297 133.046 50.8856 132.988 50.9202C131.116 52.0672 124.882 53.1254 118.847 54.1455C114.183 54.9376 109.746 55.6853 108.569 56.3126C108.084 56.5697 107.616 56.8662 107.17 57.1997C104.286 59.3225 102.398 63.0547 102.966 65.5196C103.359 67.2368 104.889 68.2633 107.397 68.4977H107.488C110.145 68.4977 130.445 60.1716 138.772 56.2746C141.65 54.9313 146.326 51.801 146.042 50.9709C145.473 49.3234 143.715 46.5354 143.243 46.5354C142.64 46.7128 138.454 48.9179 136.89 49.748C136.837 49.776 136.778 49.7862 136.721 49.7772C136.663 49.7681 136.609 49.7404 136.565 49.6973C136.523 49.6545 136.492 49.5986 136.478 49.5365C136.464 49.4745 136.467 49.4091 136.486 49.3488C136.946 47.7963 137.419 45.3568 137.009 44.7865C136.989 44.7562 136.962 44.7322 136.931 44.7167C136.9 44.7011 136.866 44.6946 136.833 44.6978Z" fill="#231F20"></path><path d="M91.3281 18.8931C96.0348 14.2701 100.048 8.83877 103.216 2.80469L107.966 6.08067C107.966 6.08067 103.609 18.9945 91.3281 18.8931Z" fill="white"></path><path d="M91.4788 19.2235H91.3195C91.2591 19.224 91.2 19.2035 91.1506 19.1648C91.1012 19.126 91.0638 19.0711 91.0438 19.0076C91.0237 18.9441 91.022 18.8752 91.0388 18.8105C91.0556 18.7459 91.0901 18.6887 91.1375 18.6469C95.8123 14.0438 99.8018 8.6434 102.957 2.64722C102.976 2.60903 103.002 2.57575 103.034 2.54955C103.065 2.52334 103.101 2.5048 103.139 2.49514C103.177 2.48386 103.217 2.48141 103.256 2.48795C103.296 2.49449 103.333 2.50987 103.367 2.53316L108.116 5.80914C108.174 5.84935 108.217 5.91002 108.24 5.98132C108.263 6.05263 108.263 6.13039 108.241 6.202C108.196 6.32873 103.702 19.2235 91.4788 19.2235ZM103.315 3.2682C100.277 8.94998 96.5029 14.102 92.1158 18.5582C102.548 18.159 106.905 7.95088 107.599 6.21468L103.315 3.2682Z" fill="#231F20"></path><path d="M91.3276 18.8925C96.6616 19.5062 102.012 17.9091 106.355 14.4062L107.351 21.7376C107.351 21.7376 100.457 25.7486 90.207 21.3004L91.3276 18.8925Z" fill="white"></path><path d="M99.6883 23.7087C96.3982 23.6804 93.1417 22.9668 90.087 21.605C90.0487 21.5875 90.0139 21.5617 89.9846 21.529C89.9553 21.4964 89.9321 21.4576 89.9164 21.4149C89.8994 21.3731 89.8906 21.3277 89.8906 21.2818C89.8906 21.236 89.8994 21.1906 89.9164 21.1488L91.054 18.7409C91.0814 18.679 91.1263 18.6288 91.1817 18.5979C91.2372 18.567 91.3002 18.5571 91.3611 18.5698C96.6107 19.1411 101.867 17.5644 106.15 14.1343C106.191 14.1005 106.24 14.0792 106.29 14.0726C106.341 14.0659 106.393 14.0741 106.44 14.0962C106.486 14.1181 106.526 14.153 106.556 14.1975C106.586 14.242 106.605 14.2945 106.611 14.3497L107.595 21.681C107.603 21.7486 107.592 21.8173 107.565 21.8783C107.537 21.9392 107.494 21.9897 107.441 22.0232C107.43 22.0549 104.506 23.7087 99.6883 23.7087ZM90.5875 21.1234C99.5177 24.8747 105.848 22.1183 106.997 21.548L106.121 14.9707C101.829 18.2384 96.654 19.7498 91.4749 19.2478L90.5875 21.1234Z" fill="#231F20"></path><path d="M112.29 54.6659C112.29 54.6659 110.583 49.9895 102.455 39.4582C98.553 34.389 88.0814 32.4881 85.2715 32.3233C85.8858 32.393 87.6434 31.3158 75.6758 32.3233C69.5214 32.8429 65.5853 33.1851 61.9621 37.4812C55.1365 45.5856 40.3477 62.8273 40.3477 62.8273L55.9612 67.7888C55.9612 67.7888 58.4924 65.8118 59.4195 64.4431L57.1785 82.9964L99.3436 85.7338L98.991 64.4621L103.314 68.3908L112.29 54.6659Z" fill="#1F72F2"></path><path d="M84.5469 32.306C84.5469 32.306 84.8085 32.306 85.2692 32.306C85.019 32.2679 84.5469 32.306 84.5469 32.306Z" fill="#1F72F2"></path><path d="M73.5352 34.3074L73.9163 81.882H85.7302V31.7031L73.5352 34.3074Z" fill="white"></path><path d="M85.7319 82.1689H73.9123C73.8439 82.1689 73.7782 82.1391 73.7292 82.0858C73.6803 82.0325 73.6521 81.9599 73.6506 81.8837L73.2695 34.3028C73.2697 34.2355 73.2907 34.1704 73.3291 34.1184C73.3674 34.0664 73.4208 34.0309 73.48 34.0177L85.6751 31.4134C85.7126 31.4038 85.7516 31.4039 85.7891 31.4135C85.8267 31.423 85.8618 31.4419 85.8918 31.4687C85.9219 31.4955 85.9462 31.5295 85.9628 31.5682C85.9794 31.6069 85.988 31.6493 85.9879 31.6922V81.8774C85.9879 81.9536 85.9611 82.0268 85.9133 82.0813C85.8654 82.1358 85.8003 82.1672 85.7319 82.1689ZM74.1739 81.5923H85.4703V32.047L73.7871 34.5373L74.1739 81.5923Z" fill="#231F20"></path><path d="M71.2309 64.7274C71.1819 64.7276 71.134 64.7123 71.0926 64.6831C71.0513 64.6539 71.0183 64.6121 70.9977 64.5626L65.8785 52.6056C65.8561 52.5611 65.8443 52.5109 65.8443 52.4599C65.8443 52.4088 65.8561 52.3587 65.8785 52.3142L69.2003 46.8711L65.941 44.1971C65.8877 44.1527 65.8516 44.0874 65.84 44.0144C65.8283 43.9415 65.8421 43.8663 65.8785 43.8042L70.9977 35.3766C71.0165 35.3452 71.0408 35.3183 71.0691 35.2974C71.0975 35.2765 71.1292 35.2621 71.1626 35.255C71.1959 35.248 71.2302 35.2483 71.2634 35.2562C71.2966 35.264 71.3281 35.2791 71.356 35.3006C71.3844 35.3222 71.4087 35.3499 71.4275 35.3819C71.4464 35.414 71.4593 35.4499 71.4656 35.4876C71.472 35.5253 71.4716 35.564 71.4645 35.6015C71.4574 35.639 71.4437 35.6745 71.4243 35.7061L66.4245 43.8993L69.6781 46.5669C69.7329 46.6114 69.7701 46.678 69.7818 46.7524C69.7935 46.8269 69.7787 46.9035 69.7406 46.9661L66.3961 52.5043L71.4755 64.3155C71.5047 64.3853 71.5079 64.4651 71.4844 64.5375C71.461 64.6099 71.4128 64.6691 71.3503 64.702C71.3129 64.7211 71.2719 64.7298 71.2309 64.7274Z" fill="#231F20"></path><path d="M87.6267 64.7333C87.5892 64.7428 87.5503 64.7428 87.5129 64.7333C87.4505 64.7003 87.4022 64.6412 87.3788 64.5688C87.3554 64.4964 87.3586 64.4165 87.3878 64.3468L92.4672 52.5355L89.0942 46.9974C89.0561 46.9348 89.0413 46.8582 89.053 46.7837C89.0647 46.7092 89.1019 46.6427 89.1567 46.5982L92.4103 43.9305L87.4105 35.7374C87.3911 35.7058 87.3774 35.6702 87.3703 35.6327C87.3632 35.5952 87.3628 35.5565 87.3692 35.5189C87.3755 35.4812 87.3884 35.4453 87.4073 35.4132C87.4261 35.3811 87.4504 35.3535 87.4788 35.3319C87.5067 35.3103 87.5382 35.2952 87.5714 35.2874C87.6046 35.2796 87.6389 35.2792 87.6722 35.2863C87.7056 35.2934 87.7373 35.3078 87.7656 35.3286C87.794 35.3495 87.8183 35.3765 87.8371 35.4079L92.9848 43.8355C93.0211 43.8975 93.0349 43.9727 93.0233 44.0457C93.0117 44.1187 92.9755 44.184 92.9222 44.2283L89.663 46.8833L92.9848 52.3264C93.0072 52.3709 93.019 52.4211 93.019 52.4721C93.019 52.5232 93.0072 52.5734 92.9848 52.6179L87.8656 64.5749C87.8437 64.6241 87.8095 64.6653 87.7671 64.6934C87.7247 64.7215 87.676 64.7353 87.6267 64.7333Z" fill="#231F20"></path><path d="M90.283 29.0784C90.2091 29.0784 91.5742 20.9486 91.6937 20.2643C92.4957 15.6703 93.1157 11.5009 92.7403 7.78768C91.7562 8.31995 91.5173 9.94844 90.6983 10.7468C90.3951 7.28724 90.2622 3.81173 90.3001 0.335938C84.9534 2.446 79.3223 4.7715 75.8014 9.73299L75.3805 2.3256C72.9119 6.76117 70.4035 11.2981 69.0782 16.3356C67.7529 21.3732 68.6686 26.0685 69.7664 31.0364L90.283 29.0784Z" fill="white"></path><path d="M69.7687 31.3395C69.7027 31.3387 69.6389 31.3133 69.5873 31.2673C69.5358 31.2214 69.4995 31.1576 69.4843 31.0861C68.3467 25.9028 67.5219 21.2074 68.8245 16.2459C70.1839 11.0563 72.8061 6.32928 75.1609 2.15351C75.1937 2.09522 75.2421 2.04982 75.2992 2.02368C75.3563 1.99754 75.4193 1.99198 75.4795 2.00777C75.5403 2.02409 75.5948 2.06192 75.6348 2.1156C75.6748 2.16928 75.6981 2.23593 75.7013 2.30559L76.0653 8.88923C79.7796 4.14952 85.5472 1.86837 90.2171 0.0181058C90.2616 0.000959151 90.3091 -0.00410724 90.3557 0.00332712C90.4023 0.0107615 90.4466 0.0304816 90.485 0.060849C90.5234 0.0912164 90.5547 0.131354 90.5764 0.177923C90.598 0.224492 90.6094 0.276148 90.6095 0.328596C90.5764 3.5349 90.6884 6.74102 90.9451 9.93476C91.0703 9.71298 91.1897 9.47219 91.3092 9.22507C91.5761 8.50577 92.0373 7.89679 92.6288 7.48253C92.6712 7.45908 92.7179 7.44687 92.7653 7.44687C92.8127 7.44687 92.8594 7.45908 92.9018 7.48253C92.942 7.50969 92.9761 7.54658 93.0017 7.59046C93.0273 7.63434 93.0437 7.68408 93.0497 7.73598C93.4422 11.5379 92.7767 15.8721 91.9974 20.314C91.8495 21.1757 90.638 28.4437 90.5925 29.033C90.6039 29.0786 90.6039 29.1268 90.5925 29.1724C90.5753 29.2324 90.5421 29.2851 90.4974 29.3235C90.4527 29.362 90.3986 29.3844 90.3422 29.3879L69.8085 31.3395H69.7687ZM75.1723 3.36379C72.9881 7.28609 70.6219 11.6836 69.3876 16.4297C68.1533 21.1757 68.9155 25.6747 69.9962 30.6615L90.0692 28.7606C90.1374 27.9558 90.4389 25.8458 91.4286 20.1872C92.1567 16.0178 92.788 11.9498 92.5207 8.36964C92.2456 8.72003 92.0142 9.11005 91.8325 9.52922C91.6061 10.0691 91.2961 10.5603 90.9167 10.9803C90.8769 11.0215 90.8272 11.0488 90.7736 11.059C90.72 11.0691 90.665 11.0616 90.6152 11.0373C90.5641 11.0161 90.5194 10.9793 90.4862 10.9312C90.453 10.883 90.4327 10.8253 90.4275 10.7648C90.1423 7.44786 90.0075 4.11695 90.0237 0.784824C85.2913 2.68578 79.535 5.03029 76.0539 9.92208C76.0162 9.9729 75.9659 10.0102 75.9092 10.0294C75.8526 10.0485 75.7921 10.0487 75.7354 10.0298C75.6798 10.0082 75.6309 9.96925 75.5946 9.91757C75.5583 9.86589 75.5361 9.80367 75.5306 9.73832L75.1723 3.36379Z" fill="#231F20"></path><path d="M87.2656 28.7005C87.8344 24.8099 93.6248 23.8531 93.3404 28.4407C93.2952 30.0349 92.7475 31.5604 91.7933 32.7495C91.308 33.329 90.679 33.7348 89.9863 33.9153C89.2936 34.0958 88.5684 34.043 87.9027 33.7634" fill="white"></path><path d="M89.1146 34.3668C88.6565 34.3724 88.2027 34.2687 87.7836 34.0626C87.7485 34.0451 87.7168 34.0201 87.6904 33.989C87.664 33.9579 87.6433 33.9213 87.6296 33.8813C87.6158 33.8413 87.6093 33.7986 87.6104 33.7558C87.6114 33.713 87.62 33.6708 87.6357 33.6317C87.6514 33.5926 87.6739 33.5573 87.7018 33.5279C87.7297 33.4984 87.7626 33.4754 87.7985 33.4601C87.8344 33.4448 87.8727 33.4375 87.9111 33.4387C87.9495 33.4399 87.9874 33.4495 88.0225 33.467C88.633 33.7222 89.2979 33.7687 89.9322 33.6005C90.5666 33.4323 91.1414 33.0571 91.5832 32.5228C92.4882 31.3879 93.0057 29.9342 93.045 28.4168C93.1417 26.8643 92.4762 25.8822 91.259 25.7237C90.4147 25.6335 89.5702 25.8932 88.887 26.4532C88.2038 27.0132 87.73 27.8341 87.5561 28.7589C87.5499 28.801 87.5363 28.8414 87.516 28.8776C87.4957 28.9138 87.4693 28.9451 87.4381 28.9699C87.4069 28.9946 87.3716 29.0122 87.3342 29.0217C87.2969 29.0312 87.2582 29.0323 87.2205 29.0251C87.1438 29.011 87.0752 28.964 87.0294 28.894C86.9836 28.824 86.9644 28.7368 86.9759 28.6512C87.1693 27.5571 87.7229 26.5832 88.5281 25.9207C89.3332 25.2582 90.3317 24.9552 91.3272 25.0711C92.5331 25.2295 93.7731 26.199 93.6024 28.4611C93.5519 30.1329 92.9762 31.7318 91.9757 32.9791C91.222 33.8413 90.1946 34.3395 89.1146 34.3668Z" fill="#231F20"></path><path d="M72.8115 28.7005C72.2427 24.8099 66.4523 23.8531 66.7367 28.4407C66.7843 30.0343 67.3317 31.559 68.2838 32.7495C68.7691 33.329 69.3981 33.7348 70.0908 33.9153C70.7835 34.0958 71.5087 34.043 72.1744 33.7634" fill="white"></path><path d="M70.9479 34.3658C69.856 34.3485 68.8148 33.8494 68.0527 32.9781C67.0674 31.7375 66.5003 30.1536 66.4487 28.4981C66.3065 26.2297 67.5465 25.2602 68.7239 25.1018C69.7192 24.9873 70.717 25.291 71.5218 25.9532C72.3267 26.6154 72.8807 27.5885 73.0752 28.6819C73.0825 28.7245 73.0819 28.7683 73.0734 28.8106C73.0648 28.8529 73.0486 28.8929 73.0257 28.9279C73.0028 28.963 72.9736 28.9924 72.9401 29.0144C72.9065 29.0364 72.8693 29.0505 72.8306 29.0558C72.7929 29.063 72.7542 29.0619 72.7169 29.0524C72.6795 29.0429 72.6443 29.0253 72.6131 29.0006C72.5819 28.9758 72.5554 28.9444 72.5351 28.9082C72.5148 28.872 72.5012 28.8317 72.495 28.7896C72.32 27.8655 71.8459 27.0454 71.163 26.4856C70.4801 25.9259 69.6362 25.6656 68.7921 25.7544C67.5578 25.9128 66.9094 26.895 67.0061 28.4474C67.0454 29.9649 67.5629 31.4186 68.4679 32.5535C68.9102 33.087 69.485 33.4617 70.1191 33.6299C70.7533 33.798 71.418 33.752 72.0286 33.4977C72.0995 33.4624 72.1801 33.4599 72.2526 33.4908C72.3252 33.5217 72.3837 33.5834 72.4154 33.6624C72.4471 33.7414 72.4493 33.8312 72.4216 33.912C72.3938 33.9928 72.3384 34.058 72.2675 34.0933C71.8499 34.2871 71.4001 34.38 70.9479 34.3658Z" fill="#231F20"></path><path d="M73.6484 46.6375L79.4673 51.9665L85.7127 48.0949L86.1279 31.9685L73.6484 31.5312V46.6375Z" fill="white"></path><path d="M79.4799 52.2912C79.413 52.291 79.3484 52.264 79.2979 52.2152L73.462 46.8735C73.4284 46.843 73.4017 46.8042 73.3839 46.7602C73.3662 46.7163 73.3578 46.6682 73.3596 46.62V31.5265C73.3595 31.4389 73.3901 31.3548 73.4449 31.292C73.5039 31.2323 73.5814 31.2005 73.6611 31.2033L86.1406 31.6342C86.218 31.6375 86.2912 31.6745 86.3444 31.7373C86.3976 31.8001 86.4265 31.8837 86.425 31.97L86.004 48.0965C86.0042 48.1534 85.9905 48.2094 85.9645 48.2585C85.9385 48.3076 85.901 48.3479 85.8562 48.3753L79.5994 52.2469C79.5637 52.273 79.5225 52.2883 79.4799 52.2912ZM73.9568 46.4806L79.514 51.5499L85.4352 47.8747L85.8391 32.2552L73.9568 31.8496V46.4806Z" fill="#231F20"></path><path d="M74.0398 38.0037C74.1536 38.7388 77.7029 43.6432 85.8936 44.2009V38.0037C83.9369 38.3142 81.3432 39.3788 79.233 39.1633C77.4602 39.0911 75.7083 38.7128 74.0398 38.0418C73.7895 37.896 74.3015 38.1938 74.0398 38.0037Z" fill="#231F20"></path><path d="M85.8909 44.5474C78.1381 44.0215 74.3158 39.5416 73.8266 38.2616C73.7643 38.2252 73.7174 38.1628 73.6961 38.088C73.6748 38.0133 73.6808 37.9322 73.7129 37.8624C73.7698 37.7357 73.8949 37.6089 74.1679 37.7483C75.8145 38.4012 77.5407 38.7708 79.2871 38.8446C80.7788 38.885 82.2673 38.6713 83.701 38.2109C84.4746 38.0081 85.2083 37.8181 85.8795 37.7103C85.9201 37.7035 85.9616 37.7068 86.0009 37.72C86.0402 37.7331 86.0765 37.7558 86.107 37.7864C86.1365 37.8162 86.1602 37.8523 86.1768 37.8926C86.1935 37.9329 86.2026 37.9765 86.2037 38.0208V44.256C86.2039 44.299 86.1959 44.3416 86.1802 44.3809C86.1645 44.4202 86.1415 44.4554 86.1127 44.4841C86.0821 44.5119 86.0464 44.532 86.0081 44.5429C85.9698 44.5539 85.9298 44.5554 85.8909 44.5474ZM74.7026 38.6418C75.7776 40.0992 79.1335 43.3562 85.6065 43.8884V38.363C85.0377 38.4707 84.4405 38.6291 83.7977 38.7939C82.3073 39.2771 80.7593 39.5036 79.2075 39.4655C77.6834 39.375 76.1727 39.0987 74.7026 38.6418Z" fill="#231F20"></path><path d="M79.3072 40.5964H80.24C81.2922 40.5964 82.3341 40.3654 83.3062 39.9166C84.2782 39.4679 85.1613 38.8101 85.9051 37.981C86.6488 37.1518 87.2386 36.1676 87.6408 35.0844C88.0429 34.0012 88.2495 32.8404 88.2488 31.6682V21.1749C88.2488 18.9825 85.4958 17.6392 83.8917 17.373C82.1506 17.1653 80.3911 17.2593 78.6758 17.6518C74.444 18.3805 71.253 20.1041 71.2814 25.4077C71.2814 27.5051 71.2814 29.6088 71.2814 31.7062C71.289 34.0702 72.1384 36.3343 73.6432 38.0012C75.148 39.668 77.1851 40.6014 79.3072 40.5964Z" fill="white"></path><path d="M80.2416 40.9275H79.3088C77.1062 40.9242 74.9948 39.9475 73.4379 38.2119C71.881 36.4763 71.0058 34.1236 71.0043 31.6699C71.0043 30.9729 71.0043 30.2695 71.0043 29.5725C71.0043 28.17 71.0043 26.7696 71.0043 25.3714C70.9588 19.3834 75.0541 17.907 78.6319 17.2923C80.3785 16.8885 82.1715 16.7945 83.9445 17.0135C85.85 17.3684 88.5404 18.9145 88.5404 21.1703V31.6699C88.5404 34.123 87.6664 36.4758 86.1104 38.2116C84.5544 39.9473 82.4436 40.9242 80.2416 40.9275ZM82.3234 17.5395C81.1195 17.5728 79.9197 17.7084 78.7343 17.945C73.7004 18.8131 71.5674 21.0309 71.6015 25.3714C71.6015 26.7781 71.6015 28.1806 71.6015 29.5788C71.6015 30.2822 71.6015 30.9792 71.6015 31.6762C71.6045 33.9557 72.4187 36.1409 73.8656 37.7527C75.3124 39.3645 77.274 40.2715 79.3201 40.2749H80.253C82.2976 40.2682 84.2565 39.3586 85.7002 37.7456C87.1438 36.1326 87.9545 33.9477 87.9545 31.6699V21.1766C87.9545 19.2757 85.503 17.9703 83.8478 17.6662C83.3433 17.5805 82.8337 17.5382 82.3234 17.5395Z" fill="#231F20"></path><path d="M82.5076 29.1882C82.774 29.1686 82.9573 28.6007 82.9169 27.9197C82.8765 27.2388 82.6278 26.7027 82.3613 26.7223C82.0949 26.7419 81.9116 27.3098 81.952 27.9907C81.9924 28.6717 82.2411 29.2078 82.5076 29.1882Z" fill="#231F20"></path><path d="M76.006 28.8164C76.273 28.7955 76.4547 28.2254 76.4118 27.543C76.3689 26.8606 76.1177 26.3243 75.8507 26.3451C75.5837 26.3659 75.4019 26.936 75.4448 27.6184C75.4877 28.3008 75.7389 28.8372 76.006 28.8164Z" fill="#231F20"></path><path d="M77.8086 37.5038C77.5356 37.5038 77.3763 37.5038 77.3479 37.5038C77.2868 37.4782 77.2351 37.4309 77.2007 37.3692C77.1664 37.3075 77.1512 37.2349 77.1577 37.1626C77.1642 37.0904 77.1919 37.0225 77.2366 36.9696C77.2813 36.9167 77.3404 36.8818 77.4047 36.8701C79.9621 36.9269 82.4444 35.9063 84.3555 34.0124C84.4158 33.958 84.4926 33.9315 84.5699 33.9386C84.6473 33.9457 84.7192 33.9857 84.7707 34.0504C84.8209 34.1169 84.8455 34.2029 84.8392 34.2895C84.8328 34.3762 84.7959 34.4565 84.7366 34.513C82.813 36.3832 80.3611 37.4417 77.8086 37.5038Z" fill="#231F20"></path><path d="M85.4227 35.5368C85.3817 35.5486 85.3386 35.5486 85.2976 35.5368C83.8415 34.789 84.0008 32.9578 84.2908 32.096C84.3035 32.0554 84.3233 32.0181 84.3493 31.9863C84.3753 31.9545 84.4068 31.929 84.4419 31.9112C84.477 31.8934 84.515 31.8838 84.5536 31.8829C84.5922 31.882 84.6305 31.8898 84.6662 31.9059C84.739 31.9359 84.7982 31.9966 84.8312 32.0748C84.8642 32.1531 84.8683 32.2426 84.8426 32.3241C84.8141 32.4002 84.2169 34.2631 85.5479 34.9475C85.6172 34.9846 85.6709 35.0503 85.6974 35.1308C85.724 35.2112 85.7213 35.3 85.6901 35.3783C85.6625 35.4291 85.6231 35.4707 85.576 35.4985C85.5289 35.5264 85.476 35.5396 85.4227 35.5368Z" fill="#231F20"></path><path d="M78.5514 35.0856C78.4557 35.0854 78.3613 35.0607 78.2755 35.0134C78.1897 34.9662 78.1148 34.8977 78.0565 34.8131C77.3057 33.7803 78.0964 29.2433 78.267 28.3435C78.2935 28.2727 78.3413 28.2144 78.4022 28.1786C78.4632 28.1428 78.5334 28.1319 78.6009 28.1477C78.6683 28.1634 78.7286 28.2049 78.7715 28.265C78.8144 28.325 78.8372 28.3999 78.8358 28.4766C78.4433 30.5867 78.085 33.8183 78.5059 34.3949C79.5582 34.3949 80.3545 33.0072 80.3602 32.9945C80.3805 32.9581 80.4071 32.9264 80.4385 32.9015C80.4699 32.8766 80.5054 32.8589 80.543 32.8495C80.5806 32.84 80.6195 32.839 80.6575 32.8465C80.6954 32.854 80.7316 32.8699 80.764 32.8932C80.83 32.939 80.8771 33.0118 80.8952 33.096C80.9133 33.1802 80.9009 33.269 80.8607 33.3431C80.8266 33.4128 79.8824 35.0856 78.5514 35.0856Z" fill="#231F20"></path><path d="M80.618 27.8064C80.5538 27.8053 80.4915 27.7813 80.4404 27.738C80.3892 27.6947 80.3518 27.6343 80.3336 27.5657C80.3143 27.4825 80.3249 27.3943 80.3632 27.3197C80.4014 27.2451 80.4643 27.1901 80.5384 27.1665C80.9707 27.027 82.4553 25.671 83.2516 24.9423C83.6327 24.5938 83.9341 24.3087 84.082 24.201C84.1461 24.1505 84.2256 24.1306 84.3029 24.1454C84.3803 24.1603 84.4492 24.2087 84.4944 24.2802C84.5397 24.3516 84.5576 24.4401 84.5443 24.5263C84.5309 24.6124 84.4874 24.6891 84.4233 24.7396C84.2925 24.8409 83.9796 25.1198 83.6213 25.4493C82.3244 26.6342 81.2096 27.629 80.6977 27.7938L80.618 27.8064Z" fill="#231F20"></path><path d="M77.0329 27.8092C76.9766 27.8089 76.9215 27.7913 76.8736 27.7585C75.5938 26.827 74.149 25.8576 73.8931 25.7055C73.8274 25.6908 73.7683 25.6512 73.7258 25.5934C73.6834 25.5357 73.6602 25.4633 73.6602 25.3887C73.6602 25.314 73.6834 25.2416 73.7258 25.1839C73.7683 25.1261 73.8274 25.0865 73.8931 25.0718C74.0353 25.0338 74.1604 25.0085 77.2092 27.2136C77.2732 27.2614 77.318 27.3352 77.3339 27.4192C77.3499 27.5032 77.3357 27.5909 77.2945 27.6635C77.2664 27.7114 77.2274 27.7502 77.1814 27.7758C77.1354 27.8014 77.0842 27.8129 77.0329 27.8092Z" fill="#231F20"></path><path d="M161.121 110.884H0.28125L18.17 73.5938H143.232L161.121 110.884Z" fill="white"></path><path d="M161.125 111.197H0.284952C0.236724 111.197 0.189359 111.183 0.147485 111.157C0.105611 111.13 0.0706613 111.092 0.0460552 111.045C0.0210225 110.998 0.0078125 110.945 0.0078125 110.89C0.0078125 110.836 0.0210225 110.782 0.0460552 110.735L17.9348 73.4445C17.9586 73.3933 17.9945 73.3504 18.0386 73.3202C18.0827 73.2901 18.1334 73.2739 18.1851 73.2734H143.236C143.288 73.2739 143.338 73.2901 143.382 73.3202C143.426 73.3504 143.462 73.3933 143.486 73.4445L161.386 110.735C161.409 110.783 161.42 110.837 161.418 110.891C161.416 110.945 161.402 110.998 161.377 111.044C161.352 111.091 161.317 111.129 161.275 111.156C161.232 111.183 161.185 111.197 161.136 111.197H161.125ZM0.762745 110.564H160.647L143.065 73.9071H18.3444L0.762745 110.564Z" fill="#231F20"></path><path d="M122.707 78.8045L99.3859 72.2969C99.3859 72.2969 87.697 92.8399 81.8555 97.0093L109.772 105.975C109.772 105.975 121.302 85.4578 122.707 78.8045Z" fill="white"></path><path d="M109.744 106.321H109.664L81.7534 97.342C81.7013 97.3237 81.6549 97.2893 81.6196 97.2429C81.5843 97.1965 81.5614 97.1399 81.5537 97.0796C81.546 97.0194 81.5537 96.9579 81.5759 96.9023C81.5982 96.8467 81.634 96.7993 81.6794 96.7654C87.4016 92.6594 99.0051 72.3381 99.1245 72.129C99.1557 72.0726 99.2026 72.0291 99.2581 72.0051C99.3135 71.981 99.3745 71.9778 99.4317 71.996L122.804 78.5036C122.84 78.5132 122.874 78.5307 122.904 78.5551C122.933 78.5796 122.959 78.6104 122.978 78.6458C122.997 78.6812 123.009 78.7205 123.015 78.7613C123.02 78.8022 123.018 78.8438 123.008 78.8838C121.586 85.5118 110.461 105.332 109.989 106.169C109.964 106.216 109.928 106.255 109.885 106.282C109.842 106.308 109.793 106.322 109.744 106.321ZM82.4815 96.9365L109.625 105.63C110.808 103.514 120.807 85.4991 122.388 79.0168L99.4943 72.636C98.2486 74.8221 88.1865 92.2285 82.4815 96.9365Z" fill="#231F20"></path><path d="M112.285 100.488H112.188C104.828 97.5673 93.6228 93.1317 92.9231 93.043C92.8477 93.0312 92.7796 92.9866 92.7337 92.9188C92.6878 92.8511 92.668 92.7658 92.6786 92.6818C92.6891 92.5978 92.7292 92.5219 92.79 92.4708C92.8508 92.4197 92.9273 92.3976 93.0028 92.4093C93.9811 92.5551 110.499 99.1197 112.382 99.8674C112.457 99.8817 112.524 99.9288 112.569 99.9983C112.613 100.068 112.631 100.154 112.618 100.238C112.605 100.322 112.563 100.397 112.5 100.446C112.438 100.496 112.361 100.515 112.285 100.501V100.488Z" fill="#D1D3D4"></path><path d="M114.561 96.3064C114.529 96.3124 114.497 96.3124 114.465 96.3064C107.104 93.3789 95.8991 88.9814 95.1994 88.88C95.1255 88.8674 95.0587 88.8235 95.0131 88.7574C94.9675 88.6912 94.9467 88.608 94.9549 88.5252C94.9661 88.4415 95.0064 88.3661 95.067 88.3152C95.1276 88.2642 95.2038 88.2418 95.2791 88.2527C96.2574 88.3984 112.775 94.9631 114.658 95.7108C114.734 95.7251 114.801 95.7721 114.845 95.8417C114.889 95.9112 114.907 95.9974 114.894 96.0815C114.881 96.1655 114.839 96.2404 114.777 96.2897C114.714 96.339 114.637 96.3587 114.561 96.3444V96.3064Z" fill="#D1D3D4"></path><path d="M117.618 91.0493C117.586 91.0554 117.554 91.0554 117.522 91.0493C110.162 88.1028 98.9562 83.7053 98.2509 83.6293C98.1762 83.6182 98.1086 83.5747 98.0627 83.5082C98.0169 83.4416 97.9966 83.3576 98.0063 83.2744C98.0176 83.192 98.057 83.1176 98.1164 83.0668C98.1757 83.0161 98.2504 82.9928 98.3248 83.0019C99.3088 83.1477 115.827 89.7123 117.71 90.46C117.785 90.4743 117.852 90.5214 117.896 90.5909C117.941 90.6604 117.958 90.7467 117.946 90.8307C117.933 90.9147 117.89 90.9897 117.828 91.039C117.766 91.0883 117.688 91.108 117.613 91.0937L117.618 91.0493Z" fill="#D1D3D4"></path><path d="M119.682 85.4235H119.585C112.225 82.4961 101.02 78.1049 100.326 77.9971C100.289 77.9925 100.253 77.9795 100.22 77.959C100.187 77.9385 100.159 77.9108 100.136 77.8777C100.113 77.8445 100.096 77.8066 100.087 77.7662C100.078 77.7257 100.076 77.6836 100.081 77.6423C100.091 77.5592 100.13 77.4838 100.19 77.4327C100.25 77.3816 100.325 77.359 100.4 77.3698C101.378 77.5156 117.896 84.0802 119.779 84.8279C119.814 84.8413 119.847 84.8626 119.875 84.8905C119.903 84.9184 119.926 84.9523 119.942 84.9902C119.958 85.028 119.967 85.0691 119.968 85.1109C119.969 85.1527 119.963 85.1944 119.949 85.2334C119.928 85.2922 119.891 85.3421 119.843 85.3762C119.795 85.4102 119.739 85.4268 119.682 85.4235Z" fill="#D1D3D4"></path><path d="M105.43 85.7311C105.43 85.7311 108.547 103.955 110.884 108.08C110.884 108.08 133.574 106.882 139.416 102.111C139.416 102.111 129.968 87.8982 128.409 81.3906L105.43 85.7311Z" fill="white"></path><path d="M110.88 108.4C110.832 108.399 110.784 108.385 110.741 108.358C110.698 108.331 110.662 108.294 110.636 108.248C108.298 104.123 105.272 86.5388 105.147 85.7911C105.139 85.7497 105.139 85.7067 105.146 85.6652C105.154 85.6237 105.17 85.5845 105.192 85.5503C105.214 85.5159 105.242 85.4868 105.274 85.465C105.307 85.4432 105.343 85.4291 105.38 85.4236L128.36 81.083C128.43 81.0692 128.502 81.0849 128.562 81.1271C128.622 81.1693 128.665 81.2349 128.684 81.3112C130.208 87.6857 139.548 101.784 139.639 101.924C139.661 101.957 139.677 101.995 139.686 102.035C139.695 102.076 139.696 102.117 139.69 102.158C139.68 102.241 139.641 102.316 139.582 102.367C133.735 107.145 111.825 108.349 110.892 108.4H110.88ZM105.761 85.9939C106.182 88.4017 108.929 103.736 111.034 107.753C113.093 107.633 133.217 106.34 139.008 102.051C137.699 100.061 129.833 87.9455 128.2 81.7737L105.761 85.9939Z" fill="#231F20"></path><path d="M63.8219 77.3281L56.4844 100.317L92.9672 101.85L86.1302 77.3281H63.8219Z" fill="white"></path><path d="M92.9633 102.172L56.4805 100.638C56.4364 100.635 56.3936 100.621 56.3551 100.597C56.3167 100.573 56.2837 100.539 56.2587 100.499C56.2323 100.458 56.2154 100.411 56.2094 100.361C56.2035 100.311 56.2087 100.261 56.2245 100.214L63.5507 77.2247C63.5706 77.1635 63.6069 77.1106 63.6547 77.0732C63.7025 77.0357 63.7596 77.0157 63.818 77.0156H86.1264C86.1872 77.0152 86.2465 77.0365 86.2956 77.0765C86.3448 77.1164 86.3811 77.1728 86.3994 77.2374L93.225 101.76C93.2393 101.808 93.2426 101.859 93.2347 101.909C93.2267 101.959 93.2077 102.005 93.1795 102.045C93.1545 102.083 93.122 102.114 93.0845 102.136C93.0471 102.158 93.0056 102.17 92.9633 102.172ZM56.8787 100.024L92.5595 101.519L85.9045 77.6493H64.0057L56.8787 100.024Z" fill="#231F20"></path><path d="M161.115 110.883H0.28125V119.684H161.115V110.883Z" fill="white"></path><path d="M161.124 119.996H0.2844C0.208973 119.996 0.136634 119.963 0.0832987 119.903C0.0299633 119.844 0 119.763 0 119.679V110.872C0.00145617 110.788 0.0318878 110.708 0.0849108 110.649C0.137934 110.59 0.209428 110.556 0.2844 110.555H161.124C161.199 110.556 161.271 110.59 161.324 110.649C161.377 110.708 161.407 110.788 161.408 110.872V119.679C161.408 119.763 161.378 119.844 161.325 119.903C161.272 119.963 161.199 119.996 161.124 119.996ZM0.5688 119.362H160.817V111.195H0.5688V119.362Z" fill="#231F20"></path><path d="M73.1893 69.8125L78.9398 81.5287L79.0024 82.0927L79.3096 84.8617L77.3813 83.0812L76.9889 82.72L71.2383 70.9974L73.1893 69.8125Z" fill="#231F20"></path><path d="M79.3055 85.1764C79.2384 85.1774 79.1734 85.1503 79.1235 85.1004L76.8028 82.9587C76.7755 82.9338 76.7524 82.9037 76.7345 82.87L70.9839 71.1474C70.966 71.1113 70.9548 71.0716 70.9508 71.0305C70.9469 70.9895 70.9503 70.9481 70.9609 70.9085C70.9715 70.869 70.989 70.8322 71.0125 70.8004C71.036 70.7685 71.065 70.7421 71.0977 70.7228L73.0487 69.5316C73.1179 69.4999 73.1956 69.4999 73.2648 69.5316C73.2999 69.5436 73.3326 69.5632 73.3609 69.5893C73.3892 69.6154 73.4126 69.6474 73.4298 69.6837L79.186 81.3999C79.1936 81.4374 79.1936 81.4764 79.186 81.5139L79.5557 84.8469C79.5643 84.9088 79.5552 84.9721 79.5297 85.0278C79.5042 85.0835 79.4635 85.1289 79.4135 85.1574C79.3792 85.1726 79.3423 85.1791 79.3055 85.1764ZM77.2009 82.5088L78.9073 84.1056L78.6343 81.6217L73.043 70.2159L71.5869 71.103L77.2009 82.5088Z" fill="#231F20"></path><path d="M70.0735 67.9438L71.5058 67.0713C71.6382 66.9907 71.7939 66.972 71.9386 67.0192C72.0834 67.0665 72.2054 67.1759 72.2778 67.3233L75.0067 72.883L72.6112 74.3422L69.8823 68.7825C69.8099 68.6351 69.7931 68.4616 69.8355 68.3004C69.8779 68.1391 69.9761 68.0032 70.1084 67.9226L70.0735 67.9438Z" fill="#231F20"></path><path d="M72.5909 74.6629H72.5113C72.475 74.652 72.4411 74.6329 72.4117 74.6067C72.3824 74.5805 72.3582 74.5479 72.3407 74.5108L69.6047 68.941C69.5004 68.7255 69.4759 68.473 69.5365 68.2376C69.5668 68.1193 69.6182 68.009 69.6876 67.9132C69.757 67.8174 69.8429 67.7381 69.9403 67.68L71.368 66.8056C71.5638 66.6897 71.7926 66.664 72.0053 66.7339C72.218 66.8038 72.3976 66.9637 72.5056 67.1794L75.2358 72.7492C75.254 72.785 75.2655 72.8244 75.2699 72.8651C75.2743 72.9058 75.2714 72.9472 75.2613 72.9866C75.2513 73.0261 75.2343 73.063 75.2114 73.0951C75.1884 73.1272 75.16 73.154 75.1278 73.1738L72.7218 74.6375C72.6808 74.6584 72.6358 74.6671 72.5909 74.6629ZM71.7719 67.3125C71.726 67.3122 71.6809 67.3253 71.641 67.3505L70.2133 68.2186C70.1804 68.2361 70.1515 68.2617 70.1288 68.2936C70.1061 68.3254 70.0903 68.3627 70.0825 68.4024C70.0684 68.4384 70.0612 68.4772 70.0612 68.5164C70.0612 68.5557 70.0684 68.5945 70.0825 68.6305L72.6762 73.9215L74.5817 72.7619L71.988 67.4709C71.9665 67.4267 71.9356 67.389 71.8978 67.3614C71.8601 67.3337 71.8168 67.3169 71.7719 67.3125Z" fill="#231F20"></path><path d="M71.2863 74.6437C71.2342 74.645 71.1828 74.6303 71.1376 74.6013C71.0925 74.5722 71.0554 74.5299 71.0304 74.4789C70.9678 74.3585 69.5913 71.5832 69.4264 71.1713C69.2614 70.7594 69.4605 69.2703 69.5629 68.719C69.578 68.6334 69.623 68.5579 69.6881 68.5092C69.7531 68.4604 69.8329 68.4425 69.9098 68.4592C69.9477 68.4669 69.9838 68.4828 70.0161 68.5061C70.0484 68.5294 70.0762 68.5596 70.0979 68.595C70.1196 68.6303 70.1348 68.6702 70.1425 68.7121C70.1503 68.7541 70.1504 68.7974 70.143 68.8394C69.9954 69.515 69.9341 70.2105 69.961 70.9051C70.0919 71.2283 71.1441 73.3637 71.5423 74.1621C71.5613 74.1995 71.5735 74.2407 71.5781 74.2833C71.5827 74.326 71.5796 74.3692 71.569 74.4105C71.5584 74.4518 71.5405 74.4903 71.5164 74.5238C71.4923 74.5573 71.4624 74.5852 71.4285 74.6057C71.3844 74.6302 71.3357 74.6433 71.2863 74.6437Z" fill="#231F20"></path><path d="M51.035 65.4274C46.3083 62.9625 38.9651 60.035 37.0539 67.7909C36.5636 69.7051 36.7488 71.7557 37.5715 73.5227C38.3942 75.2898 39.7922 76.6395 41.4792 77.2957C49.9316 80.7998 73.332 84.4052 73.332 84.4052C73.332 84.4052 75.6072 83.968 76.4206 82.3269C77.234 80.6857 79.2646 82.4346 80.4022 81.3384C81.5398 80.2421 80.7378 78.1384 79.6571 76.4656C78.5764 74.7927 75.0555 74.609 74.1625 74.7991C73.2695 74.9892 71.017 76.4656 71.0113 76.4719C68.8897 77.8533 63.7932 72.9805 62.0527 71.8653C58.7271 69.7531 55.3371 67.7571 51.8826 65.8773L51.035 65.4274Z" fill="white"></path><path d="M73.3771 84.7116H73.343C73.1097 84.6736 49.8003 81.0618 41.4162 77.5894C39.6627 76.9099 38.2094 75.5082 37.3546 73.6722C36.4999 71.8362 36.3087 69.7053 36.8203 67.7171C37.3891 65.4486 38.4471 63.9152 39.9828 63.1105C43.2477 61.4313 47.946 63.478 51.1654 65.1635C51.4669 65.3156 51.7627 65.474 52.0414 65.626C55.4542 67.4826 58.9068 69.504 62.2286 71.6267C62.6268 71.8802 63.1899 72.3238 63.844 72.837C65.9315 74.4718 69.4182 77.2092 70.9256 76.227C70.9256 76.227 73.2008 74.7316 74.1563 74.5225C74.9868 74.3451 78.7067 74.4718 79.9126 76.3094C81.4142 78.6222 81.6702 80.5422 80.6179 81.5687C80.0491 82.1517 79.2073 82.044 78.4906 81.9489C77.5862 81.8285 77.0174 81.7905 76.6875 82.4685C75.8514 84.2174 73.5136 84.68 73.4169 84.699L73.3771 84.7116ZM42.8154 63.0598C41.9179 63.0387 41.0271 63.2355 40.2047 63.6364C38.8111 64.3524 37.8441 65.7781 37.3607 67.8692C36.8854 69.7153 37.0626 71.6941 37.8559 73.3993C38.6493 75.1044 39.9985 76.4065 41.6267 77.0381C49.7832 80.4218 72.2736 83.9513 73.3998 84.1287C73.6899 84.059 75.6011 83.5901 76.2438 82.2277C76.7501 81.1632 77.7113 81.2899 78.5645 81.404C79.23 81.4927 79.8614 81.5751 80.2709 81.1632C81.4768 79.9846 79.9752 77.431 79.486 76.6769C78.519 75.1815 75.146 74.9344 74.253 75.1245C73.1799 75.5462 72.1503 76.0942 71.1815 76.7593C69.3898 77.9252 66.0054 75.2766 63.5368 73.3439C62.8941 72.837 62.3424 72.3998 61.9613 72.159C58.6508 70.0426 55.238 68.0276 51.8082 66.1773L50.9379 65.7148C48.6172 64.4728 45.5116 63.0598 42.8154 63.0598Z" fill="#231F20"></path><path d="M68.1435 22.1212C68.1435 22.1212 82.8185 29.009 91.9876 22.8816L92.9659 15.9748C92.9659 15.9748 78.7459 19.4979 69.5655 13.5859C68.9499 14.9783 68.4877 16.4485 68.189 17.9645C67.9847 19.3395 67.9694 20.7411 68.1435 22.1212Z" fill="white"></path><path d="M82.5659 25.6905C75.1715 25.6905 68.1411 22.4398 68.0388 22.3891C67.9982 22.3709 67.9623 22.3417 67.9345 22.304C67.9066 22.2664 67.8877 22.2216 67.8795 22.1737C67.7016 20.7597 67.7189 19.3237 67.9307 17.9156C68.2345 16.3795 68.7044 14.8901 69.3299 13.48C69.3459 13.444 69.3682 13.412 69.3956 13.3858C69.423 13.3597 69.4548 13.34 69.4892 13.3279C69.5216 13.3126 69.5564 13.3047 69.5916 13.3047C69.6268 13.3047 69.6616 13.3126 69.694 13.3279C78.6696 19.1068 92.7645 15.7168 92.9067 15.6851C92.9476 15.6726 92.9908 15.6725 93.0318 15.6847C93.0728 15.697 93.1101 15.7212 93.1399 15.7548C93.1717 15.7858 93.1957 15.8254 93.2097 15.8699C93.2237 15.9143 93.227 15.962 93.2195 16.0083L92.2412 22.9151C92.2353 22.9571 92.2209 22.9972 92.1993 23.0323C92.1776 23.0674 92.1492 23.0966 92.1161 23.1178C89.2721 25.0315 85.8877 25.6905 82.5659 25.6905ZM68.3459 21.8886C69.8418 22.5222 83.2257 28.2251 91.7179 22.668L92.6223 16.3314C90.3471 16.8257 77.97 19.1449 69.6485 13.9806C69.0986 15.2641 68.6844 16.6144 68.4142 18.0043C68.2338 19.3009 68.2204 20.6195 68.3743 21.9202L68.3459 21.8886Z" fill="#231F20"></path><path d="M77.375 49.9828L78.7003 52.435C78.7003 52.435 77.8016 61.059 80.9755 66.0205C84.1494 70.982 102.152 58.7779 102.152 58.7779L102.721 51.9598H96.3047C96.3047 51.9598 87.6248 64.43 83.5635 61.4645C79.9915 58.8476 80.3214 51.9598 80.3214 51.9598L82.6535 49.9828L79.7753 47.125L77.375 49.9828Z" fill="#231F20"></path><path d="M83.6652 67.5041C82.3512 67.5041 81.3103 67.1303 80.7301 66.2368C77.6984 61.4781 78.3127 53.6018 78.4094 52.5373L77.1353 50.1801C77.1031 50.1212 77.089 50.0522 77.0952 49.9836C77.1013 49.915 77.1274 49.8505 77.1695 49.7999L79.5641 46.9421C79.6173 46.8841 79.6887 46.8516 79.7632 46.8516C79.8376 46.8516 79.9091 46.8841 79.9623 46.9421L82.8404 49.7999C82.8712 49.8312 82.8958 49.8694 82.9125 49.9119C82.9291 49.9545 82.9375 50.0006 82.9371 50.047C82.935 50.094 82.9237 50.1398 82.9041 50.1814C82.8844 50.223 82.8569 50.2593 82.8233 50.2878L80.5993 52.1888C80.5993 53.1773 80.5993 58.9879 83.722 61.269C87.5103 64.0444 95.9967 51.9607 96.0764 51.8403C96.1026 51.8005 96.1368 51.7683 96.1764 51.7463C96.216 51.7243 96.2597 51.713 96.3039 51.7135H102.72C102.76 51.7143 102.799 51.724 102.835 51.7422C102.871 51.7604 102.903 51.7866 102.93 51.8193C102.956 51.8519 102.977 51.8903 102.99 51.9321C103.002 51.9738 103.007 52.018 103.004 52.062L102.436 58.8801C102.432 58.9287 102.417 58.9754 102.394 59.0163C102.37 59.0572 102.337 59.0909 102.299 59.1146C101.662 59.4694 89.7172 67.5041 83.6652 67.5041ZM77.7269 50.047L78.9441 52.2901C78.977 52.3487 78.9911 52.418 78.9839 52.4866C78.9839 52.5753 78.1307 61.0536 81.1909 65.8566C83.6424 69.7029 96.8215 62.004 101.861 58.6077L102.43 52.2711H96.4404C95.4678 53.6462 87.4647 64.6907 83.4092 61.7189C79.7404 59.0322 80.0248 52.2141 80.0419 51.9353C80.0421 51.8904 80.052 51.8462 80.0708 51.8065C80.0897 51.7668 80.1168 51.7327 80.15 51.7072L82.209 49.9583L79.7916 47.5568L77.7269 50.047Z" fill="#231F20"></path><path d="M81.721 46.2495C76.6018 46.2495 73.9114 43.8923 73.7578 43.7656C73.6974 43.7118 73.6588 43.6335 73.6502 43.5479C73.6417 43.4624 73.664 43.3765 73.7123 43.3093C73.7606 43.2421 73.8308 43.199 73.9076 43.1895C73.9844 43.18 74.0615 43.2049 74.1218 43.2586C74.1673 43.2903 78.2001 46.7881 85.6343 45.1596C85.6721 45.1503 85.7111 45.1496 85.7491 45.1574C85.7871 45.1652 85.8234 45.1814 85.8557 45.205C85.888 45.2286 85.9158 45.2591 85.9374 45.2949C85.9589 45.3306 85.9739 45.3708 85.9813 45.413C85.9965 45.4978 85.9812 45.5859 85.9386 45.6582C85.896 45.7305 85.8297 45.7813 85.7538 45.7996C84.426 46.0963 83.0752 46.247 81.721 46.2495Z" fill="#231F20"></path><path d="M59.4154 64.767C59.356 64.7683 59.2977 64.7488 59.2487 64.7113C59.1997 64.6738 59.1625 64.6202 59.1424 64.5579L56.2073 56.1937C56.1932 56.1521 56.1865 56.1078 56.1876 56.0633C56.1888 56.0188 56.1979 55.975 56.2142 55.9344C56.2306 55.8938 56.254 55.8572 56.2831 55.8267C56.3121 55.7961 56.3463 55.7723 56.3837 55.7565C56.421 55.7407 56.4608 55.7332 56.5007 55.7345C56.5407 55.7358 56.58 55.7459 56.6164 55.7641C56.6529 55.7824 56.6857 55.8084 56.7131 55.8408C56.7405 55.8732 56.762 55.9113 56.7761 55.9529L59.7112 64.3234C59.7389 64.405 59.7366 64.4954 59.7046 64.575C59.6726 64.6546 59.6136 64.7168 59.5405 64.748C59.5003 64.7634 59.4578 64.7699 59.4154 64.767Z" fill="#231F20"></path><path d="M136.724 78.7656L115.559 81.2242C115.559 81.2242 118.158 101.33 119.717 105.525C119.717 105.525 138.931 107.115 148.799 100.753C148.799 100.734 136.854 82.5295 136.724 78.7656Z" fill="white"></path><path d="M124.929 106.026C121.823 106.026 119.753 105.861 119.69 105.855C119.637 105.851 119.587 105.831 119.544 105.796C119.502 105.761 119.47 105.713 119.451 105.658C117.893 101.476 115.378 82.1055 115.276 81.2817C115.271 81.2404 115.273 81.1984 115.283 81.1581C115.293 81.1178 115.31 81.0801 115.333 81.0473C115.356 81.013 115.385 80.9845 115.418 80.9637C115.451 80.943 115.488 80.9304 115.526 80.9269L136.691 78.462C136.77 78.4551 136.847 78.4823 136.908 78.538C136.965 78.5972 137 78.679 137.004 78.7662C137.107 81.6683 144.911 94.3033 149.023 100.576C149.048 100.612 149.065 100.653 149.074 100.697C149.083 100.741 149.083 100.786 149.074 100.83C149.066 100.873 149.049 100.914 149.026 100.95C149.002 100.986 148.972 101.017 148.938 101.039C142.3 105.323 131.385 106.026 124.929 106.026ZM119.912 105.234C121.846 105.373 139.132 106.393 148.38 100.665C146.844 98.308 137.135 83.2777 136.47 79.121L115.879 81.5225C116.22 84.0952 118.484 101.077 119.912 105.234Z" fill="#231F20"></path><path d="M45.3566 101.82L58.9054 87.6837L22.4795 84.4141L9.35156 97.3596L45.3566 101.82Z" fill="#231F20"></path><path d="M45.3544 102.134L9.34935 97.6983C9.29519 97.6917 9.24388 97.6679 9.20153 97.6297C9.15918 97.5915 9.12756 97.5405 9.11045 97.4829C9.09406 97.4247 9.0934 97.3624 9.10858 97.3038C9.12375 97.2452 9.15408 97.1929 9.19578 97.1534L22.3237 84.2079C22.3521 84.1794 22.3854 84.1574 22.4215 84.1433C22.4576 84.1291 22.4959 84.1231 22.5341 84.1255L58.9374 87.3952C58.9912 87.4023 59.0424 87.4254 59.0855 87.4622C59.1285 87.4991 59.1618 87.5481 59.1819 87.6043C59.1987 87.6624 59.2007 87.7246 59.1877 87.7839C59.1746 87.8432 59.147 87.8973 59.108 87.9401L45.5592 102.077C45.4989 102.122 45.4265 102.142 45.3544 102.134ZM10.0148 97.1281L45.2805 101.488L58.2719 87.9401L22.6024 84.7402L10.0148 97.1281Z" fill="#231F20"></path><path d="M45.3558 101.821L38.57 70.0874L3.23047 67.0078L9.35076 97.3597L45.3558 101.821Z" fill="white"></path><path d="M45.3519 102.133L9.34687 97.6972C9.28838 97.6886 9.23364 97.6604 9.18994 97.6162C9.14624 97.5721 9.11566 97.5141 9.10229 97.4501L2.982 67.0982C2.97365 67.0494 2.97493 66.9992 2.98573 66.9511C2.99654 66.903 3.01661 66.858 3.04457 66.8194C3.07451 66.7825 3.11156 66.7537 3.15293 66.735C3.1943 66.7164 3.23893 66.7084 3.28346 66.7117L38.623 69.7912C38.6828 69.7977 38.7392 69.8251 38.7842 69.8695C38.8292 69.9139 38.8604 69.973 38.8733 70.0383L45.6591 101.765C45.6701 101.815 45.6701 101.867 45.6592 101.916C45.6483 101.966 45.6268 102.012 45.5965 102.05C45.5641 102.084 45.5252 102.109 45.4828 102.123C45.4404 102.137 45.3956 102.141 45.3519 102.133ZM9.58008 97.0636L44.9822 101.448L38.3329 70.3995L3.58493 67.3707L9.58008 97.0636Z" fill="#231F20"></path><path d="M25.084 89.2668C23.8963 89.2128 22.759 88.7176 21.8532 87.8601C21.0553 86.8894 20.3518 85.8274 19.7544 84.6918C19.7235 84.6336 19.7102 84.5659 19.7163 84.4986C19.7224 84.4314 19.7477 84.368 19.7885 84.3179L20.5791 83.3485C20.6081 83.3141 20.6435 83.2872 20.6828 83.2697C20.7221 83.2522 20.7644 83.2445 20.8066 83.2471C20.8492 83.2506 20.8905 83.2643 20.9278 83.2873C20.9651 83.3102 20.9975 83.3419 21.0228 83.3801C21.4478 83.9773 22.0333 84.4071 22.6935 84.6066C23.3537 84.8062 24.0539 84.765 24.6916 84.489C25.6291 84.0547 26.389 83.2488 26.8246 82.2269C26.8766 81.9916 26.9127 81.7522 26.9326 81.5109C26.9262 81.2267 26.985 80.9453 27.1033 80.6935C27.1829 80.5921 27.3592 80.3513 28.5935 80.6301C28.6579 80.6432 28.7162 80.6806 28.7587 80.736C28.8011 80.7914 28.8252 80.8614 28.8267 80.9342V82.6324C28.9234 83.0887 29.4695 85.8831 28.8267 86.8526C28.4521 87.4924 27.9596 88.0362 27.3821 88.4481C26.8045 88.8599 26.155 89.1303 25.4765 89.2414C25.357 89.2541 25.2205 89.2668 25.084 89.2668ZM20.3516 84.5651C20.8878 85.575 21.5168 86.52 22.2286 87.3848C23.1181 88.2392 24.2696 88.6774 25.4424 88.6078C26.0418 88.5039 26.6147 88.26 27.1235 87.892C27.6323 87.5239 28.0654 87.0401 28.3944 86.4724C28.7869 85.8957 28.5423 83.8807 28.3034 82.7402C28.3003 82.7192 28.3003 82.6978 28.3034 82.6768V81.2067C28.0654 81.1562 27.8233 81.1329 27.5811 81.137C27.5811 81.2257 27.5811 81.4348 27.5356 81.5869C27.5206 81.9004 27.4651 82.2099 27.3706 82.5057C26.8639 83.6886 25.9707 84.6112 24.8736 85.0847C24.1716 85.3868 23.405 85.4499 22.6708 85.266C21.9367 85.0821 21.2681 84.6595 20.7498 84.0518L20.3516 84.5651Z" fill="#D1D3D4"></path><path d="M86.5416 96.7687L60.5701 96.04C60.5328 96.0383 60.4961 96.0285 60.4621 96.0111C60.4282 95.9936 60.3977 95.9689 60.3723 95.9383C60.3469 95.9077 60.3272 95.8718 60.3143 95.8327C60.3014 95.7936 60.2956 95.7521 60.2971 95.7105C60.2979 95.6697 60.3058 95.6295 60.3205 95.5921C60.3352 95.5548 60.3563 95.521 60.3827 95.4928C60.4092 95.4645 60.4403 95.4423 60.4744 95.4275C60.5085 95.4127 60.5449 95.4055 60.5815 95.4063L86.5472 96.135C86.5848 96.135 86.622 96.1434 86.6566 96.1598C86.6912 96.1762 86.7224 96.2002 86.7485 96.2304C86.7745 96.2606 86.7948 96.2963 86.8081 96.3355C86.8214 96.3746 86.8275 96.4164 86.826 96.4582C86.8231 96.5406 86.792 96.6187 86.7391 96.6764C86.6863 96.7341 86.6156 96.7671 86.5416 96.7687Z" fill="#D1D3D4"></path><path d="M69.0562 91.0518C65.3135 91.0518 62.4467 91.0518 62.3159 91.0137C62.2405 90.9986 62.1735 90.9507 62.1298 90.8806C62.0861 90.8105 62.0691 90.7239 62.0827 90.6399C62.0963 90.5559 62.1393 90.4813 62.2022 90.4326C62.2651 90.3838 62.3429 90.365 62.4183 90.3801C62.9871 90.4371 77.901 90.3801 85.7391 90.3801C85.8145 90.3801 85.8869 90.4135 85.9402 90.4729C85.9935 90.5323 86.0235 90.6129 86.0235 90.6969C86.0235 90.7809 85.9935 90.8615 85.9402 90.921C85.8869 90.9804 85.8145 91.0137 85.7391 91.0137C82.4685 91.0328 74.7442 91.0518 69.0562 91.0518Z" fill="#D1D3D4"></path><path d="M83.5982 85.6053H83.5697L79.281 85.1744C79.2435 85.1705 79.2072 85.1583 79.174 85.1386C79.1409 85.1189 79.1115 85.0921 79.0877 85.0597C79.0639 85.0272 79.0461 84.9899 79.0354 84.9498C79.0246 84.9097 79.0211 84.8676 79.025 84.8259C79.0278 84.7845 79.0381 84.7442 79.0552 84.7072C79.0723 84.6703 79.0958 84.6376 79.1245 84.611C79.1531 84.5844 79.1862 84.5645 79.2219 84.5525C79.2576 84.5404 79.2951 84.5364 79.3322 84.5408L83.6209 84.9717C83.6963 84.9717 83.7687 85.005 83.822 85.0645C83.8753 85.1239 83.9053 85.2045 83.9053 85.2885C83.9053 85.3725 83.8753 85.4531 83.822 85.5125C83.7687 85.5719 83.6963 85.6053 83.6209 85.6053H83.5982Z" fill="#D1D3D4"></path><path d="M134.551 61.4521C134.551 61.4521 135.023 46.4029 142.292 38.6406L161.7 44.9138C161.7 44.9138 151.143 57.6819 151.279 68.2829L134.551 61.4521Z" fill="white"></path><path d="M151.282 68.6122C151.25 68.6187 151.217 68.6187 151.185 68.6122L134.451 61.7814C134.393 61.7577 134.344 61.7143 134.309 61.6575C134.274 61.6007 134.256 61.5333 134.258 61.4646C134.258 61.3125 134.827 46.1936 142.09 38.4313C142.128 38.3933 142.174 38.3665 142.224 38.3532C142.273 38.3399 142.325 38.3406 142.375 38.3553L161.788 44.6285C161.835 44.6452 161.878 44.6748 161.913 44.7146C161.948 44.7544 161.973 44.8032 161.987 44.8566C162.002 44.9104 162.003 44.9677 161.991 45.0224C161.979 45.0771 161.954 45.1271 161.919 45.1671C161.816 45.2938 151.464 57.9542 151.578 68.2954C151.578 68.3486 151.567 68.401 151.545 68.4484C151.523 68.4958 151.491 68.5367 151.453 68.5678C151.401 68.6008 151.342 68.6162 151.282 68.6122ZM134.855 61.2301L150.992 67.7884C151.089 62.3644 153.836 56.4651 156.202 52.4287C157.706 49.8523 159.367 47.3943 161.174 45.072L142.375 38.9953C135.879 46.1049 134.958 59.3038 134.855 61.2301Z" fill="#231F20"></path><path d="M155.571 47.0252H155.491L142.153 42.7163C142.081 42.6914 142.021 42.6365 141.985 42.5633C141.949 42.4901 141.94 42.4041 141.959 42.3235C141.969 42.2831 141.986 42.2453 142.009 42.2124C142.033 42.1795 142.061 42.1521 142.094 42.132C142.127 42.1119 142.164 42.0994 142.201 42.0953C142.238 42.0911 142.276 42.0955 142.312 42.108L155.65 46.4169C155.726 46.4286 155.794 46.4733 155.84 46.541C155.886 46.6088 155.905 46.694 155.895 46.778C155.884 46.8621 155.844 46.938 155.783 46.9891C155.723 47.0402 155.646 47.0623 155.571 47.0505V47.0252Z" fill="#D1D3D4"></path><path d="M153.653 51.3611H153.573L140.235 47.0523C140.163 47.0273 140.103 46.9725 140.067 46.8992C140.031 46.826 140.022 46.74 140.041 46.6594C140.051 46.619 140.068 46.5812 140.091 46.5483C140.115 46.5154 140.143 46.4881 140.176 46.4679C140.209 46.4478 140.246 46.4353 140.283 46.4312C140.32 46.4271 140.358 46.4314 140.394 46.444L153.732 50.7528C153.808 50.7646 153.876 50.8092 153.922 50.877C153.968 50.9447 153.987 51.03 153.977 51.114C153.966 51.198 153.926 51.2739 153.865 51.325C153.805 51.3761 153.728 51.3982 153.653 51.3864V51.3611Z" fill="#D1D3D4"></path><path d="M152.006 55.9392H151.926L138.588 51.6304C138.552 51.6187 138.518 51.5993 138.489 51.5733C138.46 51.5472 138.436 51.5151 138.418 51.4786C138.4 51.4421 138.389 51.402 138.384 51.3607C138.38 51.3193 138.384 51.2775 138.394 51.2375C138.404 51.1971 138.421 51.1593 138.444 51.1264C138.467 51.0935 138.496 51.0662 138.529 51.0461C138.562 51.0259 138.598 51.0134 138.636 51.0093C138.673 51.0052 138.711 51.0095 138.747 51.0221L152.085 55.3309C152.121 55.3426 152.155 55.362 152.184 55.388C152.213 55.4141 152.237 55.4463 152.255 55.4827C152.273 55.5192 152.284 55.5593 152.288 55.6006C152.292 55.642 152.289 55.6838 152.279 55.7238C152.26 55.7878 152.224 55.8434 152.174 55.8822C152.125 55.9211 152.066 55.9411 152.006 55.9392Z" fill="#D1D3D4"></path><path d="M146.315 60.0316C146.288 60.0374 146.261 60.0374 146.235 60.0316L136.753 56.9647C136.717 56.9538 136.683 56.9349 136.653 56.909C136.624 56.8832 136.599 56.8509 136.581 56.8142C136.563 56.7775 136.552 56.7371 136.548 56.6955C136.545 56.6538 136.548 56.6118 136.56 56.5719C136.581 56.4912 136.63 56.4232 136.696 56.3828C136.762 56.3424 136.84 56.3329 136.912 56.3564L146.394 59.4233C146.43 59.4349 146.464 59.4543 146.493 59.4804C146.522 59.5064 146.546 59.5386 146.564 59.5751C146.582 59.6116 146.593 59.6517 146.597 59.693C146.601 59.7344 146.598 59.7762 146.588 59.8162C146.569 59.8802 146.533 59.9358 146.483 59.9746C146.434 60.0134 146.375 60.0334 146.315 60.0316Z" fill="#D1D3D4"></path></svg>