<svg xmlns="http://www.w3.org/2000/svg" width="162" height="120" viewBox="0 0 162 120" fill="none"><path d="M150.857 11.3203H130.184V30.3215H150.857V11.3203Z" fill="white"></path><path d="M150.863 30.6004H130.185C130.114 30.6004 130.046 30.5709 129.996 30.5184C129.946 30.4658 129.918 30.3946 129.918 30.3203V11.3192C129.918 11.2449 129.946 11.1736 129.996 11.1211C130.046 11.0686 130.114 11.0391 130.185 11.0391H150.863C150.934 11.0391 151.002 11.0686 151.052 11.1211C151.102 11.1736 151.13 11.2449 151.13 11.3192V30.3203C151.13 30.3946 151.102 30.4658 151.052 30.5184C151.002 30.5709 150.934 30.6004 150.863 30.6004ZM130.452 30.0402H150.596V11.5992H130.452V30.0402Z" fill="#D1D3D4"></path><path d="M150.863 13.3883H130.185C130.114 13.3883 130.046 13.3588 129.996 13.3063C129.946 13.2537 129.918 13.1825 129.918 13.1082C129.919 13.0344 129.948 12.964 129.998 12.9117C130.047 12.8595 130.115 12.8296 130.185 12.8281H150.863C150.934 12.8296 151.001 12.8595 151.051 12.9117C151.1 12.964 151.129 13.0344 151.13 13.1082C151.13 13.1825 151.102 13.2537 151.052 13.3063C151.002 13.3588 150.934 13.3883 150.863 13.3883Z" fill="#D1D3D4"></path><path d="M139.661 18.3651H134.103C134.033 18.3636 133.965 18.3337 133.916 18.2814C133.866 18.2292 133.837 18.1588 133.836 18.085V14.8192C133.837 14.7453 133.866 14.6749 133.916 14.6227C133.965 14.5705 134.033 14.5405 134.103 14.5391H139.661C139.731 14.5405 139.798 14.5705 139.848 14.6227C139.898 14.6749 139.927 14.7453 139.928 14.8192V18.085C139.927 18.1588 139.898 18.2292 139.848 18.2814C139.798 18.3337 139.731 18.3636 139.661 18.3651ZM134.381 17.8049H139.405V15.0992H134.381V17.8049Z" fill="#D1D3D4"></path><path d="M147.476 25.9588H141.923C141.852 25.9588 141.785 25.9293 141.734 25.8768C141.684 25.8242 141.656 25.753 141.656 25.6787V22.4129C141.656 22.3386 141.684 22.2674 141.734 22.2148C141.785 22.1623 141.852 22.1328 141.923 22.1328H147.476C147.547 22.1328 147.615 22.1623 147.665 22.2148C147.715 22.2674 147.743 22.3386 147.743 22.4129V25.6787C147.743 25.753 147.715 25.8242 147.665 25.8768C147.615 25.9293 147.547 25.9588 147.476 25.9588ZM142.19 25.3986H147.198V22.693H142.179L142.19 25.3986Z" fill="#D1D3D4"></path><path d="M139.661 27.5838H134.103C134.033 27.5824 133.965 27.5524 133.916 27.5002C133.866 27.448 133.837 27.3776 133.836 27.3037V24.0379C133.837 23.9641 133.866 23.8937 133.916 23.8414C133.965 23.7892 134.033 23.7592 134.103 23.7578H139.661C139.731 23.7592 139.798 23.7892 139.848 23.8414C139.898 23.8937 139.927 23.9641 139.928 24.0379V27.3149C139.924 27.3868 139.894 27.4544 139.845 27.5043C139.795 27.5541 139.73 27.5825 139.661 27.5838ZM134.37 27.0236H139.394V24.318H134.381L134.37 27.0236Z" fill="#D1D3D4"></path><path d="M144.697 22.6984C144.626 22.6984 144.558 22.6689 144.508 22.6164C144.458 22.5638 144.43 22.4926 144.43 22.4183V20.8722H136.88C136.81 20.8708 136.743 20.8408 136.693 20.7886C136.643 20.7364 136.615 20.666 136.613 20.5921V18.077C136.613 18.0027 136.641 17.9314 136.691 17.8789C136.742 17.8264 136.809 17.7969 136.88 17.7969C136.951 17.7969 137.019 17.8264 137.069 17.8789C137.119 17.9314 137.147 18.0027 137.147 18.077V20.3177H144.697C144.768 20.3177 144.835 20.3472 144.886 20.3997C144.936 20.4522 144.964 20.5235 144.964 20.5978V22.4239C144.962 22.4972 144.934 22.567 144.884 22.6184C144.834 22.6697 144.767 22.6984 144.697 22.6984Z" fill="#D1D3D4"></path><path d="M136.88 24.3256C136.809 24.3256 136.742 24.2961 136.691 24.2435C136.641 24.191 136.613 24.1198 136.613 24.0455V20.6004C136.613 20.5261 136.641 20.4549 136.691 20.4024C136.742 20.3498 136.809 20.3203 136.88 20.3203C136.951 20.3203 137.019 20.3498 137.069 20.4024C137.119 20.4549 137.147 20.5261 137.147 20.6004V24.0567C137.144 24.129 137.115 24.1974 137.065 24.2475C137.016 24.2977 136.949 24.3256 136.88 24.3256Z" fill="#D1D3D4"></path><path d="M42.3473 40.2321H36.1966C36.1258 40.2321 36.0579 40.2025 36.0079 40.15C35.9578 40.0975 35.9297 40.0262 35.9297 39.952C35.9297 39.8777 35.9578 39.8064 36.0079 39.7539C36.0579 39.7014 36.1258 39.6719 36.1966 39.6719H42.3473C42.4177 39.6733 42.4848 39.7033 42.5346 39.7555C42.5844 39.8077 42.6129 39.8781 42.6143 39.952C42.6143 39.9887 42.6074 40.0252 42.594 40.0591C42.5806 40.0931 42.5609 40.124 42.5361 40.15C42.5113 40.176 42.4819 40.1967 42.4495 40.2107C42.4171 40.2248 42.3824 40.2321 42.3473 40.2321Z" fill="#D1D3D4"></path><path d="M40.706 43.5367H29.9584C29.8876 43.5367 29.8197 43.5072 29.7696 43.4547C29.7195 43.4022 29.6914 43.3309 29.6914 43.2567C29.6914 43.1824 29.7195 43.1111 29.7696 43.0586C29.8197 43.0061 29.8876 42.9766 29.9584 42.9766H40.706C40.7768 42.9766 40.8447 43.0061 40.8948 43.0586C40.9449 43.1111 40.973 43.1824 40.973 43.2567C40.973 43.3309 40.9449 43.4022 40.8948 43.4547C40.8447 43.5072 40.7768 43.5367 40.706 43.5367Z" fill="#D1D3D4"></path><path d="M131.22 94.2481C131.22 94.2481 135.363 48.8739 129.085 42.0005C122.806 35.1272 103.014 37.7432 92.9066 39.9111C81.1606 42.4263 87.4447 94.8083 87.4447 94.8083L131.22 94.2481Z" fill="#231F20"></path><path d="M87.4579 95.1056C87.3937 95.1061 87.3316 95.0818 87.2833 95.0374C87.2351 94.993 87.2041 94.9315 87.1963 94.8647C86.94 92.7136 81.0402 42.1746 92.8664 39.637C97.6716 38.6062 122.055 33.8559 129.29 41.8048C135.563 48.7062 131.65 92.4167 131.479 94.2765C131.474 94.3453 131.444 94.4095 131.395 94.4563C131.347 94.503 131.283 94.5288 131.217 94.5286L87.4632 95.0888L87.4579 95.1056ZM113.086 37.8388H112.461C104.383 37.9172 96.15 39.5193 92.9839 40.1859C88.3335 41.183 85.9416 50.9077 86.075 68.3068C86.1658 80.5522 87.4952 92.6744 87.6768 94.5454L130.956 93.9852C131.271 90.3497 134.757 48.6614 128.884 42.2082C126.273 39.3009 120.95 37.8388 113.075 37.8388H113.086Z" fill="#231F20"></path><path d="M75.0488 55.7842L72.5341 81.1882C72.5341 81.1882 53.6762 84.2299 50.4941 83.9274C47.312 83.6249 41.1773 85.1094 40.275 85.9272C39.3727 86.7451 35.0694 91.9099 35.945 91.9155C36.8206 91.9211 40.6434 88.1959 41.0385 88.2072C41.4336 88.2184 44.7332 89.1146 44.7332 89.1146C44.7332 89.1146 39.3513 92.274 40.9531 92.4253C42.5548 92.5765 47.6697 89.9941 48.225 89.8653C48.7803 89.7364 74.9207 94.1954 80.7937 92.7334C86.6667 91.2713 85.7911 81.429 85.7751 78.1688C85.7591 74.9086 84.9849 53.5547 84.9849 53.5547L75.0488 55.7842Z" fill="white"></path><path d="M77.1587 93.3065C70.4474 93.3065 58.4451 91.5756 52.0648 90.6513C50.0359 90.36 48.4342 90.1191 48.2366 90.1415C48.1352 90.1415 47.5799 90.4104 46.998 90.6681C44.5366 91.7548 42.0486 92.808 40.906 92.7015C40.5269 92.6679 40.4095 92.4775 40.3721 92.3206C40.26 91.7604 41.488 90.7353 44.0187 89.2116C42.7801 88.8811 41.2477 88.4946 41.0235 88.4834C40.8953 88.5394 40.0998 89.2116 39.4591 89.7494C37.7666 91.1779 36.5172 92.1918 35.9406 92.1918C35.8632 92.1954 35.7866 92.1728 35.7223 92.1274C35.6579 92.0821 35.6091 92.0163 35.5829 91.9397C35.2626 91.0266 39.71 86.0579 40.0945 85.7105C41.0822 84.8199 47.2809 83.3354 50.5111 83.6435C53.4423 83.9236 70.2339 81.2684 72.2841 80.9435L74.7775 55.7356C74.7832 55.6774 74.8065 55.6226 74.8439 55.5793C74.8814 55.5359 74.9311 55.5063 74.9857 55.4947L84.8738 53.254C84.912 53.2474 84.9511 53.249 84.9887 53.2586C85.0263 53.2682 85.0617 53.2857 85.0927 53.31C85.1236 53.3341 85.1489 53.3653 85.1665 53.4012C85.184 53.4372 85.1935 53.4769 85.1941 53.5173C85.1941 53.7357 85.963 74.9048 85.9843 78.137C85.9843 78.4451 85.9843 78.8092 85.9843 79.2237C86.0858 83.2458 86.3047 91.6092 80.7733 92.9872C79.5827 93.2282 78.371 93.3352 77.1587 93.3065ZM48.2313 89.5814C48.5143 89.5814 49.3846 89.7046 52.1342 90.0967C59.3367 91.1386 76.2084 93.5698 80.6772 92.4607C85.7868 91.1891 85.5785 83.1281 85.4824 79.2573C85.4824 78.8372 85.4824 78.4675 85.4824 78.137C85.4824 75.1344 84.8044 56.5982 84.7083 53.8702L75.3221 55.9876L72.8287 81.1955C72.8224 81.2568 72.7969 81.3141 72.7564 81.3587C72.7159 81.4032 72.6625 81.4325 72.6045 81.442C71.8303 81.5708 53.6719 84.4782 50.4951 84.1869C47.3183 83.8956 41.2744 85.3969 40.4789 86.1195C39.6834 86.8421 36.6828 90.4776 36.2076 91.5532C37.2562 90.8965 38.2494 90.1469 39.1761 89.3125C40.5163 88.1921 40.8526 87.9176 41.0875 87.9232C41.488 87.9232 44.291 88.6907 44.8249 88.8363C44.8762 88.8516 44.9221 88.8823 44.9569 88.9246C44.9917 88.967 45.0139 89.0192 45.0208 89.0746C45.0276 89.1301 45.0187 89.1865 44.9953 89.2367C44.9719 89.2869 44.9349 89.3289 44.889 89.3573C43.1858 90.3544 41.3065 91.6428 40.9754 92.1582C42.0806 92.259 45.1506 90.8978 46.8111 90.1639C47.255 89.9517 47.7095 89.7647 48.1726 89.6038L48.2313 89.5814Z" fill="#231F20"></path><path d="M73.9453 69.2024C76.6149 51.7978 79.4019 49.8876 79.4019 49.8876C84.2071 41.1712 99.6586 39.5859 99.6586 39.5859C99.6586 39.5859 115.014 46.2128 118.169 58.0717C120.257 65.9142 119.648 96.7855 119.648 96.7855L81.0624 95.2058C81.0624 95.2058 79.9038 81.9576 81.3614 69.1744L73.9453 69.2024Z" fill="#1F72F2"></path><path d="M93.3662 52.9786C93.3662 52.9786 90.9049 72.9937 96.7886 73.7051C102.672 74.4166 106.095 48.0547 106.095 48.0547L93.0832 50.8556" fill="#231F20"></path><path d="M97.0174 74.0298C96.9285 74.0354 96.8393 74.0354 96.7504 74.0298C96.3258 73.973 95.9168 73.8248 95.5493 73.5944C95.1818 73.364 94.8637 73.0564 94.6148 72.691C91.2511 68.1591 93.013 53.5834 93.0718 52.9616C93.0811 52.8881 93.1178 52.8215 93.1738 52.7763C93.2299 52.7312 93.3007 52.7112 93.3708 52.7207C93.4408 52.7305 93.5043 52.769 93.5473 52.8278C93.5904 52.8866 93.6094 52.9609 93.6003 53.0344C93.6003 53.1856 91.8064 68.0023 95.0366 72.3493C95.2403 72.6526 95.5014 72.9087 95.8036 73.1014C96.1058 73.2942 96.4427 73.4195 96.7931 73.4696C101.347 74.0298 104.754 55.9529 105.774 48.4242L93.1305 51.1578C93.0597 51.1727 92.9862 51.1574 92.9261 51.1154C92.866 51.0734 92.8243 51.008 92.8101 50.9337C92.796 50.8595 92.8105 50.7823 92.8506 50.7193C92.8906 50.6562 92.9529 50.6125 93.0237 50.5976L106.035 47.7968C106.077 47.7857 106.121 47.7866 106.162 47.7994C106.203 47.8122 106.241 47.8364 106.27 47.8696C106.302 47.8997 106.326 47.9372 106.341 47.9791C106.356 48.021 106.361 48.0661 106.356 48.1105C106.243 49.1748 102.928 74.0242 97.0174 74.0298Z" fill="#231F20"></path><path d="M161.733 95.8984H0.261719V99.7917H161.733V95.8984Z" fill="white"></path><path d="M161.733 100.065H0.266957C0.196155 100.065 0.128254 100.035 0.0781896 99.9829C0.0281255 99.9304 0 99.8592 0 99.7849V95.8973C0 95.823 0.0281255 95.7517 0.0781896 95.6992C0.128254 95.6467 0.196155 95.6172 0.266957 95.6172H161.733C161.804 95.6172 161.872 95.6467 161.922 95.6992C161.972 95.7517 162 95.823 162 95.8973V99.7849C162 99.8592 161.972 99.9304 161.922 99.9829C161.872 100.035 161.804 100.065 161.733 100.065ZM0.533913 99.5048H161.466V96.1774H0.533913V99.5048Z" fill="#231F20"></path><path d="M159.383 99.7891H2.62109V119.72H159.383V99.7891Z" fill="white"></path><path d="M159.379 120.005H2.62243C2.55162 120.005 2.48372 119.975 2.43366 119.923C2.38359 119.87 2.35547 119.799 2.35547 119.725V99.7879C2.35547 99.7136 2.38359 99.6424 2.43366 99.5898C2.48372 99.5373 2.55162 99.5078 2.62243 99.5078H159.379C159.45 99.5078 159.518 99.5373 159.568 99.5898C159.618 99.6424 159.646 99.7136 159.646 99.7879V119.725C159.646 119.799 159.618 119.87 159.568 119.923C159.518 119.975 159.45 120.005 159.379 120.005ZM2.88938 119.444H159.112V100.068H2.88938V119.444Z" fill="#231F20"></path><path d="M86.6734 93.6094H36.918V95.8949H86.6734V93.6094Z" fill="#231F20"></path><path d="M86.6747 96.1738H36.9193C36.8485 96.1738 36.7806 96.1443 36.7305 96.0918C36.6805 96.0393 36.6523 95.968 36.6523 95.8937V93.6082C36.6523 93.5339 36.6805 93.4627 36.7305 93.4102C36.7806 93.3576 36.8485 93.3281 36.9193 93.3281H86.6747C86.7455 93.3281 86.8134 93.3576 86.8635 93.4102C86.9135 93.4627 86.9416 93.5339 86.9416 93.6082V95.8937C86.9403 95.9676 86.9117 96.038 86.8619 96.0902C86.8122 96.1424 86.7451 96.1724 86.6747 96.1738ZM37.1863 95.6136H86.4077V93.8883H37.1863V95.6136Z" fill="#231F20"></path><path d="M114.199 66.7405L121.257 83.8706C121.257 83.8706 109.436 86.2682 102.57 87.2709C102.57 87.2709 94.6626 84.274 91.9931 84.3692C89.3235 84.4644 85.4526 87.2877 84.5557 88.2904C81.5871 91.545 81.806 93.332 81.8487 94.2899C81.9341 96.2617 95.5062 93.8081 97.3322 94.0042C99.1582 94.2003 130.857 97.186 133.521 94.6876C136.185 92.1892 127.424 63.6875 127.424 63.6875" fill="white"></path><path d="M125.011 95.9324C114.258 95.9324 97.4987 94.2911 97.2477 94.2519C95.8076 94.2909 94.3708 94.4162 92.9444 94.6272C87.4504 95.2546 82.8 95.7027 81.7909 94.7785C81.7169 94.7171 81.6562 94.6399 81.6129 94.552C81.5697 94.4641 81.5448 94.3675 81.54 94.2687V94.1623C81.4866 93.1539 81.3905 91.283 84.327 88.0619C85.3414 86.9416 89.2657 84.1743 91.946 84.0735C94.5194 83.9727 101.759 86.6671 102.565 86.9696C108.738 86.0677 118.925 84.0399 120.873 83.6478L113.933 66.8425C113.913 66.8082 113.9 66.7699 113.896 66.73C113.891 66.6902 113.895 66.6498 113.906 66.6116C113.918 66.5734 113.937 66.5383 113.963 66.5086C113.989 66.4789 114.02 66.4554 114.055 66.4396C114.091 66.4238 114.129 66.4161 114.167 66.417C114.205 66.418 114.243 66.4275 114.277 66.445C114.311 66.4625 114.342 66.4875 114.366 66.5184C114.391 66.5493 114.408 66.5853 114.418 66.624L121.482 83.7542C121.499 83.7928 121.508 83.8349 121.508 83.8774C121.508 83.92 121.499 83.9621 121.482 84.0007C121.463 84.0369 121.436 84.0682 121.403 84.0924C121.371 84.1166 121.334 84.1331 121.295 84.1407C121.178 84.1687 109.384 86.5495 102.565 87.5466C102.523 87.5575 102.479 87.5575 102.437 87.5466C102.363 87.5186 94.5354 84.5441 91.9566 84.6617C89.3778 84.7793 85.5497 87.5354 84.7061 88.4765C81.9351 91.5238 82.0365 93.238 82.0686 94.1567V94.2687C82.0686 94.2687 82.0686 94.3247 82.1326 94.3807C83.067 95.221 89.2123 94.5152 92.8803 94.095C94.3449 93.8731 95.8215 93.7496 97.3011 93.7253C101.209 94.1567 130.858 96.7503 133.287 94.476C135.15 92.7282 130.617 75.1555 127.109 63.7671C127.099 63.7322 127.095 63.6954 127.098 63.6589C127.101 63.6223 127.111 63.5868 127.128 63.5545C127.144 63.5221 127.167 63.4935 127.194 63.4704C127.221 63.4472 127.252 63.4301 127.286 63.4198C127.319 63.4085 127.353 63.4042 127.388 63.4071C127.422 63.4101 127.456 63.4201 127.487 63.4368C127.518 63.4535 127.545 63.4764 127.567 63.5043C127.59 63.5321 127.606 63.5644 127.617 63.5991C128.524 66.5344 136.362 92.3473 133.645 94.8961C132.833 95.6579 129.427 95.9324 125.011 95.9324Z" fill="#231F20"></path><path d="M111.801 48.5391C115.912 49.7992 119.741 51.9116 123.061 54.7514C128.55 59.6586 130.824 71.9432 130.824 71.9432L110.738 75.8028L111.801 48.5391Z" fill="#1F72F2"></path><path d="M91.6755 48.9273C93.1651 48.3671 94.596 47.807 96.2565 47.9638C98.7339 48.1711 101.062 49.2018 103.598 49.325C106.299 49.4539 109.129 48.9217 111.804 48.5408C112.584 48.4231 111.927 49.6163 112.525 49.101C114.618 47.174 114.212 43.7849 113.982 41.2305C113.535 35.3034 112.317 29.4683 110.363 23.8875C109.295 20.9969 105.232 10.4432 101.056 15.5744C101.996 14.4205 96.7851 12.4263 96.0483 12.2918C89.3904 11.0202 84.0192 17.6023 83.1329 23.9435C82.4709 28.5649 82.7859 33.0687 81.088 37.5109C80.3405 39.4715 79.3261 41.4322 79.4382 43.544C79.5664 46.0816 81.4084 48.3055 83.6561 49.2522C85.9039 50.1989 88.4614 50.014 90.7786 49.2522C91.0615 49.1458 91.3659 49.0337 91.6755 48.9273Z" fill="white"></path><path d="M86.9769 50.1715C85.7988 50.1837 84.6295 49.9573 83.5331 49.5049C81.0398 48.4574 79.2618 46.0654 79.1497 43.5558C79.0536 41.7689 79.737 40.0939 80.3937 38.475C80.5379 38.1165 80.682 37.758 80.8209 37.3995C81.9528 34.4362 82.1717 31.4896 82.4226 28.3751C82.5347 26.913 82.6468 25.4061 82.8658 23.8936C83.4535 19.9033 85.5058 16.3125 88.584 13.8889C89.6474 13.0516 90.8631 12.4516 92.156 12.126C93.4488 11.8004 94.7916 11.756 96.1015 11.9955C96.5179 12.0739 100.64 13.5192 101.334 14.8468C101.654 14.4935 102.051 14.2257 102.49 14.0659C102.93 13.9061 103.399 13.8588 103.859 13.9281C106.641 14.4267 109.07 19.5299 110.619 23.7648C112.455 28.7728 113.646 34.4586 114.249 41.1303L114.276 41.444C114.516 44.0488 114.81 47.2922 112.701 49.236C112.594 49.3368 112.391 49.5217 112.167 49.4209C112.093 49.3768 112.034 49.3104 111.997 49.2305C111.96 49.1505 111.946 49.0607 111.959 48.9727C111.962 48.9025 111.953 48.8322 111.932 48.7654H111.831L110.56 48.9559C108.255 49.3807 105.917 49.5813 103.576 49.5553C102.243 49.4482 100.922 49.2119 99.6306 48.8495C98.5126 48.5411 97.3739 48.322 96.2243 48.1941C94.6973 48.0652 93.3732 48.547 91.953 49.0623L91.7341 49.1408C91.4297 49.2528 91.1254 49.3648 90.8104 49.4657C89.5735 49.9011 88.2812 50.139 86.9769 50.1715ZM94.3929 12.41C92.4048 12.4295 90.4738 13.1101 88.8776 14.3539C85.9152 16.6844 83.9395 20.1386 83.373 23.9777C83.1647 25.4677 83.0473 26.969 82.9405 28.4199C82.7109 31.4392 82.476 34.5818 81.3388 37.6067C81.1999 37.9709 81.0504 38.3294 80.9063 38.6935C80.2709 40.2508 79.6196 41.8697 79.6996 43.5278C79.8224 45.8189 81.4455 48.0092 83.752 48.9839C86.2721 50.0426 88.9203 49.5441 90.6929 48.9839L91.6059 48.6646L91.8248 48.5806C93.2771 48.0204 94.6546 47.5443 96.2937 47.6843C97.4704 47.8154 98.6359 48.0401 99.7801 48.3565C101.038 48.711 102.325 48.9417 103.624 49.0455C105.933 49.0697 108.238 48.8709 110.512 48.4517L111.782 48.2613C111.875 48.2392 111.97 48.2389 112.063 48.2602C112.155 48.2815 112.242 48.3239 112.316 48.3845C112.416 48.4757 112.482 48.6005 112.503 48.7374C114.271 46.9673 113.993 43.9647 113.769 41.5392L113.742 41.2311C113.144 34.5874 111.969 28.9464 110.149 23.9889C108.013 18.2247 105.776 14.858 103.795 14.4995C102.925 14.3483 102.103 14.7572 101.291 15.7543C101.27 15.7872 101.243 15.815 101.211 15.8361C101.179 15.8572 101.144 15.8709 101.107 15.8765C101.069 15.8821 101.031 15.8794 100.995 15.8685C100.959 15.8577 100.926 15.8389 100.897 15.8135C100.868 15.7881 100.845 15.7566 100.828 15.7211C100.812 15.6855 100.803 15.6468 100.802 15.6073C100.801 15.5679 100.808 15.5287 100.822 15.4922C100.836 15.4558 100.858 15.4229 100.885 15.3958C100.908 15.3688 100.924 15.3356 100.929 15.2998C100.935 15.2641 100.931 15.2275 100.917 15.1941C100.592 14.2418 96.8169 12.7181 96.032 12.5669C95.4913 12.4633 94.9427 12.4108 94.3929 12.41Z" fill="#231F20"></path><path d="M85.807 26.1181C85.807 26.1181 84.2373 33.3164 85.9885 38.442C86.4389 39.8718 87.2766 41.1329 88.3994 42.0711C89.5221 43.0093 90.881 43.5838 92.31 43.7244L93.3779 53.0065C93.3779 53.0065 93.8797 57.7568 99.3417 56.3228C100.925 55.9024 102.38 55.0641 103.568 53.8875C104.756 52.711 105.637 51.2353 106.128 49.6007L104.793 32.4481C104.793 32.4481 98.087 29.4511 97.9055 23.25C97.9055 23.25 90.8685 27.9891 85.807 26.1181Z" fill="white"></path><path d="M97.4191 56.8419C96.3681 56.9004 95.3354 56.536 94.5317 55.8229C93.728 55.1098 93.214 54.1019 93.0944 53.0047L92.0533 43.9523C90.6172 43.7595 89.2618 43.1466 88.142 42.1838C87.0222 41.2209 86.1833 39.9469 85.7211 38.5074C83.9645 33.393 85.4648 26.3516 85.5289 26.0547C85.5369 26.0163 85.5525 25.98 85.5745 25.9482C85.5966 25.9164 85.6247 25.8897 85.657 25.8698C85.6913 25.8532 85.7287 25.8446 85.7665 25.8446C85.8042 25.8446 85.8416 25.8532 85.8759 25.8698C90.7666 27.6736 97.6861 23.0689 97.7555 23.0297C97.7961 23.0051 97.8421 22.9922 97.889 22.9922C97.9358 22.9922 97.9819 23.0051 98.0224 23.0297C98.0641 23.0536 98.0992 23.0883 98.1244 23.1304C98.1497 23.1726 98.1642 23.2209 98.1666 23.2706C98.3214 29.2141 104.819 32.1886 104.883 32.2334C104.929 32.2525 104.968 32.2848 104.996 32.3265C105.024 32.3682 105.041 32.4175 105.043 32.4687L106.378 49.6213C106.383 49.6528 106.383 49.685 106.378 49.7165C105.86 51.389 104.949 52.8976 103.728 54.1028C102.508 55.3081 101.017 56.1711 99.3946 56.6122C98.7474 56.7724 98.084 56.8496 97.4191 56.8419ZM85.988 26.4804C85.7211 27.892 84.7226 33.9419 86.2229 38.3169C86.6499 39.6978 87.4536 40.9168 88.5346 41.823C89.6156 42.7291 90.9263 43.2825 92.3042 43.4145C92.3674 43.4169 92.4276 43.4431 92.4737 43.4884C92.5198 43.5337 92.5488 43.595 92.5552 43.661L93.623 52.9431C93.7823 54.0065 94.3276 54.9641 95.1446 55.6151C96.1484 56.3378 97.5259 56.4778 99.2611 56.0241C100.785 55.6121 102.187 54.8055 103.337 53.678C104.487 52.5506 105.349 51.1384 105.844 49.5708L104.526 32.6311C103.548 32.1494 98.1185 29.2085 97.6594 23.7355C96.127 24.6822 90.4622 27.9032 85.988 26.4804Z" fill="#231F20"></path><path d="M90.0793 38.0697C89.7942 38.076 89.5102 38.0286 89.2411 37.9296C89.1594 37.8981 89.0856 37.8474 89.0255 37.7813C88.9654 37.7153 88.9204 37.6358 88.894 37.5487C88.5043 36.4284 90.4958 32.692 90.9176 31.947C90.9523 31.8824 91.0101 31.835 91.0781 31.815C91.1462 31.7951 91.219 31.8042 91.2806 31.8405C91.3416 31.879 91.3858 31.941 91.4038 32.0132C91.4217 32.0855 91.412 32.1622 91.3767 32.227C90.421 33.958 89.1717 36.7085 89.3959 37.3415C89.3959 37.3807 89.3959 37.3863 89.4279 37.3863C90.3569 37.756 92.0494 37.0558 92.0655 37.0502C92.0981 37.0365 92.1329 37.0298 92.168 37.0303C92.2031 37.0308 92.2377 37.0385 92.27 37.0531C92.3022 37.0676 92.3314 37.0887 92.3559 37.1152C92.3803 37.1416 92.3996 37.1728 92.4125 37.207C92.4255 37.2412 92.432 37.2778 92.4315 37.3146C92.431 37.3514 92.4236 37.3878 92.4097 37.4216C92.3958 37.4554 92.3757 37.486 92.3506 37.5117C92.3254 37.5373 92.2956 37.5575 92.263 37.5711C91.5658 37.8609 90.8282 38.0293 90.0793 38.0697Z" fill="#231F20"></path><path d="M92.3659 40.695C90.8718 40.6424 89.4232 40.1429 88.1907 39.2554C88.1603 39.2365 88.1339 39.2113 88.113 39.1814C88.0921 39.1514 88.0772 39.1174 88.0693 39.0813C88.0613 39.0451 88.0604 39.0077 88.0665 38.9712C88.0727 38.9347 88.0859 38.8999 88.1053 38.8688C88.1238 38.8375 88.1481 38.8104 88.1766 38.7889C88.2052 38.7674 88.2375 38.7521 88.2717 38.7438C88.306 38.7355 88.3414 38.7343 88.3761 38.7404C88.4107 38.7465 88.4439 38.7597 88.4737 38.7792C90.4919 40.1236 92.3979 40.4597 94.1438 39.8043C95.4518 39.2872 96.5508 38.3141 97.2565 37.0483C97.2786 36.9776 97.3261 36.9187 97.389 36.8842C97.4518 36.8497 97.5249 36.8422 97.5929 36.8634C97.6589 36.8865 97.7137 36.9358 97.7456 37.0006C97.7775 37.0655 97.784 37.1409 97.7638 37.2107C97.0235 38.6448 95.8135 39.7491 94.3574 40.3197C93.7196 40.5662 93.0456 40.6932 92.3659 40.695Z" fill="#231F20"></path><path d="M92.2969 43.7038C92.2969 43.7038 97.1021 43.7038 99.7236 42.6562C99.7236 42.6562 97.588 50.3475 93.1031 50.874L92.2969 43.7038Z" fill="#231F20"></path><path d="M93.1026 51.1528C93.0373 51.1522 92.9744 51.1269 92.9254 51.0816C92.8764 51.0364 92.8446 50.9742 92.8356 50.9064L92.0294 43.7361C92.0247 43.6962 92.028 43.6556 92.0391 43.617C92.0501 43.5785 92.0686 43.5427 92.0935 43.5121C92.1186 43.4819 92.1499 43.4582 92.185 43.4426C92.2202 43.4271 92.2583 43.4202 92.2964 43.4224C92.3391 43.4224 97.1016 43.4224 99.627 42.3973C99.6731 42.3765 99.724 42.3701 99.7735 42.3788C99.823 42.3875 99.8691 42.4109 99.9063 42.4464C99.9434 42.4818 99.9701 42.5277 99.983 42.5786C99.996 42.6295 99.9947 42.6832 99.9794 42.7334C99.8886 43.0583 97.7529 50.6095 93.1293 51.136L93.1026 51.1528ZM92.5953 43.977L93.3321 50.5535C96.7652 49.9093 98.7407 44.7836 99.3013 43.1087C97.0161 43.8706 93.6205 43.9658 92.5953 43.977Z" fill="#231F20"></path><path d="M94.1945 32.0311C94.58 32.0046 94.8565 31.4075 94.8121 30.6975C94.7678 29.9874 94.4193 29.4333 94.0339 29.4598C93.6484 29.4863 93.3719 30.0834 93.4163 30.7935C93.4606 31.5035 93.809 32.0576 94.1945 32.0311Z" fill="#231F20"></path><path d="M87.757 32.4686C88.1425 32.4421 88.419 31.845 88.3746 31.135C88.3303 30.4249 87.9818 29.8708 87.5964 29.8973C87.2109 29.9238 86.9344 30.5209 86.9788 31.231C87.0231 31.941 87.3715 32.4951 87.757 32.4686Z" fill="#231F20"></path><path d="M113.598 37.8516C114.415 43.2853 115.734 53.3068 107.234 51.6151C105.453 51.2541 103.876 50.1816 102.834 48.6237C100.96 45.8229 104.885 41.0782 106.737 38.9383" fill="white"></path><path d="M108.995 52.0802C108.386 52.0745 107.778 52.0089 107.18 51.8841C105.33 51.5112 103.691 50.3983 102.61 48.7807C100.757 45.9799 103.96 41.7169 106.534 38.748C106.558 38.7219 106.587 38.7012 106.619 38.687C106.651 38.6729 106.686 38.6656 106.721 38.6656C106.756 38.6656 106.79 38.6729 106.822 38.687C106.854 38.7012 106.883 38.7219 106.908 38.748C106.933 38.774 106.952 38.805 106.966 38.8391C106.98 38.8733 106.987 38.9099 106.987 38.9469C106.987 38.9838 106.98 39.0204 106.966 39.0546C106.952 39.0887 106.933 39.1197 106.908 39.1457C105.493 40.7758 101.2 45.7334 103.026 48.4782C104.025 49.981 105.545 51.0143 107.26 51.3575C109.444 51.7945 111.099 51.4528 112.188 50.3436C114.783 47.7052 113.79 41.0895 113.304 37.9077C113.295 37.8344 113.313 37.7602 113.355 37.7006C113.396 37.641 113.459 37.6008 113.528 37.5884C113.598 37.5787 113.669 37.5978 113.726 37.6416C113.782 37.6855 113.821 37.7508 113.832 37.8237C114.366 41.3472 115.354 47.9069 112.562 50.747C112.08 51.2041 111.517 51.5572 110.905 51.786C110.293 52.0147 109.644 52.1147 108.995 52.0802Z" fill="#231F20"></path><path d="M95.1006 34.0984C92.8955 34.0984 91.1016 32.5243 91.1016 30.5917C91.1016 28.8664 92.5218 27.9141 95.1006 27.9141C97.6794 27.9141 99.0942 28.8664 99.0942 30.5917C99.0942 32.5243 97.3003 34.0984 95.1006 34.0984ZM95.1006 28.4966C93.4988 28.4966 91.6355 28.8664 91.6355 30.6141C91.6355 32.2386 93.1892 33.5606 95.1006 33.5606C97.012 33.5606 98.5603 32.2386 98.5603 30.6141C98.5603 28.844 96.6756 28.4742 95.1006 28.4742V28.4966Z" fill="#231F20"></path><path d="M87.021 34.0984C84.8213 34.0984 83.0273 32.5243 83.0273 30.5917C83.0273 28.8664 84.4476 27.9141 87.021 27.9141C89.5945 27.9141 91.02 28.8664 91.02 30.5917C91.02 32.5243 89.2261 34.0984 87.021 34.0984ZM87.021 28.4966C85.446 28.4966 83.5613 28.8664 83.5613 30.6141C83.5613 32.2386 85.1149 33.5606 87.021 33.5606C88.9271 33.5606 90.4861 32.2386 90.4861 30.6141C90.4861 28.844 88.6014 28.4742 87.021 28.4742V28.4966Z" fill="#231F20"></path><path d="M91.3692 30.8727H90.7552C90.6844 30.8727 90.6165 30.8432 90.5665 30.7906C90.5164 30.7381 90.4883 30.6669 90.4883 30.5926C90.4883 30.5183 90.5164 30.4471 90.5665 30.3945C90.6165 30.342 90.6844 30.3125 90.7552 30.3125H91.3692C91.44 30.3125 91.5079 30.342 91.558 30.3945C91.6081 30.4471 91.6362 30.5183 91.6362 30.5926C91.6362 30.6669 91.6081 30.7381 91.558 30.7906C91.5079 30.8432 91.44 30.8727 91.3692 30.8727Z" fill="#231F20"></path><path d="M104.885 30.8727H98.8256C98.7547 30.8727 98.6869 30.8432 98.6368 30.7906C98.5867 30.7381 98.5586 30.6669 98.5586 30.5926C98.5586 30.5183 98.5867 30.4471 98.6368 30.3945C98.6869 30.342 98.7547 30.3125 98.8256 30.3125H104.885C104.956 30.3139 105.023 30.3439 105.073 30.3961C105.122 30.4483 105.151 30.5188 105.152 30.5926C105.152 30.6669 105.124 30.7381 105.074 30.7906C105.024 30.8432 104.956 30.8727 104.885 30.8727Z" fill="#231F20"></path><path d="M101.852 31.5412C101.852 31.5412 103.523 25.861 106.486 28.9364C109.449 32.0118 106.123 36.2187 103.816 36.1739" fill="white"></path><path d="M103.828 36.4532C103.793 36.4532 103.759 36.446 103.727 36.4318C103.695 36.4177 103.665 36.397 103.641 36.3709C103.617 36.3448 103.598 36.3139 103.585 36.2799C103.572 36.246 103.566 36.2097 103.566 36.1731C103.566 36.1362 103.572 36.0994 103.585 36.0651C103.598 36.0307 103.618 35.9996 103.643 35.9734C103.668 35.9472 103.698 35.9266 103.73 35.9128C103.763 35.899 103.798 35.8923 103.833 35.8931H103.86C105.056 35.8931 106.53 34.6663 107.122 33.1426C107.411 32.4717 107.49 31.722 107.347 31.0013C107.204 30.2805 106.847 29.626 106.327 29.1317C105.675 28.4595 105.051 28.1906 104.474 28.3475C103 28.734 102.141 31.5909 102.136 31.6245C102.114 31.6988 102.066 31.7612 102.001 31.798C101.936 31.8347 101.859 31.8429 101.788 31.8206C101.718 31.7983 101.658 31.7474 101.623 31.6791C101.588 31.6108 101.58 31.5307 101.602 31.4565C101.639 31.3276 102.557 28.2691 104.325 27.8041C105.093 27.5969 105.884 27.9106 106.679 28.734C107.279 29.3032 107.69 30.0576 107.855 30.8884C108.019 31.7191 107.927 32.5831 107.592 33.3555C106.893 35.1032 105.248 36.4532 103.828 36.4532Z" fill="#231F20"></path><path d="M80.7445 59.6497H80.7178C80.6474 59.6412 80.583 59.6043 80.5381 59.5467C80.4933 59.4892 80.4715 59.4156 80.4775 59.3416C80.7358 56.1324 81.4708 52.9855 82.6559 50.0146C82.6857 49.947 82.7398 49.8946 82.8063 49.8689C82.8729 49.8431 82.9465 49.8462 83.011 49.8774C83.0754 49.9086 83.1254 49.9654 83.1499 50.0352C83.1744 50.1051 83.1715 50.1823 83.1418 50.2499C81.9808 53.1641 81.2602 56.2504 81.0061 59.3976C80.9996 59.466 80.9693 59.5294 80.9211 59.5759C80.8728 59.6224 80.81 59.6486 80.7445 59.6497Z" fill="#231F20"></path><path d="M81.0077 39.3516H30.5849C28.6417 39.3516 27.0664 41.0043 27.0664 43.0431V75.707C27.0664 77.7458 28.6417 79.3985 30.5849 79.3985H81.0077C82.9509 79.3985 84.5262 77.7458 84.5262 75.707V43.0431C84.5262 41.0043 82.9509 39.3516 81.0077 39.3516Z" fill="white"></path><path d="M80.9983 79.664H30.5862C29.5827 79.6626 28.6207 79.2436 27.9111 78.4991C27.2015 77.7546 26.8022 76.7453 26.8008 75.6924V43.0341C26.8022 41.9813 27.2015 40.9719 27.9111 40.2274C28.6207 39.4829 29.5827 39.064 30.5862 39.0625H80.9983C82.0019 39.064 82.9639 39.4829 83.6735 40.2274C84.3831 40.9719 84.7824 41.9813 84.7838 43.0341V75.6924C84.7824 76.7453 84.3831 77.7546 83.6735 78.4991C82.9639 79.2436 82.0019 79.6626 80.9983 79.664ZM30.5755 39.6227C29.7132 39.6227 28.8862 39.9821 28.2764 40.6219C27.6666 41.2616 27.324 42.1294 27.324 43.0341V75.6924C27.324 76.5972 27.6666 77.4649 28.2764 78.1047C28.8862 78.7444 29.7132 79.1039 30.5755 79.1039H80.9983C81.8607 79.1039 82.6877 78.7444 83.2975 78.1047C83.9073 77.4649 84.2499 76.5972 84.2499 75.6924V43.0341C84.2499 42.1294 83.9073 41.2616 83.2975 40.6219C82.6877 39.9821 81.8607 39.6227 80.9983 39.6227H30.5755Z" fill="#231F20"></path><path d="M60.2642 65.8125V79.3968L51.8711 79.0046L60.2642 65.8125Z" fill="#231F20"></path><path d="M60.2625 79.6697L51.8747 79.2775C51.8269 79.2739 51.7808 79.2576 51.7406 79.2302C51.7005 79.2028 51.6676 79.1651 51.6451 79.1207C51.6217 79.0781 51.6094 79.0298 51.6094 78.9807C51.6094 78.9315 51.6217 78.8832 51.6451 78.8406L60.0383 65.6485C60.0695 65.598 60.1157 65.5597 60.1697 65.5394C60.2237 65.5192 60.2826 65.5181 60.3372 65.5364C60.3927 65.5534 60.4414 65.5888 60.4761 65.6373C60.5107 65.6857 60.5295 65.7447 60.5295 65.8053V79.3896C60.5296 79.4276 60.5221 79.4653 60.5074 79.5C60.4926 79.5348 60.4711 79.5659 60.444 79.5912C60.4202 79.6162 60.3919 79.636 60.3607 79.6494C60.3296 79.6629 60.2962 79.6698 60.2625 79.6697ZM52.3552 78.7398L59.9955 79.0983V66.7296L52.3552 78.7398Z" fill="#231F20"></path><path d="M49.7776 65.9413C49.7776 65.9413 43.173 93.2331 42.8687 94.4431C42.5324 95.7427 43.5521 95.9443 45.2019 95.9443H60.9363V94.7568H54.2251C54.2251 94.7568 57.0922 81.0213 60.2636 65.8125L49.7776 65.9413Z" fill="white"></path><path d="M60.9352 96.2156H45.2275C43.9995 96.2156 43.1612 96.1092 42.7715 95.5714C42.6591 95.3954 42.588 95.1941 42.5639 94.9839C42.5397 94.7736 42.5633 94.5603 42.6326 94.3614C42.937 93.1906 49.4774 66.1398 49.5468 65.8653C49.5601 65.806 49.5922 65.7533 49.6378 65.7156C49.6833 65.678 49.7398 65.6577 49.7978 65.658L60.2838 65.5236C60.3228 65.5222 60.3616 65.5307 60.3969 65.5482C60.4322 65.5658 60.463 65.5919 60.4867 65.6244C60.5127 65.6565 60.5315 65.6943 60.5417 65.735C60.5519 65.7757 60.5531 65.8183 60.5454 65.8597L54.5763 94.4678H60.9566C61.0274 94.4678 61.0953 94.4974 61.1453 94.5499C61.1954 94.6024 61.2235 94.6737 61.2235 94.7479V95.9355C61.2236 95.9743 61.2161 96.0126 61.2014 96.0481C61.1866 96.0837 61.165 96.1156 61.1379 96.1419C61.1108 96.1682 61.0788 96.1884 61.0439 96.2011C61.009 96.2138 60.972 96.2187 60.9352 96.2156ZM49.9846 66.2126C49.3706 68.7502 43.4122 93.3867 43.1238 94.5071C43.078 94.623 43.058 94.7483 43.0654 94.8736C43.0729 94.9988 43.1074 95.1206 43.1666 95.2297C43.4389 95.605 44.3465 95.6554 45.2008 95.6554H60.6843V95.028H54.2239C54.1842 95.0285 54.145 95.0197 54.1089 95.0023C54.0729 94.9848 54.0411 94.9592 54.0157 94.9272C53.9915 94.8941 53.9743 94.856 53.9651 94.8155C53.9559 94.775 53.955 94.7329 53.9623 94.6919L59.9261 66.0837L49.9846 66.2126Z" fill="#231F20"></path><path d="M117.933 76.077C117.881 76.076 117.83 76.0591 117.786 76.0283C117.743 75.9975 117.708 75.9541 117.688 75.9034C115.552 70.4696 111.922 61.2884 111.938 60.8626C111.944 60.7898 111.976 60.7221 112.027 60.6725C112.079 60.6228 112.145 60.5948 112.215 60.5938C112.281 60.5964 112.344 60.6248 112.392 60.6735C112.439 60.7222 112.468 60.7876 112.471 60.857C112.589 61.4676 115.947 70.0495 118.184 75.6905C118.21 75.759 118.209 75.835 118.182 75.9028C118.155 75.9706 118.104 76.025 118.04 76.0546C118.007 76.07 117.97 76.0776 117.933 76.077Z" fill="#231F20"></path><path d="M76.9783 84.4907C76.9301 84.4914 76.8827 84.4782 76.8413 84.4525C76.7998 84.4268 76.7659 84.3896 76.7434 84.345C75.777 82.4124 72.4987 81.4713 72.472 81.4601C72.437 81.4505 72.4041 81.4338 72.3752 81.4109C72.3463 81.388 72.322 81.3594 72.3036 81.3266C72.2853 81.2938 72.2733 81.2576 72.2683 81.2199C72.2633 81.1823 72.2654 81.144 72.2745 81.1072C72.2836 81.0704 72.2995 81.0359 72.3214 81.0056C72.3432 80.9752 72.3705 80.9497 72.4018 80.9305C72.433 80.9112 72.4675 80.8986 72.5034 80.8934C72.5393 80.8881 72.5758 80.8904 72.6109 80.8999C72.755 80.9391 76.1454 81.9083 77.2239 84.0593C77.2558 84.1263 77.2613 84.2037 77.2394 84.275C77.2174 84.3462 77.1697 84.4056 77.1064 84.4402C77.0691 84.4694 77.0247 84.4869 76.9783 84.4907Z" fill="#231F20"></path><path d="M25.6175 93.0471C26.7115 93.0471 27.5984 92.1167 27.5984 90.9689C27.5984 89.8211 26.7115 88.8906 25.6175 88.8906C24.5236 88.8906 23.6367 89.8211 23.6367 90.9689C23.6367 92.1167 24.5236 93.0471 25.6175 93.0471Z" fill="#231F20"></path><path d="M25.615 93.3261C25.1704 93.3261 24.7358 93.1877 24.3662 92.9286C23.9965 92.6695 23.7084 92.3011 23.5383 91.8702C23.3682 91.4393 23.3236 90.9651 23.4104 90.5076C23.4971 90.0502 23.7112 89.6299 24.0255 89.3001C24.3399 88.9703 24.7404 88.7457 25.1764 88.6547C25.6125 88.5637 26.0644 88.6104 26.4752 88.7889C26.8859 88.9674 27.2369 89.2697 27.4839 89.6575C27.7309 90.0453 27.8627 90.5013 27.8627 90.9677C27.8613 91.5927 27.6241 92.1917 27.2028 92.6337C26.7816 93.0756 26.2107 93.3246 25.615 93.3261ZM25.615 89.1695C25.2767 89.1696 24.946 89.2746 24.6645 89.4715C24.383 89.6683 24.1633 89.9482 24.0332 90.2758C23.903 90.6034 23.8681 90.964 23.933 91.3124C23.9978 91.6607 24.1594 91.9811 24.3975 92.2333C24.6356 92.4854 24.9395 92.658 25.2709 92.7293C25.6023 92.8005 25.9464 92.7673 26.2598 92.6338C26.5732 92.5003 26.842 92.2724 27.0322 91.9789C27.2225 91.6854 27.3257 91.3394 27.3288 90.9845C27.3309 90.747 27.2882 90.5113 27.203 90.2912C27.1178 90.0711 26.9919 89.8709 26.8325 89.7021C26.6732 89.5334 26.4835 89.3994 26.2746 89.308C26.0656 89.2166 25.8414 89.1695 25.615 89.1695Z" fill="#231F20"></path><path d="M33.9638 95.8905H20.2742C19.8999 95.8905 19.5409 95.7349 19.2757 95.4577C19.0105 95.1805 18.8608 94.8044 18.8594 94.4116C18.8608 93.1929 19.3232 92.0245 20.1451 91.1632C20.967 90.302 22.0812 89.8182 23.2428 89.8182C23.2428 89.8182 28.9717 89.5549 31.8975 91.3531C34.8234 93.1512 35.432 95.8905 33.9638 95.8905Z" fill="white"></path><path d="M33.9651 96.1744H20.2756C19.8305 96.1744 19.4035 95.9892 19.0882 95.6595C18.773 95.3298 18.5952 94.8825 18.5938 94.4154C18.5952 93.1224 19.0857 91.8828 19.9577 90.969C20.8297 90.0552 22.0117 89.5419 23.2441 89.5419C23.4684 89.5419 29.0745 89.301 32.0377 91.1104C34.2161 92.4492 35.2412 94.3538 34.9582 95.4237C34.9035 95.6516 34.7738 95.8518 34.5922 95.9891C34.4105 96.1265 34.1884 96.1921 33.9651 96.1744ZM23.9809 90.0853C23.5378 90.0853 23.2655 90.0853 23.2548 90.0853C22.7136 90.0831 22.1773 90.193 21.6766 90.4088C21.176 90.6245 20.7209 90.9419 20.3374 91.3427C19.954 91.7434 19.6497 92.2197 19.4421 92.7441C19.2345 93.2685 19.1277 93.8308 19.1277 94.3986C19.1291 94.7171 19.2506 95.022 19.4658 95.2466C19.6809 95.4713 19.9721 95.5974 20.2756 95.5974H33.9651C34.3175 95.5974 34.4029 95.4069 34.4403 95.2613C34.6325 94.5219 33.8103 92.8301 31.7707 91.5809C29.5497 90.2365 25.604 90.0853 23.9809 90.0853Z" fill="#231F20"></path><path d="M21.0414 93.7018C21.0149 93.7072 20.9878 93.7072 20.9613 93.7018C20.8941 93.6787 20.8383 93.6286 20.8063 93.5624C20.7743 93.4962 20.7686 93.4194 20.7905 93.3489C21.3305 91.7449 22.4136 90.4052 23.8338 89.5845C23.8968 89.5513 23.9698 89.5456 24.0369 89.5687C24.1039 89.5918 24.1595 89.6418 24.1915 89.7077C24.2079 89.7403 24.2179 89.7761 24.2208 89.8128C24.2238 89.8495 24.2197 89.8865 24.2087 89.9215C24.1978 89.9566 24.1802 89.9889 24.157 90.0167C24.1339 90.0444 24.1057 90.067 24.074 90.083C22.7868 90.8449 21.802 92.065 21.2977 93.5225C21.2778 93.5765 21.2426 93.6227 21.1967 93.6548C21.1508 93.6869 21.0965 93.7033 21.0414 93.7018Z" fill="#231F20"></path><path d="M25.3776 96.1733C25.3233 96.1728 25.2704 96.1548 25.226 96.1219C25.1816 96.0889 25.1479 96.0426 25.1294 95.989C25.1108 95.9354 25.1082 95.8771 25.1221 95.822C25.1359 95.7668 25.1654 95.7174 25.2068 95.6804C25.2068 95.6804 26.8939 94.1511 26.9526 92.3921C26.9974 91.9389 26.9213 91.4815 26.7327 91.071C26.5442 90.6605 26.2506 90.3131 25.8848 90.0674C25.8532 90.0514 25.825 90.0288 25.8018 90.001C25.7787 89.9733 25.7611 89.941 25.7501 89.9059C25.7392 89.8709 25.735 89.8339 25.738 89.7972C25.741 89.7604 25.751 89.7247 25.7674 89.6921C25.7994 89.6261 25.855 89.5761 25.922 89.553C25.989 89.5299 26.062 89.5356 26.1251 89.5689C26.5844 89.8606 26.9558 90.2824 27.1967 90.7859C27.4375 91.2893 27.538 91.8538 27.4866 92.4145C27.4225 94.42 25.6285 96.0389 25.5485 96.1061C25.501 96.1493 25.4404 96.1732 25.3776 96.1733Z" fill="#231F20"></path><path d="M67.0364 0.28125H48.6484V17.5066H67.0364V0.28125Z" fill="white"></path><path d="M67.0377 17.8136H48.6498C48.5794 17.8122 48.5123 17.7822 48.4625 17.73C48.4127 17.6777 48.3842 17.6073 48.3828 17.5335V0.280088C48.3842 0.206253 48.4127 0.13584 48.4625 0.0836212C48.5123 0.0314022 48.5794 0.00143409 48.6498 0H67.0377C67.1085 0 67.1764 0.029509 67.2265 0.0820356C67.2766 0.134562 67.3047 0.205804 67.3047 0.280088V17.5055C67.3084 17.5446 67.3043 17.584 67.2926 17.6213C67.2809 17.6586 67.2618 17.6929 67.2366 17.7219C67.2114 17.751 67.1807 17.7741 67.1465 17.7899C67.1122 17.8057 67.0752 17.8138 67.0377 17.8136ZM48.9167 17.2534H66.7708V0.560176H48.9167V17.2534Z" fill="#D1D3D4"></path><path d="M54.5918 12.4394C54.5273 12.4401 54.4647 12.4162 54.4156 12.3722L51.2281 9.41444C51.1753 9.36352 51.1428 9.29344 51.1374 9.21838C51.1347 9.1802 51.14 9.14189 51.153 9.10609C51.1659 9.07029 51.1861 9.03788 51.2121 9.01111L54.4156 5.4652C54.44 5.43911 54.469 5.41839 54.5011 5.40425C54.5332 5.3901 54.5677 5.38281 54.6025 5.38281C54.6373 5.38281 54.6717 5.3901 54.7038 5.40425C54.7359 5.41839 54.765 5.43911 54.7893 5.4652C54.8144 5.49124 54.8342 5.52221 54.8478 5.55635C54.8613 5.59048 54.8683 5.62709 54.8683 5.66406C54.8683 5.70104 54.8613 5.73764 54.8478 5.77178C54.8342 5.80591 54.8144 5.83688 54.7893 5.86292L51.7674 9.22398L54.7733 12.0249C54.813 12.0627 54.8409 12.1121 54.8534 12.1668C54.8659 12.2215 54.8624 12.2789 54.8434 12.3315C54.8244 12.3841 54.7907 12.4294 54.7468 12.4617C54.7029 12.4939 54.6507 12.5115 54.5971 12.5122L54.5918 12.4394Z" fill="#D1D3D4"></path><path d="M60.468 12.4364C60.4297 12.436 60.3919 12.4274 60.357 12.411C60.3221 12.3946 60.2908 12.3708 60.2651 12.3412C60.2162 12.2888 60.1888 12.2184 60.1888 12.1451C60.1888 12.0718 60.2162 12.0014 60.2651 11.949L63.271 9.14816L60.2491 5.78711C60.2002 5.73288 60.1739 5.66051 60.1759 5.58592C60.1779 5.51134 60.2081 5.44064 60.2597 5.38938C60.3114 5.33813 60.3804 5.31051 60.4515 5.31261C60.5226 5.31471 60.59 5.34636 60.6388 5.40059L63.8423 8.9465C63.8666 8.97435 63.8852 9.00708 63.8972 9.04269C63.9091 9.07831 63.914 9.11609 63.9117 9.15376C63.9111 9.19086 63.9032 9.22743 63.8885 9.26117C63.8738 9.29491 63.8526 9.32509 63.8263 9.34982L60.6228 12.33C60.5837 12.3823 60.5293 12.4197 60.468 12.4364Z" fill="#D1D3D4"></path><path d="M55.4367 13.3661C55.3937 13.3656 55.3515 13.3541 55.3139 13.3325C55.2515 13.2968 55.2049 13.2371 55.184 13.1659C55.1631 13.0948 55.1694 13.0179 55.2017 12.9516L59.2061 4.92985C59.239 4.86486 59.295 4.81608 59.362 4.79407C59.4289 4.77206 59.5014 4.77858 59.5638 4.81222C59.5952 4.82932 59.623 4.85279 59.6456 4.88126C59.6683 4.90974 59.6853 4.94265 59.6958 4.97809C59.7062 5.01352 59.7098 5.05078 59.7064 5.0877C59.703 5.12461 59.6926 5.16045 59.6759 5.19313L55.6769 13.2373C55.651 13.2788 55.6152 13.3125 55.5731 13.3351C55.5309 13.3577 55.4839 13.3684 55.4367 13.3661Z" fill="#D1D3D4"></path><path d="M67.0377 2.88049H48.6498C48.5794 2.87905 48.5123 2.84908 48.4625 2.79686C48.4127 2.74465 48.3842 2.67424 48.3828 2.6004C48.3828 2.52612 48.4109 2.45487 48.461 2.40235C48.5111 2.34982 48.579 2.32031 48.6498 2.32031H67.0377C67.1085 2.32031 67.1764 2.34982 67.2265 2.40235C67.2766 2.45487 67.3047 2.52612 67.3047 2.6004C67.3047 2.67468 67.2766 2.74593 67.2265 2.79845C67.1764 2.85098 67.1085 2.88049 67.0377 2.88049Z" fill="#D1D3D4"></path><path d="M35.9047 4.69531H6.04297V33.7516H35.9047V4.69531Z" fill="white"></path><path d="M35.9061 34.0305H6.0443C5.9735 34.0305 5.9056 34.001 5.85554 33.9485C5.80547 33.896 5.77734 33.8247 5.77734 33.7505V4.69415C5.77734 4.61987 5.80547 4.54862 5.85554 4.4961C5.9056 4.44357 5.9735 4.41406 6.0443 4.41406H35.9061C35.9769 4.41406 36.0448 4.44357 36.0949 4.4961C36.1449 4.54862 36.173 4.61987 36.173 4.69415V33.7505C36.173 33.8247 36.1449 33.896 36.0949 33.9485C36.0448 34.001 35.9769 34.0305 35.9061 34.0305ZM6.31126 33.4704H35.6391V4.97424H6.31126V33.4704Z" fill="#D1D3D4"></path><path d="M35.9061 7.84924H6.0443C5.9735 7.84924 5.9056 7.81973 5.85554 7.7672C5.80547 7.71468 5.77734 7.64343 5.77734 7.56915C5.77734 7.49487 5.80547 7.42362 5.85554 7.3711C5.9056 7.31857 5.9735 7.28906 6.0443 7.28906H35.9061C35.9764 7.2905 36.0436 7.32047 36.0933 7.37269C36.1431 7.4249 36.1717 7.49532 36.173 7.56915C36.173 7.64343 36.1449 7.71468 36.0949 7.7672C36.0448 7.81973 35.9769 7.84924 35.9061 7.84924Z" fill="#D1D3D4"></path><path d="M12.2847 10.1696H8.63805C8.56725 10.1696 8.49934 10.14 8.44927 10.0875C8.39921 10.035 8.37109 9.96375 8.37109 9.88946C8.37109 9.81518 8.39921 9.74394 8.44927 9.69141C8.49934 9.63888 8.56725 9.60938 8.63805 9.60938H12.2847C12.3555 9.60938 12.4234 9.63888 12.4734 9.69141C12.5235 9.74394 12.5516 9.81518 12.5516 9.88946C12.5516 9.96375 12.5235 10.035 12.4734 10.0875C12.4234 10.14 12.3555 10.1696 12.2847 10.1696Z" fill="#D1D3D4"></path><path d="M21.5051 10.1696H14.2279C14.1571 10.1696 14.0892 10.14 14.0391 10.0875C13.9891 10.035 13.9609 9.96375 13.9609 9.88946C13.9609 9.81518 13.9891 9.74394 14.0391 9.69141C14.0892 9.63888 14.1571 9.60938 14.2279 9.60938H21.5051C21.5759 9.60938 21.6438 9.63888 21.6939 9.69141C21.744 9.74394 21.7721 9.81518 21.7721 9.88946C21.7721 9.96375 21.744 10.035 21.6939 10.0875C21.6438 10.14 21.5759 10.1696 21.5051 10.1696Z" fill="#D1D3D4"></path><path d="M23.6965 12.7633H16.4193C16.3485 12.7633 16.2806 12.7338 16.2305 12.6813C16.1805 12.6287 16.1523 12.5575 16.1523 12.4832C16.1523 12.4089 16.1805 12.3377 16.2305 12.2852C16.2806 12.2326 16.3485 12.2031 16.4193 12.2031H23.6965C23.7673 12.2031 23.8352 12.2326 23.8853 12.2852C23.9354 12.3377 23.9635 12.4089 23.9635 12.4832C23.9635 12.5575 23.9354 12.6287 23.8853 12.6813C23.8352 12.7338 23.7673 12.7633 23.6965 12.7633Z" fill="#D1D3D4"></path><path d="M13.1636 12.7633H9.51696C9.44658 12.7619 9.37948 12.7319 9.32971 12.6797C9.27994 12.6275 9.25137 12.557 9.25 12.4832C9.25 12.4089 9.27813 12.3377 9.32819 12.2852C9.37826 12.2326 9.44616 12.2031 9.51696 12.2031H13.1636C13.2344 12.2031 13.3023 12.2326 13.3524 12.2852C13.4024 12.3377 13.4306 12.4089 13.4306 12.4832C13.4306 12.5575 13.4024 12.6287 13.3524 12.6813C13.3023 12.7338 13.2344 12.7633 13.1636 12.7633Z" fill="#D1D3D4"></path><path d="M13.2983 15.3414H10.3724C10.3016 15.3414 10.2337 15.3119 10.1836 15.2594C10.1336 15.2069 10.1055 15.1356 10.1055 15.0613C10.1055 14.9871 10.1336 14.9158 10.1836 14.8633C10.2337 14.8108 10.3016 14.7812 10.3724 14.7812H13.2983C13.3691 14.7812 13.437 14.8108 13.487 14.8633C13.5371 14.9158 13.5652 14.9871 13.5652 15.0613C13.5652 15.1356 13.5371 15.2069 13.487 15.2594C13.437 15.3119 13.3691 15.3414 13.2983 15.3414Z" fill="#D1D3D4"></path><path d="M25.0005 15.3414H15.892C15.8212 15.3414 15.7533 15.3119 15.7032 15.2594C15.6531 15.2069 15.625 15.1356 15.625 15.0613C15.625 14.9871 15.6531 14.9158 15.7032 14.8633C15.7533 14.8108 15.8212 14.7812 15.892 14.7812H25.0005C25.0713 14.7812 25.1392 14.8108 25.1893 14.8633C25.2393 14.9158 25.2675 14.9871 25.2675 15.0613C25.2675 15.1356 25.2393 15.2069 25.1893 15.2594C25.1392 15.3119 25.0713 15.3414 25.0005 15.3414Z" fill="#D1D3D4"></path><path d="M14.8735 17.9352H11.2162C11.1454 17.9352 11.0775 17.9057 11.0274 17.8531C10.9773 17.8006 10.9492 17.7294 10.9492 17.6551C10.9492 17.5808 10.9773 17.5096 11.0274 17.457C11.0775 17.4045 11.1454 17.375 11.2162 17.375H14.8628C14.9336 17.375 15.0015 17.4045 15.0516 17.457C15.1016 17.5096 15.1298 17.5808 15.1298 17.6551C15.1298 17.7275 15.1032 17.7971 15.0554 17.8493C15.0076 17.9015 14.9424 17.9323 14.8735 17.9352Z" fill="#D1D3D4"></path><path d="M26.8852 17.9352H16.0521C15.9817 17.9337 15.9146 17.9038 15.8649 17.8516C15.8151 17.7993 15.7865 17.7289 15.7852 17.6551C15.7852 17.5808 15.8133 17.5096 15.8633 17.457C15.9134 17.4045 15.9813 17.375 16.0521 17.375H26.8852C26.956 17.375 27.0239 17.4045 27.074 17.457C27.124 17.5096 27.1522 17.5808 27.1522 17.6551C27.1522 17.6919 27.1453 17.7283 27.1319 17.7623C27.1184 17.7963 27.0988 17.8271 27.074 17.8531C27.0492 17.8791 27.0198 17.8998 26.9874 17.9139C26.955 17.9279 26.9203 17.9352 26.8852 17.9352Z" fill="#D1D3D4"></path><path d="M13.8901 20.5211H10.2435C10.1727 20.5211 10.1048 20.4916 10.0547 20.4391C10.0047 20.3866 9.97656 20.3153 9.97656 20.241C9.97656 20.1667 10.0047 20.0955 10.0547 20.043C10.1048 19.9904 10.1727 19.9609 10.2435 19.9609H13.8901C13.9609 19.9609 14.0288 19.9904 14.0789 20.043C14.129 20.0955 14.1571 20.1667 14.1571 20.241C14.1571 20.3153 14.129 20.3866 14.0789 20.4391C14.0288 20.4916 13.9609 20.5211 13.8901 20.5211Z" fill="#D1D3D4"></path><path d="M21.183 20.5211H15.3099C15.2391 20.5211 15.1712 20.4916 15.1212 20.4391C15.0711 20.3866 15.043 20.3153 15.043 20.241C15.043 20.1667 15.0711 20.0955 15.1212 20.043C15.1712 19.9904 15.2391 19.9609 15.3099 19.9609H21.183C21.2538 19.9609 21.3217 19.9904 21.3717 20.043C21.4218 20.0955 21.4499 20.1667 21.4499 20.241C21.4486 20.3149 21.42 20.3853 21.3702 20.4375C21.3205 20.4897 21.2533 20.5197 21.183 20.5211Z" fill="#D1D3D4"></path><path d="M29.3002 20.5211H23.4271C23.3563 20.5211 23.2884 20.4916 23.2383 20.4391C23.1883 20.3866 23.1602 20.3153 23.1602 20.241C23.1602 20.1667 23.1883 20.0955 23.2383 20.043C23.2884 19.9904 23.3563 19.9609 23.4271 19.9609H29.3002C29.371 19.9609 29.4389 19.9904 29.4889 20.043C29.539 20.0955 29.5671 20.1667 29.5671 20.241C29.5671 20.3153 29.539 20.3866 29.4889 20.4391C29.4389 20.4916 29.371 20.5211 29.3002 20.5211Z" fill="#D1D3D4"></path><path d="M11.5178 23.0992H10.2631C10.1922 23.0992 10.1244 23.0697 10.0743 23.0172C10.0242 22.9647 9.99609 22.8934 9.99609 22.8192C9.99609 22.7449 10.0242 22.6736 10.0743 22.6211C10.1244 22.5686 10.1922 22.5391 10.2631 22.5391H11.5178C11.5886 22.5391 11.6564 22.5686 11.7065 22.6211C11.7566 22.6736 11.7847 22.7449 11.7847 22.8192C11.7847 22.8934 11.7566 22.9647 11.7065 23.0172C11.6564 23.0697 11.5886 23.0992 11.5178 23.0992Z" fill="#D1D3D4"></path><path d="M21.1804 23.0992H13.6576C13.5868 23.0992 13.5189 23.0697 13.4688 23.0172C13.4188 22.9647 13.3906 22.8934 13.3906 22.8192C13.392 22.7453 13.4205 22.6749 13.4703 22.6227C13.5201 22.5705 13.5872 22.5405 13.6576 22.5391H21.1804C21.2508 22.5405 21.3179 22.5705 21.3677 22.6227C21.4174 22.6749 21.446 22.7453 21.4474 22.8192C21.4474 22.8934 21.4192 22.9647 21.3692 23.0172C21.3191 23.0697 21.2512 23.0992 21.1804 23.0992Z" fill="#D1D3D4"></path><path d="M24.1426 23.0992H22.0443C21.9735 23.0992 21.9056 23.0697 21.8555 23.0172C21.8055 22.9647 21.7773 22.8934 21.7773 22.8192C21.7773 22.7449 21.8055 22.6736 21.8555 22.6211C21.9056 22.5686 21.9735 22.5391 22.0443 22.5391H24.1426C24.2129 22.5405 24.2801 22.5705 24.3298 22.6227C24.3796 22.6749 24.4082 22.7453 24.4095 22.8192C24.4095 22.8934 24.3814 22.9647 24.3314 23.0172C24.2813 23.0697 24.2134 23.0992 24.1426 23.0992Z" fill="#D1D3D4"></path><path d="M12.2332 25.6852H10.2631C10.1922 25.6852 10.1244 25.6557 10.0743 25.6031C10.0242 25.5506 9.99609 25.4794 9.99609 25.4051C9.99609 25.3308 10.0242 25.2596 10.0743 25.207C10.1244 25.1545 10.1922 25.125 10.2631 25.125H12.2332C12.304 25.125 12.3719 25.1545 12.422 25.207C12.472 25.2596 12.5001 25.3308 12.5001 25.4051C12.5001 25.4794 12.472 25.5506 12.422 25.6031C12.3719 25.6557 12.304 25.6852 12.2332 25.6852Z" fill="#D1D3D4"></path><path d="M23.0221 25.6852H14.0951C14.0243 25.6852 13.9564 25.6557 13.9063 25.6031C13.8562 25.5506 13.8281 25.4794 13.8281 25.4051C13.8281 25.3308 13.8562 25.2596 13.9063 25.207C13.9564 25.1545 14.0243 25.125 14.0951 25.125H23.0221C23.0929 25.125 23.1608 25.1545 23.2109 25.207C23.2609 25.2596 23.2891 25.3308 23.2891 25.4051C23.2891 25.4794 23.2609 25.5506 23.2109 25.6031C23.1608 25.6557 23.0929 25.6852 23.0221 25.6852Z" fill="#D1D3D4"></path><path d="M27.5503 25.6852H23.9037C23.8329 25.6852 23.765 25.6557 23.7149 25.6031C23.6648 25.5506 23.6367 25.4794 23.6367 25.4051C23.6367 25.3308 23.6648 25.2596 23.7149 25.207C23.765 25.1545 23.8329 25.125 23.9037 25.125H27.5503C27.6211 25.125 27.689 25.1545 27.7391 25.207C27.7891 25.2596 27.8173 25.3308 27.8173 25.4051C27.8173 25.4794 27.7891 25.5506 27.7391 25.6031C27.689 25.6557 27.6211 25.6852 27.5503 25.6852Z" fill="#D1D3D4"></path><path d="M11.3418 28.2789H9.40368C9.3333 28.2775 9.26618 28.2475 9.21641 28.1953C9.16664 28.1431 9.13809 28.0727 9.13672 27.9988C9.13672 27.9246 9.16485 27.8533 9.21491 27.8008C9.26498 27.7483 9.33287 27.7188 9.40368 27.7188H11.3418C11.4126 27.7188 11.4805 27.7483 11.5305 27.8008C11.5806 27.8533 11.6087 27.9246 11.6087 27.9988C11.6074 28.0727 11.5788 28.1431 11.529 28.1953C11.4793 28.2475 11.4122 28.2775 11.3418 28.2789Z" fill="#D1D3D4"></path><path d="M22.0469 28.2789H13.5951C13.5243 28.2789 13.4564 28.2494 13.4063 28.1969C13.3562 28.1444 13.3281 28.0731 13.3281 27.9988C13.3281 27.9246 13.3562 27.8533 13.4063 27.8008C13.4564 27.7483 13.5243 27.7188 13.5951 27.7188H22.0469C22.1177 27.7188 22.1856 27.7483 22.2357 27.8008C22.2858 27.8533 22.3139 27.9246 22.3139 27.9988C22.3125 28.0727 22.2839 28.1431 22.2342 28.1953C22.1844 28.2475 22.1173 28.2775 22.0469 28.2789Z" fill="#D1D3D4"></path><path d="M13.0503 30.8571H9.40368C9.33287 30.8571 9.26498 30.8275 9.21491 30.775C9.16485 30.7225 9.13672 30.6512 9.13672 30.577C9.13809 30.5031 9.16664 30.4327 9.21641 30.3805C9.26618 30.3283 9.3333 30.2983 9.40368 30.2969H13.0503C13.1211 30.2969 13.189 30.3264 13.2391 30.3789C13.2891 30.4314 13.3173 30.5027 13.3173 30.577C13.3173 30.6512 13.2891 30.7225 13.2391 30.775C13.189 30.8275 13.1211 30.8571 13.0503 30.8571Z" fill="#D1D3D4"></path><path d="M33.2902 17.9352H28.3568C28.286 17.9352 28.2181 17.9057 28.168 17.8531C28.118 17.8006 28.0898 17.7294 28.0898 17.6551C28.0898 17.5808 28.118 17.5096 28.168 17.457C28.2181 17.4045 28.286 17.375 28.3568 17.375H33.2902C33.361 17.375 33.4289 17.4045 33.4789 17.457C33.529 17.5096 33.5571 17.5808 33.5571 17.6551C33.5557 17.7289 33.5272 17.7993 33.4774 17.8516C33.4276 17.9038 33.3605 17.9337 33.2902 17.9352Z" fill="#D1D3D4"></path><path d="M25.908 10.1771C23.436 10.1771 23.388 10.1771 23.3559 10.1771C23.2882 10.1574 23.2305 10.1105 23.1956 10.0465C23.1606 9.98255 23.1511 9.90667 23.1691 9.83538C23.1844 9.76852 23.223 9.71012 23.2774 9.67174C23.3318 9.63336 23.3979 9.61779 23.4627 9.62811C23.751 9.62811 28.5242 9.62811 31.6796 9.62811C31.7492 9.63214 31.8149 9.66294 31.8641 9.71462C31.9134 9.7663 31.9428 9.83522 31.9466 9.9082C31.9466 9.98248 31.9185 10.0537 31.8684 10.1063C31.8183 10.1588 31.7505 10.1883 31.6796 10.1883C28.962 10.1771 27.136 10.1771 25.908 10.1771Z" fill="#D1D3D4"></path><path d="M26.7024 28.2789H23.0131C22.9422 28.2789 22.8744 28.2494 22.8243 28.1969C22.7742 28.1444 22.7461 28.0731 22.7461 27.9988C22.7461 27.9246 22.7742 27.8533 22.8243 27.8008C22.8744 27.7483 22.9422 27.7188 23.0131 27.7188H26.7024C26.7732 27.7188 26.8411 27.7483 26.8912 27.8008C26.9412 27.8533 26.9694 27.9246 26.9694 27.9988C26.9694 28.0731 26.9412 28.1444 26.8912 28.1969C26.8411 28.2494 26.7732 28.2789 26.7024 28.2789Z" fill="#D1D3D4"></path><path d="M18.2463 30.8571H15.5287C15.4579 30.8571 15.39 30.8275 15.3399 30.775C15.2898 30.7225 15.2617 30.6512 15.2617 30.577C15.2631 30.5031 15.2916 30.4327 15.3414 30.3805C15.3912 30.3283 15.4583 30.2983 15.5287 30.2969H18.2463C18.3167 30.2983 18.3838 30.3283 18.4335 30.3805C18.4833 30.4327 18.5119 30.5031 18.5132 30.577C18.5132 30.6512 18.4851 30.7225 18.4351 30.775C18.385 30.8275 18.3171 30.8571 18.2463 30.8571Z" fill="#D1D3D4"></path><path d="M25.7245 30.8571H19.2748C19.204 30.8571 19.1361 30.8275 19.086 30.775C19.0359 30.7225 19.0078 30.6512 19.0078 30.577C19.0078 30.5027 19.0359 30.4314 19.086 30.3789C19.1361 30.3264 19.204 30.2969 19.2748 30.2969H25.7245C25.7953 30.2969 25.8632 30.3264 25.9132 30.3789C25.9633 30.4314 25.9914 30.5027 25.9914 30.577C25.9914 30.6512 25.9633 30.7225 25.9132 30.775C25.8632 30.8275 25.7953 30.8571 25.7245 30.8571Z" fill="#D1D3D4"></path></svg>