<svg xmlns="http://www.w3.org/2000/svg" width="162" height="120" viewBox="0 0 162 120" fill="none"><path d="M161.686 108.582H0.313637C0.230456 108.582 0.15068 108.554 0.091862 108.505C0.0330436 108.455 0 108.388 0 108.318C0 108.248 0.0330436 108.181 0.091862 108.132C0.15068 108.082 0.230456 108.055 0.313637 108.055H161.686C161.77 108.055 161.849 108.082 161.908 108.132C161.967 108.181 162 108.248 162 108.318C162 108.388 161.967 108.455 161.908 108.505C161.849 108.554 161.77 108.582 161.686 108.582Z" fill="#D1D3D4"></path><path d="M148.177 62.3438H112.152V114.333H148.177V62.3438Z" fill="white"></path><path d="M148.174 114.587H112.15C112.066 114.587 111.987 114.559 111.928 114.51C111.869 114.46 111.836 114.393 111.836 114.323V62.3339C111.836 62.264 111.869 62.197 111.928 62.1475C111.987 62.0981 112.066 62.0703 112.15 62.0703H148.174C148.257 62.0703 148.337 62.0981 148.396 62.1475C148.455 62.197 148.488 62.264 148.488 62.3339V114.313C148.489 114.348 148.482 114.384 148.467 114.417C148.452 114.45 148.43 114.48 148.4 114.506C148.371 114.532 148.336 114.552 148.297 114.566C148.258 114.58 148.216 114.587 148.174 114.587ZM112.463 114.06H147.86V62.5976H112.463V114.06Z" fill="#231F20"></path><path d="M48.9267 62.3438H12.9023V114.333H48.9267V62.3438Z" fill="white"></path><path d="M48.9279 114.587H12.9035C12.8203 114.587 12.7405 114.559 12.6817 114.51C12.6229 114.46 12.5898 114.393 12.5898 114.323V62.3339C12.5898 62.264 12.6229 62.197 12.6817 62.1475C12.7405 62.0981 12.8203 62.0703 12.9035 62.0703H48.9279C49.0111 62.0703 49.0908 62.0981 49.1497 62.1475C49.2085 62.197 49.2415 62.264 49.2415 62.3339V114.313C49.2432 114.348 49.2363 114.384 49.2213 114.417C49.2063 114.45 49.1835 114.48 49.1542 114.506C49.1249 114.532 49.0898 114.552 49.0509 114.566C49.012 114.58 48.9701 114.587 48.9279 114.587ZM13.2171 114.06H48.6142V62.5976H13.2171V114.06Z" fill="#231F20"></path><path d="M118.856 47.2656L125.988 59.3033H106.699L118.856 47.2656Z" fill="#231F20"></path><path d="M125.985 59.5706H106.715C106.654 59.5705 106.595 59.5562 106.544 59.5291C106.493 59.5021 106.452 59.4634 106.426 59.4176C106.401 59.372 106.393 59.3213 106.402 59.2716C106.411 59.222 106.437 59.1756 106.476 59.1382L118.633 47.1005C118.666 47.0664 118.708 47.0402 118.757 47.0245C118.805 47.0087 118.858 47.004 118.909 47.0109C118.961 47.0157 119.01 47.0313 119.053 47.0561C119.095 47.081 119.13 47.1143 119.154 47.1532L126.28 59.1909C126.306 59.2294 126.32 59.273 126.32 59.3175C126.32 59.3619 126.306 59.4055 126.28 59.444C126.25 59.4865 126.206 59.5211 126.154 59.5435C126.102 59.5659 126.043 59.5753 125.985 59.5706ZM107.373 59.0433H125.477L118.784 47.749L107.373 59.0433Z" fill="#231F20"></path><path d="M64.0781 59.3028H110.001L126.661 38.7812H83.3104L64.0781 59.3028Z" fill="#231F20"></path><path d="M109.998 59.5644H64.0622C64.0034 59.5642 63.9459 59.5501 63.8961 59.5237C63.8464 59.4973 63.8065 59.4597 63.781 59.4152C63.7555 59.3706 63.7454 59.321 63.7519 59.2719C63.7584 59.2227 63.7811 59.1761 63.8176 59.1374L83.0498 38.6158C83.0787 38.5844 83.1158 38.5591 83.1582 38.5417C83.2006 38.5244 83.2473 38.5154 83.2944 38.5156H126.645C126.702 38.5171 126.757 38.531 126.806 38.556C126.854 38.581 126.894 38.6161 126.921 38.658C126.952 38.6991 126.968 38.7466 126.968 38.7951C126.968 38.8436 126.952 38.8911 126.921 38.9322L110.261 59.4484C110.232 59.4849 110.193 59.5147 110.147 59.535C110.101 59.5553 110.05 59.5654 109.998 59.5644ZM64.7208 59.0372H109.853L126.087 39.0429H83.4575L64.7208 59.0372Z" fill="#231F20"></path><path d="M84.6896 40.7734L70.9648 55.7217H105.045L117.941 40.7734H84.6896Z" fill="white"></path><path d="M105.047 55.9834H70.9674C70.9087 55.9835 70.851 55.9697 70.8011 55.9436C70.7512 55.9175 70.711 55.8801 70.6852 55.8357C70.656 55.7932 70.6406 55.7451 70.6406 55.696C70.6406 55.6469 70.656 55.5988 70.6852 55.5563L84.4162 40.608C84.4451 40.5767 84.4822 40.5513 84.5246 40.5339C84.567 40.5166 84.6137 40.5076 84.6609 40.5079H117.906C117.964 40.507 118.02 40.52 118.069 40.5452C118.118 40.5704 118.157 40.6069 118.182 40.6502C118.213 40.6913 118.229 40.7388 118.229 40.7873C118.229 40.8358 118.213 40.8833 118.182 40.9244L105.286 55.8726C105.259 55.9053 105.223 55.9322 105.182 55.9514C105.141 55.9706 105.094 55.9815 105.047 55.9834ZM71.6073 55.4561H104.853L117.329 41.0246H84.849L71.6073 55.4561Z" fill="#231F20"></path><path d="M94.4474 53C94.3822 52.9995 94.3188 52.9821 94.2659 52.9499C94.2131 52.9178 94.1735 52.8726 94.1526 52.8207C92.5029 48.7343 90.2071 44.2525 89.3728 44.147C88.3754 44.147 81.9772 48.5919 76.2941 52.9367C76.2325 52.9842 76.151 53.0093 76.0675 53.0063C75.984 53.0033 75.9053 52.9726 75.8487 52.9209C75.7922 52.8691 75.7624 52.8006 75.7659 52.7304C75.7694 52.6602 75.806 52.594 75.8676 52.5465C77.8372 51.0438 87.629 43.625 89.4292 43.625H89.4982C91.1041 43.8306 93.9456 50.585 94.7799 52.6519C94.7935 52.6848 94.7991 52.7196 94.7963 52.7544C94.7935 52.7891 94.7824 52.8229 94.7637 52.854C94.7449 52.885 94.7189 52.9125 94.6872 52.9349C94.6555 52.9572 94.6188 52.974 94.5792 52.9841C94.5377 52.999 94.4922 53.0045 94.4474 53Z" fill="#D1D3D4"></path><path d="M104.684 53.5508C104.616 53.5504 104.549 53.5312 104.495 53.4959C104.44 53.4607 104.401 53.4114 104.383 53.3557C103.279 50.0602 101.705 46.5433 100.965 46.3587C100.224 46.1742 96.787 48.7842 93.9893 51.294C93.9319 51.3451 93.8528 51.3748 93.7692 51.3768C93.6857 51.3788 93.6047 51.3528 93.5439 51.3046C93.4832 51.2563 93.4478 51.1898 93.4454 51.1196C93.4431 51.0494 93.474 50.9812 93.5314 50.9302C94.9616 49.6489 99.7289 45.4993 101.147 45.8578C102.564 46.2164 104.597 52.048 104.985 53.2397C105.009 53.3068 104.999 53.3789 104.959 53.4402C104.919 53.5016 104.852 53.547 104.772 53.5666L104.684 53.5508Z" fill="#D1D3D4"></path><path d="M114.767 48.9313C113.995 48.9313 113.387 48.6202 113.387 48.2247C113.387 47.8293 114.014 47.5234 114.767 47.5234C115.519 47.5234 116.147 47.8293 116.147 48.2247C116.147 48.6202 115.538 48.9313 114.767 48.9313ZM114.767 47.6553C114.102 47.6553 113.512 47.9136 113.512 48.2247C113.512 48.5358 114.07 48.7994 114.767 48.7994C115.463 48.7994 115.99 48.5358 115.99 48.2247C115.99 47.9136 115.432 47.6711 114.767 47.6711V47.6553Z" fill="#A7A9AC"></path><path d="M120.247 42.9521H117.462C117.443 42.9509 117.424 42.9439 117.41 42.9322C117.397 42.9206 117.388 42.9052 117.387 42.8889C117.387 42.8716 117.394 42.8549 117.408 42.8422C117.422 42.8294 117.441 42.8216 117.462 42.8203H120.247C120.258 42.8203 120.268 42.8221 120.277 42.8256C120.287 42.8291 120.296 42.8342 120.303 42.8407C120.31 42.8471 120.315 42.8547 120.319 42.863C120.322 42.8713 120.323 42.8801 120.322 42.8889C120.322 42.9056 120.314 42.9217 120.3 42.9336C120.286 42.9455 120.267 42.9521 120.247 42.9521Z" fill="#A7A9AC"></path><path d="M109.999 59.5596C109.932 59.5601 109.866 59.5436 109.811 59.5122C109.745 59.4702 109.7 59.4082 109.687 59.3393C109.675 59.2705 109.694 59.2001 109.742 59.1431L118.636 48.8823C118.661 48.8542 118.691 48.8304 118.727 48.8123C118.762 48.7941 118.801 48.782 118.842 48.7766C118.882 48.7712 118.924 48.7727 118.964 48.7809C119.004 48.789 119.042 48.8038 119.076 48.8243C119.142 48.8663 119.186 48.9283 119.199 48.9971C119.212 49.066 119.192 49.1363 119.145 49.1934L110.25 59.4753C110.218 59.5039 110.179 59.5262 110.135 59.5408C110.092 59.5554 110.045 59.5618 109.999 59.5596Z" fill="white"></path><path d="M94.4464 44.5778C94.1735 44.5778 93.9067 44.5098 93.6797 44.3823C93.4528 44.2549 93.2759 44.0737 93.1715 43.8617C93.067 43.6498 93.0397 43.4165 93.0929 43.1915C93.1462 42.9665 93.2776 42.7598 93.4706 42.5976C93.6636 42.4353 93.9095 42.3249 94.1772 42.2801C94.4449 42.2353 94.7224 42.2583 94.9745 42.3461C95.2267 42.4339 95.4422 42.5826 95.5938 42.7734C95.7455 42.9641 95.8264 43.1884 95.8264 43.4178C95.8264 43.7255 95.681 44.0205 95.4222 44.2381C95.1634 44.4556 94.8124 44.5778 94.4464 44.5778ZM94.4464 42.7851C94.2975 42.7851 94.152 42.8222 94.0282 42.8917C93.9044 42.9612 93.808 43.0601 93.751 43.1757C93.694 43.2913 93.6791 43.4185 93.7081 43.5413C93.7372 43.664 93.8089 43.7767 93.9142 43.8652C94.0194 43.9537 94.1535 44.014 94.2996 44.0384C94.4456 44.0628 94.5969 44.0503 94.7345 44.0024C94.872 43.9545 94.9896 43.8734 95.0723 43.7693C95.155 43.6653 95.1991 43.543 95.1991 43.4178C95.2 43.3345 95.1811 43.2519 95.1435 43.1749C95.106 43.0978 95.0506 43.0277 94.9805 42.9688C94.9105 42.9099 94.8272 42.8634 94.7355 42.8318C94.6437 42.8003 94.5455 42.7844 94.4464 42.7851Z" fill="#D1D3D4"></path><path d="M149.706 59.75H8.11719V64.796H149.706V59.75Z" fill="white"></path><path d="M149.709 65.0577H8.11442C8.03124 65.0577 7.95146 65.0299 7.89264 64.9805C7.83382 64.931 7.80078 64.864 7.80078 64.794V59.748C7.80239 59.6785 7.83595 59.6122 7.89442 59.5631C7.9529 59.5139 8.03174 59.4857 8.11442 59.4844H149.709C149.792 59.4857 149.871 59.5139 149.929 59.5631C149.988 59.6122 150.021 59.6785 150.023 59.748V64.794C150.023 64.864 149.99 64.931 149.931 64.9805C149.872 65.0299 149.792 65.0577 149.709 65.0577ZM8.42806 64.5304H149.37V60.0064H8.42806V64.5304Z" fill="#231F20"></path><path d="M61.3689 87.0469C61.5006 87.4213 53.5781 111.328 53.5781 111.328L64.6495 112.825L77.7345 79.7969L61.3689 87.0469Z" fill="white"></path><path d="M64.6532 113.087H64.603L53.5316 111.59C53.4874 111.584 53.445 111.571 53.4072 111.551C53.3694 111.531 53.337 111.505 53.312 111.474C53.2682 111.408 53.2548 111.331 53.2744 111.257C56.3669 101.946 60.9711 87.8623 61.0589 87.0714C61.0545 87.0199 61.0683 86.9684 61.0984 86.9234C61.1285 86.8785 61.1736 86.8419 61.2282 86.8183L77.5938 79.5682C77.6498 79.5446 77.7127 79.535 77.775 79.5406C77.8373 79.5462 77.8964 79.5668 77.9451 79.5999C77.9909 79.6352 78.024 79.6806 78.0406 79.7309C78.0572 79.7813 78.0567 79.8345 78.0392 79.8846L64.948 112.913C64.9269 112.964 64.887 113.009 64.8341 113.04C64.7811 113.071 64.7178 113.088 64.6532 113.087ZM53.9895 111.11L64.4524 112.528L77.2112 80.3381L61.6548 87.2243C61.3098 88.7375 58.7317 96.7574 53.9769 111.11H53.9895Z" fill="#231F20"></path><path d="M52.9139 110.291L51.2266 114.752L77.7415 116.476C76.4963 114.368 74.3433 112.737 71.7196 111.915C68.9659 111.103 65.9989 110.133 65.9989 110.133L64.6565 112.822L52.9139 110.291Z" fill="#231F20"></path><path d="M77.7353 116.744L51.2204 115.019C51.1731 115.016 51.1273 115.005 51.0863 114.985C51.0453 114.965 51.0102 114.937 50.9836 114.904C50.957 114.871 50.9397 114.834 50.9329 114.794C50.9261 114.755 50.9301 114.715 50.9444 114.677L52.6318 110.216C52.6564 110.152 52.709 110.099 52.779 110.066C52.8489 110.034 52.9308 110.025 53.0081 110.042L64.4873 112.515L65.7418 110.037C65.757 110.005 65.7794 109.976 65.8078 109.952C65.8362 109.928 65.87 109.909 65.9074 109.895C65.9447 109.882 65.9847 109.875 66.0252 109.875C66.0657 109.875 66.1058 109.881 66.1433 109.894C66.1746 109.894 69.1354 110.87 71.8577 111.671C74.565 112.515 76.785 114.198 78.0615 116.374C78.0879 116.414 78.1017 116.458 78.1017 116.504C78.1017 116.549 78.0879 116.593 78.0615 116.633C78.0278 116.678 77.9782 116.713 77.9196 116.732C77.8611 116.752 77.7966 116.756 77.7353 116.744ZM51.6344 114.518L77.1959 116.185C75.9538 114.336 73.9774 112.914 71.6131 112.167C69.3737 111.508 66.9713 110.738 66.1621 110.48L64.9389 112.926C64.9097 112.985 64.8564 113.034 64.7885 113.063C64.7207 113.091 64.6428 113.099 64.5688 113.084L53.1148 110.627L51.6344 114.518Z" fill="#231F20"></path><path d="M34.2977 87.3672L32.4159 112.55C32.4159 112.55 26.0553 112.734 24.462 113.673C22.8688 114.611 21.5703 118.861 21.5703 118.861H23.5525C23.5525 118.861 24.7067 115.698 25.9738 115.318C27.2409 114.938 34.442 114.791 34.442 114.791C34.442 114.791 37.9171 115.919 38.4754 117.854C38.9145 119.378 38.789 119.731 38.789 119.731H40.9845C40.9792 118.864 40.8314 118.002 40.5454 117.169C40.1063 116.114 38.4565 114.854 38.4565 114.854C38.4565 114.854 42.0885 114.917 43.2991 114.917C44.5097 114.917 45.7706 116.858 45.7706 116.858H48.1354C48.1354 116.858 45.6639 113.357 44.0644 113.109C42.4648 112.861 38.3625 112.26 38.3625 112.26L37.2459 88.7961L34.2977 87.3672Z" fill="#231F20"></path><path d="M41.0133 120.001H38.8179C38.7684 120 38.7198 119.99 38.6754 119.972C38.6309 119.954 38.5918 119.927 38.5607 119.895C38.5324 119.861 38.5138 119.822 38.5062 119.781C38.4986 119.74 38.5022 119.698 38.5168 119.658C38.5196 119.069 38.4116 118.484 38.1969 117.923C37.7264 116.273 34.8472 115.213 34.4332 115.065C32.3946 115.102 27.1129 115.26 26.1281 115.593C25.3126 115.846 24.3278 117.797 23.9013 118.962C23.8814 119.016 23.8415 119.064 23.7874 119.098C23.7334 119.132 23.6678 119.151 23.6002 119.152H21.5992C21.5516 119.15 21.5049 119.14 21.4626 119.122C21.4203 119.104 21.3834 119.078 21.3545 119.046C21.3257 119.014 21.3056 118.977 21.2959 118.938C21.2861 118.899 21.2869 118.858 21.2981 118.819C21.3483 118.645 22.6405 114.464 24.309 113.483C25.7831 112.619 30.8703 112.371 32.1499 112.323L33.9941 87.3728C33.9983 87.3284 34.0154 87.2854 34.0438 87.2478C34.0722 87.2101 34.1112 87.1788 34.1572 87.1566C34.2035 87.1359 34.2552 87.125 34.3078 87.125C34.3603 87.125 34.412 87.1359 34.4583 87.1566L37.4316 88.5961C37.4776 88.6178 37.5162 88.6491 37.5437 88.6869C37.5711 88.7248 37.5865 88.768 37.5884 88.8123L38.6987 112.065C39.6145 112.197 42.8011 112.661 44.156 112.877C45.8371 113.141 48.1768 116.378 48.434 116.747C48.4615 116.787 48.476 116.833 48.476 116.879C48.476 116.925 48.4615 116.971 48.434 117.011C48.4064 117.052 48.3664 117.087 48.3179 117.111C48.2694 117.135 48.2143 117.148 48.158 117.148H45.7932C45.7369 117.148 45.6817 117.135 45.6333 117.111C45.5848 117.087 45.5448 117.052 45.5172 117.011C45.0655 116.315 44.0619 115.208 43.3217 115.208C42.4686 115.208 40.3986 115.176 39.257 115.16C39.9385 115.714 40.4841 116.375 40.8628 117.106C41.1637 117.962 41.3179 118.85 41.3207 119.742C41.3191 119.81 41.2862 119.875 41.2289 119.923C41.1716 119.972 41.0943 119.999 41.0133 120.001ZM39.1315 119.473H40.6809C40.6601 118.723 40.5209 117.978 40.2669 117.259C39.8591 116.273 38.2784 115.071 38.2596 115.055C38.2135 115.019 38.1812 114.972 38.1667 114.92C38.1522 114.869 38.1561 114.814 38.178 114.765C38.2041 114.716 38.2463 114.674 38.2995 114.644C38.3528 114.614 38.4151 114.597 38.4791 114.596C38.5168 114.596 42.1173 114.659 43.3154 114.659C44.5135 114.659 45.6301 116.109 45.9688 116.6H47.5872C46.7466 115.487 45.0781 113.536 44.0243 113.373C42.4498 113.125 38.3788 112.534 38.3286 112.529C38.2565 112.519 38.1907 112.489 38.1426 112.442C38.0945 112.396 38.0671 112.337 38.0651 112.276L36.9674 88.9599L34.5838 87.8052L32.7584 112.587C32.7538 112.652 32.7204 112.714 32.6647 112.76C32.6091 112.806 32.5351 112.832 32.4573 112.835C30.7135 112.888 25.9148 113.178 24.6728 113.889C23.5437 114.554 22.4523 117.259 22.0069 118.598H23.3493C23.6378 117.855 24.6665 115.434 25.8584 115.071C27.0502 114.707 34.1384 114.543 34.4332 114.543H34.5524C34.7029 114.591 38.1906 115.74 38.7802 117.786C38.9668 118.337 39.0887 118.902 39.1441 119.473H39.1315Z" fill="#231F20"></path><path d="M70.5709 71.2969C70.5709 71.2969 95.6242 72.42 97.205 75.4202C98.7857 78.4204 87.1686 111.412 87.1686 111.412C87.1686 111.412 99.4318 114.976 97.4245 115.725C95.4172 116.474 75.3444 114.976 75.3444 114.976L84.8602 84.3944L60.0703 82.9918L70.5709 71.2969Z" fill="white"></path><path d="M94.2692 116.207C88.3854 116.207 76.9501 115.369 75.338 115.248C75.2922 115.244 75.2477 115.233 75.2076 115.214C75.1676 115.194 75.1329 115.168 75.106 115.137C75.0801 115.105 75.0628 115.068 75.0552 115.03C75.0476 114.992 75.0499 114.953 75.062 114.915L84.4712 84.6657L60.0576 83.2842C60.0021 83.279 59.949 83.2623 59.9031 83.2356C59.8571 83.2089 59.8197 83.1731 59.7942 83.1313C59.7702 83.0879 59.7611 83.0399 59.7677 82.9924C59.7744 82.9449 59.7966 82.8999 59.8318 82.8624L70.3387 71.1463C70.3659 71.1094 70.4052 71.0798 70.452 71.0611C70.4987 71.0424 70.5508 71.0354 70.6021 71.0409C70.6648 71.0409 76.9501 71.3256 83.3483 71.9794C96.4521 73.3082 97.2488 74.8215 97.5122 75.3224C99.0616 78.2698 88.7304 108.013 87.5887 111.256C90.9196 112.232 97.945 114.42 97.9952 115.501C97.997 115.606 97.9583 115.709 97.8848 115.795C97.8114 115.88 97.7071 115.944 97.5875 115.975C96.5005 116.187 95.3828 116.265 94.2692 116.207ZM75.7583 114.747C81.5794 115.179 95.7684 116.07 97.3177 115.49C96.9038 114.852 91.7476 113.033 87.0681 111.678C86.9917 111.655 86.9288 111.608 86.8925 111.547C86.8563 111.486 86.8495 111.416 86.8736 111.351C90.0853 102.203 98.1646 77.9271 96.91 75.5385C95.6555 73.15 77.7531 71.9004 70.715 71.5787L60.6786 82.7939L84.8914 84.17C84.9379 84.172 84.9833 84.1824 85.0245 84.2006C85.0656 84.2189 85.1016 84.2444 85.1298 84.2755C85.1801 84.341 85.1981 84.4205 85.18 84.497L75.7583 114.747Z" fill="#231F20"></path><path d="M62.0664 52.5556C62.0664 52.5556 74.9381 66.0539 80.4393 65.6795C85.9405 65.3051 101.698 48.6643 101.698 48.6643C104.545 45.8065 107.732 42.1789 105.693 38.2401C105.493 37.8605 105.141 37.4545 104.652 37.4861C104.446 37.5127 104.251 37.5795 104.081 37.6812L102.325 38.5881C102.381 38.1821 101.767 37.8921 101.296 38.0028C100.838 38.1534 100.457 38.4329 100.217 38.7938C98.3919 40.9767 97.2126 43.0541 97.313 45.7432L78.8962 53.6524L71.5884 46.8558" fill="white"></path><path d="M80.2238 65.9476C74.5094 65.9476 62.3465 53.293 61.8259 52.7183C61.7824 52.6633 61.765 52.5966 61.7773 52.5313C61.7895 52.4661 61.8304 52.4071 61.8919 52.366C61.9534 52.3249 62.031 52.3047 62.1094 52.3094C62.1878 52.3141 62.2612 52.3434 62.3152 52.3914C62.4406 52.5232 74.8105 65.4256 80.205 65.4256H80.4183C85.7251 65.0671 101.288 48.6741 101.438 48.5054C104.38 45.5632 107.347 42.1148 105.396 38.3553C105.321 38.2077 105.058 37.7384 104.669 37.7595C104.512 37.7835 104.364 37.8376 104.236 37.9177L102.467 38.8193C102.417 38.8453 102.359 38.859 102.301 38.8587C102.242 38.8585 102.184 38.8444 102.135 38.818C102.085 38.7916 102.045 38.754 102.019 38.7095C101.994 38.665 101.984 38.6154 101.99 38.5662C101.994 38.5282 101.986 38.4899 101.966 38.4555C101.946 38.4212 101.915 38.392 101.877 38.3711C101.806 38.3231 101.723 38.2888 101.634 38.2706C101.545 38.2523 101.453 38.2507 101.363 38.2657C100.977 38.4042 100.656 38.6473 100.453 38.9564C98.9104 40.8019 97.499 42.9004 97.6056 45.7477C97.6075 45.7975 97.5926 45.8466 97.5626 45.8896C97.5327 45.9325 97.4889 45.9674 97.4363 45.9903L79.0195 53.8994C78.9579 53.926 78.8876 53.9347 78.8196 53.9242C78.7515 53.9137 78.6895 53.8846 78.6431 53.8414L71.3416 47.0343C71.3122 47.0098 71.2889 46.9806 71.273 46.9485C71.2571 46.9163 71.2489 46.8819 71.2489 46.8471C71.2489 46.8123 71.2571 46.7778 71.273 46.7457C71.2889 46.7136 71.3122 46.6844 71.3416 46.6599C71.4013 46.6113 71.4812 46.5841 71.5643 46.5841C71.6475 46.5841 71.7273 46.6113 71.787 46.6599L78.9254 53.293L96.9595 45.5684C96.9031 42.6526 98.3458 40.5066 99.9203 38.6242C100.203 38.2126 100.646 37.8958 101.175 37.7279C101.365 37.6894 101.564 37.6889 101.754 37.7265C101.945 37.764 102.122 37.8385 102.273 37.9441C102.357 38.0059 102.429 38.0789 102.486 38.1602L103.891 37.4379C104.103 37.313 104.349 37.2333 104.606 37.2059C105.152 37.169 105.635 37.5064 105.948 38.1181C108.219 42.4944 104.117 46.6072 101.909 48.8165C101.281 49.4914 86.0261 65.5469 80.4497 65.9265L80.2238 65.9476Z" fill="#231F20"></path><path d="M19.9331 50.2503C19.9331 50.2503 13.3028 62.8785 15.7617 64.2283C18.2206 65.5782 33.1874 64.2283 33.1874 64.2283L31.8889 47.8828" fill="white"></path><path d="M21.4538 65.0549C18.7753 65.0549 16.4356 64.8967 15.5825 64.4222C15.1559 64.1902 13.8512 63.4784 16.63 56.6396C17.9661 53.3441 19.6284 50.1699 19.6472 50.1383C19.6605 50.103 19.6824 50.0704 19.7116 50.0426C19.7408 50.0149 19.7767 49.9927 19.8168 49.9773C19.857 49.962 19.9005 49.954 19.9446 49.9538C19.9886 49.9536 20.0323 49.9612 20.0726 49.9761C20.113 49.991 20.1491 50.0129 20.1787 50.0403C20.2083 50.0678 20.2307 50.1001 20.2444 50.1353C20.2582 50.1706 20.2629 50.2078 20.2584 50.2446C20.2538 50.2815 20.2401 50.3171 20.218 50.3492C17.7089 55.1527 14.3091 63.0987 15.9275 63.9793C17.8093 65.0338 28.473 64.3378 32.8639 63.9793L31.6094 47.8921C31.6065 47.8575 31.6117 47.8227 31.6248 47.7898C31.6379 47.7569 31.6586 47.7265 31.6857 47.7003C31.7404 47.6474 31.8179 47.6149 31.901 47.61C31.9842 47.6051 32.0663 47.6282 32.1292 47.6742C32.1922 47.7202 32.2308 47.7853 32.2366 47.8552L33.5351 64.2007C33.5404 64.269 33.5139 64.3363 33.4612 64.3884C33.4085 64.4406 33.3338 64.4735 33.2528 64.4802C32.8137 64.5013 26.4908 65.0549 21.4538 65.0549Z" fill="#231F20"></path><path d="M25.3372 71.6535C25.3372 71.6535 22.0942 77.7066 25.5505 81.5241C29.0068 85.3415 76.987 85.8003 76.987 85.8003L80.4308 71.3055L60.358 69.0066L59.1912 63.9922L25.3372 71.6535Z" fill="white"></path><path d="M77.0001 86.0545C76.8809 86.0545 64.8561 85.9333 52.5364 85.348C35.945 84.5571 26.7742 83.318 25.2813 81.6571C21.756 77.7658 24.8924 71.7759 25.0304 71.5228C25.0492 71.4866 25.0776 71.4544 25.1135 71.4288C25.1494 71.4032 25.1918 71.3849 25.2374 71.3752L59.1103 63.7139C59.1522 63.7031 59.1965 63.7004 59.24 63.7059C59.2834 63.7113 59.3248 63.7249 59.3612 63.7455C59.3966 63.7643 59.4272 63.7889 59.4509 63.8179C59.4746 63.8469 59.4911 63.8797 59.4992 63.9143L60.622 68.7494L80.4501 71.0167C80.4931 71.0212 80.5343 71.0334 80.5711 71.0525C80.6079 71.0716 80.6394 71.0971 80.6634 71.1274C80.6883 71.1559 80.7056 71.1885 80.7143 71.223C80.7229 71.2576 80.7227 71.2933 80.7136 71.3277L77.3075 85.8384C77.2943 85.8989 77.2564 85.9536 77.2002 85.9931C77.1441 86.0326 77.0733 86.0543 77.0001 86.0545ZM25.5636 71.8656C25.1559 72.7039 22.7534 77.9925 25.802 81.3565C28.4491 84.2776 60.1264 85.3638 76.743 85.5325L80.0738 71.5228L60.3523 69.2661C60.2877 69.2583 60.2276 69.2338 60.1804 69.196C60.1332 69.1582 60.1012 69.109 60.0888 69.0552L58.9911 64.3097L25.5636 71.8656Z" fill="#231F20"></path><path d="M44.9951 20.6555C44.5055 20.4085 44.0791 20.0823 43.7405 19.6958C43.2707 19.1296 42.9304 18.4949 42.7369 17.824C41.037 12.6567 41.0244 6.0394 46.5005 2.50138C48.1157 1.4639 50.0032 0.766885 52.0048 0.468732C54.0064 0.170579 56.0638 0.27997 58.0048 0.787741C60.6644 1.51538 62.9226 4.58939 64.1082 6.58777C65.0804 8.2065 65.7391 9.9676 66.8932 11.4967C68.0474 13.0258 69.8854 14.3651 72.0432 14.4547C71.1885 14.8567 70.2368 15.0911 69.2592 15.1404C68.2816 15.1897 67.3034 15.0526 66.3977 14.7394C66.82 15.2159 67.3964 15.5801 68.0582 15.7886C68.72 15.9971 69.4392 16.041 70.13 15.9153C68.8754 16.7536 67.0814 16.722 65.5007 16.4425C63.92 16.1631 62.3643 15.7413 60.7397 15.9153C58.2306 16.1525 56.5997 17.7027 54.6363 18.8258C52.146 20.1967 47.8429 22.0422 44.9951 20.6555Z" fill="white"></path><path d="M47.3589 21.4169C46.4816 21.4328 45.6152 21.2507 44.8498 20.8897C44.314 20.6213 43.8505 20.2622 43.4887 19.8351C42.9939 19.2351 42.6365 18.5627 42.4348 17.8526C41.6068 15.3216 39.4239 6.70597 46.2926 2.25577C47.9477 1.18923 49.8836 0.472949 51.9372 0.167361C53.9907 -0.138227 56.1015 -0.0241586 58.0916 0.499941C60.9394 1.27504 63.2541 4.53359 64.3644 6.40542C64.7407 7.03815 65.0795 7.69724 65.3994 8.33525C65.8824 9.35992 66.4613 10.3508 67.1307 11.2985C67.7579 12.1158 69.4641 14.0245 72.0297 14.13C72.0973 14.132 72.1622 14.1528 72.2144 14.189C72.2666 14.2252 72.3031 14.2749 72.3182 14.3304C72.3361 14.3859 72.3309 14.4449 72.3035 14.4976C72.2761 14.5503 72.2282 14.5936 72.1677 14.6204C70.7753 15.2726 69.1553 15.4946 67.5886 15.2478C68.3234 15.6276 69.2052 15.7524 70.0475 15.5958C70.1174 15.5807 70.1914 15.5864 70.2569 15.6118C70.3225 15.6372 70.3756 15.6809 70.4073 15.7354C70.439 15.79 70.4473 15.852 70.4309 15.9111C70.4145 15.9702 70.3744 16.0227 70.3172 16.0598C69.1944 16.8033 67.5509 17.0036 65.4307 16.6609C65.0544 16.6029 64.678 16.5291 64.3016 16.4553C63.1554 16.1767 61.9615 16.0626 60.7701 16.1178C58.9949 16.2866 57.6776 17.1724 56.2788 18.0635C55.8021 18.3746 55.3128 18.6909 54.8047 18.9862C53.3432 19.8404 50.2068 21.4169 47.3589 21.4169ZM54.2276 0.542124C51.4932 0.540792 48.8345 1.29687 46.6627 2.6934C40.1077 6.94851 42.2216 15.2795 43.0308 17.7366C43.2142 18.3827 43.5397 18.9943 43.9905 19.5398C44.3052 19.9009 44.7043 20.2042 45.1635 20.4309C48.187 21.9073 53.0483 19.3764 54.466 18.5697C54.9552 18.2902 55.4383 17.9738 55.9024 17.668C57.3075 16.7506 58.7628 15.8015 60.7136 15.6169C61.9827 15.5502 63.2559 15.6679 64.4773 15.9649C64.8474 16.0335 65.2175 16.1073 65.5876 16.1653C66.6316 16.3697 67.7176 16.3697 68.7616 16.1653C67.7269 16.0259 66.7976 15.5531 66.1709 14.8471C66.1302 14.8015 66.1082 14.746 66.1082 14.6889C66.1082 14.6319 66.1302 14.5764 66.1709 14.5307C66.2119 14.4848 66.2703 14.452 66.3364 14.4376C66.4025 14.4232 66.4724 14.4282 66.5347 14.4516C67.9495 14.9332 69.5255 14.9614 70.9633 14.5307C69.1314 14.0434 67.5842 12.9952 66.6288 11.5938C65.9378 10.6238 65.342 9.60808 64.8474 8.5567C64.5275 7.92924 64.2201 7.27542 63.8249 6.65851C62.9593 5.20851 60.6446 1.76013 57.9097 1.01667C56.7195 0.697236 55.477 0.537099 54.2276 0.542124Z" fill="#231F20"></path><path d="M61.9914 16.8984C61.9914 16.8984 63.7039 21.4014 62.8069 22.0394C61.9099 22.6774 60.0469 21.6755 60.0469 21.6755" fill="white"></path><path d="M62.0481 22.5221C61.2809 22.4669 60.5418 22.2532 59.8965 21.9C59.8595 21.8822 59.8272 21.8583 59.8016 21.8298C59.7759 21.8012 59.7575 21.7685 59.7473 21.7338C59.7372 21.699 59.7356 21.6629 59.7426 21.6276C59.7496 21.5922 59.7651 21.5585 59.7881 21.5284C59.8111 21.4983 59.8412 21.4724 59.8765 21.4524C59.9118 21.4324 59.9516 21.4186 59.9934 21.4119C60.0353 21.4053 60.0783 21.4058 60.1199 21.4136C60.1614 21.4213 60.2007 21.4361 60.2352 21.457C60.6743 21.689 62.0481 22.2638 62.6189 21.842C63.0517 21.5309 62.4934 19.079 61.6905 16.9858C61.6668 16.9186 61.6751 16.8464 61.7138 16.7843C61.7524 16.7223 61.8184 16.6754 61.8975 16.6536C61.9766 16.6319 62.0626 16.6376 62.1367 16.6692C62.2107 16.7008 62.2669 16.7559 62.2927 16.8223C62.7067 17.919 63.9926 21.5678 63.0266 22.2427C62.7533 22.4351 62.4043 22.5348 62.0481 22.5221Z" fill="#231F20"></path><path d="M63.034 11.744C64.4956 13.4945 63.034 16.1203 62.4067 17.9078C61.5411 20.4247 60.6065 22.9222 59.6028 25.4004C58.9755 26.9822 54.0326 25.838 53.3301 25.1578L51.9877 31.6486L41.5938 28.6273L44.9371 20.7551C44.9371 20.7551 48.2805 21.5671 51.2914 18.7673C54.3023 15.9674 56.3974 8.82812 56.3974 8.82812C56.3974 8.82812 61.6101 10.0303 63.034 11.744Z" fill="white"></path><path d="M51.9849 31.9087H51.8846L41.4843 28.898C41.4449 28.8877 41.4084 28.8707 41.3771 28.848C41.3458 28.8253 41.3204 28.7975 41.3024 28.7662C41.2742 28.6997 41.2742 28.627 41.3024 28.5605L44.6207 20.6619C44.6465 20.5993 44.7 20.5474 44.77 20.517C44.8401 20.4866 44.9214 20.48 44.9971 20.4985C45.1288 20.5249 48.2024 21.2209 51.0377 18.5845C53.873 15.9481 56.0559 8.83518 56.0559 8.76136C56.0652 8.7272 56.0828 8.69504 56.1077 8.6669C56.1325 8.63876 56.164 8.61527 56.2002 8.5979C56.2766 8.57153 56.3622 8.57153 56.4386 8.5979C56.6581 8.65063 61.783 9.84754 63.257 11.6139C64.5618 13.1957 63.7212 15.3048 63.0375 17.0448C62.9058 17.3823 62.7803 17.7039 62.6737 18.0045C61.808 20.509 60.8671 23.0347 59.8635 25.5076C59.7406 25.7506 59.5415 25.9609 59.2873 26.116C59.0332 26.2711 58.7336 26.3652 58.4208 26.3882C56.7331 26.5456 55.0278 26.2776 53.5217 25.6183L52.2672 31.6925C52.2602 31.7301 52.2429 31.7659 52.2168 31.7969C52.1907 31.828 52.1564 31.8537 52.1166 31.8718C52.0771 31.8931 52.0318 31.9058 51.9849 31.9087ZM41.9924 28.4603L51.7403 31.2971L52.9948 25.1069C53.0052 25.0579 53.0319 25.0123 53.0718 24.9755C53.1117 24.9387 53.1631 24.9122 53.2202 24.8989C53.2773 24.8857 53.3377 24.8863 53.3944 24.9007C53.4511 24.9151 53.5018 24.9427 53.5406 24.9803C53.9922 25.418 56.7083 26.1351 58.3016 25.8714C58.841 25.7818 59.1672 25.592 59.2801 25.3072C60.2775 22.8449 61.2247 20.3298 62.084 17.8305C62.1907 17.5247 62.3224 17.1978 62.4541 16.8498C63.0814 15.2416 63.8843 13.2379 62.7552 11.8881C61.6261 10.5383 57.737 9.44154 56.5954 9.15681C56.1751 10.5014 54.2306 16.3963 51.4956 18.9378C48.8674 21.379 46.0195 21.1945 45.11 21.0469L41.9924 28.4603Z" fill="#231F20"></path><path d="M60.1619 23.4969C60.1619 23.4969 57.4333 24.1507 56.875 21.8359L60.1619 23.4969Z" fill="white"></path><path d="M59.3277 23.8508C58.7894 23.8623 58.2578 23.7492 57.7908 23.5239C57.4564 23.3425 57.1716 23.1034 56.9553 22.8225C56.739 22.5417 56.5962 22.2254 56.5363 21.8946C56.5215 21.8253 56.5396 21.7539 56.5867 21.6957C56.6339 21.6375 56.7063 21.5972 56.7884 21.5833C56.8706 21.5695 56.9559 21.5834 57.026 21.6218C57.0961 21.6603 57.1455 21.7204 57.1636 21.7891C57.2052 22.0461 57.3104 22.2929 57.4725 22.5136C57.6346 22.7343 57.8499 22.924 58.1045 23.0704C58.7078 23.3258 59.4006 23.3894 60.0553 23.2497C60.0965 23.2403 60.1395 23.2379 60.1818 23.2425C60.2241 23.2471 60.2649 23.2587 60.3019 23.2766C60.3389 23.2944 60.3713 23.3183 60.3973 23.3467C60.4234 23.3751 60.4425 23.4075 60.4536 23.4421C60.4647 23.4768 60.4676 23.5129 60.4622 23.5485C60.4567 23.584 60.4429 23.6183 60.4216 23.6494C60.4004 23.6805 60.372 23.7078 60.3382 23.7297C60.3045 23.7515 60.2659 23.7676 60.2247 23.777C59.9304 23.8322 59.6291 23.857 59.3277 23.8508Z" fill="#231F20"></path><path d="M55.7003 17.1601C55.8278 16.5092 55.7387 15.8413 55.4432 15.2302C55.2902 14.7368 55.0536 14.2645 54.7406 13.8277C54.5778 13.6123 54.361 13.4294 54.1052 13.2919C53.8495 13.1544 53.5611 13.0655 53.2602 13.0315C52.9898 13.0274 52.7215 13.0724 52.4736 13.1634C52.2257 13.2544 52.0041 13.3893 51.8238 13.5588C51.4576 13.8891 51.1871 14.2861 51.0334 14.7188C50.6706 15.6523 50.6054 16.6494 50.8442 17.6107C51.0831 18.572 51.6176 19.4638 52.3946 20.1972L52.2754 20.0073" fill="white"></path><path d="M52.3948 20.4595C52.3514 20.4591 52.3085 20.4514 52.2686 20.437C52.2288 20.4225 52.1927 20.4014 52.1627 20.3751C51.3471 19.6027 50.786 18.6645 50.5352 17.6535C50.2843 16.6426 50.3523 15.594 50.7325 14.612C50.9006 14.1411 51.197 13.7096 51.5981 13.3518C51.8142 13.1596 52.0764 13.008 52.3672 12.9071C52.658 12.8063 52.971 12.7583 53.2855 12.7665C53.6345 12.7998 53.9699 12.8991 54.2665 13.0571C54.5631 13.2151 54.8132 13.4277 54.998 13.6787C55.3311 14.1357 55.5826 14.6314 55.7444 15.1498C56.0589 15.8067 56.1501 16.5241 56.0079 17.222C55.9858 17.2903 55.9326 17.3485 55.8598 17.384C55.787 17.4196 55.7005 17.4296 55.619 17.4118C55.5394 17.3933 55.4717 17.3491 55.4306 17.2889C55.3894 17.2287 55.3783 17.1573 55.3994 17.0902C55.5045 16.4875 55.4157 15.8721 55.1422 15.308C55.0016 14.8394 54.7774 14.3915 54.4773 13.9793C54.3429 13.7932 54.1603 13.6349 53.9431 13.5162C53.7259 13.3976 53.4797 13.3215 53.2228 13.2938C52.9995 13.2902 52.7778 13.3264 52.5724 13.4C52.367 13.4736 52.1825 13.583 52.031 13.7209C51.6973 14.0211 51.4504 14.382 51.3096 14.7754C50.9849 15.6106 50.9083 16.4999 51.0865 17.3657C51.2647 18.2315 51.6924 19.0475 52.3321 19.7424C52.3757 19.7524 52.4165 19.7698 52.4521 19.7933C52.4876 19.8168 52.5172 19.8461 52.5391 19.8795L52.652 20.0693C52.6882 20.1259 52.698 20.1919 52.6795 20.2543C52.6609 20.3167 52.6153 20.3711 52.5516 20.4067C52.5066 20.4368 52.452 20.4551 52.3948 20.4595Z" fill="#231F20"></path><path d="M62.1931 14.8129C62.327 14.3099 62.2437 13.8661 62.007 13.8216C61.7704 13.7771 61.47 14.1487 61.3361 14.6517C61.2023 15.1547 61.2856 15.5986 61.5223 15.6431C61.7589 15.6876 62.0593 15.3159 62.1931 14.8129Z" fill="#231F20"></path><path d="M53.3228 25.16C51.96 24.4167 50.6547 23.6013 49.4149 22.7188C49.4149 22.7188 48.7876 27.285 52.5074 28.3342L53.3228 25.16Z" fill="#231F20"></path><path d="M52.5116 28.59C52.4784 28.595 52.4444 28.595 52.4112 28.59C48.5096 27.488 49.0804 22.8902 49.1055 22.6951C49.1122 22.6478 49.1338 22.6029 49.168 22.5649C49.2021 22.5269 49.2477 22.4972 49.3 22.4789C49.353 22.4619 49.4105 22.4569 49.4666 22.4642C49.5227 22.4716 49.5755 22.4912 49.6199 22.5211C50.851 23.3963 52.1457 24.2064 53.4964 24.9465C53.549 24.9757 53.5901 25.0173 53.6147 25.0661C53.6392 25.1149 53.6461 25.1687 53.6344 25.2207L52.819 28.3844C52.8095 28.4205 52.7912 28.4546 52.7653 28.4846C52.7394 28.5145 52.7064 28.5396 52.6684 28.5584C52.6199 28.5792 52.5661 28.59 52.5116 28.59ZM49.7014 23.2487C49.7014 24.3771 49.8771 27.0714 52.2858 27.9678L52.9758 25.2734C51.8431 24.6469 50.7502 23.9711 49.7014 23.2487Z" fill="#231F20"></path><path d="M23.3906 73.6538C23.3906 73.6538 23.9552 41.3845 29.7136 33.9552C35.4719 26.5259 50.4136 24.8492 57.5395 29.2783C64.6653 33.7074 61.2341 67.5585 61.2341 67.5585C61.2341 67.5585 38.5142 73.6538 23.3906 73.6538Z" fill="#1F72F2"></path><path d="M52.5655 27.375C56.3559 28.6693 59.8984 30.4264 63.0787 32.5897C68.0091 36.0329 78.4155 50.8387 78.4155 50.8387L64.6908 57.8251L52.3711 45.0545L52.5655 27.375Z" fill="#1F72F2"></path><path d="M35.65 29.3828C35.65 29.3828 28.4677 30.063 24.6664 36.6908C22.609 40.2869 17.3398 51.8974 17.3398 51.8974L33.1848 53.4318L35.65 29.3828Z" fill="#1F72F2"></path><path d="M63.6611 57.0227C63.6118 57.0225 63.5633 57.0124 63.5196 56.9931C63.4759 56.9738 63.4384 56.946 63.4102 56.912L51.1721 42.9023C51.1474 42.8746 51.1294 42.8431 51.1192 42.8095C51.109 42.776 51.1067 42.7411 51.1125 42.7068C51.1184 42.6726 51.1322 42.6396 51.1531 42.6098C51.1741 42.58 51.2019 42.554 51.2348 42.5332C51.3027 42.4932 51.3864 42.4768 51.4683 42.4876C51.5502 42.4985 51.6239 42.5356 51.6739 42.5912L63.912 56.6009C63.947 56.6401 63.9683 56.6866 63.9735 56.7354C63.9787 56.7842 63.9677 56.8332 63.9417 56.877C63.9156 56.9208 63.8756 56.9576 63.826 56.9833C63.7765 57.0091 63.7194 57.0227 63.6611 57.0227Z" fill="#231F20"></path><path d="M100.191 41.1835L103.253 33.1953L104.206 33.4273L102.28 41.3048C102.28 41.3048 100.925 42.4015 100.191 41.1835Z" fill="#231F20"></path><path d="M101.133 42.018H100.92C100.696 41.9784 100.487 41.8933 100.311 41.7701C100.135 41.647 99.9973 41.4895 99.9102 41.3115C99.8789 41.2473 99.8789 41.1753 99.9102 41.1111L102.953 33.1124C102.98 33.0478 103.035 32.994 103.107 32.9618C103.179 32.9296 103.262 32.9213 103.341 32.9384L104.295 33.1704C104.37 33.1889 104.435 33.2306 104.476 33.2873C104.516 33.3439 104.53 33.4114 104.514 33.4762L102.589 41.3853C102.576 41.4357 102.545 41.4817 102.501 41.5171C102.128 41.812 101.644 41.989 101.133 42.018ZM100.506 41.148C100.554 41.2316 100.623 41.3051 100.709 41.3635C100.795 41.4218 100.895 41.4635 101.002 41.4855C101.361 41.4882 101.708 41.3728 101.968 41.1639L103.818 33.608L103.436 33.5184L100.506 41.148Z" fill="#231F20"></path><path d="M42.3066 23.1035C36.6611 22.0489 30.3884 22.7871 25.8281 25.7398C23.8955 26.9256 22.4435 28.5823 21.6693 30.4853C21.3024 31.4414 21.2169 32.4581 21.4201 33.4481C21.6233 34.4381 22.1092 35.3718 22.836 36.1693C27.1642 40.5404 36.6674 40.5194 42.545 39.0904C46.5532 38.1203 58.4213 33.3853 55.1532 28.7348C52.8009 25.4077 46.5407 23.868 42.3066 23.1035Z" fill="#1F72F2"></path><path d="M35.1219 39.4829C31.3814 39.3917 27.7287 38.5085 24.5022 36.9151C24.4665 36.8973 24.4354 36.8736 24.4109 36.8454C24.3864 36.8173 24.3689 36.7852 24.3595 36.7512C24.3501 36.7172 24.349 36.682 24.3563 36.6476C24.3636 36.6132 24.3791 36.5805 24.4018 36.5513C24.4468 36.4926 24.5176 36.4513 24.5988 36.4365C24.6799 36.4217 24.7647 36.4345 24.8346 36.4722C24.9099 36.5144 32.6693 40.5691 40.0147 38.228C43.54 37.1049 45.6602 35.1118 47.6863 33.1872C49.9256 31.0781 52.0395 29.0851 55.6903 28.8056C55.7315 28.8027 55.773 28.8067 55.8124 28.8174C55.8517 28.828 55.8882 28.8451 55.9197 28.8676C55.9512 28.8902 55.977 28.9177 55.9958 28.9487C56.0146 28.9797 56.0258 29.0135 56.029 29.0481C56.0333 29.0825 56.0294 29.1173 56.0175 29.1503C56.0055 29.1834 55.9858 29.2141 55.9595 29.2407C55.9331 29.2672 55.9008 29.289 55.8642 29.3049C55.8277 29.3207 55.7877 29.3302 55.7467 29.3329C52.3469 29.5912 50.4024 31.442 48.1567 33.5511C46.162 35.4334 43.9038 37.5636 40.2342 38.7342C38.598 39.2414 36.8659 39.4951 35.1219 39.4829Z" fill="#231F20"></path><path d="M23.9537 62.1102C23.9125 62.1088 23.872 62.1006 23.8346 62.0861C23.7971 62.0716 23.7635 62.051 23.7355 62.0255C23.7076 62.0001 23.6858 61.9702 23.6716 61.9377C23.6574 61.9052 23.6509 61.8706 23.6526 61.836C24.1105 53.4892 26.1617 41.4779 26.1617 41.3566C26.1756 41.288 26.2206 41.2265 26.2873 41.1852C26.354 41.1439 26.4371 41.126 26.5193 41.1352C26.6004 41.1456 26.6734 41.1824 26.7227 41.2376C26.772 41.2928 26.7935 41.362 26.7827 41.4304C26.7827 41.5517 24.7064 53.5578 24.2736 61.8571C24.2703 61.9261 24.235 61.9912 24.1752 62.0386C24.1154 62.0859 24.0358 62.1116 23.9537 62.1102Z" fill="#231F20"></path><path d="M72.0581 114.418H85.3877C85.3877 114.418 86.8367 111.702 89.9605 111.328C89.9605 111.328 102.117 115.647 100.329 116.532C98.5416 117.418 71.1172 117.323 71.1172 117.323L72.0581 114.418Z" fill="#231F20"></path><path d="M73.9206 117.587H71.1166C71.0695 117.587 71.0228 117.578 70.9804 117.561C70.938 117.544 70.9009 117.518 70.872 117.487C70.8417 117.454 70.8209 117.417 70.8111 117.376C70.8012 117.336 70.8028 117.294 70.8156 117.255L71.7565 114.35C71.7746 114.293 71.8147 114.243 71.8703 114.208C71.926 114.172 71.9941 114.154 72.0638 114.154H85.199C85.5691 113.548 87.0808 111.407 89.9223 111.065C89.9756 111.051 90.0322 111.051 90.0854 111.065C92.5945 111.95 100.749 114.945 100.831 116.253C100.835 116.352 100.806 116.45 100.747 116.536C100.689 116.621 100.602 116.692 100.498 116.738C98.9739 117.508 81.1907 117.587 73.9206 117.587ZM71.5306 117.06C82.5268 117.086 98.9363 116.917 100.178 116.3C100.178 115.647 94.8653 113.353 89.9223 111.592C87.0745 111.982 85.6945 114.497 85.682 114.523C85.6566 114.57 85.6158 114.609 85.5646 114.636C85.5134 114.663 85.4539 114.677 85.3934 114.676H72.3022L71.5306 117.06Z" fill="#231F20"></path><path d="M61.9893 88.4812C70.4763 86.9785 76.1657 83.6408 72.8286 79.1379C69.4915 74.6349 45.5233 77.556 40.8376 74.2184C36.1518 70.8807 37.8267 53.1801 32.683 50.1483C27.5394 47.1165 5.49065 44.053 3.02546 47.881C0.560272 51.709 3.02546 79.565 10.2078 85.7499C17.3901 91.9348 53.7093 89.9154 61.9893 88.4812Z" fill="#231F20"></path><path d="M37.0904 90.2495H35.6728C26.1382 90.1809 13.9377 89.3742 9.9545 85.9575C2.85375 79.7989 0.0811929 51.9324 2.74711 47.7722C3.20502 47.0604 4.25257 46.5384 5.88348 46.1904C12.702 44.83 28.4654 47.3082 32.8563 49.8813C35.6226 51.5106 36.4819 57.0628 37.3162 62.4304C38.0752 67.3341 38.8593 72.4012 41.0485 73.9672C43.1311 75.4541 49.5293 75.6703 55.7205 75.8812C63.3419 76.1396 71.2267 76.4085 73.1148 78.95C74.2062 80.4263 74.4195 81.85 73.7421 83.1682C72.4875 85.6042 68.3601 87.5604 62.0685 88.6729C57.7466 89.4744 47.1833 90.2495 37.0904 90.2495ZM10.6508 46.3644C9.09225 46.341 7.53546 46.4631 6.00894 46.7282C4.57875 47.0129 3.66293 47.4506 3.29911 48.0253C0.865285 51.8059 3.51866 79.6143 10.4312 85.5831C17.463 91.652 53.594 89.6695 61.9179 88.2195C67.921 87.1649 72.0108 85.2667 73.1462 83.0205C73.7358 81.8605 73.5413 80.6003 72.5628 79.2769C70.8503 76.9674 63.1537 76.7091 55.6766 76.456C49.0902 76.2345 42.8676 76.0236 40.622 74.4154C38.2509 72.7176 37.4856 67.777 36.6764 62.5464C35.8672 57.3159 35.0204 51.8533 32.4737 50.3611C29.0864 48.3522 18.1718 46.3644 10.6508 46.3644Z" fill="#231F20"></path><path d="M77.7376 73.9111H77.6874L57.464 70.9373C57.3809 70.9254 57.3067 70.8862 57.2579 70.8284C57.2091 70.7706 57.1896 70.6988 57.2037 70.6289C57.2179 70.5589 57.2645 70.4966 57.3333 70.4556C57.4021 70.4145 57.4875 70.3981 57.5707 70.41L77.794 73.3839C77.8772 73.3902 77.954 73.424 78.0075 73.4779C78.061 73.5318 78.0869 73.6013 78.0794 73.6712C78.0719 73.7411 78.0317 73.8057 77.9676 73.8507C77.9035 73.8957 77.8207 73.9174 77.7376 73.9111Z" fill="#D1D3D4"></path><path d="M150.496 6.90625H112.414V29.3787H150.496V6.90625Z" fill="white"></path><path d="M150.491 29.6482H112.415C112.332 29.6482 112.252 29.6204 112.193 29.5709C112.135 29.5215 112.102 29.4544 112.102 29.3845V6.91207C112.102 6.84215 112.135 6.7751 112.193 6.72565C112.252 6.67621 112.332 6.64844 112.415 6.64844H150.491C150.574 6.64844 150.654 6.67621 150.713 6.72565C150.771 6.7751 150.804 6.84215 150.804 6.91207V29.3845C150.804 29.4544 150.771 29.5215 150.713 29.5709C150.654 29.6204 150.574 29.6482 150.491 29.6482ZM112.729 29.1209H150.177V7.17571H112.729V29.1209Z" fill="#D1D3D4"></path><path d="M136.986 50.721C136.911 50.7208 136.839 50.6985 136.782 50.658C136.725 50.6176 136.686 50.5615 136.673 50.4996L135.13 42.0843L132.432 43.0861C132.394 43.1001 132.354 43.1076 132.312 43.1082C132.271 43.1089 132.23 43.1027 132.191 43.0899C132.153 43.0772 132.118 43.0582 132.088 43.034C132.058 43.0098 132.035 42.9809 132.018 42.949C132.002 42.9175 131.993 42.8836 131.992 42.8493C131.992 42.8149 131.999 42.7807 132.014 42.7488C132.029 42.7169 132.052 42.6879 132.081 42.6634C132.109 42.6389 132.144 42.6195 132.181 42.6063L135.261 41.4884C135.304 41.4704 135.351 41.4609 135.399 41.4609C135.447 41.4609 135.495 41.4704 135.537 41.4884C135.58 41.5077 135.616 41.5348 135.645 41.5676C135.673 41.6005 135.692 41.6383 135.7 41.6783L137.306 50.4047C137.313 50.439 137.312 50.4743 137.303 50.5082C137.293 50.5422 137.275 50.5741 137.251 50.6022C137.226 50.6303 137.195 50.6539 137.159 50.6716C137.124 50.6893 137.084 50.7007 137.043 50.7052L136.986 50.721Z" fill="#231F20"></path><path d="M142.307 59.7491H134.454L134.027 45.5391H142.734L142.307 59.7491Z" fill="white"></path><path d="M142.31 60.0055H134.457C134.376 60.0056 134.298 59.9792 134.239 59.932C134.181 59.8849 134.146 59.8205 134.143 59.7524L133.691 45.5476C133.69 45.4771 133.722 45.409 133.779 45.3578C133.838 45.3059 133.92 45.2756 134.005 45.2734H142.712C142.795 45.2774 142.874 45.3079 142.933 45.3588C142.991 45.4096 143.024 45.4771 143.025 45.5476L142.599 59.784C142.588 59.843 142.553 59.8969 142.501 59.9372C142.448 59.9774 142.381 60.0015 142.31 60.0055ZM134.783 59.4782H142.022L142.429 45.7954H134.35L134.783 59.4782Z" fill="#231F20"></path><path d="M143.534 44.0938H133.234V45.5332H143.534V44.0938Z" fill="white"></path><path d="M143.531 45.8027H133.232C133.148 45.8027 133.069 45.7749 133.01 45.7255C132.951 45.676 132.918 45.609 132.918 45.539V44.0996C132.918 44.0297 132.951 43.9626 133.01 43.9132C133.069 43.8637 133.148 43.8359 133.232 43.8359H143.531C143.615 43.8359 143.694 43.8637 143.753 43.9132C143.812 43.9626 143.845 44.0297 143.845 44.0996V45.539C143.845 45.609 143.812 45.676 143.753 45.7255C143.694 45.7749 143.615 45.8027 143.531 45.8027ZM133.545 45.2754H143.218V44.3632H133.545V45.2754Z" fill="#231F20"></path><path d="M138.552 54.9487C137.798 55.0028 137.041 54.8642 136.382 54.5511C135.722 54.238 135.19 53.7649 134.856 53.1937C134.521 52.6224 134.399 51.9796 134.507 51.3493C134.614 50.719 134.944 50.1306 135.456 49.6608C135.967 49.1911 136.635 48.862 137.372 48.7165C138.11 48.571 138.882 48.616 139.589 48.8454C140.295 49.0749 140.903 49.4782 141.333 50.0027C141.762 50.5272 141.993 51.1483 141.996 51.785C142.037 52.5881 141.697 53.372 141.052 53.965C140.406 54.558 139.508 54.9117 138.552 54.9487ZM138.552 49.175C137.922 49.1207 137.288 49.228 136.732 49.4827C136.175 49.7375 135.724 50.1277 135.437 50.6022C135.15 51.0766 135.04 51.613 135.123 52.1408C135.205 52.6686 135.476 53.163 135.899 53.5591C136.322 53.9552 136.878 54.2343 137.493 54.3597C138.109 54.4852 138.755 54.4511 139.347 54.262C139.939 54.0728 140.449 53.7375 140.81 53.3001C141.171 52.8627 141.365 52.3437 141.369 51.8114C141.41 51.1481 141.136 50.4982 140.609 50.0041C140.081 49.5099 139.341 49.2118 138.552 49.175Z" fill="#D1D3D4"></path><path d="M123.594 24.9345C122.825 24.9304 122.062 24.8199 121.336 24.6075C120.386 24.3567 119.468 24.0282 118.595 23.6268C118.381 23.5266 118.174 23.4106 117.967 23.2946C117.443 23.0099 116.994 22.638 116.648 22.2018C116.302 21.7656 116.065 21.2744 115.954 20.7584C115.872 20.3797 115.948 19.989 116.167 19.6512C116.515 19.2506 116.994 18.9444 117.547 18.7706C117.914 18.6429 118.253 18.4647 118.551 18.2433C119.178 17.6792 118.933 16.8566 118.682 15.9866C118.613 15.7651 118.551 15.549 118.5 15.3381C118.342 14.6641 118.367 13.9688 118.574 13.3041C118.78 12.6395 119.163 12.0226 119.692 11.4995C120.272 10.9554 120.996 10.5339 121.806 10.2691C122.616 10.0043 123.488 9.9038 124.353 9.97567C126.787 10.2077 128.706 11.1937 129.622 12.6753C130.022 13.3674 130.209 14.1331 130.164 14.9018C130.119 15.6704 129.844 16.4171 129.365 17.0728C129.026 17.4747 128.834 17.9513 128.813 18.4437C128.941 18.8781 129.213 19.2731 129.597 19.5826C130.043 19.964 130.36 20.4394 130.513 20.9588C130.663 21.8235 129.986 22.6514 128.443 23.4897C127.031 24.3625 125.344 24.8652 123.594 24.9345ZM118.908 23.1628C119.745 23.5496 120.625 23.8657 121.536 24.1066C124.184 24.8659 126.26 24.0381 128.11 23.0521C129.428 22.3297 129.992 21.6759 129.898 21.0379C129.758 20.6151 129.49 20.23 129.12 19.9201C128.656 19.5325 128.335 19.0397 128.198 18.5017C128.19 17.9148 128.398 17.3401 128.794 16.8566C129.232 16.273 129.487 15.6058 129.535 14.9171C129.583 14.2284 129.423 13.5406 129.07 12.9179C128.255 11.5944 126.511 10.7139 124.29 10.4977C123.525 10.4335 122.753 10.5224 122.037 10.757C121.321 10.9916 120.681 11.3653 120.169 11.8475C119.703 12.3103 119.367 12.8553 119.185 13.4423C119.004 14.0292 118.982 14.6429 119.121 15.2379C119.172 15.4382 119.234 15.6491 119.297 15.8601C119.567 16.7828 119.874 17.8321 119.015 18.6019C118.669 18.8768 118.267 19.0981 117.829 19.2557C117.389 19.3903 117.002 19.626 116.713 19.9359C116.567 20.1726 116.52 20.444 116.581 20.7057C116.686 21.1489 116.896 21.5697 117.199 21.9429C117.502 22.3162 117.891 22.6343 118.344 22.8781C118.525 22.9897 118.714 23.0935 118.908 23.1892V23.1628Z" fill="#D1D3D4"></path><path d="M140.672 24.7811C139.062 24.7629 137.472 24.4855 135.986 23.9638L135.673 23.8584C135.019 23.544 134.273 23.3902 133.52 23.4144C132.767 23.4387 132.037 23.64 131.414 23.9955C130.727 24.2932 129.991 24.5012 129.231 24.6124C128.38 24.675 127.525 24.5583 126.742 24.2729C125.959 23.9875 125.272 23.5424 124.746 22.9778C123.836 22.1239 123.239 21.0675 123.027 19.9354C122.9 19.2543 123.035 18.5568 123.413 17.945C123.791 17.3331 124.392 16.8389 125.128 16.5345C126.584 16.0073 128.133 16.3711 129.638 16.7296C130.718 17.0542 131.861 17.201 133.007 17.162C133.885 17.0383 134.733 16.7924 135.516 16.4343C136.029 16.2197 136.557 16.0313 137.097 15.8702C139.606 15.1689 144.455 15.8702 146.362 17.6313C146.876 18.084 147.242 18.6413 147.423 19.2485C147.605 19.8557 147.595 20.4921 147.397 21.0955C147.112 21.8843 146.602 22.603 145.913 23.1891C145.223 23.7753 144.374 24.2113 143.438 24.4595C142.542 24.6884 141.609 24.7969 140.672 24.7811ZM133.728 22.8829H133.879C134.586 22.9416 135.276 23.104 135.917 23.3627L136.218 23.4682C138.411 24.3005 140.88 24.4628 143.2 23.9269C144.036 23.7074 144.795 23.3206 145.414 22.7999C146.032 22.2791 146.491 21.6399 146.75 20.9373C146.919 20.4178 146.925 19.8705 146.768 19.3485C146.611 18.8265 146.296 18.3475 145.853 17.9582C144.135 16.3763 139.549 15.6962 137.253 16.3447C136.737 16.4942 136.232 16.6703 135.742 16.872C134.908 17.2602 134.002 17.5292 133.063 17.6682C131.835 17.7142 130.609 17.5602 129.45 17.2147C127.995 16.8667 126.615 16.5345 125.367 16.9985C124.76 17.2621 124.269 17.6796 123.961 18.1918C123.654 18.704 123.546 19.2846 123.654 19.8511C123.856 20.8868 124.41 21.8516 125.247 22.6298C125.912 23.2573 127.305 24.2907 129.187 24.0904C129.882 23.9829 130.554 23.7892 131.181 23.5156C131.966 23.1533 132.835 22.9375 133.728 22.8829Z" fill="#D1D3D4"></path><path d="M139.786 20.8302C139.368 20.8525 138.949 20.7931 138.563 20.6569C138.176 20.5206 137.833 20.311 137.559 20.0445C137.253 19.7878 136.902 19.5726 136.518 19.4065C136.058 19.2239 135.563 19.1114 135.056 19.0744C134.605 19.0638 134.161 18.9739 133.754 18.8104C133.347 18.647 132.985 18.4136 132.691 18.1253C132.364 17.7687 132.133 17.3571 132.013 16.9185C131.893 16.4798 131.887 16.0246 131.995 15.5838C132.128 15.006 132.403 14.458 132.802 13.9749C133.202 13.4918 133.718 13.0843 134.316 12.7787C137.622 11.1441 143.756 12.8472 145.757 15.2622C146.466 16.1163 147.275 17.8089 144.754 19.5225C143.428 20.3489 141.831 20.8094 140.181 20.8407L139.786 20.8302ZM137.528 12.6363C136.521 12.6086 135.523 12.8051 134.636 13.2058C134.115 13.4733 133.667 13.829 133.319 14.2502C132.972 14.6715 132.732 15.149 132.616 15.6523C132.522 16.0176 132.524 16.3957 132.623 16.7601C132.722 17.1245 132.914 17.4663 133.187 17.7614C133.431 17.9968 133.731 18.1862 134.069 18.317C134.406 18.4479 134.772 18.5173 135.144 18.5207C136.232 18.5774 137.253 18.9855 137.992 19.6596C138.251 19.9164 138.587 20.1101 138.966 20.2204C139.344 20.3308 139.751 20.3538 140.143 20.2871C141.659 20.2504 143.127 19.8336 144.359 19.0902C145.958 17.9987 146.24 16.7702 145.243 15.5416C143.901 13.9176 140.451 12.6363 137.528 12.6363Z" fill="#D1D3D4"></path><path d="M44.0533 18.9136C44.0533 18.9136 46.0794 17.5322 44.0533 15.75H40.7852C40.7852 15.75 41.4877 18.0542 40.7852 18.9136H44.0533Z" fill="#231F20"></path><path d="M44.0532 19.17H40.7851C40.7273 19.1695 40.6707 19.156 40.6211 19.131C40.5715 19.106 40.5307 19.0703 40.5029 19.0277C40.4736 18.9862 40.4582 18.9388 40.4582 18.8906C40.4582 18.8423 40.4736 18.795 40.5029 18.7535C41.0109 18.1366 40.6409 16.4229 40.4527 15.8166C40.4429 15.7767 40.4429 15.7356 40.4526 15.6957C40.4623 15.6558 40.4815 15.618 40.5091 15.5846C40.5393 15.5531 40.5775 15.5277 40.621 15.5104C40.6644 15.493 40.7119 15.4842 40.76 15.4844H44.0281C44.1124 15.4867 44.1927 15.5148 44.254 15.5635C44.5703 15.8058 44.8222 16.1015 44.993 16.4314C45.1638 16.7613 45.2497 17.1177 45.245 17.4775C45.166 18.1111 44.8026 18.6957 44.2289 19.112C44.1786 19.1458 44.1174 19.166 44.0532 19.17ZM41.2744 18.6428H43.9278C44.3206 18.3238 44.5652 17.8975 44.6178 17.4406C44.6191 17.1737 44.5559 16.9094 44.4319 16.6638C44.3079 16.4181 44.1257 16.1962 43.8964 16.0117H41.1615C41.4259 16.8714 41.4644 17.7692 41.2744 18.6428Z" fill="#231F20"></path><path d="M42.2776 17.8746C42.325 17.5672 42.2856 17.2546 42.1624 16.9624C42.0393 16.6701 41.8359 16.4064 41.5687 16.1926C41.3291 15.9306 41.0533 15.6934 40.747 15.4861C40.1588 15.1645 39.4996 14.9458 38.8087 14.8428C37.2845 14.5317 35.503 14.9271 33.9474 14.9535C32.2763 14.9802 30.6162 14.7219 29.0672 14.1942C28.5349 14.0431 28.0577 13.7799 27.6809 13.4297C27.292 15.3437 27.3422 17.4528 28.6532 19.061C29.764 20.2749 31.2997 21.1656 33.0441 21.6077C34.2038 22.001 35.4668 22.1286 36.7043 21.9776C37.9418 21.8266 39.1096 21.4024 40.0884 20.7483C40.9829 20.1805 41.6733 19.4159 42.0831 18.539C42.174 18.3235 42.2392 18.1009 42.2776 17.8746Z" fill="white"></path><path d="M35.7645 22.288C34.7925 22.2799 33.8293 22.1319 32.9167 21.8504C31.1139 21.3923 29.5276 20.4702 28.3815 19.214C27.2085 17.7745 26.8697 15.8183 27.3653 13.414C27.3763 13.364 27.4039 13.3176 27.445 13.2803C27.4861 13.2429 27.5389 13.2162 27.5974 13.203C27.6559 13.1907 27.7174 13.1932 27.7743 13.21C27.8312 13.2269 27.8809 13.2575 27.9173 13.298C28.2618 13.61 28.6928 13.8455 29.1718 13.9834C30.6978 14.4746 32.3247 14.7058 33.958 14.6636C34.4723 14.6636 35.0055 14.6056 35.57 14.5529C36.6721 14.3919 37.7989 14.3919 38.9009 14.5529C39.6347 14.6624 40.3345 14.8956 40.9583 15.2383C41.2784 15.4624 41.5706 15.7133 41.8303 15.9871C42.1262 16.2298 42.3501 16.5275 42.4841 16.8563C42.6182 17.1851 42.6585 17.5357 42.6018 17.88C42.5548 18.1252 42.477 18.3656 42.3697 18.5971C41.9369 19.5184 41.2124 20.3225 40.2746 20.9224C39.0004 21.7964 37.4091 22.2783 35.7645 22.288ZM27.8922 13.9623C27.566 16.0187 27.8922 17.6532 28.9021 18.9029C29.9696 20.0736 31.449 20.9315 33.1299 21.3547C34.241 21.7301 35.4502 21.8522 36.6354 21.7087C37.8205 21.5652 38.9396 21.1611 39.8794 20.5374C40.7247 19.9926 41.3756 19.263 41.7613 18.4283C41.8539 18.2306 41.9232 18.0258 41.9683 17.8167C42.0084 17.5465 41.9726 17.2722 41.8636 17.0158C41.7547 16.7594 41.5757 16.528 41.341 16.3403C41.1084 16.1106 40.8477 15.902 40.5632 15.7181C40.0071 15.4207 39.3869 15.2183 38.7378 15.1223C37.6999 14.9723 36.6393 14.9723 35.6014 15.1223C35.0494 15.1698 34.4723 15.2225 33.9329 15.2331C32.2156 15.2562 30.5099 14.9928 28.9147 14.458C28.5515 14.3276 28.2083 14.1612 27.8922 13.9623Z" fill="#231F20"></path><path d="M107.634 5.03125H81V19.816H107.634V5.03125Z" fill="white"></path><path d="M107.635 20.0804H81.0011C80.918 20.0804 80.8382 20.0526 80.7794 20.0032C80.7205 19.9538 80.6875 19.8867 80.6875 19.8168V5.02145C80.6875 4.95153 80.7205 4.88447 80.7794 4.83503C80.8382 4.78559 80.918 4.75781 81.0011 4.75781H107.635C107.718 4.75916 107.797 4.78737 107.855 4.83652C107.914 4.88568 107.947 4.95195 107.949 5.02145V19.8168C107.947 19.8863 107.914 19.9526 107.855 20.0017C107.797 20.0509 107.718 20.0791 107.635 20.0804ZM81.2897 19.5531H107.347V5.29036H81.3148L81.2897 19.5531Z" fill="#D1D3D4"></path><path d="M107.634 19.8203H81V22.7467H107.634V19.8203Z" fill="white"></path><path d="M107.635 23.0083H81.0011C80.918 23.0083 80.8382 22.9806 80.7794 22.9311C80.7205 22.8817 80.6875 22.8146 80.6875 22.7447V19.8183C80.6875 19.7484 80.7205 19.6813 80.7794 19.6319C80.8382 19.5825 80.918 19.5547 81.0011 19.5547H107.635C107.718 19.5547 107.798 19.5825 107.857 19.6319C107.916 19.6813 107.949 19.7484 107.949 19.8183V22.7447C107.949 22.8146 107.916 22.8817 107.857 22.9311C107.798 22.9806 107.718 23.0083 107.635 23.0083ZM81.2897 22.4811H107.347V20.082H81.3148L81.2897 22.4811Z" fill="#D1D3D4"></path><path d="M84.046 16.3745C83.9861 16.3765 83.9269 16.3637 83.8755 16.3377C83.8242 16.3118 83.783 16.2738 83.757 16.2284C83.731 16.183 83.7214 16.1322 83.7292 16.0823C83.7371 16.0324 83.7622 15.9855 83.8014 15.9474C84.1025 15.631 91.3287 8.18062 98.0656 8.62881C100.75 8.80808 102.582 9.98918 102.971 11.7925C103.146 12.5645 103.013 13.3636 102.592 14.0654C102.171 14.7673 101.486 15.3325 100.644 15.6732C98.7619 16.4061 97.0181 16.3956 95.8011 15.6416C95.2732 15.2873 94.8728 14.8167 94.6447 14.2823C94.4165 13.7478 94.3695 13.1706 94.5089 12.615C94.534 12.1353 94.7367 11.6742 95.0887 11.2961C95.4407 10.9179 95.9244 10.6417 96.4723 10.5059C97.0401 10.3801 97.6375 10.3847 98.2025 10.5192C98.7674 10.6536 99.279 10.9131 99.684 11.2705C99.87 11.4428 99.9894 11.6586 100.026 11.8893C100.063 12.12 100.016 12.3547 99.891 12.5623C99.4142 13.3374 98.8497 13.7434 98.2099 13.7645C97.1874 13.7645 96.4347 12.789 96.4033 12.7468C96.3817 12.7171 96.3673 12.6841 96.361 12.6496C96.3546 12.6152 96.3564 12.58 96.3664 12.5462C96.3763 12.5124 96.3941 12.4805 96.4187 12.4525C96.4434 12.4245 96.4744 12.4009 96.51 12.383C96.5448 12.3649 96.5836 12.3529 96.6241 12.3477C96.6646 12.3424 96.7059 12.344 96.7457 12.3523C96.7854 12.3607 96.8228 12.3756 96.8555 12.3963C96.8883 12.417 96.9158 12.4429 96.9365 12.4726C97.0996 12.6888 97.6202 13.2636 98.1911 13.2372C98.7619 13.2108 99.0818 12.7099 99.3327 12.3197C99.4019 12.2031 99.4259 12.0712 99.4011 11.9425C99.3764 11.8138 99.3041 11.695 99.1947 11.6026C98.8687 11.324 98.4609 11.1227 98.0126 11.019C97.5643 10.9153 97.0914 10.9129 96.6417 11.0121C96.2136 11.1231 95.8377 11.344 95.5666 11.6438C95.2955 11.9436 95.1428 12.3071 95.1299 12.6835C95.0095 13.1443 95.043 13.6241 95.2268 14.0698C95.4105 14.5156 95.7374 14.9099 96.1712 15.2092C97.1937 15.8472 98.7305 15.8419 100.38 15.2092C101.099 14.914 101.679 14.4263 102.032 13.823C102.384 13.2196 102.487 12.5349 102.325 11.8768C101.992 10.3319 100.374 9.31426 97.9903 9.15608C91.6109 8.71317 84.3596 16.2005 84.2906 16.2796C84.2605 16.3094 84.223 16.3333 84.1808 16.3497C84.1385 16.3661 84.0925 16.3746 84.046 16.3745Z" fill="#D1D3D4"></path></svg>