<svg xmlns="http://www.w3.org/2000/svg" width="162" height="120" viewBox="0 0 162 120" fill="none"><path d="M65.9883 38.2977C66.1481 34.9715 66.7591 31.7043 67.7946 28.6377C67.9464 28.179 68.3005 27.631 68.6497 27.8667C68.4473 29.2813 68.2432 30.6917 68.0374 32.0977C70.1137 30.3659 71.9153 28.1618 73.3501 25.5983C73.4715 25.3338 73.646 25.1141 73.856 24.9611C73.9618 24.8863 74.0865 24.8665 74.2037 24.9058C74.3208 24.945 74.4212 25.0403 74.4834 25.1714C74.5085 25.2943 74.5116 25.4227 74.4923 25.5472C74.473 25.6718 74.432 25.7894 74.3721 25.8914C73.7597 27.2742 73.0484 28.5837 72.2471 29.8038C73.259 27.8922 74.3671 25.9042 75.976 24.7891C75.8083 27.0033 75.147 29.1128 74.0685 30.8743L76.6439 27.2678C76.8766 26.9364 77.2662 26.586 77.5395 26.86C77.8127 27.134 77.6305 27.6756 77.4433 28.0324L75.6522 31.3968C76.5629 30.39 77.5091 29.4385 78.4907 28.5422C78.3186 30.594 77.074 32.2379 75.7483 33.4422C74.4227 34.6465 72.9301 35.6151 71.8423 37.1507C71.1899 38.1575 70.6329 39.2567 70.1827 40.426" fill="white"></path><path d="M70.1809 40.7192C70.1441 40.728 70.1064 40.728 70.0696 40.7192C70.0163 40.6816 69.9768 40.6191 69.9598 40.5452C69.9427 40.4712 69.9495 40.3918 69.9785 40.3241C70.4336 39.1319 71.001 38.013 71.6684 36.9916C72.4871 35.9283 73.4144 35.0069 74.4259 34.2516C74.8257 33.9203 75.2254 33.6144 75.6099 33.2385C76.9962 31.9641 77.8513 30.6387 78.1397 29.2496C77.3352 30.0142 76.5459 30.8171 75.792 31.6455C75.7525 31.7029 75.6964 31.7382 75.6361 31.7436C75.5759 31.749 75.5164 31.724 75.4708 31.6741C75.4251 31.6243 75.3971 31.5536 75.3928 31.4778C75.3886 31.4019 75.4084 31.327 75.448 31.2695L77.2391 27.9051C77.3909 27.612 77.5022 27.2679 77.3808 27.1213C77.2593 26.9748 77.0013 27.2169 76.804 27.4909L74.2286 31.1038C74.1846 31.1553 74.1268 31.184 74.0667 31.184C74.0066 31.184 73.9488 31.1553 73.9048 31.1038C73.858 31.0563 73.8281 30.9875 73.8214 30.9123C73.8148 30.8371 73.832 30.7617 73.8694 30.7024C74.8223 29.1425 75.444 27.3026 75.6757 25.3563C75.0202 25.9289 74.434 26.6178 73.9352 27.4017C73.4706 28.3014 72.9638 29.1653 72.4173 29.9887C72.3788 30.0459 72.3248 30.0828 72.2658 30.0923C72.2067 30.1017 72.1471 30.083 72.0985 30.0397C72.0519 29.9942 72.0207 29.9281 72.0113 29.8547C72.0019 29.7814 72.015 29.7063 72.0479 29.6447C72.5179 28.7477 73.0245 27.882 73.5658 27.0512C73.7834 26.6243 73.9858 26.191 74.1831 25.7768C74.2489 25.6175 74.3247 25.4264 74.2843 25.3117C74.2768 25.2921 74.2662 25.2746 74.2531 25.2604C74.2401 25.2461 74.2248 25.2354 74.2084 25.2289C74.132 25.1909 74.047 25.1909 73.9706 25.2289C73.8015 25.3627 73.6608 25.5464 73.5607 25.7641C72.1077 28.3594 70.2838 30.5914 68.1823 32.3464C68.1439 32.3777 68.0991 32.3943 68.0533 32.3943C68.0075 32.3943 67.9627 32.3777 67.9243 32.3464C67.8866 32.3155 67.8573 32.2709 67.8401 32.2186C67.823 32.1663 67.8188 32.1086 67.8281 32.0533C68.0154 30.7789 68.2076 29.4535 68.3898 28.1536C68.2198 28.3145 68.0927 28.5368 68.0255 28.7908C67.0002 31.8246 66.3961 35.0576 66.2394 38.3488C66.2354 38.4265 66.207 38.4991 66.1605 38.5505C66.114 38.6019 66.0532 38.6279 65.9915 38.6228C65.9298 38.6177 65.8722 38.582 65.8314 38.5234C65.7906 38.4649 65.7699 38.3883 65.7739 38.3106C65.9335 34.9508 66.5514 31.6507 67.6005 28.555C67.7213 28.135 67.9685 27.7917 68.2886 27.5992C68.3701 27.5581 68.458 27.5407 68.5456 27.5485C68.6332 27.5562 68.7184 27.5888 68.7945 27.6438C68.8378 27.6718 68.8726 27.7169 68.8936 27.7721C68.9146 27.8273 68.9207 27.8897 68.9109 27.9497C68.744 29.1349 68.5719 30.3137 68.405 31.4989C70.2662 29.8505 71.8887 27.8115 73.2015 25.471C73.3455 25.1612 73.5513 24.9041 73.7985 24.7255C73.9899 24.627 74.2042 24.627 74.3956 24.7255C74.4702 24.7593 74.5387 24.8118 74.5969 24.8796C74.6552 24.9475 74.702 25.0294 74.7346 25.1205C74.7857 25.269 74.7981 25.4341 74.77 25.5921C75.119 25.2115 75.4989 24.8784 75.9034 24.598C75.9389 24.5697 75.9802 24.5547 76.0223 24.5547C76.0643 24.5547 76.1056 24.5697 76.1412 24.598C76.1763 24.6265 76.2047 24.6664 76.2234 24.7135C76.2421 24.7606 76.2504 24.8131 76.2474 24.8657C76.1488 26.1412 75.8891 27.3888 75.4783 28.5614L76.4903 27.1213C76.9153 26.5224 77.3808 26.3567 77.7046 26.688C78.0284 27.0194 77.9981 27.5929 77.654 28.2492L76.7686 29.9059C77.2745 29.3707 77.8311 28.8545 78.3725 28.3575C78.4096 28.3281 78.4526 28.3125 78.4964 28.3125C78.5403 28.3125 78.5833 28.3281 78.6204 28.3575C78.6595 28.3847 78.6914 28.4258 78.7121 28.4757C78.7327 28.5255 78.7413 28.5819 78.7368 28.6379C78.585 30.4475 77.6338 32.168 75.8983 33.7355C75.5087 34.0923 75.1039 34.4237 74.6992 34.7614C73.7212 35.4901 72.8245 36.3793 72.0327 37.4057C71.3932 38.3844 70.8465 39.4536 70.4035 40.5917C70.3795 40.6369 70.3459 40.6728 70.3066 40.6953C70.2672 40.7178 70.2237 40.7261 70.1809 40.7192Z" fill="#231F20"></path><path d="M2.2991 43.1708C4.32296 40.3353 7.53078 38.4619 10.2175 37.6718C16.8203 35.7156 24.1416 34.9955 30.6736 37.8629C40.8688 42.3233 38.7336 58.2916 39.6494 69.2897C40.12 74.9352 40.1908 81.1097 41.8504 86.4176C43.687 92.2862 42.7055 97.4794 38.5515 101.71C35.4297 104.896 31.2707 106.082 27.2584 105.992C22.8109 105.89 15.692 108.133 11.9226 104.782C6.54921 100.003 5.55752 89.4316 4.1054 81.9954C2.20457 72.2421 0.94217 62.3088 0.330899 52.2955C0.140671 50.5252 0.210993 48.7259 0.538344 46.9877C0.886819 45.5631 1.48905 44.2576 2.2991 43.1708Z" fill="#231F20"></path><path d="M18.1949 106.924C15.7663 106.924 13.4641 106.51 11.7894 105.013C7.19018 100.922 5.78865 92.8675 4.5541 85.7563C4.33147 84.4819 4.11391 83.2075 3.89128 82.0669C1.98542 72.2971 0.719627 62.3467 0.106664 52.3161C-0.0878949 50.5117 -0.0158495 48.6776 0.319169 46.9062C0.683346 45.4424 1.30215 44.0993 2.13052 42.9747C3.95706 40.4259 6.96249 38.3359 10.1653 37.3928C18.1393 35.0352 25.0659 35.0989 30.7479 37.5904C39.0356 41.2288 39.3139 52.3543 39.5618 62.1672C39.6276 64.6778 39.6883 67.0545 39.8705 69.2592C39.9666 70.438 40.0475 71.6487 40.1336 72.8658C40.4371 77.4281 40.7559 82.1498 42.0562 86.3107C43.9738 92.4406 42.8405 97.6975 38.6865 101.928C35.843 104.834 31.7851 106.389 27.2517 106.274C26.007 106.242 24.5498 106.402 23.0117 106.567C21.4736 106.733 19.7938 106.924 18.1949 106.924ZM21.0283 36.2395C17.4008 36.2852 13.7896 36.8582 10.2664 37.9472C7.14464 38.8648 4.23028 40.8974 2.4594 43.357C1.67414 44.417 1.08948 45.687 0.74924 47.0719C0.431914 48.7775 0.363337 50.5414 0.546853 52.2778C1.16429 62.2776 2.42662 72.1975 4.32135 81.9395C4.54904 83.1056 4.7666 84.3417 4.99429 85.648C6.2086 92.6572 7.58989 100.597 12.0474 104.56C14.6886 106.905 19.0905 106.433 22.9712 106.013C24.5245 105.847 26.007 105.688 27.2568 105.72C31.6991 105.828 35.6457 104.318 38.388 101.502C42.3699 97.4362 43.4476 92.396 41.6211 86.521C40.3005 82.2836 39.9767 77.5237 39.6681 72.9167C39.5871 71.7061 39.5062 70.5018 39.405 69.3229C39.2178 67.0991 39.1621 64.716 39.0963 62.1927C38.8535 52.5582 38.5904 41.6366 30.5809 38.132C27.5035 36.8314 24.2742 36.1917 21.0283 36.2395Z" fill="#231F20"></path><path d="M22.1566 28.8213L23.5935 21.57C25.1469 13.7261 27.2871 5.63999 34.1024 3.19314C36.1263 2.4731 38.1502 2.75984 39.5112 5.06013C40.8874 3.60095 43.053 4.3847 44.4697 5.76742C46.4429 7.67902 47.7433 10.5018 48.6034 13.4138C50.1213 18.5879 50.3895 24.1825 52.1452 29.3438C43.4527 37.4235 31.0363 38.5641 21.5039 32.1603L22.1566 28.8213Z" fill="white"></path><path d="M34.9371 36.6643C30.2131 36.6885 25.5567 35.2509 21.3772 32.4779C21.3315 32.4482 21.2952 32.3999 21.274 32.3409C21.2529 32.2819 21.2483 32.2156 21.2608 32.1529L21.9338 28.7885L23.3707 21.5371C24.8886 13.8461 27.0997 5.42871 34.0364 2.95638C36.3588 2.12164 38.3068 2.73973 39.5515 4.68956C41.039 3.37693 43.1894 4.19892 44.6111 5.57527C46.3871 7.28934 47.8037 9.9146 48.8207 13.3746C49.4811 15.7882 50.0102 18.2556 50.4044 20.7597C50.8435 23.6712 51.4904 26.5269 52.3372 29.2919C52.3568 29.3527 52.36 29.4199 52.3463 29.4832C52.3325 29.5466 52.3027 29.6024 52.2613 29.6423C47.2254 34.2411 41.1575 36.7006 34.9371 36.6643ZM21.7516 32.0701C26.488 35.1201 31.7981 36.4751 37.1036 35.9875C42.4092 35.4999 47.5068 33.1883 51.8414 29.3046C51.0197 26.573 50.3882 23.7566 49.9541 20.8872C49.5626 18.3967 49.0386 15.9422 48.3856 13.5403C47.404 10.1886 46.0379 7.65254 44.3379 6.00219C42.9971 4.72779 40.958 3.92492 39.6678 5.28853C39.6436 5.31445 39.6153 5.33354 39.5848 5.34454C39.5542 5.35553 39.5222 5.35816 39.4907 5.35225C39.4597 5.34807 39.4296 5.33569 39.4026 5.31593C39.3756 5.29617 39.3522 5.26946 39.3339 5.23755C37.902 2.77796 35.7415 2.92452 34.1731 3.47888C27.4589 5.84927 25.3591 13.7697 23.8412 21.6455L21.7516 32.0701Z" fill="#231F20"></path><path d="M49.1413 37.9936C50.897 40.0582 54.8182 47.8384 58.3903 55.9946L65.7926 36.4325L71.8035 38.6882C71.8035 38.6882 66.3644 74.8111 61.0011 76.283C55.6379 77.7549 48.3267 61.6274 48.3267 61.6274L40.125 33.2656C40.125 33.2656 46.5204 34.9032 49.1413 37.9936Z" fill="#1F72F2"></path><path d="M39.5274 36.6958C39.5274 36.6958 47.6228 42.4306 49.2166 52.3518C50.8104 62.273 47.6987 92.6101 47.6987 92.6101L27.6119 91.5587C27.6119 91.5587 30.8855 55.404 28.9223 47.5345C26.9592 39.6651 27.0199 37.4795 28.9223 36.7021C30.8248 35.9248 35.9856 31.7766 39.5274 36.6958Z" fill="white"></path><path d="M47.7025 92.9036L27.6055 91.8714C27.5421 91.8682 27.4822 91.8339 27.4386 91.7758C27.4183 91.7451 27.4033 91.7094 27.3946 91.671C27.3858 91.6326 27.3836 91.5923 27.388 91.5528C27.4183 91.1896 30.6312 55.3662 28.7085 47.6497C26.7251 39.7166 26.7555 37.3079 28.8553 36.4477C29.1538 36.3266 29.5484 36.11 30.0038 35.8615C32.311 34.5871 36.5813 32.2677 39.6627 36.4987C40.2395 36.9192 47.9099 42.7241 49.4329 52.3204C50.9963 62.1587 47.9605 92.3684 47.915 92.6743C47.9049 92.7368 47.8785 92.7934 47.84 92.8349C47.8015 92.8765 47.7531 92.9007 47.7025 92.9036ZM27.8889 91.2788L47.5152 92.3111C47.8138 89.2971 50.465 61.6617 48.9977 52.4096C47.4798 42.7433 39.4957 37.0084 39.4198 36.9511C39.3957 36.9396 39.3746 36.9197 39.3591 36.8938C36.5156 32.9304 32.564 35.0841 30.2011 36.3712C29.7356 36.6261 29.3359 36.8428 29.0121 36.9766C27.4386 37.6138 27.1097 39.2195 29.1639 47.4522C31.0309 54.9839 28.2076 87.5002 27.8889 91.2788Z" fill="#231F20"></path><path d="M44.5145 97.8674C43.9781 81.7972 42.7486 68.7856 42.4906 64.236C42.2022 59.2531 41.1852 44.7886 40.0923 38.4612C38.6756 34.5233 39.2878 33.3636 39.2878 33.3636C39.2878 33.3636 47.2821 31.9491 49.6601 46.9742C50.3634 51.4028 52.1495 77.2158 53.8697 97.2684L44.5145 97.8674Z" fill="#1F72F2"></path><path d="M40.1087 30.6985L40.1441 38.4341C40.1441 38.4341 39.5218 42.8053 35.7877 41.4672C34.6856 41.0631 33.6685 40.3555 32.81 39.3956C31.9516 38.4358 31.2733 37.2477 30.8242 35.9172L31.2492 22.536C31.7405 20.1949 31.9486 17.774 31.8665 15.3547C36.4202 15.2592 39.962 10.9453 39.962 10.9453C39.962 10.9453 41.5203 13.9019 42.1983 14.8322C42.7419 15.5334 43.2144 16.3168 43.6049 17.1644C44.2323 18.6554 44.207 20.5097 44.1766 22.16C44.1627 24.1149 44.0086 26.0641 43.7162 27.984C43.1293 31.6225 40.1087 30.6985 40.1087 30.6985Z" fill="white"></path><path d="M37.1175 42.005C36.6481 41.997 36.1818 41.9091 35.7311 41.7438C34.5906 41.3331 33.5382 40.6043 32.6518 39.6116C31.7654 38.6188 31.0678 37.3875 30.6108 36.009C30.6037 35.9734 30.6037 35.9362 30.6108 35.9006C30.6108 35.9006 31.0307 22.5895 31.0307 22.5194C31.0504 22.3028 31.0877 22.0893 31.142 21.8822C31.563 19.7588 31.7335 17.5688 31.648 15.3828C31.6468 15.3439 31.652 15.3051 31.6633 15.2689C31.6746 15.2327 31.6918 15.1999 31.7138 15.1725C31.7343 15.1442 31.7593 15.1216 31.7872 15.1063C31.8151 15.0909 31.8452 15.0831 31.8757 15.0833C36.2675 14.9941 39.794 10.8013 39.8295 10.7567C39.8545 10.7283 39.884 10.7069 39.9162 10.694C39.9483 10.681 39.9822 10.6768 40.0157 10.6816C40.0492 10.6864 40.0815 10.7002 40.1104 10.7219C40.1394 10.7436 40.1643 10.7729 40.1836 10.8077C40.1836 10.8396 41.742 13.7516 42.3998 14.6309C42.9561 15.351 43.4388 16.1559 43.8367 17.0268C44.4995 18.5943 44.4692 20.5696 44.4388 22.1626C44.4273 24.1348 44.2714 26.1014 43.9733 28.0376C43.9099 28.5369 43.7659 29.0145 43.55 29.4408C43.3342 29.8672 43.0512 30.2332 42.7185 30.5163C42.0027 31.03 41.1704 31.2253 40.3557 31.0707L40.3911 38.4622C40.2107 39.6593 39.666 40.7203 38.8732 41.4188C38.3458 41.8255 37.7356 42.0293 37.1175 42.005ZM31.0459 35.8688C31.4906 37.1404 32.1502 38.2747 32.9785 39.1925C33.8069 40.1103 34.7843 40.7896 35.8425 41.183C36.2874 41.3862 36.7615 41.468 37.2334 41.423C37.7053 41.378 38.1642 41.2071 38.5797 40.9218C39.2642 40.317 39.7386 39.4048 39.9054 38.373L39.8801 30.6947C39.8798 30.6508 39.8874 30.6074 39.9023 30.5677C39.9172 30.528 39.939 30.493 39.9661 30.4653C39.9939 30.4388 40.0259 30.42 40.0599 30.4101C40.0939 30.4002 40.1292 30.3995 40.1634 30.408C40.9439 30.6173 41.758 30.4705 42.4605 29.9938C42.7407 29.7517 42.9783 29.4394 43.1585 29.0766C43.3387 28.7137 43.4576 28.3079 43.5078 27.8847C43.8007 25.9949 43.9548 24.0752 43.9683 22.1499C43.9683 20.5505 44.029 18.7345 43.4167 17.2944C43.0399 16.4678 42.5827 15.7037 42.0557 15.0196C41.4941 14.2422 40.3557 12.1458 39.9458 11.3812C39.1363 12.2796 36.0246 15.4274 32.1135 15.6249C32.1885 17.7685 32.0181 19.9145 31.6075 21.9969C31.5638 22.1735 31.5333 22.3548 31.5164 22.5385C31.5164 22.5385 31.476 22.7488 31.0611 35.8688H31.0459Z" fill="#231F20"></path><path d="M40.0767 34.5225C40.0767 34.5225 37.5823 34.6627 35.9834 32.5727C34.3846 30.4827 34.6173 28.3672 34.6173 28.3672C34.6173 28.3672 37.3141 30.6484 40.1121 30.7248L40.0767 34.5225Z" fill="#231F20"></path><path d="M39.9687 34.813C39.4324 34.813 37.2922 34.6856 35.8249 32.7676C34.1653 30.6011 34.3879 28.4283 34.3981 28.3072C34.4035 28.26 34.4185 28.2153 34.4415 28.1774C34.4645 28.1395 34.4949 28.1096 34.5296 28.0905C34.5619 28.0671 34.5986 28.0547 34.6359 28.0547C34.6732 28.0547 34.7098 28.0671 34.7421 28.0905C34.7421 28.0905 37.4187 30.3207 40.1205 30.3972C40.1787 30.3989 40.234 30.4291 40.2747 30.4815C40.3153 30.5339 40.3381 30.6043 40.3381 30.6776L40.3027 34.5008C40.3014 34.5719 40.2788 34.6397 40.2394 34.6906C40.1999 34.7415 40.1466 34.7716 40.0902 34.7748L39.9687 34.813ZM34.8332 28.8743C34.9212 30.2029 35.3864 31.4472 36.1436 32.3789C37.3934 34.0101 39.2401 34.2204 39.8574 34.2459L39.8878 30.9962C38.0975 30.7773 36.3696 30.052 34.8332 28.8743Z" fill="#231F20"></path><path d="M37.9361 19.6094C37.9361 19.6094 39.9145 23.3243 39.454 23.9742C38.9936 24.6241 37.668 24.1908 37.668 24.1908" fill="white"></path><path d="M38.5133 24.6109C38.1996 24.6067 37.8872 24.5575 37.5823 24.4644C37.5251 24.4449 37.4761 24.398 37.4459 24.3338C37.4156 24.2695 37.4065 24.1929 37.4204 24.1203C37.4275 24.0841 37.4402 24.0501 37.4578 24.0202C37.4755 23.9903 37.4976 23.9652 37.5231 23.9462C37.5485 23.9272 37.5767 23.9148 37.606 23.9097C37.6353 23.9046 37.6651 23.9068 37.6936 23.9164C38.0023 24.012 38.9484 24.2031 39.2571 23.7826C39.424 23.4831 38.7106 21.6097 37.7392 19.7682C37.714 19.7059 37.7078 19.6341 37.7217 19.5665C37.7356 19.4988 37.7687 19.4399 37.8147 19.4007C37.8607 19.3616 37.9164 19.3449 37.9715 19.354C38.0265 19.363 38.0771 19.397 38.1136 19.4496C38.7359 20.6284 40.1375 23.4321 39.5961 24.1649C39.4493 24.3283 39.2775 24.4521 39.0913 24.5288C38.9051 24.6055 38.7084 24.6335 38.5133 24.6109Z" fill="#231F20"></path><path d="M41.9904 19.7752C42.1774 19.766 42.3179 19.3993 42.3041 18.9562C42.2902 18.5132 42.1274 18.1615 41.9403 18.1707C41.7532 18.18 41.6128 18.5467 41.6266 18.9897C41.6404 19.4328 41.8033 19.7845 41.9904 19.7752Z" fill="#231F20"></path><path d="M36.4279 19.1659C36.6149 19.1566 36.7554 18.7899 36.7416 18.3469C36.7277 17.9038 36.5649 17.5521 36.3778 17.5614C36.1907 17.5706 36.0503 17.9373 36.0641 18.3804C36.0779 18.8235 36.2408 19.1751 36.4279 19.1659Z" fill="#231F20"></path><path d="M39.2817 26.1504L37.7082 25.6406C37.7082 25.6406 37.3894 28.5335 38.2749 28.7884C39.1603 29.0433 39.2817 26.1504 39.2817 26.1504Z" fill="white"></path><path d="M38.3822 29.0913C38.3302 29.1006 38.2774 29.1006 38.2254 29.0913C37.1679 28.7854 37.4513 25.9308 37.5018 25.5994C37.507 25.5604 37.5187 25.5231 37.5362 25.4902C37.5536 25.4572 37.5764 25.4293 37.603 25.4083C37.6282 25.3851 37.6573 25.3697 37.688 25.363C37.7187 25.3564 37.7503 25.3588 37.7801 25.37L39.3537 25.8734C39.4035 25.8895 39.4474 25.9269 39.4779 25.9792C39.5083 26.0315 39.5234 26.0954 39.5206 26.1602C39.5206 26.3832 39.4144 28.3266 38.8022 28.9065C38.6831 29.0267 38.5349 29.0919 38.3822 29.0913ZM37.9016 26.0009C37.8358 26.9248 37.8661 28.384 38.3266 28.5497C38.3599 28.561 38.3949 28.5617 38.4285 28.5517C38.462 28.5417 38.4931 28.5213 38.5188 28.4923C38.8224 28.2056 38.9944 27.1414 39.0248 26.4023L37.9016 26.0009Z" fill="#231F20"></path><path d="M33.3021 18.5956C32.8923 17.2383 31.5211 16.7349 30.4788 16.9962C30.135 17.0674 29.8156 17.2651 29.5608 17.5644C29.306 17.8638 29.1272 18.2514 29.047 18.6784C28.9635 19.2085 28.9635 19.7541 29.047 20.2842C29.1655 21.2572 29.4208 22.1958 29.8008 23.056C29.9768 23.5046 30.2395 23.8903 30.5648 24.1774C30.7741 24.3348 31.0164 24.4081 31.2596 24.3876C31.5027 24.3671 31.7352 24.2538 31.9259 24.0627" fill="white"></path><path d="M31.161 24.6844C30.9063 24.6826 30.6571 24.5898 30.4426 24.4167C30.0858 24.1038 29.797 23.6831 29.6027 23.1933C29.2024 22.2927 28.935 21.3083 28.8134 20.2877C28.7237 19.7198 28.7237 19.1352 28.8134 18.5672C28.9019 18.0862 29.1022 17.6492 29.3888 17.3121C29.6754 16.9751 30.0352 16.7532 30.4223 16.6748C31.5861 16.3816 33.0584 16.9679 33.5087 18.4525C33.5303 18.5244 33.5286 18.6041 33.504 18.6744C33.4794 18.7447 33.4339 18.8 33.3772 18.8285C33.3195 18.8553 33.2557 18.8523 33.1997 18.82C33.1438 18.7878 33.1003 18.729 33.0787 18.6564C32.7144 17.4649 31.4899 16.9997 30.5134 17.2419C30.2115 17.2989 29.9302 17.4692 29.7064 17.7307C29.4825 17.9922 29.3265 18.3325 29.2586 18.7074C29.1817 19.1997 29.1817 19.7062 29.2586 20.1985C29.3743 21.1516 29.6245 22.0709 29.9973 22.9129C30.1557 23.316 30.3903 23.6639 30.6804 23.9261C30.8517 24.0529 31.0498 24.1106 31.2479 24.0912C31.4461 24.0718 31.6347 23.9764 31.7884 23.8178C31.8137 23.796 31.8421 23.7807 31.872 23.7728C31.902 23.7649 31.9329 23.7644 31.9629 23.7715C31.993 23.7786 32.0217 23.7931 32.0473 23.8142C32.0729 23.8352 32.095 23.8624 32.1123 23.8942C32.1295 23.926 32.1417 23.9618 32.148 23.9995C32.1543 24.0372 32.1546 24.0761 32.149 24.114C32.1433 24.1518 32.1318 24.1879 32.1151 24.2202C32.0984 24.2525 32.0768 24.2803 32.0515 24.302C31.7922 24.5398 31.4817 24.6731 31.161 24.6844Z" fill="#231F20"></path><path d="M18.6602 97.8644C19.4007 94.0011 19.9482 90.0831 20.2995 86.1335C20.9471 76.9706 20.2995 45.7797 21.8477 39.5733C22.5966 36.6104 30.5149 34.4375 30.5149 34.4375C30.5149 34.4375 38.1044 85.0057 38.1044 98.6673L18.6602 97.8644Z" fill="#1F72F2"></path><path d="M32.0822 71.6374C33.9442 71.236 35.624 70.1464 37.3696 69.2224C38.0678 68.8529 38.7812 68.5151 39.5047 68.2348C40.3548 67.9034 41.1694 67.2662 42.0801 67.2344C42.6468 67.2344 42.5001 68.222 42.2876 68.5852C42.0696 68.9158 41.8077 69.1961 41.5134 69.4136C40.9822 69.8724 39.8589 70.688 39.6667 71.5164C40.3736 71.6683 41.0898 71.7408 41.8069 71.733C42.576 71.8413 43.3248 71.9879 44.0939 72.1727C44.8629 72.3575 45.5713 72.5741 46.2999 72.8099C46.9516 72.957 47.5929 73.1701 48.2175 73.4471C48.3642 73.5427 48.521 73.6828 48.5312 73.8867C48.5666 74.6132 47.2713 74.5239 46.9475 74.4857L40.9822 73.7338C43.0708 73.9812 45.1391 74.4501 47.1651 75.1357C47.3622 75.1746 47.5416 75.3012 47.671 75.4925C48.177 76.4547 46.0418 76.5056 45.804 76.512C44.7036 76.546 43.6026 76.5098 42.5051 76.4037L45.1867 76.9644C45.7838 77.0919 46.3859 77.2129 46.9779 77.4041C47.3058 77.4828 47.6114 77.6697 47.8633 77.9457C47.8977 77.983 47.9194 78.0354 47.924 78.0923C47.924 78.1687 47.8582 78.2197 47.8026 78.2516C47.2972 78.5106 46.7541 78.6322 46.2088 78.6084C45.0913 78.6363 43.974 78.5425 42.8694 78.328L46.1784 78.7741C46.4745 78.7726 46.7614 78.9036 46.988 79.1436C47.0138 79.2625 47.0085 79.3886 46.973 79.5033C46.9374 79.6181 46.8735 79.7154 46.7906 79.7808C46.6185 79.9099 46.424 79.9843 46.224 79.9975C45.0041 80.0931 43.7807 80.0931 42.5608 79.9975C41.2292 80.0061 39.8988 79.8996 38.5788 79.6789C35.9684 79.2687 33.4307 78.3125 31.0703 76.8497" fill="white"></path><path d="M44.9232 80.4059C44.5285 80.4059 44.144 80.4059 43.7595 80.3677C43.3749 80.3295 42.9601 80.3295 42.5553 80.3677C41.2137 80.3729 39.8734 80.2665 38.543 80.0491C35.9044 79.634 33.3393 78.667 30.9535 77.1881C30.8985 77.1525 30.8566 77.0914 30.8368 77.0177C30.817 76.9439 30.8207 76.8633 30.8473 76.793C30.8763 76.7248 30.9252 76.6735 30.9837 76.6497C31.0422 76.626 31.1057 76.6317 31.161 76.6656C33.4965 78.1173 36.0089 79.065 38.5936 79.4692C39.9085 79.6871 41.2341 79.7872 42.5603 79.7687C42.9702 79.7687 43.38 79.7687 43.7848 79.807C44.5873 79.8731 45.3928 79.8561 46.1932 79.756C46.3559 79.7432 46.5147 79.6867 46.6587 79.5903C46.6939 79.562 46.7233 79.5236 46.7445 79.4782C46.7656 79.4327 46.7778 79.3816 46.7801 79.3291C46.5941 79.1799 46.3783 79.1003 46.1578 79.0997L44.6044 78.8894C44.0125 78.8448 43.4205 78.762 42.8336 78.6536C42.774 78.6396 42.721 78.5975 42.6853 78.536C42.6496 78.4744 42.6338 78.398 42.6413 78.3223C42.6501 78.2479 42.6813 78.1806 42.7284 78.1344C42.7754 78.0881 42.8349 78.0664 42.8943 78.0738L44.6399 78.3095C45.1593 78.3478 45.6805 78.3605 46.2033 78.3478C46.6779 78.3688 47.1516 78.2781 47.5998 78.0802C47.3933 77.9035 47.1612 77.7801 46.9167 77.7169C46.3348 77.5322 45.7327 77.4047 45.1458 77.2837L42.4693 76.7229C42.4394 76.7187 42.4104 76.7072 42.3841 76.6889C42.3577 76.6706 42.3345 76.646 42.3157 76.6164C42.2969 76.5868 42.2829 76.5529 42.2745 76.5165C42.2662 76.4801 42.2636 76.442 42.2669 76.4043C42.2702 76.3667 42.2794 76.3302 42.2939 76.297C42.3084 76.2638 42.328 76.2346 42.3515 76.2109C42.375 76.1872 42.4019 76.1696 42.4308 76.1591C42.4597 76.1485 42.49 76.1453 42.5199 76.1494C43.6077 76.2514 44.7107 76.2832 45.7985 76.2514C46.8863 76.2195 47.4429 75.971 47.5087 75.8117C47.5087 75.7799 47.5087 75.7161 47.4783 75.6843C47.3768 75.5572 47.2456 75.4745 47.1039 75.4485C45.0904 74.7577 43.0338 74.2845 40.9564 74.0339C40.9001 74.0262 40.8479 73.9928 40.8097 73.94C40.7715 73.8872 40.7499 73.8186 40.749 73.7472V73.7153C40.7566 73.6393 40.7871 73.5698 40.8341 73.5212C40.8812 73.4726 40.9413 73.4486 41.002 73.4541L46.9673 74.2123C47.4067 74.3102 47.8593 74.2415 48.2676 74.0148C48.298 73.9766 48.303 73.9511 48.298 73.9192C48.2929 73.8874 48.2575 73.8109 48.1158 73.7281C47.7363 73.5248 47.3388 73.3793 46.9319 73.2948C46.6941 73.2311 46.4563 73.1737 46.2336 73.0909C45.5152 72.836 44.7815 72.613 44.0479 72.4537C43.3142 72.2944 42.53 72.1223 41.7812 72.0204C41.5222 71.989 41.2621 71.9742 41.002 71.9758C40.532 71.9933 40.0623 71.9311 39.6055 71.791C39.5754 71.7813 39.5473 71.7639 39.5229 71.7398C39.4985 71.7156 39.4784 71.6853 39.4638 71.6508C39.441 71.5792 39.441 71.4994 39.4638 71.4278C39.6561 70.6249 40.5314 69.8985 41.1689 69.3633L41.4826 69.0956C41.7251 68.9169 41.9408 68.6862 42.1202 68.4138C42.1835 68.2931 42.2261 68.1571 42.2453 68.0145C42.2645 67.8718 42.2597 67.7257 42.2315 67.5855C42.2315 67.5855 42.191 67.5154 42.105 67.5217C41.5293 67.5811 40.9678 67.7779 40.4505 68.1016C40.1722 68.2418 39.8838 68.3947 39.5903 68.5094C38.8735 68.7882 38.1691 69.1158 37.4805 69.4907C37.1617 69.6564 36.8429 69.8348 36.5292 70.0068C35.1334 70.8694 33.6583 71.5114 32.1375 71.9184C32.0809 71.921 32.0256 71.8976 31.9818 71.8526C31.938 71.8076 31.9087 71.744 31.8994 71.6737C31.8901 71.6034 31.9014 71.5313 31.9312 71.4708C31.9611 71.4103 32.0074 71.3656 32.0616 71.3449C33.5433 70.9439 34.9807 70.317 36.342 69.478L37.2983 68.9491C38.0031 68.5705 38.7224 68.2366 39.4537 67.9487C39.732 67.8366 40.0056 67.7069 40.2734 67.56C40.8453 67.2116 41.4623 66.9958 42.0949 66.9228C42.2052 66.9159 42.3148 66.9481 42.4114 67.0157C42.508 67.0833 42.5876 67.1835 42.6413 67.3051C42.7113 67.5411 42.7345 67.795 42.7089 68.0448C42.6834 68.2947 42.6098 68.5329 42.4946 68.7388C42.2864 69.0692 42.0328 69.3498 41.7457 69.5672L41.4219 69.8412C40.8944 70.2275 40.4209 70.7205 40.0204 71.3003C40.3555 71.3609 40.6938 71.3886 41.0323 71.3832C41.306 71.3791 41.5796 71.394 41.852 71.4278C42.6211 71.5297 43.3699 71.6827 44.1592 71.8675C44.9485 72.0522 45.6518 72.2753 46.3804 72.5365C46.5929 72.613 46.8206 72.6703 47.0432 72.7277C47.487 72.8207 47.9203 72.9812 48.3334 73.2056C48.4511 73.2558 48.5555 73.346 48.635 73.4664C48.7145 73.5867 48.766 73.7324 48.7837 73.8874C48.7896 73.9906 48.7766 74.0942 48.746 74.1903C48.7153 74.2863 48.6676 74.3723 48.6066 74.4417C48.2524 74.8687 47.3923 74.8432 47.0483 74.8049L47.2456 74.875C47.4954 74.9325 47.7202 75.1023 47.878 75.3529C47.9406 75.454 47.979 75.5753 47.9889 75.7028C47.9987 75.8303 47.9796 75.9587 47.9337 76.073C47.7414 76.5318 47.0331 76.7866 45.8339 76.8185C46.2387 76.9077 46.6536 77.0033 47.0584 77.1371C47.4369 77.224 47.788 77.4451 48.0703 77.7743C48.1088 77.8202 48.1394 77.8756 48.1602 77.9369C48.1811 77.9983 48.1918 78.0644 48.1917 78.1311C48.1861 78.2236 48.1591 78.3121 48.1142 78.3856C48.0692 78.4592 48.0083 78.5147 47.9388 78.5453C47.6704 78.6984 47.3857 78.8014 47.0938 78.8512C47.1317 78.8902 47.1672 78.9328 47.2 78.9786C47.2182 79.0021 47.232 79.0304 47.2405 79.0614C47.2895 79.2434 47.2887 79.4407 47.2383 79.622C47.1878 79.8033 47.0907 79.9582 46.9622 80.0618C46.7587 80.2181 46.5274 80.3079 46.2893 80.3231C45.8361 80.3912 45.3795 80.4189 44.9232 80.4059Z" fill="#231F20"></path><path d="M21.8206 39.5625C21.8206 39.5625 6.25209 75.2457 11.8329 77.6416C14.1198 78.6229 34.6013 80.133 34.6013 80.133L36.7719 69.0075L21.431 66.019L21.8206 39.5625Z" fill="#1F72F2"></path><path d="M41.9708 23.5026C41.2555 23.5 40.5569 23.2305 39.9632 22.7281C39.3695 22.2257 38.9074 21.5129 38.6353 20.6798C38.3632 19.8467 38.2933 18.9307 38.4344 18.0476C38.5755 17.1645 38.9214 16.3539 39.4282 15.7183C39.9351 15.0827 40.5802 14.6505 41.282 14.4765C41.9838 14.3024 42.7108 14.3943 43.3712 14.7405C44.0315 15.0867 44.5956 15.6716 44.992 16.4214C45.3885 17.1712 45.5996 18.0521 45.5986 18.953C45.5979 19.5518 45.5035 20.1446 45.3208 20.6974C45.1381 21.2503 44.8706 21.7524 44.5336 22.1749C44.1967 22.5975 43.7969 22.9322 43.3572 23.16C42.9174 23.3878 42.4463 23.5042 41.9708 23.5026ZM41.9708 14.9832C41.3474 14.9832 40.7379 15.216 40.2196 15.6522C39.7012 16.0884 39.2972 16.7084 39.0586 17.4338C38.82 18.1592 38.7576 18.9574 38.8792 19.7274C39.0008 20.4975 39.3011 21.2048 39.7419 21.76C40.1827 22.3152 40.7444 22.6933 41.3559 22.8464C41.9673 22.9996 42.6011 22.921 43.1771 22.6205C43.7531 22.3201 44.2454 21.8113 44.5917 21.1584C44.9381 20.5056 45.123 19.7381 45.123 18.953C45.1216 17.9006 44.7891 16.8919 44.1982 16.1478C43.6074 15.4037 42.8064 14.9849 41.9708 14.9832Z" fill="#231F20"></path><path d="M34.972 22.7711C34.2575 22.7711 33.559 22.5043 32.9649 22.0043C32.3708 21.5044 31.9078 20.7939 31.6344 19.9625C31.3609 19.1312 31.2894 18.2164 31.4288 17.3339C31.5682 16.4514 31.9122 15.6407 32.4175 15.0044C32.9227 14.3682 33.5664 13.9348 34.2672 13.7593C34.968 13.5837 35.6943 13.6738 36.3544 14.0182C37.0146 14.3625 37.5788 14.9457 37.9757 15.6939C38.3727 16.442 38.5846 17.3217 38.5846 18.2215C38.5832 19.4276 38.2022 20.5838 37.525 21.4367C36.8478 22.2895 35.9297 22.7694 34.972 22.7711ZM34.972 14.2517C34.3483 14.2505 33.7384 14.4822 33.2193 14.9177C32.7003 15.3531 32.2955 15.9726 32.0561 16.6979C31.8168 17.4232 31.7536 18.2216 31.8747 18.992C31.9958 19.7625 32.2956 20.4704 32.7362 21.0263C33.1768 21.5821 33.7385 21.9608 34.3501 22.1145C34.9617 22.2682 35.5957 22.1899 36.172 21.8897C36.7483 21.5894 37.2409 21.0806 37.5875 20.4276C37.9341 19.7747 38.1191 19.0069 38.1191 18.2215C38.1177 17.1703 37.7859 16.1625 37.1961 15.4185C36.6064 14.6746 35.8067 14.2551 34.972 14.2517Z" fill="#231F20"></path><path d="M36.7736 69.2881H36.7382L21.3974 66.2996C21.3654 66.294 21.3349 66.2796 21.3078 66.2576C21.2807 66.2356 21.2578 66.2065 21.2405 66.1722C21.2222 66.1392 21.2095 66.1018 21.2034 66.0623C21.1973 66.0227 21.1979 65.982 21.2051 65.9428L24.8986 45.871C24.9107 45.7941 24.9466 45.7264 24.9983 45.6828C25.05 45.6392 25.1133 45.6232 25.1744 45.6384C25.2354 45.6536 25.2892 45.6988 25.3238 45.7639C25.3585 45.829 25.3711 45.9088 25.3591 45.9857L21.7212 65.7389L36.8192 68.6764C36.8494 68.6826 36.8784 68.6962 36.9045 68.7166C36.9306 68.7369 36.9532 68.7636 36.971 68.7949C36.9889 68.8263 37.0017 68.8618 37.0086 68.8994C37.0155 68.9371 37.0165 68.976 37.0114 69.0141C37.0101 69.0518 37.003 69.0888 36.9903 69.1229C36.9776 69.1571 36.9598 69.1878 36.9377 69.2132C36.9156 69.2387 36.8897 69.2584 36.8616 69.2712C36.8334 69.2841 36.8035 69.2898 36.7736 69.2881Z" fill="#231F20"></path><path d="M52.0005 74.525C51.9443 74.5254 51.8899 74.4996 51.8478 74.4526C51.8058 74.4055 51.7791 74.3405 51.7728 74.2701L49.3594 49.0752C48.8888 44.1433 48.8888 44.1433 49.1013 44.0859L49.1924 44.6594L49.1469 44.3727H49.3796C49.41 44.806 52.2029 73.926 52.2333 74.2191C52.2404 74.296 52.2231 74.3733 52.1852 74.4341C52.1473 74.495 52.0918 74.5345 52.0309 74.5441L52.0005 74.525Z" fill="#231F20"></path><path d="M55.4533 63.0059C55.414 63.0054 55.3755 62.9925 55.3414 62.9683C55.3072 62.9441 55.2784 62.9094 55.2577 62.8675C55.237 62.8255 55.2251 62.7777 55.223 62.7283C55.2209 62.679 55.2288 62.6298 55.2458 62.5853L64.4139 39.4359C64.4411 39.367 64.4887 39.3144 64.5465 39.2894C64.6042 39.2644 64.6674 39.2689 64.7225 39.3021C64.7776 39.3376 64.8194 39.3987 64.8393 39.4725C64.8591 39.5462 64.8553 39.6268 64.8288 39.6971L55.6607 62.8466C55.6416 62.8951 55.612 62.9358 55.5753 62.964C55.5386 62.9922 55.4963 63.0067 55.4533 63.0059Z" fill="#231F20"></path><path d="M9.83334 63.5087H9.80298C9.73667 63.4991 9.67606 63.4569 9.63436 63.3912C9.59266 63.3256 9.57325 63.2418 9.58036 63.1583C9.58036 63.0499 10.5619 52.243 9.58036 46.8013C9.0744 43.9021 8.32557 42.8316 7.79936 42.4429C7.695 42.3518 7.57721 42.288 7.45295 42.2551C7.32869 42.2223 7.20046 42.2211 7.07583 42.2517C7.01142 42.2758 6.94208 42.2674 6.88255 42.2281C6.82302 42.1888 6.77801 42.1219 6.75708 42.0414C6.73786 41.962 6.74403 41.8763 6.77427 41.8025C6.80451 41.7287 6.85644 41.6727 6.91899 41.6464C7.10637 41.5879 7.30126 41.578 7.49176 41.6175C7.68226 41.6569 7.8644 41.7448 8.02705 41.8758C8.92767 42.513 9.61578 44.1251 10.0509 46.6675C11.0628 52.2048 10.0964 62.7823 10.0509 63.2347C10.0444 63.3046 10.0194 63.3696 9.97996 63.4194C9.94047 63.4691 9.88881 63.5006 9.83334 63.5087Z" fill="white"></path><path d="M31.5988 58.8598C31.565 58.8564 31.5323 58.8431 31.5033 58.821C31.4743 58.7989 31.4498 58.7685 31.4318 58.7324L26.7516 51.978C26.7114 51.9247 26.689 51.854 26.689 51.7805C26.689 51.707 26.7114 51.6363 26.7516 51.583L29.7874 47.6769L26.7516 44.1022C26.7127 44.0553 26.6878 43.9928 26.6814 43.9254C26.6749 43.858 26.6872 43.7899 26.7162 43.7327C27.2222 42.796 29.6711 38.1126 29.8785 37.8513C29.9221 37.7964 29.9813 37.7656 30.0429 37.7656C30.1046 37.7656 30.1637 37.7964 30.2074 37.8513C30.2288 37.878 30.2458 37.9097 30.2574 37.9447C30.269 37.9797 30.275 38.0173 30.275 38.0552C30.275 38.0931 30.269 38.1307 30.2574 38.1657C30.2458 38.2007 30.2288 38.2324 30.2074 38.2591C30.0455 38.4885 28.3657 41.649 27.2121 43.8474L30.2479 47.4539C30.2705 47.481 30.2884 47.5136 30.3006 47.5498C30.3128 47.586 30.319 47.6249 30.3187 47.6642C30.3175 47.7419 30.2941 47.8165 30.2529 47.8745L27.2171 51.7996L31.7708 58.3755C31.8099 58.4353 31.8292 58.5118 31.8245 58.589C31.8197 58.6663 31.7914 58.7382 31.7455 58.7897C31.7041 58.8329 31.6525 58.8575 31.5988 58.8598Z" fill="#231F20"></path><path d="M43.0654 57.2329C43.017 57.2317 42.9698 57.2141 42.9288 57.1819C42.8796 57.136 42.8464 57.068 42.836 56.9921C42.8256 56.9161 42.8389 56.838 42.8731 56.7741L46.5413 50.1918L42.7162 46.3686C42.6913 46.3428 42.6708 46.3108 42.6561 46.2746C42.6413 46.2385 42.6325 46.1989 42.6302 46.1583C42.6269 46.1188 42.6307 46.0789 42.6412 46.0414C42.6517 46.0039 42.6687 45.9699 42.691 45.9417L45.0083 42.8831L40.9605 38.2889C40.9182 38.2332 40.8945 38.159 40.8945 38.0818C40.8945 38.0047 40.9182 37.9305 40.9605 37.8747C41.0042 37.8199 41.0633 37.7891 41.125 37.7891C41.1867 37.7891 41.2458 37.8199 41.2894 37.8747L45.4889 42.6729C45.5121 42.6984 45.5308 42.7297 45.5439 42.7648C45.5569 42.7999 45.5641 42.838 45.5648 42.8768C45.5667 42.9157 45.5618 42.9547 45.5504 42.9911C45.5391 43.0274 45.5215 43.0602 45.4991 43.087L43.1969 46.1265L46.9967 49.9497C47.0436 49.9952 47.0745 50.0619 47.083 50.1356C47.0915 50.2093 47.0769 50.2844 47.0423 50.3447L43.2475 57.1564C43.223 57.1844 43.1942 57.2057 43.1628 57.2188C43.1315 57.232 43.0983 57.2368 43.0654 57.2329Z" fill="#231F20"></path><path d="M132.986 31.1241C134.053 31.0668 135.116 30.8374 136.356 30.7036C137.509 30.5761 138.992 30.0664 139.012 28.5817C139.012 27.3073 137.843 26.3132 138.106 25.1089C138.197 24.7855 138.336 24.487 138.516 24.2296C140.163 21.4465 140.892 17.9691 140.549 14.5249C140.207 11.0807 138.82 7.9367 136.679 5.7508C136.762 5.76892 136.847 5.76486 136.928 5.73889C137.01 5.71292 137.086 5.66561 137.152 5.60007C137.218 5.53452 137.272 5.45221 137.311 5.3585C137.35 5.26479 137.372 5.1618 137.378 5.05625C137.383 4.61926 137.25 4.19761 137.008 3.8838C136.153 2.6898 135.04 1.83517 133.805 1.42421C129.906 -0.0893198 125.734 -0.0893198 121.834 1.42421C118.839 2.52657 115.257 5.52778 115.646 10.0774C115.788 11.7086 116.805 13.308 118.11 13.3781C118.778 18.2527 120.807 21.5789 123.357 25.1089C125.066 27.5266 127.223 29.3742 129.636 30.4869C130.708 30.9768 131.847 31.1934 132.986 31.1241Z" fill="white"></path><path d="M132.52 31.4505C131.511 31.4583 130.509 31.2427 129.56 30.8133C127.104 29.6864 124.91 27.8075 123.174 25.3462C120.817 22.0901 118.646 18.7384 117.902 13.7045C116.506 13.4751 115.539 11.7547 115.398 10.1362C115.013 5.67579 118.317 2.41333 121.768 1.1453C125.716 -0.381766 129.937 -0.381766 133.886 1.1453C135.164 1.57867 136.317 2.46298 137.21 3.6941C137.351 3.88104 137.46 4.1011 137.533 4.34166C137.606 4.58222 137.641 4.83855 137.635 5.09594C137.62 5.26404 137.577 5.42617 137.508 5.5713C137.439 5.71643 137.346 5.84117 137.235 5.93704C139.272 8.22621 140.554 11.3925 140.829 14.8126C141.104 18.2326 140.353 21.6586 138.723 24.4158L138.687 24.4732C138.545 24.6856 138.432 24.9269 138.353 25.1869C138.333 25.4745 138.357 25.7644 138.426 26.04C138.495 26.3155 138.606 26.5713 138.753 26.7926C139.053 27.3173 139.228 27.9381 139.259 28.5831C139.259 29.9149 138.161 30.8197 136.37 31.0109C135.864 31.0682 135.358 31.1447 134.908 31.2084C134.245 31.3104 133.623 31.4059 132.99 31.4378L132.52 31.4505ZM128.011 0.641912C125.945 0.647504 123.891 1.02515 121.91 1.76338C119.471 2.66184 115.494 5.40817 115.929 10.0725C116.05 11.4743 116.941 13.0291 118.15 13.0992C118.208 13.1012 118.263 13.1283 118.306 13.176C118.35 13.2237 118.379 13.2889 118.388 13.3604C119.01 17.8909 120.761 21.0068 123.574 24.9256C125.255 27.3056 127.377 29.1247 129.752 30.2207C130.793 30.6855 131.898 30.8827 133 30.8006C133.618 30.8006 134.23 30.6732 134.882 30.5776C135.353 30.5075 135.844 30.4374 136.365 30.38C136.886 30.3227 138.768 30.0105 138.789 28.5704C138.747 28.0443 138.593 27.5423 138.343 27.1176C138.04 26.4804 137.721 25.7986 137.893 25.0212C137.983 24.6807 138.124 24.3649 138.308 24.0909L138.343 24.0335C139.948 21.3196 140.657 17.9291 140.323 14.5717C139.988 11.2142 138.635 8.14983 136.547 6.01988C136.501 5.97254 136.47 5.90641 136.459 5.83304C136.448 5.75966 136.458 5.68371 136.486 5.61844C136.514 5.55234 136.558 5.5006 136.613 5.47256C136.668 5.44452 136.729 5.44203 136.785 5.46552C136.816 5.47746 136.849 5.47964 136.88 5.47186C136.912 5.46408 136.942 5.44659 136.967 5.42091C137.018 5.37875 137.061 5.32338 137.093 5.25852C137.125 5.19367 137.146 5.12084 137.154 5.04496C137.15 4.69155 137.037 4.35387 136.841 4.10191C136.011 2.82751 134.68 2.13296 133.754 1.75064C131.899 0.99832 129.96 0.62403 128.011 0.641912Z" fill="#231F20"></path><path d="M117.08 20.5C117.08 20.5 114.318 26.2348 114.96 27.3563C115.603 28.4777 117.596 27.6175 117.596 27.6175" fill="white"></path><path d="M116.152 28.2403C115.889 28.2684 115.625 28.2165 115.381 28.089C115.137 27.9615 114.921 27.7621 114.751 27.5076C114.068 26.3033 116.193 21.6899 116.861 20.3008C116.876 20.2614 116.898 20.2265 116.925 20.1984C116.952 20.1702 116.984 20.1494 117.017 20.1373C117.051 20.1252 117.086 20.122 117.121 20.1279C117.156 20.1339 117.189 20.1488 117.219 20.1718C117.249 20.1948 117.274 20.2254 117.294 20.2616C117.314 20.2978 117.328 20.3388 117.335 20.3821C117.342 20.4254 117.341 20.47 117.334 20.513C117.326 20.556 117.311 20.5966 117.291 20.6322C116.006 23.302 114.827 26.5454 115.166 27.1316C115.601 27.9026 117.002 27.5012 117.508 27.2845C117.572 27.2579 117.642 27.2636 117.702 27.3005C117.763 27.3374 117.809 27.4025 117.832 27.4821C117.853 27.5615 117.848 27.6482 117.819 27.7233C117.79 27.7984 117.738 27.856 117.675 27.8835C117.185 28.098 116.671 28.2183 116.152 28.2403Z" fill="#231F20"></path><path d="M117.479 13.0863C115.673 15.0999 116.336 19.1206 116.432 21.7777C116.567 25.4862 116.771 29.1884 117.044 32.8841C117.216 35.229 122.053 35.0442 122.883 34.2987L122.412 43.6209C122.412 43.6209 124.755 44.3091 128.585 41.8495C132.415 39.3899 132.415 38.2238 132.415 38.2238L131.763 27.5125C131.763 27.5125 128.575 27.6846 126.551 22.9884C124.527 18.2922 124.355 10.9453 124.355 10.9453C124.355 10.9453 119.24 11.1301 117.479 13.0863Z" fill="white"></path><path d="M123.286 44.0193C122.974 44.0288 122.661 43.9946 122.355 43.9173C122.296 43.9019 122.244 43.8595 122.208 43.7983C122.173 43.737 122.157 43.6614 122.163 43.586L122.608 34.7862C121.525 35.2131 119.188 35.2705 117.867 34.5059C117.587 34.3908 117.338 34.1795 117.149 33.8957C116.959 33.612 116.837 33.2671 116.795 32.9001C116.526 29.2171 116.319 25.4767 116.182 21.7746C116.182 21.3349 116.137 20.857 116.101 20.3473C115.929 17.7985 115.717 14.6125 117.316 12.8538C119.127 10.8402 124.141 10.6172 124.354 10.6108C124.386 10.6065 124.419 10.6118 124.45 10.6261C124.481 10.6405 124.508 10.6636 124.531 10.6937C124.556 10.7218 124.576 10.7561 124.59 10.7945C124.604 10.8329 124.611 10.8745 124.612 10.9167C124.612 10.9932 124.784 18.2636 126.762 22.8387C128.69 27.2991 131.634 27.1908 131.756 27.1844C131.789 27.1818 131.821 27.1874 131.852 27.2007C131.883 27.2141 131.911 27.2349 131.936 27.2622C131.96 27.2894 131.98 27.3224 131.994 27.3594C132.009 27.3964 132.017 27.4365 132.019 27.4775L132.667 38.1825C132.667 38.4374 132.479 39.6863 128.7 42.114C127.04 43.2772 125.185 43.93 123.286 44.0193ZM122.679 43.3374C123.327 43.4267 125.421 43.5095 128.472 41.5469C131.963 39.304 132.166 38.1889 132.166 38.1761L131.533 27.8153C130.719 27.7643 128.098 27.2545 126.317 23.1446C124.536 19.0346 124.172 12.7582 124.116 11.2608C123.079 11.3309 119.107 11.7132 117.65 13.3317C116.243 14.8928 116.445 17.8877 116.607 20.2963C116.643 20.8124 116.673 21.2967 116.688 21.7491C116.825 25.4385 117.032 29.1661 117.301 32.8364C117.331 33.2824 117.594 33.6456 118.08 33.926C119.491 34.748 122.198 34.5122 122.74 34.028C122.78 33.9956 122.826 33.9784 122.874 33.9784C122.921 33.9784 122.968 33.9956 123.008 34.028C123.05 34.0569 123.085 34.1005 123.108 34.1536C123.132 34.2066 123.142 34.2669 123.139 34.3274L122.679 43.3374Z" fill="#231F20"></path><path d="M117.031 30.0951C117.031 30.0951 119.369 31.7518 120.492 28.7188L117.031 30.0951Z" fill="white"></path><path d="M118.457 30.8718C117.927 30.8571 117.407 30.6869 116.939 30.3748C116.91 30.3549 116.884 30.3277 116.863 30.2949C116.842 30.2621 116.827 30.2243 116.818 30.1839C116.809 30.1434 116.806 30.1011 116.811 30.0594C116.815 30.0178 116.826 29.9777 116.843 29.9415C116.876 29.8681 116.931 29.8141 116.995 29.7914C117.06 29.7687 117.129 29.7791 117.187 29.8204C117.761 30.2043 118.427 30.3108 119.059 30.1199C119.339 29.9891 119.593 29.7852 119.806 29.5217C120.019 29.2581 120.185 28.9408 120.294 28.5906C120.308 28.5523 120.328 28.518 120.352 28.4896C120.377 28.4611 120.406 28.4391 120.438 28.4249C120.469 28.4107 120.503 28.4045 120.536 28.4067C120.57 28.4089 120.602 28.4194 120.633 28.4377C120.693 28.4736 120.739 28.5379 120.762 28.6166C120.784 28.6953 120.782 28.7821 120.754 28.8582C120.617 29.2901 120.409 29.6802 120.143 30.0022C119.877 30.3243 119.559 30.5708 119.211 30.7252C118.967 30.8235 118.713 30.8729 118.457 30.8718Z" fill="#231F20"></path><path d="M122.891 23.7794C122.975 23.0095 123.252 22.2933 123.68 21.734C123.972 21.208 124.325 20.7398 124.727 20.3449C125.18 19.9213 125.738 19.7156 126.301 19.765C126.53 19.7957 126.751 19.8843 126.952 20.0255C127.153 20.1668 127.329 20.3578 127.47 20.587C127.703 21.0024 127.839 21.4931 127.859 22.0016C128.021 24.1681 126.898 26.462 125.041 27.7364L125.198 27.5516" fill="white"></path><path d="M125.034 28.0264C124.993 28.0256 124.953 28.0132 124.918 27.99C124.882 27.9668 124.85 27.9334 124.826 27.8926C124.79 27.8291 124.774 27.7513 124.781 27.6738C124.787 27.5963 124.816 27.5245 124.862 27.472L125.024 27.2872C125.049 27.2567 125.079 27.2336 125.112 27.2193C125.146 27.205 125.181 27.1999 125.216 27.2044C126.794 25.9682 127.746 23.9292 127.604 22.0239C127.589 21.5664 127.469 21.124 127.26 20.7495C127.138 20.5527 126.985 20.3894 126.811 20.2699C126.637 20.1505 126.445 20.0773 126.248 20.055C125.746 20.0127 125.249 20.1981 124.846 20.5775C124.459 20.9545 124.119 21.4011 123.835 21.9029C123.445 22.4105 123.188 23.0548 123.096 23.7508C123.096 23.8353 123.069 23.9163 123.022 23.976C122.974 24.0358 122.91 24.0694 122.843 24.0694C122.776 24.0694 122.711 24.0358 122.664 23.976C122.616 23.9163 122.59 23.8353 122.59 23.7508C122.672 22.9079 122.968 22.1212 123.435 21.5078C123.741 20.9589 124.111 20.4713 124.533 20.0614C125.036 19.5884 125.658 19.362 126.283 19.4242C126.546 19.4602 126.8 19.563 127.031 19.7261C127.261 19.8893 127.463 20.1096 127.624 20.3736C127.888 20.8366 128.041 21.385 128.064 21.9539C128.231 24.2287 127.052 26.65 125.115 27.9754C125.09 27.998 125.063 28.0153 125.034 28.0264Z" fill="#231F20"></path><path d="M122.887 34.2807C122.887 34.2807 125.361 33.1848 126.464 30.9609C126.464 30.9609 126.464 36.6129 122.68 38.4353L122.887 34.2807Z" fill="#231F20"></path><path d="M122.68 38.7553C122.625 38.7568 122.571 38.7343 122.528 38.6916C122.494 38.6609 122.466 38.6195 122.448 38.5714C122.431 38.5234 122.423 38.4704 122.427 38.4176L122.634 34.263C122.637 34.2009 122.654 34.1412 122.684 34.0913C122.714 34.0415 122.754 34.0037 122.801 33.9827C122.826 33.9827 125.209 32.8931 126.247 30.7967C126.275 30.7364 126.318 30.6896 126.37 30.6635C126.422 30.6374 126.479 30.6335 126.532 30.6524C126.586 30.6713 126.633 30.7119 126.666 30.7679C126.7 30.8239 126.718 30.8923 126.717 30.9623C126.717 31.0197 126.677 36.8564 122.766 38.7362C122.738 38.7492 122.709 38.7557 122.68 38.7553ZM123.13 34.5116L122.958 37.9461C125.26 36.5825 125.933 33.6195 126.13 32.0265C125.278 33.1114 124.256 33.9619 123.13 34.5243V34.5116Z" fill="#231F20"></path><path d="M118.895 19.144C119.12 19.0849 119.205 18.4562 119.086 17.7397C118.967 17.0232 118.689 16.4902 118.465 16.5493C118.24 16.6084 118.155 17.2371 118.274 17.9536C118.393 18.6701 118.671 19.203 118.895 19.144Z" fill="#231F20"></path><path d="M105.046 76.5759C103.726 77.5444 102.01 76.9136 100.745 75.824C99.6875 74.8933 98.8079 73.677 98.1707 72.2638C97.5334 70.8506 97.1547 69.2761 97.062 67.6551C96.9658 66.5702 97.1297 65.4739 97.5325 64.5073C100.958 57.2878 110.44 72.6253 105.046 76.5759Z" fill="white"></path><path d="M103.573 77.3648C102.508 77.3138 101.479 76.8707 100.613 76.0904C99.529 75.1324 98.6278 73.8831 97.9742 72.433C97.3205 70.9828 96.9308 69.3679 96.8332 67.7049C96.7304 66.5613 96.9069 65.4054 97.3392 64.3914C98.1032 62.7793 99.2113 62.0975 100.562 62.4097C103.203 63.0469 106.244 67.5073 106.816 71.5854C107.145 73.9622 106.558 75.8292 105.166 76.8551C104.682 77.2043 104.131 77.3805 103.573 77.3648ZM99.9399 62.9004C99.4783 62.915 99.0288 63.0884 98.64 63.4018C98.2511 63.7152 97.9378 64.1566 97.7338 64.6782C97.3485 65.5899 97.1948 66.6286 97.2937 67.6539C97.3868 69.2296 97.7565 70.7596 98.3759 72.1337C98.9954 73.5077 99.8492 74.6916 100.876 75.5998C101.999 76.5747 103.654 77.2756 104.924 76.3389C106.477 75.1983 106.558 73.1529 106.35 71.6746C105.814 67.8514 102.905 63.5312 100.466 62.9641C100.292 62.9249 100.116 62.9036 99.9399 62.9004Z" fill="#231F20"></path><path d="M80.0812 79.0932L103.674 78.73L92.7455 43.7031L69.1523 44.06L80.0812 79.0932Z" fill="white"></path><path d="M80.079 79.3797C80.0325 79.3815 79.9868 79.3646 79.9486 79.3313C79.9104 79.298 79.8816 79.2503 79.8665 79.1949L68.9326 44.1489C68.9153 44.1076 68.9062 44.0617 68.9062 44.0151C68.9062 43.9684 68.9153 43.9225 68.9326 43.8813C68.9525 43.8416 68.9802 43.8091 69.013 43.7868C69.0457 43.7644 69.0825 43.7531 69.1198 43.7538L92.7129 43.3906C92.7585 43.3965 92.8021 43.4165 92.8401 43.4487C92.878 43.4809 92.9091 43.5245 92.9305 43.5754L103.864 78.6214C103.877 78.6652 103.882 78.7122 103.877 78.7585C103.873 78.8049 103.86 78.8492 103.839 78.8879C103.818 78.9265 103.79 78.9583 103.758 78.9807C103.725 79.0031 103.689 79.0154 103.652 79.0165L80.0587 79.3733L80.079 79.3797ZM69.4841 44.3337L80.2358 78.7871L103.338 78.4303L92.5864 43.9832L69.4841 44.3337Z" fill="#231F20"></path><path d="M80.8859 78.2431L104.479 77.8863L93.5502 42.8594L69.957 43.2162L80.8859 78.2431Z" fill="white"></path><path d="M80.8818 78.5359C80.8355 78.5368 80.7902 78.5194 80.7521 78.4863C80.714 78.4532 80.6851 78.406 80.6693 78.3512L69.7354 43.3051C69.7193 43.2635 69.7109 43.2177 69.7109 43.1713C69.7109 43.125 69.7193 43.0792 69.7354 43.0375C69.7558 42.9979 69.7834 42.965 69.816 42.9417C69.8486 42.9184 69.8852 42.9054 69.9226 42.9037L93.5208 42.5469C93.5668 42.551 93.611 42.5702 93.6492 42.6027C93.6874 42.6351 93.7181 42.6796 93.7384 42.7317L104.667 77.7777C104.681 77.8215 104.686 77.8688 104.681 77.9155C104.677 77.9621 104.663 78.0067 104.642 78.0453C104.622 78.0849 104.594 78.1178 104.561 78.1411C104.529 78.1644 104.492 78.1774 104.455 78.1791L80.8616 78.5359H80.8818ZM70.292 43.4899L81.0387 77.937L104.141 77.5865L93.3893 43.1395L70.292 43.4899Z" fill="#231F20"></path><path d="M78.6905 60.9936C78.6238 60.992 78.5602 60.9579 78.513 60.8985C78.4659 60.8391 78.4388 60.759 78.4375 60.675C78.4375 60.5906 78.4641 60.5095 78.5116 60.4498C78.559 60.39 78.6234 60.3564 78.6905 60.3564L95.529 60.1016C95.5952 60.1015 95.6588 60.1342 95.7061 60.1926C95.7534 60.251 95.7807 60.3304 95.782 60.4138C95.782 60.4989 95.7555 60.5806 95.7082 60.6414C95.6609 60.7021 95.5966 60.7371 95.529 60.7388L78.6905 60.9936Z" fill="#D1D3D4"></path><path d="M79.8038 64.5651C79.7367 64.5651 79.6723 64.5315 79.6249 64.4718C79.5774 64.412 79.5508 64.331 79.5508 64.2465C79.5508 64.162 79.5774 64.0809 79.6249 64.0212C79.6723 63.9614 79.7367 63.9279 79.8038 63.9279L96.6423 63.673C96.676 63.6693 96.71 63.6748 96.742 63.689C96.7739 63.7032 96.8031 63.7258 96.8275 63.7554C96.852 63.785 96.8711 63.8208 96.8837 63.8604C96.8962 63.9 96.9019 63.9426 96.9003 63.9852C96.901 64.0271 96.8951 64.0687 96.883 64.1076C96.8709 64.1466 96.8528 64.1822 96.8298 64.2124C96.8068 64.2426 96.7793 64.2667 96.7488 64.2835C96.7184 64.3003 96.6856 64.3094 96.6524 64.3102L79.8088 64.5651H79.8038Z" fill="#D1D3D4"></path><path d="M80.9249 68.1343C80.8578 68.1343 80.7934 68.1007 80.746 68.0409C80.6985 67.9812 80.6719 67.9002 80.6719 67.8157C80.6719 67.7312 80.6985 67.6501 80.746 67.5904C80.7934 67.5306 80.8578 67.4971 80.9249 67.4971L97.7684 67.2422C97.8355 67.2422 97.8999 67.2757 97.9473 67.3355C97.9948 67.3952 98.0214 67.4763 98.0214 67.5608C98.0214 67.6453 97.9948 67.7263 97.9473 67.7861C97.8999 67.8458 97.8355 67.8794 97.7684 67.8794L80.9249 68.1343Z" fill="#D1D3D4"></path><path d="M88.1983 71.6154C88.1316 71.6137 88.068 71.5796 88.0208 71.5202C87.9737 71.4609 87.9466 71.3808 87.9453 71.2968C87.9453 71.2123 87.972 71.1312 88.0194 71.0715C88.0669 71.0117 88.1312 70.9782 88.1983 70.9782L98.8742 70.8125C98.9413 70.8125 99.0056 70.8461 99.053 70.9058C99.1005 70.9656 99.1271 71.0466 99.1271 71.1311C99.1271 71.2156 99.1005 71.2966 99.053 71.3564C99.0056 71.4161 98.9413 71.4497 98.8742 71.4497L88.1983 71.6154Z" fill="#D1D3D4"></path><path d="M77.8034 58.1321C77.7525 58.1339 77.7023 58.1159 77.6598 58.0806C77.6172 58.0452 77.5843 57.9942 77.5656 57.9345L73.9328 46.261C73.9193 46.213 73.9149 46.1617 73.92 46.1113C73.9252 46.0608 73.9396 46.0125 73.9623 45.9703C73.9849 45.9282 74.0151 45.8933 74.0504 45.8685C74.0857 45.8438 74.1252 45.8298 74.1655 45.8277L83.3438 45.6875C83.3946 45.6866 83.4444 45.7049 83.4868 45.7401C83.5292 45.7754 83.5623 45.8259 83.5816 45.8851L87.2194 57.5586C87.2343 57.6064 87.2397 57.658 87.2353 57.709C87.2309 57.7601 87.2168 57.809 87.1942 57.8517C87.1718 57.8953 87.1411 57.931 87.1048 57.9555C87.0685 57.9801 87.0279 57.9926 86.9867 57.9919L77.8085 58.1321H77.8034ZM74.5298 46.4585L77.9704 57.4949L86.6123 57.361L83.1667 46.3247L74.5298 46.4585Z" fill="#D1D3D4"></path><path d="M91.8977 49.5729H91.336L90.8807 48.1073H90.4708L90.1976 49.5792H89.5196L89.8788 48.0372C89.6486 48.0126 89.4281 47.909 89.2413 47.7377C89.0661 47.5777 88.9323 47.356 88.8568 47.1005C88.7996 46.95 88.7802 46.781 88.8011 46.6162C88.8248 46.4917 88.8843 46.3827 88.9681 46.3104C89.0672 46.2265 89.1793 46.1701 89.297 46.1447C89.4371 46.1108 89.5794 46.0937 89.722 46.0938H90.8199L91.8977 49.5729ZM90.7137 47.5912L90.4202 46.6481H89.9143H89.6967C89.6322 46.6579 89.5692 46.6794 89.5095 46.7118C89.4608 46.7422 89.4229 46.7945 89.4032 46.8584C89.3902 46.8966 89.3834 46.9378 89.3834 46.9795C89.3834 47.0211 89.3902 47.0623 89.4032 47.1005C89.4315 47.2035 89.4803 47.2957 89.5449 47.3682C89.6072 47.4295 89.6773 47.477 89.7524 47.5083C89.8301 47.5351 89.9098 47.5522 89.9902 47.5593H90.2381L90.7137 47.5912Z" fill="#D1D3D4"></path><path d="M89.1103 49.6191L86.9398 49.651L86.7677 49.0966H88.3767L88.0832 48.1599H86.6362L86.4591 47.6056H87.9112L87.6431 46.7581H86.1252L85.9531 46.2037L88.0428 46.1719L89.1103 49.6191Z" fill="#D1D3D4"></path><path d="M90.2891 50.7297C90.3775 50.5961 90.4955 50.4985 90.6281 50.4493C90.7769 50.3893 90.9322 50.3592 91.0885 50.3601C91.238 50.3555 91.3874 50.3726 91.5337 50.4111C91.6825 50.4536 91.8268 50.5178 91.9638 50.6023C92.0977 50.6838 92.2207 50.7913 92.3281 50.9209C92.4371 51.0508 92.5218 51.2097 92.576 51.386C92.6367 51.5378 92.6511 51.7124 92.6165 51.8767C92.583 51.9986 92.5191 52.1036 92.4344 52.1761C92.3396 52.2557 92.2354 52.3159 92.1257 52.3546C92.0176 52.3944 91.9113 52.4412 91.807 52.4947C91.7241 52.5351 91.6485 52.5958 91.5843 52.6732C91.5611 52.7164 91.5486 52.7675 91.5486 52.8197C91.5486 52.872 91.5611 52.923 91.5843 52.9663C91.6106 53.0461 91.6503 53.1178 91.7007 53.1765C91.7536 53.2362 91.8133 53.2856 91.8778 53.3231C91.9423 53.3612 92.0103 53.389 92.0802 53.4059C92.149 53.4182 92.2188 53.4182 92.2876 53.4059C92.4002 53.409 92.5116 53.3761 92.6114 53.3104C92.6969 53.2487 92.763 53.152 92.7986 53.0364L93.3603 53.4824C93.281 53.6549 93.1554 53.786 93.0061 53.852C92.8348 53.9247 92.6556 53.9634 92.4748 53.9667C92.3183 53.9675 92.1621 53.9461 92.0093 53.9029C91.8597 53.8612 91.7151 53.7948 91.5793 53.7054C91.4459 53.6153 91.3246 53.4991 91.22 53.3613C91.1129 53.2221 91.0286 53.0575 90.9721 52.8771C90.914 52.7243 90.8997 52.5509 90.9316 52.3864C90.9661 52.2634 91.0296 52.1566 91.1138 52.0806C91.2086 52.001 91.3127 51.9408 91.4224 51.9021C91.5388 51.8575 91.645 51.8066 91.7412 51.762C91.8239 51.723 91.9008 51.6671 91.9689 51.5963C91.9947 51.5593 92.011 51.5132 92.0155 51.4643C92.02 51.4153 92.0126 51.3658 91.9942 51.3223C91.9689 51.2486 91.9329 51.1816 91.8879 51.1248C91.8394 51.0688 91.7849 51.0216 91.726 50.9846C91.6637 50.9524 91.5994 50.9268 91.5337 50.9081H91.3364C91.2359 50.9074 91.1363 50.9312 91.043 50.9782C91.0041 50.996 90.9688 51.024 90.9391 51.0602C90.9095 51.0964 90.8862 51.1402 90.8709 51.1885L90.2891 50.7297Z" fill="#D1D3D4"></path><path d="M87.0859 50.5027H87.6476L88.3256 52.6691C88.3544 52.7646 88.3936 52.8547 88.4419 52.9368C88.4984 53.0324 88.5648 53.1181 88.6393 53.1916C88.7262 53.2716 88.8216 53.336 88.9226 53.3828C89.038 53.4333 89.1597 53.457 89.2818 53.4529C89.3902 53.4575 89.4978 53.4291 89.5955 53.3701C89.663 53.3267 89.7179 53.2576 89.7524 53.1725C89.7826 53.0933 89.7948 53.0051 89.7878 52.9177C89.7834 52.8261 89.768 52.7358 89.7423 52.65L89.0541 50.4453H89.6158L90.2988 52.6373C90.3598 52.8161 90.3875 53.0101 90.3798 53.2044C90.3729 53.3618 90.3249 53.5119 90.2432 53.6313C90.1596 53.7601 90.0492 53.8572 89.9244 53.9117C89.7739 53.9818 89.6143 54.0164 89.4539 54.0136C89.2741 54.0194 89.0948 53.9892 88.9226 53.9244C88.7441 53.8715 88.5733 53.7833 88.4166 53.6632C88.2675 53.5437 88.1314 53.4002 88.0119 53.2363C87.8952 53.0711 87.8027 52.8813 87.7386 52.6755L87.0859 50.5027Z" fill="#D1D3D4"></path><path d="M94.4283 57.5985H93.9982L93.2747 55.2855L93.2241 57.6112H92.9104L91.4178 55.3109L92.1363 57.624H91.7062L90.8359 54.8394H91.519L92.8143 56.7829L92.88 54.8203H93.5681L94.4283 57.5985Z" fill="#D1D3D4"></path><path d="M91.136 57.6454H89.3904L89.2488 57.1993H90.544L90.3113 56.4475H89.1425L89.0059 56.0014H90.1696L89.9571 55.3196H88.7276L88.5859 54.8672H90.2657L91.136 57.6454Z" fill="#D1D3D4"></path><path d="M77.9482 54.6063C77.4423 53.8544 77.6143 52.9751 77.5789 52.1212C77.5435 51.2674 77.2753 50.439 77.25 49.6234C77.2696 49.0762 77.3998 48.5444 77.6282 48.0783C77.8567 47.6122 78.1758 47.2273 78.5554 46.9599C78.7856 46.7653 79.0589 46.6672 79.336 46.6798C79.6132 46.6924 79.8801 46.815 80.0986 47.03C80.3465 46.5394 80.9638 46.5776 81.4394 46.8325C82.0938 47.2134 82.6624 47.7937 83.0939 48.5211C83.6437 49.3477 84.0226 50.3327 84.1969 51.3885C84.2816 51.879 84.2825 52.3866 84.1997 52.8777C84.1168 53.3687 83.952 53.832 83.7162 54.2367C83.2234 54.9443 82.5406 55.3981 81.7986 55.5111C81.0249 55.634 80.2411 55.6169 79.4712 55.4602C78.9791 55.4212 78.5073 55.1995 78.1152 54.823C78.0558 54.7555 78 54.6832 77.9482 54.6063Z" fill="white"></path><path d="M80.9099 55.895C80.4189 55.8893 79.9287 55.8424 79.4427 55.7548C78.9014 55.7203 78.3811 55.4804 77.9501 55.0667C77.8792 54.9881 77.8133 54.9029 77.7527 54.8118C77.4037 54.2095 77.2532 53.4606 77.3328 52.7217C77.3328 52.5242 77.3328 52.3331 77.3328 52.1419C77.3057 51.738 77.2532 51.3374 77.1759 50.944C77.0875 50.5267 77.03 50.1001 77.0039 49.6696C77.0203 49.0632 77.1607 48.4724 77.4115 47.9544C77.6624 47.4365 78.0152 47.0088 78.4358 46.713C78.676 46.5137 78.9551 46.4017 79.2426 46.3893C79.53 46.377 79.8146 46.4647 80.065 46.6429C80.2838 46.4665 80.5359 46.3666 80.7955 46.3531C81.0551 46.3397 81.3128 46.4133 81.5424 46.5664C82.2372 46.9662 82.841 47.5798 83.2981 48.3506C83.8754 49.2173 84.2735 50.2506 84.4568 51.3581C84.5472 51.8937 84.5461 52.4474 84.4537 52.9824C84.3612 53.5174 84.1794 54.0215 83.9204 54.4613C83.3861 55.2245 82.648 55.7143 81.846 55.8377C81.5357 55.8887 81.2227 55.9079 80.9099 55.895ZM78.1423 54.404C78.1872 54.4724 78.2363 54.5363 78.2891 54.5951C78.6446 54.9204 79.0692 55.1046 79.5084 55.124C80.253 55.2777 81.0111 55.297 81.76 55.1813C82.4385 55.083 83.0649 54.675 83.5207 54.0344C83.7352 53.667 83.8846 53.246 83.9588 52.7997C84.033 52.3534 84.0303 51.8922 83.9508 51.4473C83.7819 50.4438 83.4206 49.5075 82.8984 48.7201C82.4923 48.0366 81.9588 47.4895 81.3451 47.1271C80.9656 46.9296 80.4748 46.885 80.3331 47.2036C80.3157 47.2415 80.2915 47.2738 80.2626 47.2981C80.2336 47.3224 80.2007 47.338 80.1662 47.3438C80.1319 47.3522 80.0967 47.3515 80.0627 47.3416C80.0287 47.3318 79.9967 47.3129 79.9689 47.2864C79.7906 47.1073 79.5711 47.0055 79.3431 46.9963C79.1152 46.9871 78.891 47.071 78.7039 47.2355C78.364 47.4739 78.0775 47.8169 77.8713 48.2325C77.6652 48.6482 77.546 49.1229 77.525 49.6122C77.5473 50.0148 77.5998 50.4137 77.6819 50.8038C77.7681 51.2216 77.8256 51.648 77.8539 52.0782C77.8539 52.2821 77.8539 52.4924 77.8539 52.7154C77.7791 53.3004 77.888 53.8991 78.1575 54.3848L78.1423 54.404Z" fill="#D1D3D4"></path><path d="M82.4814 55.2741L82.5168 55.3251C82.6022 55.471 82.6933 55.6114 82.79 55.7457C83.1504 56.3519 83.4542 57.0083 83.6957 57.7019H85.6032H86.1092C86.0333 57.5043 85.9675 57.3578 85.9169 57.2495C85.0922 55.4844 84.2169 54.7707 83.5287 54.5031C83.1672 54.3599 82.7835 54.3293 82.4106 54.4139C82.3382 54.4293 82.2671 54.4527 82.198 54.484C82.198 54.484 82.1475 54.7007 82.4814 55.2741Z" fill="#D1D3D4"></path><path d="M82.2024 53.7082L82.7994 55.7345C82.7994 55.7345 82.9664 56.9133 81.8988 56.8623C81.5726 56.8343 81.254 56.7253 80.9613 56.5416C80.6687 56.3579 80.4078 56.1031 80.1937 55.7918L79.283 52.2426C79.2295 51.5852 79.1 50.9412 78.8984 50.331C79.645 50.0389 80.2759 49.4014 80.6643 48.5469C80.6643 48.5469 81.2967 49.1841 81.5396 49.3944C81.7353 49.5344 81.917 49.7034 82.081 49.8977C82.3268 50.2666 82.5001 50.7032 82.5869 51.1721C82.7291 51.6825 82.8374 52.2068 82.9107 52.7397C83.0372 53.7082 82.2024 53.7082 82.2024 53.7082Z" fill="white"></path><path d="M81.9727 57.19H81.8917C81.5304 57.1576 81.1776 57.0356 80.8538 56.8312C80.5299 56.6267 80.2413 56.3437 80.0045 55.9984C79.988 55.9665 79.9744 55.9323 79.964 55.8965C79.286 53.2521 79.1089 52.5576 79.0634 52.3537C79.0443 52.2795 79.034 52.2022 79.033 52.1243C78.9784 51.5433 78.8591 50.9749 78.6789 50.4357C78.664 50.3958 78.6563 50.3523 78.6562 50.3082C78.6563 50.2642 78.664 50.2207 78.6789 50.1808C78.6947 50.14 78.7173 50.1041 78.7453 50.0755C78.7733 50.0469 78.8058 50.0263 78.8408 50.0151C79.518 49.7453 80.0903 49.1655 80.4447 48.3903C80.4629 48.3482 80.4882 48.3115 80.5188 48.2829C80.5493 48.2543 80.5845 48.2344 80.6218 48.2246C80.6583 48.2155 80.696 48.217 80.732 48.2292C80.7679 48.2414 80.8012 48.2638 80.8292 48.2947C81.0012 48.4731 81.487 48.9319 81.6792 49.1167C81.8892 49.2683 82.0844 49.45 82.2611 49.6583C82.5427 50.056 82.7455 50.532 82.8531 51.0474C83.0035 51.5729 83.1153 52.1146 83.187 52.6659C83.2147 52.8302 83.2127 53.0003 83.1811 53.1635C83.1496 53.3267 83.0894 53.479 83.0049 53.6089C82.8843 53.7819 82.7259 53.906 82.5495 53.9658L83.0555 55.6289C83.0899 55.8265 83.0892 56.0312 83.0533 56.2285C83.0174 56.4257 82.9473 56.6104 82.848 56.7695C82.7366 56.918 82.6001 57.033 82.4485 57.1058C82.297 57.1786 82.1343 57.2074 81.9727 57.19ZM80.4194 55.6416C80.8132 56.1803 81.357 56.5067 81.9373 56.5528C82.0327 56.5702 82.1299 56.5615 82.2225 56.5275C82.315 56.4934 82.4007 56.4347 82.4736 56.3553C82.5643 56.1921 82.6023 55.9917 82.5798 55.7945L81.9929 53.8256C81.9804 53.777 81.9766 53.7254 81.9818 53.6747C81.9871 53.624 82.0012 53.5754 82.0233 53.5325C82.0474 53.4916 82.0786 53.4583 82.1146 53.4351C82.1506 53.4119 82.1903 53.3994 82.2307 53.3987C82.3861 53.3997 82.5361 53.3269 82.6507 53.1948C82.6852 53.1324 82.7085 53.0614 82.719 52.9866C82.7295 52.9117 82.7269 52.8349 82.7114 52.7615C82.6436 52.2477 82.5403 51.7424 82.4028 51.2513C82.3153 50.8337 82.1545 50.4461 81.9322 50.1171C81.7788 49.9392 81.6089 49.7851 81.4262 49.6583C81.2643 49.5309 80.9557 49.225 80.7432 49.0211C80.3671 49.7026 79.8388 50.2282 79.2253 50.5313C79.3712 51.0241 79.468 51.5378 79.5137 52.0605C79.5137 52.1115 79.5137 52.1434 79.5137 52.1689C79.5137 52.1944 80.2979 55.1765 80.4194 55.6416Z" fill="#D1D3D4"></path><path d="M79.0218 50.4536C78.9304 50.3769 78.823 50.3359 78.7132 50.3359C78.6033 50.3359 78.4959 50.3769 78.4045 50.4536C78.3328 50.5702 78.2894 50.7104 78.2795 50.8574C78.2696 51.0044 78.2937 51.1518 78.3489 51.2819C78.4518 51.6163 78.5933 51.9298 78.7688 52.2123C78.8626 52.3913 78.9871 52.5415 79.1331 52.6519C79.201 52.7067 79.2813 52.732 79.3617 52.724C79.4421 52.7159 79.5182 52.675 79.5784 52.6073" fill="white"></path><path d="M79.3575 53.0405C79.2414 53.04 79.127 53.0051 79.0235 52.9385C78.8409 52.8069 78.6851 52.6236 78.5682 52.4033C78.3786 52.0948 78.2252 51.7536 78.1128 51.3902C78.0369 51.2006 78.0084 50.9865 78.031 50.776C78.0535 50.5656 78.1262 50.3688 78.2393 50.2113C78.3705 50.0898 78.528 50.0217 78.6907 50.016C78.8535 50.0103 79.0137 50.0674 79.15 50.1795C79.2084 50.2217 79.2511 50.2914 79.2686 50.3733C79.2862 50.4552 79.2772 50.5424 79.2436 50.616C79.2101 50.6895 79.1547 50.7432 79.0897 50.7653C79.0247 50.7874 78.9554 50.7761 78.8971 50.7338C78.851 50.691 78.7968 50.6644 78.7399 50.6565C78.683 50.6487 78.6255 50.66 78.5732 50.6892C78.5176 50.7529 78.5277 50.9569 78.5732 51.1735C78.6672 51.4785 78.7968 51.7642 78.9578 52.021C79.0289 52.1622 79.1239 52.2819 79.2361 52.3714C79.28 52.3931 79.3288 52.3931 79.3727 52.3714C79.3933 52.3387 79.4189 52.3115 79.4481 52.2914C79.4772 52.2714 79.5092 52.2589 79.5423 52.2548C79.5753 52.2506 79.6086 52.2548 79.6404 52.2672C79.6721 52.2796 79.7015 52.2999 79.7268 52.3268C79.7785 52.3814 79.8112 52.4594 79.8178 52.5439C79.8244 52.6285 79.8045 52.713 79.7623 52.7792C79.7157 52.8596 79.6548 52.925 79.5845 52.9704C79.5142 53.0158 79.4365 53.0398 79.3575 53.0405Z" fill="#D1D3D4"></path><path d="M78.1371 56.5087C78.1738 56.9398 78.2398 57.3662 78.3344 57.7831H79.9231H80.8996C80.5961 56.9994 80.3279 56.2984 80.1306 55.8014C80.0901 55.7058 80.0547 55.6103 80.0243 55.5338L79.8118 54.9922C79.5597 55.1008 79.313 55.2284 79.0731 55.3745C78.6177 55.6358 78.1219 56.0499 78.1371 56.5087Z" fill="#D1D3D4"></path><path d="M82.5457 51.2447C82.847 50.7777 82.7521 50.0518 82.3335 49.6235C81.915 49.1951 81.3314 49.2265 81.03 49.6935C80.7287 50.1605 80.8237 50.8863 81.2422 51.3147C81.6607 51.743 82.2443 51.7117 82.5457 51.2447Z" fill="white"></path><path d="M81.9119 51.9484C81.6426 51.9422 81.3811 51.8344 81.161 51.639C80.9409 51.4437 80.7724 51.1696 80.6773 50.8524C80.6217 50.6671 80.5979 50.4691 80.6075 50.2714C80.6171 50.0737 80.6599 49.8808 80.733 49.7054C80.8028 49.5439 80.8995 49.4033 81.0166 49.2933C81.1336 49.1833 81.2681 49.1065 81.411 49.0682C81.7227 48.984 82.0482 49.0447 82.3272 49.2392C82.6062 49.4336 82.8199 49.7486 82.9289 50.126C82.9837 50.3112 83.0075 50.5087 82.9988 50.7061C82.9901 50.9035 82.949 51.0965 82.8783 51.2729C82.8079 51.4352 82.7104 51.5762 82.5924 51.6862C82.4745 51.7963 82.339 51.8727 82.1952 51.9101C82.1024 51.9378 82.0072 51.9507 81.9119 51.9484ZM81.1529 50.6357C81.2239 50.8557 81.3523 51.0387 81.5169 51.1545C81.6816 51.2704 81.8726 51.3121 82.0586 51.2729C82.1325 51.251 82.202 51.2103 82.2629 51.1533C82.3238 51.0964 82.3748 51.0243 82.4128 50.9416C82.4488 50.8415 82.4675 50.7329 82.4675 50.623C82.4675 50.5131 82.4488 50.4045 82.4128 50.3044C82.3441 50.0822 82.2162 49.897 82.0509 49.7807C81.8856 49.6644 81.6933 49.6243 81.5071 49.6672C81.4329 49.686 81.3631 49.7256 81.3027 49.7829C81.2422 49.8403 81.1928 49.9139 81.158 49.9985C81.1219 50.0986 81.1033 50.2072 81.1033 50.3171C81.1033 50.427 81.1219 50.5356 81.158 50.6357H81.1529Z" fill="#D1D3D4"></path><path d="M80.8888 51.0356C81.1898 50.5662 81.0928 49.8388 80.6721 49.4109C80.2515 48.983 79.6664 49.0167 79.3654 49.486C79.0644 49.9554 79.1613 50.6828 79.582 51.1107C80.0027 51.5386 80.5877 51.505 80.8888 51.0356Z" fill="white"></path><path d="M80.0447 52.2921C79.7755 52.2859 79.5139 52.1782 79.2938 51.9828C79.0737 51.7874 78.9052 51.5134 78.8101 51.1961C78.7545 51.0108 78.7308 50.8128 78.7404 50.6151C78.7499 50.4174 78.7927 50.2245 78.8658 50.0492C78.9356 49.8876 79.0323 49.747 79.1494 49.637C79.2664 49.5271 79.401 49.4503 79.5438 49.412C79.8556 49.3278 80.181 49.3885 80.46 49.5829C80.739 49.7773 80.9527 50.0923 81.0617 50.4697C81.1165 50.6549 81.1403 50.8525 81.1316 51.0499C81.1229 51.2472 81.0818 51.4402 81.0111 51.6167C80.9407 51.7789 80.8432 51.9199 80.7253 52.03C80.6073 52.14 80.4718 52.2164 80.328 52.2539C80.2352 52.2811 80.14 52.294 80.0447 52.2921ZM79.2857 50.9795C79.356 51.2002 79.4842 51.3839 79.6491 51.4999C79.8139 51.6158 80.0053 51.6571 80.1914 51.6167C80.2653 51.5948 80.3348 51.5541 80.3957 51.4971C80.4566 51.4401 80.5076 51.368 80.5456 51.2853C80.5817 51.1853 80.6003 51.0766 80.6003 50.9667C80.6003 50.8568 80.5817 50.7482 80.5456 50.6481C80.4761 50.4267 80.348 50.2422 80.183 50.1261C80.0179 50.01 79.8261 49.9693 79.6399 50.0109C79.5665 50.0322 79.4975 50.0727 79.4373 50.1298C79.3772 50.1869 79.3273 50.2593 79.2908 50.3423C79.2547 50.4423 79.2361 50.551 79.2361 50.6609C79.2361 50.7708 79.2547 50.8794 79.2908 50.9795H79.2857Z" fill="#D1D3D4"></path><path d="M80.7969 50.9688C80.7969 50.9688 81.5912 51.7907 81.5204 51.9946C81.4496 52.1985 81.0701 52.1922 81.0701 52.1922" fill="white"></path><path d="M81.094 52.5162H81.0687C81.0016 52.5162 80.9372 52.4827 80.8898 52.4229C80.8424 52.3632 80.8157 52.2821 80.8157 52.1976C80.8157 52.1131 80.8424 52.0321 80.8898 51.9724C80.9372 51.9126 81.0016 51.879 81.0687 51.879H81.18C81.0085 51.6503 80.8242 51.4374 80.6285 51.2418C80.5762 51.1878 80.543 51.1097 80.5364 51.0249C80.5297 50.94 80.5501 50.8553 80.5931 50.7894C80.636 50.7235 80.698 50.6818 80.7654 50.6734C80.8327 50.6651 80.9 50.6907 80.9523 50.7448C81.8934 51.7261 81.7973 52.0192 81.7416 52.153C81.6303 52.478 81.2458 52.5162 81.094 52.5162Z" fill="#D1D3D4"></path><path d="M81.2931 53.2454C81.1378 53.2446 80.9838 53.2101 80.8378 53.1434C80.8056 53.1301 80.776 53.1087 80.7505 53.0807C80.725 53.0526 80.7043 53.0185 80.6895 52.9801C80.6747 52.9418 80.6662 52.9002 80.6644 52.8576C80.6626 52.8151 80.6676 52.7725 80.6792 52.7325C80.6907 52.6924 80.7084 52.6557 80.7314 52.6244C80.7544 52.5932 80.7821 52.568 80.8129 52.5505C80.8438 52.533 80.8771 52.5234 80.9109 52.5224C80.9447 52.5213 80.9783 52.5288 81.0098 52.5444C81.1685 52.6057 81.3371 52.6144 81.4993 52.5698C81.6614 52.5251 81.8118 52.4286 81.9357 52.2896C81.9592 52.2597 81.9872 52.236 82.018 52.2198C82.0489 52.2036 82.0819 52.1953 82.1153 52.1953C82.1487 52.1953 82.1818 52.2036 82.2126 52.2198C82.2434 52.236 82.2714 52.2597 82.2949 52.2896C82.3191 52.3182 82.3384 52.3527 82.3516 52.3911C82.3648 52.4294 82.3716 52.4708 82.3716 52.5126C82.3716 52.5544 82.3648 52.5957 82.3516 52.6341C82.3384 52.6724 82.3191 52.707 82.2949 52.7356C82.0197 53.0501 81.6646 53.2308 81.2931 53.2454Z" fill="#D1D3D4"></path><path d="M73.9287 50.169C73.6631 50.1624 73.4043 50.0621 73.1816 49.8797C72.9589 49.6972 72.7813 49.4398 72.6688 49.1367L71.0143 43.8225C70.9489 43.6394 70.9207 43.4388 70.9322 43.2386C70.9437 43.0383 70.9945 42.8449 71.0801 42.6755C71.186 42.4995 71.3241 42.3583 71.4827 42.264C71.6413 42.1697 71.8156 42.1251 71.9908 42.1339C72.36 42.1425 72.7199 42.2806 73.0301 42.5328C73.3402 42.7849 73.5884 43.1411 73.7465 43.5612L74.2525 45.2435C74.2648 45.2824 74.2709 45.3239 74.2705 45.3658C74.27 45.4077 74.263 45.4491 74.2499 45.4875C74.2367 45.526 74.2177 45.5608 74.1938 45.59C74.1699 45.6192 74.1417 45.6422 74.1108 45.6576C74.0483 45.6873 73.9792 45.6852 73.9178 45.652C73.8565 45.6187 73.8078 45.5568 73.782 45.4792L73.276 43.7906C73.156 43.4906 72.9735 43.2373 72.748 43.0577C72.5226 42.8781 72.2626 42.7791 71.9959 42.7711C71.9009 42.758 71.8049 42.775 71.7165 42.8206C71.6281 42.8663 71.5502 42.9391 71.4899 43.0324C71.456 43.1196 71.4383 43.2155 71.4383 43.3127C71.4383 43.4099 71.456 43.5058 71.4899 43.5931L73.1495 48.901C73.2223 49.0892 73.3351 49.2483 73.4753 49.3608C73.6155 49.4732 73.7777 49.5346 73.9439 49.5382C73.9938 49.544 74.0441 49.5349 74.0907 49.5117C74.1372 49.4884 74.1788 49.4517 74.212 49.4044C74.2306 49.3602 74.2404 49.311 74.2404 49.261C74.2404 49.211 74.2306 49.1618 74.212 49.1176L72.9168 44.893C72.891 44.8315 72.8524 44.78 72.8052 44.7441C72.7579 44.7082 72.7038 44.6892 72.6486 44.6891L73.8326 48.5123C73.8475 48.5519 73.8558 48.5949 73.8569 48.6387C73.858 48.6825 73.852 48.7262 73.8391 48.7669C73.8262 48.8076 73.8068 48.8445 73.7821 48.8754C73.7573 48.9062 73.7278 48.9303 73.6954 48.9461C73.6629 48.962 73.6282 48.9692 73.5935 48.9673C73.5587 48.9655 73.5246 48.9546 73.4933 48.9355C73.462 48.9163 73.4342 48.8892 73.4116 48.8558C73.389 48.8225 73.3721 48.7836 73.362 48.7417L72.1629 44.9185C72.1299 44.8255 72.1163 44.7234 72.1234 44.6219C72.1305 44.5205 72.158 44.423 72.2033 44.3386C72.2522 44.2497 72.3183 44.1778 72.3953 44.1299C72.4723 44.0819 72.5577 44.0595 72.6435 44.0646C72.8022 44.0708 72.9561 44.134 73.087 44.247C73.2179 44.3599 73.3204 44.5178 73.3822 44.7018L74.6978 48.9201C74.7457 49.0603 74.7656 49.2131 74.7559 49.3653C74.7462 49.5174 74.7072 49.6643 74.6421 49.7931C74.5644 49.9279 74.4613 50.0363 74.342 50.1086C74.2228 50.1809 74.0912 50.2148 73.959 50.2072L73.9287 50.169Z" fill="#231F20"></path><path d="M106.054 69.5069C105.329 67.0471 104.015 64.9317 102.294 63.4535C101.472 62.6638 100.53 62.0955 99.5266 61.784C98.4539 61.5546 98.2364 62.8864 99.0763 63.6128L101.186 65.4224C101.338 65.5563 101.52 65.6773 101.662 65.8303C101.905 66.1042 101.869 65.9577 101.819 66.3082C101.645 67.4005 101.688 68.53 101.945 69.5961C102.162 70.3947 102.43 71.1703 102.745 71.9155" fill="white"></path><path d="M102.773 72.2115C102.73 72.2123 102.687 72.1978 102.651 72.1696C102.614 72.1414 102.584 72.1007 102.565 72.0522C102.244 71.2918 101.97 70.5015 101.746 69.6881C101.481 68.5759 101.436 67.3992 101.614 66.26V66.1581L101.518 66.0561C101.428 65.9604 101.332 65.8751 101.23 65.8012L101.063 65.6674L98.9476 63.8387C98.7147 63.6758 98.5328 63.418 98.4317 63.1077C98.3305 62.7973 98.3162 62.4529 98.391 62.131C98.4986 61.8709 98.6741 61.6655 98.888 61.5494C99.1018 61.4333 99.3409 61.4137 99.5649 61.4938C100.601 61.8134 101.574 62.3967 102.424 63.2078C104.182 64.723 105.526 66.8865 106.269 69.4014C106.29 69.4741 106.288 69.5544 106.262 69.6249C106.237 69.6953 106.19 69.7502 106.132 69.7774C106.075 69.8042 106.011 69.8012 105.955 69.7689C105.899 69.7367 105.855 69.6779 105.834 69.6053C105.127 67.1998 103.843 65.1309 102.16 63.6857C101.364 62.9238 100.454 62.3732 99.4839 62.0672C99.15 61.9971 98.9021 62.1055 98.8211 62.354C98.7402 62.6025 98.8211 63.0358 99.2056 63.3671L101.316 65.1768L101.467 65.3042C101.589 65.3923 101.705 65.4947 101.811 65.6101L101.923 65.7248C101.99 65.7741 102.041 65.8517 102.067 65.9439C102.092 66.036 102.092 66.1367 102.064 66.2282V66.3556C101.899 67.4011 101.939 68.4817 102.181 69.5034C102.398 70.2876 102.662 71.0501 102.97 71.7845C102.985 71.8182 102.994 71.8552 102.996 71.8934C102.999 71.9316 102.996 71.9701 102.986 72.0065C102.977 72.0429 102.961 72.0765 102.941 72.1052C102.921 72.1339 102.896 72.157 102.869 72.1732C102.84 72.1962 102.807 72.2094 102.773 72.2115Z" fill="#231F20"></path><path d="M93.5219 116.727H119.301V90.0789H93.5219V116.727Z" fill="#D1D3D4"></path><path d="M119.303 117.036H93.4991C93.432 117.036 93.3676 117.003 93.3202 116.943C93.2728 116.883 93.2461 116.802 93.2461 116.718V90.0764C93.2461 89.9919 93.2728 89.9109 93.3202 89.8511C93.3676 89.7914 93.432 89.7578 93.4991 89.7578H119.303C119.37 89.7578 119.435 89.7914 119.482 89.8511C119.53 89.9109 119.556 89.9919 119.556 90.0764V116.718C119.556 116.802 119.53 116.883 119.482 116.943C119.435 117.003 119.37 117.036 119.303 117.036ZM93.7774 116.399H119.076V90.395H93.7774V116.399Z" fill="#D1D3D4"></path><path d="M95.9522 90.0703H117.855V86.4383H95.9522V90.0703Z" fill="white"></path><path d="M117.859 90.3681H95.9554C95.8945 90.3682 95.8361 90.3382 95.7926 90.2846C95.7491 90.231 95.724 90.158 95.7227 90.0814V86.443C95.724 86.3664 95.7491 86.2934 95.7926 86.2398C95.8361 86.1862 95.8945 86.1562 95.9554 86.1563H117.859C117.919 86.1562 117.978 86.1862 118.021 86.2398C118.065 86.2934 118.09 86.3664 118.091 86.443V90.0814C118.09 90.158 118.065 90.231 118.021 90.2846C117.978 90.3382 117.919 90.3682 117.859 90.3681ZM96.1983 89.7883H117.636V86.7361H96.1983V89.7883Z" fill="#231F20"></path><path d="M64.4687 86.2891L121.051 86.2891V80.2229L64.4687 80.2229V86.2891Z" fill="white"></path><path d="M121.048 86.5913H64.466C64.4357 86.5913 64.4057 86.5837 64.3777 86.5689C64.3497 86.5541 64.3244 86.5324 64.3032 86.5051C64.282 86.4778 64.2653 86.4454 64.2542 86.4099C64.2431 86.3744 64.2377 86.3364 64.2383 86.2982V80.2384C64.2377 80.2002 64.2431 80.1623 64.2542 80.1267C64.2653 80.0912 64.282 80.0588 64.3032 80.0315C64.3244 80.0042 64.3497 79.9825 64.3777 79.9677C64.4057 79.9529 64.4357 79.9453 64.466 79.9453H121.048C121.11 79.9453 121.169 79.9762 121.213 80.0312C121.256 80.0861 121.281 80.1607 121.281 80.2384V86.2982C121.281 86.3759 121.256 86.4505 121.213 86.5055C121.169 86.5604 121.11 86.5913 121.048 86.5913ZM64.6988 86.0115H120.82V80.5252H64.6988V86.0115Z" fill="#231F20"></path><path d="M6.48162 86.2891L68.4219 86.2891V80.2229L6.48162 80.2229V86.2891Z" fill="white"></path><path d="M68.423 86.5913H6.47774C6.44741 86.5913 6.41738 86.5837 6.38943 86.5689C6.36147 86.5541 6.33614 86.5324 6.31493 86.5051C6.29372 86.4778 6.27705 86.4454 6.26591 86.4099C6.25477 86.3744 6.24938 86.3364 6.25006 86.2982V80.2384C6.24938 80.2002 6.25477 80.1623 6.26591 80.1267C6.27705 80.0912 6.29372 80.0588 6.31493 80.0315C6.33614 80.0042 6.36147 79.9825 6.38943 79.9677C6.41738 79.9529 6.44741 79.9453 6.47774 79.9453H68.423C68.4848 79.9453 68.544 79.9762 68.5876 80.0312C68.6313 80.0861 68.6558 80.1607 68.6558 80.2384V86.2982C68.6558 86.3759 68.6313 86.4505 68.5876 86.5055C68.544 86.5604 68.4848 86.5913 68.423 86.5913ZM6.69531 86.0115H68.1903V80.5252H6.71048L6.69531 86.0115Z" fill="#231F20"></path><path d="M119.227 45.368L120.38 39.3401L136.945 35.6953L137.376 42.9658L119.227 45.368Z" fill="white"></path><path d="M119.227 45.6824C119.188 45.6817 119.151 45.6702 119.116 45.6488C119.082 45.6275 119.052 45.5968 119.028 45.559C119.005 45.5212 118.988 45.4772 118.979 45.4302C118.971 45.3832 118.97 45.3344 118.979 45.2873L120.132 39.2594C120.143 39.1985 120.169 39.1431 120.205 39.1C120.241 39.057 120.286 39.0282 120.335 39.0173L136.905 35.3789C136.94 35.3721 136.975 35.3742 137.009 35.3852C137.043 35.3961 137.075 35.4157 137.102 35.4426C137.13 35.4707 137.153 35.5055 137.169 35.545C137.186 35.5844 137.196 35.6276 137.199 35.672L137.629 42.9361C137.633 43.0193 137.612 43.1014 137.569 43.1654C137.527 43.2295 137.467 43.2705 137.401 43.2802L119.252 45.676L119.227 45.6824ZM120.583 39.6163L119.571 45.0006L137.118 42.6812L136.728 36.0734L120.583 39.6163Z" fill="#231F20"></path><path d="M150.096 47.2604C150.096 47.2604 142.628 38.4606 127.874 40.9521C113.12 43.4436 114.507 52.4217 113.444 61.2469C112.382 70.0721 113.444 102.06 113.444 102.06C113.444 102.06 93.823 97.8668 91.6878 102.06C89.5526 106.252 91.3437 117.563 91.3437 117.563H114.051L145.689 114.307L150.096 47.2604Z" fill="#1F72F2"></path><path d="M123.185 107.798C123.185 107.798 127.516 46.6264 134.144 39.7192C140.772 32.8119 158.937 35.2588 161.466 43.5424C163.996 51.826 152.647 104.962 150.133 112.143C147.618 119.325 146.591 118.993 134.62 118.993C127.03 118.993 98.8937 121.58 96.8395 116.693C94.7853 111.806 101.282 107.237 123.185 107.798Z" fill="#231F20"></path><path d="M112.825 119.975C104.223 119.975 97.6459 119.28 96.6087 116.853C96.3536 116.323 96.2188 115.716 96.2188 115.097C96.2188 114.478 96.3536 113.871 96.6087 113.342C98.6325 109.219 107.983 107.154 122.954 107.53C123.313 102.605 127.508 46.2316 133.969 39.5028C138.406 34.8767 147.382 34.5709 153.57 36.629C157.866 38.0564 160.725 40.4522 161.62 43.4662C164.221 52.1003 152.685 105.415 150.286 112.284C147.827 119.293 146.719 119.293 136.084 119.293H134.566C132.993 119.293 130.488 119.408 127.584 119.542C122.474 119.777 117.368 119.975 112.825 119.975ZM119.706 108.046C106.961 108.046 98.7641 110.047 97.0084 113.635C96.7908 114.079 96.6755 114.591 96.6755 115.113C96.6755 115.635 96.7908 116.147 97.0084 116.591C98.5718 120.3 117.449 119.446 127.594 118.987C130.498 118.853 133.008 118.739 134.591 118.739H136.109C146.689 118.739 147.564 118.739 149.902 112.054C152.482 104.669 163.664 51.7562 161.231 43.6637C160.386 40.86 157.633 38.5661 153.484 37.1707C145.333 34.4562 137.506 36.5717 134.258 39.9361C127.786 46.6777 123.43 107.231 123.389 107.836C123.383 107.906 123.358 107.971 123.317 108.019C123.276 108.067 123.223 108.095 123.167 108.097C121.979 108.068 120.826 108.051 119.706 108.046Z" fill="#231F20"></path><path d="M110.688 92.5179C107.652 93.034 104.409 94.1619 102.557 97.2332C100.26 101.056 100.887 106.402 101.621 111.099C103.055 111.269 104.468 111.643 105.835 112.214C105.008 109.496 104.801 106.54 105.238 103.682C105.368 102.337 105.867 101.093 106.65 100.164C107.442 99.4884 108.366 99.0964 109.322 99.0301C115.393 97.9915 120.898 99.1512 126.858 100.107C127.82 95.7103 126.509 93.2698 123.19 92.6708C119.048 91.8937 114.841 91.8422 110.688 92.5179Z" fill="#231F20"></path><path d="M105.83 112.455H105.759C104.409 111.889 103.012 111.519 101.595 111.353C101.548 111.347 101.503 111.322 101.467 111.282C101.432 111.242 101.408 111.189 101.398 111.13C100.649 106.344 100.042 100.934 102.375 97.0411C104.429 93.6257 108.082 92.6508 110.652 92.2112C114.826 91.5364 119.053 91.59 123.215 92.3705C124.93 92.6763 126.13 93.4728 126.787 94.7345C127.445 95.9961 127.561 97.8631 127.056 100.157C127.04 100.221 127.007 100.276 126.963 100.313C126.918 100.35 126.866 100.367 126.813 100.361L124.925 100.049C119.679 99.1821 114.725 98.3601 109.337 99.2841C108.422 99.3426 107.537 99.7125 106.776 100.355C106.124 100.992 105.689 102.113 105.441 103.713C105.018 106.518 105.221 109.416 106.028 112.085C106.043 112.135 106.047 112.188 106.039 112.24C106.031 112.293 106.011 112.34 105.982 112.379C105.941 112.427 105.887 112.454 105.83 112.455ZM101.783 110.805C103.025 110.965 104.252 111.276 105.446 111.735C104.74 109.115 104.583 106.31 104.99 103.592C105.259 101.858 105.749 100.654 106.483 99.9085C107.309 99.2022 108.27 98.7885 109.266 98.7106C114.71 97.7803 119.694 98.6023 124.951 99.4816L126.646 99.7556C127.056 97.7548 126.964 96.1618 126.372 95.034C125.78 93.9061 124.693 93.1988 123.114 92.9121C118.992 92.1369 114.805 92.0854 110.672 92.7592C108.183 93.1797 104.646 94.1228 102.688 97.3661C100.543 100.998 101.084 106.185 101.803 110.805H101.783Z" fill="#231F20"></path><path d="M121.13 106.529C121.097 106.538 121.062 106.538 121.029 106.529L113.348 102.38C113.289 102.345 113.243 102.283 113.22 102.206C113.196 102.129 113.198 102.044 113.223 101.968C113.249 101.892 113.297 101.831 113.357 101.799C113.417 101.767 113.485 101.765 113.546 101.794L121.226 105.949C121.257 105.964 121.285 105.987 121.309 106.016C121.333 106.046 121.352 106.081 121.364 106.119C121.377 106.158 121.383 106.199 121.383 106.241C121.383 106.283 121.376 106.324 121.363 106.363C121.34 106.415 121.306 106.458 121.265 106.488C121.224 106.517 121.177 106.531 121.13 106.529Z" fill="#231F20"></path><path d="M64.463 119.711H95.9492V86.3025H64.463V119.711Z" fill="white"></path><path d="M95.9522 119.996H64.466C64.4357 119.996 64.4057 119.988 64.3777 119.974C64.3497 119.959 64.3244 119.937 64.3032 119.91C64.282 119.883 64.2653 119.85 64.2542 119.815C64.2431 119.779 64.2377 119.741 64.2383 119.703V86.2946C64.2383 86.2185 64.2623 86.1456 64.305 86.0918C64.3477 86.038 64.4056 86.0078 64.466 86.0078H95.9522C96.0131 86.0078 96.0715 86.0378 96.115 86.0914C96.1586 86.145 96.1837 86.2179 96.185 86.2946V119.703C96.185 119.781 96.1605 119.855 96.1168 119.91C96.0732 119.965 96.014 119.996 95.9522 119.996ZM64.6988 119.416H95.7195V86.5877H64.6988V119.416Z" fill="#231F20"></path><path d="M9.18699 119.711L64.4688 119.711V86.3025H9.18699V119.711Z" fill="white"></path><path d="M64.4672 119.996H9.1703C9.13955 119.997 9.10897 119.99 9.08042 119.976C9.05187 119.961 9.02594 119.94 9.00419 119.912C8.98244 119.885 8.96532 119.852 8.95386 119.816C8.94241 119.78 8.93687 119.742 8.93756 119.703V86.2946C8.93755 86.2564 8.9436 86.2186 8.95536 86.1834C8.96712 86.1482 8.98434 86.1163 9.00602 86.0896C9.0277 86.0629 9.0534 86.0419 9.08161 86.0279C9.10983 86.0138 9.13998 86.007 9.1703 86.0079H64.4672C64.5281 86.0079 64.5865 86.0379 64.63 86.0915C64.6735 86.1451 64.6987 86.218 64.7 86.2946V119.703C64.7 119.781 64.6754 119.855 64.6318 119.91C64.5882 119.965 64.529 119.996 64.4672 119.996ZM9.41822 119.416H64.2395V86.5877H9.41822V119.416Z" fill="#231F20"></path><path d="M92.7577 115.182H68.1475C68.0804 115.182 68.0161 115.148 67.9686 115.089C67.9212 115.029 67.8945 114.948 67.8945 114.863V91.1467C67.8945 91.0622 67.9212 90.9812 67.9686 90.9214C68.0161 90.8617 68.0804 90.8281 68.1475 90.8281H92.7577C92.8243 90.8298 92.8879 90.8638 92.9351 90.9232C92.9823 90.9826 93.0093 91.0627 93.0106 91.1467V114.863C93.0106 114.948 92.984 115.029 92.9365 115.089C92.8891 115.148 92.8247 115.182 92.7577 115.182ZM68.4005 114.545H92.5047V91.4653H68.4005V114.545Z" fill="#D1D3D4"></path><path d="M80.3531 99.2325C79.9696 99.2338 79.5944 99.0917 79.2751 98.8243C78.9557 98.5569 78.7066 98.1762 78.5591 97.7304C78.4117 97.2846 78.3726 96.7937 78.4468 96.3198C78.521 95.846 78.7051 95.4106 78.9759 95.0686C79.2468 94.7267 79.592 94.4936 79.9681 94.3989C80.3441 94.3042 80.734 94.3522 81.0884 94.5367C81.4428 94.7212 81.7458 95.034 81.9589 95.4355C82.1721 95.837 82.2858 96.3091 82.2858 96.792C82.2845 97.4377 82.0806 98.0565 81.7186 98.5136C81.3566 98.9707 80.8657 99.2292 80.3531 99.2325ZM80.3531 94.9951C80.0694 94.9939 79.7919 95.0987 79.5557 95.2964C79.3194 95.494 79.1351 95.7756 79.0261 96.1054C78.9171 96.4351 78.8883 96.7982 78.9434 97.1486C78.9985 97.499 79.135 97.8209 79.3355 98.0735C79.5361 98.3261 79.7917 98.498 80.0699 98.5673C80.3481 98.6367 80.6365 98.6005 80.8983 98.4632C81.1601 98.3259 81.3837 98.0938 81.5407 97.7963C81.6976 97.4988 81.7809 97.1492 81.7799 96.792C81.7785 96.316 81.6278 95.8599 81.3605 95.5233C81.0932 95.1867 80.7311 94.9968 80.3531 94.9951Z" fill="#D1D3D4"></path><path d="M77.3789 65.8703C77.6623 67.0236 77.981 68.1578 78.3504 69.2666C77.2472 68.099 76.088 67.0179 74.8795 66.0296C74.6648 65.8068 74.3935 65.6891 74.1155 65.6982C73.9582 65.7566 73.8137 65.8601 73.6935 66.0005C73.5732 66.1408 73.4804 66.3144 73.4223 66.5075C72.38 69.0563 72.8809 72.2933 74.1408 74.7019C76.1646 78.5251 79.6305 81.8513 83.3797 81.59C83.6231 81.5958 83.8631 81.5164 84.0729 81.3606C84.2255 81.1969 84.3495 80.9951 84.4371 80.768C85.0713 79.3407 85.6531 77.8815 86.1827 76.3905C86.298 76.1567 86.3378 75.8763 86.294 75.6067C86.2043 75.3746 86.0544 75.1881 85.869 75.0778C83.1874 72.9496 81.6999 69.8337 79.9442 66.6795C79.59 66.0423 78.7805 63.7357 78.0164 63.7739C77.1614 63.8313 77.1816 65.061 77.3789 65.8703Z" fill="white"></path><path d="M82.9768 81.8911C79.0657 81.8911 75.7011 78.1507 73.9656 74.8819C72.5388 72.1546 72.2504 68.8221 73.237 66.3943C73.3059 66.159 73.4193 65.9484 73.5674 65.7807C73.7155 65.613 73.8939 65.4934 74.087 65.4322C74.4219 65.4096 74.7516 65.5434 75.013 65.8081C75.9743 66.5919 76.9103 67.4457 77.8109 68.3569C77.5731 67.5732 77.3606 66.7767 77.1684 65.9865C77.0735 65.6642 77.0325 65.3206 77.0482 64.9773C77.0639 64.6341 77.1358 64.2986 77.2594 63.9921C77.3474 63.8411 77.4624 63.7185 77.5952 63.6343C77.728 63.5502 77.8748 63.5068 78.0235 63.5078C78.7369 63.5078 79.3896 64.8842 79.855 65.9164C79.9458 66.1352 80.0454 66.3478 80.1536 66.5536L80.7911 67.7197C82.309 70.4533 83.7004 73.034 86.0076 74.8691C86.1331 74.9302 86.2459 75.0265 86.3374 75.1507C86.4289 75.2749 86.4968 75.4237 86.5358 75.5859C86.5748 75.748 86.584 75.9193 86.5626 76.0865C86.5412 76.2538 86.4898 76.4128 86.4124 76.5513C85.9064 78.0424 85.2891 79.5207 84.6567 80.948C84.5537 81.215 84.4051 81.45 84.2215 81.6362C83.9772 81.8268 83.6943 81.9242 83.4069 81.9165C83.2652 81.8847 83.1185 81.8911 82.9768 81.8911ZM74.2135 65.9611H74.1579C73.9757 65.9929 73.8088 66.2096 73.6519 66.5983C72.7412 68.8412 73.0195 71.9444 74.3603 74.4932C76.0856 77.7875 79.4907 81.5024 83.3867 81.2539C83.5867 81.2624 83.7847 81.2006 83.9584 81.0754C84.0853 80.9389 84.1871 80.7693 84.2569 80.5784C84.8843 79.1702 85.4662 77.7046 85.9975 76.2327C86.0791 76.0602 86.1146 75.8591 86.0986 75.6592C86.0582 75.5063 85.9013 75.3852 85.7647 75.2769C83.3766 73.3653 81.9396 70.7528 80.4167 67.9682L79.7792 66.8022C79.6931 66.6556 79.5869 66.4135 79.4604 66.165C79.1214 65.4194 78.5193 64.0303 78.0488 64.0495C77.971 64.048 77.8941 64.069 77.8239 64.111C77.7537 64.153 77.6921 64.2148 77.644 64.2916C77.5605 64.524 77.5148 64.7751 77.5096 65.0301C77.5044 65.285 77.5398 65.5388 77.6136 65.7763C77.8868 66.9105 78.2107 68.0447 78.575 69.1471C78.5936 69.2076 78.5958 69.2742 78.5812 69.3365C78.5665 69.3988 78.5359 69.4532 78.494 69.4911C78.4541 69.5326 78.404 69.5552 78.3523 69.5552C78.3006 69.5552 78.2505 69.5326 78.2107 69.4911C77.1174 68.3374 75.9665 67.2732 74.765 66.3051C74.6085 66.1349 74.4176 66.0225 74.2135 65.9802V65.9611Z" fill="#231F20"></path><path d="M126.553 48.0469C126.553 48.0469 123.517 87.1391 113.104 86.9161C102.692 86.6931 80.7227 82.5895 80.7227 82.016C80.7227 81.4425 83.4296 71.1836 83.4296 71.1836C83.4296 71.1836 106.78 74.2486 109.062 69.648C111.344 65.0474 114.88 50.5702 114.88 50.5702" fill="#1F72F2"></path><path d="M113.904 86.7665C105.196 86.7665 89.5419 84.2177 88.6767 84.0775C88.6103 84.0664 88.5501 84.0226 88.5094 83.9558C88.4686 83.8889 88.4505 83.8043 88.4591 83.7207C88.468 83.6367 88.5026 83.5603 88.5555 83.5079C88.6084 83.4556 88.6755 83.4313 88.7425 83.4403C98.2597 85.0079 116.854 87.4165 119.07 85.3519C121.853 82.7713 126.234 59.9085 126.275 59.6728C126.293 59.5913 126.335 59.5216 126.392 59.4777C126.449 59.4339 126.518 59.4193 126.584 59.437C126.648 59.4595 126.704 59.5123 126.738 59.5846C126.773 59.6568 126.785 59.7431 126.771 59.8257C126.589 60.7751 122.303 83.1472 119.374 85.8681C118.675 86.4925 116.631 86.7665 113.904 86.7665Z" fill="#231F20"></path><path d="M129.122 108.716H129.081C129.049 108.708 129.018 108.692 128.991 108.668C128.964 108.645 128.94 108.614 128.922 108.579C128.904 108.544 128.892 108.505 128.887 108.464C128.881 108.423 128.882 108.381 128.889 108.34C132.552 87.4147 139.383 47.1691 139.044 44.6203C138.487 40.4275 135.285 41.0265 135.148 41.052C135.081 41.0655 135.012 41.0449 134.957 40.9947C134.902 40.9445 134.865 40.8689 134.854 40.7844C134.844 40.6999 134.86 40.6135 134.9 40.5442C134.94 40.4748 135 40.4283 135.067 40.4148C135.107 40.4148 138.897 39.682 139.54 44.5056C139.985 47.8127 129.815 106.002 129.385 108.474C129.37 108.546 129.336 108.61 129.288 108.654C129.24 108.698 129.181 108.72 129.122 108.716Z" fill="white"></path></svg>