<svg xmlns="http://www.w3.org/2000/svg" width="162" height="120" viewBox="0 0 162 120" fill="none"><path d="M155.9 116.208H6.22096C6.152 116.208 6.08586 116.18 6.0371 116.13C5.98833 116.079 5.96094 116.011 5.96094 115.94C5.96094 115.869 5.98833 115.801 6.0371 115.75C6.08586 115.7 6.152 115.672 6.22096 115.672H155.9C155.969 115.672 156.035 115.7 156.084 115.75C156.133 115.801 156.16 115.869 156.16 115.94C156.16 116.011 156.133 116.079 156.084 116.13C156.035 116.18 155.969 116.208 155.9 116.208Z" fill="#D1D3D4"></path><path d="M151.01 5.47656H6.80649C3.19623 5.47656 0.269531 8.49495 0.269531 12.2183V87.9331C0.269531 91.6565 3.19623 94.6749 6.80649 94.6749H151.01C154.62 94.6749 157.547 91.6565 157.547 87.9331V12.2183C157.547 8.49495 154.62 5.47656 151.01 5.47656Z" fill="white"></path><path d="M151.011 94.9592H6.80738C5.00238 94.9578 3.27169 94.2177 1.99536 92.9014C0.719023 91.585 0.00137734 89.8001 0 87.9386V12.2238C0.00137734 10.3622 0.719023 8.57732 1.99536 7.261C3.27169 5.94467 5.00238 5.20455 6.80738 5.20312H151.011C152.816 5.20455 154.546 5.94467 155.823 7.261C157.099 8.57732 157.817 10.3622 157.818 12.2238V87.9386C157.817 89.8001 157.099 91.585 155.823 92.9014C154.546 94.2177 152.816 94.9578 151.011 94.9592ZM6.80738 5.75555C5.14492 5.75697 3.55101 6.43907 2.37596 7.65195C1.2009 8.86482 0.540844 10.5092 0.540845 12.2238V87.9386C0.549088 89.6475 1.21278 91.2837 2.38695 92.4896C3.56111 93.6955 5.15031 94.3732 6.80738 94.3746H151.011C152.663 94.3662 154.246 93.6854 155.414 92.4802C156.583 91.275 157.243 89.6429 157.251 87.9386V12.2238C157.251 10.5139 156.595 8.8735 155.425 7.66139C154.256 6.44929 152.669 5.76406 151.011 5.75555H6.80738Z" fill="#231F20"></path><path d="M157.547 15.625H0.269531V84.5229H157.547V15.625Z" fill="white"></path><path d="M157.548 84.802H0.270423C0.235159 84.8027 0.20011 84.7961 0.167329 84.7827C0.134548 84.7693 0.104693 84.7492 0.0795112 84.7238C0.0543295 84.6983 0.034326 84.6679 0.0206733 84.6344C0.0070206 84.6008 -6.77613e-06 84.5648 4.90281e-09 84.5284V15.6251C-6.77613e-06 15.5888 0.0070206 15.5528 0.0206733 15.5192C0.034326 15.4857 0.0543295 15.4553 0.0795112 15.4298C0.104693 15.4043 0.134548 15.3843 0.167329 15.3709C0.20011 15.3574 0.235159 15.3509 0.270423 15.3516H157.548C157.583 15.3509 157.618 15.3574 157.651 15.3709C157.683 15.3843 157.713 15.4043 157.738 15.4298C157.764 15.4553 157.784 15.4857 157.797 15.5192C157.811 15.5528 157.818 15.5888 157.818 15.6251V84.5284C157.818 84.5648 157.811 84.6008 157.797 84.6344C157.784 84.6679 157.764 84.6983 157.738 84.7238C157.713 84.7492 157.683 84.7693 157.651 84.7827C157.618 84.7961 157.583 84.8027 157.548 84.802ZM0.540845 84.2656H157.277V15.904H0.540845V84.2656Z" fill="#231F20"></path><path d="M106.405 114.216H51.4102L57.6299 94.6719H100.185L106.405 114.216Z" fill="white"></path><path d="M106.407 114.5H51.412C51.3698 114.5 51.3282 114.49 51.291 114.469C51.2538 114.449 51.2221 114.419 51.1988 114.382C51.1729 114.348 51.1556 114.307 51.1484 114.264C51.1411 114.221 51.1442 114.177 51.1572 114.136L57.3977 94.5915C57.4152 94.5358 57.4492 94.4872 57.4949 94.4526C57.5407 94.4179 57.5958 94.399 57.6526 94.3984H100.208C100.265 94.399 100.32 94.4179 100.365 94.4526C100.411 94.4872 100.445 94.5358 100.463 94.5915L106.703 114.136C106.716 114.177 106.719 114.221 106.712 114.264C106.705 114.307 106.687 114.348 106.662 114.382C106.635 114.425 106.596 114.46 106.551 114.481C106.506 114.502 106.456 114.508 106.407 114.5ZM51.8021 113.964H106.032L99.9946 94.9777H57.8242L51.8021 113.964Z" fill="#231F20"></path><path d="M110.946 114.227H46.871C45.3976 114.227 44.2031 115.458 44.2031 116.978C44.2031 118.498 45.3976 119.729 46.871 119.729H110.946C112.419 119.729 113.613 118.498 113.613 116.978C113.613 115.458 112.419 114.227 110.946 114.227Z" fill="white"></path><path d="M110.947 119.998H46.8719C46.0926 119.998 45.3452 119.679 44.7942 119.111C44.2432 118.542 43.9336 117.771 43.9336 116.968C43.9336 116.164 44.2432 115.393 44.7942 114.825C45.3452 114.257 46.0926 113.938 46.8719 113.938H110.947C111.726 113.938 112.473 114.257 113.024 114.825C113.575 115.393 113.885 116.164 113.885 116.968C113.885 117.771 113.575 118.542 113.024 119.111C112.473 119.679 111.726 119.998 110.947 119.998ZM46.8719 114.495C46.236 114.495 45.6262 114.756 45.1766 115.219C44.727 115.683 44.4744 116.312 44.4744 116.968C44.4744 117.624 44.727 118.252 45.1766 118.716C45.6262 119.18 46.236 119.44 46.8719 119.44H110.947C111.582 119.44 112.192 119.18 112.642 118.716C113.091 118.252 113.344 117.624 113.344 116.968C113.344 116.312 113.091 115.683 112.642 115.219C112.192 114.756 111.582 114.495 110.947 114.495H46.8719Z" fill="#231F20"></path><path d="M53.2539 109.035C54.1432 108.552 101.748 99.5794 101.748 99.5794L100.188 94.6719H57.6119L53.2539 109.035Z" fill="#231F20"></path><path d="M53.265 109.3C53.2005 109.301 53.1378 109.279 53.0882 109.236C53.0512 109.202 53.0242 109.157 53.0104 109.108C52.9966 109.059 52.9965 109.006 53.0102 108.957L57.3838 94.594C57.4005 94.5393 57.4337 94.4915 57.4786 94.4577C57.5236 94.4239 57.5778 94.4059 57.6334 94.4063H100.189C100.243 94.4063 100.297 94.4239 100.342 94.4566C100.386 94.4892 100.42 94.5353 100.438 94.5886L101.998 99.4961C102.014 99.5306 102.022 99.5681 102.022 99.606C102.022 99.644 102.014 99.6815 101.998 99.716C101.98 99.7493 101.954 99.778 101.924 99.8002C101.893 99.8224 101.858 99.8376 101.822 99.8447C85.4974 102.923 54.3623 108.855 53.3951 109.279C53.3546 109.299 53.3095 109.306 53.265 109.3ZM57.8206 94.9426L53.6603 108.657C58.5279 107.471 95.6851 100.456 101.426 99.3727L100.017 94.9426H57.8206Z" fill="#231F20"></path><path d="M101.717 29.1256C101.717 29.1256 70.6968 21.2844 61.0604 29.1256C51.424 36.9669 41.6523 45.6985 41.6523 45.6985L49.349 61.1772L61.2476 51.0779L56.0472 77.8304L96.8915 78.4419L99.1953 54.1458C99.1953 54.1458 103.408 68.5786 107.953 69.1632C112.498 69.7478 120.33 63.403 116.045 53.0731C111.76 42.7432 101.717 29.1256 101.717 29.1256Z" fill="#1F72F2"></path><path d="M126.1 46.4256C126.509 47.2534 126.688 48.1812 126.62 49.1073C126.509 49.9799 126.246 50.8246 125.845 51.6013C123.848 56.1119 121.846 60.6171 119.605 65.0098C118.284 67.6003 116.032 70.5769 112.938 70.8666C110.265 71.124 105.756 68.5228 105.137 65.7177C104.315 61.9634 109.095 57.5171 111.107 54.7872C113.811 51.124 116.5 47.1765 119.62 43.8727C121.331 42.0652 121.908 41.8936 123.817 43.6045C124.748 44.3833 125.524 45.3414 126.1 46.4256Z" fill="white"></path><path d="M112.51 71.1715C109.244 71.1715 105.427 68.1787 104.907 65.8081C104.226 62.6973 107.091 59.2862 109.39 56.5455C109.967 55.859 110.508 55.2101 110.924 54.6469C111.444 53.9228 111.995 53.1827 112.536 52.4426C114.659 49.3798 116.971 46.4614 119.458 43.7056C121.247 41.8123 121.969 41.5603 124.024 43.4214C124.972 44.2245 125.759 45.2122 126.338 46.3283C126.775 47.201 126.973 48.1801 126.91 49.1602C126.792 50.0653 126.521 50.9422 126.109 51.7507C124.143 56.1916 122.11 60.7772 119.869 65.1591C118.797 67.2616 116.478 70.8336 112.983 71.1661C112.826 71.176 112.668 71.1778 112.51 71.1715ZM121.787 42.7027C121.215 42.7027 120.695 43.1693 119.843 44.0703C117.37 46.809 115.072 49.7094 112.962 52.7536L111.35 54.9633C110.924 55.5372 110.378 56.1916 109.79 56.8834C107.569 59.5329 104.803 62.8314 105.422 65.6633C105.994 68.2806 110.393 70.8336 112.931 70.5976C116.171 70.2919 118.366 66.8861 119.39 64.8856C121.621 60.5091 123.649 55.9287 125.631 51.4771C126.018 50.7267 126.273 49.9113 126.385 49.069C126.44 48.1885 126.26 47.3092 125.865 46.5267C125.32 45.4746 124.577 44.5448 123.68 43.7914C122.828 43.062 122.287 42.7027 121.787 42.7027Z" fill="#231F20"></path><path d="M111.426 38.3229L119.497 54.456C120.22 55.8934 121.733 56.4619 122.981 55.7539L126.777 53.5657C128.114 52.8094 128.655 50.884 127.979 49.275L122.778 36.9392L125.571 33.3672C125.571 33.3672 112.487 37.5238 111.426 38.3229Z" fill="white"></path><path d="M121.829 56.3355C121.568 56.3335 121.309 56.2938 121.059 56.2175C120.665 56.0832 120.302 55.8694 119.989 55.5885C119.677 55.3076 119.422 54.9654 119.239 54.5817L111.173 38.454C111.144 38.3943 111.137 38.3262 111.152 38.2615C111.167 38.1968 111.204 38.1396 111.256 38.1C112.296 37.3009 124.158 33.5626 125.505 33.1389C125.559 33.1201 125.618 33.1204 125.671 33.1398C125.725 33.1593 125.771 33.1967 125.802 33.2462C125.836 33.2934 125.854 33.3508 125.854 33.4098C125.854 33.4687 125.836 33.5261 125.802 33.5733L123.134 37.0166L128.272 49.1969C129 50.9239 128.407 52.9995 126.951 53.8254L123.118 55.9976C122.724 56.2237 122.28 56.3401 121.829 56.3355ZM111.781 38.4326L119.717 54.3296C119.866 54.6478 120.075 54.9319 120.332 55.165C120.59 55.3982 120.89 55.5755 121.215 55.6865C121.483 55.7713 121.765 55.7994 122.044 55.7689C122.323 55.7385 122.593 55.6503 122.837 55.5095L126.67 53.3642C127.887 52.6723 128.371 50.9131 127.752 49.4382L122.551 37.1024C122.533 37.056 122.526 37.0052 122.532 36.9552C122.539 36.9053 122.558 36.858 122.588 36.8182L124.834 33.9488C120.971 35.1555 113.253 37.6602 111.781 38.4326Z" fill="#231F20"></path><path d="M105.87 23.5234L102.193 24.7302C102.193 24.7302 100.633 35.1888 107.565 38.9485L111.117 37.6559L105.87 23.5234Z" fill="#231F20"></path><path d="M107.563 39.2337C107.521 39.234 107.48 39.2229 107.443 39.2015C100.449 35.3989 101.921 24.8169 101.936 24.7204C101.943 24.6712 101.964 24.6252 101.995 24.5873C102.026 24.5494 102.067 24.5212 102.113 24.5059L105.79 23.2937C105.852 23.273 105.921 23.2782 105.98 23.3082C106.039 23.3382 106.084 23.3907 106.107 23.4546L111.359 37.5925C111.372 37.6255 111.377 37.6608 111.376 37.6962C111.375 37.7316 111.367 37.7663 111.352 37.7984C111.338 37.8305 111.317 37.8592 111.291 37.8828C111.266 37.9064 111.236 37.9244 111.203 37.9358L107.651 39.2283C107.623 39.2356 107.593 39.2375 107.563 39.2337ZM102.425 24.951C102.274 26.2758 101.494 35.2594 107.589 38.6759L110.782 37.512L105.712 23.8676L102.425 24.951Z" fill="#231F20"></path><path d="M146.604 1.1875C146.604 1.1875 141.273 8.78741 130.363 13.8397C120.908 18.2162 105.114 22.5016 105.114 22.5016C105.114 22.5016 101.609 32.9923 110.195 39.128C110.195 39.128 124.798 35.0572 131.465 33.8826C140.041 32.3702 157.129 36.5643 157.129 36.5643L146.604 1.1875Z" fill="white"></path><path d="M110.193 39.408C110.139 39.4059 110.087 39.3872 110.043 39.3544C101.384 33.1704 104.842 22.5134 104.842 22.4061C104.857 22.3631 104.882 22.3244 104.914 22.2936C104.947 22.2627 104.986 22.2406 105.029 22.2291C105.185 22.1862 120.912 17.9009 130.236 13.5834C140.954 8.6169 146.316 1.09745 146.357 1.02236C146.387 0.98029 146.428 0.947527 146.475 0.927661C146.521 0.907794 146.573 0.901591 146.623 0.90973C146.672 0.918384 146.718 0.941019 146.756 0.975113C146.793 1.00921 146.821 1.05341 146.836 1.10281L157.356 36.4528C157.37 36.4996 157.373 36.5494 157.363 36.5973C157.353 36.6453 157.331 36.6897 157.299 36.7263C157.266 36.7609 157.224 36.7864 157.179 36.8004C157.133 36.8145 157.085 36.8167 157.039 36.8068C156.867 36.7639 139.909 32.6716 131.484 34.1573C124.905 35.3158 110.386 39.3544 110.24 39.3973L110.193 39.408ZM105.326 22.7226C104.962 23.9669 102.575 33.2509 110.245 38.8127C111.67 38.4158 125.134 34.7044 131.422 33.5941C139.165 32.2265 153.955 35.4981 156.732 36.1417L146.498 1.77323C142.126 7.08016 136.647 11.2975 130.47 14.109C121.577 18.2013 106.933 22.2828 105.326 22.7226Z" fill="#231F20"></path><path d="M158.125 36.3935C155.156 37.2892 151.297 33.4168 148.369 27.1578C147.382 25.0179 146.565 22.7991 145.925 20.5233C145.288 18.3094 144.827 16.0457 144.547 13.7547C143.694 6.78233 144.916 1.28486 147.912 0.378453C151.827 -0.80149 157.272 6.27817 160.107 16.2433C162.941 26.2085 162.041 35.2243 158.125 36.3935Z" fill="#231F20"></path><path d="M157.255 36.8061C154.385 36.8061 150.916 33.2341 148.139 27.2969C147.143 25.1437 146.318 22.9105 145.674 20.6195C145.034 18.3911 144.57 16.1133 144.285 13.808C143.386 6.42798 144.779 1.0646 147.837 0.1421C151.956 -1.1022 157.453 5.956 160.355 16.1893C163.215 26.2564 162.248 35.4438 158.196 36.6721C157.89 36.7627 157.574 36.8079 157.255 36.8061ZM148.81 0.533626C148.53 0.533619 148.251 0.575164 147.983 0.656983C145.227 1.48831 143.947 6.74441 144.8 13.7383C145.079 16.0168 145.538 18.268 146.173 20.4693C146.813 22.733 147.63 24.9393 148.617 27.0662C151.545 33.3253 155.347 36.9778 158.066 36.184C161.842 35.0416 162.653 26.1545 159.871 16.3663C157.281 7.25394 152.502 0.533626 148.81 0.533626Z" fill="#231F20"></path><path d="M105.114 22.5028C105.114 22.5028 101.609 32.9936 110.195 39.1293C110.195 39.1293 120.024 36.3886 127.232 34.7581C125.76 33.2135 123.956 30.4192 123.072 25.5331C122.505 22.7289 122.329 19.8554 122.551 17C114.059 20.0732 105.114 22.5028 105.114 22.5028Z" fill="white"></path><path d="M110.193 39.4084C110.139 39.4063 110.087 39.3876 110.043 39.3548C101.384 33.1708 104.842 22.5138 104.842 22.4065C104.857 22.3635 104.882 22.3248 104.914 22.294C104.947 22.2631 104.986 22.241 105.029 22.2296C105.118 22.2296 114.063 19.7678 122.414 16.7428C122.457 16.727 122.503 16.7226 122.547 16.7301C122.592 16.7376 122.634 16.7568 122.669 16.7857C122.704 16.8145 122.731 16.8516 122.748 16.8937C122.765 16.9358 122.772 16.9816 122.768 17.0271C122.552 19.8558 122.727 22.7019 123.288 25.4798C124.198 30.3819 126.024 33.1279 127.396 34.5653C127.43 34.6009 127.454 34.6448 127.466 34.6928C127.477 34.7408 127.477 34.7911 127.464 34.8389C127.451 34.8857 127.425 34.928 127.391 34.9611C127.356 34.9942 127.313 35.0168 127.266 35.0266C120.142 36.6356 110.339 39.3709 110.24 39.3977L110.193 39.4084ZM105.326 22.723C104.962 23.9673 102.575 33.2513 110.245 38.8131C111.374 38.502 120.059 36.1314 126.715 34.576C125.337 33.0046 123.652 30.2263 122.784 25.5656C122.247 22.8768 122.054 20.1269 122.212 17.3864C114.536 20.1647 106.496 22.4065 105.326 22.723Z" fill="#231F20"></path><path d="M153.577 25.1032L148.377 27.1788C147.39 25.0389 146.573 22.8201 145.933 20.5443C145.296 18.3304 144.835 16.0667 144.555 13.7757L150.176 12.9766L153.577 25.1032Z" fill="white"></path><path d="M148.368 27.461C148.318 27.4604 148.269 27.4455 148.227 27.418C148.185 27.3906 148.151 27.3516 148.128 27.3054C147.135 25.1514 146.31 22.9184 145.663 20.628C145.024 18.3979 144.56 16.1182 144.275 13.8112C144.268 13.7388 144.288 13.6663 144.332 13.6092C144.375 13.5521 144.439 13.5149 144.509 13.5055L150.131 12.7063C150.195 12.6961 150.261 12.7106 150.316 12.7472C150.37 12.7838 150.41 12.8399 150.427 12.9048L153.818 25.026C153.835 25.0929 153.829 25.1642 153.799 25.2264C153.769 25.2887 153.719 25.3376 153.657 25.3639L148.456 27.4395C148.428 27.4531 148.398 27.4605 148.368 27.461ZM144.842 14.015C145.128 16.1924 145.574 18.344 146.178 20.4511C146.792 22.6303 147.569 24.7571 148.503 26.812L153.251 24.9187L149.975 13.2641L144.842 14.015Z" fill="#231F20"></path><path d="M153.582 25.1166C154.533 24.8316 154.541 21.8865 153.598 18.5383C152.655 15.1902 151.12 12.7069 150.168 12.9919C149.217 13.2768 149.209 16.222 150.152 19.5702C151.095 22.9183 152.63 25.4015 153.582 25.1166Z" fill="white"></path><path d="M153.43 25.4045C152.91 25.4045 152.275 24.8682 151.641 23.8384C150.876 22.5252 150.288 21.1105 149.893 19.6336C149.03 16.5657 148.807 13.0956 150.096 12.7148C150.689 12.5324 151.386 13.0634 152.114 14.238C152.877 15.5535 153.463 16.9699 153.856 18.4482C154.719 21.5161 154.943 24.9808 153.659 25.367C153.584 25.3899 153.507 25.4026 153.43 25.4045ZM150.31 13.235C150.282 13.2294 150.254 13.2294 150.226 13.235C149.618 13.4174 149.384 15.8792 150.398 19.4673C150.781 20.894 151.351 22.2601 152.093 23.5274C152.754 24.6 153.258 24.895 153.508 24.8199C154.121 24.6376 154.35 22.1758 153.341 18.5877C152.965 17.1596 152.4 15.7916 151.662 14.5223C151.064 13.5729 150.596 13.235 150.325 13.235H150.31Z" fill="#231F20"></path><path d="M121.599 40.4723C120.986 40.49 120.394 40.7037 119.904 41.0837C119.456 41.5128 119.384 42.3924 119.904 42.6927C120.075 42.7814 120.263 42.8308 120.455 42.8375C121.253 42.9178 122.058 42.8708 122.842 42.6981C122.163 43.028 121.575 43.5276 121.131 44.1515C121.028 44.2714 120.973 44.4262 120.975 44.586C121.011 44.8863 121.37 44.9936 121.656 45.0043C122.385 45.0396 123.112 44.9058 123.783 44.6128C123.332 44.7128 122.908 44.9183 122.546 45.2135C121.604 46.1092 122.462 46.8225 123.294 46.742C124.704 46.5865 127.522 48.1741 127.522 48.1741C127.522 48.1741 128.261 46.6187 128.204 45.8303C128.104 45.0012 127.921 44.1851 127.658 43.3953C127.226 41.8453 126.675 40.07 125.614 38.8418C124.054 37.0397 119.087 37.0504 119.066 40.1612C119.88 40.4453 120.743 40.5512 121.599 40.4723Z" fill="white"></path><path d="M127.532 48.4654C127.486 48.4658 127.441 48.4528 127.402 48.4279C127.376 48.4279 124.641 46.8886 123.33 47.0281C123.062 47.0721 122.787 47.0317 122.541 46.9121C122.295 46.7925 122.09 46.5993 121.952 46.3576C121.879 46.1797 121.858 45.9839 121.89 45.7936C121.922 45.6033 122.007 45.4267 122.134 45.285C121.973 45.285 121.817 45.285 121.656 45.285C121.136 45.285 120.761 45.0061 120.72 44.6253C120.712 44.5108 120.727 44.396 120.762 44.2874C120.798 44.1788 120.854 44.0785 120.928 43.9924C121.148 43.677 121.405 43.3906 121.692 43.1396C121.275 43.1744 120.856 43.1744 120.439 43.1396C120.209 43.1329 119.983 43.0724 119.779 42.9626C119.636 42.8788 119.514 42.7612 119.423 42.6195C119.333 42.4778 119.276 42.316 119.258 42.1474C119.237 41.9187 119.265 41.688 119.341 41.4718C119.416 41.2557 119.537 41.0596 119.695 40.8977C119.771 40.8288 119.851 40.7643 119.935 40.7046C119.601 40.6538 119.273 40.5676 118.957 40.4472C118.905 40.4272 118.861 40.3911 118.83 40.344C118.8 40.2969 118.784 40.2411 118.785 40.1844C118.785 39.6222 118.961 39.0751 119.288 38.6247C119.614 38.1743 120.072 37.8447 120.595 37.6851C122.322 37.0093 124.755 37.4812 125.795 38.6826C126.836 39.884 127.454 41.7559 127.876 43.3488L127.969 43.6813C128.193 44.3785 128.348 45.0973 128.432 45.8267C128.489 46.6687 127.803 48.149 127.72 48.3153C127.704 48.3481 127.682 48.3773 127.655 48.4013C127.628 48.4252 127.597 48.4434 127.564 48.4547C127.553 48.459 127.543 48.4626 127.532 48.4654ZM123.502 46.4649C124.761 46.4649 126.711 47.4357 127.408 47.8057C127.695 47.1949 127.871 46.5351 127.928 45.8588C127.85 45.1671 127.702 44.4857 127.486 43.8261L127.392 43.4829C126.966 41.9489 126.419 40.2166 125.4 39.0366C124.506 38.0015 122.311 37.5939 120.793 38.1839C120.405 38.3013 120.06 38.5347 119.8 38.8545C119.541 39.1743 119.38 39.5662 119.336 39.9806C120.061 40.1932 120.817 40.2659 121.567 40.1951C121.626 40.2057 121.68 40.2359 121.72 40.2811C121.76 40.3262 121.785 40.3837 121.79 40.4448C121.795 40.5059 121.781 40.567 121.749 40.6188C121.717 40.6707 121.67 40.7102 121.614 40.7315C121.053 40.7396 120.508 40.9269 120.054 41.2678C119.956 41.3685 119.88 41.4906 119.834 41.6251C119.787 41.7596 119.77 41.9033 119.784 42.0455C119.788 42.1258 119.811 42.2038 119.851 42.2729C119.891 42.342 119.946 42.4001 120.013 42.4424C120.15 42.5131 120.301 42.5516 120.455 42.555C121.226 42.6312 122.005 42.586 122.764 42.4209C122.833 42.3982 122.907 42.4046 122.972 42.4388C123.036 42.473 123.085 42.5321 123.107 42.6033C123.129 42.6744 123.123 42.7516 123.089 42.818C123.056 42.8844 122.999 42.9345 122.93 42.9573C122.291 43.2637 121.738 43.7324 121.323 44.3196C121.292 44.3625 121.203 44.4912 121.214 44.5609C121.224 44.6306 121.417 44.7272 121.645 44.7379C122.108 44.7576 122.57 44.707 123.018 44.5877C123.234 44.4957 123.454 44.4169 123.679 44.3517C123.745 44.3335 123.815 44.3409 123.877 44.3725C123.938 44.4041 123.986 44.4578 124.012 44.5234C124.034 44.5904 124.031 44.6637 124.003 44.7285C123.975 44.7932 123.924 44.8445 123.861 44.872C123.643 44.9683 123.419 45.049 123.19 45.1133C123.011 45.1872 122.846 45.2925 122.701 45.4244C122.545 45.5746 122.296 45.8696 122.405 46.1216C122.497 46.2558 122.624 46.3602 122.771 46.4228C122.918 46.4855 123.08 46.5038 123.237 46.4756C123.325 46.4647 123.414 46.4611 123.502 46.4649Z" fill="#231F20"></path><path d="M89.9572 36.7496L80.1856 61.8126L77.2109 33.0703L89.9572 36.7496Z" fill="#231F20"></path><path d="M80.1849 62.0756H80.1485C80.0914 62.0668 80.0387 62.0389 79.9983 61.9963C79.9579 61.9537 79.9322 61.8987 79.9249 61.8396L76.9502 33.0919C76.9465 33.0486 76.9531 33.0049 76.9694 32.9647C76.9857 32.9245 77.0112 32.889 77.0438 32.8613C77.0751 32.8324 77.113 32.8123 77.154 32.8029C77.195 32.7935 77.2377 32.7951 77.2779 32.8077L90.0294 36.487C90.0642 36.4973 90.0965 36.5151 90.1243 36.5391C90.152 36.5631 90.1746 36.5929 90.1906 36.6264C90.2047 36.6612 90.212 36.6986 90.212 36.7364C90.212 36.7741 90.2047 36.8115 90.1906 36.8463L80.4137 61.9094C80.3949 61.9567 80.3634 61.9975 80.3229 62.027C80.2823 62.0564 80.2345 62.0733 80.1849 62.0756ZM77.5067 33.4245L80.3305 60.7187L89.6081 36.9375L77.5067 33.4245Z" fill="#231F20"></path><path d="M79.4897 3.1769C80.1001 3.09569 80.7201 3.2057 81.2692 3.49264C81.8182 3.77958 82.2709 4.23019 82.5683 4.78591C82.5959 4.26148 82.7589 3.75417 83.0405 3.3166C83.3222 2.87902 83.7122 2.52709 84.1701 2.29731C85.092 1.84972 86.0948 1.6067 87.1135 1.58398C88.5252 1.42062 89.9538 1.52054 91.3311 1.87896C94.8622 2.95164 97.0256 6.66309 98.0917 10.2995C98.6533 12.2356 99.085 14.912 97.9201 16.7355C96.8488 18.4143 93.7597 19.562 92.028 20.3558C89.5213 21.4928 86.8275 22.3134 84.0765 22.1203C76.8426 21.6162 73.1295 13.968 75.3969 7.2477C75.917 5.67087 76.8999 4.14767 78.382 3.49334C78.7313 3.3243 79.1058 3.21732 79.4897 3.1769Z" fill="white"></path><path d="M84.8605 22.4139C84.5901 22.4139 84.3145 22.4139 84.0441 22.4139C82.4962 22.3198 80.9915 21.8512 79.6517 21.0462C78.3119 20.2412 77.1746 19.1223 76.3318 17.7799C75.3623 16.2201 74.7522 14.4518 74.5485 12.6109C74.3448 10.7701 74.5528 8.90553 75.1565 7.16046C75.8014 5.24573 76.9143 3.84589 78.2768 3.22374C78.6604 3.05557 79.0678 2.95233 79.4833 2.91803C80.0243 2.85862 80.5712 2.9305 81.0805 3.12792C81.5898 3.32535 82.0472 3.64285 82.4163 4.05506C82.6897 3.19806 83.2778 2.48565 84.0545 2.07062C85.0075 1.60197 86.0463 1.34784 87.1019 1.32511C88.5469 1.16179 90.0085 1.26531 91.4183 1.63082C94.5074 2.58014 97.0296 5.71235 98.3401 10.2122C98.9174 12.202 99.349 14.9749 98.1373 16.8628C97.1648 18.3806 94.705 19.4533 92.9056 20.2364L92.1308 20.5796C89.8577 21.7065 87.3814 22.3313 84.8605 22.4139ZM79.5093 3.45437C79.1506 3.48013 78.7988 3.56902 78.4692 3.71717C76.7999 4.47341 75.9678 6.30768 75.6246 7.33209C75.0451 8.99979 74.8446 10.7824 75.0384 12.5427C75.2323 14.3029 75.8153 15.9937 76.7426 17.485C77.5463 18.7557 78.629 19.8132 79.903 20.5717C81.177 21.3303 82.6064 21.7684 84.0753 21.8507C86.3999 22.017 88.9637 21.4431 91.9071 20.113C92.1464 20.0004 92.4272 19.8878 92.6924 19.7644C94.4242 19.0082 96.8008 17.973 97.69 16.5893C98.7873 14.873 98.3713 12.2664 97.8253 10.3838C97.2272 8.32968 95.3966 3.41146 91.2519 2.1457C89.9031 1.79663 88.5045 1.70034 87.1227 1.86144C86.1422 1.88136 85.1766 2.11342 84.2885 2.54259C83.8726 2.74921 83.5176 3.06627 83.2599 3.46121C83.0022 3.85615 82.851 4.31473 82.822 4.78985C82.8232 4.85118 82.8036 4.91103 82.7666 4.95903C82.7295 5.00702 82.6774 5.04015 82.6192 5.05265C82.5619 5.06698 82.5015 5.06038 82.4484 5.03398C82.3953 5.00757 82.3527 4.963 82.3279 4.90784C81.8079 3.7869 80.5442 3.36855 79.5041 3.45437H79.5093Z" fill="#231F20"></path><path d="M89.6413 28.8425L89.9585 36.7427C89.9585 36.7427 86.8747 41.2104 82.1579 39.1455C77.4411 37.0806 77.2227 33.0634 77.2227 33.0634L78.7412 18.0031C78.7412 18.0031 82.7143 16.6193 82.9483 8.25781C86.6838 10.7277 90.9949 12.1153 95.4294 12.275C95.4294 12.275 96.2511 21.5214 95.055 25.3509C93.8589 29.1803 89.6413 28.8425 89.6413 28.8425Z" fill="white"></path><path d="M84.6134 39.9529C83.731 39.9524 82.8575 39.77 82.0444 39.4166C77.2235 37.3088 76.9635 33.2702 76.9531 33.0985L78.4717 18.0006C78.4771 17.9496 78.4967 17.9012 78.528 17.8612C78.5594 17.8213 78.6012 17.7915 78.6485 17.7754C78.6849 17.7754 82.45 16.3165 82.6788 8.27683C82.68 8.22826 82.6943 8.181 82.72 8.14029C82.7457 8.09957 82.7819 8.06701 82.8244 8.0462C82.8644 8.02109 82.9103 8.00781 82.957 8.00781C83.0038 8.00781 83.0497 8.02109 83.0897 8.0462C86.7932 10.4775 91.0586 11.8457 95.4459 12.0097C95.5088 12.012 95.5687 12.0377 95.6146 12.0821C95.6605 12.1265 95.6893 12.1865 95.6955 12.2511C95.7319 12.6319 96.5016 21.5995 95.2743 25.4396C94.1978 28.8186 90.9163 29.1082 89.9126 29.1189L90.2195 36.7349C90.2248 36.7944 90.2081 36.8539 90.1727 36.9012C90.1467 36.9333 88.0145 39.9529 84.6134 39.9529ZM78.9709 18.1883L77.4732 33.0878C77.4732 33.2004 77.7384 36.9226 82.2472 38.8963C86.4543 40.7306 89.273 37.2337 89.6994 36.6598L89.3822 28.8507C89.3813 28.7749 89.4093 28.7017 89.4602 28.6469C89.4872 28.6207 89.5191 28.6006 89.554 28.5877C89.5889 28.5747 89.626 28.5694 89.663 28.5718C89.8294 28.5718 93.6362 28.8454 94.7803 25.268C95.8671 21.8676 95.3003 14.0049 95.1963 12.53C90.9491 12.3169 86.8203 11.0155 83.1833 8.74344C82.8452 15.9465 79.7302 17.8344 78.9709 18.1883Z" fill="#231F20"></path><path d="M80.7843 21.9805C80.2779 22.1143 79.7508 22.1439 79.2333 22.0675C78.7157 21.9911 78.2178 21.8103 77.7681 21.5353C77.1534 21.125 76.6509 20.559 76.3086 19.8914C75.9663 19.2238 75.7956 18.4769 75.8127 17.722C75.7873 17.1717 75.8796 16.6223 76.0831 16.113C76.1919 15.8597 76.3515 15.6332 76.5514 15.4483C76.7513 15.2634 76.987 15.1243 77.2428 15.0403C77.8921 14.9321 78.5579 15.0431 79.141 15.3567C80.0407 15.7214 80.0979 16.231 80.6595 16.9282C80.5971 16.8638 80.5399 16.6761 80.4827 16.6118" fill="white"></path><path d="M79.8001 22.3708C79.0388 22.3709 78.2916 22.1597 77.6367 21.7594C76.9827 21.3273 76.4477 20.7287 76.0833 20.0213C75.7189 19.3139 75.5375 18.5216 75.5565 17.7208C75.5247 17.1206 75.6261 16.5207 75.8529 15.967C75.9752 15.6741 76.1567 15.4115 76.3854 15.1969C76.6142 14.9823 76.8847 14.8206 77.179 14.7227C77.8885 14.5949 78.619 14.7098 79.2592 15.0498C79.7869 15.2536 80.2249 15.6481 80.4917 16.1601L80.5905 16.3102C80.624 16.3227 80.6542 16.3429 80.6789 16.3692C80.7383 16.4372 80.7858 16.5152 80.8193 16.5999C80.8311 16.6295 80.845 16.6582 80.8609 16.6857C80.8866 16.7107 80.9071 16.7406 80.9215 16.7738C80.9359 16.807 80.9438 16.8429 80.9448 16.8792C80.9457 16.9156 80.9397 16.9518 80.9271 16.9857C80.9146 17.0197 80.8956 17.0508 80.8713 17.0772C80.8471 17.1036 80.818 17.1248 80.7858 17.1397C80.7536 17.1545 80.7189 17.1627 80.6837 17.1636C80.6484 17.1646 80.6133 17.1585 80.5804 17.1455C80.5475 17.1325 80.5173 17.1129 80.4917 17.0879L80.4501 17.0397C80.2889 16.8358 80.1693 16.6535 80.0601 16.5033C79.8474 16.081 79.4894 15.7558 79.0564 15.5915C78.5271 15.3027 77.9222 15.1956 77.3298 15.2858C77.1112 15.3565 76.9094 15.4737 76.7374 15.6298C76.5654 15.7859 76.4271 15.9775 76.3314 16.1922C76.1378 16.6722 76.0524 17.1912 76.0817 17.7101C76.0607 18.4178 76.2161 19.1193 76.5329 19.7475C76.8498 20.3757 77.3175 20.9096 77.8915 21.2982C78.7417 21.8128 79.7537 21.963 80.7101 21.7165C80.7443 21.7077 80.7798 21.7059 80.8146 21.7113C80.8494 21.7166 80.8829 21.729 80.913 21.7477C80.9432 21.7663 80.9695 21.791 80.9905 21.8201C81.0114 21.8493 81.0266 21.8824 81.0352 21.9176C81.0437 21.9529 81.0454 21.9895 81.0402 22.0254C81.0351 22.0613 81.0231 22.0958 81.005 22.1269C80.9869 22.158 80.963 22.1852 80.9347 22.2068C80.9064 22.2284 80.8743 22.244 80.8401 22.2529C80.4995 22.3366 80.1502 22.3762 79.8001 22.3708Z" fill="#231F20"></path><path d="M89.8093 32.992C88.9347 33.0182 88.0672 32.8243 87.2816 32.4271C86.4961 32.03 85.8161 31.4415 85.3005 30.7126C83.4803 28.1864 83.938 26.4219 83.938 26.4219C83.938 26.4219 86.3094 28.9748 89.6584 28.8568L89.8093 32.992Z" fill="#231F20"></path><path d="M89.594 33.2689C88.7142 33.2584 87.8489 33.0361 87.067 32.6199C86.2852 32.2037 85.6083 31.605 85.0904 30.8715C83.2182 28.2703 83.6654 26.4145 83.6863 26.3395C83.6969 26.2933 83.7194 26.251 83.7515 26.217C83.7835 26.1831 83.8239 26.1586 83.8683 26.1464C83.9136 26.1312 83.962 26.1287 84.0086 26.1391C84.0551 26.1494 84.0982 26.1723 84.1335 26.2054C84.1335 26.2054 86.4685 28.6457 89.6408 28.5545C89.6754 28.5507 89.7105 28.5545 89.7436 28.5658C89.7767 28.5771 89.807 28.5956 89.8326 28.6199C89.8583 28.6443 89.8785 28.6741 89.8921 28.7072C89.9056 28.7403 89.9121 28.776 89.9112 28.812L90.0776 32.9632C90.0806 33.0318 90.058 33.0989 90.0145 33.1507C89.9709 33.2026 89.9098 33.2353 89.8436 33.2421C89.8436 33.2421 89.7292 33.2689 89.594 33.2689ZM84.1335 26.9723C84.207 28.2856 84.6842 29.5405 85.496 30.5551C85.9609 31.2125 86.5661 31.7509 87.265 32.1285C87.9639 32.5061 88.7376 32.7128 89.5263 32.7326L89.3807 29.107C87.4455 29.0397 85.5921 28.2857 84.1335 26.9723Z" fill="#231F20"></path><path d="M89.0259 16.3047C89.0259 16.3047 91.106 20.6383 90.4144 21.2497C89.7227 21.8611 88.043 21.1746 88.043 21.1746" fill="white"></path><path d="M89.561 21.7747C89.0077 21.7547 88.4621 21.6349 87.9489 21.4207C87.9131 21.4112 87.8797 21.3939 87.8509 21.37C87.822 21.346 87.7985 21.316 87.7818 21.282C87.7652 21.248 87.7557 21.2106 87.7541 21.1725C87.7526 21.1344 87.7589 21.0964 87.7727 21.061C87.7865 21.0256 87.8074 20.9937 87.8342 20.9673C87.8609 20.9409 87.8928 20.9208 87.9276 20.9081C87.9625 20.8954 87.9996 20.8906 88.0365 20.8939C88.0733 20.8972 88.1091 20.9086 88.1413 20.9273C88.5625 21.0989 89.7691 21.4636 90.2215 21.0453C90.5127 20.7932 89.8315 18.6318 88.7654 16.4221C88.7469 16.3905 88.735 16.3553 88.7304 16.3187C88.7257 16.2821 88.7284 16.245 88.7383 16.2096C88.7482 16.1741 88.7651 16.1412 88.7879 16.1128C88.8107 16.0844 88.8389 16.0611 88.8708 16.0445C88.9027 16.0278 88.9376 16.0182 88.9733 16.0161C89.009 16.014 89.0448 16.0195 89.0783 16.0323C89.1118 16.045 89.1425 16.0648 89.1683 16.0904C89.1941 16.1159 89.2145 16.1467 89.2282 16.1807C89.8887 17.543 91.3084 20.7825 90.5543 21.4529C90.2699 21.6767 89.9184 21.7906 89.561 21.7747Z" fill="#231F20"></path><path d="M86.5743 15.7473C86.6808 15.2407 86.4849 14.7669 86.1369 14.6891C85.7888 14.6113 85.4204 14.9589 85.3139 15.4655C85.2074 15.9721 85.4033 16.4459 85.7513 16.5237C86.0994 16.6015 86.4678 16.2539 86.5743 15.7473Z" fill="#231F20"></path><path d="M92.0756 17.3759C92.4305 17.3444 92.6832 16.9003 92.6402 16.3838C92.5972 15.8673 92.2747 15.4741 91.9198 15.5056C91.565 15.537 91.3122 15.9812 91.3552 16.4976C91.3983 17.0141 91.7208 17.4073 92.0756 17.3759Z" fill="#231F20"></path><path d="M89.2653 27.236C89.0906 27.2355 88.9165 27.2176 88.7452 27.1824C88.1976 27.0705 87.682 26.8312 87.2377 26.4827C86.7933 26.1341 86.4321 25.6855 86.1814 25.1711C85.7743 24.3395 85.5624 23.421 85.5625 22.4894C85.5619 22.4508 85.5694 22.4126 85.5847 22.3773C85.6 22.3421 85.6226 22.3108 85.6509 22.2856C85.7654 22.1837 85.8122 22.1354 91.6783 22.8219C91.7391 22.8294 91.7954 22.8588 91.8372 22.9049C91.8791 22.9511 91.9038 23.0109 91.9071 23.074C91.9071 23.1706 92.0371 25.5197 90.7422 26.7158C90.3269 27.0673 89.8023 27.2521 89.2653 27.236ZM86.0826 22.7469C86.1138 23.4947 86.3018 24.2266 86.6338 24.8922C86.8433 25.3376 87.1484 25.728 87.526 26.0337C87.9035 26.3394 88.3436 26.5525 88.8128 26.6568C89.0806 26.7234 89.3593 26.7282 89.629 26.6707C89.8987 26.6132 90.1528 26.4949 90.373 26.3242C91.2778 25.4929 91.3766 23.9161 91.3766 23.3368C89.5565 23.1169 86.8991 22.8112 86.0826 22.7469Z" fill="#231F20"></path><path d="M86.3984 25.047C87.4385 27.0743 89.6279 27.364 90.5588 26.5273C90.2572 25.7389 89.7631 24.9451 88.9727 24.7198C88.1042 24.5091 87.1913 24.6251 86.3984 25.047Z" fill="#231F20"></path><path d="M89.2721 27.2342C89.0977 27.233 88.9238 27.2169 88.752 27.186C88.2055 27.073 87.691 26.8332 87.2477 26.4847C86.8044 26.1363 86.4439 25.6883 86.1934 25.1747C86.1792 25.1418 86.1719 25.1061 86.1719 25.0701C86.1719 25.0341 86.1792 24.9984 86.1934 24.9655C86.2047 24.9316 86.2225 24.9003 86.2457 24.8736C86.2689 24.8469 86.2971 24.8253 86.3286 24.81C87.1749 24.3677 88.1449 24.2462 89.0692 24.4667C89.8181 24.6759 90.411 25.341 90.827 26.4351C90.8474 26.4853 90.8519 26.5409 90.8398 26.5939C90.8276 26.6469 90.7995 26.6946 90.7594 26.7301C90.3401 27.0801 89.8109 27.2595 89.2721 27.2342ZM86.7759 25.1747C86.9967 25.555 87.2921 25.8835 87.6431 26.1393C87.9942 26.3952 88.3931 26.5726 88.8144 26.6603C89.292 26.7717 89.7927 26.6952 90.2185 26.4458C90.1171 26.1137 89.9442 25.8095 89.7128 25.556C89.4813 25.3024 89.1974 25.1061 88.882 24.9816C88.178 24.8124 87.4399 24.8801 86.7759 25.1747Z" fill="#231F20"></path><path d="M49.3529 61.1899C49.3529 61.1899 43.596 63.8126 38.432 59.9831C33.2679 56.1537 20.1992 25.679 20.1992 25.679L25.8469 22.4609L41.6563 45.6951L49.3529 61.1899Z" fill="white"></path><path d="M44.7999 62.3227C42.4585 62.3419 40.1722 61.5904 38.2734 60.1773C33.1093 56.3532 20.4879 26.9834 19.9522 25.7337C19.9255 25.6706 19.9224 25.5995 19.9436 25.5341C19.9647 25.4687 20.0085 25.4138 20.0666 25.3797L25.7143 22.2046C25.7725 22.1726 25.8401 22.1637 25.9043 22.1795C25.9685 22.1953 26.0248 22.2348 26.0627 22.2904L41.8721 45.5246L49.5896 61.0677C49.6037 61.1025 49.611 61.1399 49.611 61.1776C49.611 61.2154 49.6037 61.2527 49.5896 61.2876C49.5789 61.3226 49.5607 61.3548 49.5364 61.3817C49.5121 61.4086 49.4823 61.4296 49.4491 61.4431C47.9658 62.0314 46.3892 62.3297 44.7999 62.3227ZM20.5399 25.7659C21.7672 28.5978 33.775 56.187 38.5854 59.7483C42.9382 62.9663 47.8006 61.4753 48.9863 61.0355L41.4249 45.8303L25.7611 22.8321L20.5399 25.7659Z" fill="#231F20"></path><path d="M27.4496 25.5191C28.0158 22.0364 28.2406 18.5038 28.1205 14.9747C28.1205 14.2506 27.7565 13.2745 27.0804 13.4247C26.7268 13.5051 26.5136 13.8806 26.3679 14.2238C25.6692 15.8685 25.3148 17.6468 25.3279 19.4424C24.6622 17.7154 24.0139 15.9919 23.3829 14.2721C23.1853 13.7357 21.9892 9.67568 21.3963 11.4563C21.1155 12.2823 21.4899 13.5695 21.5887 14.4115C21.7239 15.5521 21.8973 16.691 22.1088 17.828C21.984 17.0235 20.8035 11.1238 19.7426 11.9283C18.8585 12.6202 19.623 14.2131 19.7894 15.0766C20.0286 16.3155 20.0962 17.8387 20.5538 19.0133C19.9662 17.5706 19.3265 16.1546 18.6193 14.7762C18.4425 14.4223 18.0056 13.1672 17.626 13.0278C17.2464 12.8883 16.7783 13.5319 16.7367 13.9074C16.6483 14.728 17.2204 16.0956 17.4232 16.9109C17.6936 17.9835 18.0628 19.0562 18.4321 20.1289C18.1304 19.2547 17.392 18.4877 16.9759 17.6832C16.6171 17.0235 16.3623 16.0742 15.6654 15.6773C15.5603 15.6129 15.4431 15.5724 15.3216 15.5585C15.2002 15.5446 15.0772 15.5577 14.961 15.5968C14.8448 15.6359 14.738 15.7001 14.6478 15.7853C14.5577 15.8704 14.4862 15.9744 14.4381 16.0903C14.4031 16.3398 14.443 16.5943 14.5525 16.8197C16.4909 22.0737 19.3071 26.9368 22.8732 31.1882" fill="white"></path><path d="M22.8322 31.4857C22.7556 31.484 22.6827 31.4513 22.6294 31.3946C19.0547 27.1195 16.2381 22.2284 14.3086 16.9456C14.1781 16.6676 14.1345 16.3546 14.1838 16.0499C14.2177 15.9111 14.2822 15.7821 14.3725 15.6733C14.4627 15.5644 14.5761 15.4785 14.7039 15.4224C14.8762 15.3451 15.063 15.3079 15.2508 15.3135C15.4387 15.3191 15.623 15.3672 15.7908 15.4546C16.3406 15.8449 16.7516 16.41 16.9609 17.0636C17.0441 17.2513 17.1221 17.4283 17.2105 17.6C17.2989 17.7716 17.3405 17.8306 17.4133 17.9486C17.3249 17.6429 17.2417 17.3318 17.1637 17.0261C17.1065 16.8008 17.0233 16.5326 16.9297 16.2484C16.6225 15.4939 16.4601 14.6853 16.4512 13.8671C16.5183 13.4746 16.7333 13.1256 17.0493 12.8963C17.1406 12.833 17.2443 12.791 17.353 12.7734C17.4617 12.7558 17.5728 12.763 17.6785 12.7944C18.0582 12.9016 18.3494 13.5238 18.6822 14.3229C18.7446 14.4677 18.7966 14.5965 18.8382 14.6769C19.1399 15.2669 19.4259 15.8622 19.7067 16.4683V16.4307C19.6443 15.9802 19.5871 15.5565 19.5091 15.1596C19.4666 14.9493 19.4128 14.7416 19.3479 14.5375C19.0827 13.6311 18.7238 12.3921 19.5663 11.7378C19.647 11.6634 19.7463 11.6139 19.853 11.5949C19.9597 11.5759 20.0694 11.5883 20.1695 11.6305C20.6179 11.9514 20.9463 12.4207 21.1004 12.9606C20.9996 12.4269 21.0192 11.8763 21.1576 11.3516C21.298 10.9279 21.5061 10.7188 21.7765 10.7188C22.2965 10.7188 22.7802 11.5608 23.5446 13.8402C23.5914 13.985 23.6278 14.0977 23.6538 14.1567C24.1375 15.4492 24.6159 16.7579 25.0788 18.0612C25.2219 16.692 25.5729 15.3545 26.1189 14.0977C26.184 13.8751 26.3002 13.6721 26.4578 13.5059C26.6153 13.3397 26.8095 13.2152 27.0237 13.143C27.1498 13.1128 27.2808 13.1125 27.4069 13.1423C27.5331 13.172 27.651 13.2309 27.7518 13.3146C28.1533 13.7531 28.3718 14.3367 28.3603 14.9397C28.4855 18.4885 28.2607 22.0412 27.6894 25.5431C27.6844 25.5791 27.6724 25.6136 27.6541 25.6446C27.6357 25.6756 27.6115 25.7025 27.5828 25.7236C27.5541 25.7446 27.5216 25.7595 27.4871 25.7672C27.4527 25.7749 27.4171 25.7753 27.3826 25.7684C27.3475 25.7626 27.3139 25.7496 27.2838 25.7301C27.2537 25.7107 27.2277 25.6852 27.2073 25.6552C27.1869 25.6251 27.1726 25.5912 27.1652 25.5554C27.1578 25.5196 27.1574 25.4826 27.1641 25.4466C27.7268 21.9834 27.9481 18.4703 27.8246 14.9612C27.8324 14.5125 27.6786 14.0768 27.393 13.7383C27.3528 13.7046 27.3055 13.6812 27.2549 13.67C27.2042 13.6589 27.1518 13.6602 27.1017 13.674C26.8573 13.7222 26.6909 14.044 26.5817 14.3122C25.8935 15.9207 25.5392 17.66 25.5416 19.4181C25.5413 19.4835 25.5188 19.5468 25.4779 19.5968C25.4371 19.6468 25.3804 19.6804 25.318 19.6917C25.2555 19.7045 25.1906 19.6936 25.1352 19.6611C25.0798 19.6286 25.0376 19.5766 25.0164 19.5147C24.4131 17.7984 23.7839 16.0553 23.139 14.3498C23.139 14.28 23.0766 14.162 23.0246 14.0119C22.2757 11.7592 21.9169 11.3302 21.7661 11.2605C21.7219 11.3433 21.6837 11.4293 21.6517 11.5179C21.5226 12.2229 21.5492 12.9489 21.7297 13.6418C21.7765 13.9046 21.8181 14.1781 21.8441 14.3712C21.9793 15.4868 22.1405 16.6185 22.3329 17.7233C22.3318 17.7394 22.3318 17.7555 22.3329 17.7716C22.3296 17.8348 22.3056 17.8949 22.2647 17.9421C22.2239 17.9893 22.1687 18.0208 22.1082 18.0314C22.0477 18.042 21.9856 18.0311 21.9319 18.0005C21.8782 17.9698 21.8363 17.9213 21.8129 17.8628C21.8129 17.734 21.7713 17.6053 21.7453 17.4766C21.4333 15.7603 20.5752 12.3975 19.9459 12.14C19.9459 12.14 19.9147 12.14 19.8783 12.14C19.3583 12.5638 19.6183 13.5506 19.8471 14.339C19.9147 14.5857 19.9823 14.8164 20.0187 15.0094C20.1019 15.4278 20.1591 15.8569 20.2216 16.3127C20.3006 17.1918 20.475 18.059 20.7416 18.8979C20.7685 18.969 20.7669 19.0482 20.7371 19.1182C20.7074 19.1881 20.6519 19.2429 20.583 19.2706C20.514 19.2984 20.4372 19.2967 20.3694 19.2661C20.3016 19.2354 20.2484 19.1782 20.2216 19.1071C19.6443 17.6858 18.9995 16.2645 18.3026 14.8968C18.2558 14.811 18.1986 14.6662 18.1258 14.5053C17.9958 14.1942 17.6525 13.3683 17.4653 13.2878C17.4319 13.2792 17.3969 13.2791 17.3633 13.2875C17.3298 13.2959 17.2988 13.3126 17.2729 13.3361C17.0875 13.4824 16.9615 13.6946 16.9193 13.9314C16.948 14.6493 17.0958 15.3567 17.3561 16.0231C17.4497 16.3181 17.5381 16.597 17.6005 16.833C17.8762 17.9539 18.2662 19.0588 18.6042 20.051C18.6162 20.0862 18.6213 20.1235 18.6192 20.1608C18.6172 20.198 18.6081 20.2345 18.5924 20.2681C18.5767 20.3018 18.5548 20.3319 18.5278 20.3567C18.5008 20.3816 18.4693 20.4007 18.4352 20.4131C18.4011 20.4254 18.3649 20.4306 18.3288 20.4286C18.2926 20.4265 18.2573 20.4171 18.2247 20.4009C18.1921 20.3847 18.1629 20.362 18.1388 20.3342C18.1147 20.3064 18.0961 20.274 18.0842 20.2387C17.8676 19.7198 17.588 19.2314 17.2521 18.7853C17.0331 18.4802 16.83 18.1633 16.6436 17.8359C16.55 17.6643 16.4616 17.4659 16.3732 17.2674C16.2031 16.7358 15.878 16.2713 15.4423 15.9373C15.3451 15.8922 15.2396 15.8688 15.1329 15.8688C15.0262 15.8688 14.9208 15.8922 14.8235 15.9373C14.7706 15.9598 14.7231 15.9941 14.6844 16.0377C14.6458 16.0812 14.6169 16.133 14.5999 16.1894C14.5834 16.3851 14.6194 16.5818 14.7039 16.7579C16.6438 21.9843 19.4642 26.816 23.035 31.0299C23.0587 31.0571 23.0769 31.0889 23.0884 31.1235C23.1 31.1581 23.1047 31.1948 23.1022 31.2313C23.0998 31.2678 23.0903 31.3034 23.0743 31.3361C23.0583 31.3687 23.0361 31.3977 23.009 31.4214C22.9589 31.4631 22.8965 31.4858 22.8322 31.4857Z" fill="#231F20"></path><path d="M22.6175 25.9248C22.5599 25.9247 22.5039 25.9053 22.4579 25.8695C22.412 25.8337 22.3785 25.7835 22.3627 25.7263C21.2082 21.5161 25.093 19.2366 25.1346 19.1991C25.1969 19.1684 25.2682 19.1635 25.334 19.1853C25.3997 19.2071 25.4548 19.2541 25.4881 19.3165C25.5213 19.3789 25.5302 19.4521 25.5128 19.521C25.4954 19.5899 25.4531 19.6494 25.3946 19.6872C25.249 19.7676 21.8219 21.7896 22.8776 25.5869C22.897 25.6573 22.8888 25.7327 22.8547 25.7969C22.8207 25.8612 22.7635 25.909 22.6956 25.9301L22.6175 25.9248Z" fill="#231F20"></path><path d="M56.0188 77.8359L53.8086 84.5294H96.8631V78.4474L56.0188 77.8359Z" fill="white"></path><path d="M96.8631 84.7964H53.8086C53.7663 84.7958 53.7247 84.7854 53.6869 84.7659C53.6491 84.7464 53.616 84.7183 53.5902 84.6838C53.566 84.6473 53.5506 84.6054 53.5451 84.5616C53.5397 84.5178 53.5445 84.4733 53.559 84.4317L55.764 77.7436C55.7786 77.6855 55.8128 77.6347 55.8604 77.6003C55.9081 77.5658 55.9661 77.5501 56.024 77.5558L96.8683 78.1619C96.9387 78.1646 97.0054 78.1951 97.0547 78.2469C97.1041 78.2988 97.1322 78.3682 97.1335 78.4408V84.5229C97.1322 84.5959 97.1031 84.6655 97.0525 84.7166C97.0019 84.7678 96.9339 84.7964 96.8631 84.7964ZM54.1831 84.2601H96.6135V78.7143L56.232 78.1083L54.1831 84.2601Z" fill="#231F20"></path><path d="M97.6213 70.1554C97.5857 70.1534 97.5509 70.144 97.519 70.1276C97.4871 70.1111 97.4588 70.0881 97.4358 70.06C97.4129 70.0318 97.3959 69.9991 97.3857 69.9638C97.3756 69.9286 97.3726 69.8915 97.3769 69.855L99.8159 40.5978C99.8178 40.5611 99.827 40.5252 99.8429 40.4922C99.8588 40.4593 99.8811 40.4301 99.9084 40.4065C99.9357 40.3829 99.9675 40.3653 100.002 40.3548C100.036 40.3444 100.072 40.3413 100.107 40.3457C100.142 40.3484 100.176 40.3582 100.207 40.3745C100.238 40.3909 100.266 40.4134 100.289 40.4408C100.312 40.4682 100.329 40.5 100.34 40.5343C100.35 40.5686 100.354 40.6048 100.352 40.6407L97.9126 69.9033C97.906 69.9764 97.8717 70.0438 97.8172 70.091C97.7626 70.1382 97.6923 70.1613 97.6213 70.1554Z" fill="#231F20"></path><path d="M52.4518 58.8183C52.4111 58.8186 52.3709 58.8096 52.3341 58.792C52.2972 58.7744 52.2646 58.7486 52.2385 58.7164C52.2165 58.6883 52.2002 58.656 52.1903 58.6213C52.1805 58.5867 52.1774 58.5503 52.1813 58.5144C52.1852 58.4785 52.1959 58.4438 52.2129 58.4121C52.2298 58.3805 52.2527 58.3527 52.2801 58.3303L64.6156 47.9629C64.6715 47.9276 64.7378 47.9145 64.8024 47.9259C64.867 47.9373 64.9253 47.9725 64.9666 48.0249C65.0079 48.0773 65.0293 48.1434 65.027 48.2109C65.0246 48.2784 64.9985 48.3427 64.9536 48.3919L52.6182 58.7593C52.571 58.7984 52.5122 58.8192 52.4518 58.8183Z" fill="#231F20"></path><path d="M13.2931 40.4453H14.2084C14.2403 40.4592 14.2734 40.47 14.3072 40.4775C15.6827 40.5553 17.0115 41.0189 18.1503 41.8183C19.406 42.6388 20.4109 43.8091 21.0486 45.1939C21.6864 46.5786 21.931 48.1213 21.7542 49.6435C21.6099 51.4881 20.8317 53.2189 19.5597 54.5242C18.7159 55.4529 17.6729 56.1648 16.5141 56.6026C15.3554 57.0403 14.1133 57.1919 12.8875 57.045C11.5949 56.9266 10.3536 56.4666 9.28357 55.7095C8.33414 55.0676 7.52848 54.2241 6.92044 53.2353C6.3124 52.2466 5.91598 51.1354 5.75767 49.976C5.72127 49.7347 5.69527 49.4933 5.66406 49.2573V48.3134L5.69527 48.1364C5.74207 47.7878 5.76807 47.4284 5.84088 47.0637C6.17935 45.3894 7.01004 43.8633 8.21979 42.6934C9.42955 41.5235 10.9596 40.7666 12.6015 40.5258C12.8147 40.5043 13.0539 40.4775 13.2931 40.4453ZM19.6481 53.4086C20.563 52.1707 21.0876 50.673 21.151 49.1179H17.9527C17.9007 49.7079 17.8695 50.2925 17.7915 50.8717C17.7135 51.451 17.6043 52.0141 17.5055 52.5612L19.6481 53.4086ZM6.32452 49.1179C6.38795 50.673 6.91254 52.1707 7.82745 53.4086L9.99084 52.5397C9.71403 51.4173 9.56567 50.2652 9.5488 49.1072L6.32452 49.1179ZM21.1406 48.4475C21.203 47.2193 20.3397 44.7896 19.6377 44.1568L17.4847 45.0149C17.7596 46.1379 17.9097 47.2895 17.9319 48.4475H21.1406ZM9.99084 45.0203L7.83785 44.1568C7.05778 45.0042 6.19971 47.4338 6.34532 48.4475H9.5592C9.57221 47.288 9.71708 46.1342 9.99084 45.0096V45.0203ZM14.0628 52.0999C14.536 52.1375 14.9989 52.1643 15.4565 52.2179C15.9141 52.2716 16.377 52.352 16.845 52.4271C16.845 52.3842 16.845 52.3413 16.8814 52.293C17.1193 51.3061 17.2519 50.2954 17.2767 49.2788C17.2767 49.1393 17.2455 49.1072 17.1154 49.1072H14.2032H14.0628V52.0999ZM10.1989 49.1125C10.2005 50.223 10.335 51.3291 10.5993 52.4056L13.3815 52.0785V49.1179L10.1989 49.1125ZM17.2819 48.4421C17.2677 47.3378 17.1245 46.2394 16.8554 45.1704L14.0628 45.4976V48.4421H17.2819ZM10.5993 45.1597C10.3305 46.2286 10.189 47.3272 10.1781 48.4314H13.4075V45.4869L10.5993 45.1597ZM16.637 44.4732C16.4188 43.7509 16.0981 43.0659 15.6853 42.4405C15.4085 42.001 15.0364 41.6337 14.5984 41.3678C14.4268 41.2713 14.2396 41.2123 14.042 41.1265V44.7682C14.921 44.7545 15.7967 44.6558 16.6578 44.4732H16.637ZM14.0368 52.7757V56.3799C14.4259 56.3067 14.7867 56.1207 15.0769 55.8436C15.6807 55.2434 16.1447 54.5099 16.4342 53.6982C16.507 53.5105 16.5746 53.3174 16.6474 53.1082C15.7997 52.9135 14.9361 52.8022 14.068 52.7757H14.0368ZM13.3763 56.3906V52.7703C12.502 52.7898 11.6315 52.8939 10.7761 53.0814C10.9269 53.4622 11.0621 53.8323 11.2233 54.1863C11.496 54.828 11.8985 55.4021 12.4038 55.8704C12.6877 56.1326 13.0341 56.3121 13.4075 56.3906H13.3763ZM10.7501 44.4625C11.6139 44.6521 12.4933 44.7562 13.3763 44.7736V41.1426C13.1092 41.1951 12.8568 41.3087 12.6379 41.4751C12.1114 41.867 11.6863 42.3864 11.4002 42.9876C11.1973 43.4703 11.0049 43.9637 10.7813 44.4625H10.7501ZM19.1592 53.9664C18.5585 53.6497 17.9253 53.4033 17.2715 53.2316C16.9614 54.3088 16.4292 55.3041 15.7113 56.1493C17.0454 55.7697 18.2502 55.0137 19.1904 53.9664H19.1592ZM11.7434 41.4268C10.9373 41.459 8.71153 42.8642 8.29029 43.6258L10.1364 44.3606C10.3705 43.8242 10.5733 43.2879 10.8073 42.8106C11.0479 42.3021 11.3637 41.8353 11.7434 41.4268ZM8.28509 53.9664C9.22874 55.0169 10.4368 55.7763 11.7746 56.16C11.0382 55.3171 10.4944 54.3145 10.1832 53.2262C9.52553 53.3985 8.88877 53.6468 8.28509 53.9664ZM15.7633 41.4322C16.1242 41.8413 16.4287 42.2997 16.6682 42.7945C16.897 43.2933 17.105 43.7974 17.3235 44.3123C17.971 44.142 18.5975 43.8955 19.1904 43.5775C18.2674 42.543 17.0792 41.7992 15.7633 41.4322Z" fill="#D1D3D4"></path><path d="M136.818 81.5675H117.639C117.57 81.5675 117.504 81.5393 117.455 81.489C117.406 81.4387 117.379 81.3705 117.379 81.2994V70.401C117.38 70.3303 117.408 70.2629 117.457 70.2129C117.505 70.1629 117.57 70.1342 117.639 70.1328H136.818C136.887 70.1328 136.953 70.1611 137.002 70.2114C137.051 70.2617 137.078 70.3299 137.078 70.401V81.2994C137.078 81.3705 137.051 81.4387 137.002 81.489C136.953 81.5393 136.887 81.5675 136.818 81.5675ZM117.899 81.0312H136.558V70.6692H117.899V81.0312Z" fill="#D1D3D4"></path><path d="M127.234 77.4701C127.182 77.4704 127.131 77.4535 127.089 77.4218L117.494 70.621C117.464 70.6018 117.438 70.5766 117.418 70.5467C117.398 70.5169 117.384 70.4831 117.376 70.4475C117.369 70.4118 117.369 70.3751 117.376 70.3394C117.383 70.3038 117.397 70.27 117.418 70.2401C117.438 70.2102 117.464 70.1849 117.494 70.1656C117.523 70.1464 117.557 70.1336 117.592 70.1281C117.627 70.1226 117.662 70.1245 117.696 70.1336C117.731 70.1427 117.763 70.1589 117.79 70.1812L127.234 76.8747L136.658 70.1866C136.686 70.1643 136.718 70.1481 136.752 70.1389C136.786 70.1298 136.821 70.1279 136.856 70.1335C136.891 70.139 136.925 70.1517 136.955 70.171C136.984 70.1902 137.01 70.2156 137.03 70.2455C137.051 70.2754 137.065 70.3091 137.072 70.3448C137.079 70.3804 137.079 70.4172 137.072 70.4528C137.064 70.4885 137.05 70.5222 137.03 70.5521C137.01 70.5819 136.984 70.6072 136.954 70.6264L127.364 77.4271C127.326 77.4539 127.281 77.4688 127.234 77.4701Z" fill="#D1D3D4"></path><path d="M117.64 81.5716C117.585 81.5709 117.531 81.5522 117.487 81.5182C117.443 81.4842 117.411 81.4366 117.394 81.3823C117.378 81.328 117.379 81.2699 117.397 81.2162C117.415 81.1625 117.449 81.116 117.494 81.0835L125.18 75.6343C125.208 75.6121 125.24 75.5958 125.274 75.5867C125.308 75.5776 125.344 75.5757 125.379 75.5812C125.414 75.5867 125.447 75.5995 125.477 75.6188C125.507 75.638 125.533 75.6633 125.553 75.6932C125.573 75.7231 125.587 75.7569 125.594 75.7926C125.601 75.8282 125.601 75.865 125.594 75.9006C125.587 75.9362 125.573 75.97 125.553 75.9998C125.533 76.0297 125.507 76.055 125.477 76.0741L117.79 81.5233C117.746 81.5545 117.693 81.5714 117.64 81.5716Z" fill="#D1D3D4"></path><path d="M136.821 81.5711C136.769 81.5701 136.718 81.5534 136.675 81.5229L128.994 76.0898C128.964 76.0706 128.938 76.0453 128.918 76.0155C128.898 75.9856 128.884 75.9519 128.876 75.9162C128.869 75.8806 128.869 75.8438 128.876 75.8082C128.883 75.7725 128.897 75.7387 128.918 75.7089C128.938 75.679 128.964 75.6536 128.994 75.6344C129.023 75.6151 129.057 75.6023 129.092 75.5968C129.127 75.5913 129.162 75.5932 129.196 75.6023C129.231 75.6115 129.263 75.6277 129.29 75.65L136.971 81.0992C137.017 81.1319 137.051 81.1788 137.069 81.2331C137.087 81.2873 137.087 81.346 137.07 81.4005C137.054 81.455 137.02 81.5026 136.975 81.5362C136.93 81.5698 136.876 81.5877 136.821 81.5872V81.5711Z" fill="#D1D3D4"></path><path d="M144.012 63.1846C142.389 63.1857 140.801 62.6901 139.451 61.7605C138.101 60.831 137.048 59.5092 136.426 57.9625C135.805 56.4158 135.642 54.7136 135.958 53.0714C136.275 51.4292 137.056 49.9206 138.204 48.7367C139.352 47.5527 140.815 46.7466 142.407 46.4202C144 46.0938 145.65 46.2618 147.15 46.9031C148.65 47.5443 149.931 48.6299 150.833 50.0226C151.734 51.4152 152.214 53.0522 152.213 54.7266C152.209 56.9685 151.344 59.1174 149.807 60.7026C148.27 62.2879 146.186 63.1804 144.012 63.1846ZM144.012 46.7995C142.492 46.7985 141.005 47.2625 139.741 48.1329C138.476 49.0033 137.49 50.2409 136.907 51.6893C136.325 53.1377 136.172 54.7317 136.468 56.2698C136.764 57.8078 137.496 59.2208 138.57 60.33C139.645 61.4391 141.015 62.1946 142.506 62.5009C143.997 62.8072 145.543 62.6506 146.947 62.0508C148.352 61.4509 149.553 60.4349 150.398 59.1312C151.242 57.8275 151.693 56.2946 151.693 54.7266C151.691 52.626 150.881 50.6122 149.441 49.1263C148.001 47.6405 146.049 46.8038 144.012 46.7995Z" fill="#D1D3D4"></path><path d="M146.316 62.8374C146.26 62.837 146.207 62.8186 146.162 62.7849C146.117 62.7513 146.084 62.704 146.066 62.6497L143.762 54.8085C143.75 54.7698 143.747 54.7287 143.753 54.6885C143.76 54.6484 143.775 54.6104 143.799 54.5778L148.412 47.9112C148.431 47.8821 148.456 47.8575 148.485 47.8385C148.514 47.8196 148.547 47.8067 148.581 47.8007C148.615 47.7947 148.649 47.7957 148.683 47.8036C148.716 47.8115 148.748 47.8262 148.776 47.8468C148.831 47.8895 148.867 47.9526 148.878 48.0226C148.888 48.0926 148.872 48.1642 148.833 48.2222L144.298 54.7816L146.565 62.4674C146.585 62.5356 146.578 62.6091 146.546 62.6722C146.514 62.7353 146.46 62.7831 146.394 62.8052L146.316 62.8374Z" fill="#D1D3D4"></path><path d="M144.006 54.9952C143.965 54.994 143.924 54.983 143.887 54.963L136.866 51.1336C136.836 51.117 136.809 51.0945 136.787 51.0672C136.765 51.0399 136.748 51.0084 136.738 50.9745C136.728 50.9407 136.724 50.9051 136.728 50.8698C136.731 50.8345 136.741 50.8002 136.757 50.7689C136.773 50.7375 136.795 50.7097 136.821 50.6871C136.848 50.6645 136.878 50.6475 136.911 50.637C136.944 50.6266 136.978 50.6229 137.013 50.6262C137.047 50.6295 137.08 50.6397 137.11 50.6562L144.131 54.4857C144.192 54.5198 144.237 54.577 144.258 54.6451C144.278 54.7133 144.272 54.7869 144.24 54.8504C144.218 54.8941 144.184 54.9307 144.143 54.9562C144.102 54.9817 144.054 54.9952 144.006 54.9952Z" fill="#D1D3D4"></path><path d="M25.6491 78.6897H22.9241C22.8551 78.6897 22.789 78.6614 22.7402 78.6111C22.6915 78.5609 22.6641 78.4926 22.6641 78.4215V65.5494C22.6641 65.4783 22.6915 65.4101 22.7402 65.3598C22.789 65.3095 22.8551 65.2812 22.9241 65.2812H25.6491C25.7181 65.2812 25.7842 65.3095 25.833 65.3598C25.8817 65.4101 25.9091 65.4783 25.9091 65.5494V78.4215C25.9091 78.4926 25.8817 78.5609 25.833 78.6111C25.7842 78.6614 25.7181 78.6897 25.6491 78.6897ZM23.1841 78.1534H25.3891V65.8176H23.1841V78.1534Z" fill="#D1D3D4"></path><path d="M31.6126 78.6871H28.8772C28.8082 78.6871 28.7421 78.6588 28.6933 78.6085C28.6446 78.5583 28.6172 78.49 28.6172 78.4189V69.5104C28.6172 69.4392 28.6446 69.371 28.6933 69.3207C28.7421 69.2704 28.8082 69.2422 28.8772 69.2422H31.6022C31.6712 69.2422 31.7373 69.2704 31.7861 69.3207C31.8349 69.371 31.8623 69.4392 31.8623 69.5104V78.435C31.8584 78.5015 31.8308 78.5641 31.7846 78.6107C31.7385 78.6573 31.6772 78.6845 31.6126 78.6871ZM29.1476 78.1508H31.3526V69.7624H29.1476V78.1508Z" fill="#D1D3D4"></path><path d="M37.571 78.6941H34.846C34.777 78.6941 34.7109 78.6659 34.6621 78.6156C34.6133 78.5653 34.5859 78.4971 34.5859 78.4259V72.6979C34.5859 72.6267 34.6133 72.5585 34.6621 72.5082C34.7109 72.4579 34.777 72.4297 34.846 72.4297H37.571C37.64 72.4297 37.7061 72.4579 37.7549 72.5082C37.8036 72.5585 37.831 72.6267 37.831 72.6979V78.4259C37.831 78.4971 37.8036 78.5653 37.7549 78.6156C37.7061 78.6659 37.64 78.6941 37.571 78.6941ZM35.106 78.1578H37.311V72.966H35.1164L35.106 78.1578Z" fill="#D1D3D4"></path><path d="M39.8202 78.6848H20.2717C20.2028 78.6848 20.1366 78.6565 20.0879 78.6062C20.0391 78.5559 20.0117 78.4877 20.0117 78.4166C20.0117 78.3455 20.0391 78.2773 20.0879 78.227C20.1366 78.1767 20.2028 78.1484 20.2717 78.1484H39.8202C39.8892 78.1484 39.9553 78.1767 40.0041 78.227C40.0528 78.2773 40.0802 78.3455 40.0802 78.4166C40.0802 78.4877 40.0528 78.5559 40.0041 78.6062C39.9553 78.6565 39.8892 78.6848 39.8202 78.6848Z" fill="#D1D3D4"></path><path d="M48.8083 32.1291H37.2997C36.6556 32.1291 36.0379 31.8652 35.5824 31.3955C35.127 30.9257 34.8711 30.2887 34.8711 29.6244V22.8719C34.8711 22.543 34.9339 22.2173 35.056 21.9134C35.178 21.6095 35.3569 21.3334 35.5824 21.1008C35.8079 20.8682 36.0757 20.6837 36.3703 20.5578C36.665 20.432 36.9808 20.3672 37.2997 20.3672H48.8083C49.1272 20.3672 49.443 20.432 49.7377 20.5578C50.0323 20.6837 50.3001 20.8682 50.5256 21.1008C50.7511 21.3334 50.93 21.6095 51.052 21.9134C51.1741 22.2173 51.2369 22.543 51.2369 22.8719V29.6244C51.2369 30.2887 50.981 30.9257 50.5256 31.3955C50.0701 31.8652 49.4524 32.1291 48.8083 32.1291ZM37.2997 20.9035C36.7935 20.9035 36.3081 21.1109 35.9501 21.48C35.5922 21.8492 35.3911 22.3498 35.3911 22.8719V29.6244C35.3925 30.146 35.594 30.6458 35.9517 31.0147C36.3093 31.3835 36.7939 31.5913 37.2997 31.5927H48.8083C49.3145 31.5927 49.7999 31.3854 50.1578 31.0162C50.5158 30.6471 50.7169 30.1464 50.7169 29.6244V22.8719C50.7169 22.3498 50.5158 21.8492 50.1578 21.48C49.7999 21.1109 49.3145 20.9035 48.8083 20.9035H37.2997Z" fill="#D1D3D4"></path><path d="M40.4085 29.9448C40.36 29.9464 40.3125 29.9313 40.2732 29.9019C40.2353 29.8787 40.2039 29.8458 40.182 29.8063C40.1601 29.7668 40.1486 29.7221 40.1484 29.6766V22.8276C40.1491 22.7815 40.1609 22.7363 40.1827 22.6961C40.2045 22.6559 40.2356 22.6218 40.2732 22.597C40.3112 22.5744 40.3542 22.5625 40.3981 22.5625C40.4419 22.5625 40.4849 22.5744 40.5229 22.597L47.3563 25.9866C47.4017 26.008 47.4401 26.0423 47.4671 26.0856C47.4941 26.1289 47.5085 26.1792 47.5085 26.2307C47.5085 26.2821 47.4941 26.3325 47.4671 26.3758C47.4401 26.419 47.4017 26.4534 47.3563 26.4747L40.5229 29.8965C40.4887 29.9212 40.4496 29.9377 40.4085 29.9448ZM40.6685 23.2567V29.2476L46.649 26.2548L40.6685 23.2567Z" fill="#D1D3D4"></path><path d="M128.885 74.1465C128.709 74.3972 128.475 74.5983 128.204 74.7311C127.933 74.866 127.636 74.9357 127.336 74.935C127.076 74.9371 126.818 74.888 126.576 74.7901C126.345 74.7007 126.134 74.5659 125.952 74.3933C125.774 74.22 125.631 74.0122 125.531 73.7818C125.426 73.5369 125.373 73.2718 125.375 73.0041C125.373 72.7387 125.425 72.4758 125.526 72.2318C125.624 72.0017 125.766 71.794 125.942 71.6204C126.119 71.4441 126.328 71.304 126.556 71.2074C127.005 71.026 127.503 71.0146 127.96 71.1752C128.168 71.2477 128.362 71.3585 128.532 71.5024C128.701 71.6509 128.839 71.8334 128.937 72.0387C129.044 72.2659 129.098 72.5158 129.093 72.7682C129.097 72.9301 129.075 73.0915 129.026 73.2455C128.992 73.3689 128.938 73.4852 128.865 73.5887C128.807 73.6794 128.733 73.7577 128.646 73.8194C128.569 73.8744 128.485 73.9195 128.397 73.9535C128.321 73.9835 128.243 74.0051 128.163 74.0178C128.099 74.0244 128.034 74.0244 127.97 74.0178C127.862 74.0271 127.755 73.9946 127.668 73.9266C127.612 73.878 127.577 73.8087 127.57 73.7336C127.493 73.8088 127.407 73.8737 127.315 73.9266C127.193 73.9917 127.057 74.0231 126.92 74.0178C126.819 74.0188 126.72 73.9968 126.628 73.9535C126.539 73.9101 126.459 73.848 126.394 73.7711C126.33 73.6901 126.28 73.5974 126.249 73.4976C126.212 73.3834 126.195 73.2638 126.197 73.1436C126.195 72.9941 126.218 72.8454 126.264 72.7038C126.309 72.568 126.376 72.441 126.462 72.3284C126.549 72.2194 126.657 72.13 126.779 72.0656C126.912 71.9992 127.058 71.9661 127.206 71.969C127.32 71.9664 127.434 71.9902 127.538 72.0387C127.632 72.0873 127.706 72.1692 127.746 72.2694L127.788 72.0334H128.261L128.074 73.0578L128.048 73.2026C128.043 73.2543 128.043 73.3064 128.048 73.3581C128.047 73.406 128.055 73.4537 128.074 73.4976C128.087 73.5147 128.103 73.5282 128.122 73.5367C128.142 73.5451 128.163 73.5483 128.183 73.5458C128.24 73.5463 128.295 73.5315 128.345 73.5029C128.401 73.4693 128.447 73.4213 128.48 73.3635C128.525 73.2889 128.558 73.2074 128.579 73.1221C128.643 72.8237 128.622 72.5123 128.516 72.2264C128.457 72.0727 128.365 71.935 128.246 71.8242C128.125 71.7139 127.984 71.6316 127.83 71.5828C127.661 71.5287 127.486 71.5016 127.31 71.5024C127.114 71.5009 126.92 71.5373 126.738 71.6097C126.572 71.6795 126.423 71.7857 126.301 71.9207C126.174 72.0535 126.077 72.2126 126.015 72.3873C125.945 72.5755 125.909 72.7757 125.911 72.9773C125.906 73.1872 125.945 73.3956 126.025 73.5887C126.095 73.7631 126.199 73.9203 126.332 74.05C126.471 74.1762 126.631 74.2744 126.805 74.3396C126.996 74.4055 127.197 74.4381 127.398 74.4362C127.574 74.4371 127.75 74.41 127.918 74.3557C128.073 74.3042 128.217 74.2243 128.345 74.1197L128.885 74.1465ZM127.237 72.4678C127.16 72.4666 127.083 72.4831 127.013 72.5161C126.948 72.5479 126.889 72.5936 126.842 72.6502C126.797 72.712 126.762 72.7808 126.738 72.854C126.716 72.9325 126.706 73.0138 126.706 73.0953C126.704 73.1364 126.704 73.1776 126.706 73.2187C126.712 73.2748 126.728 73.3293 126.753 73.3796C126.783 73.4342 126.826 73.4803 126.878 73.5137C126.949 73.5594 127.033 73.5801 127.117 73.5727C127.2 73.5747 127.282 73.5563 127.356 73.519C127.418 73.482 127.469 73.4305 127.507 73.3688C127.545 73.3062 127.571 73.2372 127.585 73.165C127.593 73.092 127.593 73.0182 127.585 72.9451C127.589 72.8243 127.558 72.7049 127.497 72.6019C127.467 72.5601 127.427 72.5262 127.382 72.5029C127.337 72.4796 127.287 72.4676 127.237 72.4678Z" fill="#D1D3D4"></path></svg>