<svg xmlns="http://www.w3.org/2000/svg" width="24" height="24" viewBox="0 0 24 24" fill="none"><path d="M10.5 9.90776V14.0923C10.5 14.3174 10.6847 14.5 10.9125 14.5C10.9934 14.5 11.0725 14.4765 11.1399 14.4324L14.3149 12.3582C14.505 12.234 14.5572 11.9811 14.4316 11.7932C14.4016 11.7483 14.3628 11.7097 14.3176 11.6797L11.1426 9.5694C10.9536 9.44378 10.6973 9.49339 10.5702 9.68029C10.5244 9.74755 10.5 9.82675 10.5 9.90776Z" stroke="#DDDDDD" stroke-width="1.5" stroke-linecap="round" stroke-linejoin="round"></path><path d="M2 12C2 8.70017 2 7.05025 3.46447 6.02513C4.92893 5 7.28595 5 12 5C16.714 5 19.0711 5 20.5355 6.02513C22 7.05025 22 8.70017 22 12C22 15.2998 22 16.9497 20.5355 17.9749C19.0711 19 16.714 19 12 19C7.28595 19 4.92893 19 3.46447 17.9749C2 16.9497 2 15.2998 2 12Z" stroke="#DDDDDD" stroke-width="1.5" stroke-linecap="round" stroke-linejoin="round"></path></svg>