<?xml version="1.0" encoding="UTF-8"?>
<svg xmlns="http://www.w3.org/2000/svg" width="120" height="40" viewBox="0 0 120 40" fill="none">
  <path d="M44.3436 10.6406H37.7809C37.3319 10.6406 36.9499 10.9669 36.8799 11.4102L34.2256 28.2387C34.1729 28.5707 34.43 28.8701 34.7669 28.8701H37.8999C38.349 28.8701 38.7309 28.5438 38.801 28.0995L39.5168 23.5606C39.5859 23.1163 39.9688 22.7901 40.417 22.7901H42.4945C46.8175 22.7901 49.3124 20.6982 49.964 16.5527C50.2576 14.7391 49.9764 13.3141 49.1272 12.3161C48.1945 11.2202 46.5401 10.6406 44.3436 10.6406ZM45.1007 16.7868C44.7418 19.1417 42.9426 19.1417 41.2029 19.1417H40.2126L40.9073 14.7439C40.9486 14.478 41.1789 14.2823 41.4476 14.2823H41.9014C43.0865 14.2823 44.2045 14.2823 44.7822 14.9578C45.1266 15.3609 45.2322 15.9597 45.1007 16.7868Z" fill="#253B80"></path>
  <path d="M63.9608 16.711H60.8181C60.5504 16.711 60.3191 16.9068 60.2779 17.1726L60.1387 18.0516L59.919 17.733C59.2386 16.7456 57.7215 16.4155 56.2073 16.4155C52.7345 16.4155 49.7684 19.0457 49.1907 22.7354C48.8903 24.5759 49.3174 26.3358 50.3614 27.5631C51.3191 28.6916 52.6894 29.1618 54.3197 29.1618C57.1179 29.1618 58.6696 27.3625 58.6696 27.3625L58.5295 28.2358C58.4767 28.5697 58.7339 28.8691 59.0688 28.8691H61.8996C62.3496 28.8691 62.7296 28.5428 62.8006 28.0985L64.4991 17.3424C64.5529 17.0114 64.2966 16.711 63.9608 16.711ZM59.5802 22.8275C59.277 24.6229 57.852 25.8281 56.0345 25.8281C55.122 25.8281 54.3927 25.5355 53.9244 24.9808C53.4599 24.43 53.2834 23.646 53.4311 22.7728C53.7142 20.9927 55.1632 19.7481 56.9529 19.7481C57.8453 19.7481 58.5707 20.0447 59.0486 20.6041C59.5275 21.1693 59.7175 21.9581 59.5802 22.8275Z" fill="#253B80"></path>
  <path d="M80.698 16.711H77.54C77.2387 16.711 76.9556 16.8607 76.7848 17.1111L72.4292 23.527L70.5829 17.3616C70.4668 16.9758 70.1108 16.711 69.7078 16.711H66.6044C66.2273 16.711 65.9653 17.0795 66.0853 17.4345L69.5638 27.6427L66.2935 32.2593C66.0364 32.623 66.2954 33.123 66.7397 33.123H69.8939C70.1933 33.123 70.4735 32.9771 70.6434 32.7314L81.1471 17.5698C81.3985 17.2071 81.1404 16.711 80.698 16.711Z" fill="#253B80"></path>
  <path d="M91.1522 10.6416H84.5886C84.1404 10.6416 83.7585 10.9679 83.6885 11.4112L81.0342 28.2397C80.9815 28.5717 81.2386 28.8711 81.5735 28.8711H84.9417C85.2545 28.8711 85.5223 28.6427 85.5712 28.3318L86.3245 23.5616C86.3936 23.1174 86.7765 22.7911 87.2246 22.7911H89.3012C93.6251 22.7911 96.1191 20.6992 96.7716 16.5537C97.0662 14.7401 96.7831 13.3151 95.9339 12.3171C95.0021 11.2212 93.3487 10.6416 91.1522 10.6416ZM91.9093 16.7879C91.5514 19.1427 89.7522 19.1427 88.0115 19.1427H87.0221L87.7178 14.7449C87.7591 14.4791 87.9875 14.2833 88.2571 14.2833H88.711C89.8951 14.2833 91.014 14.2833 91.5917 14.9589C91.9362 15.3619 92.0408 15.9607 91.9093 16.7879Z" fill="#179BD7"></path>
  <path d="M110.768 16.712H107.628C107.358 16.712 107.129 16.9078 107.088 17.1736L106.949 18.0526L106.728 17.734C106.048 16.7466 104.532 16.4165 103.018 16.4165C99.5449 16.4165 96.5797 19.0467 96.0021 22.7364C95.7027 24.5769 96.1278 26.3368 97.1718 27.5641C98.1314 28.6926 99.4998 29.1628 101.13 29.1628C103.928 29.1628 105.48 27.3636 105.48 27.3636L105.34 28.2368C105.287 28.5707 105.544 28.8701 105.881 28.8701H108.711C109.159 28.8701 109.541 28.5439 109.611 28.0996L111.311 17.3435C111.362 17.0124 111.105 16.712 110.768 16.712ZM106.388 22.8285C106.086 24.6239 104.66 25.8292 102.842 25.8292C101.931 25.8292 101.2 25.5365 100.732 24.9818C100.267 24.431 100.093 23.647 100.239 22.7738C100.524 20.9938 101.971 19.7492 103.76 19.7492C104.653 19.7492 105.378 20.0457 105.856 20.6051C106.337 21.1703 106.527 21.9591 106.388 22.8285Z" fill="#179BD7"></path>
  <path d="M114.473 11.1032L111.78 28.2396C111.727 28.5716 111.984 28.871 112.319 28.871H115.027C115.477 28.871 115.859 28.5448 115.928 28.1005L118.584 11.273C118.637 10.941 118.38 10.6406 118.045 10.6406H115.013C114.745 10.6416 114.515 10.8373 114.473 11.1032Z" fill="#179BD7"></path>
  <path d="M6.97382 32.1419L7.47569 28.9541L6.35776 28.9282H1.01953L4.72933 5.40561C4.74084 5.3346 4.77827 5.26839 4.83297 5.22137C4.88766 5.17435 4.95771 5.14844 5.03064 5.14844H14.0317C17.0198 5.14844 19.082 5.77026 20.1587 6.99758C20.6634 7.57334 20.9849 8.175 21.1403 8.83712C21.3035 9.53187 21.3063 10.3619 21.1471 11.3743L21.1355 11.4482V12.0969L21.6403 12.3828C22.0654 12.6083 22.4032 12.8665 22.6623 13.162C23.0941 13.6543 23.3733 14.28 23.4913 15.0217C23.6132 15.7846 23.5729 16.6924 23.3733 17.7201C23.143 18.9023 22.7707 19.932 22.2679 20.7745C21.8053 21.5508 21.2161 22.1947 20.5166 22.6937C19.8487 23.1677 19.0551 23.5276 18.1579 23.7579C17.2885 23.9843 16.2973 24.0985 15.21 24.0985H14.5095C14.0086 24.0985 13.5221 24.2789 13.1402 24.6023C12.7573 24.9324 12.504 25.3834 12.4262 25.8767L12.3735 26.1636L11.4868 31.782L11.4465 31.9883C11.4359 32.0536 11.4177 32.0862 11.3908 32.1083C11.3669 32.1284 11.3323 32.1419 11.2987 32.1419H6.97382Z" fill="#253B80"></path>
  <path d="M22.116 11.5234C22.0891 11.6952 22.0584 11.8708 22.0238 12.0512C20.8368 18.1456 16.7758 20.251 11.5892 20.251H8.94839C8.3141 20.251 7.7796 20.7116 7.68077 21.3372L6.3287 29.9122L5.94582 32.3428C5.88152 32.7535 6.19819 33.1239 6.61274 33.1239H11.2965C11.8512 33.1239 12.3223 32.7209 12.4097 32.1739L12.4557 31.936L13.3376 26.3396L13.3942 26.0325C13.4806 25.4836 13.9527 25.0806 14.5073 25.0806H15.2078C19.7458 25.0806 23.2982 23.2382 24.3365 17.9067C24.7702 15.6794 24.5457 13.8198 23.398 12.5118C23.0506 12.1174 22.6198 11.7902 22.116 11.5234Z" fill="#179BD7"></path>
  <path d="M20.8732 11.0276C20.6918 10.9748 20.5047 10.9269 20.3128 10.8837C20.1199 10.8415 19.9222 10.804 19.7188 10.7714C19.0068 10.6563 18.2266 10.6016 17.3908 10.6016H10.3358C10.1622 10.6016 9.99711 10.6409 9.84933 10.7119C9.52403 10.8683 9.28221 11.1764 9.22368 11.5535L7.72287 21.0592L7.67969 21.3366C7.77853 20.7109 8.31302 20.2503 8.94731 20.2503H11.5881C16.7747 20.2503 20.8357 18.144 22.0228 12.0506C22.0583 11.8701 22.088 11.6945 22.1149 11.5228C21.8145 11.3635 21.4892 11.2272 21.139 11.1111C21.0526 11.0823 20.9634 11.0545 20.8732 11.0276Z" fill="#222D65"></path>
  <path d="M9.22554 11.552C9.28408 11.1749 9.5259 10.8668 9.8512 10.7114C9.99994 10.6404 10.164 10.601 10.3377 10.601H17.3927C18.2285 10.601 19.0086 10.6557 19.7206 10.7709C19.9241 10.8035 20.1218 10.8409 20.3146 10.8832C20.5066 10.9263 20.6937 10.9743 20.875 11.0271C20.9652 11.054 21.0545 11.0818 21.1418 11.1096C21.4921 11.2257 21.8174 11.363 22.1177 11.5213C22.4708 9.26911 22.1148 7.73568 20.8971 6.34714C19.5546 4.81851 17.1317 4.16406 14.0312 4.16406H5.03019C4.39686 4.16406 3.85661 4.62467 3.75873 5.25128L0.00958523 29.0157C-0.0643037 29.4859 0.298424 29.91 0.772464 29.91H6.32948L7.72474 21.0577L9.22554 11.552Z" fill="#253B80"></path>
</svg>
