<svg xmlns="http://www.w3.org/2000/svg" width="103" height="40" viewBox="0 0 103 40" fill="none"><g clip-path="url(#clip0_4330_38147)"><path d="M54.2712 11.711C54.2712 12.9122 53.3422 13.8798 52.1891 13.8798C51.0359 13.8798 50.107 12.9122 50.107 11.711C50.107 10.5098 51.0039 9.54214 52.1891 9.54214C53.3743 9.57551 54.2712 10.5431 54.2712 11.711ZM45.6866 16.082C45.6866 16.2822 45.6866 16.6159 45.6866 16.6159C45.6866 16.6159 44.6936 15.2812 42.5795 15.2812C39.088 15.2812 36.3653 18.0507 36.3653 21.8878C36.3653 25.6916 39.056 28.4944 42.5795 28.4944C44.7256 28.4944 45.6866 27.1264 45.6866 27.1264V27.6936C45.6866 27.9606 45.8788 28.1608 46.135 28.1608H48.7296V15.6149C48.7296 15.6149 46.3593 15.6149 46.135 15.6149C45.8788 15.6149 45.6866 15.8485 45.6866 16.082ZM45.6866 24.1234C45.2061 24.8575 44.2451 25.4914 43.092 25.4914C41.0419 25.4914 39.4724 24.1568 39.4724 21.8878C39.4724 19.6189 41.0419 18.2842 43.092 18.2842C44.2131 18.2842 45.2381 18.9516 45.6866 19.6523V24.1234ZM50.6515 15.6149H53.7266V28.1608H50.6515V15.6149ZM96.5855 15.2812C94.4714 15.2812 93.4784 16.6159 93.4784 16.6159V9.57551H90.4033V28.1608C90.4033 28.1608 92.7737 28.1608 92.9979 28.1608C93.2541 28.1608 93.4463 27.9272 93.4463 27.6936V27.1264C93.4463 27.1264 94.4393 28.4944 96.5534 28.4944C100.045 28.4944 102.768 25.6916 102.768 21.8878C102.768 18.084 100.045 15.2812 96.5855 15.2812ZM96.073 25.4581C94.8878 25.4581 93.9588 24.8241 93.4784 24.09V19.6189C93.9588 18.9516 94.9839 18.2509 96.073 18.2509C98.123 18.2509 99.6926 19.5855 99.6926 21.8545C99.6926 24.1234 98.123 25.4581 96.073 25.4581ZM88.8017 20.72V28.1941H85.7266V21.087C85.7266 19.0183 85.086 18.1841 83.3562 18.1841C82.4273 18.1841 81.4664 18.6846 80.8577 19.4187V28.1608H77.7827V15.6149H80.2171C80.4734 15.6149 80.6656 15.8485 80.6656 16.082V16.6159C81.5625 15.6482 82.7476 15.2812 83.9328 15.2812C85.2782 15.2812 86.3993 15.6816 87.2962 16.4824C88.3853 17.4167 88.8017 18.6179 88.8017 20.72ZM70.3192 15.2812C68.2051 15.2812 67.2121 16.6159 67.2121 16.6159V9.57551H64.137V28.1608C64.137 28.1608 66.5074 28.1608 66.7316 28.1608C66.9879 28.1608 67.1801 27.9272 67.1801 27.6936V27.1264C67.1801 27.1264 68.1731 28.4944 70.2872 28.4944C73.7787 28.4944 76.5014 25.6916 76.5014 21.8878C76.5334 18.084 73.8107 15.2812 70.3192 15.2812ZM69.8067 25.4581C68.6215 25.4581 67.6926 24.8241 67.2121 24.09V19.6189C67.6926 18.9516 68.7176 18.2509 69.8067 18.2509C71.8567 18.2509 73.4263 19.5855 73.4263 21.8545C73.4263 24.1234 71.8567 25.4581 69.8067 25.4581ZM61.4784 15.2812C62.4073 15.2812 62.8878 15.448 62.8878 15.448V18.4177C62.8878 18.4177 60.3252 17.5168 58.7236 19.4187V28.1941H55.6485V15.6149C55.6485 15.6149 58.0189 15.6149 58.2431 15.6149C58.4994 15.6149 58.6916 15.8485 58.6916 16.082V16.6159C59.2682 15.9152 60.5174 15.2812 61.4784 15.2812ZM29.5424 27.0263C29.3823 26.6259 29.2221 26.1921 29.062 25.8251C28.8057 25.2245 28.5494 24.6573 28.3252 24.1234L28.2932 24.09C26.083 19.085 23.7126 14.0133 21.2141 9.00828L21.118 8.80808C20.8618 8.30758 20.6055 7.77371 20.3493 7.23984C20.0289 6.63924 19.7086 6.00527 19.1961 5.40467C18.1711 4.07 16.6976 3.33594 15.128 3.33594C13.5264 3.33594 12.085 4.07 11.0279 5.33794C10.5475 5.93854 10.1951 6.57251 9.87478 7.17311C9.61852 7.70698 9.36227 8.24084 9.10601 8.74134L9.00991 8.94154C6.54345 13.9465 4.14105 19.0183 1.93084 24.0233L1.8988 24.09C1.67458 24.6239 1.41832 25.1911 1.16207 25.7917C1.00191 26.1588 0.841747 26.5592 0.681586 26.9929C0.26517 28.2275 0.137042 29.3953 0.297202 30.5965C0.649554 33.099 2.25116 35.2011 4.46137 36.1354C5.2942 36.5024 6.15906 36.6693 7.05596 36.6693C7.31222 36.6693 7.63254 36.6359 7.88879 36.6025C8.94585 36.4691 10.0349 36.102 11.092 35.4681C12.4053 34.7006 13.6546 33.5995 15.064 31.9979C16.4734 33.5995 17.7547 34.7006 19.0359 35.4681C20.093 36.102 21.1821 36.4691 22.2391 36.6025C22.4954 36.6359 22.8157 36.6693 23.072 36.6693C23.9689 36.6693 24.8658 36.5024 25.6666 36.1354C27.9088 35.2011 29.4784 33.0657 29.8307 30.5965C30.087 29.4287 29.9589 28.2609 29.5424 27.0263ZM15.096 28.7614C13.3663 26.4924 12.2451 24.357 11.8608 22.5552C11.7006 21.7877 11.6686 21.1204 11.7647 20.5198C11.8287 19.9859 12.0209 19.5188 12.2772 19.1184C12.8858 18.2175 13.9108 17.6503 15.096 17.6503C16.2812 17.6503 17.3382 18.1841 17.9148 19.1184C18.1711 19.5188 18.3633 19.9859 18.4273 20.5198C18.5234 21.1204 18.4914 21.8211 18.3312 22.5552C17.9468 24.3236 16.8257 26.4591 15.096 28.7614ZM27.8768 30.3296C27.6526 32.0647 26.5314 33.5662 24.9619 34.2335C24.1931 34.5672 23.3603 34.6673 22.5274 34.5672C21.7266 34.4671 20.9258 34.2001 20.093 33.6996C18.9398 33.0323 17.7867 31.9979 16.4413 30.4631C18.5555 27.7604 19.8367 25.2912 20.3172 23.089C20.5414 22.0547 20.5735 21.1204 20.4774 20.2529C20.3493 19.4187 20.061 18.6513 19.6125 17.9839C18.6195 16.4824 16.9539 15.6149 15.096 15.6149C13.2381 15.6149 11.5725 16.5158 10.5795 17.9839C10.131 18.6513 9.84275 19.4187 9.71462 20.2529C9.58649 21.1204 9.61852 22.088 9.87478 23.089C10.3553 25.2912 11.6686 27.7937 13.7507 30.4964C12.4373 32.0313 11.2522 33.0657 10.099 33.733C9.26617 34.2335 8.46537 34.5004 7.66457 34.6005C6.7997 34.7006 5.96687 34.5672 5.23013 34.2669C3.66056 33.5995 2.53944 32.098 2.31522 30.363C2.21912 29.5288 2.28319 28.6946 2.60351 27.7604C2.6996 27.4267 2.85976 27.093 3.01992 26.6926C3.24415 26.1588 3.5004 25.5915 3.75666 25.0243L3.78869 24.9576C5.9989 19.9859 8.36927 14.9142 10.8357 9.97591L10.9318 9.77571C11.1881 9.27521 11.4443 8.74134 11.7006 8.24084C11.9569 7.70698 12.2451 7.20647 12.5975 6.77271C13.2702 5.97191 14.1671 5.53814 15.1601 5.53814C16.1531 5.53814 17.05 5.97191 17.7226 6.77271C18.075 7.20647 18.3633 7.70698 18.6195 8.24084C18.8758 8.74134 19.132 9.27521 19.3883 9.77571L19.4844 9.97591C21.9188 14.9475 24.2892 20.0193 26.4994 24.9909V25.0243C26.7557 25.5582 26.9799 26.1588 27.2361 26.6926C27.3963 27.093 27.5565 27.4267 27.6525 27.7604C27.9088 28.6279 28.0049 29.4621 27.8768 30.3296Z" fill="#FF5A5F"></path></g><defs><clipPath id="clip0_4330_38147"><rect width="102.4" height="40" fill="white" transform="translate(0.234375)"></rect></clipPath></defs></svg>