<svg xmlns="http://www.w3.org/2000/svg" width="132" height="40" viewBox="0 0 132 40" fill="none"><g clip-path="url(#clip0_4330_38150)"><path d="M36.6719 11.6788H42.7696C46.657 11.6788 49.8684 14.0218 49.8684 19.3714V20.4955C49.8684 25.8857 46.8651 28.3099 42.8866 28.3099H36.6719V11.6788ZM40.0783 14.6989V25.2762H42.6916C44.9018 25.2762 46.384 23.7729 46.384 20.4277V19.5474C46.384 16.2022 44.8238 14.6989 42.5746 14.6989H40.0783ZM51.6756 14.8615H54.4059L54.848 17.99C55.3681 15.8637 56.6942 14.726 59.0995 14.726H59.9446V18.315H58.5404C55.7711 18.315 55.095 19.3172 55.095 22.1613V28.3505H51.7276V14.8615H51.6756ZM60.6207 21.8769V21.4977C60.6207 16.9878 63.39 14.5229 67.1604 14.5229C71.0089 14.5229 73.7002 16.9878 73.7002 21.4977V21.8769C73.7002 26.3055 71.0869 28.6891 67.1604 28.6891C62.987 28.6485 60.6207 26.3191 60.6207 21.8769ZM70.2548 21.8362V21.4977C70.2548 18.9922 69.0457 17.4889 67.1214 17.4889C65.2362 17.4889 63.9881 18.8703 63.9881 21.4977V21.8362C63.9881 24.2605 65.1972 25.6419 67.1214 25.6419C69.0457 25.6013 70.2548 24.2605 70.2548 21.8362ZM75.4684 14.8615H78.2767L78.6018 17.4076C79.2779 15.7011 80.721 14.5229 82.8533 14.5229C86.1427 14.5229 88.3139 16.9878 88.3139 21.5518V21.931C88.3139 26.3597 85.9086 28.7027 82.8533 28.7027C80.812 28.7027 79.4079 27.7411 78.7188 26.1972V33.0094H75.4294L75.4684 14.8615ZM84.8945 21.8362V21.5383C84.8945 18.8567 83.5684 17.5295 81.8002 17.5295C79.9149 17.5295 78.6668 19.0328 78.6668 21.5383V21.7956C78.6668 24.1792 79.8759 25.6825 81.7612 25.6825C83.6984 25.6419 84.8945 24.3553 84.8945 21.8362ZM93.2935 25.8586L93.0075 28.3235H90.1211V10.3516H93.4105V17.2451C94.1386 15.4845 95.5818 14.5229 97.623 14.5229C100.717 14.5635 103.006 16.7846 103.006 21.2539V21.6737C103.006 26.143 100.834 28.7027 97.545 28.7027C95.3738 28.6485 93.9696 27.6057 93.2935 25.8586ZM99.5472 21.6737V21.3351C99.5472 18.8703 98.2601 17.4889 96.4529 17.4889C94.6067 17.4889 93.3195 19.0328 93.3195 21.3758V21.6737C93.3195 24.1792 94.5677 25.6419 96.4139 25.6419C98.3901 25.6419 99.5472 24.3553 99.5472 21.6737ZM104.449 21.8769V21.4977C104.449 16.9878 107.218 14.5229 110.989 14.5229C114.837 14.5229 117.528 16.9878 117.528 21.4977V21.8769C117.528 26.3055 114.876 28.6891 110.989 28.6891C106.815 28.6485 104.449 26.3191 104.449 21.8769ZM114.109 21.8362V21.4977C114.109 18.9922 112.9 17.4889 110.976 17.4889C109.09 17.4889 107.842 18.8703 107.842 21.4977V21.8362C107.842 24.2605 109.051 25.6419 110.976 25.6419C112.913 25.6013 114.109 24.2605 114.109 21.8362ZM121.936 21.3351L117.398 14.8615H121.286L123.899 18.9109L126.551 14.8615H130.4L125.797 21.2945L130.647 28.3235H126.837L123.873 23.8542L120.987 28.3235H117.008L121.936 21.3351Z" fill="black"></path><path d="M15.7146 11.6751L8.1737 16.6861L15.7146 21.6971L8.1737 26.7081L0.632812 21.67L8.1737 16.659L0.632812 11.6751L8.1737 6.66406L15.7146 11.6751ZM8.13469 28.3197L15.6756 23.3087L23.2165 28.3197L15.6756 33.3307L8.13469 28.3197ZM15.7146 21.67L23.2555 16.659L15.7146 11.6751L23.2165 6.66406L30.7573 11.6751L23.2165 16.6861L30.7573 21.6971L23.2165 26.7081L15.7146 21.67Z" fill="#0061FF"></path></g><defs><clipPath id="clip0_4330_38150"><rect width="130.4" height="40" fill="white" transform="translate(0.632812)"></rect></clipPath></defs></svg>