<svg xmlns="http://www.w3.org/2000/svg" width="111" height="40" viewBox="0 0 111 40" fill="none"><g clip-path="url(#clip0_4330_38154)"><path d="M12.2271 5H0.03125V34.1667L12.2271 5Z" fill="#FA0C00"></path><path d="M20.8086 5H32.9885V34.1667L20.8086 5Z" fill="#FA0C00"></path><path d="M16.5187 15.75L24.2811 34.1669H19.1883L16.8683 28.3033H11.1875L16.5187 15.75Z" fill="#FA0C00"></path><path d="M52.8824 23.5513L54.3205 27.6749C54.3682 27.7782 54.4397 27.8258 54.5668 27.8258H57.3317C57.4827 27.8258 57.5065 27.7543 57.4827 27.6034L51.7701 11.7369C51.7463 11.6098 51.7224 11.5859 51.5953 11.5859H48.163C48.0677 11.5859 48.0121 11.6574 48.0121 11.7607C47.9644 12.595 47.8929 12.8492 47.7896 13.0955L42.6967 27.5795C42.6729 27.7543 42.7285 27.8258 42.8715 27.8258H45.3425C45.4934 27.8258 45.5649 27.7782 45.6206 27.6272L46.9792 23.5513H52.8824ZM47.7658 20.8579C48.5126 18.6015 49.4978 15.7095 49.8951 14.0569H49.9189C50.4115 15.7889 51.5715 19.2212 52.0959 20.8579H47.7658Z" fill="#FA0C00"></path><path d="M64.8283 28.0714C66.314 28.0714 67.8951 27.8012 69.5 27.11C69.6271 27.0623 69.651 27.0067 69.651 26.8876C69.6033 26.4426 69.5477 25.7991 69.5477 25.3065V10.3696C69.5477 10.2742 69.5477 10.2266 69.4285 10.2266H66.7351C66.6318 10.2266 66.5841 10.2742 66.5841 10.4014V15.4624C66.163 15.4147 65.8691 15.3909 65.5195 15.3909C61.1735 15.3909 58.5039 18.2591 58.5039 21.8424C58.5039 25.9977 61.245 28.0714 64.8283 28.0714ZM66.5841 25.3065C66.1392 25.4495 65.6466 25.5051 65.1461 25.5051C63.1757 25.5051 61.5628 24.3928 61.5628 21.6914C61.5628 19.2999 63.2233 17.8857 65.4241 17.8857C65.8691 17.8857 66.2584 17.9334 66.5841 18.0605V25.3065Z" fill="#FA0C00"></path><path d="M78.2448 15.3906C74.5344 15.3906 72.2383 18.235 72.2383 21.7468C72.2383 24.8851 74.0657 28.0711 78.1892 28.0711C81.6771 28.0711 84.1242 25.5048 84.1242 21.6673C84.1242 18.2827 82.0505 15.3906 78.2448 15.3906ZM78.0939 17.8854C80.1914 17.8854 81.0812 19.689 81.0812 21.7468C81.0812 24.2892 79.7703 25.5525 78.2448 25.5525C76.3618 25.5525 75.2495 23.9714 75.2495 21.6911C75.2495 19.3473 76.4333 17.8854 78.0939 17.8854Z" fill="#FA0C00"></path><path d="M86.9092 10.2266C86.8059 10.2266 86.7344 10.2742 86.7344 10.4014V27.3086C86.7344 27.3802 86.8059 27.5073 86.9092 27.5311C88.093 27.8966 89.3324 28.0714 90.6116 28.0714C94.2743 28.0714 97.8337 25.7991 97.8337 21.2227C97.8337 17.9095 95.5614 15.3909 92.002 15.3909C91.1837 15.3909 90.4209 15.518 89.7535 15.7405L89.7217 10.4252C89.7217 10.2504 89.6741 10.2266 89.4993 10.2266H86.9092ZM94.7908 21.5246C94.7908 24.2657 92.9157 25.5528 90.8897 25.5528C90.4686 25.5528 90.0952 25.5289 89.7535 25.4256V18.2114C90.1428 18.0605 90.6116 17.9334 91.4776 17.9334C93.4321 17.9334 94.7908 19.1728 94.7908 21.5246Z" fill="#FA0C00"></path><path d="M107.884 22.4141C109.092 22.4141 110.085 22.3903 110.427 22.3109C110.554 22.287 110.601 22.2394 110.625 22.1361C110.697 21.8659 110.728 21.3018 110.728 20.6106C110.728 18.2588 109.314 15.3906 105.659 15.3906C101.925 15.3906 99.8516 18.4336 99.8516 21.8659C99.8516 24.9089 101.456 28.0711 105.953 28.0711C107.638 28.0711 108.726 27.801 109.664 27.356C109.759 27.3084 109.807 27.2289 109.807 27.0859V25.0281C109.807 24.9089 109.735 24.8851 109.664 24.9328C108.726 25.33 107.709 25.5286 106.597 25.5286C104.078 25.5286 102.934 24.1382 102.863 22.4141H107.884ZM102.863 20.2848C103.061 19.0772 103.824 17.7662 105.532 17.7662C107.415 17.7662 107.908 19.3473 107.908 20.0624C107.908 20.0862 107.908 20.1895 107.908 20.261C107.805 20.2848 107.487 20.2848 106.549 20.2848H102.863Z" fill="#FA0C00"></path></g><defs><clipPath id="clip0_4330_38154"><rect width="110.833" height="40" fill="white" transform="translate(0.03125)"></rect></clipPath></defs></svg>