<?xml version="1.0" encoding="UTF-8"?>
<svg xmlns="http://www.w3.org/2000/svg" width="137" height="40" viewBox="0 0 137 40" fill="none">
  <g clip-path="url(#clip0_4002_42644)">
    <path d="M136.718 18.1928V15.7914H133.736V12.0581L133.635 12.089L130.834 12.946L130.779 12.9628V15.7915H126.358V14.2157C126.358 13.4819 126.522 12.9204 126.846 12.5459C127.167 12.1759 127.626 11.9878 128.212 11.9878C128.633 11.9878 129.069 12.087 129.508 12.2826L129.618 12.3318V9.80277L129.566 9.78375C129.157 9.6366 128.6 9.5625 127.91 9.5625C127.04 9.5625 126.25 9.75179 125.56 10.1269C124.871 10.5026 124.328 11.0389 123.948 11.7207C123.57 12.4018 123.377 13.1884 123.377 14.0589V15.7914H121.301V18.1928H123.377V28.3095H126.358V18.1928H130.779V24.6218C130.779 27.2695 132.028 28.6113 134.491 28.6113C134.896 28.6113 135.322 28.5639 135.757 28.471C136.2 28.3756 136.501 28.2804 136.679 28.1787L136.718 28.1554V25.7318L136.597 25.812C136.435 25.9198 136.233 26.0079 135.997 26.0734C135.76 26.1401 135.562 26.1736 135.408 26.1736C134.831 26.1736 134.405 26.0181 134.14 25.7112C133.872 25.4016 133.736 24.8602 133.736 24.1028V18.1928H136.718ZM114.644 26.1739C113.562 26.1739 112.709 25.8152 112.108 25.1085C111.503 24.3983 111.197 23.3856 111.197 22.0991C111.197 20.7717 111.503 19.7328 112.108 19.01C112.71 18.292 113.555 17.9275 114.62 17.9275C115.653 17.9275 116.476 18.2756 117.066 18.9626C117.658 19.6532 117.958 20.6837 117.958 22.0266C117.958 23.3859 117.676 24.4301 117.118 25.1286C116.565 25.8218 115.732 26.1739 114.644 26.1739ZM114.777 15.4898C112.712 15.4898 111.073 16.0946 109.904 17.2876C108.736 18.4806 108.143 20.1316 108.143 22.1951C108.143 24.1551 108.721 25.7316 109.862 26.8801C111.002 28.029 112.554 28.611 114.475 28.611C116.476 28.611 118.082 27.9977 119.251 26.7883C120.419 25.5802 121.011 23.9448 121.011 21.9295C121.011 19.9389 120.456 18.3506 119.36 17.2098C118.263 16.0684 116.721 15.4898 114.777 15.4898ZM103.337 15.4898C101.933 15.4898 100.772 15.849 99.8844 16.5571C98.9917 17.2695 98.5389 18.2037 98.5389 19.3343C98.5389 19.922 98.6367 20.444 98.829 20.8868C99.0225 21.331 99.3219 21.7221 99.7198 22.0503C100.115 22.3759 100.724 22.717 101.532 23.064C102.211 23.3434 102.717 23.5797 103.039 23.7659C103.353 23.9485 103.576 24.132 103.702 24.3107C103.825 24.4856 103.887 24.7249 103.887 25.0203C103.887 25.8613 103.257 26.2705 101.961 26.2705C101.48 26.2705 100.932 26.1701 100.331 25.9722C99.7349 25.7774 99.172 25.492 98.6624 25.1261L98.5386 25.0373V27.9072L98.5841 27.9284C99.0058 28.1231 99.5376 28.2873 100.164 28.4165C100.79 28.5458 101.358 28.6115 101.852 28.6115C103.376 28.6115 104.603 28.2507 105.498 27.5383C106.399 26.8211 106.856 25.8647 106.856 24.6951C106.856 23.8513 106.61 23.1277 106.125 22.5441C105.644 21.9653 104.809 21.4339 103.644 20.9642C102.716 20.5917 102.121 20.2824 101.876 20.0451C101.64 19.8158 101.52 19.4915 101.52 19.0808C101.52 18.7168 101.668 18.4251 101.972 18.1889C102.279 17.9516 102.705 17.8308 103.241 17.8308C103.737 17.8308 104.245 17.9093 104.751 18.0631C105.256 18.2168 105.699 18.4227 106.07 18.6746L106.191 18.7579V16.0355L106.145 16.0154C105.803 15.8689 105.353 15.7435 104.806 15.6418C104.261 15.5408 103.767 15.4898 103.337 15.4898ZM90.7679 26.1739C89.6862 26.1739 88.8329 25.8152 88.2319 25.1085C87.6269 24.3983 87.321 23.3859 87.321 22.0991C87.321 20.7717 87.6273 19.7328 88.2325 19.01C88.8336 18.292 89.6783 17.9275 90.744 17.9275C91.7772 17.9275 92.6 18.2756 93.1895 18.9626C93.7819 19.6532 94.0824 20.6837 94.0824 22.0266C94.0824 23.3859 93.7996 24.4301 93.2422 25.1286C92.6886 25.8218 91.8566 26.1739 90.7679 26.1739ZM90.9008 15.4898C88.8361 15.4898 87.1964 16.0946 86.0281 17.2876C84.8599 18.4806 84.2672 20.1316 84.2672 22.1951C84.2672 24.1559 84.8457 25.7316 85.9862 26.8801C87.1267 28.029 88.6786 28.611 90.5988 28.611C92.5995 28.611 94.2067 27.9977 95.3752 26.7883C96.5433 25.5802 97.1354 23.9448 97.1354 21.9295C97.1354 19.9389 96.5799 18.3506 95.4837 17.2098C94.3869 16.0684 92.8449 15.4898 90.9008 15.4898ZM79.7423 17.9592V15.7914H76.7977V28.3092H79.7423V21.9058C79.7423 20.817 79.9892 19.9225 80.4763 19.2469C80.9573 18.5793 81.5982 18.241 82.3807 18.241C82.6459 18.241 82.9436 18.2847 83.2661 18.3712C83.5852 18.4572 83.8164 18.5506 83.9527 18.6489L84.0765 18.7386V15.77L84.0288 15.7495C83.7545 15.633 83.3666 15.5742 82.8757 15.5742C82.1358 15.5742 81.4736 15.812 80.9064 16.2801C80.4086 16.6916 80.0488 17.2557 79.7736 17.9592H79.7423ZM71.5246 15.4898C70.1737 15.4898 68.9687 15.7795 67.9439 16.3505C66.9168 16.9229 66.1226 17.74 65.5822 18.779C65.0442 19.8155 64.771 21.0262 64.771 22.3765C64.771 23.5592 65.0359 24.6446 65.5594 25.6012C66.0831 26.5594 66.8244 27.309 67.7628 27.8289C68.6998 28.3482 69.7828 28.6114 70.9819 28.6114C72.3813 28.6114 73.5761 28.3316 74.534 27.7799L74.5727 27.7577V25.06L74.4489 25.1504C74.015 25.4665 73.5301 25.7188 73.0083 25.9005C72.4879 26.0821 72.0134 26.1739 71.5973 26.1739C70.4419 26.1739 69.5144 25.8124 68.8411 25.0997C68.1664 24.386 67.8243 23.3838 67.8243 22.1227C67.8243 20.8537 68.1811 19.8258 68.8842 19.0673C69.5852 18.3111 70.5145 17.9275 71.6459 17.9275C72.6138 17.9275 73.5569 18.2552 74.4492 18.9025L74.5727 18.9922V16.1497L74.5328 16.1273C74.197 15.9393 73.7391 15.7841 73.1705 15.6664C72.6044 15.549 72.0507 15.4898 71.5246 15.4898ZM62.7431 15.7915H59.7985V28.3092H62.7431V15.7915ZM61.3009 10.4589C60.8162 10.4589 60.3936 10.6238 60.0463 10.9508C59.6976 11.2786 59.5207 11.6914 59.5207 12.1786C59.5207 12.658 59.6955 13.0633 60.0409 13.3824C60.384 13.7006 60.8081 13.8619 61.301 13.8619C61.7939 13.8619 62.2194 13.7006 62.5667 13.383C62.9162 13.0633 63.0935 12.6582 63.0935 12.1786C63.0935 11.7084 62.921 11.2999 62.5811 10.964C62.2415 10.6287 61.8106 10.4589 61.3009 10.4589ZM53.954 14.8679V28.3092H56.9591V10.8421H52.7999L47.5134 23.8161L42.3832 10.8421H38.0547V28.3091H40.8786V14.8666H40.9756L46.393 28.3092H48.5242L53.8571 14.8679H53.954Z" fill="#706D6E"></path>
    <path d="M14.02 18.8599H0.167969V5.00781H14.02V18.8599Z" fill="#F1511B"></path>
    <path d="M29.3128 18.8599H15.4609V5.00781H29.3128V18.8599Z" fill="#80CC28"></path>
    <path d="M14.0196 34.1566H0.167969V20.3047H14.0196V34.1566Z" fill="#00ADEF"></path>
    <path d="M29.3128 34.1566H15.4609V20.3047H29.3128V34.1566Z" fill="#FBBC09"></path>
  </g>
  <defs>
    <clipPath id="clip0_4002_42644">
      <rect width="136.667" height="40" fill="white" transform="translate(0.167969)"></rect>
    </clipPath>
  </defs>
</svg>
