<svg xmlns="http://www.w3.org/2000/svg" width="65" height="40" viewBox="0 0 65 40" fill="none"><g clip-path="url(#clip0_4330_38132)"><path fill-rule="evenodd" clip-rule="evenodd" d="M64.2805 21.5137C64.2805 16.8141 62.0952 13.1058 57.9185 13.1058C53.7241 13.1058 51.1863 16.8141 51.1863 21.477C51.1863 27.0026 54.1823 29.793 58.4824 29.793C60.5796 29.793 62.1657 29.2974 63.3641 28.5998V24.9282C62.1657 25.5524 60.7911 25.9379 59.0464 25.9379C57.3369 25.9379 55.8213 25.3137 55.6274 23.1475H64.2453C64.2453 22.9089 64.2805 21.9543 64.2805 21.5137ZM55.5745 19.7697C55.5745 17.6952 56.7906 16.8324 57.9008 16.8324C58.9759 16.8324 60.1214 17.6952 60.1214 19.7697H55.5745Z" fill="#635BFF"></path><path fill-rule="evenodd" clip-rule="evenodd" d="M44.3835 13.1058C42.6564 13.1058 41.5461 13.9502 40.9293 14.5377L40.7002 13.3995H36.823V34.8047L41.2289 33.8317L41.2465 28.6365C41.881 29.1138 42.815 29.793 44.3659 29.793C47.5205 29.793 50.3931 27.1495 50.3931 21.3301C50.3755 16.0063 47.4676 13.1058 44.3835 13.1058ZM43.3261 25.7543C42.2863 25.7543 41.6695 25.3688 41.2465 24.8915L41.2289 18.0807C41.6871 17.5484 42.3216 17.1812 43.3261 17.1812C44.9298 17.1812 46.0401 19.0537 46.0401 21.4586C46.0401 23.9185 44.9475 25.7543 43.3261 25.7543Z" fill="#635BFF"></path><path fill-rule="evenodd" clip-rule="evenodd" d="M30.7605 12.0226L35.184 11.0313V7.30469L30.7605 8.27765V12.0226Z" fill="#635BFF"></path><path d="M35.184 13.4178H30.7605V29.4809H35.184V13.4178Z" fill="#635BFF"></path><path fill-rule="evenodd" clip-rule="evenodd" d="M26.0196 14.7763L25.7376 13.4178H21.9309V29.4809H26.3368V18.5947C27.3766 17.1812 29.1389 17.4382 29.6853 17.6401V13.4178C29.1213 13.1975 27.0594 12.7937 26.0196 14.7763Z" fill="#635BFF"></path><path fill-rule="evenodd" clip-rule="evenodd" d="M17.208 9.43417L12.9078 10.3888L12.8902 25.0934C12.8902 27.8103 14.8464 29.8113 17.4547 29.8113C18.8998 29.8113 19.9572 29.5359 20.5388 29.2055V25.4789C19.9749 25.7175 17.1903 26.562 17.1903 23.845V17.328H20.5388V13.4178H17.1903L17.208 9.43417Z" fill="#635BFF"></path><path fill-rule="evenodd" clip-rule="evenodd" d="M5.29468 18.0808C5.29468 17.3648 5.85863 17.0894 6.79267 17.0894C8.13206 17.0894 9.82391 17.5117 11.1633 18.2643V13.9503C9.70055 13.3444 8.25542 13.1058 6.79267 13.1058C3.21511 13.1058 0.835938 15.0517 0.835938 18.3011C0.835938 23.3678 7.53286 22.5601 7.53286 24.7446C7.53286 25.5891 6.82792 25.8645 5.841 25.8645C4.37826 25.8645 2.51017 25.2403 1.0298 24.3958V28.765C2.66878 29.4993 4.32539 29.8114 5.841 29.8114C9.50669 29.8114 12.0268 27.9205 12.0268 24.6345C12.0092 19.1639 5.29468 20.1368 5.29468 18.0808Z" fill="#635BFF"></path></g><defs><clipPath id="clip0_4330_38132"><rect width="64" height="40" fill="white" transform="translate(0.835938)"></rect></clipPath></defs></svg>