<svg xmlns="http://www.w3.org/2000/svg" width="89" height="40" viewBox="0 0 89 40" fill="none"><g clip-path="url(#clip0_4330_38143)"><path fill-rule="evenodd" clip-rule="evenodd" d="M54.5815 31.5081C49.4907 35.4168 42.1118 37.5022 35.7587 37.5022C26.8507 37.5022 18.8312 34.0702 12.7641 28.362C12.2874 27.9132 12.7145 27.3014 13.2865 27.651C19.8341 31.6193 27.9299 34.0066 36.2926 34.0066C41.9326 34.0066 48.1369 32.7911 53.8417 30.2687C54.7036 29.8874 55.4243 30.8566 54.5815 31.5081Z" fill="#FF9900"></path><path fill-rule="evenodd" clip-rule="evenodd" d="M56.698 28.9857C56.0497 28.1198 52.3965 28.5766 50.7568 28.7792C50.2572 28.8427 50.181 28.3899 50.631 28.0641C53.5406 25.931 58.3149 26.5467 58.8716 27.2618C59.4284 27.9807 58.7267 32.9659 55.9925 35.3453C55.5731 35.7108 55.1727 35.5161 55.3595 35.0315C55.9735 33.4347 57.3501 29.8556 56.698 28.9857Z" fill="#FF9900"></path><path fill-rule="evenodd" clip-rule="evenodd" d="M50.8722 13.003V10.9295C50.8722 10.6157 51.101 10.4052 51.3756 10.4052H60.2874C60.5734 10.4052 60.8022 10.6197 60.8022 10.9295V12.7051C60.7984 13.003 60.5582 13.3923 60.1311 14.008L55.5131 20.8761C57.2291 20.8324 59.0405 21.0985 60.5963 22.0121C60.9471 22.2187 61.0425 22.5206 61.0692 22.8185V25.031C61.0692 25.3329 60.7489 25.6865 60.4133 25.5037C57.6715 24.0062 54.0297 23.8433 50.9981 25.5196C50.6892 25.6944 50.365 25.3449 50.365 25.043V22.9416C50.365 22.604 50.3688 22.028 50.693 21.5156L56.0431 13.5234H51.387C51.101 13.5234 50.8722 13.3129 50.8722 13.003Z" fill="black"></path><path fill-rule="evenodd" clip-rule="evenodd" d="M18.3632 25.9407H15.6519C15.3926 25.9209 15.1866 25.7183 15.1676 25.4601V10.9653C15.1676 10.6753 15.4002 10.4449 15.69 10.4449H18.2183C18.4814 10.4568 18.6911 10.6674 18.7102 10.9295V12.8243H18.7598C19.4195 10.9931 20.6588 10.1391 22.3291 10.1391C24.026 10.1391 25.0862 10.9931 25.8488 12.8243C26.5047 10.9931 27.9958 10.1391 29.5936 10.1391C30.73 10.1391 31.9731 10.6276 32.732 11.724C33.59 12.9435 33.4146 14.7151 33.4146 16.2683L33.4108 25.4164C33.4108 25.7064 33.1781 25.9407 32.8883 25.9407H30.1808C29.9101 25.9209 29.6927 25.6944 29.6927 25.4164V17.734C29.6927 17.1223 29.7461 15.5969 29.6165 15.017C29.4143 14.0438 28.808 13.7697 28.0225 13.7697C27.3666 13.7697 26.6802 14.2265 26.4018 14.9574C26.1234 15.6883 26.1501 16.9118 26.1501 17.734V25.4164C26.1501 25.7064 25.9175 25.9407 25.6277 25.9407H22.9202C22.6456 25.9209 22.4321 25.6944 22.4321 25.4164L22.4282 17.734C22.4282 16.1173 22.6837 13.7379 20.758 13.7379C18.8094 13.7379 18.8856 16.0577 18.8856 17.734V25.4164C18.8856 25.7064 18.653 25.9407 18.3632 25.9407Z" fill="black"></path><path fill-rule="evenodd" clip-rule="evenodd" d="M68.4746 10.1391C72.4977 10.1391 74.6752 13.7379 74.6752 18.314C74.6752 22.7351 72.2689 26.2426 68.4746 26.2426C64.524 26.2426 62.3732 22.6437 62.3732 18.1591C62.3732 13.6466 64.5507 10.1391 68.4746 10.1391ZM68.4975 13.0984C66.4993 13.0984 66.3735 15.9346 66.3735 17.7022C66.3735 19.4739 66.3468 23.2555 68.4746 23.2555C70.5758 23.2555 70.675 20.2048 70.675 18.3457C70.675 17.1223 70.6254 15.6605 70.2707 14.5006C69.9657 13.4916 69.3593 13.0984 68.4975 13.0984Z" fill="black"></path><path fill-rule="evenodd" clip-rule="evenodd" d="M79.892 25.9407H77.1921C76.9214 25.9209 76.704 25.6944 76.704 25.4164L76.7002 10.9176C76.7231 10.6515 76.9481 10.4449 77.2226 10.4449H79.7356C79.9721 10.4568 80.1665 10.6237 80.2199 10.8501V13.0666H80.2695C81.0284 11.0845 82.0923 10.1391 83.9647 10.1391C85.1811 10.1391 86.3671 10.5959 87.1298 11.8471C87.8391 13.007 87.839 14.9574 87.839 16.3596V25.4839C87.8085 25.7381 87.5835 25.9407 87.3166 25.9407H84.5977C84.3498 25.9209 84.1439 25.7302 84.1172 25.4839V17.6109C84.1172 16.026 84.2926 13.7061 82.4202 13.7061C81.7605 13.7061 81.1542 14.1669 80.853 14.866C80.4716 15.7519 80.422 16.6337 80.422 17.6109V25.4164C80.4182 25.7064 80.1818 25.9407 79.892 25.9407Z" fill="black"></path><path fill-rule="evenodd" clip-rule="evenodd" d="M43.7679 19.017C43.7679 20.1174 43.7946 21.0349 43.2607 22.0121C42.8298 22.8066 42.1434 23.2952 41.3846 23.2952C40.3435 23.2952 39.7334 22.4689 39.7334 21.2495C39.7334 18.8423 41.804 18.4053 43.7679 18.4053V19.017ZM46.5021 25.901C46.3229 26.0678 46.0636 26.0797 45.8615 25.9685C44.9615 25.1899 44.7975 24.8285 44.3056 24.0857C42.8184 25.6666 41.7621 26.1393 39.8363 26.1393C37.5521 26.1393 35.7789 24.6735 35.7789 21.738C35.7789 19.446 36.9687 17.8849 38.6694 17.1223C40.1414 16.447 42.1968 16.3278 43.7679 16.1411V15.7757C43.7679 15.1044 43.8175 14.3099 43.4362 13.73C43.1082 13.2096 42.4752 12.9951 41.9146 12.9951C40.8812 12.9951 39.9622 13.5472 39.7372 14.6912C39.6914 14.9455 39.5122 15.1957 39.2643 15.2076L36.6369 14.9137C36.4157 14.8621 36.1679 14.6754 36.2327 14.3218C36.8352 11.001 39.7181 10 42.296 10C43.6154 10 45.339 10.3654 46.3801 11.4062C47.6995 12.6892 47.5737 14.4013 47.5737 16.2643V20.6655C47.5737 21.9883 48.0999 22.5682 48.5956 23.2833C48.7673 23.5375 48.8054 23.8433 48.5842 24.034C48.0313 24.5147 47.0474 25.4084 46.5059 25.9089L46.5021 25.901Z" fill="black"></path><path fill-rule="evenodd" clip-rule="evenodd" d="M8.22339 19.017C8.22339 20.1173 8.25008 21.0349 7.71621 22.0121C7.2853 22.8066 6.6027 23.2952 5.84003 23.2952C4.79898 23.2952 4.19265 22.4689 4.19265 21.2494C4.19265 18.8423 6.26331 18.4053 8.22339 18.4053V19.017ZM10.9576 25.901C10.7783 26.0678 10.519 26.0797 10.3169 25.9685C9.41697 25.1899 9.25681 24.8285 8.76107 24.0856C7.27386 25.6666 6.22137 26.1393 4.2918 26.1393C2.0114 26.1393 0.234375 24.6735 0.234375 21.738C0.234375 19.446 1.42796 17.8849 3.12491 17.1223C4.59687 16.447 6.65228 16.3278 8.22339 16.1411V15.7757C8.22339 15.1044 8.27296 14.3099 7.89544 13.73C7.56367 13.2096 6.93066 12.9951 6.3739 12.9951C5.34048 12.9951 4.41764 13.5472 4.19265 14.6912C4.14689 14.9455 3.96766 15.1957 3.72361 15.2076L1.09238 14.9137C0.871208 14.8621 0.627152 14.6754 0.688166 14.3218C1.29449 11.001 4.17359 10 6.75143 10C8.07085 10 9.79449 10.3654 10.8355 11.4062C12.155 12.6892 12.0291 14.4013 12.0291 16.2643V20.6655C12.0291 21.9883 12.5554 22.5682 13.0511 23.2832C13.2265 23.5375 13.2647 23.8433 13.0435 24.034C12.4905 24.5146 11.5067 25.4084 10.9652 25.9089L10.9576 25.901Z" fill="black"></path></g><defs><clipPath id="clip0_4330_38143"><rect width="88" height="40" fill="white" transform="translate(0.234375)"></rect></clipPath></defs></svg>