<svg xmlns="http://www.w3.org/2000/svg" width="92" height="40" viewBox="0 0 92 40" fill="none"><g clip-path="url(#clip0_4330_38135)"><path d="M39.426 21.3767C39.426 25.8128 36.0945 29.0816 32.006 29.0816C27.9174 29.0816 24.5859 25.8128 24.5859 21.3767C24.5859 16.9094 27.9174 13.6719 32.006 13.6719C36.0945 13.6719 39.426 16.9094 39.426 21.3767ZM36.1778 21.3767C36.1778 18.6047 34.247 16.708 32.006 16.708C29.7649 16.708 27.8341 18.6047 27.8341 21.3767C27.8341 24.121 29.7649 26.0455 32.006 26.0455C34.247 26.0455 36.1778 24.1176 36.1778 21.3767Z" fill="#EA4335"></path><path d="M55.4338 21.3767C55.4338 25.8128 52.1023 29.0816 48.0138 29.0816C43.9253 29.0816 40.5938 25.8128 40.5938 21.3767C40.5938 16.9129 43.9253 13.6719 48.0138 13.6719C52.1023 13.6719 55.4338 16.9094 55.4338 21.3767ZM52.1856 21.3767C52.1856 18.6047 50.2548 16.708 48.0138 16.708C45.7728 16.708 43.8419 18.6047 43.8419 21.3767C43.8419 24.121 45.7728 26.0455 48.0138 26.0455C50.2548 26.0455 52.1856 24.1176 52.1856 21.3767Z" fill="#FBBC05"></path><path d="M70.7735 14.1374V27.97C70.7735 33.6601 67.552 35.984 63.7436 35.984C60.1587 35.984 58.0011 33.4864 57.1874 31.4438L60.0153 30.2175C60.5189 31.4716 61.7527 32.9514 63.7403 32.9514C66.1781 32.9514 67.6888 31.3847 67.6888 28.4355V27.3273H67.5754C66.8484 28.2618 65.4477 29.0781 63.6803 29.0781C59.9819 29.0781 56.5938 25.7225 56.5938 21.4045C56.5938 17.0553 59.9819 13.6719 63.6803 13.6719C65.4444 13.6719 66.845 14.4882 67.5754 15.3949H67.6888V14.1408H70.7735V14.1374ZM67.9189 21.4045C67.9189 18.6915 66.1814 16.708 63.9704 16.708C61.7294 16.708 59.8519 18.6915 59.8519 21.4045C59.8519 24.0898 61.7294 26.0455 63.9704 26.0455C66.1814 26.0455 67.9189 24.0898 67.9189 21.4045Z" fill="#4285F4"></path><path d="M75.8595 6.03125V28.6109H72.6914V6.03125H75.8595Z" fill="#34A853"></path><path d="M88.2043 23.9083L90.7254 25.6591C89.9117 26.9131 87.9508 29.0738 84.5626 29.0738C80.3607 29.0738 77.2227 25.6903 77.2227 21.3689C77.2227 16.787 80.3874 13.6641 84.1991 13.6641C88.0375 13.6641 89.915 16.8461 90.5286 18.5656L90.8655 19.441L80.9777 23.7068C81.7347 25.2526 82.9119 26.0412 84.5626 26.0412C86.2167 26.0412 87.3639 25.1936 88.2043 23.9083ZM80.4441 21.1362L87.0538 18.2773C86.6903 17.315 85.5964 16.6446 84.3092 16.6446C82.6584 16.6446 80.3607 18.1626 80.4441 21.1362Z" fill="#EA4335"></path><path d="M12.5939 19.3701V16.1013H23.1687C23.2721 16.671 23.3254 17.3449 23.3254 18.0744C23.3254 20.5269 22.6818 23.5595 20.6075 25.7202C18.5899 27.9087 16.0121 29.0759 12.5972 29.0759C6.26771 29.0759 0.945312 23.7054 0.945312 17.1122C0.945312 10.5189 6.26771 5.14844 12.5972 5.14844C16.0988 5.14844 18.5933 6.57964 20.4675 8.44506L18.2531 10.7517C16.9092 9.43857 15.0884 8.41727 12.5939 8.41727C7.97182 8.41727 4.35685 12.2975 4.35685 17.1122C4.35685 21.9268 7.97182 25.8071 12.5939 25.8071C15.5919 25.8071 17.2994 24.553 18.3932 23.4136C19.2803 22.4896 19.8638 21.1696 20.094 19.3667L12.5939 19.3701Z" fill="#4285F4"></path></g><defs><clipPath id="clip0_4330_38135"><rect width="90.4" height="40" fill="white" transform="translate(0.835938)"></rect></clipPath></defs></svg>