<svg xmlns="http://www.w3.org/2000/svg" width="50" height="50" viewBox="0 0 50 50" fill="none"><rect x="0.5" y="0.5" width="49" height="49" rx="24.5" stroke="white"></rect><path d="M22.9541 23.6436H24.2197C24.7119 23.6436 25.1191 23.5586 25.4414 23.3887C25.7695 23.2188 26.0127 22.9844 26.1709 22.6855C26.3291 22.3867 26.4082 22.0439 26.4082 21.6572C26.4082 21.2529 26.335 20.9072 26.1885 20.6201C26.0479 20.3271 25.8311 20.1016 25.5381 19.9434C25.251 19.7852 24.8848 19.7061 24.4395 19.7061C24.0645 19.7061 23.7246 19.7822 23.4199 19.9346C23.1211 20.0811 22.8838 20.292 22.708 20.5674C22.5322 20.8369 22.4443 21.1592 22.4443 21.5342H20.3174C20.3174 20.8545 20.4961 20.251 20.8535 19.7236C21.2109 19.1963 21.6973 18.7832 22.3125 18.4844C22.9336 18.1797 23.6309 18.0273 24.4043 18.0273C25.2305 18.0273 25.9512 18.165 26.5664 18.4404C27.1875 18.71 27.6709 19.1143 28.0166 19.6533C28.3623 20.1924 28.5352 20.8604 28.5352 21.6572C28.5352 22.0205 28.4502 22.3896 28.2803 22.7646C28.1104 23.1396 27.8584 23.4824 27.5244 23.793C27.1904 24.0977 26.7744 24.3467 26.2764 24.54C25.7783 24.7275 25.2012 24.8213 24.5449 24.8213H22.9541V23.6436ZM22.9541 25.2959V24.1357H24.5449C25.2949 24.1357 25.9336 24.2236 26.4609 24.3994C26.9941 24.5752 27.4277 24.8184 27.7617 25.1289C28.0957 25.4336 28.3389 25.7822 28.4912 26.1748C28.6494 26.5674 28.7285 26.9834 28.7285 27.4229C28.7285 28.0205 28.6201 28.5537 28.4033 29.0225C28.1924 29.4854 27.8906 29.8779 27.498 30.2002C27.1055 30.5225 26.6455 30.7656 26.1182 30.9297C25.5967 31.0938 25.0283 31.1758 24.4131 31.1758C23.8623 31.1758 23.335 31.0996 22.8311 30.9473C22.3271 30.7949 21.876 30.5693 21.4775 30.2705C21.0791 29.9658 20.7627 29.5879 20.5283 29.1367C20.2998 28.6797 20.1855 28.1523 20.1855 27.5547H22.3037C22.3037 27.9355 22.3916 28.2725 22.5674 28.5654C22.749 28.8525 23.001 29.0781 23.3232 29.2422C23.6514 29.4062 24.0264 29.4883 24.4482 29.4883C24.8936 29.4883 25.2773 29.4092 25.5996 29.251C25.9219 29.0928 26.168 28.8584 26.3379 28.5479C26.5137 28.2373 26.6016 27.8623 26.6016 27.4229C26.6016 26.9248 26.5049 26.5205 26.3115 26.21C26.1182 25.8994 25.8428 25.6709 25.4854 25.5244C25.1279 25.3721 24.7061 25.2959 24.2197 25.2959H22.9541Z" fill="white"></path></svg>