<svg xmlns="http://www.w3.org/2000/svg" width="50" height="50" viewBox="0 0 50 50" fill="none"><rect x="0.5" y="0.5" width="49" height="49" rx="24.5" stroke="white"></rect><path d="M29.0449 29.3125V31H20.4668V29.5498L24.6328 25.0059C25.0898 24.4902 25.4502 24.0449 25.7139 23.6699C25.9775 23.2949 26.1621 22.958 26.2676 22.6592C26.3789 22.3545 26.4346 22.0586 26.4346 21.7715C26.4346 21.3672 26.3584 21.0127 26.2061 20.708C26.0596 20.3975 25.8428 20.1543 25.5557 19.9785C25.2686 19.7969 24.9199 19.7061 24.5098 19.7061C24.0352 19.7061 23.6367 19.8086 23.3145 20.0137C22.9922 20.2188 22.749 20.5029 22.585 20.8662C22.4209 21.2236 22.3389 21.6338 22.3389 22.0967H20.2207C20.2207 21.3525 20.3906 20.6729 20.7305 20.0576C21.0703 19.4365 21.5625 18.9443 22.207 18.5811C22.8516 18.2119 23.6279 18.0273 24.5361 18.0273C25.3916 18.0273 26.1182 18.1709 26.7158 18.458C27.3135 18.7451 27.7676 19.1523 28.0781 19.6797C28.3945 20.207 28.5527 20.8311 28.5527 21.5518C28.5527 21.9502 28.4883 22.3457 28.3594 22.7383C28.2305 23.1309 28.0459 23.5234 27.8057 23.916C27.5713 24.3027 27.293 24.6924 26.9707 25.085C26.6484 25.4717 26.2939 25.8643 25.9072 26.2627L23.1387 29.3125H29.0449Z" fill="white"></path></svg>