<svg xmlns="http://www.w3.org/2000/svg" width="172" height="28" viewBox="0 0 172 28" fill="none"><rect width="28" height="28" fill="#219653"></rect><path d="M13.9992 17.5742L16.954 16.783L18.1885 20.8031L13.9992 17.5742ZM20.7992 12.378H15.598L13.9992 7.20312L12.4004 12.378H7.19922L11.4087 15.5855L9.80993 20.7604L14.0195 17.5528L16.6099 15.5855L20.7992 12.378Z" fill="white"></path><rect width="28" height="28" transform="translate(36)" fill="#219653"></rect><path d="M49.9992 17.5742L52.954 16.783L54.1885 20.8031L49.9992 17.5742ZM56.7992 12.378H51.598L49.9992 7.20312L48.4004 12.378H43.1992L47.4087 15.5855L45.8099 20.7604L50.0195 17.5528L52.6099 15.5855L56.7992 12.378Z" fill="white"></path><rect width="28" height="28" transform="translate(72)" fill="#219653"></rect><path d="M85.9992 17.5742L88.954 16.783L90.1885 20.8031L85.9992 17.5742ZM92.7992 12.378H87.598L85.9992 7.20312L84.4004 12.378H79.1992L83.4087 15.5855L81.8099 20.7604L86.0195 17.5528L88.6099 15.5855L92.7992 12.378Z" fill="white"></path><rect width="28" height="28" transform="translate(108)" fill="#219653"></rect><path d="M121.999 17.5742L124.954 16.783L126.189 20.8031L121.999 17.5742ZM128.799 12.378H123.598L121.999 7.20312L120.4 12.378H115.199L119.409 15.5855L117.81 20.7604L122.019 17.5528L124.61 15.5855L128.799 12.378Z" fill="white"></path><rect width="28" height="28" transform="translate(144)" fill="url(#paint0_linear_1722_12604)"></rect><path d="M157.999 17.5742L160.954 16.783L162.189 20.8031L157.999 17.5742ZM164.799 12.378H159.598L157.999 7.20312L156.4 12.378H151.199L155.409 15.5855L153.81 20.7604L158.019 17.5528L160.61 15.5855L164.799 12.378Z" fill="white"></path><defs><linearGradient id="paint0_linear_1722_12604" x1="0" y1="14" x2="28" y2="14" gradientUnits="userSpaceOnUse"><stop stop-color="#219653"></stop><stop offset="0.5" stop-color="#219653"></stop><stop offset="0.5001" stop-color="#219653" stop-opacity="0"></stop><stop offset="0.5002" stop-color="#D9D9D9"></stop><stop offset="0.9998" stop-color="#D9D9D9"></stop><stop offset="0.9999" stop-color="#219653" stop-opacity="0"></stop><stop offset="1" stop-color="#D9D9D9"></stop></linearGradient></defs></svg>