<svg xmlns="http://www.w3.org/2000/svg" width="18" height="18" viewBox="0 0 18 18" fill="none"><path d="M9 15.75C12.7279 15.75 15.75 12.7279 15.75 9C15.75 5.27208 12.7279 2.25 9 2.25M9 15.75C5.27208 15.75 2.25 12.7279 2.25 9C2.25 5.27208 5.27208 2.25 9 2.25M9 15.75C11.0711 15.75 11.956 11.8777 11.956 9C11.956 6.12228 11.0711 2.25 9 2.25M9 15.75C6.92893 15.75 6.04421 11.8777 6.04421 9C6.04421 6.1223 6.92893 2.25 9 2.25M2.62491 6.74998C7.60409 6.74998 10.3957 6.74998 15.3749 6.74998M2.62491 11.25C7.60409 11.25 10.3957 11.25 15.3749 11.25" stroke="#DDDDDD" stroke-width="1.5" stroke-linecap="round" stroke-linejoin="round"></path></svg>