<?xml version="1.0" encoding="UTF-8"?>
<svg xmlns="http://www.w3.org/2000/svg" width="64" height="64" viewBox="0 0 64 64" fill="none">
  <g clip-path="url(#clip0_6282_1118)">
    <rect width="64" height="64" rx="32" fill="#FFFD63"></rect>
    <path d="M33.5321 47.018L30.317 41.4862V49.3517L22.5283 50L18 47.8391V14.994L29.366 14.0432C29.6075 14.0144 29.834 14 30.0453 14C30.2868 14 30.5132 14 30.7245 14C32.4755 14 34.166 14.2593 35.7962 14.7779C37.4264 15.2965 38.8906 16.06 40.1887 17.0684C41.4868 18.0768 42.5132 19.3013 43.2679 20.7419C44.0226 22.1537 44.4 23.7671 44.4 25.5822C44.4 30.1633 42.6491 33.4622 39.1472 35.479L46.8 48.4874L38.0604 49.1789L33.5321 47.018ZM33.9849 33.1453C35.8566 32.1657 37.2302 30.8691 38.1057 29.2557C38.9811 27.6423 39.4189 25.6975 39.4189 23.4214C39.4189 20.7419 38.634 18.581 37.0641 16.9388C35.5245 15.2677 33.3509 14.4322 30.5434 14.4322C30.3623 14.4322 30.1811 14.4322 30 14.4322C29.8189 14.4322 29.6226 14.4466 29.4113 14.4754L18.4528 15.383V47.407L25.3358 46.8451V35.4358L27.283 35.2629L33.7585 46.5858L41.5019 45.9376L33.9849 33.1453ZM25.3358 21.0444L28.3245 20.7851H28.8226C29.8189 20.7851 30.6491 21.0732 31.3132 21.6495C32.0075 22.1969 32.3547 23.1621 32.3547 24.545C32.3547 25.9856 31.9925 27.1092 31.2679 27.916C30.5434 28.6939 29.5623 29.1405 28.3245 29.2557L25.3358 29.515V21.0444ZM30.317 28.1753C31.3736 27.455 31.9019 26.2449 31.9019 24.545C31.9019 24.3433 31.8868 24.1561 31.8566 23.9832C31.8566 23.8103 31.8415 23.6375 31.8113 23.4646L30.317 23.5942V28.1753Z" fill="black"></path>
  </g>
  <defs>
    <clipPath id="clip0_6282_1118">
      <rect width="64" height="64" fill="white"></rect>
    </clipPath>
  </defs>
</svg>
