<svg xmlns="http://www.w3.org/2000/svg" width="120" height="26" viewBox="0 0 120 26" fill="none"><path d="M12.5 19.3019L17.7143 17.9057L19.8929 25L12.5 19.3019ZM24.5 10.1321H15.3214L12.5 1L9.67857 10.1321H0.5L7.92858 15.7925L5.10714 24.9245L12.5357 19.2641L17.1071 15.7925L24.5 10.1321Z" fill="#219653"></path><path d="M39.7949 5.78125V20H37.3633V5.78125H39.7949ZM44.2578 5.78125V7.73438H32.9395V5.78125H44.2578ZM47.5586 11.4453V20H45.2051V9.43359H47.4512L47.5586 11.4453ZM50.791 9.36523L50.7715 11.5527C50.6283 11.5267 50.472 11.5072 50.3027 11.4941C50.14 11.4811 49.9772 11.4746 49.8145 11.4746C49.4108 11.4746 49.056 11.5332 48.75 11.6504C48.444 11.7611 48.1868 11.9238 47.9785 12.1387C47.7767 12.347 47.6204 12.6009 47.5098 12.9004C47.3991 13.1999 47.334 13.5352 47.3145 13.9062L46.7773 13.9453C46.7773 13.2812 46.8424 12.666 46.9727 12.0996C47.1029 11.5332 47.2982 11.0352 47.5586 10.6055C47.8255 10.1758 48.1576 9.84049 48.5547 9.59961C48.9583 9.35872 49.4238 9.23828 49.9512 9.23828C50.0944 9.23828 50.2474 9.2513 50.4102 9.27734C50.5794 9.30339 50.7064 9.33268 50.791 9.36523ZM58.623 17.5098V9.43359H60.9863V20H58.7598L58.623 17.5098ZM58.9551 15.3125L59.7461 15.293C59.7461 16.0026 59.668 16.6569 59.5117 17.2559C59.3555 17.8483 59.1146 18.3659 58.7891 18.8086C58.4635 19.2448 58.0469 19.5866 57.5391 19.834C57.0312 20.0749 56.4225 20.1953 55.7129 20.1953C55.1986 20.1953 54.7266 20.1204 54.2969 19.9707C53.8672 19.821 53.4961 19.5898 53.1836 19.2773C52.8776 18.9648 52.64 18.5579 52.4707 18.0566C52.3014 17.5553 52.2168 16.9564 52.2168 16.2598V9.43359H54.5703V16.2793C54.5703 16.6634 54.6159 16.9857 54.707 17.2461C54.7982 17.5 54.9219 17.7051 55.0781 17.8613C55.2344 18.0176 55.4167 18.1283 55.625 18.1934C55.8333 18.2585 56.0547 18.291 56.2891 18.291C56.9596 18.291 57.487 18.1608 57.8711 17.9004C58.2617 17.6335 58.5384 17.2754 58.7012 16.8262C58.8704 16.377 58.9551 15.8724 58.9551 15.3125ZM69.3262 17.1387C69.3262 16.9043 69.2676 16.6927 69.1504 16.5039C69.0332 16.3086 68.8086 16.1328 68.4766 15.9766C68.151 15.8203 67.6693 15.6771 67.0312 15.5469C66.4714 15.4232 65.957 15.2767 65.4883 15.1074C65.026 14.9316 64.6289 14.7201 64.2969 14.4727C63.9648 14.2253 63.7077 13.9323 63.5254 13.5938C63.3431 13.2552 63.252 12.8646 63.252 12.4219C63.252 11.9922 63.3464 11.5853 63.5352 11.2012C63.724 10.8171 63.9941 10.4785 64.3457 10.1855C64.6973 9.89258 65.1237 9.66146 65.625 9.49219C66.1328 9.32292 66.6992 9.23828 67.3242 9.23828C68.2096 9.23828 68.9681 9.38802 69.5996 9.6875C70.2376 9.98047 70.7259 10.3809 71.0645 10.8887C71.403 11.39 71.5723 11.9564 71.5723 12.5879H69.2188C69.2188 12.3079 69.1471 12.0475 69.0039 11.8066C68.8672 11.5592 68.6589 11.3607 68.3789 11.2109C68.099 11.0547 67.7474 10.9766 67.3242 10.9766C66.9206 10.9766 66.5853 11.0417 66.3184 11.1719C66.0579 11.2956 65.8626 11.4583 65.7324 11.6602C65.6087 11.862 65.5469 12.0833 65.5469 12.3242C65.5469 12.5 65.5794 12.6595 65.6445 12.8027C65.7161 12.9395 65.8333 13.0664 65.9961 13.1836C66.1589 13.2943 66.3802 13.3984 66.6602 13.4961C66.9466 13.5938 67.3047 13.6882 67.7344 13.7793C68.5417 13.9486 69.235 14.1667 69.8145 14.4336C70.4004 14.694 70.8496 15.0326 71.1621 15.4492C71.4746 15.8594 71.6309 16.3802 71.6309 17.0117C71.6309 17.4805 71.5299 17.9102 71.3281 18.3008C71.1328 18.6849 70.8464 19.0202 70.4688 19.3066C70.0911 19.5866 69.6387 19.8047 69.1113 19.9609C68.5905 20.1172 68.0046 20.1953 67.3535 20.1953C66.3965 20.1953 65.5859 20.026 64.9219 19.6875C64.2578 19.3424 63.7533 18.903 63.4082 18.3691C63.0697 17.8288 62.9004 17.2689 62.9004 16.6895H65.1758C65.2018 17.1257 65.3223 17.474 65.5371 17.7344C65.7585 17.9883 66.0319 18.1738 66.3574 18.291C66.6895 18.4017 67.0312 18.457 67.3828 18.457C67.806 18.457 68.1608 18.4017 68.4473 18.291C68.7337 18.1738 68.9518 18.0176 69.1016 17.8223C69.2513 17.6204 69.3262 17.3926 69.3262 17.1387ZM78.5352 9.43359V11.1523H72.5781V9.43359H78.5352ZM74.2969 6.8457H76.6504V17.0801C76.6504 17.4056 76.696 17.6562 76.7871 17.832C76.8848 18.0013 77.0182 18.1152 77.1875 18.1738C77.3568 18.2324 77.5553 18.2617 77.7832 18.2617C77.946 18.2617 78.1022 18.252 78.252 18.2324C78.4017 18.2129 78.5221 18.1934 78.6133 18.1738L78.623 19.9707C78.4277 20.0293 78.1999 20.0814 77.9395 20.127C77.6855 20.1725 77.3926 20.1953 77.0605 20.1953C76.5202 20.1953 76.0417 20.1009 75.625 19.9121C75.2083 19.7168 74.8828 19.401 74.6484 18.9648C74.4141 18.5286 74.2969 17.9492 74.2969 17.2266V6.8457ZM82.7148 11.4648V24.0625H80.3613V9.43359H82.5293L82.7148 11.4648ZM89.5996 14.6191V14.8242C89.5996 15.5924 89.5085 16.3053 89.3262 16.9629C89.1504 17.6139 88.8867 18.1836 88.5352 18.6719C88.1901 19.1536 87.7637 19.528 87.2559 19.7949C86.748 20.0618 86.1621 20.1953 85.498 20.1953C84.8405 20.1953 84.2643 20.0749 83.7695 19.834C83.2812 19.5866 82.8678 19.2383 82.5293 18.7891C82.1908 18.3398 81.9173 17.8125 81.709 17.207C81.5072 16.5951 81.3639 15.9245 81.2793 15.1953V14.4043C81.3639 13.6296 81.5072 12.9264 81.709 12.2949C81.9173 11.6634 82.1908 11.1198 82.5293 10.6641C82.8678 10.2083 83.2812 9.85677 83.7695 9.60938C84.2578 9.36198 84.8275 9.23828 85.4785 9.23828C86.1426 9.23828 86.7318 9.36849 87.2461 9.62891C87.7604 9.88281 88.1934 10.2474 88.5449 10.7227C88.8965 11.1914 89.1602 11.7578 89.3359 12.4219C89.5117 13.0794 89.5996 13.8118 89.5996 14.6191ZM87.2461 14.8242V14.6191C87.2461 14.1309 87.2005 13.6784 87.1094 13.2617C87.0182 12.8385 86.875 12.4674 86.6797 12.1484C86.4844 11.8294 86.2337 11.582 85.9277 11.4062C85.6283 11.224 85.2669 11.1328 84.8438 11.1328C84.4271 11.1328 84.069 11.2044 83.7695 11.3477C83.4701 11.4844 83.2194 11.6764 83.0176 11.9238C82.8158 12.1712 82.6595 12.4609 82.5488 12.793C82.4382 13.1185 82.36 13.4733 82.3145 13.8574V15.752C82.3926 16.2207 82.526 16.6504 82.7148 17.041C82.9036 17.4316 83.1706 17.7441 83.5156 17.9785C83.8672 18.2064 84.3164 18.3203 84.8633 18.3203C85.2865 18.3203 85.6478 18.2292 85.9473 18.0469C86.2467 17.8646 86.4909 17.6139 86.6797 17.2949C86.875 16.9694 87.0182 16.5951 87.1094 16.1719C87.2005 15.7487 87.2461 15.2995 87.2461 14.8242ZM94.1211 9.43359V20H91.7578V9.43359H94.1211ZM91.6016 6.66016C91.6016 6.30208 91.7188 6.00586 91.9531 5.77148C92.194 5.5306 92.526 5.41016 92.9492 5.41016C93.3659 5.41016 93.6947 5.5306 93.9355 5.77148C94.1764 6.00586 94.2969 6.30208 94.2969 6.66016C94.2969 7.01172 94.1764 7.30469 93.9355 7.53906C93.6947 7.77344 93.3659 7.89062 92.9492 7.89062C92.526 7.89062 92.194 7.77344 91.9531 7.53906C91.7188 7.30469 91.6016 7.01172 91.6016 6.66016ZM99.2188 5V20H96.8555V5H99.2188ZM101.348 14.834V14.6094C101.348 13.8477 101.458 13.1413 101.68 12.4902C101.901 11.8327 102.22 11.263 102.637 10.7812C103.06 10.293 103.574 9.91536 104.18 9.64844C104.792 9.375 105.482 9.23828 106.25 9.23828C107.025 9.23828 107.715 9.375 108.32 9.64844C108.932 9.91536 109.45 10.293 109.873 10.7812C110.296 11.263 110.618 11.8327 110.84 12.4902C111.061 13.1413 111.172 13.8477 111.172 14.6094V14.834C111.172 15.5957 111.061 16.3021 110.84 16.9531C110.618 17.6042 110.296 18.1738 109.873 18.6621C109.45 19.1439 108.936 19.5215 108.33 19.7949C107.725 20.0618 107.038 20.1953 106.27 20.1953C105.495 20.1953 104.801 20.0618 104.189 19.7949C103.584 19.5215 103.07 19.1439 102.646 18.6621C102.223 18.1738 101.901 17.6042 101.68 16.9531C101.458 16.3021 101.348 15.5957 101.348 14.834ZM103.701 14.6094V14.834C103.701 15.3092 103.75 15.7585 103.848 16.1816C103.945 16.6048 104.098 16.9759 104.307 17.2949C104.515 17.6139 104.782 17.8646 105.107 18.0469C105.433 18.2292 105.82 18.3203 106.27 18.3203C106.706 18.3203 107.083 18.2292 107.402 18.0469C107.728 17.8646 107.995 17.6139 108.203 17.2949C108.411 16.9759 108.564 16.6048 108.662 16.1816C108.766 15.7585 108.818 15.3092 108.818 14.834V14.6094C108.818 14.1406 108.766 13.6979 108.662 13.2812C108.564 12.8581 108.408 12.4837 108.193 12.1582C107.985 11.8327 107.718 11.5788 107.393 11.3965C107.074 11.2077 106.693 11.1133 106.25 11.1133C105.807 11.1133 105.423 11.2077 105.098 11.3965C104.779 11.5788 104.515 11.8327 104.307 12.1582C104.098 12.4837 103.945 12.8581 103.848 13.2812C103.75 13.6979 103.701 14.1406 103.701 14.6094ZM117.988 9.43359V11.1523H112.031V9.43359H117.988ZM113.75 6.8457H116.104V17.0801C116.104 17.4056 116.149 17.6562 116.24 17.832C116.338 18.0013 116.471 18.1152 116.641 18.1738C116.81 18.2324 117.008 18.2617 117.236 18.2617C117.399 18.2617 117.555 18.252 117.705 18.2324C117.855 18.2129 117.975 18.1934 118.066 18.1738L118.076 19.9707C117.881 20.0293 117.653 20.0814 117.393 20.127C117.139 20.1725 116.846 20.1953 116.514 20.1953C115.973 20.1953 115.495 20.1009 115.078 19.9121C114.661 19.7168 114.336 19.401 114.102 18.9648C113.867 18.5286 113.75 17.9492 113.75 17.2266V6.8457Z" fill="#111111"></path></svg>