<?xml version="1.0" encoding="UTF-8"?>
<svg xmlns="http://www.w3.org/2000/svg" width="65" height="28" viewBox="0 0 65 28" fill="none">
  <path fill-rule="evenodd" clip-rule="evenodd" d="M64.2805 14.5137C64.2805 9.81407 62.0952 6.1058 57.9185 6.1058C53.7241 6.1058 51.1863 9.81407 51.1863 14.477C51.1863 20.0026 54.1823 22.793 58.4824 22.793C60.5796 22.793 62.1657 22.2974 63.3641 21.5998V17.9282C62.1657 18.5524 60.7911 18.9379 59.0464 18.9379C57.3369 18.9379 55.8213 18.3137 55.6274 16.1475H64.2453C64.2453 15.9089 64.2805 14.9543 64.2805 14.5137ZM55.5745 12.7697C55.5745 10.6952 56.7906 9.83243 57.9008 9.83243C58.9759 9.83243 60.1214 10.6952 60.1214 12.7697H55.5745Z" fill="#635BFF"></path>
  <path fill-rule="evenodd" clip-rule="evenodd" d="M44.3835 6.10579C42.6564 6.10579 41.5461 6.95025 40.9293 7.53769L40.7002 6.39951H36.823V27.8047L41.2289 26.8317L41.2465 21.6365C41.881 22.1138 42.815 22.793 44.3659 22.793C47.5205 22.793 50.3931 20.1495 50.3931 14.3301C50.3755 9.00632 47.4676 6.10579 44.3835 6.10579ZM43.3261 18.7543C42.2863 18.7543 41.6695 18.3688 41.2465 17.8915L41.2289 11.0807C41.6871 10.5484 42.3216 10.1812 43.3261 10.1812C44.9298 10.1812 46.0401 12.0537 46.0401 14.4586C46.0401 16.9185 44.9475 18.7543 43.3261 18.7543Z" fill="#635BFF"></path>
  <path fill-rule="evenodd" clip-rule="evenodd" d="M30.7605 5.02264L35.184 4.03132V0.304688L30.7605 1.27765V5.02264Z" fill="#635BFF"></path>
  <path d="M35.184 6.41785H30.7605V22.4809H35.184V6.41785Z" fill="#635BFF"></path>
  <path fill-rule="evenodd" clip-rule="evenodd" d="M26.0196 7.77631L25.7376 6.41784H21.9309V22.4809H26.3368V11.5947C27.3766 10.1812 29.1389 10.4382 29.6853 10.6401V6.41784C29.1213 6.19754 27.0594 5.79367 26.0196 7.77631Z" fill="#635BFF"></path>
  <path fill-rule="evenodd" clip-rule="evenodd" d="M17.208 2.43417L12.9078 3.38878L12.8902 18.0934C12.8902 20.8103 14.8464 22.8113 17.4547 22.8113C18.8998 22.8113 19.9572 22.5359 20.5388 22.2055V18.4789C19.9749 18.7175 17.1903 19.562 17.1903 16.845V10.328H20.5388V6.41781H17.1903L17.208 2.43417Z" fill="#635BFF"></path>
  <path fill-rule="evenodd" clip-rule="evenodd" d="M5.29468 11.0808C5.29468 10.3648 5.85863 10.0894 6.79267 10.0894C8.13206 10.0894 9.82391 10.5117 11.1633 11.2643V6.95026C9.70055 6.34445 8.25542 6.1058 6.79267 6.1058C3.21511 6.1058 0.835938 8.05172 0.835938 11.3011C0.835938 16.3678 7.53286 15.5601 7.53286 17.7446C7.53286 18.5891 6.82792 18.8645 5.841 18.8645C4.37826 18.8645 2.51017 18.2403 1.0298 17.3958V21.765C2.66878 22.4993 4.32539 22.8114 5.841 22.8114C9.50669 22.8114 12.0268 20.9205 12.0268 17.6345C12.0092 12.1639 5.29468 13.1368 5.29468 11.0808Z" fill="#635BFF"></path>
</svg>
