<?xml version="1.0" encoding="UTF-8"?>
<svg xmlns="http://www.w3.org/2000/svg" width="32" height="28" viewBox="0 0 32 28" fill="none">
  <path d="M24.3333 26.5C24.3333 23.7386 20.6024 21.5 16 21.5C11.3976 21.5 7.66667 23.7386 7.66667 26.5M31 21.5006C31 19.4503 28.9432 17.6882 26 16.9167M1 21.5006C1 19.4503 3.05683 17.6882 6 16.9167M26 10.2268C27.0229 9.31131 27.6667 7.98083 27.6667 6.5C27.6667 3.73858 25.4281 1.5 22.6667 1.5C21.3861 1.5 20.2179 1.98142 19.3333 2.77316M6 10.2268C4.97708 9.31131 4.33333 7.98083 4.33333 6.5C4.33333 3.73858 6.57191 1.5 9.33333 1.5C10.6139 1.5 11.7821 1.98142 12.6667 2.77316M16 16.5C13.2386 16.5 11 14.2614 11 11.5C11 8.73858 13.2386 6.5 16 6.5C18.7614 6.5 21 8.73858 21 11.5C21 14.2614 18.7614 16.5 16 16.5Z" stroke="#1F72F2" stroke-width="1.5" stroke-linecap="round" stroke-linejoin="round"></path>
</svg>
