<?xml version="1.0" encoding="UTF-8"?>
<svg xmlns="http://www.w3.org/2000/svg" width="40" height="40" viewBox="0 0 40 40" fill="none">
  <circle cx="24" cy="24" r="16" fill="#0066FF" fill-opacity="0.05"></circle>
  <path d="M10.8333 35H30C32.7614 35 35 32.6696 35 29.7949C35 27.6146 35.2162 25.412 32.839 24.3739M13.3008 34.4389L30.4453 26.6571C31.5061 26.1756 32.326 25.3569 32.839 24.3739M20.1493 18.0621L25.171 15.1983C27.7594 13.7223 31.0064 14.889 32.1689 17.713L33.0427 19.8354C33.6698 21.3587 33.5447 23.0217 32.839 24.3739M16.4697 30.5696C15.6359 33.7571 12.4372 35.6486 9.32536 34.7946C6.21347 33.9405 4.36636 30.6645 5.20019 27.477L10.2987 8.78468C11.0538 6.0161 13.8239 4.41097 16.4821 5.20162L18.434 5.78217C21.1247 6.58248 22.6607 9.52578 21.8412 12.3113L16.4697 30.5696Z" stroke="#111111" stroke-width="1.5" stroke-linecap="round" stroke-linejoin="round"></path>
  <path d="M10.8339 28.3359L10.4298 29.7593" stroke="#111111" stroke-width="1.5" stroke-linecap="round" stroke-linejoin="round"></path>
</svg>
