<?xml version="1.0" encoding="UTF-8"?>
<svg xmlns="http://www.w3.org/2000/svg" width="40" height="40" viewBox="0 0 40 40" fill="none">
  <circle cx="24" cy="24" r="16" fill="#0066FF" fill-opacity="0.05"></circle>
  <path d="M20 14.901V30M28.3333 14.901V30M11.6667 14.901V30M20.7454 5.17712L33.6852 11.6898C35.2583 12.4815 34.6986 14.868 32.9399 14.868H7.06011C5.30141 14.868 4.74172 12.4815 6.31475 11.6898L19.2546 5.17712C19.7239 4.94096 20.2761 4.94096 20.7454 5.17712ZM32.5 35H7.50001C6.11929 35 5 33.8807 5 32.5C5 31.1193 6.11929 30 7.50001 30H32.5C33.8807 30 35 31.1193 35 32.5C35 33.8807 33.8807 35 32.5 35Z" stroke="#111111" stroke-width="1.5" stroke-linecap="round" stroke-linejoin="round"></path>
</svg>
