<?xml version="1.0" encoding="UTF-8"?>
<svg xmlns="http://www.w3.org/2000/svg" width="40" height="40" viewBox="0 0 40 40" fill="none">
  <circle cx="24" cy="24" r="16" fill="#0066FF" fill-opacity="0.05"></circle>
  <path d="M20 28.75C24.8325 28.75 28.75 24.8325 28.75 20C28.75 15.1675 24.8325 11.25 20 11.25C15.1675 11.25 11.25 15.1675 11.25 20C11.25 24.8325 15.1675 28.75 20 28.75Z" stroke="#111111" stroke-width="1.5" stroke-linecap="round" stroke-linejoin="round"></path>
  <path d="M20 22.5C21.3807 22.5 22.5 21.3807 22.5 20C22.5 18.6193 21.3807 17.5 20 17.5C18.6193 17.5 17.5 18.6193 17.5 20C17.5 21.3807 18.6193 22.5 20 22.5Z" stroke="#111111" stroke-width="1.5" stroke-linecap="round" stroke-linejoin="round"></path>
  <circle cx="20" cy="20" r="15" stroke="black" stroke-width="1.5" stroke-linecap="round" stroke-linejoin="round"></circle>
</svg>
