<svg xmlns="http://www.w3.org/2000/svg" width="99" height="27" viewBox="0 0 99 27" fill="none" id="svg-125916489_3585">
<path d="M57.5963 7.64284L63.234 5.5269L57.5963 3.3505V0.388184L67.2523 4.31779V6.736L57.5963 10.6656V7.64284Z" fill="#C9C9C9"/>
<path d="M4.27805 26.384C2.23888 26.384 0.55957 25.3563 0.55957 23.059V22.9381C0.55957 20.1571 2.95859 19.1898 5.89739 19.1898H7.27683V18.6457C7.27683 17.4971 6.79702 16.8321 5.59751 16.8321C4.51795 16.8321 3.97817 17.4366 3.9182 18.283H0.919423C1.15933 15.7439 3.13852 14.5348 5.77744 14.5348C8.47634 14.5348 10.4555 15.6834 10.4555 18.5248V26.1422H7.39678V24.8122C6.79702 25.6586 5.77744 26.384 4.27805 26.384ZM7.27683 22.394V21.3058H6.01734C4.45798 21.3058 3.6783 21.729 3.6783 22.7567V22.8776C3.6783 23.6635 4.1581 24.2076 5.23766 24.2076C6.31722 24.1472 7.27683 23.5426 7.27683 22.394ZM17.5926 26.384C14.4739 26.384 12.1948 24.4495 12.1948 20.5803V20.3989C12.1948 16.5298 14.5938 14.4743 17.5926 14.4743C20.1716 14.4743 22.2707 15.8043 22.5106 18.7666H19.5118C19.3319 17.6784 18.7322 16.953 17.6526 16.953C16.3331 16.953 15.3735 18.0412 15.3735 20.278V20.6408C15.3735 22.9381 16.2132 23.9658 17.6526 23.9658C18.7322 23.9658 19.5118 23.1799 19.6918 21.9103H22.5706C22.3907 24.5704 20.6514 26.384 17.5926 26.384ZM29.3478 26.384C26.2291 26.384 23.95 24.4495 23.95 20.5803V20.3989C23.95 16.5298 26.349 14.4743 29.3478 14.4743C31.9268 14.4743 34.0259 15.8043 34.2658 18.7666H31.267C31.0871 17.6784 30.4874 16.953 29.4078 16.953C28.0883 16.953 27.1287 18.0412 27.1287 20.278V20.6408C27.1287 22.9381 27.9684 23.9658 29.4078 23.9658C30.4874 23.9658 31.267 23.1799 31.447 21.9103H34.3258C34.1459 24.5704 32.4066 26.384 29.3478 26.384ZM41.163 26.384C37.9243 26.384 35.7052 24.4495 35.7052 20.6408V20.3989C35.7052 16.5902 38.0443 14.4743 41.103 14.4743C43.9219 14.4743 46.2609 16.0461 46.2609 19.8548V21.2453H38.8839C39.0039 23.3008 39.9035 24.0867 41.223 24.0867C42.4225 24.0867 43.0822 23.4217 43.3221 22.6358H46.2609C45.9011 24.7517 44.1018 26.384 41.163 26.384ZM38.9439 19.1294H43.1422C43.0822 17.4366 42.3025 16.7112 41.043 16.7112C40.0834 16.7716 39.1838 17.3157 38.9439 19.1294ZM48.1801 14.7766H51.3588V16.4693C51.8986 15.3811 53.0381 14.5348 54.7774 14.5348C56.8166 14.5348 58.196 15.8043 58.196 18.5248V26.1422H55.0173V19.0085C55.0173 17.6784 54.4776 17.0739 53.338 17.0739C52.2585 17.0739 51.3588 17.7389 51.3588 19.1898V26.1422H48.1801V14.7766ZM64.0137 11.3306V14.7766H66.1728V17.1343H64.0137V22.5149C64.0137 23.3613 64.3735 23.7844 65.1532 23.7844C65.633 23.7844 65.9329 23.724 66.2328 23.6031V26.0817C65.8729 26.2027 65.2132 26.3236 64.4335 26.3236C61.9745 26.3236 60.835 25.1749 60.835 22.8776V17.1343H59.5155V14.7766H60.835V12.6606L64.0137 11.3306ZM78.0479 26.1422H74.9292V24.4494C74.3894 25.5376 73.3099 26.384 71.6306 26.384C69.5914 26.384 68.092 25.1145 68.092 22.4544V14.7766H71.2707V22.0312C71.2707 23.3613 71.8105 23.9658 72.89 23.9658C73.9696 23.9658 74.8692 23.2403 74.8692 21.8499V14.7766H78.0479V26.1422ZM80.387 14.7766H83.5657V16.8925C84.2254 15.3811 85.305 14.6557 86.9843 14.6557V17.7994C84.8252 17.7994 83.5657 18.4644 83.5657 20.3385V26.2027H80.387V14.7766ZM93.4017 26.384C90.163 26.384 87.9439 24.4495 87.9439 20.6408V20.3989C87.9439 16.5902 90.2829 14.4743 93.3417 14.4743C96.1605 14.4743 98.4996 16.0461 98.4996 19.8548V21.2453H91.1826C91.3025 23.3008 92.2022 24.0867 93.5216 24.0867C94.7211 24.0867 95.3809 23.4217 95.6208 22.6358H98.5596C98.0798 24.7517 96.3405 26.384 93.4017 26.384ZM91.1226 19.1294H95.3809C95.3209 17.4366 94.5412 16.7112 93.2817 16.7112C92.3221 16.7716 91.4225 17.3157 91.1226 19.1294Z" fill="#C9C9C9"/>
</svg>