<svg xmlns="http://www.w3.org/2000/svg" width="103" height="31" viewBox="0 0 103 31" fill="none" id="svg432163156_6538">
<path d="M21.8048 7.54489V17.1908C21.8048 17.3471 21.7412 17.4971 21.6281 17.6077C21.515 17.7182 21.3616 17.7803 21.2017 17.7803H18.0868C17.9269 17.7803 17.7735 17.7181 17.6605 17.6076C17.5474 17.497 17.4838 17.3471 17.4837 17.1908V1.50126C17.4837 1.3449 17.5473 1.19495 17.6604 1.08439C17.7735 0.973824 17.9269 0.911711 18.0868 0.911711H20.9693C21.1292 0.911711 21.2826 0.973824 21.3957 1.08439C21.5088 1.19495 21.5724 1.3449 21.5724 1.50126V3.71076C21.5724 3.71076 22.6028 0.558971 25.6607 0.558971C25.6607 0.558971 28.6855 0.201552 29.9153 3.48331C29.9153 3.48331 30.9457 0.558971 34.0701 0.558971C34.0701 0.558971 38.7167 0.288893 38.7167 4.98889L38.752 7.57738V17.2233C38.752 17.3796 38.6885 17.5296 38.5754 17.6402C38.4623 17.7507 38.3089 17.8128 38.1489 17.8128H35.0338C34.8739 17.8128 34.7205 17.7506 34.6074 17.6401C34.4943 17.5295 34.4308 17.3796 34.4307 17.2233L34.4023 6.70008C34.4908 4.3172 32.5188 4.49058 32.5188 4.49058C30.0371 4.53399 30.2759 7.57738 30.2759 7.57738V17.2233C30.2759 17.3796 30.2123 17.5296 30.0992 17.6402C29.9861 17.7507 29.8327 17.8128 29.6728 17.8128H26.5579C26.398 17.8128 26.2446 17.7506 26.1316 17.6401C26.0185 17.5295 25.9549 17.3796 25.9548 17.2233V6.93819C25.9548 6.93819 26.137 4.46875 23.9209 4.46875C23.9209 4.46875 21.7274 4.18723 21.8048 7.54489ZM102.098 7.51604V17.1617C102.098 17.318 102.034 17.4679 101.921 17.5785C101.808 17.689 101.654 17.7512 101.495 17.7512L98.255 17.8126C98.0951 17.8125 97.9417 17.7504 97.8286 17.6398C97.7155 17.5293 97.652 17.3794 97.6519 17.223V6.93819C97.6519 6.93819 97.8341 4.46875 95.6182 4.46875C95.6182 4.46875 93.5018 4.36685 93.5018 8.23867V17.1905C93.5018 17.3469 93.4382 17.4968 93.3251 17.6073C93.212 17.7179 93.0587 17.78 92.8988 17.7801H89.7836C89.6237 17.78 89.4703 17.7179 89.3573 17.6073C89.2442 17.4968 89.1806 17.3469 89.1805 17.1905V1.50126C89.1806 1.34492 89.2442 1.19501 89.3573 1.08446C89.4703 0.973915 89.6237 0.91178 89.7836 0.911711H92.6661C92.826 0.911711 92.9794 0.973824 93.0925 1.08439C93.2056 1.19495 93.2692 1.3449 93.2692 1.50126V3.71076C93.2692 3.71076 94.2996 0.558971 97.3575 0.558971C97.3575 0.558971 100.633 0.0731415 101.737 3.42222C101.737 3.42222 102.098 4.11289 102.098 7.51604ZM79.607 0.493986C75.6236 0.493986 72.3942 3.77574 72.3942 9.29949C72.3942 14.1627 74.8871 18.105 79.607 18.105C84.061 18.105 86.8198 14.1627 86.8198 9.29949C86.8198 3.87322 83.5906 0.493986 79.607 0.493986ZM82.1212 9.49445C82.1212 11.574 81.8553 12.6787 81.8553 12.6787C81.4769 14.8771 79.8444 14.8802 79.6038 14.8685C79.344 14.8786 77.6977 14.8557 77.3571 12.6787C77.3571 12.6787 77.0912 11.574 77.0912 9.49445V9.14795C77.0912 7.06842 77.3571 5.96367 77.3571 5.96367C77.6977 3.78666 79.3443 3.76379 79.6038 3.77366C79.8444 3.76197 81.4769 3.76483 81.8553 5.96367C81.8553 5.96367 82.1212 7.06842 82.1212 9.14795V9.49445ZM70.5863 3.68892V1.43783C70.5862 1.2815 70.5226 1.13158 70.4095 1.02104C70.2964 0.91049 70.1431 0.848355 69.9832 0.848286H59.6871C59.5272 0.848286 59.3738 0.910399 59.2607 1.02096C59.1476 1.13152 59.084 1.28147 59.084 1.43783V3.67151C59.0841 3.82784 59.1477 3.97776 59.2608 4.0883C59.3738 4.19885 59.5272 4.26098 59.6871 4.26105H65.0577L58.7009 13.2758C58.7009 13.2758 58.4504 13.6413 58.4586 14.045V16.7871C58.4586 16.7871 58.4171 17.7273 59.5079 17.1817C59.5079 17.1817 61.4453 16.0374 64.6939 16.0374C64.6939 16.0374 67.9022 15.9984 70.0411 17.2802C70.0411 17.2802 70.929 17.6748 70.929 16.8071V14.4203C70.929 14.4203 71.0096 13.7887 70.1621 13.3943C70.1621 13.3943 67.7003 12.0728 64.4719 12.2896L70.5863 3.68892ZM15.0796 14.9745L14.1046 13.5235C13.7942 12.9818 13.8166 12.3751 13.8166 12.3751V5.68189C13.9495 -0.101799 7.39033 0.396508 7.39033 0.396508C1.55945 0.396508 0.698167 4.8324 0.698167 4.8324C0.455125 5.72426 1.16191 5.74584 1.16191 5.74584L4.01114 6.02839C4.01114 6.02839 4.49696 6.13705 4.67379 5.57168C4.67379 5.57168 5.04899 3.63641 7.14728 3.63641C9.43039 3.63641 9.40672 5.55192 9.40672 5.55192V7.1555C4.84902 7.30444 2.7369 8.54124 2.7369 8.54124C-0.0772266 10.1009 0.0998695 13.1986 0.0998695 13.1986C0.0998695 18.2456 5.01921 18.0288 5.01921 18.0288C8.16572 18.0288 10.0271 15.7762 10.0271 15.7762C10.581 16.7297 11.6005 17.6389 11.6005 17.6389C12.1105 18.1796 12.642 17.7257 12.642 17.7257L14.9467 15.798C15.4562 15.4294 15.0796 14.9745 15.0796 14.9745ZM6.55484 14.9121C5.07478 14.9121 4.52461 13.4744 4.77031 12.0614C5.01628 10.6483 6.29371 9.53786 9.40699 9.57035V10.4295C9.51734 14.1825 7.7868 14.9121 6.55484 14.9121ZM56.4728 14.9745L55.498 13.5235C55.1877 12.9818 55.2097 12.3751 55.2097 12.3751V5.68189C55.3427 -0.101799 48.7835 0.396508 48.7835 0.396508C42.9526 0.396508 42.0913 4.8324 42.0913 4.8324C41.8483 5.72426 42.5551 5.74584 42.5551 5.74584L45.4043 6.02839C45.4043 6.02839 45.8901 6.13705 46.0669 5.57168C46.0669 5.57168 46.4421 3.63641 48.5404 3.63641C50.8235 3.63641 50.7999 5.55192 50.7999 5.55192V7.1555C46.2424 7.30444 44.1301 8.54124 44.1301 8.54124C41.3159 10.1009 41.493 13.1986 41.493 13.1986C41.493 18.2456 46.4124 18.0288 46.4124 18.0288C49.5589 18.0288 51.4202 15.7762 51.4202 15.7762C51.9744 16.7297 52.9934 17.6389 52.9934 17.6389C53.5034 18.1796 54.0352 17.7257 54.0352 17.7257L56.3396 15.798C56.8493 15.4294 56.4728 14.9745 56.4728 14.9745ZM47.948 14.9121C46.4679 14.9121 45.9178 13.4744 46.1635 12.0614C46.4094 10.6483 47.6869 9.53786 50.7999 9.57035V10.4295C50.9105 14.1825 49.1802 14.9121 47.948 14.9121Z" fill="#B7B7B7"/>
<path d="M64.3161 27.6435C64.3161 27.6435 64.0555 28.0867 64.3756 28.1858C64.3756 28.1858 64.7373 28.3238 65.1883 27.9147C65.1883 27.9147 68.4773 25.106 68.5565 19.9924C68.5565 19.9924 68.5807 19.3538 68.3186 19.1791C68.3186 19.1791 67.2882 18.288 63.583 18.5591C63.583 18.5591 60.3532 18.7723 58.59 20.3025C58.59 20.3025 58.4315 20.438 58.4315 20.6121C58.4315 20.6121 58.3935 20.9883 59.3627 20.8253C59.3627 20.8253 62.5922 20.3795 64.5142 20.6121C64.5142 20.6121 65.5052 20.7283 65.7826 21.0579C65.7826 21.0579 66.2383 21.426 66.0004 22.6459C66.0004 22.6459 65.3462 25.7455 64.3161 27.6435Z" fill="#B7B7B7"/>
<path d="M63.6649 22.7377C63.6649 22.7377 64.1472 23.3485 63.3689 23.8754C63.3689 23.8754 55.0547 30.3766 41.0944 30.3766C41.0944 30.3766 26.7241 31.0696 14.7249 20.412C14.7249 20.412 14.3043 20.0509 14.5654 19.7153C14.5654 19.7153 14.7988 19.4065 15.4033 19.7424C15.4033 19.7424 26.6909 26.6181 41.5154 26.6181C41.5154 26.6181 51.8194 27.008 62.3893 22.589C62.3893 22.589 63.2314 22.1624 63.6649 22.7377Z" fill="#B7B7B7"/>
</svg>