<svg xmlns="http://www.w3.org/2000/svg" width="18" height="18" viewBox="0 0 18 18" fill="none"><path d="M12.375 15.75C12.9963 15.75 13.5 15.2463 13.5 14.625C13.5 14.0037 12.9963 13.5 12.375 13.5C11.7537 13.5 11.25 14.0037 11.25 14.625C11.25 15.2463 11.7537 15.75 12.375 15.75Z" stroke="white" stroke-width="1.5" stroke-linecap="round" stroke-linejoin="round"></path><path d="M6.375 15.75C6.99632 15.75 7.5 15.2463 7.5 14.625C7.5 14.0037 6.99632 13.5 6.375 13.5C5.75368 13.5 5.25 14.0037 5.25 14.625C5.25 15.2463 5.75368 15.75 6.375 15.75Z" stroke="white" stroke-width="1.5" stroke-linecap="round" stroke-linejoin="round"></path><path d="M2.7818 4.05H14.193C15.2263 4.05 15.9726 5.00292 15.6895 5.96087L14.4487 10.1609C14.2582 10.8054 13.6474 11.25 12.9522 11.25H6.08373C5.38852 11.25 4.77766 10.8054 4.58723 10.1609L2.7818 4.05ZM2.7818 4.05L2.25 2.25" stroke="white" stroke-width="1.5" stroke-linecap="round" stroke-linejoin="round"></path></svg>