<svg xmlns="http://www.w3.org/2000/svg" width="24" height="24" viewBox="0 0 24 24" fill="none"><path d="M9.71278 3.64026C10.2941 3.14489 10.5847 2.8972 10.8886 2.75195C11.5915 2.41602 12.4085 2.41602 13.1114 2.75195C13.4153 2.8972 13.7059 3.14489 14.2872 3.64026C14.8856 4.15023 15.4938 4.40761 16.2939 4.47146C17.0552 4.53222 17.4359 4.56259 17.7535 4.67477C18.488 4.93421 19.0658 5.51198 19.3252 6.24652C19.4374 6.5641 19.4678 6.94476 19.5285 7.70608C19.5924 8.50621 19.8498 9.11436 20.3597 9.71278C20.8551 10.2941 21.1028 10.5847 21.248 10.8886C21.584 11.5915 21.584 12.4085 21.248 13.1114C21.1028 13.4153 20.8551 13.7059 20.3597 14.2872C19.8391 14.8981 19.5911 15.5102 19.5285 16.2939C19.4678 17.0552 19.4374 17.4359 19.3252 17.7535C19.0658 18.488 18.488 19.0658 17.7535 19.3252C17.4359 19.4374 17.0552 19.4678 16.2939 19.5285C15.4938 19.5924 14.8856 19.8498 14.2872 20.3597C13.7059 20.8551 13.4153 21.1028 13.1114 21.248C12.4085 21.584 11.5915 21.584 10.8886 21.248C10.5847 21.1028 10.2941 20.8551 9.71278 20.3597C9.10185 19.8391 8.48984 19.5911 7.70608 19.5285C6.94476 19.4678 6.5641 19.4374 6.24652 19.3252C5.51198 19.0658 4.93421 18.488 4.67477 17.7535C4.56259 17.4359 4.53222 17.0552 4.47146 16.2939C4.40761 15.4938 4.15023 14.8856 3.64026 14.2872C3.14489 13.7059 2.8972 13.4153 2.75195 13.1114C2.41602 12.4085 2.41602 11.5915 2.75195 10.8886C2.8972 10.5847 3.14489 10.2941 3.64026 9.71278C4.16089 9.10185 4.40892 8.48984 4.47146 7.70608C4.53222 6.94476 4.56259 6.5641 4.67477 6.24652C4.93421 5.51198 5.51198 4.93421 6.24652 4.67477C6.5641 4.56259 6.94476 4.53222 7.70608 4.47146C8.50621 4.40761 9.11436 4.15023 9.71278 3.64026Z" fill="#1F72F2" stroke="#1F72F2" stroke-width="1.5" stroke-linecap="round" stroke-linejoin="round"></path><path d="M8.66602 12.6302L10.1718 14.3512C10.5952 14.835 11.3587 14.7994 11.7351 14.2781L15.3327 9.29688" stroke="white" stroke-width="1.5" stroke-linecap="round" stroke-linejoin="round"></path></svg>