<?xml version="1.0" encoding="UTF-8"?>
<svg xmlns="http://www.w3.org/2000/svg" width="24" height="24" viewBox="0 0 24 24" fill="none">
  <path d="M10.11 3.9005C10.1611 3.38929 10.5912 3 11.105 3H12.895C13.4088 3 13.8389 3.38929 13.89 3.9005L13.9233 4.23269C14.712 4.42735 15.4547 4.739 16.1318 5.1482L16.3908 4.93631C16.7884 4.61099 17.3678 4.63989 17.7311 5.00316L18.9969 6.2689C19.3601 6.63218 19.389 7.21163 19.0637 7.60925L18.8518 7.86823C19.261 8.54533 19.5727 9.28799 19.7673 10.0767L20.0995 10.1099C20.6107 10.1611 21 10.5912 21 11.105V12.895C21 13.4088 20.6107 13.8389 20.0995 13.89L19.7673 13.9233C19.5727 14.712 19.261 15.4547 18.8518 16.1318L19.0637 16.3908C19.389 16.7884 19.3601 17.3679 18.9968 17.7311L17.7311 18.9969C17.3678 19.3601 16.7884 19.389 16.3908 19.0637L16.1318 18.8518C15.4547 19.261 14.712 19.5727 13.9233 19.7673L13.89 20.0995C13.8389 20.6107 13.4088 21 12.895 21H11.105C10.5912 21 10.1611 20.6107 10.11 20.0995L10.0767 19.7673C9.28799 19.5727 8.54533 19.261 7.86822 18.8518L7.60929 19.0637C7.21167 19.389 6.63222 19.3601 6.26894 18.9968L5.00321 17.7311C4.63993 17.3678 4.61103 16.7884 4.93636 16.3907L5.1482 16.1318C4.73901 15.4547 4.42735 14.712 4.23269 13.9233L3.9005 13.89C3.38929 13.8389 3 13.4088 3 12.895V11.105C3 10.5912 3.38929 10.1611 3.9005 10.11L4.23269 10.0767C4.42734 9.28799 4.73899 8.54533 5.14818 7.86822L4.93632 7.60929C4.611 7.21167 4.6399 6.63222 5.00317 6.26894L6.26891 5.00321C6.63219 4.63993 7.21164 4.61103 7.60926 4.93636L7.86818 5.1482C8.5453 4.73901 9.28797 4.42735 10.0767 4.23269L10.11 3.9005Z" stroke="white" stroke-width="1.5" stroke-miterlimit="1" stroke-linecap="round" stroke-linejoin="round"></path>
  <circle cx="2.5" cy="2.5" r="2.5" transform="matrix(1 0 0 -1 9.5 14.5)" stroke="white" stroke-width="1.5" stroke-miterlimit="1" stroke-linecap="round" stroke-linejoin="round"></circle>
</svg>
