<svg xmlns="http://www.w3.org/2000/svg" width="96" height="32" viewBox="0 0 96 32" fill="none"><g clip-path="url(#clip0_1422_15059)"><path d="M36.1429 8.51562H30.8927C30.5335 8.51562 30.2279 8.77664 30.1719 9.1313L28.0485 22.5941C28.0063 22.8597 28.212 23.0992 28.4814 23.0992H30.9879C31.3472 23.0992 31.6527 22.8382 31.7088 22.4827L32.2814 18.8516C32.3367 18.4962 32.643 18.2352 33.0015 18.2352H34.6635C38.1219 18.2352 40.1179 16.5616 40.6391 13.2453C40.8741 11.7944 40.6491 10.6544 39.9697 9.85599C39.2235 8.9793 37.9001 8.51562 36.1429 8.51562ZM36.7486 13.4326C36.4614 15.3165 35.0221 15.3165 33.6303 15.3165H32.838L33.3938 11.7982C33.4268 11.5856 33.6111 11.429 33.826 11.429H34.1891C35.1372 11.429 36.0315 11.429 36.4937 11.9694C36.7693 12.2918 36.8537 12.7709 36.7486 13.4326Z" fill="#253B80"></path><path d="M51.8366 13.3719H49.3225C49.1083 13.3719 48.9233 13.5285 48.8903 13.7412L48.7789 14.4444L48.6031 14.1895C48.0589 13.3996 46.8452 13.1355 45.6338 13.1355C42.8556 13.1355 40.4827 15.2397 40.0205 18.1914C39.7802 19.6638 40.1219 21.0717 40.9571 22.0536C41.7232 22.9564 42.8195 23.3325 44.1238 23.3325C46.3623 23.3325 47.6036 21.8932 47.6036 21.8932L47.4916 22.5917C47.4493 22.8589 47.6551 23.0984 47.923 23.0984H50.1876C50.5477 23.0984 50.8517 22.8374 50.9085 22.482L52.2673 13.8771C52.3103 13.6122 52.1053 13.3719 51.8366 13.3719ZM48.3322 18.2651C48.0896 19.7014 46.9496 20.6656 45.4956 20.6656C44.7655 20.6656 44.1821 20.4315 43.8075 19.9878C43.4359 19.5471 43.2947 18.9199 43.4129 18.2214C43.6394 16.7973 44.7985 15.8016 46.2303 15.8016C46.9442 15.8016 47.5246 16.0389 47.9069 16.4864C48.2899 16.9386 48.4419 17.5696 48.3322 18.2651Z" fill="#253B80"></path><path d="M65.2264 13.3719H62.7C62.4589 13.3719 62.2324 13.4917 62.0958 13.692L58.6113 18.8247L57.1343 13.8924C57.0414 13.5838 56.7566 13.3719 56.4342 13.3719H53.9515C53.6498 13.3719 53.4402 13.6667 53.5362 13.9507L56.319 22.1173L53.7028 25.8106C53.4971 26.1015 53.7043 26.5015 54.0598 26.5015H56.5831C56.8226 26.5015 57.0468 26.3848 57.1827 26.1883L65.5857 14.059C65.7868 13.7688 65.5803 13.3719 65.2264 13.3719Z" fill="#253B80"></path><path d="M73.5921 8.51644H68.3412C67.9827 8.51644 67.6771 8.77745 67.6211 9.13212L65.4977 22.5949C65.4555 22.8605 65.6612 23.1 65.9291 23.1H68.6237C68.8739 23.1 69.0881 22.9173 69.1273 22.6686L69.7299 18.8524C69.7852 18.497 70.0915 18.236 70.45 18.236H72.1112C75.5704 18.236 77.5656 16.5625 78.0876 13.2461C78.3233 11.7952 78.0968 10.6552 77.4174 9.8568C76.672 8.98012 75.3493 8.51644 73.5921 8.51644ZM74.1978 13.4334C73.9114 15.3173 72.472 15.3173 71.0795 15.3173H70.288L70.8446 11.799C70.8776 11.5864 71.0603 11.4298 71.276 11.4298H71.6391C72.5864 11.4298 73.4815 11.4298 73.9437 11.9702C74.2193 12.2926 74.303 12.7717 74.1978 13.4334Z" fill="#179BD7"></path><path d="M89.285 13.3728H86.7724C86.5567 13.3728 86.3732 13.5294 86.3409 13.742L86.2296 14.4452L86.0531 14.1903C85.5088 13.4004 84.2958 13.1363 83.0845 13.1363C80.3062 13.1363 77.9341 15.2405 77.472 18.1922C77.2325 19.6646 77.5725 21.0726 78.4078 22.0544C79.1754 22.9572 80.2702 23.3334 81.5744 23.3334C83.813 23.3334 85.0543 21.894 85.0543 21.894L84.9422 22.5926C84.9 22.8597 85.1057 23.0992 85.3752 23.0992H87.6391C87.9976 23.0992 88.3031 22.8382 88.3592 22.4828L89.7187 13.8779C89.7602 13.613 89.5544 13.3728 89.285 13.3728ZM85.7805 18.2659C85.5395 19.7022 84.398 20.6665 82.944 20.6665C82.2154 20.6665 81.6305 20.4323 81.2558 19.9886C80.8843 19.5479 80.7446 18.9208 80.8613 18.2222C81.0893 16.7981 82.2469 15.8025 83.6786 15.8025C84.3926 15.8025 84.9729 16.0397 85.3552 16.4872C85.7398 16.9394 85.8918 17.5704 85.7805 18.2659Z" fill="#179BD7"></path><path d="M92.2489 8.88565L90.0941 22.5948C90.0518 22.8604 90.2576 23.0999 90.5255 23.0999H92.6919C93.0519 23.0999 93.3574 22.8389 93.4127 22.4835L95.5376 9.02152C95.5799 8.75591 95.3741 8.51562 95.1062 8.51562H92.6804C92.4662 8.51639 92.2819 8.673 92.2489 8.88565Z" fill="#179BD7"></path><path d="M6.24781 25.7119L6.6493 23.1617L5.75496 23.141H1.48438L4.45221 4.32292C4.46143 4.26612 4.49136 4.21315 4.53512 4.17553C4.57888 4.13791 4.63492 4.11719 4.69326 4.11719H11.8941C14.2846 4.11719 15.9344 4.61464 16.7957 5.5965C17.1995 6.05711 17.4567 6.53844 17.581 7.06814C17.7115 7.62393 17.7138 8.28797 17.5864 9.09787L17.5772 9.15699V9.67593L17.981 9.9047C18.3211 10.0851 18.5913 10.2916 18.7986 10.5281C19.144 10.9219 19.3674 11.4224 19.4618 12.0158C19.5593 12.6261 19.5271 13.3523 19.3674 14.1745C19.1832 15.1203 18.8853 15.944 18.483 16.618C18.113 17.2391 17.6417 17.7542 17.082 18.1534C16.5477 18.5326 15.9129 18.8205 15.1951 19.0047C14.4996 19.1859 13.7066 19.2773 12.8368 19.2773H12.2764C11.8756 19.2773 11.4864 19.4216 11.1809 19.6803C10.8746 19.9444 10.6719 20.3052 10.6097 20.6998L10.5675 20.9293L9.85819 25.4241L9.82595 25.5891C9.8175 25.6413 9.80292 25.6674 9.78142 25.6851C9.76223 25.7012 9.7346 25.7119 9.70773 25.7119H6.24781Z" fill="#253B80"></path><path d="M18.3607 9.21875C18.3392 9.35616 18.3147 9.49665 18.287 9.64097C17.3374 14.5165 14.0886 16.2008 9.93933 16.2008H7.82668C7.31925 16.2008 6.89165 16.5693 6.81258 17.0698L5.73093 23.9297L5.42462 25.8743C5.37319 26.2028 5.62652 26.4992 5.95816 26.4992H9.70519C10.1489 26.4992 10.5258 26.1767 10.5957 25.7392L10.6325 25.5488L11.338 21.0717L11.3833 20.826C11.4524 20.3869 11.8301 20.0645 12.2738 20.0645H12.8342C16.4646 20.0645 19.3065 18.5906 20.1371 14.3253C20.4841 12.5436 20.3045 11.0558 19.3864 10.0095C19.1085 9.69394 18.7638 9.43216 18.3607 9.21875Z" fill="#179BD7"></path><path d="M17.3673 8.82522C17.2222 8.783 17.0725 8.74462 16.919 8.71007C16.7647 8.67629 16.6065 8.64635 16.4438 8.62025C15.8742 8.52813 15.25 8.48438 14.5814 8.48438H8.93743C8.79848 8.48438 8.66644 8.51585 8.54822 8.57266C8.28797 8.69779 8.09452 8.94421 8.04769 9.24591L6.84705 16.8505L6.8125 17.0724C6.89157 16.5718 7.31917 16.2034 7.8266 16.2034H9.93925C14.0885 16.2034 17.3373 14.5183 18.287 9.64357C18.3154 9.49924 18.3392 9.35876 18.3607 9.22134C18.1204 9.09391 17.8601 8.9849 17.5799 8.89201C17.5108 8.86898 17.4394 8.84672 17.3673 8.82522Z" fill="#222D65"></path><path d="M8.0484 9.24628C8.09523 8.94458 8.28869 8.69816 8.54893 8.5738C8.66792 8.51699 8.79919 8.48551 8.93814 8.48551H14.5821C15.2507 8.48551 15.8749 8.52927 16.4445 8.62139C16.6072 8.64749 16.7654 8.67743 16.9197 8.71121C17.0732 8.74576 17.2229 8.78414 17.368 8.82636C17.4402 8.84786 17.5116 8.87012 17.5814 8.89238C17.8616 8.98527 18.1219 9.09505 18.3621 9.22171C18.6446 7.41998 18.3598 6.19323 17.3857 5.0824C16.3117 3.85949 14.3733 3.33594 11.8929 3.33594H4.69212C4.18546 3.33594 3.75325 3.70442 3.67495 4.20572L0.675637 23.2172C0.616526 23.5934 0.906708 23.9327 1.28594 23.9327H5.73156L6.84776 16.8509L8.0484 9.24628Z" fill="#253B80"></path></g><defs><clipPath id="clip0_1422_15059"><rect width="95.3333" height="32" fill="white" transform="translate(0.667969)"></rect></clipPath></defs></svg>