<?xml version="1.0" encoding="UTF-8"?>
<svg xmlns="http://www.w3.org/2000/svg" width="32" height="32" viewBox="0 0 32 32" fill="none">
  <path d="M2.66797 16.0026C2.66797 10.9743 2.66797 8.46013 4.62059 6.89803C6.57321 5.33594 9.71591 5.33594 16.0013 5.33594C22.2867 5.33594 25.4294 5.33594 27.382 6.89803C29.3346 8.46013 29.3346 10.9743 29.3346 16.0026C29.3346 21.0309 29.3346 23.5451 27.382 25.1072C25.4294 26.6693 22.2867 26.6693 16.0013 26.6693C9.71591 26.6693 6.57321 26.6693 4.62059 25.1072C2.66797 23.5451 2.66797 21.0309 2.66797 16.0026Z" stroke="#1F72F2" stroke-width="1.5" stroke-linecap="round" stroke-linejoin="round"></path>
  <path d="M27.5562 7.07812L21.1222 13.0633C18.6734 15.1041 17.449 16.1244 16.0008 16.1244C14.5526 16.1244 13.3281 15.104 10.8793 13.0633L4.44531 7.07812" stroke="#1F72F2" stroke-width="1.5" stroke-linecap="round" stroke-linejoin="round"></path>
</svg>
