<?xml version="1.0" encoding="UTF-8"?>
<svg xmlns="http://www.w3.org/2000/svg" width="29" height="28" viewBox="0 0 29 28" fill="none">
  <path d="M2.83594 13.9974C2.83594 9.59762 2.83594 7.39773 4.54448 6.0309C6.25302 4.66406 9.00288 4.66406 14.5026 4.66406C20.0023 4.66406 22.7522 4.66406 24.4607 6.0309C26.1693 7.39773 26.1693 9.59762 26.1693 13.9974C26.1693 18.3972 26.1693 20.5971 24.4607 21.9639C22.7522 23.3307 20.0023 23.3307 14.5026 23.3307C9.00288 23.3307 6.25302 23.3307 4.54448 21.9639C2.83594 20.5971 2.83594 18.3972 2.83594 13.9974Z" fill="#0A65FC" stroke="#0A65FC" stroke-width="1.5" stroke-linecap="round" stroke-linejoin="round"></path>
  <path d="M24.6126 6.19531L18.9829 11.4324C16.8402 13.218 15.7688 14.1108 14.5016 14.1108C13.2345 14.1108 12.1631 13.218 10.0203 11.4324L4.39062 6.19531" stroke="white" stroke-width="1.5" stroke-linecap="round" stroke-linejoin="round"></path>
</svg>
