<?xml version="1.0" encoding="UTF-8"?>
<svg xmlns="http://www.w3.org/2000/svg" width="72" height="72" viewBox="0 0 72 72" fill="none">
  <rect width="72" height="72" rx="36" fill="#1F72F2"></rect>
  <path d="M28.4999 18V46.7995C28.4999 47.7451 28.3059 48.6814 27.929 49.555C27.5521 50.4286 26.9997 51.2224 26.3033 51.891C25.6068 52.5596 24.78 53.09 23.8701 53.4519C22.9602 53.8138 21.9849 54 21 54V25.1997C21 24.2541 21.194 23.3178 21.5709 22.4443C21.9478 21.5707 22.5003 20.777 23.1967 20.1084C23.8932 19.4399 24.72 18.9096 25.6299 18.5478C26.5398 18.186 27.5151 17.9999 28.4999 18Z" fill="white"></path>
  <path d="M51 18C51 18.9455 50.806 19.8818 50.429 20.7554C50.0521 21.6289 49.4997 22.4227 48.8032 23.0912C48.1068 23.7598 47.28 24.2901 46.3701 24.6519C45.4601 25.0136 44.4849 25.1998 43.5 25.1997H28.502V18H51Z" fill="white"></path>
  <path d="M43.5 32.3984C43.5 34.3079 42.71 36.1392 41.3036 37.4894C39.8973 38.8396 37.9899 39.5981 36.001 39.5981H28.502V32.3984H43.5Z" fill="white"></path>
</svg>
