<svg xmlns="http://www.w3.org/2000/svg" width="29" height="28" viewBox="0 0 29 28" fill="none"><g clip-path="url(#clip0_4191_51711)"><path d="M0.5 14C0.5 10.287 1.975 6.72601 4.60051 4.10051C7.22601 1.475 10.787 0 14.5 0C18.213 0 21.774 1.475 24.3995 4.10051C27.025 6.72601 28.5 10.287 28.5 14C28.5 17.713 27.025 21.274 24.3995 23.8995C21.774 26.525 18.213 28 14.5 28C10.787 28 7.22601 26.525 4.60051 23.8995C1.975 21.274 0.5 17.713 0.5 14Z" fill="#EBFF9E"></path><path d="M19.75 9.625L12.75 18.375L9.25 14.6248" stroke="#007456" stroke-width="1.5" stroke-linecap="round"></path><mask style="mask-type:alpha" maskUnits="userSpaceOnUse" x="0" y="0" width="29" height="28"><path d="M0.5 14C0.5 10.287 1.975 6.72601 4.60051 4.10051C7.22601 1.475 10.787 0 14.5 0C18.213 0 21.774 1.475 24.3995 4.10051C27.025 6.72601 28.5 10.287 28.5 14C28.5 17.713 27.025 21.274 24.3995 23.8995C21.774 26.525 18.213 28 14.5 28C10.787 28 7.22601 26.525 4.60051 23.8995C1.975 21.274 0.5 17.713 0.5 14Z" fill="#85EFAC"></path></mask><g mask="url(#mask0_4191_51711)"><path d="M-1.25 14C-1.25 9.82284 0.40937 5.81677 3.36307 2.86307C6.31677 -0.0906296 10.3228 -1.75 14.5 -1.75C18.6772 -1.75 22.6832 -0.0906296 25.6369 2.86307C28.5906 5.81677 30.25 9.82284 30.25 14H26.75C26.75 10.7511 25.4594 7.63526 23.1621 5.33794C20.8647 3.04062 17.7489 1.75 14.5 1.75C11.2511 1.75 8.13526 3.04062 5.83794 5.33794C3.54062 7.63526 2.25 10.7511 2.25 14H-1.25ZM30.25 15.75C30.25 19.9272 28.5906 23.9332 25.6369 26.8869C22.6832 29.8406 18.6772 31.5 14.5 31.5C10.3228 31.5 6.31677 29.8406 3.36307 26.8869C0.40937 23.9332 -1.25 19.9272 -1.25 15.75L2.25 14C2.25 19.7995 7.7345 24.5 14.5 24.5C21.2655 24.5 26.75 19.7995 26.75 14L30.25 15.75ZM14.5 31.5C10.3228 31.5 6.31677 29.8406 3.36307 26.8869C0.40937 23.9332 -1.25 19.9272 -1.25 15.75V14C-1.25 9.82284 0.40937 5.81677 3.36307 2.86307C6.31677 -0.0906296 10.3228 -1.75 14.5 -1.75V1.75C11.2511 1.75 8.13526 3.04062 5.83794 5.33794C3.54062 7.63526 2.25 10.7511 2.25 14C2.25 19.7995 7.7345 24.5 14.5 24.5V31.5ZM14.5 -1.75C18.6772 -1.75 22.6832 -0.0906296 25.6369 2.86307C28.5906 5.81677 30.25 9.82284 30.25 14V15.75C30.25 19.9272 28.5906 23.9332 25.6369 26.8869C22.6832 29.8406 18.6772 31.5 14.5 31.5V24.5C21.2655 24.5 26.75 19.7995 26.75 14C26.75 10.7511 25.4594 7.63526 23.1621 5.33794C20.8647 3.04062 17.7489 1.75 14.5 1.75V-1.75Z" fill="#125644"></path></g></g><defs><clipPath><rect width="28" height="28" fill="white" transform="translate(0.5)"></rect></clipPath></defs></svg>