<svg xmlns="http://www.w3.org/2000/svg" width="96" height="26" viewBox="0 0 96 26" fill="none" id="svg1193531426_2445">
<path d="M94.5122 22.6396C94.5122 21.2495 93.4744 20.2316 92.0447 20.2316C90.6173 20.2316 89.5783 21.2495 89.5783 22.6396C89.5783 24.0275 90.6173 25.0438 92.0447 25.0438C93.4744 25.0438 94.5122 24.0258 94.5122 22.6396ZM91.3963 22.7631V24.336H90.8614V20.8677H92.1907C92.9697 20.8677 93.3271 21.1908 93.3271 21.8208C93.3271 22.2088 93.051 22.5161 92.6954 22.5607V22.5753C93.0041 22.6222 93.1175 22.8838 93.1811 23.3626C93.2298 23.6728 93.2945 24.2108 93.4108 24.3371H92.7779C92.6307 24.0112 92.6455 23.5499 92.5321 23.1635C92.4383 22.8697 92.2733 22.7626 91.9188 22.7626H91.3993V22.7643L91.3963 22.7631ZM92.0595 22.3148C92.579 22.3148 92.7275 22.052 92.7275 21.8202C92.7275 21.5461 92.579 21.3296 92.0595 21.3296H91.3963V22.3159H92.0595V22.3148ZM88.9899 22.6396C88.9899 20.9269 90.4214 19.7691 92.0423 19.7691C93.6679 19.7691 95.0977 20.9269 95.0977 22.6396C95.0977 24.349 93.6685 25.5079 92.0423 25.5079C90.4214 25.5079 88.9899 24.349 88.9899 22.6396Z" fill="#B7B7B7"/>
<path d="M78.4113 25.0077L74.8923 21.2591L71.4041 25.0077H64.0643L71.2378 17.3526L64.0643 9.69524H71.6332L75.1879 13.4151L78.6084 9.69524H85.9126L78.7747 17.3204L86.0117 25.0077H78.4113ZM49.9702 25.0077V0.885743H64.0643V6.26246H55.9402V9.69524H64.0643V14.8689H55.9402V19.6174H64.0643V25.0077H49.9702Z" fill="#B7B7B7"/>
<path d="M44.0222 0.885742V10.7577H43.9563C42.64 9.32077 40.9947 8.81999 39.0871 8.81999C35.1779 8.81999 32.233 11.3459 31.1993 14.6828C30.0201 11.0053 26.9796 8.75118 22.472 8.75118C18.8104 8.75118 15.9201 10.3116 14.4102 12.8551V9.69468H6.84308V6.26303H15.1019V0.886872H0.0976562V25.0077H6.84308V14.8689H13.5665C13.3594 15.6486 13.2559 16.4498 13.2584 17.2539C13.2584 22.2832 17.3047 25.8175 22.4708 25.8175C26.8134 25.8175 29.6775 23.8792 31.191 20.3506H25.4098C24.6284 21.4125 24.0347 21.726 22.4714 21.726C20.6593 21.726 19.0954 20.2237 19.0954 18.445H30.8668C31.3774 22.4406 34.6548 25.8857 39.153 25.8857C41.0933 25.8857 42.8697 24.9795 43.9557 23.4483H44.021V25.0111H49.9684V0.886872H44.0222V0.885742ZM19.283 14.9411C19.6589 13.4083 20.9099 12.4067 22.4714 12.4067C24.1908 12.4067 25.3783 13.3773 25.69 14.9411H19.283ZM40.4129 21.3369C38.2214 21.3369 36.8594 19.3975 36.8594 17.3718C36.8594 15.2062 38.0445 13.1258 40.4129 13.1258C42.8703 13.1258 43.8494 15.2073 43.8494 17.3718C43.8494 19.4234 42.8127 21.3369 40.4129 21.3369Z" fill="#B7B7B7"/>
</svg>