<svg width="126" height="32" viewBox="0 0 126 32" fill="none" xmlns="http://www.w3.org/2000/svg">
<path d="M21.9369 3.75488C19.463 -0.424882 13.4513 -1.37726 9.74411 2.23475C9.169 2.795 8.72528 3.47325 8.40102 4.22757C8.1334 5.06451 8.00042 5.99108 8.00042 6.95189C8.00042 8.44415 8.31742 10.0146 8.90304 11.4357C9.48865 12.8578 10.3423 14.1276 11.3874 15.0372C12.085 15.6443 12.8631 16.0926 13.7115 16.3384C14.1962 16.4797 14.7051 16.5549 15.2413 16.5549C15.8811 16.5549 16.5608 16.4474 17.2846 16.2065L17.6784 17.2689C16.8394 17.5485 16.0225 17.6804 15.2413 17.6804C14.5048 17.6809 13.8004 17.563 13.1417 17.3465C12.4814 17.1306 11.8675 16.8167 11.3039 16.427C10.1763 15.6483 9.24956 14.5715 8.5336 13.3425C8.05621 12.5224 7.67245 11.6337 7.38971 10.7132C7.01176 9.48609 6.81143 8.20283 6.81143 6.95189C6.81143 6.47076 6.84088 5.99501 6.90242 5.52832C-1.17228 10.0106 -0.587728 18.1711 0.89839 22.7374C2.2399 26.8605 3.62037 31.8617 3.62037 31.8617H9.40393C9.40393 31.8617 9.40393 29.7146 9.83821 26.8605C10.2377 24.2297 14.8469 24.2401 15.1876 26.8171C15.3447 28.0074 15.3011 31.8617 15.3011 31.8617H21.1977C21.1977 31.8617 21.9921 25.8508 22.6728 21.5566C23.0881 18.9348 26.8599 18.9562 26.1881 21.3421C25.2802 24.562 25.4711 28.3059 26.7001 30.7456C27.1423 31.6233 27.4955 32.304 28.1752 31.8607C28.8544 31.4168 29.6765 30.7013 30.2137 30.5292C30.751 30.3575 29.8847 29.3836 29.7033 28.4268C28.9095 24.2401 31.0643 22.8443 31.8581 17.2629C32.8953 9.96877 28.1099 5.38501 21.9369 3.75488ZM24.8649 13.8291C24.4438 13.8291 24.1021 13.5062 24.1021 13.1076C24.1021 12.7085 24.4438 12.3856 24.8649 12.3856C25.286 12.3856 25.6272 12.7085 25.6272 13.1076C25.6272 13.5062 25.286 13.8291 24.8649 13.8291Z" fill="white"/>
<path d="M52.2385 0V4.33379H50.0178C47.0569 4.33379 46.4038 6.61012 46.4038 9.23666V11.119H50.9758V14.8399H46.4038V31.5622H41.8753V14.8399H38V11.119H41.8753V9.23666C41.8753 3.63338 44.4443 0 50.0178 0H52.2385Z" fill="white"/>
<path d="M72.0001 21.275C72.0001 21.7565 72.0001 22.4569 71.9566 22.9384H55.8022C56.2812 26.0903 58.7196 28.0602 62.0288 28.0602C64.293 28.0602 66.5137 27.0096 67.5588 25.1272L71.2164 26.7469C69.4746 30.3803 65.5993 32 61.8111 32C56.0635 32 51.3608 27.7538 51.3608 21.275C51.3608 14.7962 56.0635 10.6813 61.8111 10.6813C67.5588 10.6813 72.0001 14.7962 72.0001 21.275ZM55.8022 19.6553H67.6023C67.1233 16.4596 64.9026 14.6211 61.8111 14.6211C58.676 14.6211 56.2812 16.5034 55.8022 19.6553Z" fill="white"/>
<path d="M74.5576 31.5622V0H79.0425V31.5622H74.5576Z" fill="white"/>
<path d="M98.9882 31.5622V28.6293C97.5948 30.8618 94.7645 32 92.1519 32C86.7091 32 81.8323 27.8413 81.8323 21.3187C81.8323 14.7962 86.7091 10.6813 92.1519 10.6813C94.5903 10.6813 97.5948 11.6881 98.9882 14.0082V11.119H103.43V31.5622H98.9882ZM86.4478 21.275C86.4478 25.0397 89.3217 27.6224 92.6745 27.6224C95.9837 27.6224 98.9446 25.3023 98.9446 21.275C98.9446 17.2914 95.7224 15.0588 92.6745 15.0588C89.3217 15.0588 86.4478 17.5103 86.4478 21.275Z" fill="white"/>
<path d="M112.023 20.5746V31.5622H107.538V11.119H112.023V14.1833C113.198 11.8632 116.029 10.6813 118.249 10.6813C123.17 10.6813 126 13.8331 126 19.6553V31.5622H121.515V20.1806C121.515 16.8974 119.86 15.1026 117.248 15.1026C114.592 15.1026 112.023 16.5472 112.023 20.5746Z" fill="white"/>
</svg>
