<svg xmlns="http://www.w3.org/2000/svg" width="76" height="26" viewBox="0 0 76 26" fill="none"><path d="M3.296 25V9.672C3.296 7.85867 3.584 6.26933 4.16 4.904C4.736 3.51733 5.54667 2.44 6.592 1.672C7.65867 0.882666 8.90667 0.487999 10.336 0.487999C11.6587 0.487999 12.6933 0.797332 13.44 1.416C14.208 2.01333 14.592 2.728 14.592 3.56C14.592 4.2 14.3787 4.72267 13.952 5.128C13.5467 5.512 13.024 5.704 12.384 5.704C11.872 5.704 11.4133 5.55467 11.008 5.256C10.624 4.95733 10.432 4.50933 10.432 3.912C10.432 3.54933 10.496 3.272 10.624 3.08C10.752 2.888 10.88 2.728 11.008 2.6C11.136 2.472 11.2 2.312 11.2 2.12C11.2 1.71467 10.848 1.512 10.144 1.512C9.48267 1.512 8.90667 1.74667 8.416 2.216C7.94667 2.664 7.712 3.54933 7.712 4.872V25H3.296ZM0.736 25V24.04H10.944V25H0.736ZM0.64 11.88V10.92H11.168V11.88H0.64ZM20.1275 25.416C19.0182 25.416 17.9728 25.2027 16.9915 24.776C16.0315 24.3493 15.1782 23.7733 14.4315 23.048C13.7062 22.3227 13.1408 21.5013 12.7355 20.584C12.3302 19.6667 12.1275 18.7067 12.1275 17.704C12.1275 16.4667 12.4475 15.2827 13.0875 14.152C13.7275 13 14.6342 12.0613 15.8075 11.336C16.9808 10.5893 18.3568 10.216 19.9355 10.216C21.2155 10.216 22.3568 10.472 23.3595 10.984C24.3835 11.496 25.1835 12.232 25.7595 13.192C26.3568 14.1307 26.6555 15.2507 26.6555 16.552V16.904H15.5515V15.944H22.1435V13.992C22.1435 12.1573 21.3755 11.24 19.8395 11.24C19.1782 11.24 18.6448 11.4427 18.2395 11.848C17.8342 12.2533 17.5355 12.9467 17.3435 13.928C17.1728 14.888 17.0875 16.2107 17.0875 17.896C17.0875 19.624 17.1835 20.9573 17.3755 21.896C17.5675 22.8133 17.8982 23.4427 18.3675 23.784C18.8368 24.1253 19.4768 24.296 20.2875 24.296C21.4182 24.296 22.4422 24.0187 23.3595 23.464C24.2982 22.9093 25.0768 21.9493 25.6955 20.584H26.7515C26.3035 22.056 25.4822 23.2293 24.2875 24.104C23.1142 24.9787 21.7275 25.416 20.1275 25.416ZM31.107 24.52V1.384H35.523V24.52H31.107ZM28.515 25V24.04H37.923V25H28.515ZM28.515 1.832V0.872H35.523V1.832H28.515ZM44.0703 25.384C42.8116 25.384 41.7769 25.0533 40.9663 24.392C40.1556 23.7307 39.7503 22.856 39.7503 21.768C39.7503 20.744 40.1129 19.8587 40.8383 19.112C41.5849 18.3653 42.6303 17.8 43.9743 17.416C45.3183 17.0107 46.8863 16.808 48.6783 16.808V13.064C48.6783 12.5093 48.4756 12.072 48.0703 11.752C47.6649 11.432 47.1316 11.272 46.4703 11.272C45.9156 11.272 45.4356 11.3787 45.0303 11.592C44.6463 11.8053 44.4543 12.0827 44.4543 12.424C44.4543 12.7013 44.5609 12.9467 44.7743 13.16C45.0089 13.352 45.1263 13.672 45.1263 14.12C45.1263 14.6747 44.9023 15.1653 44.4543 15.592C44.0276 16.0187 43.5049 16.232 42.8863 16.232C42.2676 16.232 41.7556 16.0187 41.3503 15.592C40.9449 15.1653 40.7423 14.6427 40.7423 14.024C40.7423 13.2987 41.0196 12.648 41.5743 12.072C42.1289 11.496 42.8969 11.048 43.8783 10.728C44.8596 10.3867 45.9689 10.216 47.2063 10.216C48.9129 10.216 50.3209 10.5253 51.4303 11.144C52.5396 11.7413 53.0943 12.5307 53.0943 13.512V22.824C53.0943 23.016 53.1583 23.1867 53.2863 23.336C53.4356 23.4853 53.6169 23.56 53.8303 23.56C54.0009 23.56 54.1823 23.4853 54.3743 23.336C54.5876 23.1867 54.8756 22.9093 55.2383 22.504L55.8783 23.24C54.7049 24.6693 53.3716 25.384 51.8783 25.384C51.0036 25.384 50.3103 25.1813 49.7983 24.776C49.3076 24.3707 48.9769 23.8373 48.8063 23.176H48.6783C48.2943 23.7307 47.6969 24.2427 46.8863 24.712C46.0969 25.16 45.1583 25.384 44.0703 25.384ZM46.2143 23.624C46.8969 23.624 47.4729 23.3253 47.9423 22.728C48.4329 22.1093 48.6783 21.3093 48.6783 20.328V17.8C47.3129 17.8 46.2569 18.088 45.5103 18.664C44.7636 19.24 44.3903 20.0933 44.3903 21.224C44.3903 21.9493 44.5396 22.536 44.8383 22.984C45.1583 23.4107 45.6169 23.624 46.2143 23.624ZM68.6148 24.52V13.224C68.6148 12.1573 68.1348 11.624 67.1748 11.624C66.4708 11.624 65.8308 11.912 65.2548 12.488C64.6788 13.064 64.2201 13.8533 63.8788 14.856C63.5374 15.8373 63.3668 16.9573 63.3668 18.216L62.7268 13.256H63.4948C63.9214 12.3173 64.5294 11.5813 65.3188 11.048C66.1294 10.4933 67.1534 10.216 68.3908 10.216C69.7774 10.216 70.8974 10.5573 71.7508 11.24C72.6041 11.9013 73.0308 12.7227 73.0308 13.704V24.52H68.6148ZM56.3588 25V24.04H65.4468V25H56.3588ZM58.9508 24.52V11.112H63.3668V24.52H58.9508ZM66.4388 25V24.04H75.0468V25H66.4388ZM56.3588 11.56V10.6H63.3668V11.56H56.3588Z" fill="white"></path></svg>