<?xml version="1.0" encoding="UTF-8"?>
<svg xmlns="http://www.w3.org/2000/svg" width="102" height="26" viewBox="0 0 102 26" fill="none">
  <g clip-path="url(#clip0_5385_26501)">
    <path d="M37.245 0V4.16142H35.431C33.4037 4.16142 32.7279 5.69083 32.7279 7.71818V9.03419H36.2491V12.5199H32.7279V25.6443H28.353V12.5199H25.1875V9.03419H28.353V7.71818C28.353 2.84542 30.7361 0 35.431 0H37.245Z" fill="white"></path>
    <path d="M54.2675 17.2871C54.2675 17.7139 54.2318 18.3897 54.1964 18.7809H41.534C41.8188 21.0217 43.6681 22.3377 46.1222 22.3377C47.7939 22.3377 49.4657 21.6263 50.2839 20.2036C51.3153 20.7727 52.489 21.4129 53.5915 21.982C52.062 24.8274 48.8965 26.0012 45.8379 26.0012C41.1075 26.0012 37.2305 22.5155 37.2305 17.2871C37.2305 12.023 41.1075 8.67969 45.8379 8.67969C50.5329 8.67969 54.2675 12.023 54.2675 17.2871ZM41.4987 15.8288H50.0348C49.7147 13.5525 48.0076 12.3076 45.8736 12.3076C43.597 12.3076 41.8188 13.5525 41.4987 15.8288Z" fill="white"></path>
    <path d="M56.8516 25.6443V0H61.1907V25.6443H56.8516Z" fill="white"></path>
    <path d="M77.6146 25.6455V23.5114C76.5831 25.2187 74.0578 25.9656 72.4572 25.9656C68.0823 25.9656 63.9922 22.6222 63.9922 17.3227C63.9922 12.023 68.0823 8.67969 72.4572 8.67969C73.9867 8.67969 76.3698 9.28435 77.6146 11.0983V9.03536H81.9537V25.6455H77.6146ZM68.4735 17.3227C68.4735 20.0258 70.6433 21.8042 73.0621 21.8042C75.4448 21.8042 77.6146 20.1681 77.6146 17.3227C77.6146 14.4772 75.3383 12.8411 73.0621 12.8411C70.6433 12.8411 68.4735 14.6195 68.4735 17.3227Z" fill="white"></path>
    <path d="M90.1443 16.7891V25.6455H85.8047V9.03536H90.1443V11.4896C91.1046 9.67561 93.1318 8.67969 95.0879 8.67969C98.9647 8.67969 101.277 11.0983 101.277 15.8288V25.6455H96.9376V16.6113C96.9376 14.1927 95.6571 12.9122 93.7721 12.9122C91.7802 12.9122 90.1443 13.9082 90.1443 16.7891Z" fill="white"></path>
    <path fill-rule="evenodd" clip-rule="evenodd" d="M0.270833 13.0553L6.40973 8.74043L0 4.20424V0L9.38888 6.63829L18.6875 0V4.20424L12.2778 8.74043L18.4167 13.0553L12.2778 17.3702L18.6875 21.9064V26L9.38888 19.4723L0 26V21.9064L6.40973 17.3702L0.270833 13.0553ZM9.38888 10.7319L6.13888 13.0553L9.38888 15.2681L12.5486 13.0553L9.38888 10.7319Z" fill="white"></path>
  </g>
  <defs>
    <clipPath id="clip0_5385_26501">
      <rect width="101.562" height="26" fill="white"></rect>
    </clipPath>
  </defs>
</svg>
