<?xml version="1.0" encoding="UTF-8"?>
<svg xmlns="http://www.w3.org/2000/svg" width="250" height="64" viewBox="0 0 250 64" fill="none">
  <path d="M91.6799 0V10.2435H87.2148C82.2244 10.2435 80.5609 14.0082 80.5609 18.9986V22.238H89.2285V30.8181H80.5609V63.1245H69.7921V30.8181H62V22.238H69.7921V18.9986C69.7921 7.0041 75.658 0 87.2148 0H91.6799Z" fill="#111111"></path>
  <path d="M133.579 42.5499C133.579 43.6005 133.491 45.264 133.404 46.2271H102.235C102.936 51.7428 107.488 54.9822 113.529 54.9822C117.644 54.9822 121.759 53.2312 123.773 49.7291C126.312 51.13 129.201 52.7059 131.915 54.1067C128.15 61.1108 120.358 64 112.829 64C101.185 64 91.6416 55.42 91.6416 42.5499C91.6416 29.5923 101.185 21.3625 112.829 21.3625C124.386 21.3625 133.579 29.5923 133.579 42.5499ZM102.148 38.9603H123.16C122.372 33.357 118.17 30.2927 112.917 30.2927C107.313 30.2927 102.936 33.357 102.148 38.9603Z" fill="#111111"></path>
  <path d="M139.947 63.1245V0H150.628V63.1245H139.947Z" fill="#111111"></path>
  <path d="M191.056 63.1245V57.8714C188.517 62.0739 182.301 63.9125 178.361 63.9125C167.592 63.9125 157.524 55.6826 157.524 42.6375C157.524 29.5923 167.592 21.3625 178.361 21.3625C182.126 21.3625 187.992 22.8509 191.056 27.316V22.238H201.737V63.1245H191.056ZM168.555 42.6375C168.555 49.2914 173.896 53.669 179.85 53.669C185.715 53.669 191.056 49.6416 191.056 42.6375C191.056 35.6334 185.453 31.606 179.85 31.606C173.896 31.606 168.555 35.9836 168.555 42.6375Z" fill="#111111"></path>
  <path d="M221.897 41.3242V63.1245H211.215V22.238H221.897V28.2791C224.261 23.814 229.251 21.3625 234.066 21.3625C243.609 21.3625 249.3 27.316 249.3 38.9603V63.1245H238.619V40.8865C238.619 34.933 235.467 31.7811 230.827 31.7811C225.924 31.7811 221.897 34.2326 221.897 41.3242Z" fill="#111111"></path>
  <path fill-rule="evenodd" clip-rule="evenodd" d="M0.666667 32.1362L15.7778 21.5149L0 10.3489V0L23.1111 16.3404L46 0V10.3489L30.2222 21.5149L45.3333 32.1362L30.2222 42.7574L46 53.9234V64L23.1111 47.9319L0 64V53.9234L15.7778 42.7574L0.666667 32.1362ZM23.1111 26.417L15.1111 32.1362L23.1111 37.583L30.8889 32.1362L23.1111 26.417Z" fill="#1F72F2"></path>
</svg>
