<svg width="112" height="28" viewBox="0 0 112 28" fill="none" xmlns="http://www.w3.org/2000/svg">
<g clip-path="url(#clip0_6300_65336)">
<g clip-path="url(#clip1_6300_65336)">
<path d="M19.1947 3.28552C17.0301 -0.371772 11.7698 -1.2051 8.5261 1.95541C8.02288 2.44563 7.63462 3.0391 7.35089 3.69912C7.11672 4.43145 7.00037 5.24219 7.00037 6.0829C7.00037 7.38863 7.27775 8.76276 7.79016 10.0062C8.30257 11.2506 9.04955 12.3617 9.96402 13.1576C10.5744 13.6888 11.2552 14.081 11.9976 14.2961C12.4217 14.4198 12.8669 14.4855 13.3361 14.4855C13.8959 14.4855 14.4907 14.3915 15.1241 14.1807L15.4686 15.1103C14.7345 15.355 14.0197 15.4704 13.3361 15.4704C12.6917 15.4708 12.0754 15.3676 11.499 15.1782C10.9212 14.9893 10.384 14.7146 9.89093 14.3736C8.9043 13.6923 8.09336 12.75 7.4669 11.6747C7.04919 10.9571 6.71339 10.1795 6.466 9.37401C6.13529 8.30033 5.96 7.17748 5.96 6.0829C5.96 5.66192 5.98577 5.24564 6.03962 4.83728C-1.02575 8.75926 -0.514262 15.8997 0.786091 19.8953C1.95992 23.5029 3.16783 27.879 3.16783 27.879H8.22844C8.22844 27.879 8.22844 26.0003 8.60843 23.5029C8.95803 21.201 12.991 21.2101 13.2891 23.465C13.4266 24.5065 13.3885 27.879 13.3885 27.879H18.548C18.548 27.879 19.243 22.6195 19.8387 18.862C20.2021 16.568 23.5024 16.5867 22.9146 18.6744C22.1202 21.4918 22.2872 24.7677 23.3626 26.9024C23.7495 27.6704 24.0585 28.266 24.6533 27.8781C25.2476 27.4897 25.967 26.8637 26.437 26.713C26.9071 26.5628 26.1491 25.7107 25.9904 24.8735C25.2958 21.2101 27.1813 19.9888 27.8759 15.105C28.7834 8.72268 24.5962 4.71188 19.1947 3.28552ZM21.7568 12.1005C21.3884 12.1005 21.0894 11.8179 21.0894 11.4691C21.0894 11.12 21.3884 10.8374 21.7568 10.8374C22.1252 10.8374 22.4238 11.12 22.4238 11.4691C22.4238 11.8179 22.1252 12.1005 21.7568 12.1005Z" fill="#0A65FC"/>
</g>
<g clip-path="url(#clip2_6300_65336)">
<path d="M19.1947 3.28552C17.0301 -0.371772 11.7698 -1.2051 8.5261 1.95541C8.02288 2.44563 7.63462 3.0391 7.35089 3.69912C7.11672 4.43145 7.00037 5.24219 7.00037 6.0829C7.00037 7.38863 7.27775 8.76276 7.79016 10.0062C8.30257 11.2506 9.04955 12.3617 9.96402 13.1576C10.5744 13.6888 11.2552 14.081 11.9976 14.2961C12.4217 14.4198 12.8669 14.4855 13.3361 14.4855C13.8959 14.4855 14.4907 14.3915 15.1241 14.1807L15.4686 15.1103C14.7345 15.355 14.0197 15.4704 13.3361 15.4704C12.6917 15.4708 12.0754 15.3676 11.499 15.1782C10.9212 14.9893 10.384 14.7146 9.89093 14.3736C8.9043 13.6923 8.09336 12.75 7.4669 11.6747C7.04919 10.9571 6.71339 10.1795 6.466 9.37401C6.13529 8.30033 5.96 7.17748 5.96 6.0829C5.96 5.66192 5.98577 5.24564 6.03962 4.83728C-1.02575 8.75926 -0.514262 15.8997 0.786091 19.8953C1.95992 23.5029 3.16783 27.879 3.16783 27.879H8.22844C8.22844 27.879 8.22844 26.0003 8.60843 23.5029C8.95803 21.201 12.991 21.2101 13.2891 23.465C13.4266 24.5065 13.3885 27.879 13.3885 27.879H18.548C18.548 27.879 19.243 22.6195 19.8387 18.862C20.2021 16.568 23.5024 16.5867 22.9146 18.6744C22.1202 21.4918 22.2872 24.7677 23.3626 26.9024C23.7495 27.6704 24.0585 28.266 24.6533 27.8781C25.2476 27.4897 25.967 26.8637 26.437 26.713C26.9071 26.5628 26.1491 25.7107 25.9904 24.8735C25.2958 21.2101 27.1813 19.9888 27.8759 15.105C28.7834 8.72268 24.5962 4.71188 19.1947 3.28552ZM21.7568 12.1005C21.3884 12.1005 21.0894 11.8179 21.0894 11.4691C21.0894 11.12 21.3884 10.8374 21.7568 10.8374C22.1252 10.8374 22.4238 11.12 22.4238 11.4691C22.4238 11.8179 22.1252 12.1005 21.7568 12.1005Z" fill="#0A65FC"/>
</g>
<path d="M46.8402 0V4.48153H44.9085C42.7495 4.48153 42.0298 6.12859 42.0298 8.3119V9.72914H45.7796V13.4829H42.0298V27.617H37.371V13.4829H34V9.72914H37.371V8.3119C37.371 3.06429 39.9087 0 44.9085 0H46.8402Z" fill="black"/>
<path d="M64.2089 18.6156C64.2089 19.0752 64.1711 19.803 64.1332 20.2243H50.6491C50.9521 22.6375 52.9217 24.0547 55.5352 24.0547C57.3154 24.0547 59.0956 23.2886 59.9668 21.7565C61.0652 22.3694 62.3151 23.0588 63.4893 23.6717C61.8606 26.736 58.4896 28 55.2322 28C50.1946 28 46.0661 24.2462 46.0661 18.6156C46.0661 12.9466 50.1946 9.3461 55.2322 9.3461C60.2319 9.3461 64.2089 12.9466 64.2089 18.6156ZM50.6112 17.0451H59.7016C59.3607 14.5937 57.5427 13.2531 55.2701 13.2531C52.846 13.2531 50.9521 14.5937 50.6112 17.0451Z" fill="black"/>
<path d="M66.2063 27.617V0H70.8273V27.617H66.2063Z" fill="black"/>
<path d="M87.5598 27.617V25.3187C86.4614 27.1573 83.7722 27.9617 82.0677 27.9617C77.4089 27.9617 73.0531 24.3611 73.0531 18.6539C73.0531 12.9466 77.4089 9.3461 82.0677 9.3461C83.6964 9.3461 86.2342 9.99726 87.5598 11.9508V9.72914H92.1808V27.617H87.5598ZM77.8256 18.6539C77.8256 21.565 80.136 23.4802 82.7116 23.4802C85.2494 23.4802 87.5598 21.7182 87.5598 18.6539C87.5598 15.5896 85.1357 13.8276 82.7116 13.8276C80.136 13.8276 77.8256 15.7428 77.8256 18.6539Z" fill="black"/>
<path d="M100.145 18.0793V27.617H95.5237V9.72914H100.145V12.3721C101.167 10.4186 103.326 9.3461 105.409 9.3461C109.538 9.3461 112 11.9508 112 17.0451V27.617H107.379V17.8878C107.379 15.2832 106.015 13.9042 104.008 13.9042C101.887 13.9042 100.145 14.9767 100.145 18.0793Z" fill="black"/>
</g>
<defs>
<clipPath id="clip0_6300_65336">
<rect width="112" height="28" fill="white"/>
</clipPath>
<clipPath id="clip1_6300_65336">
<rect width="28" height="28" fill="white"/>
</clipPath>
<clipPath id="clip2_6300_65336">
<rect width="28" height="28" fill="white"/>
</clipPath>
</defs>
</svg>
