<?xml version="1.0" encoding="UTF-8"?>
<svg xmlns="http://www.w3.org/2000/svg" width="24" height="24" viewBox="0 0 24 24" fill="none">
  <path d="M9.47796 3H7.25C6.00736 3 5 4.00736 5 5.25V18.75C5 19.9926 6.00736 21 7.25 21H16.25C17.4926 21 18.5 19.9926 18.5 18.75V12M9.47796 3C10.7206 3 11.75 4.00736 11.75 5.25V7.5C11.75 8.74264 12.7574 9.75 14 9.75H16.25C17.4926 9.75 18.5 10.7574 18.5 12M9.47796 3C13.1679 3 18.5 8.3597 18.5 12" stroke="white" stroke-width="1.5" stroke-linecap="round" stroke-linejoin="round"></path>
  <path d="M9 16.5H15" stroke="white" stroke-width="1.5" stroke-linecap="round" stroke-linejoin="round"></path>
  <path d="M9 13.5H13" stroke="white" stroke-width="1.5" stroke-linecap="round" stroke-linejoin="round"></path>
</svg>
