<svg xmlns="http://www.w3.org/2000/svg" width="442" height="32" viewBox="0 0 442 32" fill="none"><g clip-path="url(#clip0_1422_15056)"><path d="M9.75665 4H0V27.3333L9.75665 4Z" fill="#FA0C00"></path><path d="M16.6211 4H26.365V27.3333L16.6211 4Z" fill="#FA0C00"></path><path d="M13.1907 12.6016L19.4007 27.3351H15.3264L13.4704 22.6442H8.92578L13.1907 12.6016Z" fill="#FA0C00"></path><path d="M42.2817 18.838L43.4322 22.1368C43.4703 22.2194 43.5275 22.2576 43.6292 22.2576H45.8412C45.9619 22.2576 45.981 22.2003 45.9619 22.0796L41.3919 9.38639C41.3728 9.28469 41.3537 9.26562 41.252 9.26562H38.5062C38.4299 9.26562 38.3854 9.32283 38.3854 9.40546C38.3473 10.0729 38.2901 10.2762 38.2075 10.4733L34.1332 22.0605C34.1141 22.2003 34.1586 22.2575 34.273 22.2575H36.2498C36.3705 22.2575 36.4277 22.2194 36.4722 22.0986L37.5591 18.838H42.2817ZM38.1884 16.6832C38.7859 14.8781 39.574 12.5645 39.8918 11.2424H39.9109C40.305 12.628 41.233 15.3739 41.6525 16.6832H38.1884Z" fill="#FA0C00"></path><path d="M51.8368 22.4555C53.0254 22.4555 54.2903 22.2394 55.5742 21.6865C55.6759 21.6483 55.695 21.6038 55.695 21.5085C55.6569 21.1525 55.6124 20.6377 55.6124 20.2436V8.2941C55.6124 8.21783 55.6124 8.17969 55.517 8.17969H53.3623C53.2797 8.17969 53.2415 8.21783 53.2415 8.31952V12.3684C52.9047 12.3302 52.6695 12.3112 52.3898 12.3112C48.913 12.3112 46.7773 14.6057 46.7773 17.4723C46.7773 20.7966 48.9702 22.4555 51.8368 22.4555ZM53.2415 20.2436C52.8856 20.358 52.4915 20.4025 52.0911 20.4025C50.5147 20.4025 49.2245 19.5127 49.2245 17.3516C49.2245 15.4384 50.5529 14.307 52.3135 14.307C52.6695 14.307 52.9809 14.3451 53.2415 14.4468V20.2436Z" fill="#FA0C00"></path><path d="M62.5709 12.3125C59.6025 12.3125 57.7656 14.588 57.7656 17.3974C57.7656 19.9081 59.2275 22.4569 62.5264 22.4569C65.3167 22.4569 67.2744 20.4038 67.2744 17.3338C67.2744 14.6261 65.6154 12.3125 62.5709 12.3125ZM62.4501 14.3083C64.1281 14.3083 64.84 15.7512 64.84 17.3974C64.84 19.4314 63.7912 20.442 62.5709 20.442C61.0645 20.442 60.1746 19.1771 60.1746 17.3529C60.1746 15.4779 61.1217 14.3083 62.4501 14.3083Z" fill="#FA0C00"></path><path d="M69.4992 8.17969C69.4166 8.17969 69.3594 8.21783 69.3594 8.31952V21.8454C69.3594 21.9026 69.4166 22.0043 69.4992 22.0233C70.4463 22.3157 71.4378 22.4555 72.4612 22.4555C75.3913 22.4555 78.2389 20.6377 78.2389 16.9766C78.2389 14.3261 76.421 12.3112 73.5735 12.3112C72.9188 12.3112 72.3086 12.4129 71.7747 12.5908L71.7493 8.33859C71.7493 8.19876 71.7111 8.17969 71.5713 8.17969H69.4992ZM75.8045 17.2181C75.8045 19.411 74.3044 20.4407 72.6836 20.4407C72.3467 20.4407 72.048 20.4216 71.7747 20.339V14.5676C72.0861 14.4468 72.4612 14.3451 73.154 14.3451C74.7176 14.3451 75.8045 15.3367 75.8045 17.2181Z" fill="#FA0C00"></path><path d="M86.2815 17.9313C87.2476 17.9313 88.0421 17.9122 88.3155 17.8487C88.4172 17.8296 88.4553 17.7915 88.4744 17.7089C88.5316 17.4927 88.557 17.0415 88.557 16.4885C88.557 14.6071 87.4256 12.3125 84.5018 12.3125C81.5144 12.3125 79.8555 14.7469 79.8555 17.4927C79.8555 19.9271 81.1394 22.4569 84.737 22.4569C86.0845 22.4569 86.9553 22.2408 87.7053 21.8848C87.7815 21.8467 87.8197 21.7831 87.8197 21.6687V20.0225C87.8197 19.9271 87.7625 19.9081 87.7053 19.9462C86.9553 20.264 86.1417 20.4229 85.2518 20.4229C83.2369 20.4229 82.3216 19.3106 82.2644 17.9313H86.2815ZM82.2644 16.2279C82.4233 15.2617 83.0335 14.213 84.4001 14.213C85.9065 14.213 86.3006 15.4778 86.3006 16.0499C86.3006 16.069 86.3006 16.1516 86.3006 16.2088C86.2179 16.2279 85.9637 16.2279 85.2137 16.2279H82.2644Z" fill="#FA0C00"></path></g><g clip-path="url(#clip1_1422_15056)"><path d="M148.143 8.51562H142.893C142.533 8.51562 142.228 8.77664 142.172 9.1313L140.048 22.5941C140.006 22.8597 140.212 23.0992 140.481 23.0992H142.988C143.347 23.0992 143.653 22.8382 143.709 22.4827L144.281 18.8516C144.337 18.4962 144.643 18.2352 145.002 18.2352H146.664C150.122 18.2352 152.118 16.5616 152.639 13.2453C152.874 11.7944 152.649 10.6544 151.97 9.85599C151.224 8.9793 149.9 8.51562 148.143 8.51562ZM148.749 13.4326C148.461 15.3165 147.022 15.3165 145.63 15.3165H144.838L145.394 11.7982C145.427 11.5856 145.611 11.429 145.826 11.429H146.189C147.137 11.429 148.032 11.429 148.494 11.9694C148.769 12.2918 148.854 12.7709 148.749 13.4326Z" fill="#253B80"></path><path d="M163.837 13.3719H161.322C161.108 13.3719 160.923 13.5285 160.89 13.7412L160.779 14.4444L160.603 14.1895C160.059 13.3996 158.845 13.1355 157.634 13.1355C154.856 13.1355 152.483 15.2397 152.021 18.1914C151.78 19.6638 152.122 21.0717 152.957 22.0536C153.723 22.9564 154.819 23.3325 156.124 23.3325C158.362 23.3325 159.604 21.8932 159.604 21.8932L159.492 22.5917C159.449 22.8589 159.655 23.0984 159.923 23.0984H162.188C162.548 23.0984 162.852 22.8374 162.908 22.482L164.267 13.8771C164.31 13.6122 164.105 13.3719 163.837 13.3719ZM160.332 18.2651C160.09 19.7014 158.95 20.6656 157.496 20.6656C156.766 20.6656 156.182 20.4315 155.807 19.9878C155.436 19.5471 155.295 18.9199 155.413 18.2214C155.639 16.7973 156.799 15.8016 158.23 15.8016C158.944 15.8016 159.525 16.0389 159.907 16.4864C160.29 16.9386 160.442 17.5696 160.332 18.2651Z" fill="#253B80"></path><path d="M177.226 13.3719H174.7C174.459 13.3719 174.232 13.4917 174.096 13.692L170.611 18.8247L169.134 13.8924C169.041 13.5838 168.757 13.3719 168.434 13.3719H165.952C165.65 13.3719 165.44 13.6667 165.536 13.9507L168.319 22.1173L165.703 25.8106C165.497 26.1015 165.704 26.5015 166.06 26.5015H168.583C168.823 26.5015 169.047 26.3848 169.183 26.1883L177.586 14.059C177.787 13.7688 177.58 13.3719 177.226 13.3719Z" fill="#253B80"></path><path d="M185.592 8.51644H180.341C179.983 8.51644 179.677 8.77745 179.621 9.13212L177.498 22.5949C177.455 22.8605 177.661 23.1 177.929 23.1H180.624C180.874 23.1 181.088 22.9173 181.127 22.6686L181.73 18.8524C181.785 18.497 182.091 18.236 182.45 18.236H184.111C187.57 18.236 189.566 16.5625 190.088 13.2461C190.323 11.7952 190.097 10.6552 189.417 9.8568C188.672 8.98012 187.349 8.51644 185.592 8.51644ZM186.198 13.4334C185.911 15.3173 184.472 15.3173 183.079 15.3173H182.288L182.845 11.799C182.878 11.5864 183.06 11.4298 183.276 11.4298H183.639C184.586 11.4298 185.482 11.4298 185.944 11.9702C186.219 12.2926 186.303 12.7717 186.198 13.4334Z" fill="#179BD7"></path><path d="M201.285 13.3728H198.772C198.557 13.3728 198.373 13.5294 198.341 13.742L198.23 14.4452L198.053 14.1903C197.509 13.4004 196.296 13.1363 195.084 13.1363C192.306 13.1363 189.934 15.2405 189.472 18.1922C189.232 19.6646 189.573 21.0726 190.408 22.0544C191.175 22.9572 192.27 23.3334 193.574 23.3334C195.813 23.3334 197.054 21.894 197.054 21.894L196.942 22.5926C196.9 22.8597 197.106 23.0992 197.375 23.0992H199.639C199.998 23.0992 200.303 22.8382 200.359 22.4828L201.719 13.8779C201.76 13.613 201.554 13.3728 201.285 13.3728ZM197.781 18.2659C197.539 19.7022 196.398 20.6665 194.944 20.6665C194.215 20.6665 193.63 20.4323 193.256 19.9886C192.884 19.5479 192.745 18.9208 192.861 18.2222C193.089 16.7981 194.247 15.8025 195.679 15.8025C196.393 15.8025 196.973 16.0397 197.355 16.4872C197.74 16.9394 197.892 17.5704 197.781 18.2659Z" fill="#179BD7"></path><path d="M204.249 8.88565L202.094 22.5948C202.052 22.8604 202.258 23.0999 202.525 23.0999H204.692C205.052 23.0999 205.357 22.8389 205.413 22.4835L207.538 9.02152C207.58 8.75591 207.374 8.51562 207.106 8.51562H204.68C204.466 8.51639 204.282 8.673 204.249 8.88565Z" fill="#179BD7"></path><path d="M118.248 25.7119L118.649 23.1617L117.755 23.141H113.484L116.452 4.32292C116.461 4.26612 116.491 4.21315 116.535 4.17553C116.579 4.13791 116.635 4.11719 116.693 4.11719H123.894C126.285 4.11719 127.934 4.61464 128.796 5.5965C129.199 6.05711 129.457 6.53844 129.581 7.06814C129.712 7.62393 129.714 8.28797 129.586 9.09787L129.577 9.15699V9.67593L129.981 9.9047C130.321 10.0851 130.591 10.2916 130.799 10.5281C131.144 10.9219 131.367 11.4224 131.462 12.0158C131.559 12.6261 131.527 13.3523 131.367 14.1745C131.183 15.1203 130.885 15.944 130.483 16.618C130.113 17.2391 129.642 17.7542 129.082 18.1534C128.548 18.5326 127.913 18.8205 127.195 19.0047C126.5 19.1859 125.707 19.2773 124.837 19.2773H124.276C123.876 19.2773 123.486 19.4216 123.181 19.6803C122.875 19.9444 122.672 20.3052 122.61 20.6998L122.568 20.9293L121.858 25.4241L121.826 25.5891C121.818 25.6413 121.803 25.6674 121.781 25.6851C121.762 25.7012 121.735 25.7119 121.708 25.7119H118.248Z" fill="#253B80"></path><path d="M130.361 9.21875C130.339 9.35616 130.315 9.49665 130.287 9.64097C129.337 14.5165 126.089 16.2008 121.939 16.2008H119.827C119.319 16.2008 118.892 16.5693 118.813 17.0698L117.731 23.9297L117.425 25.8743C117.373 26.2028 117.627 26.4992 117.958 26.4992H121.705C122.149 26.4992 122.526 26.1767 122.596 25.7392L122.633 25.5488L123.338 21.0717L123.383 20.826C123.452 20.3869 123.83 20.0645 124.274 20.0645H124.834C128.465 20.0645 131.307 18.5906 132.137 14.3253C132.484 12.5436 132.304 11.0558 131.386 10.0095C131.108 9.69394 130.764 9.43216 130.361 9.21875Z" fill="#179BD7"></path><path d="M129.367 8.82522C129.222 8.783 129.072 8.74462 128.919 8.71007C128.765 8.67629 128.607 8.64635 128.444 8.62025C127.874 8.52813 127.25 8.48438 126.581 8.48438H120.937C120.798 8.48438 120.666 8.51585 120.548 8.57266C120.288 8.69779 120.095 8.94421 120.048 9.24591L118.847 16.8505L118.812 17.0724C118.892 16.5718 119.319 16.2034 119.827 16.2034H121.939C126.089 16.2034 129.337 14.5183 130.287 9.64357C130.315 9.49924 130.339 9.35876 130.361 9.22134C130.12 9.09391 129.86 8.9849 129.58 8.89201C129.511 8.86898 129.439 8.84672 129.367 8.82522Z" fill="#222D65"></path><path d="M120.048 9.24628C120.095 8.94458 120.289 8.69816 120.549 8.5738C120.668 8.51699 120.799 8.48551 120.938 8.48551H126.582C127.251 8.48551 127.875 8.52927 128.444 8.62139C128.607 8.64749 128.765 8.67743 128.92 8.71121C129.073 8.74576 129.223 8.78414 129.368 8.82636C129.44 8.84786 129.512 8.87012 129.581 8.89238C129.862 8.98527 130.122 9.09505 130.362 9.22171C130.645 7.41998 130.36 6.19323 129.386 5.0824C128.312 3.85949 126.373 3.33594 123.893 3.33594H116.692C116.185 3.33594 115.753 3.70442 115.675 4.20572L112.676 23.2172C112.617 23.5934 112.907 23.9327 113.286 23.9327H117.732L118.848 16.8509L120.048 9.24628Z" fill="#253B80"></path></g><g clip-path="url(#clip2_1422_15056)"><path d="M252.86 20.7248C250.738 20.7248 249.333 19.1171 248.941 18.4944C249.444 14.5549 250.916 13.3093 252.86 13.3093C254.783 13.3093 256.277 14.8156 256.277 17.017C256.277 19.2185 254.783 20.7248 252.86 20.7248ZM252.86 10.8906C249.4 10.8906 247.462 13.0993 246.908 15.3732C246.279 14.2145 245.813 12.6648 245.451 11.2237H240.667V17.0533C240.667 19.1679 239.683 20.7321 237.76 20.7321C235.838 20.7321 234.736 19.1679 234.736 17.0533L234.758 11.2237H232V17.0533C232 18.7551 232.562 20.2976 233.59 21.3983C234.647 22.5352 236.089 23.129 237.76 23.129C241.088 23.129 243.41 20.6307 243.41 17.0533V13.1355C243.757 14.4246 244.586 16.9012 246.168 19.0737L244.689 27.322H247.492L248.468 21.4779C248.786 21.7386 249.126 21.9704 249.488 22.1804C250.427 22.7597 251.5 23.0856 252.609 23.1218C252.609 23.1218 252.779 23.129 252.868 23.129C256.299 23.129 259.027 20.5293 259.027 17.017C259.027 13.5049 256.291 10.8906 252.86 10.8906Z" fill="#14A800"></path><path d="M292.488 12.4709V11.2253H289.781V22.7613H292.525V18.2425C292.525 15.4617 292.783 13.463 296.592 13.7237V11.0877C294.817 10.9574 293.434 11.3195 292.488 12.4709Z" fill="#14A800"></path><path d="M273.439 11.2188L271.45 19.286L269.327 11.2188H265.837L263.707 19.286L261.726 11.2188H258.945L261.992 22.762H265.29L267.582 14.5644L269.852 22.762H273.15L276.375 11.2188H273.439Z" fill="#14A800"></path><path d="M282.418 20.7321C280.465 20.7321 279.001 19.2258 279.001 17.017C279.001 14.8084 280.473 13.3093 282.418 13.3093C284.34 13.3093 285.834 14.8156 285.834 17.017C285.834 19.2185 284.34 20.7321 282.418 20.7321ZM282.418 10.8906C278.964 10.8906 276.258 13.5121 276.258 17.017C276.258 20.522 278.964 23.1218 282.418 23.1218C285.849 23.1218 288.577 20.522 288.577 17.017C288.577 13.5121 285.856 10.8906 282.418 10.8906Z" fill="#14A800"></path><path d="M300.528 17.0849H301.164L304.995 22.7623H308.093L303.686 16.4693C305.823 15.651 307.257 13.5147 307.257 11.2191H304.521C304.521 13.7102 302.517 14.6516 300.528 14.6516V6.66406H297.777V22.7623H300.521L300.528 17.0849Z" fill="#14A800"></path></g><g clip-path="url(#clip3_1422_15056)"><path d="M441.239 14.5527V12.6315H438.853V9.64491L438.773 9.66964L436.532 10.3552L436.488 10.3687V12.6316H432.951V11.371C432.951 10.784 433.083 10.3347 433.341 10.0352C433.598 9.73917 433.966 9.58869 434.434 9.58869C434.771 9.58869 435.12 9.66805 435.471 9.82455L435.559 9.86386V7.84066L435.518 7.82544C435.19 7.70772 434.745 7.64844 434.193 7.64844C433.497 7.64844 432.865 7.79987 432.313 8.09998C431.761 8.40051 431.327 8.82954 431.023 9.37502C430.72 9.91987 430.567 10.5491 430.567 11.2455V12.6315H428.906V14.5527H430.567V22.646H432.951V14.5527H436.488V19.6958C436.488 21.814 437.487 22.8875 439.458 22.8875C439.782 22.8875 440.122 22.8495 440.47 22.7752C440.825 22.6989 441.066 22.6228 441.208 22.5414L441.239 22.5228V20.5839L441.142 20.6481C441.013 20.7343 440.852 20.8048 440.663 20.8572C440.473 20.9105 440.314 20.9373 440.192 20.9373C439.73 20.9373 439.388 20.8129 439.177 20.5674C438.962 20.3197 438.854 19.8866 438.854 19.2807V14.5527H441.239ZM423.58 20.9376C422.715 20.9376 422.032 20.6506 421.551 20.0852C421.067 19.517 420.822 18.707 420.822 17.6777C420.822 16.6158 421.067 15.7847 421.551 15.2064C422.033 14.632 422.708 14.3405 423.561 14.3405C424.388 14.3405 425.046 14.6189 425.517 15.1685C425.991 15.721 426.232 16.5454 426.232 17.6197C426.232 18.7072 426.005 19.5425 425.56 20.1013C425.117 20.6559 424.451 20.9376 423.58 20.9376ZM423.686 12.3903C422.035 12.3903 420.723 12.8742 419.788 13.8285C418.853 14.7829 418.38 16.1037 418.38 17.7545C418.38 19.3225 418.842 20.5837 419.754 21.5025C420.667 22.4217 421.908 22.8873 423.445 22.8873C425.045 22.8873 426.331 22.3966 427.266 21.4291C428.2 20.4626 428.674 19.1543 428.674 17.542C428.674 15.9495 428.229 14.6789 427.353 13.7662C426.475 12.8531 425.242 12.3903 423.686 12.3903ZM414.535 12.3903C413.411 12.3903 412.482 12.6776 411.772 13.2441C411.058 13.814 410.696 14.5614 410.696 15.4659C410.696 15.936 410.774 16.3536 410.928 16.7078C411.083 17.0632 411.322 17.3761 411.641 17.6387C411.957 17.8992 412.444 18.172 413.09 18.4496C413.633 18.6731 414.038 18.8622 414.296 19.0112C414.547 19.1572 414.726 19.304 414.826 19.447C414.924 19.5869 414.974 19.7784 414.974 20.0147C414.974 20.6875 414.47 21.0148 413.434 21.0148C413.049 21.0148 412.61 20.9345 412.13 20.7762C411.653 20.6203 411.202 20.392 410.795 20.0993L410.696 20.0283V22.3242L410.732 22.3411C411.07 22.4969 411.495 22.6283 411.996 22.7316C412.497 22.8351 412.952 22.8877 413.347 22.8877C414.565 22.8877 415.547 22.599 416.263 22.0291C416.984 21.4553 417.349 20.6902 417.349 19.7545C417.349 19.0795 417.153 18.5006 416.765 18.0337C416.38 17.5707 415.712 17.1455 414.78 16.7698C414.038 16.4718 413.562 16.2244 413.366 16.0345C413.177 15.8511 413.081 15.5916 413.081 15.2631C413.081 14.9719 413.199 14.7385 413.443 14.5496C413.688 14.3597 414.029 14.2631 414.457 14.2631C414.855 14.2631 415.261 14.3259 415.666 14.4489C416.07 14.5719 416.424 14.7366 416.721 14.9381L416.818 15.0047V12.8268L416.781 12.8107C416.507 12.6936 416.147 12.5933 415.709 12.5119C415.274 12.4311 414.878 12.3903 414.535 12.3903ZM404.479 20.9376C403.614 20.9376 402.931 20.6506 402.45 20.0852C401.966 19.517 401.722 18.7072 401.722 17.6777C401.722 16.6158 401.967 15.7847 402.451 15.2064C402.932 14.632 403.607 14.3405 404.46 14.3405C405.287 14.3405 405.945 14.6189 406.416 15.1685C406.89 15.721 407.131 16.5454 407.131 17.6197C407.131 18.7072 406.905 19.5425 406.459 20.1013C406.016 20.6559 405.35 20.9376 404.479 20.9376ZM404.585 12.3903C402.934 12.3903 401.622 12.8742 400.687 13.8285C399.753 14.7829 399.279 16.1037 399.279 17.7545C399.279 19.3231 399.741 20.5837 400.654 21.5025C401.566 22.4217 402.808 22.8873 404.344 22.8873C405.944 22.8873 407.23 22.3966 408.165 21.4291C409.099 20.4626 409.573 19.1543 409.573 17.542C409.573 15.9495 409.129 14.6789 408.252 13.7662C407.374 12.8531 406.141 12.3903 404.585 12.3903ZM395.659 14.3658V12.6315H393.303V22.6458H395.659V17.5231C395.659 16.652 395.856 15.9364 396.246 15.3959C396.631 14.8619 397.143 14.5912 397.769 14.5912C397.982 14.5912 398.22 14.6262 398.478 14.6954C398.733 14.7642 398.918 14.8389 399.027 14.9175L399.126 14.9893V12.6144L399.088 12.598C398.868 12.5048 398.558 12.4578 398.165 12.4578C397.573 12.4578 397.044 12.648 396.59 13.0225C396.192 13.3517 395.904 13.803 395.684 14.3658H395.659ZM389.084 12.3903C388.004 12.3903 387.04 12.622 386.22 13.0788C385.398 13.5367 384.763 14.1904 384.331 15.0216C383.9 15.8508 383.682 16.8194 383.682 17.8996C383.682 18.8458 383.894 19.7141 384.312 20.4794C384.731 21.2459 385.324 21.8456 386.075 22.2616C386.825 22.677 387.691 22.8876 388.65 22.8876C389.77 22.8876 390.726 22.6638 391.492 22.2224L391.523 22.2046V20.0465L391.424 20.1187C391.077 20.3716 390.689 20.5734 390.272 20.7189C389.855 20.8642 389.476 20.9376 389.143 20.9376C388.218 20.9376 387.476 20.6484 386.938 20.0782C386.398 19.5072 386.124 18.7055 386.124 17.6966C386.124 16.6814 386.41 15.8591 386.972 15.2523C387.533 14.6473 388.276 14.3405 389.182 14.3405C389.956 14.3405 390.71 14.6026 391.424 15.1204L391.523 15.1922V12.9182L391.491 12.9003C391.222 12.7499 390.856 12.6257 390.401 12.5316C389.948 12.4376 389.505 12.3903 389.084 12.3903ZM382.059 12.6316H379.704V22.6458H382.059V12.6316ZM380.906 8.36553C380.518 8.36553 380.18 8.49752 379.902 8.75906C379.623 9.02133 379.481 9.35156 379.481 9.74128C379.481 10.1249 379.621 10.4491 379.898 10.7044C380.172 10.9589 380.511 11.088 380.906 11.088C381.3 11.088 381.64 10.9589 381.918 10.7048C382.198 10.4491 382.34 10.125 382.34 9.74128C382.34 9.36519 382.202 9.03835 381.93 8.76962C381.658 8.50143 381.313 8.36553 380.906 8.36553ZM375.028 11.8928V22.6458H377.432V8.67209H374.105L369.876 19.0513L365.771 8.67209H362.309V22.6457H364.568V11.8917H364.645L368.979 22.6458H370.684L374.95 11.8928H375.028Z" fill="#706D6E"></path><path d="M343.082 15.0895H332V4.00781H343.082V15.0895Z" fill="#F1511B"></path><path d="M355.316 15.0895H344.234V4.00781H355.316V15.0895Z" fill="#80CC28"></path><path d="M343.081 27.3237H332V16.2422H343.081V27.3237Z" fill="#00ADEF"></path><path d="M355.316 27.3237H344.234V16.2422H355.316V27.3237Z" fill="#FBBC09"></path></g><defs><clipPath id="clip0_1422_15056"><rect width="88.6667" height="32" fill="white"></rect></clipPath><clipPath id="clip1_1422_15056"><rect width="95.3333" height="32" fill="white" transform="translate(112.668)"></rect></clipPath><clipPath id="clip2_1422_15056"><rect width="76" height="32" fill="white" transform="translate(232)"></rect></clipPath><clipPath id="clip3_1422_15056"><rect width="109.333" height="32" fill="white" transform="translate(332)"></rect></clipPath></defs></svg>