<svg xmlns="http://www.w3.org/2000/svg" width="92" height="31" viewBox="0 0 92 31" fill="none" id="svg1681754081_2866">
<path d="M72.957 1.20068H76.2317V23.1817H72.957V1.20068Z" fill="#B7B7B7"/>
<path d="M31.2473 8.68506C27.122 8.68506 23.7617 11.8306 23.7617 16.1624C23.7617 20.4673 27.122 23.6397 31.2473 23.6397C35.3727 23.6397 38.7329 20.4673 38.7329 16.1624C38.7329 11.8252 35.3727 8.68506 31.2473 8.68506ZM31.2473 20.6928C28.9893 20.6928 27.0417 18.8248 27.0417 16.1624C27.0417 13.4731 28.9893 11.632 31.2473 11.632C33.5053 11.632 35.453 13.4731 35.453 16.1624C35.453 18.8248 33.5053 20.6928 31.2473 20.6928Z" fill="#B7B7B7"/>
<path d="M11.819 10.9754V14.1478H19.3849C19.1601 15.9299 18.5662 17.2342 17.6619 18.1414C16.5597 19.2472 14.8368 20.4656 11.819 20.4656C7.15853 20.4656 3.52006 16.6975 3.52006 12.0221C3.52006 7.34679 7.15853 3.58398 11.819 3.58398C14.3338 3.58398 16.1691 4.57702 17.5228 5.84918L19.754 3.61082C17.8599 1.79651 15.3504 0.411621 11.819 0.411621C5.43561 0.411621 0.0742188 5.62373 0.0742188 12.0275C0.0742188 18.4313 5.44096 23.6434 11.819 23.6434C15.2648 23.6434 17.8599 22.5108 19.8932 20.3851C21.9853 18.2863 22.6327 15.3448 22.6327 12.9615C22.6327 12.2261 22.5739 11.5444 22.4615 10.9808H11.819V10.9754Z" fill="#B7B7B7"/>
<path d="M85.2086 20.6903C83.5445 20.6903 82.3567 19.9281 81.5915 18.4251L91.5599 14.2866L91.2228 13.4385C90.6021 11.7691 88.7079 8.67725 84.8394 8.67725C80.9976 8.67725 77.8086 11.71 77.8086 16.1546C77.8086 20.3468 80.9708 23.6319 85.2086 23.6319C88.6277 23.6319 90.6021 21.5331 91.4207 20.32L88.8792 18.6184C88.0338 19.8691 86.878 20.6903 85.2086 20.6903ZM84.9571 11.5705C86.2573 11.5705 87.3596 12.22 87.7234 13.1593L81.0618 15.9345C80.9762 13.0412 83.2877 11.5705 84.9571 11.5705Z" fill="#B7B7B7"/>
<path d="M67.5853 10.3544H67.4729C66.7399 9.47412 65.3273 8.68506 63.5455 8.68506C59.8161 8.68506 56.4023 11.9701 56.4023 16.1946C56.4023 20.3868 59.8214 23.6451 63.5455 23.6451C65.3219 23.6451 66.7345 22.8506 67.4729 21.9435H67.5853V23.0224C67.5853 25.8834 66.0603 27.4132 63.6044 27.4132C61.5979 27.4132 60.3565 25.9693 59.8482 24.7508L56.9963 25.9425C57.8149 27.9232 59.9873 30.3601 63.6044 30.3601C67.4462 30.3601 70.694 28.0949 70.694 22.5715V9.13595H67.5853V10.3544ZM63.8291 20.6928C61.5711 20.6928 59.677 18.7926 59.677 16.1892C59.677 13.5536 61.5711 11.6266 63.8291 11.6266C66.0603 11.6266 67.81 13.5536 67.81 16.1892C67.81 18.798 66.0603 20.6928 63.8291 20.6928Z" fill="#B7B7B7"/>
<path d="M47.5676 8.68506C43.4423 8.68506 40.082 11.8306 40.082 16.1624C40.082 20.4673 43.4423 23.6397 47.5676 23.6397C51.693 23.6397 55.0533 20.4673 55.0533 16.1624C55.0533 11.8252 51.693 8.68506 47.5676 8.68506ZM47.5676 20.6928C45.3097 20.6928 43.362 18.8248 43.362 16.1624C43.362 13.4731 45.3097 11.632 47.5676 11.632C49.8256 11.632 51.7733 13.4731 51.7733 16.1624C51.7786 18.8248 49.831 20.6928 47.5676 20.6928Z" fill="#B7B7B7"/>
</svg>