<svg xmlns="http://www.w3.org/2000/svg" width="40" height="40" viewBox="0 0 40 40" fill="none"><circle cx="20" cy="20" r="20" fill="#0066FF" fill-opacity="0.05"></circle><path d="M18.047 25.6763V21.7583C18.047 21.2035 18.047 20.9261 17.9969 20.6588C17.9525 20.4216 17.879 20.1908 17.778 19.9716C17.6641 19.7246 17.5037 19.4983 17.1827 19.0458L13.9355 14.4672C13.3698 13.6695 13.0869 13.2707 13.1 12.9384C13.1115 12.649 13.2507 12.3796 13.4801 12.2029C13.7436 12 14.2325 12 15.2104 12H24.791C25.7689 12 26.2579 12 26.5214 12.2029C26.7508 12.3796 26.89 12.649 26.9014 12.9384C26.9145 13.2707 26.6317 13.6695 26.066 14.4672L22.8187 19.0458C22.4978 19.4983 22.3373 19.7246 22.2235 19.9716C22.1225 20.1908 22.0489 20.4216 22.0045 20.6588C21.9545 20.9261 21.9545 21.2035 21.9545 21.7583V27.63M18.047 25.6763C19.7011 24.9443 21.9545 25.3804 21.9545 27.63M18.047 25.6763C18.0141 27.9109 20.3089 28.4675 21.9545 27.63" stroke="#1F72F2" stroke-width="1.5" stroke-linecap="round" stroke-linejoin="round"></path></svg>