<svg xmlns="http://www.w3.org/2000/svg" width="40" height="40" viewBox="0 0 40 40" fill="none"><circle cx="20" cy="20" r="20" fill="#0066FF" fill-opacity="0.05"></circle><path d="M20 19V18.5" stroke="#1F72F2" stroke-width="1.5" stroke-linecap="round" stroke-linejoin="round"></path><path d="M24 19V18.5" stroke="#1F72F2" stroke-width="1.5" stroke-linecap="round" stroke-linejoin="round"></path><path d="M16 19V18.5" stroke="#1F72F2" stroke-width="1.5" stroke-linecap="round" stroke-linejoin="round"></path><path d="M11.4645 24.8284C10 23.6569 10 22.7712 10 19C10 15.2288 10 13.3431 11.4645 12.1716C12.9289 11 15.286 11 20 11C24.714 11 27.0711 11 28.5355 12.1716C30 13.3431 30 15.2288 30 19C30 22.7712 30 23.6569 28.5355 24.8284C27.0711 26 24.714 26 20 26C17.4905 26 16.1997 27.7375 14 29V25.7883C12.9061 25.6255 12.101 25.3376 11.4645 24.8284Z" stroke="#1F72F2" stroke-width="1.5" stroke-linecap="round" stroke-linejoin="round"></path></svg>