<svg xmlns="http://www.w3.org/2000/svg" width="40" height="40" viewBox="0 0 40 40" fill="none"><circle cx="20" cy="20" r="20" fill="#0066FF" fill-opacity="0.05"></circle><path d="M23 17.4286V13C23 11.8954 22.1046 11 21 11H19C17.8954 11 17 11.8954 17 13V21.2857M23 17.4286V29M23 17.4286H27C28.1046 17.4286 29 18.324 29 19.4286V27C29 28.1046 28.1046 29 27 29H23M23 29H17M17 29V21.2857M17 29H13C11.8954 29 11 28.1046 11 27V23.2857C11 22.1811 11.8954 21.2857 13 21.2857H17" stroke="#1F72F2" stroke-width="1.5" stroke-linecap="round" stroke-linejoin="round"></path></svg>