<svg xmlns="http://www.w3.org/2000/svg" width="40" height="40" viewBox="0 0 40 40" fill="none"><circle cx="20" cy="20" r="20" fill="#0066FF" fill-opacity="0.05"></circle><path d="M11 17V16.2002C11 15.0801 11 14.5196 11.218 14.0918C11.4097 13.7155 11.7155 13.4097 12.0918 13.218C12.5196 13 13.0801 13 14.2002 13H25.8002C26.9203 13 27.4796 13 27.9074 13.218C28.2837 13.4097 28.5905 13.7155 28.7822 14.0918C29 14.5192 29 15.079 29 16.1969V17M11 17H29M11 17V23.8002C11 24.9203 11 25.4801 11.218 25.9079C11.4097 26.2842 11.7155 26.5905 12.0918 26.7822C12.5192 27 13.079 27 14.1969 27H25.8031C26.921 27 27.48 27 27.9074 26.7822C28.2837 26.5905 28.5905 26.2842 28.7822 25.9079C29 25.4805 29 24.9215 29 23.8036V17" stroke="#1F72F2" stroke-width="1.5" stroke-linecap="round" stroke-linejoin="round"></path><path d="M14 23H18" stroke="#1F72F2" stroke-width="1.5" stroke-linecap="round" stroke-linejoin="round"></path></svg>