<svg xmlns="http://www.w3.org/2000/svg" width="40" height="40" viewBox="0 0 40 40" fill="none"><circle cx="20" cy="20" r="20" fill="#0066FF" fill-opacity="0.05"></circle><path d="M11 16.5928C11 15.0661 11 14.3028 11.3926 13.8575C11.532 13.6995 11.7015 13.5729 11.8903 13.4859C13.3065 12.8332 15.1618 14.5517 16.6591 14.4987C16.8571 14.4917 17.054 14.4644 17.2468 14.4172C19.4307 13.8824 20.7985 11.3379 23.0451 11.0262C24.3323 10.8476 25.7448 11.6254 26.9487 12.0412C27.9387 12.3831 28.4337 12.5541 28.7169 12.9611C29 13.3681 29 13.9087 29 14.9899V23.4115C29 24.9382 29 25.7015 28.6074 26.1468C28.468 26.3048 28.2985 26.4313 28.1097 26.5184C26.6935 27.1711 24.8382 25.4526 23.3409 25.5055C23.1429 25.5125 22.946 25.5399 22.7532 25.5871C20.5693 26.1219 19.2015 28.6664 16.9549 28.9781C15.6736 29.1559 12.1077 28.2285 11.2831 27.0432C11 26.6362 11 26.0956 11 25.0144V16.5928Z" stroke="#1F72F2" stroke-width="1.5" stroke-linecap="round" stroke-linejoin="round"></path><path d="M17 14.5391V28.7941" stroke="#1F72F2" stroke-width="1.5" stroke-linecap="round" stroke-linejoin="round"></path><path d="M23 11.1797V25.4347" stroke="#1F72F2" stroke-width="1.5" stroke-linecap="round" stroke-linejoin="round"></path></svg>