<svg xmlns="http://www.w3.org/2000/svg" width="40" height="40" viewBox="0 0 40 40" fill="none"><circle cx="20" cy="20" r="20" fill="#0066FF" fill-opacity="0.05"></circle><circle cx="20" cy="17.1016" r="2.5" stroke="#1F72F2" stroke-width="1.5" stroke-linecap="round" stroke-linejoin="round"></circle><path d="M11 20C11 15.7574 11 13.636 12.318 12.318C13.636 11 15.7574 11 20 11C24.2426 11 26.364 11 27.682 12.318C29 13.636 29 15.7574 29 20C29 24.2426 29 26.364 27.682 27.682C26.364 29 24.2426 29 20 29C15.7574 29 13.636 29 12.318 27.682C11 26.364 11 24.2426 11 20Z" stroke="#1F72F2" stroke-width="1.5" stroke-linecap="round" stroke-linejoin="round"></path><path d="M15 28.5026V27.2025C15.3169 21.0158 24.6831 21.0158 25 27.2025V28.5026" stroke="#1F72F2" stroke-width="1.5" stroke-linecap="round" stroke-linejoin="round"></path></svg>