<svg xmlns="http://www.w3.org/2000/svg" width="40" height="40" viewBox="0 0 40 40" fill="none"><circle cx="20" cy="20" r="20" fill="#0066FF" fill-opacity="0.05"></circle><path d="M10 20C10 16.2288 10 14.3431 11.4645 13.1716C12.9289 12 15.286 12 20 12C24.714 12 27.0711 12 28.5355 13.1716C30 14.3431 30 16.2288 30 20C30 23.7712 30 25.6569 28.5355 26.8284C27.0711 28 24.714 28 20 28C15.286 28 12.9289 28 11.4645 26.8284C10 25.6569 10 23.7712 10 20Z" stroke="#1F72F2" stroke-width="1.5" stroke-linecap="round" stroke-linejoin="round"></path><path d="M28.6671 13.3125L23.8417 17.8014C22.005 19.3319 21.0867 20.0972 20.0006 20.0972C18.9144 20.0972 17.9961 19.3319 16.1595 17.8014L11.334 13.3125" stroke="#1F72F2" stroke-width="1.5" stroke-linecap="round" stroke-linejoin="round"></path></svg>