<svg xmlns="http://www.w3.org/2000/svg" width="40" height="40" viewBox="0 0 40 40" fill="none"><circle cx="20" cy="20" r="20" fill="#0066FF" fill-opacity="0.05"></circle><path d="M17.5 20C17.5 21.3807 16.3807 22.5 15 22.5C13.6193 22.5 12.5 21.3807 12.5 20C12.5 18.6193 13.6193 17.5 15 17.5C16.3807 17.5 17.5 18.6193 17.5 20Z" stroke="#1F72F2" stroke-width="1.5" stroke-linecap="round" stroke-linejoin="round"></path><path d="M22.5 14.5L17.5 18" stroke="#1F72F2" stroke-width="1.5" stroke-linecap="round" stroke-linejoin="round"></path><path d="M22.5 25.5L17.5 22" stroke="#1F72F2" stroke-width="1.5" stroke-linecap="round" stroke-linejoin="round"></path><path d="M27.5 26.5C27.5 27.8807 26.3807 29 25 29C23.6193 29 22.5 27.8807 22.5 26.5C22.5 25.1193 23.6193 24 25 24C26.3807 24 27.5 25.1193 27.5 26.5Z" stroke="#1F72F2" stroke-width="1.5" stroke-linecap="round" stroke-linejoin="round"></path><path d="M27.5 13.5C27.5 14.8807 26.3807 16 25 16C23.6193 16 22.5 14.8807 22.5 13.5C22.5 12.1193 23.6193 11 25 11C26.3807 11 27.5 12.1193 27.5 13.5Z" stroke="#1F72F2" stroke-width="1.5" stroke-linecap="round" stroke-linejoin="round"></path></svg>