<svg xmlns="http://www.w3.org/2000/svg" width="40" height="40" viewBox="0 0 40 40" fill="none"><circle cx="20" cy="20" r="20" fill="#0066FF" fill-opacity="0.05"></circle><path d="M11 23.75V16.25C11 15.1454 11.8954 14.25 13 14.25H21.5C22.6046 14.25 23.5 15.1454 23.5 16.25V23.75C23.5 24.8546 22.6046 25.75 21.5 25.75H13C11.8954 25.75 11 24.8546 11 23.75Z" stroke="#1F72F2" stroke-width="1.5" stroke-linecap="round" stroke-linejoin="round"></path><path d="M28.1675 14.9948L24.1675 18.557C24.0609 18.6519 24 18.7877 24 18.9304V20.7083C24 20.851 24.0609 20.9868 24.1675 21.0817L28.1675 24.6439C28.4898 24.931 29 24.7022 29 24.2705V15.3682C29 14.9365 28.4898 14.7077 28.1675 14.9948Z" stroke="#1F72F2" stroke-width="1.5" stroke-linecap="round" stroke-linejoin="round"></path></svg>