<svg xmlns="http://www.w3.org/2000/svg" width="24" height="24" viewBox="0 0 24 24" fill="none"><path d="M21 17V12C21 7.02944 16.9706 3 12 3C7.02944 3 3 7.02944 3 12V17" stroke="white" stroke-width="1.5" stroke-linecap="round" stroke-linejoin="round"></path><path d="M16 14.9578C16 14.447 16 14.1915 16.0586 13.9887C16.1942 13.5196 16.5482 13.1637 16.9888 13.0537C18.2613 12.7358 18.5191 13.9185 19.4319 14.2857C19.4549 14.295 19.478 14.3045 19.501 14.3141C20.4931 14.7309 20.9985 15.7924 20.996 16.8684L20.9951 17.2245C20.9929 18.1751 20.4868 19.06 19.6426 19.4968C18.7043 19.9822 18.3913 21.2489 17.0278 20.9568C16.591 20.8632 16.2308 20.5284 16.0777 20.0737C16 19.843 16 19.5414 16 18.9381V14.9578Z" stroke="white" stroke-width="1.5" stroke-linecap="round" stroke-linejoin="round"></path><path d="M7.9999 19.0422C7.9999 19.553 7.9999 19.8085 7.94127 20.0113C7.8057 20.4804 7.45171 20.8363 7.01108 20.9463C5.73862 21.2642 5.48083 20.0815 4.56799 19.7143C4.54739 19.706 4.52677 19.6975 4.50613 19.6889C3.50793 19.2714 3.0014 18.2082 3.00392 17.132L3.00477 16.768C3.00698 15.8216 3.51261 14.9402 4.35734 14.5032C5.2956 14.0178 5.60856 12.7511 6.97205 13.0432C7.40887 13.1368 7.7691 13.4716 7.9222 13.9263C7.9999 14.157 7.9999 14.4586 7.9999 15.0619V19.0422Z" stroke="white" stroke-width="1.5" stroke-linecap="round" stroke-linejoin="round"></path></svg>