<?xml version="1.0" encoding="UTF-8"?>
<svg xmlns="http://www.w3.org/2000/svg" width="1170" height="350" viewBox="0 0 1170 350" fill="none">
  <mask id="path-1-inside-1_3759_48482" fill="white">
    <path d="M0 0H65V163.333H0V0Z"></path>
  </mask>
  <path d="M0 0H65V163.333H0V0Z" fill="url(#paint0_linear_3759_48482)"></path>
  <path d="M63 0V163.333H67V0H63Z" fill="#D6FAEB" mask="url(#path-1-inside-1_3759_48482)"></path>
  <mask id="path-3-inside-2_3759_48482" fill="white">
    <path d="M65 0H130V186.667H65V0Z"></path>
  </mask>
  <path d="M65 0H130V186.667H65V0Z" fill="url(#paint1_linear_3759_48482)"></path>
  <path d="M128 0V186.667H132V0H128Z" fill="#D6FAEB" mask="url(#path-3-inside-2_3759_48482)"></path>
  <mask id="path-5-inside-3_3759_48482" fill="white">
    <path d="M130 0H195V210H130V0Z"></path>
  </mask>
  <path d="M130 0H195V210H130V0Z" fill="url(#paint2_linear_3759_48482)"></path>
  <path d="M193 0V210H197V0H193Z" fill="#D6FAEB" mask="url(#path-5-inside-3_3759_48482)"></path>
  <mask id="path-7-inside-4_3759_48482" fill="white">
    <path d="M195 0H260V233.333H195V0Z"></path>
  </mask>
  <path d="M195 0H260V233.333H195V0Z" fill="url(#paint3_linear_3759_48482)"></path>
  <path d="M258 0V233.333H262V0H258Z" fill="#D6FAEB" mask="url(#path-7-inside-4_3759_48482)"></path>
  <mask id="path-9-inside-5_3759_48482" fill="white">
    <path d="M260 0H325V256.667H260V0Z"></path>
  </mask>
  <path d="M260 0H325V256.667H260V0Z" fill="url(#paint4_linear_3759_48482)"></path>
  <path d="M323 0V256.667H327V0H323Z" fill="#D6FAEB" mask="url(#path-9-inside-5_3759_48482)"></path>
  <mask id="path-11-inside-6_3759_48482" fill="white">
    <path d="M325 0H390V280H325V0Z"></path>
  </mask>
  <path d="M325 0H390V280H325V0Z" fill="url(#paint5_linear_3759_48482)"></path>
  <path d="M388 0V280H392V0H388Z" fill="#D6FAEB" mask="url(#path-11-inside-6_3759_48482)"></path>
  <mask id="path-13-inside-7_3759_48482" fill="white">
    <path d="M390 0H455V303.333H390V0Z"></path>
  </mask>
  <path d="M390 0H455V303.333H390V0Z" fill="url(#paint6_linear_3759_48482)"></path>
  <path d="M453 0V303.333H457V0H453Z" fill="#D6FAEB" mask="url(#path-13-inside-7_3759_48482)"></path>
  <mask id="path-15-inside-8_3759_48482" fill="white">
    <path d="M455 0H520V326.667H455V0Z"></path>
  </mask>
  <path d="M455 0H520V326.667H455V0Z" fill="url(#paint7_linear_3759_48482)"></path>
  <path d="M518 0V326.667H522V0H518Z" fill="#D6FAEB" mask="url(#path-15-inside-8_3759_48482)"></path>
  <mask id="path-17-inside-9_3759_48482" fill="white">
    <path d="M520 0H585V350H520V0Z"></path>
  </mask>
  <path d="M520 0H585V350H520V0Z" fill="url(#paint8_linear_3759_48482)"></path>
  <path d="M583 0V350H587V0H583Z" fill="#D6FAEB" mask="url(#path-17-inside-9_3759_48482)"></path>
  <mask id="path-19-inside-10_3759_48482" fill="white">
    <path d="M585 0H650V350H585V0Z"></path>
  </mask>
  <path d="M585 0H650V350H585V0Z" fill="url(#paint9_linear_3759_48482)"></path>
  <path d="M648 0V350H652V0H648Z" fill="#D6FAEB" mask="url(#path-19-inside-10_3759_48482)"></path>
  <mask id="path-21-inside-11_3759_48482" fill="white">
    <path d="M650 0H715V326.667H650V0Z"></path>
  </mask>
  <path d="M650 0H715V326.667H650V0Z" fill="url(#paint10_linear_3759_48482)"></path>
  <path d="M713 0V326.667H717V0H713Z" fill="#D6FAEB" mask="url(#path-21-inside-11_3759_48482)"></path>
  <mask id="path-23-inside-12_3759_48482" fill="white">
    <path d="M715 0H780V303.333H715V0Z"></path>
  </mask>
  <path d="M715 0H780V303.333H715V0Z" fill="url(#paint11_linear_3759_48482)"></path>
  <path d="M778 0V303.333H782V0H778Z" fill="#D6FAEB" mask="url(#path-23-inside-12_3759_48482)"></path>
  <mask id="path-25-inside-13_3759_48482" fill="white">
    <path d="M780 0H845V280H780V0Z"></path>
  </mask>
  <path d="M780 0H845V280H780V0Z" fill="url(#paint12_linear_3759_48482)"></path>
  <path d="M843 0V280H847V0H843Z" fill="#D6FAEB" mask="url(#path-25-inside-13_3759_48482)"></path>
  <mask id="path-27-inside-14_3759_48482" fill="white">
    <path d="M845 0H910V256.667H845V0Z"></path>
  </mask>
  <path d="M845 0H910V256.667H845V0Z" fill="url(#paint13_linear_3759_48482)"></path>
  <path d="M908 0V256.667H912V0H908Z" fill="#D6FAEB" mask="url(#path-27-inside-14_3759_48482)"></path>
  <mask id="path-29-inside-15_3759_48482" fill="white">
    <path d="M910 0H975V233.333H910V0Z"></path>
  </mask>
  <path d="M910 0H975V233.333H910V0Z" fill="url(#paint14_linear_3759_48482)"></path>
  <path d="M973 0V233.333H977V0H973Z" fill="#D6FAEB" mask="url(#path-29-inside-15_3759_48482)"></path>
  <mask id="path-31-inside-16_3759_48482" fill="white">
    <path d="M975 0H1040V210H975V0Z"></path>
  </mask>
  <path d="M975 0H1040V210H975V0Z" fill="url(#paint15_linear_3759_48482)"></path>
  <path d="M1038 0V210H1042V0H1038Z" fill="#D6FAEB" mask="url(#path-31-inside-16_3759_48482)"></path>
  <mask id="path-33-inside-17_3759_48482" fill="white">
    <path d="M1040 0H1105V186.667H1040V0Z"></path>
  </mask>
  <path d="M1040 0H1105V186.667H1040V0Z" fill="url(#paint16_linear_3759_48482)"></path>
  <path d="M1103 0V186.667H1107V0H1103Z" fill="#D6FAEB" mask="url(#path-33-inside-17_3759_48482)"></path>
  <path d="M1105 0H1170V163.333H1105V0Z" fill="url(#paint17_linear_3759_48482)"></path>
  <defs>
    <linearGradient id="paint0_linear_3759_48482" x1="32.5" y1="0" x2="32.5" y2="163.333" gradientUnits="userSpaceOnUse">
      <stop stop-color="#AAF8D8"></stop>
      <stop offset="1" stop-color="#E4F5EE"></stop>
    </linearGradient>
    <linearGradient id="paint1_linear_3759_48482" x1="97.5" y1="0" x2="97.5" y2="186.667" gradientUnits="userSpaceOnUse">
      <stop stop-color="#AAF8D8"></stop>
      <stop offset="1" stop-color="#E4F5EE"></stop>
    </linearGradient>
    <linearGradient id="paint2_linear_3759_48482" x1="162.5" y1="0" x2="162.5" y2="210" gradientUnits="userSpaceOnUse">
      <stop stop-color="#AAF8D8"></stop>
      <stop offset="1" stop-color="#E4F5EE"></stop>
    </linearGradient>
    <linearGradient id="paint3_linear_3759_48482" x1="227.5" y1="0" x2="227.5" y2="233.333" gradientUnits="userSpaceOnUse">
      <stop stop-color="#AAF8D8"></stop>
      <stop offset="1" stop-color="#E4F5EE"></stop>
    </linearGradient>
    <linearGradient id="paint4_linear_3759_48482" x1="292.5" y1="0" x2="292.5" y2="256.667" gradientUnits="userSpaceOnUse">
      <stop stop-color="#AAF8D8"></stop>
      <stop offset="1" stop-color="#E4F5EE"></stop>
    </linearGradient>
    <linearGradient id="paint5_linear_3759_48482" x1="357.5" y1="0" x2="357.5" y2="280" gradientUnits="userSpaceOnUse">
      <stop stop-color="#AAF8D8"></stop>
      <stop offset="1" stop-color="#E4F5EE"></stop>
    </linearGradient>
    <linearGradient id="paint6_linear_3759_48482" x1="422.5" y1="0" x2="422.5" y2="303.333" gradientUnits="userSpaceOnUse">
      <stop stop-color="#AAF8D8"></stop>
      <stop offset="1" stop-color="#E4F5EE"></stop>
    </linearGradient>
    <linearGradient id="paint7_linear_3759_48482" x1="487.5" y1="0" x2="487.5" y2="326.667" gradientUnits="userSpaceOnUse">
      <stop stop-color="#AAF8D8"></stop>
      <stop offset="1" stop-color="#E4F5EE"></stop>
    </linearGradient>
    <linearGradient id="paint8_linear_3759_48482" x1="552.5" y1="0" x2="552.5" y2="350" gradientUnits="userSpaceOnUse">
      <stop stop-color="#AAF8D8"></stop>
      <stop offset="1" stop-color="#E4F5EE"></stop>
    </linearGradient>
    <linearGradient id="paint9_linear_3759_48482" x1="617.5" y1="0" x2="617.5" y2="350" gradientUnits="userSpaceOnUse">
      <stop stop-color="#AAF8D8"></stop>
      <stop offset="1" stop-color="#E4F5EE"></stop>
    </linearGradient>
    <linearGradient id="paint10_linear_3759_48482" x1="682.5" y1="0" x2="682.5" y2="326.667" gradientUnits="userSpaceOnUse">
      <stop stop-color="#AAF8D8"></stop>
      <stop offset="1" stop-color="#E4F5EE"></stop>
    </linearGradient>
    <linearGradient id="paint11_linear_3759_48482" x1="747.5" y1="0" x2="747.5" y2="303.333" gradientUnits="userSpaceOnUse">
      <stop stop-color="#AAF8D8"></stop>
      <stop offset="1" stop-color="#E4F5EE"></stop>
    </linearGradient>
    <linearGradient id="paint12_linear_3759_48482" x1="812.5" y1="0" x2="812.5" y2="280" gradientUnits="userSpaceOnUse">
      <stop stop-color="#AAF8D8"></stop>
      <stop offset="1" stop-color="#E4F5EE"></stop>
    </linearGradient>
    <linearGradient id="paint13_linear_3759_48482" x1="877.5" y1="0" x2="877.5" y2="256.667" gradientUnits="userSpaceOnUse">
      <stop stop-color="#AAF8D8"></stop>
      <stop offset="1" stop-color="#E4F5EE"></stop>
    </linearGradient>
    <linearGradient id="paint14_linear_3759_48482" x1="942.5" y1="0" x2="942.5" y2="233.333" gradientUnits="userSpaceOnUse">
      <stop stop-color="#AAF8D8"></stop>
      <stop offset="1" stop-color="#E4F5EE"></stop>
    </linearGradient>
    <linearGradient id="paint15_linear_3759_48482" x1="1007.5" y1="0" x2="1007.5" y2="210" gradientUnits="userSpaceOnUse">
      <stop stop-color="#AAF8D8"></stop>
      <stop offset="1" stop-color="#E4F5EE"></stop>
    </linearGradient>
    <linearGradient id="paint16_linear_3759_48482" x1="1072.5" y1="0" x2="1072.5" y2="186.667" gradientUnits="userSpaceOnUse">
      <stop stop-color="#AAF8D8"></stop>
      <stop offset="1" stop-color="#E4F5EE"></stop>
    </linearGradient>
    <linearGradient id="paint17_linear_3759_48482" x1="1137.5" y1="0" x2="1137.5" y2="163.333" gradientUnits="userSpaceOnUse">
      <stop stop-color="#AAF8D8"></stop>
      <stop offset="1" stop-color="#E4F5EE"></stop>
    </linearGradient>
  </defs>
</svg>
