<?xml version="1.0" encoding="UTF-8"?>
<svg xmlns="http://www.w3.org/2000/svg" width="32" height="32" viewBox="0 0 32 32" fill="none">
  <path d="M16.7465 27.761C16.2996 28.0797 15.7004 28.0797 15.2535 27.7609C8.81517 23.1697 1.98076 13.7295 8.88893 6.90837C10.7749 5.04617 13.3328 4 16 4C18.6672 4 21.2251 5.04617 23.1111 6.90837C30.0192 13.7295 23.1848 23.1697 16.7465 27.761Z" stroke="#1F72F2" stroke-width="1.5" stroke-linecap="round" stroke-linejoin="round"></path>
  <path d="M15.9987 15.9974C17.4715 15.9974 18.6654 14.8035 18.6654 13.3307C18.6654 11.858 17.4715 10.6641 15.9987 10.6641C14.5259 10.6641 13.332 11.858 13.332 13.3307C13.332 14.8035 14.5259 15.9974 15.9987 15.9974Z" stroke="#1F72F2" stroke-width="1.5" stroke-linecap="round" stroke-linejoin="round"></path>
</svg>
