<svg xmlns="http://www.w3.org/2000/svg" width="137" height="18" viewBox="0 0 137 18" fill="none" id="svg-668606137_5018">
<path d="M30.5456 9.38574L26.5189 0.889407H20.4295V17.8821H26.5189V9.38574L30.5456 17.8821L34.5721 9.38574V17.8821H40.6617V0.88926H34.5721L30.5456 9.38574ZM47.3522 0.889407L42.6155 17.8821H48.7052L49.4823 15.0935H55.9809L56.7582 17.8819H62.8478L58.1111 0.889407H47.3522ZM50.2596 12.3051L52.7317 3.43435L55.2036 12.3051H50.2596ZM76.1844 0.896883H64.7884V17.8819H70.8756V10.8046H76.1844C78.8388 10.8046 80.9906 8.58595 80.9906 5.85073C80.9906 3.11552 78.8387 0.896883 76.1844 0.896883ZM72.3005 7.92732H70.98V2.84213H72.3005C73.6727 2.84213 75.0065 3.59985 75.0065 5.13992C75.0065 6.67999 73.8298 7.92732 72.3005 7.92732ZM83.1028 17.8819H89.1912V10.7885H99.2904V7.99886H89.1911V3.67769H99.2904V0.889407H83.1028V17.8819ZM136.098 3.67769V0.889407H119.908V17.8821H136.098V15.0934H125.997V10.7886H136.098V7.999H125.997V3.67769H136.098ZM117.623 5.14124C117.623 2.79654 115.777 0.894391 113.501 0.894391H101.422V17.8819H107.612V10.848H108.932C110.425 10.848 111.637 12.0963 111.637 13.6352C111.637 13.681 111.636 13.7267 111.634 13.7724V17.8821H117.623V13.6351C117.623 13.5882 117.624 13.5424 117.623 13.4954C117.551 11.215 115.731 9.38823 113.501 9.38823C115.777 9.38823 117.623 7.48726 117.623 5.14124ZM108.932 7.92967H107.612V2.84594H108.932C110.27 2.84594 111.637 3.60117 111.637 5.14124C111.637 6.68131 110.426 7.92967 108.932 7.92967ZM8.34626 0.885742C3.79057 0.885742 0.0976562 4.69136 0.0976562 9.38574C0.0976562 9.74665 0.120417 10.1014 0.162382 10.45C0.67094 14.6424 4.14094 17.8857 8.34626 17.8857C12.5514 17.8857 16.0227 14.6411 16.5301 10.4498L15.7372 10.4523C15.2335 14.1951 12.1161 17.0761 8.34626 17.0761C4.57638 17.0761 1.45903 14.1951 0.955306 10.4498H0.954026C0.906754 10.0972 0.883131 9.7416 0.883325 9.3856C0.883325 5.13889 4.22487 1.69536 8.34626 1.69536C12.4675 1.69536 15.8092 5.13875 15.8092 9.38574C15.8092 9.74782 15.784 10.1039 15.7372 10.45L16.5301 10.4498C16.5734 10.1012 16.5949 9.74665 16.5949 9.38574C16.5949 4.69121 12.9017 0.885742 8.34626 0.885742ZM13.7964 9.72436C13.7964 9.65767 13.7893 9.59947 13.7808 9.55256C13.6823 8.9879 13.4896 8.44511 13.2112 7.94828C12.9233 7.43522 12.4987 6.9459 12.0813 6.585C11.943 6.47632 11.7832 6.40037 11.6132 6.36255C11.4432 6.32472 11.2672 6.32595 11.0977 6.36614C10.9659 5.97314 10.6528 5.64434 10.3013 5.48616C9.67455 5.25186 9.01293 5.13221 8.34626 5.13259C7.66486 5.13259 7.00878 5.25617 6.40079 5.48367C6.35527 5.50097 6.29879 5.52442 6.24004 5.55902C6.0835 5.64342 5.94497 5.75932 5.83267 5.89988C5.72037 6.04043 5.63658 6.20277 5.58624 6.37728C5.22407 6.31059 4.83187 6.41804 4.5512 6.63191C4.12285 7.00309 3.76077 7.44859 3.48131 7.94828C3.20236 8.44485 3.00956 8.98774 2.91158 9.55256C2.90305 9.59947 2.89594 9.65767 2.89594 9.72436C2.88675 9.98022 2.95236 10.233 3.08428 10.45C3.18964 10.6213 3.33481 10.7638 3.50521 10.8653C3.70896 10.9861 3.94213 11.044 4.17693 11.0321L6.86013 11.0248C7.05075 11.0321 7.55575 11.0333 7.94197 11.0333V13.6376H8.7504V11.0333C9.1379 11.0333 9.64162 11.0321 9.83239 11.0246L12.5154 11.0319C12.7502 11.0439 12.9834 10.9861 13.1872 10.8653C13.3582 10.7641 13.5027 10.6215 13.6082 10.4498C13.7401 10.2329 13.8056 9.98016 13.7964 9.72436ZM7.07493 10.0864C7.05528 10.1211 7.02644 10.1493 6.9918 10.1677C6.95716 10.1861 6.91815 10.194 6.87933 10.1904L4.14948 10.1977C4.06581 10.2055 3.98189 10.1861 3.9095 10.1421C3.84203 10.102 3.78704 10.043 3.75094 9.97184C3.71485 9.90071 3.69913 9.82047 3.70565 9.74049C3.78716 9.24238 3.94307 8.79117 4.18177 8.36475C4.41439 7.94954 4.71556 7.57937 5.07171 7.27089L5.08494 7.25975C5.14949 7.20918 5.22714 7.17949 5.30807 7.17443C5.38901 7.16936 5.46958 7.18916 5.53959 7.23131C5.6164 7.27705 5.67387 7.34507 5.70858 7.42291L7.06768 9.86406C7.10964 9.92827 7.11448 10.0148 7.07493 10.0864ZM8.34626 10.2002C8.29842 10.2001 8.25159 10.186 8.21123 10.1596C8.17088 10.1331 8.13867 10.0953 8.11837 10.0507L6.43194 7.05951C6.37351 6.97183 6.34212 6.86801 6.3419 6.76164C6.3419 6.55275 6.46068 6.37362 6.6321 6.28962C7.19713 6.07326 7.75974 5.96698 8.34626 5.96698C8.93519 5.96698 9.50136 6.07443 10.0243 6.26969L10.0435 6.27848C10.1353 6.31831 10.2136 6.38519 10.2687 6.47073C10.3237 6.55627 10.353 6.65666 10.3529 6.7593C10.3533 6.86841 10.3201 6.97485 10.2582 7.06332L8.57173 10.0557C8.55077 10.0989 8.5186 10.1352 8.4788 10.1607C8.439 10.1863 8.39313 10.1999 8.34626 10.2002ZM12.783 10.1421C12.7106 10.1861 12.6267 10.2056 12.543 10.1978L9.81318 10.1904C9.73636 10.1977 9.65841 10.1594 9.61758 10.0866C9.59863 10.0525 9.58927 10.0136 9.59055 9.97426C9.59183 9.93496 9.6037 9.89681 9.62484 9.86406L10.9838 7.42291C11.0186 7.34507 11.0763 7.27705 11.1529 7.23131C11.2229 7.18912 11.3035 7.1693 11.3844 7.17437C11.4654 7.17943 11.543 7.20915 11.6076 7.25975L11.6207 7.27089C11.9772 7.57903 12.2785 7.94926 12.5107 8.36475C12.7483 8.79132 12.9054 9.24238 12.9869 9.74049C12.9934 9.82047 12.9777 9.90071 12.9416 9.97184C12.9055 10.043 12.8505 10.102 12.783 10.1421Z" fill="#B7B7B7"/>
</svg>