<?xml version="1.0" encoding="UTF-8"?>
<svg xmlns="http://www.w3.org/2000/svg" width="24" height="24" viewBox="0 0 24 24" fill="none">
  <path d="M12 11V10.5" stroke="black" stroke-width="1.5" stroke-linecap="round" stroke-linejoin="round"></path>
  <path d="M16 11V10.5" stroke="black" stroke-width="1.5" stroke-linecap="round" stroke-linejoin="round"></path>
  <path d="M8 11V10.5" stroke="black" stroke-width="1.5" stroke-linecap="round" stroke-linejoin="round"></path>
  <path d="M3.46447 16.8284C2 15.6569 2 14.7712 2 11C2 7.22876 2 5.34315 3.46447 4.17157C4.92893 3 7.28595 3 12 3C16.714 3 19.0711 3 20.5355 4.17157C22 5.34315 22 7.22876 22 11C22 14.7712 22 15.6569 20.5355 16.8284C19.0711 18 16.714 18 12 18C9.49052 18 8.19973 19.7375 6 21V17.7883C4.90606 17.6255 4.10096 17.3376 3.46447 16.8284Z" stroke="black" stroke-width="1.5" stroke-linecap="round" stroke-linejoin="round"></path>
</svg>
