<svg xmlns="http://www.w3.org/2000/svg" width="90" height="47" viewBox="0 0 90 47" fill="none" id="svg920289990_19296">
<path d="M21.1683 0.154601C21.088 0.235494 20.9774 0.447838 20.9071 0.639959C20.8368 0.821968 20.7162 1.14554 20.6358 1.34777C20.2742 2.3286 20.1837 2.57128 20.033 2.96563C19.9426 3.20831 19.812 3.56222 19.7417 3.75434C19.6713 3.94646 19.5307 4.31048 19.4403 4.56327C19.3498 4.81606 19.2092 5.19019 19.1288 5.39242C19.0484 5.60477 18.9279 5.94856 18.8475 6.15079C18.7671 6.36314 18.6365 6.72716 18.5461 6.95972C18.3451 7.51586 18.1241 8.10234 17.9433 8.57758C17.8629 8.78993 17.7222 9.16406 17.6318 9.41685C17.5414 9.66964 17.4007 10.0438 17.3204 10.246C17.24 10.4583 17.1194 10.8021 17.0391 11.0044C16.9587 11.2167 16.8281 11.5807 16.7376 11.8133C16.6472 12.056 16.5166 12.42 16.4362 12.6222C16.3559 12.8346 16.2152 13.2087 16.1248 13.4615C16.0344 13.7143 15.8937 14.0783 15.8234 14.2704C15.753 14.4626 15.6124 14.8266 15.522 15.0794C15.4315 15.3322 15.2909 15.7063 15.2105 15.9085C15.0297 16.3939 14.8086 16.9803 14.6077 17.5264C14.5173 17.7691 14.3867 18.123 14.3163 18.3151C14.246 18.5072 14.1254 18.851 14.035 19.0735C13.9546 19.2959 13.8039 19.6802 13.7135 19.9329C13.4925 20.5093 13.2715 21.0958 13.1107 21.5508C13.0404 21.7429 12.9098 22.0968 12.8193 22.3294C12.7289 22.5721 12.5883 22.9563 12.4978 23.1889C12.4074 23.4316 12.2969 23.7046 12.2467 23.7956C12.1964 23.8967 12.1562 24.0686 12.1562 24.1798C12.1562 24.3821 12.2165 24.3821 14.9493 24.3821H17.7524L17.8729 24.0989C17.9433 23.9473 18.1844 23.3507 18.4054 22.7642C18.6265 22.1777 18.8977 21.4699 19.0082 21.1969C19.1188 20.9138 19.2494 20.5498 19.2896 20.388C19.39 20.0341 19.5106 19.7105 20.1938 17.9612C20.4751 17.2331 20.7464 16.5051 20.7966 16.3433C20.9373 15.8681 21.2085 15.14 21.2889 15.0288C21.3391 14.9782 21.3994 14.7962 21.4396 14.6344C21.4898 14.4221 21.5401 14.3715 21.6204 14.4524C21.731 14.5637 21.6807 15.3322 21.2387 21.298C21.1482 22.4608 21.098 23.6237 21.1181 23.8765L21.1482 24.3315L24.0116 24.3618C25.589 24.3719 26.9754 24.3618 27.096 24.3315C27.2166 24.3012 27.3472 24.1798 27.3773 24.0484C27.4577 23.7754 28.0002 22.3193 28.1811 21.9047C28.2514 21.7328 28.3318 21.5104 28.3619 21.3991C28.3921 21.2879 28.5026 20.9643 28.6131 20.6913C28.7136 20.4082 29.0451 19.5487 29.3264 18.7701C29.6178 17.9915 29.9192 17.223 29.9996 17.0714C30.0799 16.9096 30.1402 16.7174 30.1402 16.6467C30.1402 16.5658 30.2106 16.3332 30.301 16.1209C30.5521 15.5546 30.9339 14.5839 31.1952 13.866C31.2655 13.6738 31.4061 13.3098 31.4966 13.057C31.587 12.8042 31.7276 12.4402 31.798 12.2481C31.8683 12.056 31.9989 11.7021 32.0893 11.4594C32.1797 11.2268 32.3204 10.8527 32.4008 10.6302C32.4812 10.4078 32.6218 10.0438 32.7022 9.82132C32.7826 9.59886 32.9232 9.23484 33.0036 9.01238C33.084 8.78993 33.2246 8.42591 33.305 8.20345C33.3854 7.981 33.526 7.61698 33.6064 7.39452C33.6868 7.17207 33.8274 6.80805 33.9078 6.58559C33.9882 6.36314 34.1289 5.98901 34.2193 5.74633C34.3097 5.51376 34.4403 5.15986 34.5106 4.96773C34.6513 4.58349 34.8522 4.03747 35.1034 3.3701C35.1938 3.13753 35.3345 2.7634 35.4149 2.54094C35.7263 1.69157 35.8971 1.26688 36.0378 0.912973C36.1181 0.71074 36.1684 0.437726 36.1483 0.306275L36.1181 0.0635961L33.6566 0.0332612C32.3003 0.0130379 31.0545 0.0332612 30.8837 0.0635961C30.5521 0.124266 30.5622 0.0838195 29.6881 2.43983C29.6077 2.66228 29.4671 3.0263 29.3867 3.24876C29.3063 3.47121 29.1757 3.82512 29.0953 4.02735C29.015 4.2397 28.8844 4.60372 28.7939 4.83628C28.7035 5.07896 28.5629 5.4632 28.4724 5.69577C28.161 6.52493 28.0404 6.83839 27.729 7.69787C27.1563 9.23484 27.1061 9.36629 26.9754 9.66964C26.9051 9.83143 26.8147 10.064 26.7846 10.1651C26.7444 10.2865 26.6841 10.3269 26.6238 10.2662C26.5635 10.2056 26.5836 9.63931 26.674 8.70904C26.7544 7.90011 26.8247 6.87883 26.8247 6.43392C26.8247 5.98901 26.8951 4.91718 26.9654 4.05769C27.1362 2.17693 27.1965 0.316387 27.096 0.134377C26.9754 -0.0577435 21.3693 -0.0375202 21.1683 0.154601ZM37.0324 0.205159C36.942 0.306275 36.8214 0.518619 36.7712 0.680405C36.731 0.842191 36.5903 1.22643 36.4698 1.52978C36.3492 1.83313 36.2186 2.19715 36.1684 2.33871C36.1181 2.48027 35.9875 2.84429 35.867 3.14764C35.7464 3.45099 35.6158 3.81501 35.5656 3.95657C35.5153 4.09813 35.3847 4.46215 35.2642 4.7655C35.1436 5.06885 35.013 5.43287 34.9627 5.57443C34.9125 5.716 34.7819 6.08001 34.6613 6.38336C34.5408 6.68671 34.4102 7.05073 34.3599 7.19229C34.3097 7.33385 34.1791 7.69787 34.0585 8.00122C33.938 8.30457 33.8073 8.66859 33.7571 8.81015C33.7069 8.95172 33.5763 9.31573 33.4557 9.61908C33.3351 9.92243 33.2045 10.2864 33.1543 10.428C33.1041 10.5696 32.9735 10.9336 32.8529 11.2369C32.7323 11.5403 32.6017 11.9043 32.5515 12.0459C32.5012 12.1874 32.3706 12.5515 32.2501 12.8548C32.1295 13.1582 31.9989 13.5222 31.9487 13.6637C31.8984 13.8053 31.7678 14.1693 31.6473 14.4727C31.3459 15.2614 31.1449 15.7973 31.0444 16.0905C30.9942 16.2321 30.8636 16.5961 30.743 16.8995C30.6225 17.2028 30.4919 17.5668 30.4416 17.7084C30.3914 17.8499 30.2608 18.214 30.1402 18.5173C30.0197 18.8207 29.8891 19.1847 29.8388 19.3262C29.7886 19.4678 29.658 19.8318 29.5374 20.1352C29.4168 20.4385 29.2862 20.8025 29.236 20.9441C29.1858 21.0857 29.0552 21.4497 28.9346 21.753C28.814 22.0564 28.6834 22.4204 28.6332 22.562C28.583 22.7035 28.4523 23.0675 28.3318 23.3709C27.9199 24.4225 27.6787 24.3315 30.8636 24.3618L33.6466 24.3821L33.8174 24.0585C33.9078 23.8866 34.0183 23.6237 34.0585 23.4821C34.1088 23.3406 34.2394 22.9664 34.3599 22.6631C34.4805 22.3597 34.6111 21.9957 34.6613 21.8542C34.7116 21.7126 34.8422 21.3486 34.9627 21.0452C35.0833 20.7419 35.2139 20.3779 35.2642 20.2363C35.3144 20.0947 35.445 19.7307 35.5656 19.4274C35.6861 19.124 35.8167 18.76 35.867 18.6184C35.9172 18.4769 36.0478 18.1128 36.1684 17.8095C36.2889 17.5062 36.4195 17.1421 36.4698 17.0006C36.52 16.859 36.6506 16.495 36.7712 16.1916C36.8918 15.8883 37.0224 15.5243 37.0726 15.3827C37.1228 15.2411 37.2534 14.8771 37.374 14.5738C37.4946 14.2704 37.6252 13.9064 37.6754 13.7648C37.7256 13.6233 37.8563 13.2593 37.9768 12.9559C38.0974 12.6526 38.228 12.2886 38.2782 12.147C38.3285 12.0054 38.4591 11.6414 38.5796 11.3381C38.7002 11.0347 38.8308 10.6707 38.881 10.5291C38.9313 10.3876 39.0619 10.0235 39.1824 9.7202C39.303 9.41685 39.4336 9.05283 39.4839 8.91127C39.5341 8.76971 39.6647 8.40569 39.7853 8.10234C39.9058 7.79899 40.0364 7.43497 40.0867 7.29341C40.1369 7.15185 40.2675 6.78783 40.3881 6.48448C40.5086 6.18113 40.6392 5.81711 40.6895 5.67555C40.7397 5.53399 40.8703 5.16997 40.9909 4.86662C41.1115 4.56327 41.2421 4.19925 41.2923 4.05769C41.3425 3.91613 41.4731 3.55211 41.5937 3.24876C41.7143 2.94541 41.8449 2.58139 41.8951 2.43983C41.9453 2.29827 42.076 1.93425 42.1965 1.6309C42.6888 0.356833 42.729 0.195047 42.5783 0.104043C42.508 0.0534845 41.2722 0.0130379 39.8254 0.0130379C37.3941 0.0130379 37.1932 0.0231496 37.0324 0.205159Z" fill="#B7B7B7"/>
<path d="M43.6545 0.278527C43.5641 0.430202 43.4436 0.662769 43.4034 0.814444C43.3531 0.956006 43.2225 1.33014 43.102 1.63349C42.9814 1.93683 42.8508 2.30085 42.8006 2.44242C42.7503 2.58398 42.6197 2.948 42.4991 3.25135C42.3786 3.55469 42.2379 3.93894 42.1877 4.11083C42.1375 4.27262 42.0571 4.50519 42.0068 4.61642C41.9566 4.72764 41.7054 5.40512 41.4442 6.13316C41.183 6.85109 40.9318 7.53868 40.8816 7.6499C40.8314 7.76113 40.751 7.98359 40.7007 8.15549C40.6505 8.31727 40.5099 8.71163 40.3893 9.01497C40.2687 9.31832 40.1381 9.68234 40.0879 9.8239C40.0377 9.96547 39.907 10.3295 39.7865 10.6328C39.6659 10.9362 39.5353 11.3002 39.4851 11.4418C39.4348 11.5833 39.3042 11.9473 39.1837 12.2507C39.0631 12.554 38.9325 12.9181 38.8823 13.0596C38.832 13.2012 38.7014 13.5652 38.5809 13.8686C38.4603 14.1719 38.3297 14.5359 38.2794 14.6775C38.2292 14.819 38.0986 15.1831 37.978 15.4864C37.6766 16.2751 37.4757 16.811 37.3752 17.1043C37.325 17.2458 37.1944 17.6099 37.0738 17.9132C36.9533 18.2166 36.8226 18.5806 36.7724 18.7221C36.7222 18.8637 36.5916 19.2277 36.471 19.5311C36.3605 19.8344 36.1696 20.3602 36.0591 20.6939C35.9486 21.0276 35.8179 21.3916 35.7677 21.5028C35.7175 21.6141 35.5567 22.0185 35.4161 22.4129C35.2754 22.7971 35.1247 23.2117 35.0745 23.3229C34.5721 24.4858 34.3411 24.3846 37.5661 24.3846C40.3592 24.3846 40.3792 24.3846 40.53 24.1622C40.6204 24.0409 40.6907 23.8588 40.6907 23.7678C40.6907 23.6667 40.751 23.4645 40.8314 23.3027C40.9117 23.151 41.0524 22.8275 41.1328 22.5848C41.2232 22.3522 41.3638 21.9781 41.4442 21.7556C41.5246 21.5332 41.6552 21.1793 41.7356 20.9669C41.816 20.7647 41.9466 20.4007 42.037 20.158C42.1274 19.9254 42.258 19.5614 42.3384 19.3491C42.4188 19.1468 42.69 18.4289 42.9513 17.7615C43.2024 17.0942 43.4737 16.3864 43.5541 16.1942C44.0564 14.8898 44.1468 14.6876 44.2172 14.7988C44.2473 14.8696 44.3176 16.5886 44.3578 18.621C44.398 20.6535 44.4583 22.7668 44.4985 23.3229L44.5588 24.3341L48.2761 24.3846L51.9935 24.4352L51.5012 24.6577C51.2299 24.7891 50.9386 24.8902 50.8481 24.8902C50.7477 24.8902 50.4764 24.9509 50.2252 25.0318C49.9841 25.1026 49.4918 25.2542 49.1301 25.3453C48.3766 25.5475 47.5628 25.7699 46.9198 25.952C46.6686 26.0227 46.1763 26.1542 45.8146 26.2452C45.4529 26.3463 44.9104 26.4879 44.609 26.5688C43.6144 26.8418 42.9613 27.0238 42.4188 27.1653C41.816 27.3372 41.0323 27.5496 40.2587 27.7619C39.9774 27.8428 39.4449 27.9844 39.0832 28.0754C38.7215 28.1765 38.2292 28.308 37.978 28.3787C37.7269 28.4495 37.2346 28.581 36.8729 28.6821C36.5112 28.7832 36.0189 28.9147 35.7677 28.9854C35.5165 29.0562 35.0242 29.1877 34.6626 29.2888C34.3009 29.3798 33.7583 29.5214 33.4569 29.6124C33.1555 29.6933 32.6632 29.8247 32.3719 29.9056C31.5982 30.1179 30.8146 30.3303 30.2118 30.4921C29.9305 30.573 29.398 30.7145 29.0363 30.8055C28.6746 30.9066 28.1823 31.0381 27.9311 31.1089C27.6799 31.1797 27.1877 31.3111 26.826 31.4122C26.0323 31.6246 25.2185 31.847 24.6156 32.0189C24.3645 32.0897 23.8722 32.2212 23.5105 32.3223C23.1488 32.4133 22.6364 32.5548 22.3551 32.6256C20.7074 33.0705 20.3558 33.1211 18.487 33.111C16.5781 33.111 16.3269 33.0807 14.7194 32.5751C14.3879 32.474 13.8353 32.2313 13.4837 32.0493C13.132 31.8673 12.7301 31.6549 12.5794 31.574C12.4287 31.4931 11.8762 30.9977 11.3537 30.4617C10.6203 29.7135 10.3189 29.3191 10.0275 28.7326C9.35438 27.3271 9.13335 26.4373 9.07307 24.8397C9.02283 23.5454 9.22377 22.0489 9.64574 20.5928C9.76631 20.1984 9.89692 19.7434 9.94715 19.5816C10.0878 19.0963 10.3088 18.53 10.7409 17.5189C11.3839 16.0324 11.2834 16.0931 9.68593 18.0851C7.70669 20.5625 6.3604 22.4331 4.70266 25.0419C4.46154 25.4261 4.22041 25.8205 4.19027 25.9014C4.15008 25.9823 4.02952 26.1845 3.919 26.3564C3.71806 26.68 3.61759 26.8519 3.1253 27.772C1.98999 29.8652 1.19629 31.6954 0.754224 33.2323C0.362395 34.5772 0.31216 34.7794 0.161456 35.558C-0.0696226 36.7512 -0.0495287 38.996 0.201644 39.906C0.613567 41.4126 1.02549 42.1811 1.94981 43.1721C2.91431 44.1933 4.89355 45.5786 5.78773 45.8516C5.89824 45.882 6.22979 46.0033 6.5312 46.1145C7.92772 46.6505 8.75157 46.7718 11.0523 46.7718C13.2325 46.7718 13.7348 46.7111 15.5232 46.2662C16.5279 46.0134 18.0349 45.5685 18.487 45.3966C18.6176 45.3461 18.9994 45.2146 19.341 45.1034C19.6726 44.9921 20.2854 44.7596 20.6973 44.5877C21.1093 44.4259 21.6317 44.2136 21.8527 44.1327C22.0738 44.0417 22.3953 43.9203 22.556 43.8394C22.7268 43.7686 23.6913 43.3642 24.7161 42.9395C26.9566 41.9991 27.0671 41.9485 27.5795 41.7261C27.8005 41.6351 28.1321 41.4935 28.3129 41.4126C28.4837 41.3317 28.7952 41.2003 28.986 41.1194C29.4281 40.9172 29.9405 40.6947 30.3926 40.5127C30.5835 40.4318 30.905 40.2902 31.0959 40.2093C31.6284 39.9869 32.1106 39.7847 32.5326 39.5925C32.7335 39.5015 33.045 39.3701 33.2058 39.2993C33.9392 38.996 34.6726 38.6825 35.3156 38.3994C35.5366 38.2983 35.8581 38.1567 36.0189 38.0859C36.1897 38.0151 36.4911 37.8837 36.692 37.7927C37.114 37.6005 37.5963 37.3983 38.1287 37.1759C38.9526 36.822 39.3444 36.6501 40.5199 36.1243C40.8916 35.9524 41.2332 35.8108 41.2835 35.8108C41.3337 35.8108 41.5246 35.7299 41.7155 35.6389C42.1977 35.3962 41.9868 35.4872 46.8696 33.384C49.3511 32.3122 51.4509 31.4021 51.5414 31.3617C51.8428 31.2201 52.4054 30.9774 52.9479 30.755C53.2493 30.6336 53.7517 30.4213 54.0531 30.2797C54.9573 29.8652 55.2386 29.7438 55.6104 29.5921C56.3438 29.2787 57.2882 28.8641 57.5695 28.7326C57.6599 28.6922 59.4382 27.9136 61.538 27.0137C63.6379 26.1137 65.4162 25.3351 65.5066 25.2947C65.6774 25.2037 66.25 24.961 66.7423 24.7588C67.1141 24.597 67.7973 24.2936 68.0183 24.1824C68.1087 24.142 70.0478 23.3027 72.3385 22.3118C74.6292 21.3208 76.5682 20.4816 76.6586 20.4411C76.7993 20.3703 77.0404 20.2591 77.8643 19.9153C78.2963 19.7333 78.9694 19.43 79.1804 19.3288C79.2608 19.2884 80.4162 18.7828 81.7424 18.2166C83.0585 17.6503 84.1838 17.1447 84.2441 17.0942C84.2943 17.0436 84.3948 17.0032 84.4651 17.0032C84.5354 17.0032 84.8871 16.8616 85.2287 16.6998C85.5803 16.5279 85.9018 16.3965 85.942 16.3965C85.9721 16.3965 86.3137 16.2549 86.6855 16.083C87.0572 15.901 87.4993 15.6988 87.66 15.628C88.946 15.0617 89.1972 14.8999 89.0666 14.6775C88.9762 14.5359 88.6949 14.546 88.082 14.728C87.4289 14.9303 86.7457 15.1123 85.9018 15.3347C85.5401 15.4359 85.0478 15.5673 84.7966 15.6381C84.5455 15.7089 84.0532 15.8403 83.6915 15.9414C83.3298 16.0426 82.8375 16.174 82.5863 16.2448C82.3352 16.3156 81.8429 16.447 81.4812 16.5481C81.1195 16.6391 80.587 16.7807 80.3057 16.8616C80.0143 16.9425 79.5321 17.0638 79.2508 17.1447C78.9594 17.2256 78.4269 17.3672 78.0652 17.4582C77.7035 17.5593 77.1911 17.7009 76.9098 17.7716C75.4128 18.1963 74.4282 18.4693 73.6446 18.6716C73.2829 18.7727 72.7906 18.9041 72.5394 18.9749C72.2882 19.0457 71.7959 19.1772 71.4343 19.2783C71.0726 19.3794 70.5803 19.5108 70.3291 19.5816C70.0779 19.6524 69.5856 19.7839 69.2239 19.885C68.8622 19.976 68.3298 20.1175 68.0484 20.1984C67.7571 20.2793 67.2748 20.4007 66.9935 20.4816C66.7022 20.5625 66.1697 20.704 65.808 20.8051C64.4818 21.1489 64.0397 21.2703 63.8187 21.3613C63.6881 21.4118 63.4972 21.4523 63.3867 21.4523C63.2058 21.4523 63.1857 21.4118 63.246 21.1186C63.2862 20.9467 63.3766 20.6838 63.447 20.5422C63.5173 20.4007 63.5977 20.1782 63.6077 20.0366L63.6479 19.7839L60.5434 19.7535C58.5843 19.7434 57.3887 19.6929 57.3083 19.6221C57.2279 19.5513 57.2078 19.4401 57.2681 19.2479C57.5595 18.3278 58.5943 15.5572 58.9258 14.7988C59.0062 14.6168 59.0766 14.3842 59.0766 14.273C59.0766 14.1719 59.177 14.0101 59.2976 13.9292C59.4885 13.7877 59.9305 13.7674 62.1007 13.7674C64.9741 13.7674 64.8133 13.8079 65.0545 13.0394C65.1348 12.7967 65.2855 12.3518 65.4061 12.0485C66.23 9.88457 66.3405 9.55089 66.2802 9.37899C66.2199 9.23743 65.9285 9.21721 63.6981 9.21721C61.6787 9.21721 61.1663 9.18687 61.1261 9.07564C61.0759 8.94419 61.9902 6.31517 62.5528 4.99055C62.6332 4.80854 62.6934 4.59619 62.6934 4.50519C62.6934 4.22206 63.2159 4.16139 65.9185 4.16139H68.6211L68.7819 3.77715C68.8723 3.57492 68.9828 3.29179 69.023 3.15023C69.0732 3.00867 69.2038 2.64465 69.3244 2.3413C69.445 2.03795 69.5756 1.67393 69.6258 1.53237C69.676 1.39081 69.8067 1.0369 69.9172 0.733551C70.0277 0.430202 70.098 0.157188 70.0679 0.126853C70.0377 0.096518 66.1596 0.0560715 61.4376 0.0358482C53.3699 0.015625 52.8575 0.0257366 52.6666 0.187523C52.4657 0.369532 49.2105 4.28273 48.5273 5.17256C48.3364 5.42535 48.0752 5.73881 47.9546 5.88037C47.8341 6.02193 47.5929 6.28483 47.4322 6.46684C47.0906 6.8612 46.9198 6.73986 47.1509 6.2545C47.2312 6.07249 47.3719 5.73881 47.4623 5.49613C48.045 3.92883 48.0953 3.78726 48.678 2.29074C48.9292 1.62337 49.2105 0.925672 49.2909 0.743662C49.4717 0.318974 49.4717 0.157188 49.2708 0.0762948C49.1803 0.0459599 47.9245 0.015625 46.4677 0.015625H43.8253L43.6545 0.278527ZM58.1422 1.35036C58.112 1.48181 57.9915 1.83572 57.8709 2.13907C57.7504 2.44242 57.6197 2.80643 57.5695 2.948C57.5193 3.08956 57.3887 3.45358 57.2681 3.75693C57.1475 4.06028 57.0169 4.4243 56.9667 4.56586C56.9165 4.70742 56.7859 5.07144 56.6653 5.37479C56.5447 5.67814 56.4141 6.04216 56.3639 6.18372C56.3137 6.32528 56.183 6.6893 56.0625 6.99265C55.9419 7.296 55.8113 7.66002 55.7611 7.80158C55.7108 7.94314 55.5802 8.30716 55.4597 8.61051C55.3391 8.91386 55.2085 9.27788 55.1583 9.41944C55.108 9.561 54.9774 9.92502 54.8568 10.2284C54.7363 10.5317 54.6057 10.8957 54.5554 11.0373C54.5052 11.1789 54.3746 11.5429 54.254 11.8462C54.1335 12.1496 54.0029 12.5136 53.9526 12.6552C53.9024 12.7967 53.7718 13.1607 53.6512 13.4641C53.5307 13.7674 53.4 14.1315 53.3498 14.273C53.2996 14.4146 53.169 14.7786 53.0484 15.082C52.9278 15.3853 52.7972 15.7493 52.747 15.8909C52.6465 16.1841 52.4456 16.72 52.1442 17.5087C52.0236 17.8121 51.893 18.1761 51.8428 18.3177C51.7925 18.4592 51.6619 18.8233 51.5414 19.1266C51.4208 19.43 51.2902 19.794 51.24 19.9355C51.1897 20.0771 51.0591 20.4411 50.9386 20.7445C50.818 21.0478 50.6773 21.4422 50.6271 21.6242C50.5467 21.8871 50.2755 22.1399 50.175 22.0388C50.1649 22.0185 50.1047 19.7131 50.0444 16.902C49.9841 14.091 49.9037 11.4519 49.8736 11.0272C49.8033 10.1475 49.8033 10.1374 50.607 9.28799C50.8783 8.99475 51.3203 8.50939 51.5916 8.20604C51.8528 7.9027 52.5561 7.1241 53.1388 6.48707C53.7216 5.85003 54.4751 5.03099 54.8066 4.66697C55.1382 4.30296 55.8013 3.56481 56.2835 3.039C56.7658 2.50309 57.3485 1.85594 57.5796 1.60315C58.0317 1.08746 58.2226 1.00656 58.1422 1.35036Z" fill="#B7B7B7"/>
<path d="M71.7371 0.187523C71.2749 0.511095 71.1443 0.753774 71.1342 1.24924C71.1342 1.6436 71.1945 1.79527 71.4457 2.08851C71.7371 2.42219 71.7973 2.44242 72.3499 2.44242C72.8623 2.44242 72.9829 2.40197 73.2642 2.14918C73.5656 1.87616 73.5957 1.79527 73.5957 1.27958C73.5957 0.743662 73.5656 0.682992 73.224 0.35942C72.9125 0.0762948 72.7618 0.015625 72.4102 0.015625C72.1691 0.015625 71.8777 0.0864064 71.7371 0.187523ZM73.224 1.18857C73.2541 1.5627 73.1235 1.76494 72.9125 1.67393C72.7317 1.60315 72.6714 1.22902 72.8422 1.22902C72.9025 1.22902 72.9427 1.13802 72.9427 1.01668C72.9427 0.693104 73.1939 0.844778 73.224 1.18857ZM71.7672 1.14813C71.8375 1.38069 71.7772 1.53237 71.6265 1.53237C71.5763 1.53237 71.5361 1.39081 71.5361 1.22902C71.5361 0.875113 71.6868 0.824555 71.7672 1.14813ZM72.6212 1.95706C72.591 2.02784 72.4906 2.08851 72.3901 2.08851C72.2896 2.08851 72.1892 2.02784 72.1691 1.95706C72.1389 1.88628 72.2193 1.83572 72.3901 1.83572C72.5609 1.83572 72.6413 1.88628 72.6212 1.95706ZM14.5701 28.7529C13.4951 29.0158 13.3444 30.5224 14.339 30.9977C15.0122 31.3212 15.7557 31.0887 16.0772 30.4516C16.3484 29.9258 16.3283 29.7438 15.9867 29.2686C15.6451 28.8034 15.1428 28.6113 14.5701 28.7529ZM14.4496 30.0067C14.4295 30.2292 14.3792 30.391 14.3189 30.3707C14.1682 30.3303 14.0879 29.9157 14.1883 29.6528C14.3189 29.2888 14.4897 29.5315 14.4496 30.0067ZM15.0524 29.5517C15.0323 29.6124 14.972 29.6528 14.9218 29.6528C14.8715 29.6528 14.8112 29.6124 14.7912 29.5517C14.7711 29.491 14.8313 29.4405 14.9218 29.4405C15.0122 29.4405 15.0725 29.491 15.0524 29.5517ZM15.7757 29.946C15.7757 30.037 15.7155 30.1887 15.6451 30.2898C15.5346 30.4415 15.4944 30.4516 15.394 30.3303C15.3136 30.2191 15.3035 30.0876 15.3839 29.7944C15.4844 29.4202 15.5045 29.4101 15.6351 29.5921C15.7155 29.6933 15.7757 29.855 15.7757 29.946ZM15.0323 30.6134C14.982 30.7449 14.9318 30.755 14.8514 30.6741C14.7912 30.6134 14.7711 30.4921 14.8112 30.391C14.8615 30.2595 14.9117 30.2494 14.9921 30.3303C15.0524 30.391 15.0725 30.5123 15.0323 30.6134Z" fill="#B7B7B7"/>
</svg>