<svg viewBox="0 0 400 400" xmlns="http://www.w3.org/2000/svg" id="Page-Not-Found-3--Streamline-Brooklyn.svg" height="400" width="400"><desc>Page Not Found 3 Streamline Illustration: https://streamlinehq.com</desc><path d="M281.372 245.6c-1.744 5.36 -2.68 11.032 -4.254 16.46 3.744 0.732 7.658 1.076 11.4 1.698 1.66 -2.118 6.936 -4.74 8.51 -3.152 3.062 -8.25 -5.318 -15.622 -12.678 -16.928a10.9 10.9 0 0 1 -3.064 2.072Z" fill="#2862e9" stroke-width="1"></path><path d="M260.186 259.638a43.982 43.982 0 0 1 -9.36 -0.818c-0.084 -1.294 -1.744 -6.718 -1.66 -8.4a34.72 34.72 0 0 1 12.848 -6.28 36.67 36.67 0 0 0 3.064 2.962c-1.2 4.374 -3.106 8.556 -4.6 12.844Z" fill="#2862e9" stroke-width="1"></path><path d="M266.152 232.788a10.26 10.26 0 0 1 9.348 -5.122c3.83 0.124 6.856 3.04 5.786 6.982 -1.826 6.736 -13.81 8.26 -15.134 -1.86Z" fill="#2862e9" stroke-width="1"></path><path d="M280.988 203.102a12.174 12.174 0 0 0 -1.744 3.064 87.558 87.558 0 0 0 -3.276 8.2c-0.508 1.896 -0.744 2.68 0 3.016 0.81 0.356 1.376 -0.622 2.128 -2.016 0.654 -1.102 2.176 -4.922 2.468 -5.63a43.782 43.782 0 0 0 2.254 -5.62c0.348 -1.102 0.716 -1.864 0 -2.246 -0.654 -0.35 -1.032 0.224 -1.83 1.232Z" fill="#191919" stroke-width="1"></path><path d="M281.968 234.694c2.272 -7.938 -4.08 -14.178 -10.764 -12.622 -5.468 1.278 -7.776 7.032 -6.6 12.044 2.154 9.138 13.136 9.54 16.378 3.238a0.858 0.858 0 1 0 -1.488 -0.852 6.322 6.322 0 0 1 -4.764 2.622c-9.106 0.952 -10.4 -12.742 -2.936 -14.512 5.2 -1.246 9.434 4 8.636 9.776a0.782 0.782 0 0 0 1.538 0.306Z" fill="#191919" stroke-width="1"></path><path d="M272.686 203.516a3.358 3.358 0 0 1 3.458 1.172c0.8 0.886 1.834 0.276 1.476 -0.84a3.52 3.52 0 0 0 -5.752 -1.69c-0.772 0.792 -0.192 1.642 0.818 1.358Z" fill="#191919" stroke-width="1"></path><path d="M286.732 207.468a4.63 4.63 0 0 1 7.02 1.016 0.864 0.864 0 0 0 1.574 -0.714 5.458 5.458 0 0 0 -9.828 -1.278c-0.516 0.942 0.456 1.694 1.234 0.976Z" fill="#191919" stroke-width="1"></path><path d="M286.8954947584 216.5308018474a2.864 1.91 -69.376 1 0 2.0175947094 -5.3609043628 2.864 1.91 -69.376 1 0 -2.0175947094 5.3609043628Z" fill="#191919" stroke-width="1"></path><path d="M271.580285551 212.1375162452a2.864 1.91 -69.376 1 0 2.0175947094 -5.360904363 2.864 1.91 -69.376 1 0 -2.0175947094 5.360904363Z" fill="#191919" stroke-width="1"></path><path d="M259.954 104.404a2.552 2.552 0 1 0 5.104 0 2.552 2.552 0 1 0 -5.104 0Z" fill="#191919" stroke-width="1"></path><path d="M276.546 103.128a2.552 2.552 0 1 0 5.104 0 2.552 2.552 0 1 0 -5.104 0Z" fill="#191919" stroke-width="1"></path><path d="M182.2 189.254a35.34 35.34 0 0 0 -4 -9.512 58.014 58.014 0 0 0 -5.488 -8.858c-1.534 -1.828 -4.582 -4.364 -7.104 -4.416 -5.328 -0.108 -9.2 5.71 -11.7 10.42 -0.238 0.446 -1.566 3.094 -2.17 4.534 -2.826 6.272 -7 15.436 -2.212 20.314 3.476 3.502 9.282 2.482 11.572 2.442 3.914 -0.08 10.2 0.358 15.018 -1.072 4.066 -1.22 7.022 -3.79 7.146 -8.092a21.71 21.71 0 0 0 -1.062 -5.76Zm-18.8 -13.92c0.338 -1.578 2.176 -1.89 2.638 0.044a38.754 38.754 0 0 1 0 12.064c-0.372 1.928 -2.558 1.848 -2.852 -0.064a36.516 36.516 0 0 1 0.214 -12.044Zm1.382 20.778a2.6 2.6 0 1 1 2.2 -2.564 2.4 2.4 0 0 1 -2.198 2.564Z" fill="#2862e9" stroke-width="1"></path><path d="M180.758 302.702c-8.958 -15.702 -18.158 -31.658 -17.442 -49.888 1.716 -44.07 47.502 -85.7 93.722 -76.084a0.8 0.8 0 0 1 0.638 0.932 0.8 0.8 0 0 1 -0.936 0.616c-41.6 -7.948 -88.964 29.62 -90.786 74.638 -0.708 17.468 8.626 33.914 17.358 49.102 1.084 1.888 -2.924 1.966 -12.508 37.838a0.822 0.822 0 0 1 -1.022 0.624 0.864 0.864 0 0 1 -0.638 -1.05c3.456 -13.372 5.684 -24.03 11.614 -36.728Z" fill="#191919" stroke-width="1"></path><path d="M339.144 323.242c-3.968 14.154 -4.554 19.046 -7.104 28.938a0.872 0.872 0 0 1 -1.702 -0.382c1.294 -6.512 4.588 -22.162 6.636 -29.746l0.64 -0.77c32.764 -15.722 55.896 -46.37 48.284 -81.866 -5.64 -26.314 -25.864 -47.86 -35.6 -49.898 -11.112 -2.324 -20.68 2.474 -28.502 10.576a0.8 0.8 0 0 1 -1.15 -1.092c8.35 -8.928 18 -14.222 30.164 -11.882 11.118 2.136 31.926 24.93 37.692 51.74 7.788 36.254 -15.42 68.358 -49.358 84.382Z" fill="#191919" stroke-width="1"></path><path d="M258.8 166.362a63.652 63.652 0 0 1 8.898 -29.856 1.188 1.188 0 0 1 1.014 -0.664 186.2 186.2 0 0 0 28.266 -4.262c10.446 -2.446 32.098 -9.182 39.662 -16.096 4.916 -4.492 5.662 -10.566 4.078 -17.088 -3.858 -15.88 -18.73 -21.8 -33.768 -26.058a0.862 0.862 0 1 1 0.466 -1.658c11.6 3.16 21.688 6.236 29.644 15.24a28.4 28.4 0 0 1 6.622 22.216 16.252 16.252 0 0 1 -5.26 9.248c-7.926 7.368 -29.758 14.146 -40.84 16.764a181.526 181.526 0 0 1 -27.96 4.304 58.386 58.386 0 0 0 -8.036 32.2 1.334 1.334 0 0 1 -2.4 0.866c-5.336 -7.4 -15.348 -22.8 -18.12 -31.532 -11.3 -0.506 -25.6 -5.368 -33 -14.576 -9.488 -11.8 -7.058 -30.432 15.138 -43.474a103.974 103.974 0 0 1 14.698 -6.854 0.8 0.8 0 0 1 1.022 0.452 0.8 0.8 0 0 1 -0.44 1.026 96.424 96.424 0 0 0 -14.284 7.04 48.2 48.2 0 0 0 -14.89 13.932 26.184 26.184 0 0 0 -2.11 4.308c-3.448 9.09 -1.668 16.4 2.848 21.94 7.226 8.882 21.218 13.138 31.978 13.576 2.774 0.112 -1.464 2.206 16.774 29.006Z" fill="#191919" stroke-width="1"></path><path d="M314.682 181.316a32.8 32.8 0 0 1 13.232 3.91c2.688 1.274 3.48 1.746 3.956 1 0.624 -0.968 -1.546 -2.4 -2.766 -3.186a29.18 29.18 0 0 0 -14.294 -4.2c-1 0.024 -3.956 0.176 -3.956 1.276 0.072 0.744 0.358 0.766 3.828 1.2Z" fill="#191919" stroke-width="1"></path><path d="M312.3 186.11a29.246 29.246 0 0 0 5.658 1.136c1.158 0.108 1.534 -1.118 0.51 -1.65a10.986 10.986 0 0 0 -6 -1.056c-1.144 0.212 -1.086 1.242 -0.168 1.57Z" fill="#191919" stroke-width="1"></path><path d="M58.386 193.006a3.428 3.438 0 1 0 6.856 0 3.428 3.438 0 1 0 -6.856 0Z" fill="#2862e9" stroke-width="1"></path><path d="M66.026 190.87a5.328 5.328 0 0 0 -7.488 -1.14 4.71 4.71 0 1 0 7.488 1.14ZM63.942 193a2.128 2.128 0 0 1 -4.254 0 2.778 2.778 0 0 1 0.552 -1.584c1.014 -1.156 1.776 -1.384 2.936 -0.288a2.496 2.496 0 0 1 0.766 1.872Z" fill="#191919" stroke-width="1"></path><path d="M78.942 189.894a5.328 5.328 0 0 0 -7.488 -1.14 4.71 4.71 0 1 0 7.488 1.14Zm-2.084 2.136a2.128 2.128 0 0 1 -4.254 0 2.8 2.8 0 0 1 0.552 -1.584c1.014 -1.156 1.776 -1.384 2.936 -0.288a2.498 2.498 0 0 1 0.766 1.872Z" fill="#191919" stroke-width="1"></path><path d="M91.286 189.23a5.326 5.326 0 0 0 -7.486 -1.14 4.71 4.71 0 1 0 7.486 1.14ZM89.2 191.366a2.128 2.128 0 0 1 -4.254 0 2.768 2.768 0 0 1 0.554 -1.582c1.014 -1.158 1.774 -1.386 2.934 -0.29a2.498 2.498 0 0 1 0.766 1.872Z" fill="#191919" stroke-width="1"></path><path d="M125.946 304.77a0.892 0.892 0 0 0 -1.142 -0.484c-1.754 0.544 -2.182 -1.466 -1.14 -2.57a1.286 1.286 0 0 0 -0.484 -2.114 6.76 6.76 0 0 0 -6.464 0.764c-5.154 3.294 -4.506 8.558 -0.484 11.148a6.4 6.4 0 0 0 9.506 -2.552 4.634 4.634 0 0 0 0.552 -2.138 6.33 6.33 0 0 0 -0.344 -2.054Z" fill="#191919" stroke-width="1"></path><path d="M25.818 304.562c-3.018 -27.22 -5.742 -63.842 -5.742 -91.334 0 -25.726 -3.8 -41.59 23.568 -48.164 11.128 -2.67 22.614 -3.492 34.034 -4.632 25.03 -2.502 49.892 -3.882 75.342 -4.568 26.122 -0.702 42.518 1.36 44.8 27.644a0.874 0.874 0 0 0 1.744 -0.132C197.41 155.654 180.2 152.658 152.936 153.27c-24.8 0.558 -50.634 2.02 -75.514 4.49 -11.67 1.158 -23.078 1.97 -34.416 4.686C13.532 169.506 17.358 187.8 17.4 213.232c0.02 14.4 0.75 30.164 1.956 45.89 1.716 22.4 3.612 34.6 4.892 45.636a0.8 0.8 0 0 0 0.894 0.698 0.778 0.778 0 0 0 0.676 -0.894Z" fill="#191919" stroke-width="1"></path><path d="M26.372 305.8c0.516 4.944 1.352 10.568 4.68 14.214 6.55 7.178 27.156 3.8 36.586 2.884 22.058 -2.138 41.264 -4.232 63.176 -7.432 41.476 -6.058 42.36 -8.746 42.712 -6.81a0.85 0.85 0 0 1 -0.638 1.046c-36.046 8.554 -67.946 12.236 -105 15.86 -10.952 1.07 -31.352 4.456 -38.842 -3.728 -4.098 -4.476 -4.822 -10.982 -5.488 -17.012a1.352 1.352 0 0 1 1.106 -1.472c19.478 -3.258 137.944 -15.6 141.71 -15.932a0.8 0.8 0 0 1 0.126 1.6c-8.168 0.744 -134.64 15.902 -140.128 16.782Z" fill="#191919" stroke-width="1"></path><path d="M22.33 168.8c-16.182 12.854 -11.986 31.616 -11.4 51.282 0.482 16.214 -0.348 21.382 1.276 41.6 0.708 8.8 1.672 17.586 2.214 26.4 0.824 13.43 1.57 32.154 14.294 38.028a0.87 0.87 0 1 0 0.722 -1.582c-11.4 -5.262 -11.654 -24.866 -12.38 -36.612 -0.544 -8.828 -1.46 -17.634 -2.168 -26.45 -1.624 -20.164 -0.8 -25.362 -1.278 -41.462 -0.532 -18.11 -4.884 -37.87 9.744 -49.966a0.824 0.824 0 0 0 0.126 -1.122 0.838 0.838 0 0 0 -1.15 -0.116Z" fill="#191919" stroke-width="1"></path><path d="M131.664 337.498c-4.2 -3.436 -16.986 -6.218 -21.484 -7.2 0.128 -0.786 0.212 -1.574 0.34 -2.36 0.298 -1.69 0.678 -3.362 1.022 -5.034a0.886 0.886 0 0 0 -0.638 -1.054 0.866 0.866 0 0 0 -1.064 0.638 65.934 65.934 0 0 0 -1.856 8.17c-4.112 0.576 -21.278 4.658 -22.138 4.872 -1.47 0.382 -3.648 1.096 -4.338 1.312a0.89 0.89 0 0 0 -0.682 1.034 0.858 0.858 0 0 0 1.02 0.676c1.93 -0.2 3.264 -0.288 5.106 -0.626 6.188 -1.142 15.652 -3.45 18.252 -4.25 1.6 -0.51 2.828 -1.024 3.742 -1.4A150.528 150.528 0 0 1 126.4 337.6c1.448 0.6 4.44 1.868 4.552 3.438 -0.662 0.916 -14.6 4.14 -16.762 4.692 -7.86 2.028 -17 5.716 -25.058 5.292 -5.038 -0.246 -15.552 -7.728 -16.8 -11.124 -1.068 -3.106 -0.138 -8.024 0.68 -11.04a0.818 0.818 0 0 0 -1.574 -0.438 38.158 38.158 0 0 0 -1.616 7.084 10.162 10.162 0 0 0 3.956 10.026c3.422 3.274 10.782 7.908 15.188 8.156 8.698 0.466 17.854 -3.284 25.908 -5.344 4.346 -1.116 10 -2.346 14.04 -3.67 1.974 -0.624 4.722 -1.1 4.722 -3.698a4.78 4.78 0 0 0 -1.972 -3.476Z" fill="#191919" stroke-width="1"></path><path d="M250.06 257.574c-3.438 24.2 30.9 25.458 39.6 6.114a0.842 0.842 0 0 0 -0.34 -1.18 0.892 0.892 0 0 0 -1.2 0.37 24.534 24.534 0 0 1 -9.53 8.756c-10.746 5.56 -24.708 3.014 -26.674 -10.052a26.12 26.12 0 0 1 -0.298 -3.884 0.8 0.8 0 0 0 -0.722 -0.86 0.762 0.762 0 0 0 -0.836 0.736Z" fill="#191919" stroke-width="1"></path><path d="M257.378 238.464c-6.66 -0.054 -12.062 2.786 -17.272 6.986 -9.652 -8.026 -3.628 -19.616 4.722 -28.942a73.474 73.474 0 0 1 8.082 -7.94 0.8 0.8 0 0 0 -0.978 -1.284c-14.62 9.648 -27.242 28.828 -13.59 40.174 -5.862 7.712 -4.874 20.67 5.932 28.6 0.906 0.746 2.036 -0.6 1.15 -1.326a32.694 32.694 0 0 1 -3.2 -3.834c-4.146 -5.486 -5.986 -11.478 -3.828 -18 1.046 -3.2 1.916 -4.892 8 -8.716 9.216 -5.684 11.87 -2.826 11.87 -4.85a0.924 0.924 0 0 0 -0.888 -0.868Z" fill="#191919" stroke-width="1"></path><path d="M323.362 205.132a0.872 0.872 0 0 0 -1.276 1.19 36.378 36.378 0 0 1 8.338 27.156 24.448 24.448 0 0 1 -16.082 20.88c-6.2 -7.482 -12.84 -9.722 -21.612 -12.33a0.8 0.8 0 0 0 -0.468 1.524c27.888 9.538 32.894 29.86 -0.042 35.23a42.8 42.8 0 0 1 -5.7 0.624 0.866 0.866 0 0 0 -0.894 0.842 0.9 0.9 0 0 0 0.85 0.902c16.69 1.514 38.534 -9.306 28.824 -24.306 20.954 -7.514 23.734 -35.856 8.062 -51.712Z" fill="#191919" stroke-width="1"></path><path d="M250.742 279.1a90.352 90.352 0 0 0 -2.468 9.572c-6 30.34 -5.5 31.122 -6 36.672a1.448 1.448 0 0 0 2.852 0.498c0.552 -1.918 1.134 -3.784 1.616 -5.722 1.102 -4.43 3.966 -19.8 5.106 -26.512a68.688 68.688 0 0 0 1.488 -14.096 1.314 1.314 0 1 0 -2.6 -0.412Z" fill="#2862e9" stroke-width="1"></path><path d="M275.926 283.032c-0.74 2.246 -1.4 4.228 -2.042 6.964 -0.75 3.2 -3.388 20.378 -4.466 30.346 -0.49 4.518 -0.486 5.4 -0.682 10.022a1.442 1.442 0 1 0 2.85 0.43c2.308 -9.254 2.144 -9.19 4.212 -24.538 0.682 -5.042 1.6 -10.05 2.17 -15.094 0.388 -3.416 0.494 -6.726 0.554 -7.628a1.34 1.34 0 0 0 -1.064 -1.554 1.3 1.3 0 0 0 -1.532 1.052Z" fill="#2862e9" stroke-width="1"></path><path d="M317.066 204.03c0.6 -6.452 -1.212 -12.466 -7.234 -14.988a8.466 8.466 0 0 0 -2.6 -7.546 9.78 9.78 0 0 0 -8.722 -9.514 16.672 16.672 0 0 0 -5.87 1.086c-6.092 -7.026 -16.924 -1.962 -18.634 6.59 -7.288 0.64 -13.37 7.388 -11.7 14.748a8.4 8.4 0 0 0 -1.914 11.708 10.572 10.572 0 0 0 -0.418 7.558c-6.02 1.898 -6.292 10 -0.858 13.616a20.912 20.912 0 0 0 1.46 16 18.036 18.036 0 0 0 -6.6 1.8 12.934 12.934 0 0 0 -6.466 5.314c-0.812 0.872 0.6 2 1.318 1.128 0.2 -0.162 2.906 -2.066 3.106 -2.2a39.978 39.978 0 0 1 9.944 -4.2 13.826 13.826 0 0 0 2.522 2.354c-2.638 6.886 -2.344 6.918 -4.042 11.63l-3.616 -0.19a0.864 0.864 0 0 0 -0.256 1.71l4.51 0.672a1.102 1.102 0 0 0 1.106 -0.66c2.078 -4.542 3.09 -8.102 4.612 -11.942a12.904 12.904 0 0 0 3.6 0.66c0.468 0.016 2.138 -0.2 2.212 -1.03 0.126 -1.4 -3.214 -1.722 -4.04 -1.91 -5.4 -1.152 -9.742 -9.536 -6.546 -19.336a1.306 1.306 0 0 0 -0.68 -1.6 5.754 5.754 0 0 1 -2.766 -7.974 5.224 5.224 0 0 1 2.638 -2.068 1.37 1.37 0 0 0 0.254 0.056 16.856 16.856 0 0 1 2.384 0.444 1.34 1.34 0 0 0 1.616 -0.894 84.69 84.69 0 0 1 5.914 -14.6 10.224 10.224 0 0 0 9.954 -5.4 8.248 8.248 0 0 0 8.466 0.064 10 10 0 0 0 7.742 5.71 10.412 10.412 0 0 0 2.554 6.84 8.746 8.746 0 0 0 -0.6 8.126c-2 2.952 -3.496 6.534 -5.064 9.4a1.32 1.32 0 0 0 1.15 1.928c6.332 0.1 6.564 5.786 3.488 7.418a8.904 8.904 0 0 1 -7.4 -0.02 1.312 1.312 0 0 0 -1.616 0.492 30.02 30.02 0 0 1 -9.744 9.926 1.584 1.584 0 0 0 -0.6 0.744c-1.614 5.464 -2.8 9.548 -4.34 16.536a1.218 1.218 0 0 0 1.02 1.498c2.648 0.278 6 0.4 8.382 0.822a0.862 0.862 0 0 0 0.34 -1.69 62.48 62.48 0 0 0 -7.062 -1.34c1 -3.782 2.86 -10.826 4.084 -14.562a32.34 32.34 0 0 0 9.53 -9.6c7.2 2.314 13.098 -1.978 11.434 -7.388a8.668 8.668 0 0 0 4.136 -5.2c6.446 0.51 12.188 -6.102 9.828 -12.304a5.66 5.66 0 0 0 0.084 -8.422Z" fill="#191919" stroke-width="1"></path><path d="M288.902 246.04a14.6 14.6 0 0 1 1.956 1.468 14.312 14.312 0 0 1 3.702 4.34 21 21 0 0 1 1.956 5.538c0.2 0.874 0.468 1.682 0.6 2.506a0.872 0.872 0 0 0 1.744 0.022 15.746 15.746 0 0 0 -6.6 -14.49 7.77 7.77 0 0 0 -2.892 -0.906 0.83 0.83 0 0 0 -1.022 0.518 0.818 0.818 0 0 0 0.556 1.004Z" fill="#191919" stroke-width="1"></path><path d="M266.122 98.2c0.042 -0.356 0.084 -0.704 0.128 -1.07a0.878 0.878 0 0 1 1.744 -0.218 10.892 10.892 0 0 1 0.766 3.286 1.34 1.34 0 0 1 -1.914 1.288c-1.49 -0.73 -3.028 -1.34 -4.554 -2.04a9.988 9.988 0 0 1 -3.4 -2.1 0.8 0.8 0 0 1 0.68 -1.452c1.258 0.23 1.552 -0.056 6.55 2.306Z" fill="#191919" stroke-width="1"></path><path d="M274.672 96.384c3.8 -2.386 4.946 -3.88 8.254 -4.346a0.876 0.876 0 0 1 0.6 1.648c-0.2 0.126 -5.756 4.102 -8.764 5.658a1.264 1.264 0 0 1 -1.83 -0.814 6.888 6.888 0 0 1 -0.042 -2.344 0.8 0.8 0 0 1 0.638 -0.928 0.816 0.816 0 0 1 0.936 0.646 2.538 2.538 0 0 1 0.208 0.48Z" fill="#191919" stroke-width="1"></path><path d="M262.08 114.614c-0.4 -7.058 8.552 -2.628 11.018 -2.75 3.702 -0.184 10.954 -5.644 11.36 0.752 0.494 7.8 -6.68 3.4 -11.316 3.7 -3.276 0.218 -10.742 4.142 -11.062 -1.702Z" fill="#2862e9" stroke-width="1"></path><path d="M261.23 114.664c0 7.244 9.736 3.102 12 2.964a54.2 54.2 0 0 1 6.934 0.956c4.2 0.35 5.892 -1.92 5.616 -6.052 -0.188 -2.818 -1.508 -4.034 -3.276 -4.304 -3.03 -0.468 -7.028 2.186 -9.444 2.316 -1.578 0.092 -6.886 -2.232 -9.912 -0.468a4.17 4.17 0 0 0 -1.872 4.584Zm1.658 -0.094a3.084 3.084 0 0 1 0.766 -2.342c1.758 -1.498 7.234 1.05 9.53 0.954 2.412 -0.106 5.55 -1.924 7.956 -2.272 1.362 -0.2 1.86 0.032 1.956 1.8 0.228 3.77 -1.27 3.586 -5.318 2.81a13.712 13.712 0 0 0 -8.8 0.418c-1.328 0.376 -4.252 1.264 -5.276 0.348a2.756 2.756 0 0 1 -0.764 -1.71Z" fill="#191919" stroke-width="1"></path><path d="M258.314 54.556c3.054 -10.268 19.364 -10.862 20.888 -2.4 4.172 -0.728 8.762 0.6 9.784 4.694 8.368 2.4 8.836 14.092 -0.17 15.414 -1.246 4.08 -5.842 5.068 -10 4.2 -0.1 2.484 -0.242 5.272 -0.172 7.77a0.856 0.856 0 0 1 -0.8 0.916 0.906 0.906 0 0 1 -0.936 -0.826c-0.232 -3.248 -0.178 -5.576 -0.126 -9.286a1.078 1.078 0 0 1 1.4 -0.978c3.388 0.984 7.84 0.438 8.338 -3.154a1.282 1.282 0 0 1 1.19 -1.074c7.11 -0.51 6.416 -9.332 -0.084 -10.578a1.298 1.298 0 0 1 -1.064 -1.132c-0.502 -3.476 -4.934 -4.102 -8.168 -3a1.318 1.318 0 0 1 -1.744 -1.368c0.248 -3.43 -3.312 -4.916 -6.68 -4.78 -4.856 0.2 -9.562 3.778 -9.316 8.6a1.354 1.354 0 0 1 -2.554 0.67c-2.428 -4.868 -9.182 2.094 -4.892 5.906a1.32 1.32 0 0 1 -1.234 2.266 3.838 3.838 0 0 0 -3.828 1.348c-3 3.234 -1.108 7.734 3.318 8.496a13.234 13.234 0 0 0 7.488 -1.168 1.074 1.074 0 0 1 1.02 0.04c0.944 0.58 0.174 1.162 0.8 10.028a0.788 0.788 0 1 1 -1.572 0.118c-0.09 -0.774 -0.62 -5.904 -0.724 -7.67a13.94 13.94 0 0 1 -9.274 0.6 7.458 7.458 0 0 1 -3.022 -12.23 7.182 7.182 0 0 1 3.49 -2.152c-2.574 -5.496 4.056 -12.198 8.644 -9.27Z" fill="#2862e9" stroke-width="1"></path><path d="M269.034 74.342a5.486 5.486 0 0 1 -2.722 1.48c-0.524 0.05 -2.17 0.08 -2.256 -0.8 -0.078 -0.4 1.374 -1.454 1.574 -1.59a8.536 8.536 0 0 0 2.214 -1.67 1.322 1.322 0 0 1 1.616 -0.232c1.058 0.6 1.582 0.754 2.212 1.08 1.164 0.6 1.764 0.836 1.702 1.544 -0.088 0.972 -1.954 0.976 -2.8 0.76a7.33 7.33 0 0 1 -1.54 -0.572Z" fill="#2862e9" stroke-width="1"></path><path d="M261.2 65.43c1.524 -1.898 2.77 -3.122 5.106 -2.714 1.704 0.282 1.984 0.676 2.468 0.052 0.638 -0.826 -0.872 -2.048 -1.66 -2.444a5.158 5.158 0 0 0 -4.468 0.262c-1.35 0.642 -3.274 2.466 -3.274 3.712 -0.2 0.898 -0.264 1.9 0.424 2.098 0.654 0.188 0.862 -0.298 1.404 -0.966Z" fill="#2862e9" stroke-width="1"></path><path d="M277.714 62.28a9.174 9.174 0 0 1 0.8 0.64c0.17 0.11 0.382 0.2 0.552 0.304a5.184 5.184 0 0 1 2 2.82c0.128 0.342 0.382 0.584 0.51 0.938a0.866 0.866 0 0 0 0.894 0.842 0.9 0.9 0 0 0 0.85 -0.902 4.418 4.418 0 0 0 -1.106 -4.462 5.174 5.174 0 0 0 -2.892 -1.916 3.534 3.534 0 0 0 -1.446 0.144 0.8 0.8 0 1 0 -0.162 1.592Z" fill="#2862e9" stroke-width="1"></path><path d="M265 81.74a33.958 33.958 0 0 0 0.256 4.178c0.292 0.8 0.572 1.98 1.4 1.928s1.126 -1.698 1.148 -1.9a20.564 20.564 0 0 0 -0.296 -4.43c-0.052 -0.2 -0.6 -1.712 -1.362 -1.666 -0.662 0.042 -1.104 1.668 -1.146 1.89Z" fill="#2862e9" stroke-width="1"></path><path d="M270.184 82.236c-0.152 1.6 -0.184 5.052 1.4 4.944 0.724 -0.048 1.2 -1.6 1.2 -2.044a32.308 32.308 0 0 0 0 -3.352c-0.054 -0.2 -0.518 -1.628 -1.148 -1.668 -0.708 -0.042 -1.452 1.348 -1.452 2.12Z" fill="#2862e9" stroke-width="1"></path><path d="M278.776 88.2c4.544 -3.854 3.49 -3.864 6.466 -1.436l0.47 -0.78a0.904 0.904 0 0 1 1.446 -0.146 21.614 21.614 0 0 1 1.532 1.914 22.8 22.8 0 0 1 5.104 9.414 23.242 23.242 0 0 1 1.532 10.934c-2.22 19.098 -31.854 23.386 -43.4 10.06 -3.018 -3.49 -3.828 -8.554 -3.828 -13.15a24.526 24.526 0 0 1 2.466 -11.612 38.13 38.13 0 0 1 3.022 -5.294 1.304 1.304 0 0 1 2.126 -0.038 20.354 20.354 0 0 0 2.042 2.256 35.142 35.142 0 0 1 3.2 -2.654 1.298 1.298 0 0 1 1.7 0.126l2.298 2.308 2.68 -2.156a1.298 1.298 0 0 1 1.744 0.132 17.478 17.478 0 0 0 1.618 1.576c1.176 -1.2 2.262 -2.266 3.53 -3.356a1.2 1.2 0 0 1 1.49 -0.082c0.678 0.5 2.55 1.824 2.762 1.984Zm4.084 -0.732c-0.17 0.16 -0.382 0.324 -0.552 0.488 -2.4 2.234 -2.974 3.29 -4.042 2.652 -0.776 -0.45 -2.144 -1.364 -2.8 -1.836 -1.69 1.584 -1.646 1.64 -3.488 3.538a1.296 1.296 0 0 1 -1.744 0.086c-0.51 -0.426 -1.146 -0.974 -1.914 -1.676l-2.682 2.2a1.32 1.32 0 0 1 -1.7 -0.088l-2.298 -2.334c-0.852 0.662 -1.984 1.716 -3.062 2.626a1.34 1.34 0 0 1 -1.746 -0.018 21.902 21.902 0 0 1 -2 -1.966c-0.52 0.812 -0.91 1.688 -1.87 3.514a21.982 21.982 0 0 0 -2.17 10.34c0.042 4.058 0.542 8.358 3.19 11.4C264.752 128.8 295.4 124.2 292.9 102.8a39.33 39.33 0 0 0 -2.934 -10 19.238 19.238 0 0 0 -1.83 -2.938v-0.022s0 -0.024 -0.042 -0.036v-0.036c-0.636 -0.834 -0.88 -1.13 -1.4 -1.744l-0.34 0.64a0.924 0.924 0 0 1 -0.6 0.474c-0.668 0.144 -0.908 -0.218 -2.894 -1.672Z" fill="#191919" stroke-width="1"></path><path d="M119.624 227.96c-1.266 -3.576 -3.026 -3.168 -3.7 -3.506 -3.412 2.414 -4.488 9.362 -3.616 13.818 0.29 1.71 2.02 4.4 3.702 4.062 4.14 -0.796 5.324 -9.876 3.614 -14.374Z" fill="#191919" stroke-width="1"></path><path d="M168.762 222.714a1.388 1.388 0 0 0 0.34 -0.978c-0.37 -4.8 -0.4 -11.326 -0.68 -14.558a1.31 1.31 0 0 0 -1.278 -1.216c-9.542 -0.338 -22.262 -1 -22.748 -10.544a0.84 0.84 0 0 0 -0.044 -1.224 1.266 1.266 0 0 0 -1.328 -1.034c-60.176 3.986 -41.956 2.544 -94.062 6.2 -0.304 -10.616 11.038 -11.96 21.612 -12.708 6.082 -0.44 56.496 -3.43 61.984 -3.686 3.616 -0.17 7.232 -0.25 10.848 -0.088a0.8 0.8 0 0 0 0.086 -1.578 236.524 236.524 0 0 0 -27.44 0.314c-7.616 0.336 -38.076 1.864 -45.692 2.4 -13.534 0.962 -25.07 3.344 -23.95 16.932a1.294 1.294 0 0 0 0.694 1.044c0.698 19.71 2.058 34.514 3.9 53.226 0.76 7.082 0.516 17.064 5.572 22.63 6.026 6.558 20.524 4.8 29.354 3.892 67.438 -6.92 67.634 -6.874 73.132 -8.024a1.338 1.338 0 0 0 0.936 -1.892c-7.998 -16.142 -2.548 -36.97 8.764 -49.108Zm-71.216 13.572c-0.902 0.314 -1.762 0.666 -2.628 1 0.4 8.444 0.332 6.764 -0.4 11.238a1.434 1.434 0 0 1 -1.446 1.432 1.462 1.462 0 0 1 -1.446 -1.438c-0.518 -3.062 -0.538 -0.566 -1.094 -9.778 -3.022 0.86 -6.096 1.556 -9.116 2.346a2.222 2.222 0 0 1 -2.6 -3c5.062 -12.042 3.612 -8.694 6.254 -13.4a1.328 1.328 0 0 1 2.51 0.868 34.24 34.24 0 0 1 -2.978 10.104c1.888 -0.51 3.774 -1.012 5.682 -1.4 -0.292 -5.958 -0.372 -5.81 0.4 -9.6a1.34 1.34 0 0 1 1.276 -1.362 1.3 1.3 0 0 1 1.362 1.268 27.714 27.714 0 0 1 1.4 9.068c0.73 -0.058 1.464 -0.104 2.2 -0.164a1.436 1.436 0 1 1 0.6 2.8Zm19.356 10.4c-4.388 0.876 -8.142 -3.314 -8.934 -7.586 -1.322 -6.936 1.078 -16.126 8 -17.652a1.318 1.318 0 0 1 1.318 0.32c10.29 0.864 9.684 22.848 -0.384 24.92Zm29.226 -16.104 -0.852 0.416a52.632 52.632 0 0 1 -0.338 7.8c-0.446 2.7 -0.872 4.8 -2.426 4.676 -1.262 -0.098 -1.616 -1.446 -1.744 -5.106 -0.102 -1.884 -0.014 -3.77 0.026 -5.658a52.2 52.2 0 0 1 -7.726 1.464 2.2 2.2 0 0 1 -2.34 -2.884 86.316 86.316 0 0 1 3.4 -10.21c0.8 -1.712 1.2 -3.02 2.468 -2.728 1.2 0.286 1.216 1.66 0.85 4.756a34.478 34.478 0 0 1 -1.446 6.14c1.6 -0.31 3.212 -0.674 4.818 -0.954a45.504 45.504 0 0 1 0.244 -5.918c0.378 -2.764 0.74 -4 1.914 -4s1.366 1.062 1.788 2.982a25.694 25.694 0 0 1 0.494 6.468l0.058 0a1.454 1.454 0 0 1 1.788 1 1.42 1.42 0 0 1 -0.976 1.758Z" fill="#191919" stroke-width="1"></path></svg>