<svg xmlns="http://www.w3.org/2000/svg" width="24" height="24" viewBox="0 0 24 24" fill="none"><path d="M7.62966 7.62966L10.6357 10.6357M3.04172 4.34067L5.65812 13.4981C6.43598 16.2206 8.59094 18.0976 11.4224 18.0976C11.846 18.0976 12.2696 18.0465 12.6864 17.9501C13.0783 17.8595 13.4984 17.9486 13.7828 18.233L16.2421 20.6922C16.6524 21.1026 17.3177 21.1026 17.7281 20.6922L20.6922 17.7281C21.1026 17.3177 21.1026 16.6524 20.6922 16.2421L18.2368 13.7866C17.953 13.5029 17.8637 13.084 17.9528 12.6927C18.0473 12.2778 18.0976 11.8526 18.0976 11.4224C18.0976 8.59094 16.2206 6.43598 13.4981 5.65812L4.34067 3.04172C3.54806 2.81525 2.81525 3.54805 3.04172 4.34067Z" stroke="white" stroke-width="1.5" stroke-linecap="round" stroke-linejoin="round"></path></svg>