<svg xmlns="http://www.w3.org/2000/svg" width="128" height="44" viewBox="0 0 128 44" fill="none" id="svg1203132440_4027">
<g clip-path="url(#svg1203132440_4027_clip0_3015_4006)">
<path d="M127.921 11.1235C129.664 21.2337 102.461 34.4739 67.1546 40.6957C31.852 46.9174 1.81984 43.7603 0.0789638 33.6459C-1.6605 23.5343 25.5494 10.2983 60.852 4.07798C96.156 -2.14662 126.183 1.0105 127.921 11.1235Z" fill="#B7B7B7"/>
<path d="M94.6934 26.1329L94.5121 15.6201H97.7885V28.8703H93.0777L89.8083 17.9961H89.738L89.9194 28.8703H86.6641V15.6201H91.5787L94.6203 26.1329H94.6934Z" fill="white"/>
<path d="M35.1357 16.8608L33.3231 29.0098H29.75L32.2038 15.6201H38.0902L40.5327 29.0098H36.9736L35.2103 16.8608H35.1357Z" fill="white"/>
<path d="M48.8543 29.0098L46.641 16.9717H46.5692L46.4863 29.0098H43.1719L43.4644 15.6201H48.8642L50.4982 25.8555H50.5685L52.2039 15.6201H57.6009L57.8877 29.0098H54.5804L54.4932 16.9717H54.4243L52.2123 29.0098H48.8543Z" fill="white"/>
<path d="M24.1763 25.2358C24.3057 25.5602 24.2663 25.9771 24.2059 26.2289C24.0948 26.6743 23.7967 27.1281 22.9164 27.1281C22.0867 27.1281 21.5833 26.6472 21.5833 25.9117V24.6155H18.0341L18.0312 25.6527C18.0312 28.6377 20.3543 29.5383 22.8433 29.5383C25.2366 29.5383 27.2081 28.7102 27.5217 26.4793C27.682 25.3226 27.5625 24.5657 27.5076 24.2797C26.9494 21.4769 21.9264 20.6403 21.5524 19.0724C21.4891 18.8035 21.5074 18.519 21.5383 18.3667C21.6297 17.9399 21.9194 17.469 22.7476 17.469C23.521 17.469 23.9781 17.9527 23.9781 18.684C23.9781 18.9302 23.9781 19.5106 23.9781 19.5106H27.2784V18.5702C27.2784 15.6535 24.691 15.1982 22.8165 15.1982C20.4626 15.1982 18.5389 15.985 18.1873 18.1647C18.0917 18.7665 18.0777 19.3029 18.2169 19.9745C18.7948 22.7104 23.4957 23.5029 24.1763 25.2358Z" fill="white"/>
<path d="M67.211 25.2158C67.3418 25.5373 67.2996 25.9428 67.2406 26.1947C67.1323 26.6386 66.837 27.0853 65.9623 27.0853C65.1439 27.0853 64.6447 26.6044 64.6447 25.8859L64.6419 24.6012H61.1292L61.125 25.6241C61.125 28.5792 63.4269 29.4713 65.8906 29.4713C68.2586 29.4713 70.2119 28.6546 70.5198 26.4436C70.6801 25.2955 70.5662 24.5485 70.5086 24.2682C69.9531 21.491 64.9808 20.663 64.611 19.1107C64.5477 18.8432 64.566 18.5615 64.5983 18.4178C64.6925 17.9882 64.9766 17.5286 65.7964 17.5286C66.5628 17.5286 67.0099 18.001 67.0099 18.7266C67.0099 18.9699 67.0099 19.5447 67.0099 19.5447H70.285V18.6142C70.285 15.7288 67.7187 15.2764 65.8625 15.2764C63.5352 15.2764 61.627 16.0532 61.2825 18.2172C61.1869 18.8105 61.177 19.3369 61.3134 20.0056C61.8829 22.7132 66.5375 23.4999 67.211 25.2158Z" fill="white"/>
<path d="M78.3234 27.0122C79.2417 27.0122 79.5286 26.3691 79.5918 26.0404C79.6186 25.8953 79.6256 25.7018 79.6228 25.5282V15.6201H82.9695V25.2252C82.9766 25.4713 82.9526 25.9778 82.9414 26.1045C82.7066 28.6043 80.7534 29.4152 78.322 29.4152C75.8879 29.4152 73.9333 28.6043 73.7013 26.1045C73.69 25.9778 73.6661 25.4713 73.6731 25.2252V15.6201H77.0171V25.5282C77.0171 25.7018 77.0227 25.8967 77.048 26.0404C77.1197 26.3691 77.3982 27.0122 78.3234 27.0122Z" fill="white"/>
<path d="M105.932 26.8733C106.891 26.8733 107.226 26.2601 107.287 25.903C107.311 25.7494 107.318 25.563 107.317 25.3937V23.4502H105.959V21.4953H110.651V25.0892C110.648 25.3396 110.643 25.5246 110.603 25.9713C110.382 28.4071 108.294 29.2764 105.949 29.2764C103.599 29.2764 101.514 28.4071 101.29 25.9713C101.252 25.5246 101.246 25.3396 101.242 25.0892L101.245 19.4508C101.245 19.2132 101.275 18.792 101.3 18.5687C101.594 16.066 103.599 15.2607 105.949 15.2607C108.296 15.2607 110.35 16.0618 110.593 18.5687C110.637 18.9955 110.623 19.4508 110.623 19.4508V19.8975H107.286V19.1477C107.289 19.1492 107.282 18.829 107.242 18.6384C107.186 18.3424 106.932 17.6624 105.923 17.6624C104.959 17.6624 104.676 18.3055 104.606 18.6384C104.565 18.8148 104.55 19.0538 104.55 19.2701V25.3937C104.547 25.563 104.557 25.7494 104.583 25.903C104.641 26.2616 104.974 26.8733 105.932 26.8733Z" fill="white"/>
</g>
<defs>
<clipPath id="svg1203132440_4027_clip0_3015_4006">
<rect width="128" height="43" fill="white" transform="translate(0 0.885742)"/>
</clipPath>
</defs>
</svg>