<svg xmlns="http://www.w3.org/2000/svg" width="133" height="29" viewBox="0 0 133 29" fill="none" id="svg-2061378598_8795">
<path d="M10.5164 9.55371H25.2751C25.557 9.55371 25.7876 9.78514 25.7876 10.068V11.7909C25.7876 12.0738 25.557 12.3052 25.2751 12.3052H10.5164C10.2345 12.3052 10.0039 12.0738 10.0039 11.7909V10.068C10.0039 9.78514 10.2345 9.55371 10.5164 9.55371Z" fill="#B7B7B7"/>
<path d="M0.758551 16.4209H15.4917C15.7736 16.4209 16.0042 16.6523 16.0042 16.9352V18.6581C16.0042 18.9409 15.7736 19.1724 15.4917 19.1724H0.758551C0.4767 19.1724 0.246094 18.9409 0.246094 18.6581V16.9352C0.271717 16.6523 0.4767 16.4209 0.758551 16.4209Z" fill="#B7B7B7"/>
<path fill-rule="evenodd" clip-rule="evenodd" d="M2.14158 11.426C2.42344 11.5031 2.67966 11.3488 2.75653 11.066C4.44764 5.743 9.90532 2.60581 15.3374 3.8144C15.5936 3.86583 15.8498 3.71154 15.9267 3.45439L16.3623 1.78294C16.4392 1.50007 16.2598 1.21721 16.0036 1.16578H15.9779C9.11101 -0.377099 2.21845 3.60868 0.117376 10.3717C0.0405077 10.6545 0.194245 10.9374 0.476097 11.0145L2.14158 11.426Z" fill="#B7B7B7"/>
<path fill-rule="evenodd" clip-rule="evenodd" d="M23.8988 17.2688C23.617 17.1917 23.3607 17.346 23.2839 17.6288C21.5928 22.9518 16.1351 26.089 10.703 24.9061C10.4468 24.8547 10.1906 25.0089 10.1137 25.2661L9.67811 26.9118C9.60124 27.1947 9.7806 27.4776 10.0368 27.529H10.0625C16.9294 29.0719 23.8219 25.0604 25.923 18.3231C25.9999 18.066 25.8461 17.7831 25.5899 17.6803C25.5899 17.6803 25.5899 17.6803 25.5643 17.6803L23.8988 17.2688Z" fill="#B7B7B7"/>
<path d="M20.8203 6.56461C21.6553 6.56461 22.3321 5.88535 22.3321 5.04744C22.3321 4.20953 21.6553 3.53027 20.8203 3.53027C19.9854 3.53027 19.3086 4.20953 19.3086 5.04744C19.3086 5.88535 19.9854 6.56461 20.8203 6.56461Z" fill="#B7B7B7"/>
<path d="M5.21878 25.1896C6.0537 25.1896 6.73053 24.5104 6.73053 23.6724C6.73053 22.8345 6.0537 22.1553 5.21878 22.1553C4.38387 22.1553 3.70703 22.8345 3.70703 23.6724C3.70703 24.5104 4.38387 25.1896 5.21878 25.1896Z" fill="#B7B7B7"/>
<path fill-rule="evenodd" clip-rule="evenodd" d="M62.508 11.6351C63.6098 10.4265 65.1984 9.73221 66.8383 9.75793C68.4269 9.75793 69.6568 10.2465 70.4255 11.198V10.4265C70.4255 10.1951 70.6048 10.0151 70.8354 10.0151H72.9109C73.1415 10.0408 73.3208 10.1951 73.3208 10.4265V22.0238C73.3977 23.6696 72.8853 25.2639 71.886 26.5754C70.7586 27.9382 69.0675 28.6325 66.8126 28.6325C63.7123 28.6325 61.2525 26.6525 60.8425 23.8496C60.8169 23.6439 60.945 23.4382 61.15 23.3867L63.1742 22.8982H63.1998C63.4304 22.8724 63.6354 23.0267 63.661 23.2324C63.8404 24.801 65.1984 25.9839 66.787 25.9582C69.2212 25.9582 70.3486 24.6982 70.3486 22.101V21.0981C69.4518 22.101 68.145 22.6667 66.787 22.6153C63.3279 22.6153 60.8169 19.9152 60.8169 16.2123C60.8169 14.5152 61.4062 12.8951 62.508 11.6351ZM102.838 9.60364H102.941C106.656 9.65507 108.962 12.2523 108.962 16.418C108.962 16.6495 108.962 16.8552 108.937 17.0866C108.911 17.2923 108.732 17.4466 108.527 17.4466H99.6868C99.738 19.2981 101.275 20.7895 103.12 20.7638C104.555 20.8667 105.862 19.941 106.272 18.5524C106.349 18.3466 106.579 18.2438 106.784 18.2952L108.552 18.9124C108.655 18.9381 108.732 19.0152 108.783 19.1181C108.834 19.2209 108.834 19.3238 108.809 19.4267C107.989 21.8696 105.683 23.4639 103.12 23.3867C101.455 23.4124 99.8405 22.7439 98.6363 21.561C97.3295 20.1981 96.6377 18.3466 96.7145 16.4695C96.7145 12.1494 99.8405 9.57792 102.838 9.60364ZM52.8482 9.60364C56.6404 9.60364 58.972 12.2008 58.972 16.418C58.972 16.6495 58.972 16.8552 58.9464 17.0866C58.9208 17.2923 58.7414 17.4466 58.5364 17.4466H49.6966C49.7478 19.3238 51.2852 20.7895 53.1556 20.7638C54.5905 20.8667 55.8973 19.941 56.3073 18.5524C56.3841 18.3466 56.6147 18.2438 56.8197 18.2952L58.5877 18.9124C58.6902 18.9381 58.767 19.0152 58.8183 19.1181C58.8695 19.2209 58.8695 19.3238 58.8183 19.4267C57.9984 21.8696 55.6923 23.4639 53.13 23.3867C51.4389 23.4124 49.8247 22.7439 48.646 21.561C47.3392 20.1981 46.6474 18.3466 46.7243 16.4695C46.7499 12.1494 49.8503 9.60364 52.8482 9.60364ZM39.473 9.60364C41.1641 9.60364 42.5478 10.0151 43.5727 10.8379C44.2645 11.378 44.777 12.1237 45.0332 12.9723C45.0588 13.1266 44.9819 13.2808 44.8282 13.3066L42.7271 14.0009C42.6246 14.0266 42.5221 14.0266 42.4453 14.0009C42.3684 13.9751 42.3172 13.898 42.2915 13.7951C42.1122 13.1008 41.4972 11.9694 39.4986 11.9694C38.115 11.9694 37.2695 12.7665 37.2695 13.538C37.2695 14.0523 37.5257 14.7209 38.7812 14.9523L41.0873 15.3895C43.6752 15.9037 45.1613 17.3438 45.1613 19.3238V19.2981C45.1613 21.2524 43.2652 23.361 39.7805 23.361C35.7321 23.361 34.1178 21.0467 33.836 19.6838C33.8104 19.5295 33.9129 19.4009 34.041 19.3495L36.2189 18.6809C36.2702 18.6809 36.2958 18.6809 36.347 18.6809C36.3983 18.6809 36.4751 18.7066 36.5264 18.7324C36.6033 18.7581 36.6545 18.8352 36.6801 18.9381C36.962 20.2495 38.1406 21.021 39.8317 21.021C41.4204 21.021 42.1378 20.1981 42.1378 19.4524C42.1378 18.7067 41.4972 18.1409 40.3954 17.9352L37.9613 17.4723C35.6808 17.0352 34.2716 15.6209 34.2716 13.7694C34.2203 11.4808 36.6289 9.60364 39.473 9.60364ZM128.974 5.95215C129.204 5.97786 129.384 6.15787 129.384 6.3893V9.96365H131.664C131.895 9.98936 132.074 10.1694 132.074 10.4008V12.3037C132.074 12.5351 131.895 12.7151 131.664 12.7151H129.384V19.0667C129.384 20.121 129.794 20.5581 130.87 20.5581C131.126 20.5581 131.357 20.5324 131.587 20.5067C131.715 20.481 131.818 20.5324 131.92 20.6095C131.997 20.6867 132.048 20.8153 132.048 20.9181V22.7181C132.048 22.8981 131.92 23.0524 131.767 23.1039C131.254 23.2582 130.716 23.3096 130.152 23.3096C127.872 23.3096 126.437 21.8438 126.437 19.4524V12.7408H124.464C124.234 12.7151 124.054 12.5608 124.054 12.3294V10.4265C124.054 10.1951 124.234 10.0151 124.464 9.98936H124.977C125.592 9.98936 126.642 9.78364 126.642 8.29219V6.3893C126.642 6.15787 126.821 5.97786 127.052 5.95215H128.974ZM86.081 11.7122C86.9778 10.3237 88.5665 9.50078 90.232 9.57793C92.4868 9.57793 94.7672 11.1722 94.7672 14.6694V22.7439C94.7672 22.9753 94.5878 23.1553 94.3572 23.1553H92.2818C92.0512 23.1296 91.8974 22.9753 91.8718 22.7439V14.9266C91.8718 13.9494 91.5643 12.278 89.4889 12.278C87.9771 12.278 86.8754 13.4866 86.8754 15.2352V22.7439C86.8754 22.9753 86.696 23.1553 86.4654 23.1553H84.3643C84.1337 23.1296 83.9543 22.9753 83.9543 22.7439V14.9266C83.9543 13.9494 83.6469 12.278 81.5714 12.278C79.9828 12.278 78.9066 13.4608 78.9066 15.2609V22.7439C78.9066 22.9753 78.7273 23.1553 78.4967 23.1553H76.4212C76.1906 23.1296 76.0369 22.9496 76.0113 22.7439V10.3751C76.0113 10.1436 76.1906 9.96365 76.4212 9.96365H78.4198C78.6504 9.98936 78.8041 10.1436 78.8298 10.3751V11.1208C79.7266 10.1179 81.0077 9.57792 82.3401 9.60364C83.8775 9.55221 85.3124 10.3751 86.081 11.7122ZM117.802 9.60364C119.16 9.55221 120.441 10.1179 121.338 11.1465C122.158 12.2265 122.568 13.538 122.491 14.8752V22.7439C122.491 22.9753 122.312 23.1553 122.081 23.1553H119.98C119.75 23.1296 119.57 22.9753 119.57 22.7439V15.2866C119.57 13.3323 118.648 12.3294 116.905 12.3294C116.137 12.3037 115.394 12.638 114.932 13.2551C114.471 13.9237 114.215 14.7466 114.266 15.5695V22.7439C114.266 22.9753 114.087 23.1553 113.856 23.1553H111.755C111.525 23.1296 111.371 22.9753 111.345 22.7439V10.3751C111.345 10.1436 111.525 9.96365 111.755 9.96365H113.805C114.036 9.98936 114.189 10.1436 114.215 10.3751V11.2494C115.086 10.1694 116.419 9.55221 117.802 9.60364ZM67.1714 12.3551C65.1215 12.3551 63.8148 13.8209 63.8148 16.1609C63.8148 18.5266 65.0959 19.9667 67.1714 19.9667C69.1443 19.9667 70.4767 18.4238 70.4767 16.1609C70.4767 13.898 69.1443 12.3551 67.1714 12.3551ZM52.8738 12.2523C51.3108 12.2265 49.9784 13.4094 49.799 14.978H55.9742C55.8204 13.2808 54.6418 12.2523 52.8738 12.2523ZM102.864 12.2523C101.301 12.2265 99.9686 13.4094 99.7893 14.978H105.99C105.836 13.2808 104.658 12.2523 102.864 12.2523Z" fill="#B7B7B7"/>
<path d="M37.2968 1.22065V5.38643H36.1181V1.22065H34.5039V0.217773H38.9367V1.22065H37.2968Z" fill="#B7B7B7"/>
<path d="M46.2671 5.41215H45.0372L43.9098 1.60637L42.7824 5.41215H41.5782L40.0664 0.217773H41.3219L42.27 3.94641L43.3461 0.217773H44.6017L45.6778 3.94641L46.6002 0.217773H47.7533L46.2671 5.41215Z" fill="#B7B7B7"/>
<path d="M49.3633 5.38643V0.217773H50.5163V5.38643H49.3633Z" fill="#B7B7B7"/>
<path d="M52.6133 5.38643V0.217773H53.7919V4.35785H55.7905V5.38643H52.6133Z" fill="#B7B7B7"/>
<path d="M57.5352 5.38643V0.217773H58.6882V5.38643H57.5352Z" fill="#B7B7B7"/>
<path d="M63.0506 5.48831C61.6157 5.48831 60.4883 4.45972 60.4883 2.81398C60.4883 1.16824 61.6413 0.139648 63.0506 0.139648C64.4598 0.139648 65.6129 1.16824 65.6129 2.81398C65.6129 4.45972 64.4855 5.48831 63.0506 5.48831ZM63.0506 1.06538C62.1538 1.06538 61.6413 1.8111 61.6413 2.78826C61.6413 3.79114 62.1794 4.51115 63.0506 4.51115C63.9217 4.51115 64.4342 3.76542 64.4342 2.78826C64.4342 1.8111 63.9217 1.06538 63.0506 1.06538Z" fill="#B7B7B7"/>
</svg>