<?xml version="1.0" encoding="UTF-8"?>
<svg xmlns="http://www.w3.org/2000/svg" width="24" height="24" viewBox="0 0 24 24" fill="none">
  <path d="M3 15.75V8.25C3 7.14543 3.89543 6.25 5 6.25H13.5C14.6046 6.25 15.5 7.14543 15.5 8.25V15.75C15.5 16.8546 14.6046 17.75 13.5 17.75H5C3.89543 17.75 3 16.8546 3 15.75Z" stroke="white" stroke-width="1.5" stroke-linecap="round" stroke-linejoin="round"></path>
  <path d="M20.1675 6.99477L16.1675 10.557C16.0609 10.6519 16 10.7877 16 10.9304V12.7083C16 12.851 16.0609 12.9868 16.1675 13.0817L20.1675 16.6439C20.4898 16.931 21 16.7022 21 16.2705V7.36817C21 6.93652 20.4898 6.7077 20.1675 6.99477Z" stroke="white" stroke-width="1.5" stroke-linecap="round" stroke-linejoin="round"></path>
</svg>
