<svg xmlns="http://www.w3.org/2000/svg" width="24" height="24" viewBox="0 0 24 24" fill="none"><path d="M6.5 21H18C19.6569 21 21 19.6018 21 17.8769C21 16.5687 21.1297 15.2472 19.7034 14.6243M7.98047 20.6633L18.2672 15.9943C18.9037 15.7054 19.3956 15.2141 19.7034 14.6243M12.0896 10.8372L15.1026 9.11901C16.6557 8.23335 18.6038 8.93341 19.3014 10.6278L19.8256 11.9012C20.2019 12.8152 20.1268 13.813 19.7034 14.6243M9.88182 18.3417C9.38152 20.2542 7.46235 21.3892 5.59521 20.8767C3.72808 20.3643 2.61982 18.3987 3.12011 16.4862L6.17921 5.27081C6.6323 3.60966 8.29434 2.64658 9.88929 3.12097L11.0604 3.4693C12.6748 3.94949 13.5964 5.71547 13.1047 7.38676L9.88182 18.3417Z" stroke="black" stroke-width="1.5" stroke-linecap="round" stroke-linejoin="round"></path><path d="M6.50037 17L6.25787 17.854" stroke="black" stroke-width="1.5" stroke-linecap="round" stroke-linejoin="round"></path></svg>