<svg width="28" height="28" viewBox="0 0 28 28" fill="none" xmlns="http://www.w3.org/2000/svg">
<path d="M16.3858 9.31815C18.7728 10.9655 21.875 14.9321 21.875 18.5056C21.875 22.1305 17.9538 25.0681 14 25.0681C10.0462 25.0681 6.125 22.1305 6.125 18.5056C6.125 14.9321 9.22717 10.9655 11.6142 9.31815L9.8 4.99331C9.72696 4.86579 9.6815 4.72435 9.66656 4.57816C9.65163 4.43196 9.66755 4.28425 9.71329 4.14459C9.75904 4.00493 9.83359 3.87643 9.93213 3.7674C10.0307 3.65837 10.151 3.57124 10.2853 3.51165C12.6965 2.72008 15.2976 2.72008 17.7088 3.51165C17.8437 3.57068 17.9646 3.6574 18.0637 3.76619C18.1629 3.87497 18.2381 4.00339 18.2844 4.1431C18.3307 4.28282 18.3471 4.43071 18.3326 4.57718C18.318 4.72365 18.2729 4.86543 18.2 4.99331L16.3858 9.31815Z" stroke="#111111" stroke-width="2" stroke-linecap="round" stroke-linejoin="round"/>
<path d="M11.6133 9.32031H16.3849" stroke="#111111" stroke-width="1.5" stroke-linecap="round" stroke-linejoin="round"/>
<path d="M5.28571 24C1.85714 24 1 20.4211 1 17.8991C1.05048 16.4213 1.45049 14.9795 2.16438 13.7023C2.87826 12.425 3.88383 11.352 5.09143 10.5789L3.64686 8.40414C3.55783 8.26995 3.50566 8.11289 3.49601 7.94997C3.48636 7.78704 3.51959 7.62447 3.5921 7.47985C3.66461 7.33523 3.77364 7.21407 3.90738 7.12948C4.04112 7.0449 4.19448 7.00013 4.35086 7H7" stroke="#111111" stroke-width="2" stroke-linecap="round" stroke-linejoin="round"/>
<path d="M12.0505 20.2202C12.3031 20.5522 12.632 20.8184 13.0093 20.9963C13.3867 21.1742 13.8013 21.2585 14.2182 21.2422C15.547 21.2422 16.625 20.4337 16.625 19.4362C16.625 18.4387 15.547 17.6325 14.2182 17.6325C12.8893 17.6325 11.8125 16.824 11.8125 15.8265C11.8125 14.829 12.8905 14.0217 14.2182 14.0217C14.635 14.0048 15.0497 14.0888 15.4271 14.2665C15.8045 14.4442 16.1334 14.7104 16.3858 15.0425" stroke="#111111" stroke-width="2" stroke-linecap="round" stroke-linejoin="round"/>
<path d="M14.2188 21.2422V22.4439" stroke="#111111" stroke-width="2" stroke-linecap="round" stroke-linejoin="round"/>
<path d="M14.2188 12.8203V14.0231" stroke="#111111" stroke-width="2" stroke-linecap="round" stroke-linejoin="round"/>
<path d="M22.7143 24C26.1429 24 27 20.4211 27 17.8991C26.9495 16.4213 26.5495 14.9795 25.8356 13.7023C25.1217 12.425 24.1162 11.352 22.9086 10.5789L24.3531 8.40414C24.4422 8.26995 24.4943 8.11289 24.504 7.94997C24.5136 7.78704 24.4804 7.62447 24.4079 7.47985C24.3354 7.33523 24.2264 7.21407 24.0926 7.12948C23.9589 7.0449 23.8055 7.00013 23.6491 7H21" stroke="#111111" stroke-width="2" stroke-linecap="round" stroke-linejoin="round"/>
</svg>
