<svg width="22" height="22" viewBox="0 0 22 22" fill="none" xmlns="http://www.w3.org/2000/svg">
<ellipse cx="10.9997" cy="8.33854" rx="2.29167" ry="2.29167" stroke="white" stroke-width="1.5" stroke-linecap="round" stroke-linejoin="round"/>
<path d="M6.45898 17.1432C7.15187 12.0773 14.8482 12.0773 15.5411 17.1432" stroke="white" stroke-width="1.5" stroke-linecap="round" stroke-linejoin="round"/>
<path d="M18.7913 14.4814V7.51335C18.791 7.20786 18.7109 6.90783 18.5589 6.64335C18.407 6.37887 18.1886 6.15924 17.9256 6.0065L11.8654 2.52245C11.6022 2.36955 11.3036 2.28906 10.9997 2.28906C10.6957 2.28906 10.3972 2.36955 10.1339 2.52245L4.07375 6.0065C3.81079 6.15924 3.59238 6.37887 3.44043 6.64335C3.28847 6.90783 3.20832 7.20786 3.20801 7.51335V14.4814C3.20832 14.7869 3.28847 15.087 3.44043 15.3514C3.59238 15.6159 3.81079 15.8356 4.07375 15.9883L10.1339 19.4723C10.3972 19.6252 10.6957 19.7057 10.9997 19.7057C11.3036 19.7057 11.6022 19.6252 11.8654 19.4723L17.9256 15.9883C18.1886 15.8356 18.407 15.6159 18.5589 15.3514C18.7109 15.087 18.791 14.7869 18.7913 14.4814Z" stroke="white" stroke-width="1.5" stroke-linecap="round" stroke-linejoin="round"/>
</svg>
