<svg width="28" height="28" viewBox="0 0 28 28" fill="none" xmlns="http://www.w3.org/2000/svg">
<path d="M17.218 24.9375H2.6253C2.49942 24.9375 2.37502 24.9104 2.26058 24.858C2.14613 24.8056 2.04435 24.7291 1.96217 24.6337C1.88 24.5384 1.81936 24.4264 1.78441 24.3055C1.74946 24.1845 1.74101 24.0575 1.75964 23.933L8.60914 7.4375H20.8591L18.0836 23.933C18.1023 24.0575 18.0938 24.1845 18.0589 24.3055C18.0239 24.4264 17.9633 24.5384 17.8811 24.6337C17.7989 24.7291 17.6971 24.8056 17.5827 24.858C17.4683 24.9104 17.3438 24.9375 17.218 24.9375Z" stroke="#111111" stroke-width="2" stroke-linecap="round" stroke-linejoin="round"/>
<path d="M14.6119 13.0665L12.3147 12.4831C11.9623 12.3923 11.5892 12.4271 11.2597 12.5817C10.9302 12.7362 10.6648 13.0009 10.5094 13.33C10.354 13.6591 10.3182 14.0321 10.4081 14.3847C10.498 14.7374 10.7081 15.0477 11.0022 15.2621L13.094 16.7928C13.3846 17.0084 13.5915 17.3181 13.6795 17.6691C13.7674 18.0201 13.731 18.3907 13.5763 18.7179C13.4217 19.045 13.1585 19.3084 12.8314 19.4633C12.5044 19.6181 12.1338 19.6548 11.7827 19.5671L9.48438 18.9838" stroke="#111111" stroke-width="2" stroke-linecap="round" stroke-linejoin="round"/>
<path d="M12.918 12.6327L13.3531 10.9375" stroke="#111111" stroke-width="2" stroke-linecap="round" stroke-linejoin="round"/>
<path d="M10.7441 21.1092L11.1781 19.4141" stroke="#111111" stroke-width="2" stroke-linecap="round" stroke-linejoin="round"/>
<path d="M2.87713 11.6667H2.02157C1.79466 11.6667 1.57705 11.5806 1.4166 11.4275C1.25615 11.2743 1.16602 11.0666 1.16602 10.85V4.31667C1.16602 4.10007 1.25615 3.89235 1.4166 3.7392C1.57705 3.58604 1.79466 3.5 2.02157 3.5H25.9771C26.204 3.5 26.4216 3.58604 26.5821 3.7392C26.7425 3.89235 26.8327 4.10007 26.8327 4.31667V10.85C26.8327 11.0666 26.7425 11.2743 26.5821 11.4275C26.4216 11.5806 26.204 11.6667 25.9771 11.6667H23.4105" stroke="#111111" stroke-width="2" stroke-linecap="round" stroke-linejoin="round"/>
</svg>
