<svg width="28" height="28" viewBox="0 0 28 28" fill="none" xmlns="http://www.w3.org/2000/svg">
<path d="M7.02041 6.88511C7.67131 10.3858 9.95881 12.7836 14 14C18.0412 12.7836 20.3287 10.3858 20.9796 6.88511C21.0182 6.65116 21.0019 6.4122 20.9318 6.18469C20.8617 5.95719 20.7394 5.74657 20.5735 5.56736C20.4076 5.38815 20.2019 5.24462 19.9706 5.14668C19.7394 5.04873 19.4881 4.9987 19.2341 5.00003H8.76589C8.51189 4.9987 8.2606 5.04873 8.02936 5.14668C7.79812 5.24462 7.59244 5.38815 7.4265 5.56736C7.26057 5.74657 7.13833 5.95719 7.06822 6.18469C6.99811 6.4122 6.9818 6.65116 7.02041 6.88511Z" stroke="#111111" stroke-width="2" stroke-linecap="round" stroke-linejoin="round"/>
<path d="M5 2H23" stroke="#111111" stroke-width="2" stroke-linecap="round" stroke-linejoin="round"/>
<path d="M8.76576 23C8.51186 23.0013 8.26068 22.9513 8.02954 22.8534C7.79839 22.7555 7.59276 22.6121 7.42684 22.433C7.26092 22.2539 7.13865 22.0434 7.06845 21.8161C6.99825 21.5887 6.9818 21.3498 7.02023 21.116C7.67114 17.6153 9.95871 15.2175 14 14C18.0413 15.2175 20.3289 17.6153 20.9798 21.116C21.0182 21.3498 21.0017 21.5887 20.9315 21.8161C20.8614 22.0434 20.7391 22.2539 20.5732 22.433C20.4072 22.6121 20.2016 22.7555 19.9705 22.8534C19.7393 22.9513 19.4881 23.0013 19.2342 23H8.76576Z" stroke="#111111" stroke-width="2" stroke-linecap="round" stroke-linejoin="round"/>
<path d="M5 26H23" stroke="#111111" stroke-width="2" stroke-linecap="round" stroke-linejoin="round"/>
</svg>
