<svg width="133" height="112" viewBox="0 0 133 112" fill="none" xmlns="http://www.w3.org/2000/svg">
<path d="M118.064 70.1184C124.166 65.2369 124.166 61.5468 124.166 45.8333C124.166 30.1198 124.166 22.2631 118.064 17.3816C111.962 12.5 102.141 12.5 82.4994 12.5C62.8575 12.5 53.0366 12.5 46.9346 17.3816C40.8327 22.2631 40.8327 30.1198 40.8327 45.8333C40.8327 61.5468 40.8327 65.2369 46.9346 70.1184C53.0366 75 62.8575 75 82.4993 75H82.4994C92.9555 75 98.3338 82.2398 107.499 87.5V74.1178C112.057 73.4396 115.412 72.2401 118.064 70.1184Z" fill="#0066FF" fill-opacity="0.05" stroke="#0066FF" stroke-opacity="0.05" stroke-width="1.5" stroke-linecap="round" stroke-linejoin="round"/>
<path d="M14.9359 82.1184C8.83398 77.2369 8.83398 73.5468 8.83398 57.8333C8.83398 42.1198 8.83398 34.2631 14.9359 29.3816C21.0379 24.5 30.8588 24.5 50.5006 24.5C70.1425 24.5 79.9634 24.5 86.0654 29.3816C92.1673 34.2631 92.1673 42.1198 92.1673 57.8333C92.1673 73.5468 92.1673 77.2369 86.0654 82.1184C79.9634 87 70.1425 87 50.5007 87H50.5006C40.0445 87 34.6662 94.2398 25.5007 99.5V86.1178C20.9426 85.4396 17.588 84.2401 14.9359 82.1184Z" fill="#1F72F2" stroke="#1F72F2" stroke-width="1.5" stroke-linecap="round" stroke-linejoin="round"/>
<path d="M50.5 57V53" stroke="white" stroke-width="3" stroke-linecap="round" stroke-linejoin="round"/>
<path d="M67.166 57V53" stroke="white" stroke-width="3" stroke-linecap="round" stroke-linejoin="round"/>
<path d="M33.834 57V53" stroke="white" stroke-width="3" stroke-linecap="round" stroke-linejoin="round"/>
</svg>
