<svg width="16" height="16" viewBox="0 0 16 16" fill="none" xmlns="http://www.w3.org/2000/svg">
<path d="M3.5 7C2.53333 7 1.70833 6.65833 1.025 5.975C0.341667 5.29167 0 4.46667 0 3.5C0 2.53333 0.341667 1.70833 1.025 1.025C1.70833 0.341667 2.53333 0 3.5 0C4.46667 0 5.29167 0.341667 5.975 1.025C6.65833 1.70833 7 2.53333 7 3.5C7 4.46667 6.65833 5.29167 5.975 5.975C5.29167 6.65833 4.46667 7 3.5 7ZM3.5 5C3.91667 5 4.271 4.85433 4.563 4.563C4.855 4.27167 5.00067 3.91733 5 3.5C5 3.08333 4.85433 2.72933 4.563 2.438C4.27167 2.14667 3.91733 2.00067 3.5 2C3.08333 2 2.72933 2.146 2.438 2.438C2.14667 2.73 2.00067 3.084 2 3.5C2 3.91667 2.146 4.271 2.438 4.563C2.73 4.855 3.084 5.00067 3.5 5ZM12.5 16C11.5333 16 10.7083 15.6583 10.025 14.975C9.34167 14.2917 9 13.4667 9 12.5C9 11.5333 9.34167 10.7083 10.025 10.025C10.7083 9.34167 11.5333 9 12.5 9C13.4667 9 14.2917 9.34167 14.975 10.025C15.6583 10.7083 16 11.5333 16 12.5C16 13.4667 15.6583 14.2917 14.975 14.975C14.2917 15.6583 13.4667 16 12.5 16ZM12.5 14C12.9167 14 13.271 13.8543 13.563 13.563C13.855 13.2717 14.0007 12.9173 14 12.5C14 12.0833 13.8543 11.7293 13.563 11.438C13.2717 11.1467 12.9173 11.0007 12.5 11C12.0833 11 11.7293 11.146 11.438 11.438C11.1467 11.73 11.0007 12.084 11 12.5C11 12.9167 11.146 13.271 11.438 13.563C11.73 13.855 12.084 14.0007 12.5 14ZM1.4 16L0 14.6L14.6 0L16 1.4L1.4 16Z" fill="white"/>
</svg>
