<svg width="134" height="116" viewBox="0 0 134 116" fill="none" xmlns="http://www.w3.org/2000/svg">
<g filter="url(#filter0_d_881_17220)">
<path d="M115.389 46.935C114.198 45.3017 112.648 43.7394 110.784 42.2917C106.535 38.9933 101.737 36.8537 97.3669 35.1503C97.618 34.0758 97.8625 33.0456 98.1344 32.0134C99.0861 28.3986 100.164 24.3012 99.739 19.8643C99.1006 13.2114 93.6833 8 87.4061 8C86.2302 8 85.0403 8.1764 83.8694 8.52504C78.8481 10.0184 74.9814 13.1678 72.1093 18.1028C70.9658 17.4894 69.6609 17.1395 68.275 17.1395H16.1384C11.6508 17.1395 8 20.7903 8 25.2779V36.2062C8 40.6938 11.6508 44.3446 16.1384 44.3446H42.8957C41.7373 45.195 40.7308 46.2584 40.0522 47.3878C39.2648 48.6985 38.9083 50.1051 38.9763 51.5205C37.8748 52.0658 36.9824 52.8868 36.3806 53.9303C35.538 55.3904 35.3554 57.1254 35.8497 58.8698C35.4679 60.679 35.7223 62.1404 36.6541 63.3632C36.364 66.5031 38.6016 67.9595 39.4333 68.3874C42.1171 69.7675 43.278 70.08 43.918 70.195C44.0749 70.2232 44.2484 70.266 44.4459 70.312C45.4566 70.5482 46.984 70.9051 49.285 70.9051C52.8777 70.9051 57.1121 70.0327 62.2301 68.238L62.2853 68.2185L62.3401 68.1973C63.7999 67.6295 65.1986 66.9667 66.5567 66.2765C66.5172 69.6928 66.4836 73.2103 66.5795 76.7005C66.677 80.2538 66.8945 83.8341 67.105 87.296C67.2166 89.138 67.332 91.0377 67.4279 92.9088C66.4496 94.1274 65.4422 95.3551 64.4652 96.5459C63.4517 97.7811 62.4381 99.0163 61.4382 100.262C59.6904 102.441 59.9959 104.221 60.5596 105.331C61.0846 106.364 62.2347 107.595 64.7342 107.595L64.8495 107.595L64.9209 107.595C72.8995 107.61 80.8702 107.612 88.8405 107.612L95.2498 107.612L97.948 107.611C98.7457 107.611 100.406 107.611 101.656 106.254C102.908 104.896 102.773 103.237 102.708 102.439C102.406 98.7445 102.101 95.0505 101.796 91.3569C101.559 88.4789 101.321 85.6009 101.085 82.723C100.952 81.098 100.822 79.4731 100.69 77.8195C101.744 77.5954 102.758 77.1309 103.721 76.4303C104.355 75.9692 106.283 74.5655 106.047 72.1748C105.938 71.0807 105.428 70.2797 104.839 69.7019C108.16 67.7262 111.556 65.4742 114.339 62.221C118.462 57.403 118.854 51.6886 115.389 46.935ZM52.2539 50.7559C52.7159 48.9604 52.6163 46.5672 50.0574 44.4836C49.9927 44.4309 49.9213 44.394 49.8553 44.3442H66.8592C62.7776 47.4903 57.9464 49.6137 52.2539 50.7559Z" fill="white"/>
<path d="M27.3171 22.9524H17.1334C15.6433 22.9524 14.4355 24.1602 14.4355 25.6502V35.834C14.4355 37.3236 15.6433 38.5314 17.1334 38.5314H18.2714H21.7708V36.2976C21.7708 34.1489 21.5051 32.4966 19.9072 32.0197V30.2594C22.5054 30.4914 23.7962 32.4264 23.7962 35.6045V38.5314H25.913H27.3175C28.8072 38.5314 30.015 37.3236 30.015 35.834V25.6502C30.0146 24.1602 28.8068 22.9524 27.3171 22.9524ZM22.3029 28.5797C21.4781 28.5797 20.8099 27.911 20.8099 27.0863C20.8099 26.262 21.4781 25.5934 22.3029 25.5934C23.1276 25.5934 23.7958 26.2616 23.7958 27.0863C23.7958 27.911 23.1276 28.5797 22.3029 28.5797Z" fill="black"/>
<g clip-path="url(#clip0_881_17220)">
<path d="M50.4098 30.4131C50.4098 33.3728 52.1298 35.9304 54.6239 37.1425L51.0571 27.3701C50.6423 28.3 50.4098 29.3291 50.4098 30.4131Z" fill="#1E2423"/>
<path d="M62.9348 30.0361C62.9348 29.112 62.6028 28.4721 62.3181 27.974C61.9391 27.358 61.5839 26.8365 61.5839 26.2205C61.5839 25.5332 62.1052 24.8934 62.8394 24.8934C62.8726 24.8934 62.904 24.8975 62.9363 24.8994C61.606 23.6806 59.8337 22.9365 57.8871 22.9365C55.2749 22.9365 52.9767 24.2768 51.6397 26.3068C51.8152 26.312 51.9805 26.3157 52.1209 26.3157C52.903 26.3157 54.1136 26.2208 54.1136 26.2208C54.5167 26.1971 54.5642 26.7891 54.1616 26.8367C54.1616 26.8367 53.7565 26.8844 53.3058 26.908L56.0287 35.0071L57.665 30.0996L56.5 26.9077C56.0974 26.8841 55.716 26.8365 55.716 26.8365C55.313 26.8128 55.3603 26.1968 55.7632 26.2205C55.7632 26.2205 56.998 26.3154 57.7327 26.3154C58.5147 26.3154 59.7254 26.2205 59.7254 26.2205C60.1288 26.1968 60.1762 26.7888 59.7734 26.8365C59.7734 26.8365 59.3675 26.8841 58.9176 26.9077L61.6197 34.9455L62.3655 32.4532C62.6888 31.419 62.9348 30.6762 62.9348 30.0361Z" fill="#1E2423"/>
<path d="M58.018 31.0674L55.7746 37.5863C56.4445 37.7832 57.1529 37.891 57.8869 37.891C58.7576 37.891 59.5926 37.7404 60.3699 37.4671C60.3498 37.4351 60.3316 37.4011 60.3167 37.3641L58.018 31.0674Z" fill="#1E2423"/>
<path d="M64.4481 26.8257C64.4802 27.0639 64.4984 27.3195 64.4984 27.5945C64.4984 28.3533 64.3567 29.2062 63.9299 30.2728L61.6459 36.8762C63.8689 35.5799 65.364 33.1716 65.364 30.4132C65.3642 29.1132 65.0321 27.8908 64.4481 26.8257Z" fill="#1E2423"/>
<path d="M57.8869 21.6973C53.081 21.6973 49.1708 25.6072 49.1708 30.4131C49.1708 35.2196 53.081 39.1294 57.8869 39.1294C62.6927 39.1294 66.6035 35.2196 66.6035 30.4131C66.6033 25.6072 62.6927 21.6973 57.8869 21.6973ZM57.8869 38.7299C53.3013 38.7299 49.5704 34.999 49.5704 30.4131C49.5704 25.8275 53.3012 22.0969 57.8869 22.0969C62.4723 22.0969 66.2029 25.8275 66.2029 30.4131C66.2029 34.999 62.4723 38.7299 57.8869 38.7299Z" fill="#1E2423"/>
</g>
<path d="M37.1796 31.5976V29.8975H39.3192V27.6077H41.0653V29.8975H43.2049V31.5976H41.0653V33.8758H39.3192V31.5976H37.1796Z" fill="#1D1D1B"/>
<path d="M70.0958 60.4986C67.0867 62.0094 64.183 63.7389 61.0763 64.9472C50.1533 68.7773 46.4062 67.0992 44.5356 66.7626C43.6432 66.602 41.8477 65.7071 41.0288 65.2858C39.965 64.7388 39.8575 63.7809 40.5643 62.1663C39.1013 61.3005 38.9029 60.7286 39.4022 59.043C39.474 58.8006 39.3989 58.4815 39.3063 58.2291C38.5949 56.2904 39.5109 54.6746 41.5542 54.3185C42.1644 54.2122 42.782 54.1479 43.544 54.0445C42.3374 52.4437 42.0755 50.7918 43.0418 49.1838C43.5523 48.3338 44.3301 47.5672 45.1523 47.0036C45.987 46.4308 47.0014 46.4935 47.8556 47.1887C48.9235 48.0582 49.207 48.8663 48.8222 50.0737C48.2229 51.9527 49.2497 53.4676 50.8348 54.3899C51.0328 54.5052 51.3545 54.4675 51.6056 54.4243C61.1971 52.7712 69.2956 48.5023 75.3774 40.7582C76.3 39.5832 77.0654 38.2837 77.8889 37.0327C78.8128 35.629 79.1593 34.2195 78.714 32.4576C78.1877 30.3748 78.1225 28.1755 77.8565 26.0267C77.783 25.4332 77.7054 24.8401 77.6378 24.313C76.5561 24.0224 75.5272 23.7759 74.519 23.4638C73.938 23.2841 73.6063 22.862 73.8956 22.2286C76.1502 17.294 79.4901 13.4668 84.8643 11.8684C90.778 10.1094 95.742 14.7223 96.2674 20.1977C96.6285 23.961 95.7055 27.5421 94.762 31.1261C94.313 32.8315 93.9303 34.5544 93.5235 36.2707C93.3446 37.0261 93.5717 37.4362 94.3798 37.7412C99.4069 39.6388 104.363 41.7224 108.645 45.047C110.102 46.178 111.489 47.5062 112.571 48.9904C115.135 52.5068 114.715 56.4191 111.69 59.9549C109.019 63.0761 105.611 65.2174 102.121 67.2573C101.833 67.4254 101.525 67.5583 101.244 67.7359C100.687 68.087 99.8963 68.2062 100.036 69.1957C100.184 70.2374 100.453 71.1593 101.494 71.6395C102.888 72.2824 102.927 72.6954 101.669 73.6114C100.172 74.7005 98.6009 74.7927 96.8693 73.7915C97.1254 76.9846 97.3624 79.9974 97.6093 83.0091C98.1485 89.581 98.6951 96.1522 99.2318 102.724C99.3335 103.971 99.184 104.125 97.948 104.125C86.9437 104.126 75.9398 104.129 64.9355 104.108C64.5129 104.107 63.8684 104.144 63.6687 103.751C63.457 103.335 63.882 102.791 64.1585 102.446C66.2441 99.8465 68.3904 97.2952 70.4698 94.6903C70.7657 94.3197 70.9608 93.7361 70.9375 93.2638C70.6644 87.71 70.2187 82.1615 70.0659 76.6052C69.9223 71.378 70.0738 66.1429 70.095 60.9112C70.0962 60.7145 70.0958 60.5181 70.0958 60.4986ZM65.5638 102.696C70.5839 102.696 75.3965 102.696 80.275 102.696C80.275 102.22 80.275 101.824 80.275 101.429C80.2733 93.9254 80.2684 86.4216 80.2779 78.9183C80.2787 78.3978 80.0492 77.5723 80.888 77.6009C81.6762 77.6279 81.4679 78.4397 81.4683 78.9698C81.4795 86.4731 81.4774 93.9769 81.4787 101.48C81.4787 101.87 81.4787 102.26 81.4787 102.694C87.0454 102.694 92.4876 102.694 97.9405 102.694C97.9405 102.48 97.9497 102.348 97.9393 102.219C97.1635 92.4922 96.382 82.7654 95.6254 73.037C95.5926 72.6174 95.6108 71.4888 96.956 72.2753C98.4353 73.1403 99.4389 73.4288 100.514 72.6402C99.1114 71.5814 98.8449 70.0835 98.857 68.4589C98.8619 67.7716 99.1467 67.3723 99.7431 67.0469C101.263 66.2172 102.775 65.3672 104.244 64.4503C106.97 62.7474 109.55 60.8514 111.453 58.2021C113.691 55.0847 113.692 52.1569 111.217 49.2556C109.958 47.7785 108.436 46.4673 106.851 45.3363C103.029 42.609 98.7063 40.8242 94.3611 39.1126C92.0169 38.1891 91.9397 38.0442 92.4402 35.5232C92.4726 35.3601 92.5062 35.1965 92.5465 35.0351C93.0881 32.871 93.6323 30.7077 94.1735 28.544C94.8471 25.8512 95.3705 23.1421 95.0733 20.3418C94.4528 14.4887 89.0679 11.3318 83.6818 13.654C81.333 14.6663 79.3698 16.1925 77.8104 18.1918C76.823 19.4577 76.1178 20.438 75.196 22.1721C76.3552 22.4469 76.7977 22.6482 77.5597 22.796C78.489 22.9761 78.8028 23.2355 78.873 24.1212C78.9962 25.6727 79.2316 27.2155 79.4325 28.8653C80.1268 28.8653 80.7241 28.8997 81.3168 28.8599C85.8205 28.5573 89.8175 24.3321 90.0794 19.5515C90.1238 18.7384 90.3592 18.3939 91.2951 18.5931C91.3839 21.4072 90.4036 23.8286 88.7878 26.0189C86.5394 29.067 83.4705 30.4313 79.6761 30.2121C79.6661 30.4155 79.6433 30.545 79.6562 30.6708C79.6964 31.0684 79.7031 31.4768 79.806 31.8591C80.4863 34.3888 79.7782 36.5513 78.3786 38.7083C73.4005 46.3793 66.5355 51.511 57.8679 54.2753C56.0342 54.8601 54.1461 55.2735 52.2157 55.7836C52.5781 56.698 52.9661 57.604 53.2932 58.5308C53.4679 59.026 53.6215 59.5548 53.6398 60.0736C53.7161 62.2501 53.1683 64.2594 51.7617 66.0657C52.0111 66.0657 52.1435 66.0836 52.2697 66.0632C58.3187 65.0841 63.8634 62.8586 68.9071 59.3713C69.8053 58.7504 70.4524 58.0901 70.3747 56.8802C70.3536 56.5523 70.6055 55.8222 71.016 55.8508C71.429 55.8799 71.5269 56.6013 71.5224 56.9736C71.4476 63.2027 71.1932 69.4327 71.2646 75.6593C71.3252 80.9172 71.6469 86.1797 72.0681 91.4226C72.2412 93.5772 71.9835 95.283 70.3822 96.893C68.6581 98.6267 67.2328 100.657 65.5638 102.696ZM50.7203 62.1659C49.7495 61.6276 49.7657 61.6097 50.5294 60.7061C51.3686 59.7129 52.1244 58.5653 51.5811 57.2629C51.2071 56.3659 50.465 55.5512 49.7134 54.9012C48.7787 54.0927 47.9137 53.2792 47.7477 52.022C47.6406 51.2134 47.692 50.3696 47.7784 49.5532C47.9091 48.316 46.967 47.4722 45.8094 47.8619C44.5206 48.2956 43.5066 49.9359 43.5872 51.4575C43.6606 52.8475 44.6153 53.9623 46.0356 54.3172C48.2105 54.8605 49.4141 57.0346 48.6699 59.0758C49.9475 60.5646 49.9611 60.6995 49.004 62.3651C49.7881 63.614 49.6108 64.2694 48.2495 64.8251C47.4916 65.1344 46.6855 65.3244 45.8525 65.583C48.1752 65.8827 50.4053 64.2955 50.7203 62.1659ZM46.1829 58.0548C46.4158 58.0685 46.6544 58.1204 46.8802 58.0872C47.2438 58.0336 47.7809 58.1615 47.9573 57.8373C48.1395 57.5028 47.7788 57.0657 47.5659 56.7685C46.3921 55.1307 42.3134 54.4845 40.7137 55.7878C39.8538 56.4888 39.9783 57.3807 40.2904 57.5986C40.3643 57.6501 40.6918 57.8672 40.9097 57.8701C42.6678 57.8929 46.1829 57.9975 46.1829 58.0548ZM41.7763 58.8882C41.3409 59.004 40.8175 59.1061 40.5411 59.4066C40.307 59.661 40.1738 60.36 40.3456 60.5563C40.6158 60.8647 41.2156 61.1141 41.6128 61.0419C43.3647 60.7236 45.0473 60.9137 46.7229 61.4325C47.0047 61.5196 47.3322 61.6064 47.6036 61.5437C47.9228 61.4698 48.3117 61.2972 48.464 61.0432C48.5657 60.8742 48.3719 60.3953 48.193 60.2222C47.4675 59.5203 47.0002 59.3074 46.3323 59.1713C45.1706 58.9351 42.0905 58.8044 41.7763 58.8882ZM48.3574 63.7697C48.4391 63.6833 48.4533 63.5285 48.4109 63.4173C48.281 63.0761 47.8817 62.8217 47.5621 62.7416C46.3054 62.4257 45.0307 62.1738 43.7536 61.9476C42.8587 61.789 42.1 62.1456 41.5659 62.8466C41.3488 63.1317 41.1703 63.6306 41.2757 63.9232C41.3749 64.1984 41.8626 64.4757 42.1959 64.4968C43.124 64.5566 47.5692 64.6006 48.3574 63.7697ZM49.7246 65.7109C51.6284 65.219 52.9657 62.2136 52.3498 59.9437C52.1236 60.4222 51.8642 60.9323 51.8799 61.4341C51.9206 62.7162 51.54 63.7813 50.6207 64.672C50.3376 64.9463 50.1019 65.2697 49.7246 65.7109Z" fill="black"/>
<path d="M84.0796 20.0239C83.8642 20.4555 83.2831 20.617 82.9249 20.5846C82.5759 20.5535 82.084 20.2102 82.0052 19.8051C81.8906 19.217 82.2916 18.5459 82.9768 18.5247C83.4437 18.5102 83.8775 18.7937 84.0817 19.2066C84.1493 19.3444 84.1481 19.8865 84.0796 20.0239Z" fill="black"/>
</g>
<defs>
<filter id="filter0_d_881_17220" x="0.529095" y="0.529095" width="132.942" height="114.554" filterUnits="userSpaceOnUse" color-interpolation-filters="sRGB">
<feFlood flood-opacity="0" result="BackgroundImageFix"/>
<feColorMatrix in="SourceAlpha" type="matrix" values="0 0 0 0 0 0 0 0 0 0 0 0 0 0 0 0 0 0 127 0" result="hardAlpha"/>
<feOffset/>
<feGaussianBlur stdDeviation="3.73545"/>
<feComposite in2="hardAlpha" operator="out"/>
<feColorMatrix type="matrix" values="0 0 0 0 0 0 0 0 0 0 0 0 0 0 0 0 0 0 0.5 0"/>
<feBlend mode="normal" in2="BackgroundImageFix" result="effect1_dropShadow_881_17220"/>
<feBlend mode="normal" in="SourceGraphic" in2="effect1_dropShadow_881_17220" result="shape"/>
</filter>
<clipPath id="clip0_881_17220">
<rect width="76.8292" height="17.4321" fill="white" transform="translate(49.1708 21.697)"/>
</clipPath>
</defs>
</svg>
