<svg xmlns="http://www.w3.org/2000/svg" width="160" height="56" viewBox="0 0 160 56" fill="none"><rect x="0.5" y="0.5" width="159" height="55" rx="7.5" fill="#111111"></rect><rect x="0.5" y="0.5" width="159" height="55" rx="7.5" stroke="#111111"></rect><g clip-path="url(#clip0_1931_13746)"><path d="M24.6382 31.02V26.648H39.3702C39.5142 27.4093 39.5888 28.3107 39.5888 29.2867C39.5888 32.5667 38.6928 36.6227 35.8022 39.512C32.9915 42.4387 29.4008 44 24.6435 44C15.8248 44 8.41016 36.8173 8.41016 28C8.41016 19.1827 15.8248 12 24.6435 12C29.5222 12 32.9968 13.9147 35.6075 16.4093L32.5222 19.4933C30.6502 17.7373 28.1128 16.372 24.6382 16.372C18.1995 16.372 13.1635 21.5613 13.1635 28C13.1635 34.4387 18.1995 39.628 24.6382 39.628C28.8142 39.628 31.1928 37.9507 32.7168 36.4267C33.9528 35.1907 34.7662 33.4253 35.0862 31.0147L24.6382 31.02Z" fill="white"></path></g><path d="M59.0227 14C58.929 13.7131 58.8054 13.456 58.652 13.2287C58.5014 12.9986 58.321 12.8026 58.1108 12.6406C57.9034 12.4787 57.6676 12.3551 57.4034 12.2699C57.1392 12.1847 56.8494 12.142 56.5341 12.142C56.017 12.142 55.5469 12.2756 55.1236 12.5426C54.7003 12.8097 54.3636 13.2031 54.1136 13.723C53.8636 14.2429 53.7386 14.8807 53.7386 15.6364C53.7386 16.392 53.8651 17.0298 54.1179 17.5497C54.3707 18.0696 54.7131 18.4631 55.1449 18.7301C55.5767 18.9972 56.0625 19.1307 56.6023 19.1307C57.1023 19.1307 57.5426 19.0241 57.9233 18.8111C58.3068 18.5952 58.6051 18.2912 58.8182 17.8991C59.0341 17.5043 59.142 17.0398 59.142 16.5057L59.4659 16.5739H56.8409V15.6364H60.1648V16.5739C60.1648 17.2926 60.0114 17.9176 59.7045 18.4489C59.4006 18.9801 58.9801 19.392 58.4432 19.6847C57.9091 19.9744 57.2955 20.1193 56.6023 20.1193C55.8295 20.1193 55.1506 19.9375 54.5653 19.5739C53.983 19.2102 53.5284 18.6932 53.2017 18.0227C52.8778 17.3523 52.7159 16.5568 52.7159 15.6364C52.7159 14.946 52.8082 14.3253 52.9929 13.7741C53.1804 13.2202 53.4446 12.7486 53.7855 12.3594C54.1264 11.9702 54.5298 11.6719 54.9957 11.4645C55.4616 11.2571 55.9744 11.1534 56.5341 11.1534C56.9943 11.1534 57.4233 11.223 57.821 11.3622C58.2216 11.4986 58.5781 11.6932 58.8906 11.946C59.206 12.196 59.4688 12.4957 59.679 12.8452C59.8892 13.1918 60.0341 13.5767 60.1136 14H59.0227ZM64.5827 20.1364C63.9521 20.1364 63.408 19.9972 62.9506 19.7188C62.4961 19.4375 62.1452 19.0455 61.8981 18.5426C61.6538 18.0369 61.5316 17.4489 61.5316 16.7784C61.5316 16.108 61.6538 15.517 61.8981 15.0057C62.1452 14.4915 62.489 14.0909 62.9293 13.804C63.3725 13.5142 63.8896 13.3693 64.4805 13.3693C64.8214 13.3693 65.158 13.4261 65.4904 13.5398C65.8228 13.6534 66.1254 13.8381 66.3981 14.0938C66.6708 14.3466 66.8881 14.6818 67.0501 15.0994C67.212 15.517 67.293 16.0312 67.293 16.642V17.0682H62.2475V16.1989H66.2702C66.2702 15.8295 66.1964 15.5 66.0487 15.2102C65.9038 14.9205 65.6964 14.6918 65.4265 14.5241C65.1594 14.3565 64.8441 14.2727 64.4805 14.2727C64.0799 14.2727 63.7333 14.3722 63.4407 14.571C63.1509 14.767 62.9279 15.0227 62.7717 15.3381C62.6154 15.6534 62.5373 15.9915 62.5373 16.3523V16.9318C62.5373 17.4261 62.6225 17.8452 62.793 18.1889C62.9663 18.5298 63.2063 18.7898 63.5131 18.9688C63.82 19.1449 64.1765 19.233 64.5827 19.233C64.8469 19.233 65.0856 19.196 65.2987 19.1222C65.5146 19.0455 65.7006 18.9318 65.8569 18.7812C66.0131 18.6278 66.1339 18.4375 66.2191 18.2102L67.1907 18.483C67.0884 18.8125 66.9165 19.1023 66.6751 19.3523C66.4336 19.5994 66.1353 19.7926 65.7802 19.9318C65.4251 20.0682 65.0259 20.1364 64.5827 20.1364ZM71.6694 13.4545V14.3068H68.2773V13.4545H71.6694ZM69.266 11.8864H70.2717V18.125C70.2717 18.4091 70.3129 18.6222 70.3952 18.7642C70.4805 18.9034 70.5884 18.9972 70.7191 19.0455C70.8526 19.0909 70.9933 19.1136 71.141 19.1136C71.2518 19.1136 71.3427 19.108 71.4137 19.0966C71.4847 19.0824 71.5415 19.071 71.5842 19.0625L71.7887 19.9659C71.7205 19.9915 71.6254 20.017 71.5032 20.0426C71.381 20.071 71.2262 20.0852 71.0387 20.0852C70.7546 20.0852 70.4762 20.0241 70.2035 19.902C69.9336 19.7798 69.7092 19.5938 69.5302 19.3438C69.354 19.0938 69.266 18.7784 69.266 18.3977V11.8864ZM76.5572 20V13.4545H77.5629V20H76.5572ZM77.0685 12.3636C76.8725 12.3636 76.7035 12.2969 76.5614 12.1634C76.4222 12.0298 76.3526 11.8693 76.3526 11.6818C76.3526 11.4943 76.4222 11.3338 76.5614 11.2003C76.7035 11.0668 76.8725 11 77.0685 11C77.2646 11 77.4322 11.0668 77.5714 11.2003C77.7134 11.3338 77.7844 11.4943 77.7844 11.6818C77.7844 11.8693 77.7134 12.0298 77.5714 12.1634C77.4322 12.2969 77.2646 12.3636 77.0685 12.3636ZM82.2514 13.4545V14.3068H78.8594V13.4545H82.2514ZM79.848 11.8864H80.8537V18.125C80.8537 18.4091 80.8949 18.6222 80.9773 18.7642C81.0625 18.9034 81.1705 18.9972 81.3011 19.0455C81.4347 19.0909 81.5753 19.1136 81.723 19.1136C81.8338 19.1136 81.9247 19.108 81.9957 19.0966C82.0668 19.0824 82.1236 19.071 82.1662 19.0625L82.3707 19.9659C82.3026 19.9915 82.2074 20.017 82.0852 20.0426C81.9631 20.071 81.8082 20.0852 81.6207 20.0852C81.3366 20.0852 81.0582 20.0241 80.7855 19.902C80.5156 19.7798 80.2912 19.5938 80.1122 19.3438C79.9361 19.0938 79.848 18.7784 79.848 18.3977V11.8864ZM89.7983 20.1364C89.2074 20.1364 88.6889 19.9957 88.2429 19.7145C87.7997 19.4332 87.4531 19.0398 87.2031 18.5341C86.956 18.0284 86.8324 17.4375 86.8324 16.7614C86.8324 16.0795 86.956 15.4844 87.2031 14.9759C87.4531 14.4673 87.7997 14.0724 88.2429 13.7912C88.6889 13.5099 89.2074 13.3693 89.7983 13.3693C90.3892 13.3693 90.9063 13.5099 91.3494 13.7912C91.7955 14.0724 92.142 14.4673 92.3892 14.9759C92.6392 15.4844 92.7642 16.0795 92.7642 16.7614C92.7642 17.4375 92.6392 18.0284 92.3892 18.5341C92.142 19.0398 91.7955 19.4332 91.3494 19.7145C90.9063 19.9957 90.3892 20.1364 89.7983 20.1364ZM89.7983 19.233C90.2472 19.233 90.6165 19.1179 90.9062 18.8878C91.196 18.6577 91.4105 18.3551 91.5497 17.9801C91.6889 17.6051 91.7585 17.1989 91.7585 16.7614C91.7585 16.3239 91.6889 15.9162 91.5497 15.5384C91.4105 15.1605 91.196 14.8551 90.9062 14.6222C90.6165 14.3892 90.2472 14.2727 89.7983 14.2727C89.3494 14.2727 88.9801 14.3892 88.6903 14.6222C88.4006 14.8551 88.1861 15.1605 88.0469 15.5384C87.9077 15.9162 87.8381 16.3239 87.8381 16.7614C87.8381 17.1989 87.9077 17.6051 88.0469 17.9801C88.1861 18.3551 88.4006 18.6577 88.6903 18.8878C88.9801 19.1179 89.3494 19.233 89.7983 19.233ZM95.305 16.0625V20H94.2994V13.4545H95.271V14.4773H95.3562C95.5096 14.1449 95.7425 13.8778 96.055 13.6761C96.3675 13.4716 96.771 13.3693 97.2653 13.3693C97.7085 13.3693 98.0962 13.4602 98.4286 13.642C98.761 13.821 99.0195 14.0938 99.2042 14.4602C99.3888 14.8239 99.4812 15.2841 99.4812 15.8409V20H98.4755V15.9091C98.4755 15.3949 98.342 14.9943 98.0749 14.7074C97.8079 14.4176 97.4414 14.2727 96.9755 14.2727C96.6545 14.2727 96.3675 14.3423 96.1147 14.4815C95.8647 14.6207 95.6673 14.8239 95.5224 15.0909C95.3775 15.358 95.305 15.6818 95.305 16.0625Z" fill="white"></path><path d="M60.9432 34.0795C60.8485 33.7727 60.7178 33.4981 60.5511 33.2557C60.3883 33.0095 60.1913 32.7992 59.9602 32.625C59.733 32.4508 59.4716 32.3201 59.1761 32.233C58.8807 32.142 58.5587 32.0966 58.2102 32.0966C57.5852 32.0966 57.0284 32.2538 56.5398 32.5682C56.0511 32.8826 55.6667 33.3447 55.3864 33.9545C55.1098 34.5606 54.9716 35.2992 54.9716 36.1705C54.9716 37.0492 55.1098 37.7936 55.3864 38.4034C55.6629 39.0133 56.0473 39.4773 56.5398 39.7955C57.0322 40.1098 57.6042 40.267 58.2557 40.267C58.8466 40.267 59.358 40.1534 59.7898 39.9261C60.2254 39.6989 60.5606 39.3769 60.7955 38.9602C61.0303 38.5398 61.1477 38.0473 61.1477 37.483L61.625 37.5568H58.4659V35.9091H63.1875V37.3068C63.1875 38.303 62.9754 39.1648 62.5511 39.892C62.1269 40.6193 61.5436 41.1799 60.8011 41.5739C60.0587 41.964 59.2064 42.1591 58.2443 42.1591C57.1723 42.1591 56.2311 41.9186 55.4205 41.4375C54.6136 40.9527 53.983 40.2652 53.5284 39.375C53.0777 38.4811 52.8523 37.4205 52.8523 36.1932C52.8523 35.2538 52.9848 34.4148 53.25 33.6761C53.5189 32.9375 53.8939 32.3106 54.375 31.7955C54.8561 31.2765 55.4205 30.8826 56.0682 30.6136C56.7159 30.3409 57.4205 30.2045 58.1818 30.2045C58.8258 30.2045 59.4261 30.2992 59.983 30.4886C60.5398 30.6742 61.0341 30.9394 61.4659 31.2841C61.9015 31.6288 62.2595 32.0379 62.5398 32.5114C62.8201 32.9848 63.0038 33.5076 63.0909 34.0795H60.9432ZM68.9418 42.1705C68.0895 42.1705 67.3509 41.983 66.7259 41.608C66.1009 41.233 65.616 40.7083 65.2713 40.0341C64.9304 39.3598 64.7599 38.572 64.7599 37.6705C64.7599 36.7689 64.9304 35.9792 65.2713 35.3011C65.616 34.6231 66.1009 34.0966 66.7259 33.7216C67.3509 33.3466 68.0895 33.1591 68.9418 33.1591C69.794 33.1591 70.5327 33.3466 71.1577 33.7216C71.7827 34.0966 72.2656 34.6231 72.6065 35.3011C72.9512 35.9792 73.1236 36.7689 73.1236 37.6705C73.1236 38.572 72.9512 39.3598 72.6065 40.0341C72.2656 40.7083 71.7827 41.233 71.1577 41.608C70.5327 41.983 69.794 42.1705 68.9418 42.1705ZM68.9531 40.5227C69.4152 40.5227 69.8016 40.3958 70.1122 40.142C70.4228 39.8845 70.6539 39.5398 70.8054 39.108C70.9607 38.6761 71.0384 38.1951 71.0384 37.6648C71.0384 37.1307 70.9607 36.6477 70.8054 36.2159C70.6539 35.7803 70.4228 35.4337 70.1122 35.1761C69.8016 34.9186 69.4152 34.7898 68.9531 34.7898C68.4796 34.7898 68.0857 34.9186 67.7713 35.1761C67.4607 35.4337 67.2277 35.7803 67.0724 36.2159C66.9209 36.6477 66.8452 37.1307 66.8452 37.6648C66.8452 38.1951 66.9209 38.6761 67.0724 39.108C67.2277 39.5398 67.4607 39.8845 67.7713 40.142C68.0857 40.3958 68.4796 40.5227 68.9531 40.5227ZM78.6761 42.1705C77.8239 42.1705 77.0852 41.983 76.4602 41.608C75.8352 41.233 75.3504 40.7083 75.0057 40.0341C74.6648 39.3598 74.4943 38.572 74.4943 37.6705C74.4943 36.7689 74.6648 35.9792 75.0057 35.3011C75.3504 34.6231 75.8352 34.0966 76.4602 33.7216C77.0852 33.3466 77.8239 33.1591 78.6761 33.1591C79.5284 33.1591 80.267 33.3466 80.892 33.7216C81.517 34.0966 82 34.6231 82.3409 35.3011C82.6856 35.9792 82.858 36.7689 82.858 37.6705C82.858 38.572 82.6856 39.3598 82.3409 40.0341C82 40.7083 81.517 41.233 80.892 41.608C80.267 41.983 79.5284 42.1705 78.6761 42.1705ZM78.6875 40.5227C79.1496 40.5227 79.536 40.3958 79.8466 40.142C80.1572 39.8845 80.3883 39.5398 80.5398 39.108C80.6951 38.6761 80.7727 38.1951 80.7727 37.6648C80.7727 37.1307 80.6951 36.6477 80.5398 36.2159C80.3883 35.7803 80.1572 35.4337 79.8466 35.1761C79.536 34.9186 79.1496 34.7898 78.6875 34.7898C78.214 34.7898 77.8201 34.9186 77.5057 35.1761C77.1951 35.4337 76.9621 35.7803 76.8068 36.2159C76.6553 36.6477 76.5795 37.1307 76.5795 37.6648C76.5795 38.1951 76.6553 38.6761 76.8068 39.108C76.9621 39.5398 77.1951 39.8845 77.5057 40.142C77.8201 40.3958 78.214 40.5227 78.6875 40.5227ZM88.3991 45.4545C87.6605 45.4545 87.026 45.3542 86.4957 45.1534C85.9654 44.9564 85.5393 44.6913 85.2173 44.358C84.8954 44.0246 84.6719 43.6553 84.5469 43.25L86.3991 42.8011C86.4825 42.9716 86.6037 43.1402 86.7628 43.3068C86.9219 43.4773 87.1359 43.6174 87.4048 43.7273C87.6776 43.8409 88.0204 43.8977 88.4332 43.8977C89.0166 43.8977 89.4995 43.7557 89.8821 43.4716C90.2647 43.1913 90.456 42.7292 90.456 42.0852V40.4318H90.3537C90.2476 40.6439 90.0923 40.8617 89.8878 41.0852C89.687 41.3087 89.42 41.4962 89.0866 41.6477C88.7571 41.7992 88.3423 41.875 87.8423 41.875C87.1719 41.875 86.5639 41.7178 86.0185 41.4034C85.4768 41.0852 85.045 40.6117 84.723 39.983C84.4048 39.3504 84.2457 38.5587 84.2457 37.608C84.2457 36.6496 84.4048 35.8409 84.723 35.1818C85.045 34.5189 85.4787 34.017 86.0241 33.6761C86.5696 33.3314 87.1776 33.1591 87.848 33.1591C88.3594 33.1591 88.7798 33.2462 89.1094 33.4205C89.4427 33.5909 89.7079 33.7973 89.9048 34.0398C90.1018 34.2784 90.2514 34.5038 90.3537 34.7159H90.4673V33.2727H92.4957V42.142C92.4957 42.8883 92.3177 43.5057 91.9616 43.9943C91.6056 44.483 91.1188 44.8485 90.5014 45.0909C89.884 45.3333 89.1832 45.4545 88.3991 45.4545ZM88.4162 40.2614C88.8518 40.2614 89.223 40.1553 89.5298 39.9432C89.8366 39.7311 90.0696 39.4261 90.2287 39.0284C90.3878 38.6307 90.4673 38.1534 90.4673 37.5966C90.4673 37.0473 90.3878 36.5663 90.2287 36.1534C90.0734 35.7405 89.8423 35.4205 89.5355 35.1932C89.2325 34.9621 88.8594 34.8466 88.4162 34.8466C87.9579 34.8466 87.5753 34.9659 87.2685 35.2045C86.9616 35.4432 86.7306 35.7708 86.5753 36.1875C86.42 36.6004 86.3423 37.0701 86.3423 37.5966C86.3423 38.1307 86.42 38.5985 86.5753 39C86.7344 39.3977 86.9673 39.7083 87.2741 39.9318C87.5848 40.1515 87.9654 40.2614 88.4162 40.2614ZM96.6605 30.3636V42H94.6037V30.3636H96.6605ZM102.639 42.1705C101.764 42.1705 101.009 41.9886 100.372 41.625C99.7396 41.2576 99.2528 40.7386 98.9119 40.0682C98.571 39.3939 98.4006 38.6004 98.4006 37.6875C98.4006 36.7898 98.571 36.0019 98.9119 35.3239C99.2566 34.642 99.7377 34.1117 100.355 33.733C100.973 33.3504 101.698 33.1591 102.531 33.1591C103.069 33.1591 103.577 33.2462 104.054 33.4205C104.535 33.5909 104.959 33.8561 105.327 34.2159C105.698 34.5758 105.99 35.0341 106.202 35.5909C106.414 36.1439 106.52 36.803 106.52 37.5682V38.1989H99.3665V36.8125H104.548C104.545 36.4186 104.459 36.0682 104.293 35.7614C104.126 35.4508 103.893 35.2064 103.594 35.0284C103.298 34.8504 102.954 34.7614 102.56 34.7614C102.139 34.7614 101.77 34.8636 101.452 35.0682C101.134 35.2689 100.885 35.5341 100.707 35.8636C100.533 36.1894 100.444 36.5473 100.44 36.9375V38.1477C100.44 38.6553 100.533 39.0909 100.719 39.4545C100.904 39.8144 101.164 40.0909 101.497 40.2841C101.83 40.4735 102.221 40.5682 102.668 40.5682C102.967 40.5682 103.238 40.5265 103.48 40.4432C103.723 40.3561 103.933 40.2292 104.111 40.0625C104.289 39.8958 104.423 39.6894 104.514 39.4432L106.435 39.6591C106.313 40.1667 106.082 40.6098 105.741 40.9886C105.404 41.3636 104.973 41.6553 104.446 41.8636C103.92 42.0682 103.317 42.1705 102.639 42.1705ZM112.32 42V30.3636H116.683C117.577 30.3636 118.327 30.5303 118.933 30.8636C119.543 31.197 120.003 31.6553 120.314 32.2386C120.628 32.8182 120.786 33.4773 120.786 34.2159C120.786 34.9621 120.628 35.625 120.314 36.2045C120 36.7841 119.536 37.2405 118.922 37.5739C118.308 37.9034 117.553 38.0682 116.655 38.0682H113.763V36.3352H116.371C116.893 36.3352 117.321 36.2443 117.655 36.0625C117.988 35.8807 118.234 35.6307 118.393 35.3125C118.556 34.9943 118.638 34.6288 118.638 34.2159C118.638 33.803 118.556 33.4394 118.393 33.125C118.234 32.8106 117.986 32.5663 117.649 32.392C117.316 32.214 116.886 32.125 116.359 32.125H114.428V42H112.32ZM124.582 30.3636V42H122.526V30.3636H124.582ZM129.209 42.1761C128.656 42.1761 128.158 42.0777 127.714 41.8807C127.275 41.6799 126.927 41.3845 126.669 40.9943C126.415 40.6042 126.288 40.1231 126.288 39.5511C126.288 39.0587 126.379 38.6515 126.561 38.3295C126.743 38.0076 126.991 37.75 127.305 37.5568C127.62 37.3636 127.974 37.2178 128.368 37.1193C128.766 37.017 129.177 36.9432 129.601 36.8977C130.112 36.8447 130.527 36.7973 130.845 36.7557C131.163 36.7102 131.394 36.642 131.538 36.5511C131.686 36.4564 131.76 36.3106 131.76 36.1136V36.0795C131.76 35.6515 131.633 35.3201 131.379 35.0852C131.125 34.8504 130.76 34.733 130.283 34.733C129.779 34.733 129.379 34.8428 129.084 35.0625C128.792 35.2822 128.595 35.5417 128.493 35.8409L126.572 35.5682C126.724 35.0379 126.974 34.5947 127.322 34.2386C127.671 33.8788 128.097 33.6098 128.601 33.4318C129.105 33.25 129.661 33.1591 130.271 33.1591C130.692 33.1591 131.11 33.2083 131.527 33.3068C131.944 33.4053 132.324 33.5682 132.669 33.7955C133.014 34.0189 133.29 34.3239 133.499 34.7102C133.711 35.0966 133.817 35.5795 133.817 36.1591V42H131.839V40.8011H131.771C131.646 41.0436 131.47 41.2708 131.243 41.483C131.019 41.6913 130.737 41.8598 130.396 41.9886C130.059 42.1136 129.663 42.1761 129.209 42.1761ZM129.743 40.6648C130.156 40.6648 130.514 40.5833 130.817 40.4205C131.12 40.2538 131.353 40.0341 131.516 39.7614C131.682 39.4886 131.766 39.1913 131.766 38.8693V37.8409C131.701 37.8939 131.591 37.9432 131.436 37.9886C131.285 38.0341 131.114 38.0739 130.925 38.108C130.735 38.142 130.548 38.1723 130.362 38.1989C130.177 38.2254 130.016 38.2481 129.879 38.267C129.572 38.3087 129.298 38.3769 129.055 38.4716C128.813 38.5663 128.622 38.6989 128.482 38.8693C128.341 39.036 128.271 39.2519 128.271 39.517C128.271 39.8958 128.41 40.1818 128.686 40.375C128.963 40.5682 129.315 40.6648 129.743 40.6648ZM136.851 45.2727C136.571 45.2727 136.311 45.25 136.072 45.2045C135.838 45.1629 135.65 45.1136 135.51 45.0568L135.987 43.4545C136.286 43.5417 136.554 43.5833 136.788 43.5795C137.023 43.5758 137.23 43.5019 137.408 43.358C137.589 43.2178 137.743 42.983 137.868 42.6534L138.044 42.1818L134.879 33.2727H137.061L139.072 39.8636H139.163L141.18 33.2727H143.368L139.874 43.0568C139.711 43.5189 139.495 43.9148 139.226 44.2443C138.957 44.5777 138.627 44.8314 138.237 45.0057C137.851 45.1837 137.389 45.2727 136.851 45.2727Z" fill="white"></path><defs><clipPath id="clip0_1931_13746"><rect width="32" height="32" fill="white" transform="translate(8 12)"></rect></clipPath></defs></svg>