<svg xmlns="http://www.w3.org/2000/svg" width="165" height="56" viewBox="0 0 165 56" fill="none"><rect x="0.5" y="0.5" width="164" height="55" rx="7.5" fill="#111111"></rect><rect x="0.5" y="0.5" width="164" height="55" rx="7.5" stroke="#111111"></rect><g clip-path="url(#clip0_1931_13737)"><path d="M32.7298 29.017C32.7618 26.5237 34.0684 24.221 36.1924 22.9157C34.8471 20.993 32.6724 19.8184 30.3271 19.745C27.8591 19.4864 25.4671 21.221 24.2098 21.221C22.9284 21.221 20.9924 19.7704 18.9071 19.813C16.1644 19.9024 13.6684 21.4237 12.3338 23.8224C9.49245 28.7424 11.6111 35.9744 14.3338 39.9517C15.6964 41.8997 17.2871 44.0744 19.3711 43.9984C21.4098 43.9144 22.1711 42.6984 24.6311 42.6984C27.0685 42.6984 27.7831 43.9984 29.9085 43.949C32.0951 43.913 33.4738 41.993 34.7885 40.0264C35.7671 38.6384 36.5205 37.105 37.0191 35.4824C34.4218 34.3837 32.7324 31.8384 32.7298 29.017Z" fill="white"></path><path d="M28.717 17.1293C29.909 15.6973 30.497 13.8573 30.3543 12C28.533 12.192 26.849 13.0627 25.641 14.4387C24.4477 15.7973 23.8423 17.5733 23.9597 19.3787C25.8063 19.3973 27.5597 18.568 28.717 17.1293Z" fill="white"></path></g><path d="M55.75 20H53.0568V11.2727H55.8693C56.7159 11.2727 57.4403 11.4474 58.0426 11.7969C58.6449 12.1435 59.1065 12.642 59.4276 13.2926C59.7486 13.9403 59.9091 14.7159 59.9091 15.6193C59.9091 16.5284 59.7472 17.3111 59.4233 17.9673C59.0994 18.6207 58.6278 19.1236 58.0085 19.4759C57.3892 19.8253 56.6364 20 55.75 20ZM54.1136 19.0625H55.6818C56.4034 19.0625 57.0014 18.9233 57.4759 18.6449C57.9503 18.3665 58.304 17.9702 58.5369 17.456C58.7699 16.9418 58.8864 16.3295 58.8864 15.6193C58.8864 14.9148 58.7713 14.3082 58.5412 13.7997C58.3111 13.2884 57.9673 12.8963 57.5099 12.6236C57.0526 12.348 56.483 12.2102 55.8011 12.2102H54.1136V19.0625ZM64.2045 20.1364C63.6136 20.1364 63.0952 19.9957 62.6491 19.7145C62.206 19.4332 61.8594 19.0398 61.6094 18.5341C61.3622 18.0284 61.2386 17.4375 61.2386 16.7614C61.2386 16.0795 61.3622 15.4844 61.6094 14.9759C61.8594 14.4673 62.206 14.0724 62.6491 13.7912C63.0952 13.5099 63.6136 13.3693 64.2045 13.3693C64.7955 13.3693 65.3125 13.5099 65.7557 13.7912C66.2017 14.0724 66.5483 14.4673 66.7955 14.9759C67.0455 15.4844 67.1705 16.0795 67.1705 16.7614C67.1705 17.4375 67.0455 18.0284 66.7955 18.5341C66.5483 19.0398 66.2017 19.4332 65.7557 19.7145C65.3125 19.9957 64.7955 20.1364 64.2045 20.1364ZM64.2045 19.233C64.6534 19.233 65.0227 19.1179 65.3125 18.8878C65.6023 18.6577 65.8168 18.3551 65.956 17.9801C66.0952 17.6051 66.1648 17.1989 66.1648 16.7614C66.1648 16.3239 66.0952 15.9162 65.956 15.5384C65.8168 15.1605 65.6023 14.8551 65.3125 14.6222C65.0227 14.3892 64.6534 14.2727 64.2045 14.2727C63.7557 14.2727 63.3864 14.3892 63.0966 14.6222C62.8068 14.8551 62.5923 15.1605 62.4531 15.5384C62.3139 15.9162 62.2443 16.3239 62.2443 16.7614C62.2443 17.1989 62.3139 17.6051 62.4531 17.9801C62.5923 18.3551 62.8068 18.6577 63.0966 18.8878C63.3864 19.1179 63.7557 19.233 64.2045 19.233ZM69.9659 20L67.9716 13.4545H69.0284L70.4432 18.4659H70.5114L71.9091 13.4545H72.983L74.3636 18.4489H74.4318L75.8466 13.4545H76.9034L74.9091 20H73.9205L72.4886 14.9716H72.3864L70.9545 20H69.9659ZM79.2386 16.0625V20H78.233V13.4545H79.2045V14.4773H79.2898C79.4432 14.1449 79.6761 13.8778 79.9886 13.6761C80.3011 13.4716 80.7045 13.3693 81.1989 13.3693C81.642 13.3693 82.0298 13.4602 82.3622 13.642C82.6946 13.821 82.9531 14.0938 83.1378 14.4602C83.3224 14.8239 83.4148 15.2841 83.4148 15.8409V20H82.4091V15.9091C82.4091 15.3949 82.2756 14.9943 82.0085 14.7074C81.7415 14.4176 81.375 14.2727 80.9091 14.2727C80.5881 14.2727 80.3011 14.3423 80.0483 14.4815C79.7983 14.6207 79.6009 14.8239 79.456 15.0909C79.3111 15.358 79.2386 15.6818 79.2386 16.0625ZM86.2582 11.2727V20H85.2525V11.2727H86.2582ZM90.7592 20.1364C90.1683 20.1364 89.6499 19.9957 89.2038 19.7145C88.7607 19.4332 88.4141 19.0398 88.1641 18.5341C87.9169 18.0284 87.7933 17.4375 87.7933 16.7614C87.7933 16.0795 87.9169 15.4844 88.1641 14.9759C88.4141 14.4673 88.7607 14.0724 89.2038 13.7912C89.6499 13.5099 90.1683 13.3693 90.7592 13.3693C91.3501 13.3693 91.8672 13.5099 92.3104 13.7912C92.7564 14.0724 93.103 14.4673 93.3501 14.9759C93.6001 15.4844 93.7251 16.0795 93.7251 16.7614C93.7251 17.4375 93.6001 18.0284 93.3501 18.5341C93.103 19.0398 92.7564 19.4332 92.3104 19.7145C91.8672 19.9957 91.3501 20.1364 90.7592 20.1364ZM90.7592 19.233C91.2081 19.233 91.5774 19.1179 91.8672 18.8878C92.157 18.6577 92.3714 18.3551 92.5107 17.9801C92.6499 17.6051 92.7195 17.1989 92.7195 16.7614C92.7195 16.3239 92.6499 15.9162 92.5107 15.5384C92.3714 15.1605 92.157 14.8551 91.8672 14.6222C91.5774 14.3892 91.2081 14.2727 90.7592 14.2727C90.3104 14.2727 89.9411 14.3892 89.6513 14.6222C89.3615 14.8551 89.147 15.1605 89.0078 15.5384C88.8686 15.9162 88.799 16.3239 88.799 16.7614C88.799 17.1989 88.8686 17.6051 89.0078 17.9801C89.147 18.3551 89.3615 18.6577 89.6513 18.8878C89.9411 19.1179 90.3104 19.233 90.7592 19.233ZM97.1864 20.1534C96.7717 20.1534 96.3952 20.0753 96.0572 19.919C95.7191 19.7599 95.4506 19.5312 95.2518 19.233C95.0529 18.9318 94.9535 18.5682 94.9535 18.142C94.9535 17.767 95.0273 17.4631 95.1751 17.2301C95.3228 16.9943 95.5202 16.8097 95.7674 16.6761C96.0146 16.5426 96.2873 16.4432 96.5856 16.3778C96.8867 16.3097 97.1893 16.2557 97.4933 16.2159C97.891 16.1648 98.2134 16.1264 98.4606 16.1009C98.7106 16.0724 98.8924 16.0256 99.006 15.9602C99.1225 15.8949 99.1808 15.7812 99.1808 15.6193V15.5852C99.1808 15.1648 99.0657 14.8381 98.8356 14.6051C98.6083 14.3722 98.2631 14.2557 97.8001 14.2557C97.32 14.2557 96.9435 14.3608 96.6708 14.571C96.3981 14.7812 96.2063 15.0057 96.0955 15.2443L95.141 14.9034C95.3114 14.5057 95.5387 14.196 95.8228 13.9744C96.1097 13.75 96.4222 13.5937 96.7603 13.5057C97.1012 13.4148 97.4364 13.3693 97.766 13.3693C97.9762 13.3693 98.2177 13.3949 98.4904 13.446C98.766 13.4943 99.0316 13.5952 99.2873 13.7486C99.5458 13.902 99.7603 14.1335 99.9308 14.4432C100.101 14.7528 100.186 15.1676 100.186 15.6875V20H99.1808V19.1136H99.1296C99.0614 19.2557 98.9478 19.4077 98.7887 19.5696C98.6296 19.7315 98.418 19.8693 98.1538 19.983C97.8896 20.0966 97.5671 20.1534 97.1864 20.1534ZM97.3398 19.25C97.7376 19.25 98.0728 19.1719 98.3455 19.0156C98.6211 18.8594 98.8285 18.6577 98.9677 18.4105C99.1097 18.1634 99.1808 17.9034 99.1808 17.6307V16.7102C99.1381 16.7614 99.0444 16.8082 98.8995 16.8509C98.7575 16.8906 98.5927 16.9261 98.4052 16.9574C98.2205 16.9858 98.0401 17.0114 97.864 17.0341C97.6907 17.054 97.5501 17.071 97.4421 17.0852C97.1808 17.1193 96.9364 17.1747 96.7092 17.2514C96.4847 17.3253 96.3029 17.4375 96.1637 17.5881C96.0273 17.7358 95.9592 17.9375 95.9592 18.1932C95.9592 18.5426 96.0884 18.8068 96.3469 18.9858C96.6083 19.1619 96.9393 19.25 97.3398 19.25ZM104.494 20.1364C103.948 20.1364 103.467 19.9986 103.049 19.723C102.631 19.4446 102.305 19.0526 102.069 18.5469C101.833 18.0384 101.715 17.4375 101.715 16.7443C101.715 16.0568 101.833 15.4602 102.069 14.9545C102.305 14.4489 102.633 14.0582 103.053 13.7827C103.474 13.5071 103.96 13.3693 104.511 13.3693C104.937 13.3693 105.273 13.4403 105.521 13.5824C105.771 13.7216 105.961 13.8807 106.092 14.0597C106.225 14.2358 106.329 14.3807 106.403 14.4943H106.488V11.2727H107.494V20H106.522V18.9943H106.403C106.329 19.1136 106.224 19.2642 106.087 19.446C105.951 19.625 105.756 19.7855 105.504 19.9276C105.251 20.0668 104.914 20.1364 104.494 20.1364ZM104.63 19.233C105.033 19.233 105.374 19.1278 105.653 18.9176C105.931 18.7045 106.143 18.4105 106.288 18.0355C106.433 17.6577 106.505 17.2216 106.505 16.7273C106.505 16.2386 106.434 15.8111 106.292 15.4446C106.15 15.0753 105.94 14.7884 105.661 14.5838C105.383 14.3764 105.039 14.2727 104.63 14.2727C104.204 14.2727 103.849 14.3821 103.565 14.6009C103.283 14.8168 103.072 15.1108 102.93 15.483C102.79 15.8523 102.721 16.267 102.721 16.7273C102.721 17.1932 102.792 17.6165 102.934 17.9972C103.079 18.375 103.292 18.6761 103.573 18.9006C103.857 19.1222 104.21 19.233 104.63 19.233ZM115.509 20.1364C114.918 20.1364 114.4 19.9957 113.954 19.7145C113.511 19.4332 113.164 19.0398 112.914 18.5341C112.667 18.0284 112.543 17.4375 112.543 16.7614C112.543 16.0795 112.667 15.4844 112.914 14.9759C113.164 14.4673 113.511 14.0724 113.954 13.7912C114.4 13.5099 114.918 13.3693 115.509 13.3693C116.1 13.3693 116.617 13.5099 117.06 13.7912C117.506 14.0724 117.853 14.4673 118.1 14.9759C118.35 15.4844 118.475 16.0795 118.475 16.7614C118.475 17.4375 118.35 18.0284 118.1 18.5341C117.853 19.0398 117.506 19.4332 117.06 19.7145C116.617 19.9957 116.1 20.1364 115.509 20.1364ZM115.509 19.233C115.958 19.233 116.327 19.1179 116.617 18.8878C116.907 18.6577 117.121 18.3551 117.261 17.9801C117.4 17.6051 117.469 17.1989 117.469 16.7614C117.469 16.3239 117.4 15.9162 117.261 15.5384C117.121 15.1605 116.907 14.8551 116.617 14.6222C116.327 14.3892 115.958 14.2727 115.509 14.2727C115.06 14.2727 114.691 14.3892 114.401 14.6222C114.112 14.8551 113.897 15.1605 113.758 15.5384C113.619 15.9162 113.549 16.3239 113.549 16.7614C113.549 17.1989 113.619 17.6051 113.758 17.9801C113.897 18.3551 114.112 18.6577 114.401 18.8878C114.691 19.1179 115.06 19.233 115.509 19.233ZM121.016 16.0625V20H120.01V13.4545H120.982V14.4773H121.067C121.221 14.1449 121.453 13.8778 121.766 13.6761C122.078 13.4716 122.482 13.3693 122.976 13.3693C123.419 13.3693 123.807 13.4602 124.14 13.642C124.472 13.821 124.73 14.0938 124.915 14.4602C125.1 14.8239 125.192 15.2841 125.192 15.8409V20H124.186V15.9091C124.186 15.3949 124.053 14.9943 123.786 14.7074C123.519 14.4176 123.152 14.2727 122.686 14.2727C122.365 14.2727 122.078 14.3423 121.826 14.4815C121.576 14.6207 121.378 14.8239 121.233 15.0909C121.088 15.358 121.016 15.6818 121.016 16.0625ZM133.251 13.4545V14.3068H129.859V13.4545H133.251ZM130.848 11.8864H131.854V18.125C131.854 18.4091 131.895 18.6222 131.977 18.7642C132.063 18.9034 132.17 18.9972 132.301 19.0455C132.435 19.0909 132.575 19.1136 132.723 19.1136C132.834 19.1136 132.925 19.108 132.996 19.0966C133.067 19.0824 133.124 19.071 133.166 19.0625L133.371 19.9659C133.303 19.9915 133.207 20.017 133.085 20.0426C132.963 20.071 132.808 20.0852 132.621 20.0852C132.337 20.0852 132.058 20.0241 131.786 19.902C131.516 19.7798 131.291 19.5938 131.112 19.3438C130.936 19.0938 130.848 18.7784 130.848 18.3977V11.8864ZM135.911 16.0625V20H134.905V11.2727H135.911V14.4773H135.996C136.149 14.1392 136.379 13.8707 136.686 13.6719C136.996 13.4702 137.408 13.3693 137.922 13.3693C138.368 13.3693 138.759 13.4588 139.094 13.6378C139.429 13.8139 139.689 14.0852 139.874 14.4517C140.061 14.8153 140.155 15.2784 140.155 15.8409V20H139.149V15.9091C139.149 15.3892 139.014 14.9872 138.744 14.7031C138.477 14.4162 138.107 14.2727 137.632 14.2727C137.303 14.2727 137.007 14.3423 136.746 14.4815C136.487 14.6207 136.283 14.8239 136.132 15.0909C135.984 15.358 135.911 15.6818 135.911 16.0625ZM144.739 20.1364C144.108 20.1364 143.564 19.9972 143.107 19.7188C142.652 19.4375 142.301 19.0455 142.054 18.5426C141.81 18.0369 141.688 17.4489 141.688 16.7784C141.688 16.108 141.81 15.517 142.054 15.0057C142.301 14.4915 142.645 14.0909 143.086 13.804C143.529 13.5142 144.046 13.3693 144.637 13.3693C144.978 13.3693 145.314 13.4261 145.647 13.5398C145.979 13.6534 146.282 13.8381 146.554 14.0938C146.827 14.3466 147.044 14.6818 147.206 15.0994C147.368 15.517 147.449 16.0312 147.449 16.642V17.0682H142.404V16.1989H146.426C146.426 15.8295 146.353 15.5 146.205 15.2102C146.06 14.9205 145.853 14.6918 145.583 14.5241C145.316 14.3565 145 14.2727 144.637 14.2727C144.236 14.2727 143.89 14.3722 143.597 14.571C143.307 14.767 143.084 15.0227 142.928 15.3381C142.772 15.6534 142.694 15.9915 142.694 16.3523V16.9318C142.694 17.4261 142.779 17.8452 142.949 18.1889C143.123 18.5298 143.363 18.7898 143.669 18.9688C143.976 19.1449 144.333 19.233 144.739 19.233C145.003 19.233 145.242 19.196 145.455 19.1222C145.671 19.0455 145.857 18.9318 146.013 18.7812C146.169 18.6278 146.29 18.4375 146.375 18.2102L147.347 18.483C147.245 18.8125 147.073 19.1023 146.831 19.3523C146.59 19.5994 146.292 19.7926 145.936 19.9318C145.581 20.0682 145.182 20.1364 144.739 20.1364Z" fill="white"></path><path d="M54.642 42H52.392L56.4886 30.3636H59.0909L63.1932 42H60.9432L57.8352 32.75H57.7443L54.642 42ZM54.7159 37.4375H60.8523V39.1307H54.7159V37.4375ZM64.6349 45.2727V33.2727H66.6577V34.7159H66.777C66.883 34.5038 67.0327 34.2784 67.2259 34.0398C67.419 33.7973 67.6804 33.5909 68.0099 33.4205C68.3395 33.2462 68.7599 33.1591 69.2713 33.1591C69.9455 33.1591 70.5535 33.3314 71.0952 33.6761C71.6406 34.017 72.0724 34.5227 72.3906 35.1932C72.7126 35.8598 72.8736 36.678 72.8736 37.6477C72.8736 38.6061 72.7164 39.4205 72.402 40.0909C72.0876 40.7614 71.6596 41.2727 71.1179 41.625C70.5762 41.9773 69.9626 42.1534 69.277 42.1534C68.777 42.1534 68.3622 42.0701 68.0327 41.9034C67.7031 41.7367 67.438 41.536 67.2372 41.3011C67.0402 41.0625 66.8868 40.8371 66.777 40.625H66.6918V45.2727H64.6349ZM66.652 37.6364C66.652 38.2008 66.7315 38.6951 66.8906 39.1193C67.0535 39.5436 67.2865 39.875 67.5895 40.1136C67.8963 40.3485 68.2675 40.4659 68.7031 40.4659C69.1577 40.4659 69.5384 40.3447 69.8452 40.1023C70.152 39.8561 70.383 39.5208 70.5384 39.0966C70.6974 38.6686 70.777 38.1818 70.777 37.6364C70.777 37.0947 70.6993 36.6136 70.544 36.1932C70.3887 35.7727 70.1577 35.4432 69.8509 35.2045C69.544 34.9659 69.1615 34.8466 68.7031 34.8466C68.2637 34.8466 67.8906 34.9621 67.5838 35.1932C67.277 35.4242 67.044 35.7481 66.8849 36.1648C66.7296 36.5814 66.652 37.072 66.652 37.6364ZM74.6349 45.2727V33.2727H76.6577V34.7159H76.777C76.883 34.5038 77.0327 34.2784 77.2259 34.0398C77.419 33.7973 77.6804 33.5909 78.0099 33.4205C78.3395 33.2462 78.7599 33.1591 79.2713 33.1591C79.9455 33.1591 80.5535 33.3314 81.0952 33.6761C81.6406 34.017 82.0724 34.5227 82.3906 35.1932C82.7126 35.8598 82.8736 36.678 82.8736 37.6477C82.8736 38.6061 82.7164 39.4205 82.402 40.0909C82.0876 40.7614 81.6596 41.2727 81.1179 41.625C80.5762 41.9773 79.9626 42.1534 79.277 42.1534C78.777 42.1534 78.3622 42.0701 78.0327 41.9034C77.7031 41.7367 77.438 41.536 77.2372 41.3011C77.0402 41.0625 76.8868 40.8371 76.777 40.625H76.6918V45.2727H74.6349ZM76.652 37.6364C76.652 38.2008 76.7315 38.6951 76.8906 39.1193C77.0535 39.5436 77.2865 39.875 77.5895 40.1136C77.8963 40.3485 78.2675 40.4659 78.7031 40.4659C79.1577 40.4659 79.5384 40.3447 79.8452 40.1023C80.152 39.8561 80.383 39.5208 80.5384 39.0966C80.6974 38.6686 80.777 38.1818 80.777 37.6364C80.777 37.0947 80.6993 36.6136 80.544 36.1932C80.3887 35.7727 80.1577 35.4432 79.8509 35.2045C79.544 34.9659 79.1615 34.8466 78.7031 34.8466C78.2637 34.8466 77.8906 34.9621 77.5838 35.1932C77.277 35.4242 77.044 35.7481 76.8849 36.1648C76.7296 36.5814 76.652 37.072 76.652 37.6364ZM95.5014 35.5795L93.6264 35.7841C93.5734 35.5947 93.4806 35.4167 93.348 35.25C93.2192 35.0833 93.045 34.9489 92.8253 34.8466C92.6056 34.7443 92.3366 34.6932 92.0185 34.6932C91.5904 34.6932 91.2306 34.786 90.9389 34.9716C90.651 35.1572 90.509 35.3977 90.5128 35.6932C90.509 35.947 90.6018 36.1534 90.7912 36.3125C90.9844 36.4716 91.3026 36.6023 91.7457 36.7045L93.2344 37.0227C94.0601 37.2008 94.6738 37.483 95.0753 37.8693C95.4806 38.2557 95.6851 38.7614 95.6889 39.3864C95.6851 39.9356 95.5241 40.4205 95.206 40.8409C94.8916 41.2576 94.4541 41.5833 93.8935 41.8182C93.3329 42.053 92.6889 42.1705 91.9616 42.1705C90.8935 42.1705 90.0336 41.947 89.3821 41.5C88.7306 41.0492 88.3423 40.4223 88.2173 39.6193L90.223 39.4261C90.3139 39.8201 90.5071 40.1174 90.8026 40.3182C91.098 40.5189 91.4825 40.6193 91.956 40.6193C92.4446 40.6193 92.8366 40.5189 93.1321 40.3182C93.4313 40.1174 93.581 39.8693 93.581 39.5739C93.581 39.3239 93.4844 39.1174 93.2912 38.9545C93.1018 38.7917 92.8063 38.6667 92.4048 38.5795L90.9162 38.267C90.0791 38.0928 89.4598 37.7992 89.0582 37.3864C88.6567 36.9697 88.4579 36.4432 88.4616 35.8068C88.4579 35.2689 88.6037 34.803 88.8991 34.4091C89.1984 34.0114 89.6132 33.7045 90.1435 33.4886C90.6776 33.2689 91.2931 33.1591 91.9901 33.1591C93.0128 33.1591 93.8177 33.3769 94.4048 33.8125C94.9957 34.2481 95.3613 34.8371 95.5014 35.5795ZM101.743 33.2727V34.8636H96.7259V33.2727H101.743ZM97.9645 31.1818H100.021V39.375C100.021 39.6515 100.063 39.8636 100.146 40.0114C100.233 40.1553 100.347 40.2538 100.487 40.3068C100.627 40.3598 100.783 40.3864 100.953 40.3864C101.082 40.3864 101.199 40.3769 101.305 40.358C101.415 40.339 101.499 40.322 101.555 40.3068L101.902 41.9148C101.792 41.9527 101.635 41.9943 101.43 42.0398C101.23 42.0852 100.983 42.1117 100.692 42.1193C100.177 42.1345 99.7126 42.0568 99.2997 41.8864C98.8868 41.7121 98.5592 41.4432 98.3168 41.0795C98.0781 40.7159 97.9607 40.2614 97.9645 39.7159V31.1818ZM107.176 42.1705C106.324 42.1705 105.585 41.983 104.96 41.608C104.335 41.233 103.85 40.7083 103.506 40.0341C103.165 39.3598 102.994 38.572 102.994 37.6705C102.994 36.7689 103.165 35.9792 103.506 35.3011C103.85 34.6231 104.335 34.0966 104.96 33.7216C105.585 33.3466 106.324 33.1591 107.176 33.1591C108.028 33.1591 108.767 33.3466 109.392 33.7216C110.017 34.0966 110.5 34.6231 110.841 35.3011C111.186 35.9792 111.358 36.7689 111.358 37.6705C111.358 38.572 111.186 39.3598 110.841 40.0341C110.5 40.7083 110.017 41.233 109.392 41.608C108.767 41.983 108.028 42.1705 107.176 42.1705ZM107.188 40.5227C107.65 40.5227 108.036 40.3958 108.347 40.142C108.657 39.8845 108.888 39.5398 109.04 39.108C109.195 38.6761 109.273 38.1951 109.273 37.6648C109.273 37.1307 109.195 36.6477 109.04 36.2159C108.888 35.7803 108.657 35.4337 108.347 35.1761C108.036 34.9186 107.65 34.7898 107.188 34.7898C106.714 34.7898 106.32 34.9186 106.006 35.1761C105.695 35.4337 105.462 35.7803 105.307 36.2159C105.155 36.6477 105.08 37.1307 105.08 37.6648C105.08 38.1951 105.155 38.6761 105.307 39.108C105.462 39.5398 105.695 39.8845 106.006 40.142C106.32 40.3958 106.714 40.5227 107.188 40.5227ZM113.104 42V33.2727H115.098V34.7273H115.189C115.348 34.2235 115.621 33.8352 116.007 33.5625C116.397 33.286 116.842 33.1477 117.342 33.1477C117.456 33.1477 117.583 33.1534 117.723 33.1648C117.867 33.1723 117.986 33.1856 118.081 33.2045V35.0966C117.994 35.0663 117.856 35.0398 117.666 35.017C117.481 34.9905 117.301 34.9773 117.126 34.9773C116.751 34.9773 116.414 35.0587 116.115 35.2216C115.82 35.3807 115.587 35.6023 115.416 35.8864C115.246 36.1705 115.161 36.4981 115.161 36.8693V42H113.104ZM122.952 42.1705C122.077 42.1705 121.321 41.9886 120.685 41.625C120.052 41.2576 119.565 40.7386 119.224 40.0682C118.884 39.3939 118.713 38.6004 118.713 37.6875C118.713 36.7898 118.884 36.0019 119.224 35.3239C119.569 34.642 120.05 34.1117 120.668 33.733C121.285 33.3504 122.01 33.1591 122.844 33.1591C123.382 33.1591 123.889 33.2462 124.366 33.4205C124.848 33.5909 125.272 33.8561 125.639 34.2159C126.01 34.5758 126.302 35.0341 126.514 35.5909C126.726 36.1439 126.832 36.803 126.832 37.5682V38.1989H119.679V36.8125H124.861C124.857 36.4186 124.772 36.0682 124.605 35.7614C124.438 35.4508 124.205 35.2064 123.906 35.0284C123.611 34.8504 123.266 34.7614 122.872 34.7614C122.452 34.7614 122.082 34.8636 121.764 35.0682C121.446 35.2689 121.198 35.5341 121.02 35.8636C120.846 36.1894 120.757 36.5473 120.753 36.9375V38.1477C120.753 38.6553 120.846 39.0909 121.031 39.4545C121.217 39.8144 121.476 40.0909 121.81 40.2841C122.143 40.4735 122.533 40.5682 122.98 40.5682C123.279 40.5682 123.55 40.5265 123.793 40.4432C124.035 40.3561 124.245 40.2292 124.423 40.0625C124.601 39.8958 124.736 39.6894 124.827 39.4432L126.747 39.6591C126.626 40.1667 126.395 40.6098 126.054 40.9886C125.717 41.3636 125.285 41.6553 124.759 41.8636C124.232 42.0682 123.63 42.1705 122.952 42.1705Z" fill="white"></path><defs><clipPath id="clip0_1931_13737"><rect width="32" height="32" fill="white" transform="translate(8 12)"></rect></clipPath></defs></svg>