<svg xmlns="http://www.w3.org/2000/svg" width="24" height="24" viewBox="0 0 24 24" fill="none"><path d="M20.5207 20.4176C20.8276 20.0425 21 19.5338 21 19.0034V7.00336C21 6.47293 20.8276 5.96422 20.5207 5.58915C20.2138 5.21407 19.7976 5.00336 19.3636 5.00336H10.383C8.65903 5.00336 8.32516 3.27211 6.82693 3.02915C6.56257 2.98628 6.28937 3.00336 6.02233 3.00336C5.06948 3.00336 4.59305 3.00336 4.21846 3.16238C3.74138 3.36491 3.36155 3.74474 3.15902 4.22182C3 4.59641 3 5.07284 3 6.02569V19.0034C3 19.5338 3.1724 20.0425 3.47928 20.4176C3.78616 20.7926 4.20237 21.0034 4.63636 21.0034H19.3636C19.7976 21.0034 20.2138 20.7926 20.5207 20.4176Z" stroke="white" stroke-width="1.5" stroke-linecap="round" stroke-linejoin="round"></path><path d="M16 3H19" stroke="white" stroke-width="1.5" stroke-linecap="round" stroke-linejoin="round"></path><path d="M13.5 17C15.7091 17 17.5 15.2091 17.5 13C17.5 10.7909 15.7091 9 13.5 9C11.2909 9 9.5 10.7909 9.5 13C9.5 15.2091 11.2909 17 13.5 17Z" stroke="white" stroke-width="1.5" stroke-linecap="round" stroke-linejoin="round"></path></svg>