<svg xmlns="http://www.w3.org/2000/svg" width="123" height="32" viewBox="0 0 123 32" fill="none"><path d="M45.1348 0.492188V5.53514H42.9366C40.4798 5.53514 39.6609 7.38853 39.6609 9.84536V11.4401H43.928V15.6642H39.6609V31.5689H34.3593V15.6642H30.5232V11.4401H34.3593V9.84536C34.3593 3.94036 37.2471 0.492188 42.9366 0.492188H45.1348Z" fill="#111111"></path><path d="M65.7619 21.4398C65.7619 21.9571 65.7188 22.776 65.6757 23.2501H50.3313C50.6762 25.9656 52.9175 27.5604 55.8915 27.5604C57.9173 27.5604 59.9431 26.6983 60.9345 24.9742C62.1844 25.6639 63.6068 26.4397 64.943 27.1293C63.0896 30.5775 59.2535 31.9999 55.5467 31.9999C49.8141 31.9999 45.116 27.7759 45.116 21.4398C45.116 15.0607 49.8141 11.0091 55.5467 11.0091C61.2362 11.0091 65.7619 15.0607 65.7619 21.4398ZM50.2882 19.6727H60.6328C60.2448 16.9141 58.1759 15.4055 55.5898 15.4055C52.8313 15.4055 50.6762 16.9141 50.2882 19.6727Z" fill="#111111"></path><path d="M68.8969 31.5689V0.492188H74.1554V31.5689H68.8969Z" fill="#111111"></path><path d="M94.0585 31.5689V28.9827C92.8085 31.0516 89.7483 31.9568 87.8087 31.9568C82.5071 31.9568 77.5504 27.9052 77.5504 21.4829C77.5504 15.0607 82.5071 11.0091 87.8087 11.0091C89.6621 11.0091 92.5499 11.7419 94.0585 13.9401V11.4401H99.317V31.5689H94.0585ZM82.9812 21.4829C82.9812 24.7587 85.6105 26.9138 88.5414 26.9138C91.4293 26.9138 94.0585 24.9311 94.0585 21.4829C94.0585 18.0348 91.3 16.0521 88.5414 16.0521C85.6105 16.0521 82.9812 18.2072 82.9812 21.4829Z" fill="#111111"></path><path d="M109.242 20.8364V31.5689H103.983V11.4401H109.242V14.4142C110.405 12.216 112.862 11.0091 115.233 11.0091C119.931 11.0091 122.733 13.9401 122.733 19.6727V31.5689H117.474V20.6209C117.474 17.69 115.922 16.1383 113.638 16.1383C111.224 16.1383 109.242 17.3451 109.242 20.8364Z" fill="#111111"></path><path fill-rule="evenodd" clip-rule="evenodd" d="M0.328205 15.8209L7.76752 10.5919L0 5.09486V0L11.3778 8.04452L22.6462 0V5.09486L14.8786 10.5919L22.3179 15.8209L14.8786 21.0498L22.6462 26.5469V31.5077L11.3778 23.5972L0 31.5077V26.5469L7.76752 21.0498L0.328205 15.8209ZM11.3778 13.0053L7.43932 15.8209L11.3778 18.5024L15.2068 15.8209L11.3778 13.0053Z" fill="#1F72F2"></path></svg>