<svg xmlns="http://www.w3.org/2000/svg" width="40" height="40" viewBox="0 0 40 40" fill="none"><circle cx="24" cy="24" r="16" fill="#0066FF" fill-opacity="0.05"></circle><path d="M12.3348 5.78003V34.22" stroke="#111111" stroke-width="1.5" stroke-linecap="round" stroke-linejoin="round"></path><path d="M27.3348 5.78003V34.22" stroke="#111111" stroke-width="1.5" stroke-linecap="round" stroke-linejoin="round"></path><path d="M12.3351 12.455H5.8101" stroke="#111111" stroke-width="1.5" stroke-linecap="round" stroke-linejoin="round"></path><path d="M12.335 20H5.045" stroke="#111111" stroke-width="1.5" stroke-linecap="round" stroke-linejoin="round"></path><path d="M12.335 27.455H5.71999" stroke="#111111" stroke-width="1.5" stroke-linecap="round" stroke-linejoin="round"></path><path d="M34.8351 12.455H28.3101" stroke="#111111" stroke-width="1.5" stroke-linecap="round" stroke-linejoin="round"></path><path d="M34.835 20H27.545" stroke="#111111" stroke-width="1.5" stroke-linecap="round" stroke-linejoin="round"></path><path d="M27.455 20H10.955" stroke="#111111" stroke-width="1.5" stroke-linecap="round" stroke-linejoin="round"></path><path d="M34.835 27.455H28.22" stroke="#111111" stroke-width="1.5" stroke-linecap="round" stroke-linejoin="round"></path><path d="M5 20C5 12.9289 5 9.3934 7.1967 7.1967C9.3934 5 12.9289 5 20 5C27.0711 5 30.6066 5 32.8033 7.1967C35 9.3934 35 12.9289 35 20C35 27.0711 35 30.6066 32.8033 32.8033C30.6066 35 27.0711 35 20 35C12.9289 35 9.3934 35 7.1967 32.8033C5 30.6066 5 27.0711 5 20Z" stroke="#111111" stroke-width="1.5" stroke-linecap="round" stroke-linejoin="round"></path></svg>