<svg xmlns="http://www.w3.org/2000/svg" width="40" height="40" viewBox="0 0 40 40" fill="none"><circle cx="24" cy="24" r="16" fill="#0066FF" fill-opacity="0.05"></circle><path d="M5 15.0026V13.6696C5 11.8028 5 10.8686 5.36331 10.1556C5.68289 9.52839 6.19245 9.01883 6.81966 8.69925C7.5327 8.33594 8.46682 8.33594 10.3337 8.33594H29.667C31.5338 8.33594 32.466 8.33594 33.179 8.69925C33.8062 9.01883 34.3175 9.52839 34.637 10.1556C35 10.8679 35 11.8009 35 13.6641V15.0026M5 15.0026H35M5 15.0026V26.3363C5 28.2031 5 29.136 5.36331 29.8491C5.68289 30.4763 6.19245 30.9867 6.81966 31.3063C7.532 31.6693 8.46499 31.6693 10.3282 31.6693H29.6718C31.535 31.6693 32.4667 31.6693 33.179 31.3063C33.8062 30.9867 34.3175 30.4763 34.637 29.8491C35 29.1367 35 28.2051 35 26.3419V15.0026" stroke="#111111" stroke-width="1.5" stroke-linecap="round" stroke-linejoin="round"></path><path d="M10 25H16.6667" stroke="#111111" stroke-width="1.5" stroke-linecap="round" stroke-linejoin="round"></path></svg>