<svg xmlns="http://www.w3.org/2000/svg" width="57" height="56" viewBox="0 0 57 56" fill="none"><rect x="0.5" width="56" height="56" rx="28" fill="#1F72F2"></rect><path d="M16.832 27.9974C16.832 23.5976 16.832 21.3977 18.5406 20.0309C20.2491 18.6641 22.999 18.6641 28.4987 18.6641C33.9984 18.6641 36.7483 18.6641 38.4568 20.0309C40.1654 21.3977 40.1654 23.5976 40.1654 27.9974C40.1654 32.3972 40.1654 34.5971 38.4568 35.9639C36.7483 37.3307 33.9984 37.3307 28.4987 37.3307C22.999 37.3307 20.2491 37.3307 18.5406 35.9639C16.832 34.5971 16.832 32.3972 16.832 27.9974Z" stroke="white" stroke-width="1.5" stroke-linecap="round" stroke-linejoin="round"></path><path d="M38.6126 20.1953L32.9829 25.4324C30.8402 27.218 29.7688 28.1108 28.5016 28.1108C27.2345 28.1108 26.1631 27.218 24.0203 25.4324L18.3906 20.1953" stroke="white" stroke-width="1.5" stroke-linecap="round" stroke-linejoin="round"></path></svg>