<svg xmlns="http://www.w3.org/2000/svg" width="40" height="40" viewBox="0 0 40 40" fill="none"><circle cx="24" cy="24" r="16" fill="#0066FF" fill-opacity="0.05"></circle><path d="M15.7972 5H12.084C10.0129 5 8.33398 6.67893 8.33398 8.75V31.25C8.33398 33.3211 10.0129 35 12.084 35H27.084C29.1551 35 30.834 33.3211 30.834 31.25V20M15.7972 5C17.8683 5 19.584 6.67893 19.584 8.75V12.5C19.584 14.5711 21.2629 16.25 23.334 16.25H27.084C29.1551 16.25 30.834 17.9289 30.834 20M15.7972 5C21.9471 5 30.834 13.9328 30.834 20" stroke="#111111" stroke-width="1.5" stroke-linecap="round" stroke-linejoin="round"></path><path d="M15 27.5H25" stroke="#111111" stroke-width="1.5" stroke-linecap="round" stroke-linejoin="round"></path><path d="M15 22.5H21.6667" stroke="black" stroke-width="1.5" stroke-linecap="round" stroke-linejoin="round"></path></svg>