<svg xmlns="http://www.w3.org/2000/svg" width="40" height="40" viewBox="0 0 40 40" fill="none"><circle cx="24" cy="24" r="16" fill="#0066FF" fill-opacity="0.05"></circle><path d="M34.2012 34.0237C34.7127 33.3986 35 32.5507 35 31.6667V11.6667C35 10.7826 34.7127 9.93476 34.2012 9.30964C33.6897 8.68452 32.996 8.33333 32.2727 8.33333H17.3049C14.4317 8.33333 13.8753 5.44791 11.3782 5.04298C10.9376 4.97153 10.4823 5 10.0372 5C8.44913 5 7.65509 5 7.03077 5.26504C6.23564 5.60259 5.60259 6.23563 5.26504 7.03077C5 7.65509 5 8.44913 5 10.0372V31.6667C5 32.5507 5.28734 33.3986 5.7988 34.0237C6.31026 34.6488 7.00395 35 7.72727 35H32.2727C32.996 35 33.6897 34.6488 34.2012 34.0237Z" stroke="#111111" stroke-width="1.5" stroke-linecap="round" stroke-linejoin="round"></path><path d="M26.6667 5H31.6667" stroke="#111111" stroke-width="1.5" stroke-linecap="round" stroke-linejoin="round"></path><path d="M22.5 28.3333C26.1819 28.3333 29.1667 25.3486 29.1667 21.6667C29.1667 17.9848 26.1819 15 22.5 15C18.8181 15 15.8333 17.9848 15.8333 21.6667C15.8333 25.3486 18.8181 28.3333 22.5 28.3333Z" stroke="black" stroke-width="1.5" stroke-linecap="round" stroke-linejoin="round"></path></svg>