<svg xmlns="http://www.w3.org/2000/svg" width="40" height="40" viewBox="0 0 40 40" fill="none"><circle cx="24" cy="24" r="16" fill="#0066FF" fill-opacity="0.05"></circle><path d="M12.7161 12.7161L17.7262 17.7263M5.06956 7.23449L9.43023 22.4968C10.7267 27.0344 14.3183 30.1627 19.0374 30.1627C19.7434 30.1627 20.4494 30.0776 21.144 29.9169C21.7971 29.7658 22.4974 29.9143 22.9714 30.3883L27.0702 34.4871C27.7541 35.171 28.8629 35.171 29.5468 34.4871L34.4871 29.5468C35.171 28.8629 35.171 27.7541 34.4871 27.0702L30.3946 22.9777C29.9217 22.5049 29.7728 21.8067 29.9213 21.1546C30.0788 20.463 30.1627 19.7543 30.1627 19.0374C30.1627 14.3183 27.0344 10.7267 22.4968 9.43023L7.23449 5.06956C5.91346 4.69213 4.69212 5.91346 5.06956 7.23449Z" stroke="#111111" stroke-width="1.5" stroke-linecap="round" stroke-linejoin="round"></path></svg>