<svg xmlns="http://www.w3.org/2000/svg" width="18" height="18" viewBox="0 0 18 18" fill="none"><path d="M15.75 12.75V9C15.75 5.27208 12.7279 2.25 9 2.25C5.27208 2.25 2.25 5.27208 2.25 9V12.75" stroke="white" stroke-width="1.5" stroke-linecap="round" stroke-linejoin="round"></path><path d="M12 11.2184C12 10.8352 12 10.6436 12.044 10.4915C12.1457 10.1397 12.4111 9.87281 12.7416 9.79025C13.696 9.55183 13.8893 10.4389 14.5739 10.7143C14.5912 10.7212 14.6085 10.7283 14.6258 10.7356C15.3698 11.0482 15.7489 11.8443 15.747 12.6513L15.7464 12.9184C15.7447 13.6313 15.3651 14.295 14.7319 14.6226C14.0282 14.9867 13.7935 15.9366 12.7709 15.7176C12.4433 15.6474 12.1731 15.3963 12.0583 15.0553C12 14.8822 12 14.656 12 14.2036V11.2184Z" stroke="white" stroke-width="1.5" stroke-linecap="round" stroke-linejoin="round"></path><path d="M6.0009 14.2816C6.0009 14.6648 6.0009 14.8564 5.95693 15.0085C5.85525 15.3603 5.58976 15.6272 5.25929 15.7098C4.30494 15.9482 4.1116 15.0611 3.42697 14.7857C3.41152 14.7795 3.39605 14.7732 3.38057 14.7667C2.63192 14.4535 2.25203 13.6562 2.25391 12.849L2.25455 12.576C2.25621 11.8662 2.63543 11.2052 3.26898 10.8774C3.97268 10.5133 4.20739 9.56336 5.23002 9.7824C5.55763 9.85258 5.8278 10.1037 5.94262 10.4447C6.0009 10.6178 6.0009 10.844 6.0009 11.2964V14.2816Z" stroke="white" stroke-width="1.5" stroke-linecap="round" stroke-linejoin="round"></path></svg>