<svg xmlns="http://www.w3.org/2000/svg" width="18" height="18" viewBox="0 0 18 18" fill="none"><path d="M2.25 11.8125V6.1875C2.25 5.35907 2.92157 4.6875 3.75 4.6875H10.125C10.9534 4.6875 11.625 5.35907 11.625 6.1875V11.8125C11.625 12.6409 10.9534 13.3125 10.125 13.3125H3.75C2.92157 13.3125 2.25 12.6409 2.25 11.8125Z" stroke="white" stroke-width="1.5" stroke-linecap="round" stroke-linejoin="round"></path><path d="M15.1256 5.24413L12.1256 7.91581C12.0457 7.98696 12 8.08886 12 8.19585V9.52927C12 9.63626 12.0457 9.73816 12.1256 9.80932L15.1256 12.481C15.3674 12.6963 15.75 12.5247 15.75 12.201V5.52417C15.75 5.20044 15.3674 5.02882 15.1256 5.24413Z" stroke="white" stroke-width="1.5" stroke-linecap="round" stroke-linejoin="round"></path></svg>